<svg id="圖層_1" data-name="圖層 1" xmlns="http://www.w3.org/2000/svg" viewBox="0 0 1080 616.71"><defs><style>.cls-1,.cls-17{fill:#fff;}.cls-10,.cls-11,.cls-15,.cls-2,.cls-5,.cls-9{fill:none;}.cls-2{stroke:#e5efd0;}.cls-14,.cls-2{stroke-miterlimit:10;}.cls-15,.cls-16,.cls-2,.cls-5{stroke-width:5.91px;}.cls-3{fill:#f2ebe3;}.cls-4{fill:#ede4da;}.cls-10,.cls-12,.cls-16,.cls-5,.cls-8,.cls-9{stroke:#1a1a1a;}.cls-10,.cls-11,.cls-12,.cls-14,.cls-15,.cls-16,.cls-17,.cls-5,.cls-8,.cls-9{stroke-linecap:round;}.cls-10,.cls-11,.cls-12,.cls-15,.cls-16,.cls-17,.cls-5,.cls-8,.cls-9{stroke-linejoin:round;}.cls-6{fill:#ada082;opacity:0.42;}.cls-7{fill:#dfe0e0;}.cls-8{fill:#a0a1a1;}.cls-10,.cls-11,.cls-14,.cls-17,.cls-8,.cls-9{stroke-width:4.43px;}.cls-10{stroke-dasharray:16.95 16.95;}.cls-11{stroke:#77ab30;}.cls-12{fill:#cddc4c;stroke-width:3.84px;}.cls-13{opacity:0.56;}.cls-14{fill:#ccb399;stroke:#ccb399;}.cls-15{stroke:#f7f7f7;stroke-dasharray:17.72;}.cls-16{fill:#ae9378;}.cls-17{stroke:#888;}</style></defs><title>互動設計UI</title><rect class="cls-1" width="1080" height="616.71"/><ellipse class="cls-2" cx="540" cy="300.48" rx="291.69" ry="226.72"/><path class="cls-3" d="M270.59,273.86l2.32-.37c.66-.25,1.32-.5,2-.73C272.61,273.33,270.3,273.91,270.59,273.86Z"/><path class="cls-4" d="M841.75,287.75c-.61-.34,2-37.3-20.48-38.74-122-11.95-183.68-18.82-264.83-15.95C510,234.7,454.18,231.88,407.75,235c-38.4,2.56-85.78,5.8-123.32,11.83-2.9,1.07-32.19,4.46-35.77,4.79C226.17,261.36,234.55,277.46,233,278c-34.28,11.17-46.83,57.22-15.7,70.76a33.32,33.32,0,0,0,4.67,1.32c.13,1.95,3.86,1.44,4.15,3.29-3.55,4-5.41,10.78-5.41,15.21a39.71,39.71,0,0,0,9.93,26.92c16,16.34,37.66,16.81,40.17,17.94-5.6,20.74,6.22,49.08,27.63,51.35l25.24,2.66c2.59,9.69,17.53,21.37,28.08,26,20.31,8.92,32.66,8.27,50.92,10.36,19.81,30.1,141.25,27.86,169.16,24.54C610.89,523.7,682,518.22,713,485.44c16.81-17.76,25.75-20.23,47.39-24.5,19.27-3.81,35.07-1.7,48.92-19.26,5.88-7.46,3-24.1,0-30.28,28.05-8.65,30.72-24.23,30.13-40.91,0-.6-.09-1.19-.13-1.79,9.83-8,19.8-20.4,24.27-32.88C870.64,316,860.31,297.82,841.75,287.75Z"/><path class="cls-3" d="M274.92,272.76l4.33-1.07A26.36,26.36,0,0,0,274.92,272.76Z"/><path class="cls-5" d="M242.56,251.36s348.68-42.15,595.82,0"/><path class="cls-6" d="M683.71,258.15l87.49,2a4,4,0,0,1,2.63,6.9L607.74,399.82a36.32,36.32,0,0,1-24.2,9.24l-171.65-2.69a4,4,0,0,1-2.41-7.08l60.25-46.58"/><path class="cls-1" d="M716.13,162.53s23.43-11.2,21.39,15.28c0,0,6.7,102.93-9.89,99.33L468.89,368.3l1-90.64,105.66-78.21Z"/><path class="cls-7" d="M638,178.61s-15.28-1.4-26.91,7.66L471,290.85l-.54,97s104.47,6.45,116.8-7.82L727.63,277.14l-1.76-100.78Z"/><polygon class="cls-1" points="724.31 170.7 578.43 283.15 729.32 184.05 724.31 170.7"/><polyline class="cls-5" points="627.68 161.38 737.02 161.38 737.02 270.72"/><rect class="cls-5" x="470.45" y="278.43" width="109.35" height="109.35"/><line class="cls-5" x1="579.79" y1="278.43" x2="737.02" y2="161.38"/><line class="cls-5" x1="470.45" y1="278.43" x2="627.68" y2="161.38"/><line class="cls-5" x1="737.02" y1="270.72" x2="579.79" y2="387.77"/><rect class="cls-8" x="483.51" y="292.54" width="80.8" height="80.8"/><line class="cls-9" x1="590.65" y1="364.05" x2="597.78" y2="358.79"/><line class="cls-10" x1="611.42" y1="348.73" x2="713.71" y2="273.29"/><line class="cls-9" x1="720.53" y1="268.26" x2="727.66" y2="263"/><line class="cls-9" x1="590.65" y1="289.64" x2="597.78" y2="284.38"/><line class="cls-10" x1="611.42" y1="274.32" x2="713.71" y2="198.89"/><line class="cls-9" x1="720.53" y1="193.86" x2="727.66" y2="188.6"/><line class="cls-8" x1="490.83" y1="365.66" x2="536.37" y2="332.46"/><path class="cls-11" d="M749.39,356.71s.31-8-6.57-15.72"/><path class="cls-11" d="M760.6,356.51s-.32-12.93,2.26-20.37"/><line class="cls-11" x1="772.56" y1="355.86" x2="776.76" y2="347.45"/><path class="cls-11" d="M421.75,277.77s.25-6.62-5.45-13"/><path class="cls-11" d="M431,277.6s-.27-10.72,1.87-16.88"/><line class="cls-11" x1="440.95" y1="277.06" x2="444.44" y2="270.09"/><path class="cls-11" d="M352.2,402s.25-6.61-5.45-13"/><path class="cls-11" d="M361.49,401.79s-.27-10.71,1.87-16.88"/><line class="cls-11" x1="371.4" y1="401.26" x2="374.89" y2="394.29"/><path class="cls-11" d="M509.16,488.2s.31-8-6.57-15.72"/><path class="cls-11" d="M520.38,488s-.33-12.93,2.26-20.37"/><line class="cls-11" x1="532.34" y1="487.35" x2="536.54" y2="478.95"/><path class="cls-12" d="M668.5,428.3s2.83-19.37-6.62-43.94c0,0,15.12,13.7,16.07,29.76,0,0,4.25-16.06,12.28-25,0,0-1.42,20.79-.94,26.93,0,0,7.08-14.64,17-23.62,0,0-9.45,25.51-7.56,34.49"/><path class="cls-12" d="M331.74,323.49s2.84-19.37-6.61-43.94c0,0,15.12,13.7,16.06,29.77,0,0,4.25-16.07,12.28-25,0,0-1.41,20.78-.94,26.93,0,0,7.09-14.65,17-23.63,0,0-9.45,25.52-7.56,34.49"/><g class="cls-13"><line class="cls-14" x1="277.04" y1="293.74" x2="299.66" y2="292.84"/><line class="cls-14" x1="773.65" y1="292.39" x2="796.24" y2="293.64"/><line class="cls-14" x1="376.55" y1="341.18" x2="406.75" y2="340.17"/></g><path class="cls-15" d="M320.42,438.9s82.86-30.53,146.53-4.58c0,0,145.59,39.67,240.3,15.76"/><path class="cls-16" d="M751.38,473.58s-65,20.68-135,.47c0,0,49.22,29.8,111.12,18.71"/><path class="cls-17" d="M638,432.41a13.63,13.63,0,0,0-18.68-12.68,14.34,14.34,0,0,0-25.74,6.94,12.66,12.66,0,0,0,1.55,25,16.25,16.25,0,0,0,28.54,5.12,10.65,10.65,0,0,0,3.8.71,10.52,10.52,0,0,0,8-17.31A13.52,13.52,0,0,0,638,432.41Z"/><path class="cls-17" d="M600.6,438.14s-1.9,8.22,6.95,10.74"/><path class="cls-17" d="M547.57,458.49A17,17,0,0,0,526.41,447a16.79,16.79,0,0,0-5.68,2.95,17.91,17.91,0,0,0-28.36,17.42,15.8,15.8,0,0,0,10.72,29.41,20.29,20.29,0,0,0,36-4,12.91,12.91,0,0,0,4.79-.49A13.14,13.14,0,0,0,552.74,476a13,13,0,0,0-5.36-7.23A16.85,16.85,0,0,0,547.57,458.49Z"/><path class="cls-17" d="M504.79,478.6s.63,10.51,12.12,10.4"/></svg>