<svg id="圖層_1" data-name="圖層 1" xmlns="http://www.w3.org/2000/svg" viewBox="0 0 1080 616.71"><defs><style>.cls-1,.cls-2,.cls-21{fill:#fff;}.cls-2{stroke:#e5efd0;}.cls-2,.cls-22,.cls-24{stroke-miterlimit:10;}.cls-11,.cls-2{stroke-width:5.91px;}.cls-10,.cls-11,.cls-17,.cls-3{fill:none;}.cls-11,.cls-17,.cls-19,.cls-21,.cls-26,.cls-3,.cls-9{stroke:#1a1a1a;}.cls-10,.cls-11,.cls-17,.cls-19,.cls-21,.cls-22,.cls-24,.cls-26,.cls-28,.cls-3,.cls-9{stroke-linecap:round;}.cls-10,.cls-11,.cls-17,.cls-19,.cls-21,.cls-26,.cls-28,.cls-3,.cls-9{stroke-linejoin:round;}.cls-3{stroke-width:6.5px;}.cls-4,.cls-9{fill:#cddc4c;}.cls-5{fill:#7ebc25;}.cls-6{fill:#f2ebe3;}.cls-7{fill:#ede4da;}.cls-8{fill:#d0bfad;}.cls-9{stroke-width:3.84px;}.cls-10{stroke:#77ab30;}.cls-10,.cls-24,.cls-26,.cls-28{stroke-width:4.43px;}.cls-12{fill:#d6d6d6;}.cls-13,.cls-22{fill:#d6a17f;}.cls-14{fill:#e4bfa4;}.cls-15,.cls-19{fill:#2c88c9;}.cls-16{fill:#b3b3b3;}.cls-17,.cls-19,.cls-21,.cls-22{stroke-width:4.14px;}.cls-18{fill:#c2ddec;}.cls-20{fill:#1a1a1a;}.cls-22{stroke:#a77858;}.cls-23{opacity:0.56;}.cls-24{fill:#ccb399;stroke:#ccb399;}.cls-25{fill:#f8ddc8;}.cls-26,.cls-28{fill:#f29a4a;}.cls-27{fill:#d27822;}.cls-28{stroke:#fff;}</style></defs><title>互動設計UI</title><rect class="cls-1" width="1080" height="616.71"/><ellipse class="cls-2" cx="540" cy="300.48" rx="291.69" ry="226.72"/><polygon class="cls-1" points="240.08 257.41 239.57 278.85 269.18 264.56 267.14 241.07 240.08 257.41"/><path class="cls-1" d="M816.11,259.26l15.25,9.94s14.22,11.05,3.46,22.43l-24.67-10.5Z"/><path class="cls-1" d="M425.17,271.44c-3.88-2.57-3.07-1.56-8.16-4.51-2.29-1.32-4.36-4.08-7.48-5.76-2.52-1.35-5.56-2.33-8.55-3.81-2.64-1.31-5.78-2-8.74-3.36-2.71-1.25-5.92-1.66-8.88-2.91-2.78-1.17-5.3-3.21-8.28-4.35s-6.23-.8-9.22-1.83-5.61-2.57-8.63-3.48-5.92-1.66-9-2.43-5.65-3-8.71-3.68-6.51,1.23-9.59.75-6-2-9-2.31-6.14-1.28-9.25-1.39-6.22.07-9.33.17-6.25,0-9.34.31-6.41-.31-9.46.28-5.82,2.68-8.81,3.55-5.55,2.82-8.45,4-5.25,3.1-8,4.55-7,.29-9.61,2-4.39,4.58-6.85,6.57-3.32,5.41-5.58,7.64"/><path class="cls-1" d="M624.89,261.49c-4-2.3-3.72-.53-8.77-3.21-2.33-1.24-4.35-4.13-7.44-5.7-2.55-1.28-5.62-2.1-8.57-3.51-2.66-1.27-5.4-2.75-8.29-4s-5.3-3.18-8.18-4.39-5.77-2.23-8.65-3.33-6.76.55-9.65-.42-5.79-2.07-8.69-2.87c-3.06-.85-5.51-3.84-8.42-4.41-3.18-.62-6.49.34-9.38.13-4.45-.58-3.14-2.15-8.83-2.37-2.52-.09-5.5,2.92-8.93,3.06-2.73.11-5.89-2.44-9.11-2.07-2.8.31-6,0-9.07.55-2.81.51-5.58,2.2-8.61,3-2.79.69-6.09.29-9.05,1.23-2.75.88-4.55,4.84-7.42,6-2.71,1-5.35,2.26-8.15,3.55-2.64,1.22-6.14.85-8.84,2.3s-4.56,3.92-7.17,5.52-5.27,2.68-7.79,4.42-5.13,3-7.55,4.89-5.08,3.19-7.4,5.19-4.43,4-6.64,6.1"/><path class="cls-1" d="M837.09,270.1c-2.3-2.11-5.21-3.46-7.53-5.39s-4.14-4.77-6.55-6.57-4.57-4.38-7.08-6-6.87-.71-9.47-2.23-4.27-5.06-7-6.43-6-1.69-8.83-2.88-6-1.4-8.89-2.42-5.87-1.6-8.78-2.43-5.9-1.39-8.86-2-5.85-1.75-8.85-2.21-6.07-.38-9.09-.66-6-.89-9.07-1-6.14-1.6-9.17-1.51-6.2.1-9.22.36-6.4-1-9.4-.6-5.59,4.14-8.56,4.71-6.69-1.56-9.62-.84-5.73,2.75-8.61,3.6-5.89,2-8.73,3-5.4,3.32-8.16,4.41c-3,1.16-6.63.38-9.32,1.57-3,1.31-4.86,4.5-7.46,5.78-3,1.47-5.46,3.25-7.93,4.6-3.08,1.68-6.06,2.6-8.28,3.95-5,3-4.29,1.8-8,4.51"/><path class="cls-3" d="M424.69,272.17c-3.88-2.57-3.16-1.31-8.25-4.26-2.28-1.32-3.57-5.48-6.69-7.15-2.51-1.35-5.43-2.61-8.43-4.1-2.63-1.31-5.36-2.94-8.32-4.3-2.72-1.24-6.9.51-9.86-.74-2.79-1.17-5.68-2.17-8.66-3.31s-5-4.31-8-5.34-6.4-.23-9.42-1.14-5.57-3-8.61-3.73-6.09-1.14-9.15-1.78-5.79-3.06-8.87-3.54-6.25-.81-9.35-1.12-6.3-.33-9.4-.44-6.33-.41-9.43-.31-6,3.37-9.1,3.7-6.34-.73-9.39-.14-6.29.62-9.28,1.49-5.89,2.16-8.79,3.32a93.11,93.11,0,0,0-8.64,3.7c-2.72,1.41-4.93,3.87-7.56,5.6s-3.95,4.87-6.41,6.86-5.53,2.87-7.79,5.1"/><path class="cls-3" d="M623.55,263.81c-4-2.29-2.76-2.13-7.81-4.81-2.33-1.24-4.34-4.12-7.43-5.68-2.55-1.29-6-1.17-9-2.58-2.67-1.27-5.3-2.87-8.2-4.18-2.74-1.24-5.44-2.72-8.32-3.92s-5.14-3.69-8-4.79-6.54,0-9.42-1-5.69-2.45-8.59-3.25c-3.06-.85-6-1.28-9-1.85a74.71,74.71,0,0,0-9-1.33c-4.44-.59-3.12-1-8.81-1.21-2.52-.1-5.57-2.35-9-2.21-2.73.11-5.54,2.91-8.76,3.28-2.79.31-6.14-1.75-9.25-1.19-2.81.51-5.51,2.42-8.54,3.18-2.79.7-5.31,2.66-8.27,3.6-2.75.88-5.26,2.51-8.13,3.63-2.71,1.05-6.1.58-8.89,1.87s-6.2.91-8.91,2.36-5.15,3.09-7.76,4.69-3.74,5.14-6.25,6.89-6.4,1.33-8.82,3.2-3.59,5-5.91,7-3.95,4.44-6.16,6.55"/><path class="cls-3" d="M837.07,270.12c-2.3-2.11-4-4.9-6.33-6.82s-4.94-3.86-7.36-5.66-5.74-2.69-8.25-4.36-5.22-3.34-7.83-4.86-4.66-4.51-7.35-5.87-7.12.62-9.89-.58-5.54-2.51-8.39-3.52-4.89-4.95-7.8-5.79-6-1.81-9-2.46-6.41.45-9.41,0-6.16-.23-9.19-.5-6.12-.16-9.15-.25-6.09.74-9.13.83-6.35-3-9.37-2.78-5.83,3.48-8.83,3.9-6.06.8-9,1.38-5.8,2.06-8.73,2.78-6.58-.74-9.46.11-5.61,2.82-8.45,3.79-5.6,2.69-8.37,3.78c-3,1.16-6.68.21-9.37,1.4-3,1.31-4.67,4.89-7.27,6.17-3,1.47-5.49,3.14-8,4.49-3.07,1.68-6.94,1.11-9.16,2.46-5,3-4.6,1.54-8.32,4.25"/><path class="cls-4" d="M231.67,289.65l4,43.64S676.3,302,836.55,331.59l1.1-42.8L667.61,275l-37.9,6.34-37.4-2.55-44.84-1.59L527,255.86,414.59,297.08Z"/><path class="cls-4" d="M426.5,293.36c-4-2.38-2.4-2.72-7.56-5.45-2.31-1.22-6.6.39-9.75-1.16-2.54-1.24-3.71-6-6.72-7.35-2.65-1.21-5.28-3-8.25-4.28-2.73-1.15-5.75-2.07-8.71-3.23-2.78-1.09-6.18-.91-9.15-2s-5.92-1.57-8.9-2.53-5.75-2.1-8.75-3-6-1.1-9.06-1.85-5.9-1.68-8.93-2.31-6-1.53-9-2-6-1.43-9.1-1.78-6.22.18-9.29,0-6.16-.67-9.23-.68-6.25-1-9.32-.77-6.12,1.43-9.17,1.82-5.93,1.87-8.94,2.51-6.06,1-9,1.92-5.48,2.78-8.34,3.94-6.05,1.44-8.8,2.87-5.11,3.36-7.7,5.07a90.21,90.21,0,0,0-7.38,5.48c-2.35,1.91-5.11,3.72-7.34,5.91.5,6.36.06,6.83,4.6,11.31,3.26,3.21,3.62,1.14,8.19,1.17s4.58-.47,9.16-.43,4.55,2.66,9.12,2.7,4.58-.63,9.15-.59,4.6-2.32,9.17-2.28,4.59-1.39,9.16-1.35,4.55,3.68,9.12,3.71,4.59-2.41,9.17-2.38,4.58-1.2,9.16-1.16,4.55,2.26,9.13,2.29,4.57,1.15,9.14,1.19,4.6-2.92,9.18-2.88,4.56,1.62,9.14,1.65,4.56,1.18,9.14,1.21,4.58-.21,9.15-.17,4.58.29,9.15.32,4.6-3,9.18-3,4.55,2.82,9.13,2.86,4.58-1.26,9.16-1.22,4.55,3,9.13,3,4.58,0,9.15.05,4.61-4.33,9.19-4.29,4.58-.06,9.16,0,4.55,3.95,9.13,4,4.61-3.84,9.19-3.81"/><path class="cls-4" d="M627.9,280.38c-3.89-2.39-2.5-2.57-7.62-5.23-2.3-1.19-6.45.27-9.6-1.21-2.53-1.19-4.59-4-7.6-5.3-2.65-1.13-5.41-2.48-8.4-3.63-2.73-1.05-6.28-.15-9.26-1.18-2.8-1-5.19-3.37-8.18-4.27s-5.92-1.16-8.93-1.94-5.37-3.6-8.39-4.25-6.28.45-9.32-.06-6.17.69-9.22.33-5.71-4.22-8.78-4.42-6.17,1.17-9.24,1.14-6.12-.46-9.17-.3-6,1.46-9,1.82-6.37-1.14-9.38-.57-5.85,2.06-8.82,2.84-5.36,3.23-8.26,4.24-5.29,2.86-8.11,4.09-6.85-.25-9.57,1.2-4.17,4.92-6.77,6.58-5,3.27-7.49,5.13-5.94,2.3-8.27,4.34-2.59,6-4.78,8.24-4.39,4-6.44,6.37"/><path class="cls-4" d="M840.71,291.26c-2.47-1.88-3.8-5.19-6.28-6.91s-4.33-4.72-6.88-6.32-6.46-1.25-9.09-2.73-4.71-4.29-7.41-5.63-6-1.65-8.82-2.85-5.16-3.75-8-4.81-6.56.15-9.45-.76-5.18-4.3-8.11-5.05-6.38.1-9.34-.5-6.06-1-9.06-1.48-6.06-1.14-9.07-1.43-6.11-1.31-9.13-1.44-6.2,1.27-9.22,1.28-6.13.16-9.15.32-6.23-.57-9.23-.27-5.9,2.4-8.88,2.84-6.06.87-9,1.43-6.55-1-9.46-.36-5.33,4.15-8.2,5c-3,.84-6.62-.5-9.44.41-3,1-6.38.84-9.13,1.85-3,1.11-5.24,4-7.91,5.11-3.05,1.26-6.49,1.14-9,2.31-3.18,1.47-5.73,3.4-8,4.6-5.17,2.68-3.12,3.75-7,6.2"/><ellipse class="cls-5" cx="308.55" cy="277.89" rx="4.07" ry="7.04" transform="translate(-103.89 326.02) rotate(-48.66)"/><ellipse class="cls-5" cx="579.08" cy="287.76" rx="4.07" ry="7.04" transform="translate(-19.46 532.49) rotate(-48.66)"/><ellipse class="cls-5" cx="756.21" cy="300.55" rx="7.04" ry="4.07" transform="translate(-21.43 540.24) rotate(-38.81)"/><ellipse class="cls-5" cx="716.18" cy="277.36" rx="4.07" ry="7.04" transform="translate(34.9 631.9) rotate(-48.66)"/><ellipse class="cls-5" cx="364.45" cy="288.8" rx="7.04" ry="4.07" transform="translate(-98.97 250.44) rotate(-33.66)"/><ellipse class="cls-5" cx="529.28" cy="272.67" rx="7.04" ry="4.07" transform="translate(-62.39 339.1) rotate(-33.66)"/><ellipse class="cls-5" cx="647.82" cy="289.38" rx="3.27" ry="5.65" transform="translate(-61.28 313.76) rotate(-26.04)"/><ellipse class="cls-5" cx="295.08" cy="307.36" rx="5.65" ry="3.27" transform="translate(-93.25 482.68) rotate(-70.47)"/><ellipse class="cls-5" cx="257.56" cy="295.27" rx="3.27" ry="5.65" transform="translate(-121.23 395.47) rotate(-63.72)"/><ellipse class="cls-5" cx="479.9" cy="293.2" rx="5.65" ry="3.27" transform="translate(43.1 647.44) rotate(-70.47)"/><ellipse class="cls-5" cx="791.92" cy="287.71" rx="5.65" ry="3.27" transform="translate(255.97 937.84) rotate(-70.47)"/><path class="cls-6" d="M270.59,330.43l2.32-.3c.66-.2,1.32-.4,2-.58C272.61,330,270.3,330.46,270.59,330.43Z"/><path class="cls-7" d="M838.44,333.89a472.76,472.76,0,0,0-66.65-7.79c-122.06-9.52-170.58-14.19-251.73-11.91-46.48,1.31-93.09,1.69-139.53,4.16-38.39,2-70.08,7-107.62,11.78a40.82,40.82,0,0,1-9.24,2c-4.07-1.28-26.47.72-30.68,1.54-35,6.79-46.83,45.57-15.7,56.36a42.64,42.64,0,0,0,4.67,1.05c.13,1.55,3.86,1.14,4.15,2.62a17.86,17.86,0,0,0-5.41,12.11,28.26,28.26,0,0,0,9.93,21.44c16,13,37.66,13.39,40.17,14.29-5.6,16.52,6.22,39.09,27.63,40.89l25.24,2.12c2.59,7.72,17.53,17,28.08,20.71,20.31,7.11,44.69,4.43,62.95,6.09,21.33,30.46,129.22,24.35,157.13,21.71C610.89,529.4,682,525,713,498.93c16.81-14.14,25.75-16.11,47.39-19.51,19.27-3,35.07-1.35,48.92-15.34,5.88-5.94,3-19.19,0-24.11,28.05-6.89,30.72-19.3,30.13-32.58,0-.48-.09-.95-.13-1.43,9.83-6.35,19.8-16.25,24.27-26.19C870.64,364,859,337.89,838.44,333.89Z"/><path class="cls-6" d="M274.92,329.55l4.33-.85A31.94,31.94,0,0,0,274.92,329.55Z"/><ellipse class="cls-8" cx="534.75" cy="392.28" rx="96.96" ry="20.32"/><path class="cls-9" d="M324,413s2.51-17.18-5.87-39c0,0,13.41,12.15,14.25,26.39,0,0,3.77-14.24,10.89-22.2,0,0-1.26,18.43-.84,23.88,0,0,6.28-13,15.08-20.95,0,0-8.38,22.62-6.7,30.58"/><path class="cls-10" d="M436.65,459.51s.31-8-6.57-15.72"/><path class="cls-10" d="M447.86,459.31s-.32-12.93,2.26-20.37"/><line class="cls-10" x1="459.82" y1="458.66" x2="464.02" y2="450.26"/><path class="cls-10" d="M787.71,364.38s.27-7-5.76-13.77"/><path class="cls-10" d="M797.53,364.2s-.28-11.33,2-17.84"/><line class="cls-10" x1="808.01" y1="363.64" x2="811.7" y2="356.27"/><path class="cls-10" d="M397.18,361s.27-7-5.75-13.77"/><path class="cls-10" d="M407,360.82s-.29-11.33,2-17.85"/><line class="cls-10" x1="417.49" y1="360.25" x2="421.17" y2="352.88"/><path class="cls-9" d="M587.48,482.77s2.83-19.37-6.62-43.94c0,0,15.12,13.7,16.07,29.77,0,0,4.25-16.07,12.28-25.05,0,0-1.42,20.79-.94,26.94,0,0,7.08-14.65,17-23.63,0,0-9.45,25.52-7.56,34.49"/><path class="cls-4" d="M239.77,322.07a121.23,121.23,0,0,0-3.24-22.33,2.56,2.56,0,0,0-2.16-2.08c1-3,2.09-5.66,1.85-9a3,3,0,0,0-.31-1.08c2.25-2.53-1.66-6.28-4.4-3.87a32.25,32.25,0,0,0-10,15.55c-3.63,11.52,1.71,25.08,13,32.46,3,2,5.54-2.21,3.58-4.64-.61-.76-1.25-1.52-1.9-2.28A2.87,2.87,0,0,0,239.77,322.07Z"/><path class="cls-4" d="M839,287.45c-2.8-2.56-7,1.6-4.18,4.18,1,.95,1.92,1.9,2.82,2.84a2.68,2.68,0,0,0-2.07,2c-2.56,11.15-2,23.23-4,34.59a3,3,0,0,0,3.63,3.63c8.83-1.68,15.16-10.13,15.76-18.82C851.84,303.5,848.08,295.79,839,287.45Z"/><path class="cls-11" d="M242.56,333.39s348.68-42.15,595.82,0"/><path class="cls-1" d="M606.05,207V228.3l5.63,21.27S607,279,594,290.24,580.41,217,580.41,217"/><path class="cls-12" d="M533.7,348.62l3.65,32.94c25.29-3.48,23.89,10.05,23.89,10.05l-17.94-1.44-36,2.08c2.57-12.41,21.76-11.36,21.76-11.36l-2.66-33.27,7.5-22.93L553.57,319"/><path class="cls-13" d="M548.58,236.23c-12.12,5.67-55,28-77.6,69.92,0,0-22,22.62-28.44,32.31,0,0-4.52,7.76,1.3,10.34,0,0-5.17,18.74,33.6-6.46,0,0,34.38,2.27,76.32-19.87,0,0,27.33-10.51,43.67-33.77C577.42,278.37,562.78,259.24,548.58,236.23Z"/><path class="cls-14" d="M610,197.54a23.58,23.58,0,0,0-9.41-7.23c-15.14,1.89-29.61,8.65-42,16.23-3.68,6.76-6.34,15.81-6.57,28.18,0,0-1.28.54-3.36,1.51,14.2,23,28.84,42.14,48.85,52.47,8.66-12.32,4-27.9.82-47.7a28.88,28.88,0,0,0-2-6.53c-1.68-4-.1-14.57,9.7-16.35a53.62,53.62,0,0,1-6.88-9.79c-3.5,3.08-8,5-15.06,2.64,7.07,2.36,11.56.44,15.06-2.64-.69-1.23-1.38-2.49-2.06-3.86.68,1.37,1.37,2.63,2.06,3.86C603.29,204.64,606,199.28,610,197.54Z"/><path class="cls-15" d="M584.89,187.46s-16.77,1.42-26.38,19.08c12.44-7.58,26.91-14.34,42-16.23A35.89,35.89,0,0,0,584.89,187.46Z"/><path class="cls-16" d="M640.08,216.17s-7.91-12.72-28.73-16.44a14.54,14.54,0,0,0-1.38-2.19c-3.93,1.74-6.68,7.1-10.86,10.79a53.62,53.62,0,0,0,6.88,9.79,8.58,8.58,0,0,1,4.88-3A95.18,95.18,0,0,1,640.08,216.17Z"/><line class="cls-17" x1="452.24" y1="341.05" x2="465.16" y2="330.71"/><path class="cls-18" d="M606.89,200.7a9.68,9.68,0,0,1-8.29-.34s-4.25-7.4-12.15-7c0,0-8.66.18-11.11,10.93,0,0-.34,5,14.55,7.09,0,0,7.2.77,10.72-2.32"/><path class="cls-19" d="M569.21,193s-15.92,15.24-39.35,15.58c0,0,11.31,8.43,27.88.08"/><path class="cls-11" d="M553.76,322.47s63.93-24.57,54.71-81.77a28.88,28.88,0,0,0-2-6.53c-2.18-5.26-5.56-16.55,4.36-19.08a95.18,95.18,0,0,1,29.21,1.08s-7.91-12.72-28.73-16.44c0,0-5.65-12.7-26.46-12.27,0,0-32.12,2.55-32.95,47.26,0,0-54.46,22.31-81,71.43,0,0-22,22.62-28.44,32.31,0,0-4.52,7.76,1.3,10.34,0,0-5.17,18.74,33.6-6.46C477.44,342.34,511.82,344.61,553.76,322.47Z"/><path class="cls-17" d="M604.77,202.49a17.87,17.87,0,0,0-5.67,6.73l2.15,3.41"/><circle class="cls-20" cx="587.16" cy="202.19" r="5.2"/><path class="cls-21" d="M560.79,248.93s-2.67,3.57.9,16.51"/><path class="cls-21" d="M572.19,263.08s-1.34,13.39,3.13,18.74"/><line class="cls-21" x1="493.6" y1="300.98" x2="482.61" y2="315.2"/><line class="cls-21" x1="509.11" y1="306.15" x2="499.41" y2="318.43"/><path class="cls-17" d="M485.2,325.54s5.81,11,18.74.64c0,0,10.34,5.17,47.18-20"/><path class="cls-17" d="M529.14,333.94l-2.75,13.68,2.66,33.27s-17.6,0-20.59,10.46c0,0,33.95-6.77,53.1.58"/><path class="cls-17" d="M561.26,392.19c.34-13-23.91-10.63-23.91-10.63l-3.65-32.94L544,330.06"/><line class="cls-22" x1="530.1" y1="266.96" x2="515.6" y2="278.24"/><line class="cls-22" x1="549.05" y1="269.15" x2="534.22" y2="279.13"/><g class="cls-23"><line class="cls-24" x1="277.31" y1="359.54" x2="299.93" y2="358.64"/><line class="cls-24" x1="610.62" y1="346.38" x2="633.22" y2="347.63"/><line class="cls-24" x1="355.37" y1="449.68" x2="385.57" y2="448.68"/><line class="cls-24" x1="518.67" y1="488.16" x2="548.84" y2="486.26"/></g><path class="cls-1" d="M763.93,419.17s10.27-37.28,1.26-55.77l-19.61-13.58-25.69-1.24s-13.62-17.64-20.12-17.64c0,0-16.4-.31-8,14.86l10.84,28.47-3.93,3.19c6,14.64,2.26,29.28,2,43.91a58.13,58.13,0,0,0,11.95,4.39L737,503.84s24.65,8.76,55.38-12.68Z"/><path class="cls-25" d="M752.59,421s5.66-22.74,4.33-41.73a29.61,29.61,0,0,0-12.81-22.15l-10.43-7.22-13.79-1.32s-13.62-17.64-20.12-17.64c0,0-16.4-.31-8,14.86l10.84,28.47-3.93,3.19c6,14.64,2.26,29.28,2,43.91a58.13,58.13,0,0,0,11.95,4.39L737,503.84s18.3,8.63,45.17-8.64Z"/><path class="cls-11" d="M687.28,336.63s8.52-8.27,19.33-2.38c0,0,8.95,8.4,11.9,16.26,0,0,9-6.39,17.42,1.45,0,0,10-7,18.87,5.81,0,0,26.59-1.89,9.13,61.41l30.46,70.75"/><path class="cls-26" d="M686.75,335.68l7,16c2.63,6-4,14.72-14.82,19.45s-21.71,3.71-24.35-2.3l-7-16"/><ellipse class="cls-7" cx="670.33" cy="351.61" rx="13.55" ry="3.47" transform="translate(-84.75 298.42) rotate(-23.65)"/><path class="cls-27" d="M664,331.93,650,343l-2.89,8.67s4.87,13.54,12.16,3.65l9.73-6.86,10.24-2.24s6.88-.37,6.94-5.86C686.18,340.35,689,326.78,664,331.93Z"/><ellipse class="cls-17" cx="667.17" cy="344.26" rx="21.38" ry="11.88" transform="translate(-82.06 296.54) rotate(-23.65)"/><path class="cls-17" d="M656.44,357.85a31.54,31.54,0,0,1,12.56-9.4,32.63,32.63,0,0,1,14-3"/><line class="cls-28" x1="685.39" y1="352.34" x2="687.73" y2="357.69"/><path class="cls-11" d="M697.84,382.65c8.69-13.92-2.83-29.35-2.83-29.35"/><path class="cls-25" d="M699.49,382.46l-1,.84s-2.21,9.32-10.15-13.06c0,0-2.45-8.1-7.85-7.12,0,0-13.24,0-7.6,20.36,0,0,2.9,25.48,27.73,37.89C700.89,406.74,705.51,397.1,699.49,382.46Z"/><path class="cls-11" d="M699.79,384c-9.65-.6-11.52-16.09-11.52-16.09s-3.26-8-11.16-4.38c-2.52,1.16-6.45,5.25-5.55,13.44,0,0,2,22.6,14.74,35.38,0,0,12.07,10.67,26.24,13.46l21.91,77.93"/></svg>