<?xml version="1.0" encoding="utf-8"?>
<!-- Generator: Adobe Illustrator 21.1.0, SVG Export Plug-In . SVG Version: 6.00 Build 0)  -->
<svg version="1.1" id="圖層_1" xmlns="http://www.w3.org/2000/svg" xmlns:xlink="http://www.w3.org/1999/xlink" x="0px" y="0px"
	 viewBox="0 0 592 285" style="enable-background:new 0 0 592 285;" xml:space="preserve">
<style type="text/css">
	.st0{opacity:0.5;}
	.st1{fill:#FFFFFF;}
	.st2{fill:#9DC953;}
	.st3{fill:#1A1A1A;}
	.st4{fill:#649446;}
</style>
<title>互動設計UI</title>
<g class="st0">
	<path class="st1" d="M52.5,2.3c0,0,20.1,6.9,46.1,27.9c9,7.3,11.8,14.9,24.1,24.5c12,9.3,11.5,19.1,20.8,29.2
		c8.9,9.5,10,24.5,19.1,37.8c7.3,10.5,7.1,24.1,12.2,32.6c8.1,13.6,8,28.1,9.9,39.3c7.4,43.5-3.7,59.6-3.7,59.6
		s-18.8-10.8-41.6-45.8c-5.1-7.9-13.2-16.1-15.8-27.6s-10.8-22.6-16.1-36.2c-2.6-10.3-6.3-20.2-11.2-29.6c-4.2-7.9-7.4-16.3-9.6-25
		c-3.3-14.3-10.2-25.3-15.8-37.7C65.7,39.1,57.7,19.9,52.5,2.3z"/>
	<path class="st2" d="M58.1,11.7c0,0,17.9,7.1,41.3,28.1c8.1,7.3,10.8,14.7,21.9,24.2c10.8,9.3,10.6,18.8,19.1,28.7
		c8.1,9.4,9.4,23.9,17.8,36.9c6.7,10.4,6.9,23.4,11.6,31.8c7.5,13.3,7.8,27.3,9.8,38.1c7.7,42.1-1.7,57.4-1.7,57.4
		s-16.9-10.9-37.9-45.3c-4.7-7.8-12.1-15.9-14.7-27s-10.1-22.1-15.1-35.4c-2.6-10-6.1-19.6-10.6-28.9c-3.9-7.8-7-15.9-9.1-24.4
		c-3.2-13.9-9.7-24.6-14.9-36.8C70.7,47.6,63.1,28.8,58.1,11.7z"/>
	<path class="st3" d="M181.1,255.5c-0.4,0-0.8-0.1-1.2-0.3c-0.8-0.5-19.6-11.5-42.4-46.6c-1.3-2-2.8-4-4.3-6.1
		c-4.6-6.2-9.8-13.2-11.8-22.3c-1.4-6.4-4.8-12.8-8.3-19.6c-2.7-5.1-5.4-10.4-7.7-16.2c0-0.1-0.1-0.2-0.1-0.3
		c-2.5-10.1-6.2-19.9-11-29.1c-4.3-8-7.6-16.6-9.8-25.5c-2.3-10-6.3-18.1-10.6-26.8c-1.7-3.4-3.4-6.9-5.1-10.6
		C63.1,39.2,55.2,20.1,50.2,3c-0.3-0.9,0-1.8,0.6-2.4c0.6-0.6,1.6-0.8,2.4-0.5c0.8,0.3,20.8,7.2,46.8,28.3
		c4.2,3.4,7.1,6.9,10.1,10.5c3.6,4.3,7.4,8.8,13.9,13.9c7.2,5.6,10.2,11.5,13.1,17.1c2.2,4.2,4.2,8.2,8,12.3
		c5,5.4,7.7,12.3,10.4,19.6c2.4,6.2,4.8,12.5,8.9,18.5c4.3,6.2,6.1,13.4,7.8,19.8c1.2,4.9,2.4,9.5,4.5,13
		c6.5,10.9,7.9,22.2,9.1,32.1c0.4,2.8,0.7,5.5,1.1,8c7.5,44-3.6,60.7-4.1,61.4C182.6,255.2,181.8,255.5,181.1,255.5z M109.9,142.8
		c2.2,5.5,4.8,10.7,7.4,15.6c3.7,7.1,7.2,13.8,8.7,20.8c1.8,8.1,6.5,14.4,11,20.5c1.6,2.2,3.1,4.2,4.5,6.3
		c17.8,27.4,33.2,39.8,38.6,43.7c2.5-5.5,7.9-22.4,2.2-55.7c-0.5-2.6-0.8-5.3-1.2-8.2c-1.2-9.5-2.5-20.2-8.5-30.2
		c-2.4-4.1-3.7-9-5-14.2c-1.6-6.3-3.3-12.8-7.1-18.3c-4.4-6.4-7-13.1-9.4-19.5c-2.6-6.8-5.1-13.3-9.5-18c-4.3-4.6-6.6-9.1-8.8-13.4
		c-2.8-5.4-5.4-10.5-11.8-15.5c-7-5.4-11.1-10.3-14.7-14.6c-2.9-3.5-5.6-6.7-9.5-9.9C78.9,17.4,63.6,9.6,56.3,6.4
		C61.2,22,68.1,38.5,73.3,50.1c1.6,3.5,3.3,7,5,10.4c4.2,8.5,8.6,17.3,11,27.8c2.1,8.4,5.3,16.7,9.4,24.4
		C103.5,122.3,107.3,132.4,109.9,142.8z"/>
	<path class="st4" d="M175.3,228.2c-0.8,0-1.5-0.5-1.7-1.3c-0.3-1.1-32.8-113.8-96.6-193.3c-0.6-0.8-0.5-1.9,0.3-2.5
		c0.8-0.6,1.9-0.5,2.5,0.3c64.3,80.1,96.9,193.5,97.2,194.6c0.3,1-0.3,2-1.2,2.2C175.6,228.2,175.4,228.2,175.3,228.2z"/>
</g>
<g class="st0">
	<path class="st1" d="M1.8,158.3c0,0,15.2-2.2,38.9,2.9c8.2,1.8,12.5,5.8,23.6,7.9c10.8,2.1,13.7,8.6,23,12
		c8.9,3.2,14.5,12.6,24.8,18.1c8.2,4.4,12.5,13.3,18.6,17.1c9.7,6.1,14.4,15.5,19.3,22.1c19.2,25.7,17.3,39.7,17.3,39.7
		s-15.7-0.8-41.9-15.9c-5.9-3.4-13.8-6-19.3-12.6s-14.4-11.1-22.3-18.1c-5.1-5.8-10.8-11-17-15.5c-5.3-3.7-10.2-8.1-14.5-13
		c-6.8-8.2-14.9-13-22.6-19.2C22.5,177.8,10.9,167.9,1.8,158.3z"/>
	<path class="st2" d="M8.5,162.6c0,0,13.9-1.3,36,4.6c7.7,2,11.8,5.9,22.1,8.4c10,2.4,13,8.6,21.8,12.2c8.3,3.4,13.9,12.4,23.7,18
		c7.7,4.5,12.2,12.9,17.9,16.7c9.2,6.1,14,15,18.9,21.4c18.8,24.7,17.8,37.6,17.8,37.6s-14.5-1.5-39.3-16.8
		c-5.6-3.5-13-6.3-18.4-12.6s-13.8-11-21.4-17.9c-4.9-5.6-10.4-10.7-16.4-15.2c-5.1-3.7-9.8-8-13.9-12.8
		c-6.7-7.9-14.3-12.7-21.7-18.9C26.1,179.7,17,171.4,8.5,162.6z"/>
	<path class="st3" d="M167.4,280C167.3,280,167.3,280,167.4,280c-0.8,0-16.6-1-42.9-16.2c-1.5-0.9-3.1-1.7-4.8-2.5
		c-5-2.5-10.7-5.3-15-10.6c-3-3.7-7.3-6.7-11.8-9.9c-3.4-2.4-6.9-4.9-10.3-7.9c-0.1-0.1-0.1-0.1-0.2-0.2c-5-5.7-10.6-10.8-16.7-15.2
		c-5.4-3.8-10.4-8.3-14.8-13.3c-4.8-5.7-10.1-9.7-15.7-13.9c-2.2-1.6-4.4-3.3-6.6-5.1C22.2,180,10,169.7,0.4,159.6
		c-0.5-0.5-0.7-1.3-0.4-2c0.2-0.7,0.8-1.2,1.5-1.3c0.6-0.1,15.8-2.1,39.6,2.9c3.9,0.8,6.9,2.1,10,3.5c3.8,1.6,7.6,3.3,13.6,4.4
		c6.6,1.3,10.4,4.1,14.1,6.8c2.8,2,5.4,3.9,9.2,5.3c5,1.8,9,5.4,13.2,9.2c3.5,3.2,7.2,6.5,11.8,9c4.8,2.6,8.4,6.7,11.6,10.3
		c2.4,2.7,4.7,5.3,7.1,6.9c7.9,5,12.5,11.8,16.6,17.9c1.1,1.7,2.2,3.3,3.3,4.7c19.4,26,17.7,40.5,17.7,41.1
		C169.1,279.3,168.3,280,167.4,280z M85.2,230.1c3.2,2.8,6.6,5.3,9.9,7.6c4.7,3.4,9.2,6.6,12.5,10.6c3.8,4.6,8.9,7.1,13.8,9.6
		c1.8,0.9,3.5,1.7,5,2.6c20.1,11.6,34.1,14.7,39,15.4c-0.3-4.6-2.5-17.1-16.9-36.4c-1.1-1.5-2.2-3.1-3.4-4.8
		c-3.9-5.7-8.3-12.2-15.5-16.8c-2.9-1.8-5.4-4.6-8-7.6c-3.1-3.5-6.3-7.2-10.5-9.5c-5-2.7-8.9-6.2-12.6-9.6
		c-3.9-3.5-7.6-6.9-11.9-8.4c-4.3-1.6-7.2-3.7-10.1-5.8c-3.5-2.6-6.9-5-12.6-6.1c-6.3-1.2-10.6-3-14.3-4.6c-3-1.3-5.8-2.5-9.3-3.2
		c-16.2-3.4-28.4-3.5-34.3-3.2c8.9,9,19.3,17.7,25,22.4c2.1,1.7,4.3,3.4,6.5,5c5.6,4.2,11.3,8.5,16.4,14.5c4.1,4.8,8.9,9,14.1,12.7
		C74.3,218.9,80.1,224.2,85.2,230.1z"/>
	<path class="st4" d="M154.8,264.2c-0.4,0-0.8-0.2-1.1-0.5c-0.6-0.6-58.6-62.7-125.9-93.1c-0.7-0.3-1.1-1.2-0.7-2
		c0.3-0.7,1.2-1.1,2-0.7c67.8,30.6,126.3,93.2,126.8,93.8c0.6,0.6,0.5,1.5-0.1,2.1C155.5,264.1,155.1,264.2,154.8,264.2z"/>
</g>
<g class="st0">
	<path class="st1" d="M590.2,18.7c0,0-23.4,5-55.2,25.2c-11.1,7-15.2,15.1-30.2,24.2C490.1,76.9,489.4,88,477.6,98
		c-11.2,9.5-14.4,26.1-26.4,39.8c-9.5,10.8-11.1,26.1-17.9,35c-10.8,14.1-12.7,30.3-16.3,42.6c-14.1,47.7-3.8,67.2-3.8,67.2
		s22.5-9.6,52.6-45.8c6.8-8.2,16.9-16.2,21.4-28.8s15.1-23.9,22.8-38.4c4.3-11.2,9.8-21.8,16.5-31.7c5.4-8,10.7-17.3,14-26.8
		c5.5-15.6,14.8-26.9,22.6-40.2C570.5,58.3,582.1,37.8,590.2,18.7z"/>
	<path class="st2" d="M576.8,22.6c0,0-21,5.6-50,26c-10.1,7.1-14,15-27.7,24.2c-13.3,9-14.4,19.6-25.2,29.6
		c-10.3,9.5-13.7,25.5-24.8,39c-8.9,10.7-10.8,25.3-17.2,34.1c-10.1,13.9-12.4,29.5-16,41.4c-14.2,46.2-5.7,64.4-5.7,64.4
		s20.4-10,48.4-45.7c6.3-8.1,15.6-16.1,20-28.3s14.2-23.4,21.6-37.6c4.2-10.8,9.4-21.2,15.7-30.9c5.4-8.2,9.9-16.9,13.4-26.1
		c5.5-15.1,14.1-26.3,21.5-39.2C557.9,61.1,568.9,41.1,576.8,22.6z"/>
	<path class="st3" d="M413.2,285c-0.9,0-1.7-0.5-2.1-1.3c-0.4-0.8-10.6-20.9,3.6-69c0.8-2.7,1.5-5.6,2.2-8.6
		c2.7-11,5.7-23.4,14.5-34.8c2.8-3.7,4.7-8.7,6.8-14c2.7-6.9,5.7-14.7,11.3-21.1c5.4-6.2,9-13,12.5-19.7c4-7.7,7.8-15,14.1-20.3
		c4.9-4.1,7.7-8.4,10.7-12.9c3.9-5.9,8-12,16.8-17.3c8.1-4.9,12.8-9.4,17.5-13.8c3.9-3.7,7.5-7.1,12.7-10.4
		c31.9-20.2,55-25.3,56-25.5c0.9-0.2,1.8,0.1,2.4,0.8c0.6,0.7,0.7,1.6,0.4,2.5c-8,18.9-19.3,39-27.3,52.5c-2.3,3.8-4.7,7.6-7,11.2
		c-5.9,9.1-11.5,17.7-15.4,28.6c-2.9,8.3-7.7,17.5-14.3,27.3c-6.6,9.8-12,20.3-16.2,31.2c0,0.1-0.1,0.2-0.1,0.3
		c-3.3,6.2-7.1,11.8-10.7,17.2c-4.9,7.2-9.4,13.9-11.9,20.9c-3.5,9.8-10.2,17-16.1,23.3c-2,2.2-4,4.2-5.7,6.3
		c-30.1,36.2-52.5,46.1-53.5,46.5C413.8,285,413.5,285,413.2,285z M586,22.4c-8.3,2.5-26.9,9.1-49.7,23.6c-4.8,3-8.3,6.3-12,9.8
		c-4.6,4.3-9.8,9.3-18.3,14.4c-7.8,4.7-11.4,10.1-15.3,15.8c-3,4.6-6.2,9.3-11.6,13.9c-5.6,4.7-9.2,11.6-13,18.9
		c-3.6,6.9-7.3,14-13.1,20.6c-5,5.7-7.7,12.8-10.4,19.6c-2.2,5.7-4.2,11-7.5,15.2c-8.1,10.6-11,22.5-13.6,33
		c-0.8,3.1-1.5,6.1-2.3,8.9c-11,37.5-6.8,57-4.8,63.2c6.3-3.4,25.5-15.2,49.4-44c1.8-2.2,3.8-4.3,5.9-6.5c5.9-6.3,12-12.7,15.1-21.6
		c2.7-7.6,7.4-14.6,12.5-22c3.5-5.2,7.2-10.6,10.4-16.6c4.3-11.3,9.9-22.1,16.7-32.1c6.3-9.4,10.9-18.3,13.7-26.2
		c4-11.4,10.1-20.6,15.9-29.6c2.3-3.6,4.7-7.3,6.9-11C568.2,57.4,578.3,39.6,586,22.4z"/>
	<path class="st4" d="M423.3,255.3c-0.2,0-0.5,0-0.7-0.1c-0.9-0.4-1.4-1.4-1-2.4c0.5-1.2,52-123.8,134.4-205c0.7-0.7,1.9-0.7,2.6,0
		c0.7,0.7,0.7,1.9,0,2.6C476.6,131,425.4,252.9,424.9,254.2C424.6,254.9,424,255.3,423.3,255.3z"/>
</g>
</svg>
