<svg id="圖層_1" data-name="圖層 1" xmlns="http://www.w3.org/2000/svg" viewBox="0 0 592 285"><title>background</title><g style="opacity:0.5"><path d="M52.5,2.3S72.6,9.2,98.6,30.2c9,7.3,11.8,14.9,24.1,24.5,12,9.3,11.5,19.1,20.8,29.2,8.9,9.5,10,24.5,19.1,37.8,7.3,10.5,7.1,24.1,12.2,32.6,8.1,13.6,8,28.1,9.9,39.3,7.4,43.5-3.7,59.6-3.7,59.6s-18.8-10.8-41.6-45.8c-5.1-7.9-13.2-16.1-15.8-27.6s-10.8-22.6-16.1-36.2A135.65,135.65,0,0,0,96.3,114a111.39,111.39,0,0,1-9.6-25C83.4,74.7,76.5,63.7,70.9,51.3,65.7,39.1,57.7,19.9,52.5,2.3Z" style="fill:#fff"/><path d="M58.1,11.7S76,18.8,99.4,39.8c8.1,7.3,10.8,14.7,21.9,24.2,10.8,9.3,10.6,18.8,19.1,28.7,8.1,9.4,9.4,23.9,17.8,36.9,6.7,10.4,6.9,23.4,11.6,31.8,7.5,13.3,7.8,27.3,9.8,38.1,7.7,42.1-1.7,57.4-1.7,57.4S161,246,140,211.6c-4.7-7.8-12.1-15.9-14.7-27s-10.1-22.1-15.1-35.4a156.37,156.37,0,0,0-10.6-28.9,117.42,117.42,0,0,1-9.1-24.4C87.3,82,80.8,71.3,75.6,59.1,70.7,47.6,63.1,28.8,58.1,11.7Z" style="fill:#9dc953"/><path d="M181.1,255.5a2.66,2.66,0,0,1-1.2-.3c-.8-.5-19.6-11.5-42.4-46.6-1.3-2-2.8-4-4.3-6.1-4.6-6.2-9.8-13.2-11.8-22.3-1.4-6.4-4.8-12.8-8.3-19.6a162.12,162.12,0,0,1-7.7-16.2c0-.1-.1-.2-.1-.3a131.09,131.09,0,0,0-11-29.1,109.39,109.39,0,0,1-9.8-25.5c-2.3-10-6.3-18.1-10.6-26.8-1.7-3.4-3.4-6.9-5.1-10.6C63.1,39.2,55.2,20.1,50.2,3A2.33,2.33,0,0,1,50.8.6,2.35,2.35,0,0,1,53.2.1C54,.4,74,7.3,100,28.4a70.61,70.61,0,0,1,10.1,10.5A86.16,86.16,0,0,0,124,52.8c7.2,5.6,10.2,11.5,13.1,17.1,2.2,4.2,4.2,8.2,8,12.3,5,5.4,7.7,12.3,10.4,19.6,2.4,6.2,4.8,12.5,8.9,18.5,4.3,6.2,6.1,13.4,7.8,19.8,1.2,4.9,2.4,9.5,4.5,13,6.5,10.9,7.9,22.2,9.1,32.1.4,2.8.7,5.5,1.1,8,7.5,44-3.6,60.7-4.1,61.4A1.75,1.75,0,0,1,181.1,255.5ZM109.9,142.8a160.73,160.73,0,0,0,7.4,15.6c3.7,7.1,7.2,13.8,8.7,20.8,1.8,8.1,6.5,14.4,11,20.5,1.6,2.2,3.1,4.2,4.5,6.3,17.8,27.4,33.2,39.8,38.6,43.7,2.5-5.5,7.9-22.4,2.2-55.7-.5-2.6-.8-5.3-1.2-8.2-1.2-9.5-2.5-20.2-8.5-30.2-2.4-4.1-3.7-9-5-14.2-1.6-6.3-3.3-12.8-7.1-18.3-4.4-6.4-7-13.1-9.4-19.5-2.6-6.8-5.1-13.3-9.5-18s-6.6-9.1-8.8-13.4c-2.8-5.4-5.4-10.5-11.8-15.5a87.7,87.7,0,0,1-14.7-14.6,67.66,67.66,0,0,0-9.5-9.9C78.9,17.4,63.6,9.6,56.3,6.4a422.6,422.6,0,0,0,17,43.7c1.6,3.5,3.3,7,5,10.4,4.2,8.5,8.6,17.3,11,27.8a108,108,0,0,0,9.4,24.4A147.31,147.31,0,0,1,109.9,142.8Z" style="fill:#1a1a1a"/><path d="M175.3,228.2a1.71,1.71,0,0,1-1.7-1.3c-.3-1.1-32.8-113.8-96.6-193.3a1.78,1.78,0,0,1,2.8-2.2C144.1,111.5,176.7,224.9,177,226a1.73,1.73,0,0,1-1.2,2.2Z" style="fill:#649446"/></g><g style="opacity:0.5"><path d="M1.8,158.3s15.2-2.2,38.9,2.9c8.2,1.8,12.5,5.8,23.6,7.9,10.8,2.1,13.7,8.6,23,12,8.9,3.2,14.5,12.6,24.8,18.1,8.2,4.4,12.5,13.3,18.6,17.1,9.7,6.1,14.4,15.5,19.3,22.1,19.2,25.7,17.3,39.7,17.3,39.7s-15.7-.8-41.9-15.9c-5.9-3.4-13.8-6-19.3-12.6s-14.4-11.1-22.3-18.1a104,104,0,0,0-17-15.5,81.28,81.28,0,0,1-14.5-13c-6.8-8.2-14.9-13-22.6-19.2C22.5,177.8,10.9,167.9,1.8,158.3Z" style="fill:#fff"/><path d="M8.5,162.6s13.9-1.3,36,4.6c7.7,2,11.8,5.9,22.1,8.4,10,2.4,13,8.6,21.8,12.2,8.3,3.4,13.9,12.4,23.7,18,7.7,4.5,12.2,12.9,17.9,16.7,9.2,6.1,14,15,18.9,21.4,18.8,24.7,17.8,37.6,17.8,37.6s-14.5-1.5-39.3-16.8c-5.6-3.5-13-6.3-18.4-12.6s-13.8-11-21.4-17.9A107.51,107.51,0,0,0,71.2,219a80.34,80.34,0,0,1-13.9-12.8c-6.7-7.9-14.3-12.7-21.7-18.9A287.49,287.49,0,0,1,8.5,162.6Z" style="fill:#9dc953"/><path d="M167.4,280h0c-.8,0-16.6-1-42.9-16.2a53.93,53.93,0,0,0-4.8-2.5c-5-2.5-10.7-5.3-15-10.6-3-3.7-7.3-6.7-11.8-9.9a118,118,0,0,1-10.3-7.9l-.2-.2a100.2,100.2,0,0,0-16.7-15.2,84.84,84.84,0,0,1-14.8-13.3c-4.8-5.7-10.1-9.7-15.7-13.9q-3.3-2.4-6.6-5.1A323.56,323.56,0,0,1,.4,159.6a1.84,1.84,0,0,1-.4-2,1.83,1.83,0,0,1,1.5-1.3c.6-.1,15.8-2.1,39.6,2.9a45.13,45.13,0,0,1,10,3.5,58.68,58.68,0,0,0,13.6,4.4c6.6,1.3,10.4,4.1,14.1,6.8a37,37,0,0,0,9.2,5.3c5,1.8,9,5.4,13.2,9.2a60.19,60.19,0,0,0,11.8,9c4.8,2.6,8.4,6.7,11.6,10.3,2.4,2.7,4.7,5.3,7.1,6.9,7.9,5,12.5,11.8,16.6,17.9,1.1,1.7,2.2,3.3,3.3,4.7,19.4,26,17.7,40.5,17.7,41.1A2,2,0,0,1,167.4,280ZM85.2,230.1a113.56,113.56,0,0,0,9.9,7.6c4.7,3.4,9.2,6.6,12.5,10.6,3.8,4.6,8.9,7.1,13.8,9.6,1.8.9,3.5,1.7,5,2.6,20.1,11.6,34.1,14.7,39,15.4-.3-4.6-2.5-17.1-16.9-36.4-1.1-1.5-2.2-3.1-3.4-4.8-3.9-5.7-8.3-12.2-15.5-16.8-2.9-1.8-5.4-4.6-8-7.6-3.1-3.5-6.3-7.2-10.5-9.5-5-2.7-8.9-6.2-12.6-9.6-3.9-3.5-7.6-6.9-11.9-8.4A40,40,0,0,1,76.5,177c-3.5-2.6-6.9-5-12.6-6.1a63.25,63.25,0,0,1-14.3-4.6,44.28,44.28,0,0,0-9.3-3.2c-16.2-3.4-28.4-3.5-34.3-3.2,8.9,9,19.3,17.7,25,22.4,2.1,1.7,4.3,3.4,6.5,5,5.6,4.2,11.3,8.5,16.4,14.5A77.56,77.56,0,0,0,68,214.5,94.1,94.1,0,0,1,85.2,230.1Z" style="fill:#1a1a1a"/><path d="M154.8,264.2a1.61,1.61,0,0,1-1.1-.5c-.6-.6-58.6-62.7-125.9-93.1a1.5,1.5,0,1,1,1.3-2.7c67.8,30.6,126.3,93.2,126.8,93.8a1.45,1.45,0,0,1-.1,2.1A1.43,1.43,0,0,1,154.8,264.2Z" style="fill:#649446"/></g><g style="opacity:0.5"><path d="M590.2,18.7s-23.4,5-55.2,25.2c-11.1,7-15.2,15.1-30.2,24.2C490.1,76.9,489.4,88,477.6,98c-11.2,9.5-14.4,26.1-26.4,39.8-9.5,10.8-11.1,26.1-17.9,35-10.8,14.1-12.7,30.3-16.3,42.6-14.1,47.7-3.8,67.2-3.8,67.2s22.5-9.6,52.6-45.8c6.8-8.2,16.9-16.2,21.4-28.8s15.1-23.9,22.8-38.4a156.51,156.51,0,0,1,16.5-31.7c5.4-8,10.7-17.3,14-26.8,5.5-15.6,14.8-26.9,22.6-40.2C570.5,58.3,582.1,37.8,590.2,18.7Z" style="fill:#fff"/><path d="M576.8,22.6s-21,5.6-50,26c-10.1,7.1-14,15-27.7,24.2-13.3,9-14.4,19.6-25.2,29.6-10.3,9.5-13.7,25.5-24.8,39-8.9,10.7-10.8,25.3-17.2,34.1-10.1,13.9-12.4,29.5-16,41.4-14.2,46.2-5.7,64.4-5.7,64.4s20.4-10,48.4-45.7c6.3-8.1,15.6-16.1,20-28.3s14.2-23.4,21.6-37.6a169.37,169.37,0,0,1,15.7-30.9,134,134,0,0,0,13.4-26.1c5.5-15.1,14.1-26.3,21.5-39.2C557.9,61.1,568.9,41.1,576.8,22.6Z" style="fill:#9dc953"/><path d="M413.2,285a2.33,2.33,0,0,1-2.1-1.3c-.4-.8-10.6-20.9,3.6-69,.8-2.7,1.5-5.6,2.2-8.6,2.7-11,5.7-23.4,14.5-34.8,2.8-3.7,4.7-8.7,6.8-14,2.7-6.9,5.7-14.7,11.3-21.1,5.4-6.2,9-13,12.5-19.7,4-7.7,7.8-15,14.1-20.3,4.9-4.1,7.7-8.4,10.7-12.9,3.9-5.9,8-12,16.8-17.3,8.1-4.9,12.8-9.4,17.5-13.8a79.39,79.39,0,0,1,12.7-10.4c31.9-20.2,55-25.3,56-25.5a2.43,2.43,0,0,1,2.4.8,2.49,2.49,0,0,1,.4,2.5c-8,18.9-19.3,39-27.3,52.5-2.3,3.8-4.7,7.6-7,11.2-5.9,9.1-11.5,17.7-15.4,28.6-2.9,8.3-7.7,17.5-14.3,27.3a156.73,156.73,0,0,0-16.2,31.2c0,.1-.1.2-.1.3a202,202,0,0,1-10.7,17.2c-4.9,7.2-9.4,13.9-11.9,20.9-3.5,9.8-10.2,17-16.1,23.3-2,2.2-4,4.2-5.7,6.3-30.1,36.2-52.5,46.1-53.5,46.5A6.24,6.24,0,0,1,413.2,285ZM586,22.4c-8.3,2.5-26.9,9.1-49.7,23.6a74,74,0,0,0-12,9.8c-4.6,4.3-9.8,9.3-18.3,14.4-7.8,4.7-11.4,10.1-15.3,15.8-3,4.6-6.2,9.3-11.6,13.9-5.6,4.7-9.2,11.6-13,18.9-3.6,6.9-7.3,14-13.1,20.6-5,5.7-7.7,12.8-10.4,19.6-2.2,5.7-4.2,11-7.5,15.2-8.1,10.6-11,22.5-13.6,33-.8,3.1-1.5,6.1-2.3,8.9-11,37.5-6.8,57-4.8,63.2,6.3-3.4,25.5-15.2,49.4-44,1.8-2.2,3.8-4.3,5.9-6.5,5.9-6.3,12-12.7,15.1-21.6,2.7-7.6,7.4-14.6,12.5-22a188.43,188.43,0,0,0,10.4-16.6,155.41,155.41,0,0,1,16.7-32.1,120.86,120.86,0,0,0,13.7-26.2c4-11.4,10.1-20.6,15.9-29.6,2.3-3.6,4.7-7.3,6.9-11C568.2,57.4,578.3,39.6,586,22.4Z" style="fill:#1a1a1a"/><path d="M423.3,255.3a1.7,1.7,0,0,1-.7-.1,1.84,1.84,0,0,1-1-2.4c.5-1.2,52-123.8,134.4-205a1.84,1.84,0,1,1,2.6,2.6c-82,80.6-133.2,202.5-133.7,203.8A1.71,1.71,0,0,1,423.3,255.3Z" style="fill:#649446"/></g></svg>