<svg id="圖層_1" data-name="圖層 1" xmlns="http://www.w3.org/2000/svg" xmlns:xlink="http://www.w3.org/1999/xlink" viewBox="0 0 1080 1920"><defs><style>.cls-1,.cls-10,.cls-12,.cls-13,.cls-14,.cls-17,.cls-20,.cls-32,.cls-34,.cls-38,.cls-39,.cls-40,.cls-42,.cls-49,.cls-52,.cls-64,.cls-7,.cls-72,.cls-76,.cls-78,.cls-8,.cls-84,.cls-9,.cls-90{fill:none;}.cls-2{fill:#a6a6a6;}.cls-3{fill:#cddc4c;}.cls-18,.cls-21,.cls-4,.cls-53,.cls-66,.cls-79,.cls-85,.cls-87,.cls-89{fill:#fff;}.cls-5{opacity:0.5;}.cls-6{fill:#9dc953;}.cls-12,.cls-17,.cls-18,.cls-19,.cls-20,.cls-21,.cls-23,.cls-27,.cls-28,.cls-30,.cls-31,.cls-38,.cls-39,.cls-40,.cls-41,.cls-49,.cls-51,.cls-52,.cls-53,.cls-54,.cls-57,.cls-63,.cls-64,.cls-65,.cls-66,.cls-7,.cls-74,.cls-75,.cls-76,.cls-77,.cls-78,.cls-79,.cls-80,.cls-87,.cls-89,.cls-9,.cls-90{stroke:#1a1a1a;}.cls-10,.cls-12,.cls-13,.cls-14,.cls-17,.cls-18,.cls-19,.cls-20,.cls-21,.cls-23,.cls-27,.cls-28,.cls-30,.cls-31,.cls-32,.cls-38,.cls-39,.cls-40,.cls-41,.cls-49,.cls-51,.cls-52,.cls-53,.cls-54,.cls-55,.cls-57,.cls-63,.cls-64,.cls-65,.cls-66,.cls-7,.cls-72,.cls-74,.cls-76,.cls-77,.cls-78,.cls-79,.cls-8,.cls-80,.cls-81,.cls-83,.cls-84,.cls-85,.cls-87,.cls-89,.cls-9,.cls-90{stroke-linecap:round;}.cls-12,.cls-13,.cls-14,.cls-17,.cls-18,.cls-19,.cls-20,.cls-21,.cls-23,.cls-27,.cls-28,.cls-30,.cls-31,.cls-32,.cls-38,.cls-39,.cls-40,.cls-41,.cls-49,.cls-51,.cls-52,.cls-53,.cls-54,.cls-57,.cls-63,.cls-64,.cls-65,.cls-66,.cls-7,.cls-76,.cls-77,.cls-78,.cls-79,.cls-80,.cls-83,.cls-84,.cls-85,.cls-87,.cls-89,.cls-9,.cls-90{stroke-linejoin:round;}.cls-7{stroke-width:4.82px;}.cls-10,.cls-8{stroke:#649446;}.cls-10,.cls-34,.cls-42,.cls-55,.cls-72,.cls-74,.cls-75,.cls-8,.cls-81{stroke-miterlimit:10;}.cls-8{stroke-width:3.61px;}.cls-9{stroke-width:3.84px;}.cls-10{stroke-width:2.95px;}.cls-11{fill:#eab381;}.cls-12,.cls-21,.cls-27,.cls-30{stroke-width:6.23px;}.cls-13{stroke:#fff;}.cls-13,.cls-14,.cls-18,.cls-19,.cls-20,.cls-23,.cls-31,.cls-32{stroke-width:4.68px;}.cls-14{stroke:#aa806a;}.cls-15{fill:#fcede1;}.cls-16{fill:#fdeea4;}.cls-17,.cls-28{stroke-width:5.61px;}.cls-19{fill:#f5bba8;}.cls-22{fill:#f2abb7;}.cls-23{fill:#ebb988;}.cls-24{fill:#1a1a1a;}.cls-25{fill:#ddcbba;}.cls-26{fill:#a18f7e;}.cls-27{fill:#bfbfbf;}.cls-28{fill:#ef8b6e;}.cls-29,.cls-30,.cls-31{fill:#fbebdf;}.cls-32{stroke:#e0bb52;}.cls-33,.cls-74,.cls-75{fill:#ef8519;}.cls-34{stroke:#ac5508;}.cls-34,.cls-78,.cls-83,.cls-84{stroke-width:5.91px;}.cls-35{fill:#fffdf7;}.cls-36{fill:#c6a679;}.cls-37{fill:#927b59;}.cls-38{stroke-width:3.84px;}.cls-39{stroke-width:3.07px;}.cls-40{stroke-width:2.88px;}.cls-41{fill:#fae5ee;stroke-width:2.49px;}.cls-42{stroke:#c8c9ca;}.cls-42,.cls-52,.cls-57,.cls-65,.cls-66{stroke-width:4.06px;}.cls-43{clip-path:url(#clip-path);}.cls-44{fill:#d6d6d6;}.cls-45,.cls-55,.cls-81{fill:#d6a17f;}.cls-46{fill:#e4bfa4;}.cls-47,.cls-51,.cls-77{fill:#2c88c9;}.cls-48{fill:#b3b3b3;}.cls-49,.cls-51,.cls-53,.cls-54,.cls-55,.cls-72{stroke-width:2.84px;}.cls-50{fill:#c2ddec;}.cls-54,.cls-80{fill:#f29a4a;}.cls-55,.cls-81{stroke:#a77858;}.cls-56{clip-path:url(#clip-path-2);}.cls-57,.cls-58{fill:#939280;}.cls-59{fill:#6bc7f1;}.cls-60{fill:#f2f0db;}.cls-61{clip-path:url(#clip-path-4);}.cls-62{fill:#ae9378;}.cls-63{fill:#f9d1bf;}.cls-63,.cls-64{stroke-width:3.04px;}.cls-65{fill:#ac9177;}.cls-67{clip-path:url(#clip-path-6);}.cls-68{clip-path:url(#clip-path-7);}.cls-69{fill:#bcb2ae;}.cls-70{fill:#827975;}.cls-71{fill:#928985;}.cls-72{stroke:#8d827f;}.cls-73{fill:#7fbe26;}.cls-74,.cls-75,.cls-89,.cls-90{stroke-width:4.43px;}.cls-76,.cls-77,.cls-79,.cls-80,.cls-81{stroke-width:4.14px;}.cls-82{fill:#7ebc25;}.cls-83{fill:#75ae21;}.cls-83,.cls-84,.cls-85{stroke:#3e7c18;}.cls-85{stroke-width:4.45px;}.cls-86{fill:#ffe51b;}.cls-87{stroke-width:5.32px;}.cls-88{fill:#d0d0c9;}</style><clipPath id="clip-path"><circle class="cls-1" cx="341.85" cy="490.76" r="73.03"/></clipPath><clipPath id="clip-path-2"><circle class="cls-1" cx="936.3" cy="490.76" r="73.03"/></clipPath><clipPath id="clip-path-4"><circle class="cls-1" cx="738.15" cy="490.76" r="73.03"/></clipPath><clipPath id="clip-path-6"><circle class="cls-1" cx="540" cy="490.76" r="73.03"/></clipPath><clipPath id="clip-path-7"><circle class="cls-2" cx="540" cy="490.76" r="73.03"/></clipPath></defs><title>互動設計UI</title><rect class="cls-3" width="1080" height="1920"/><circle class="cls-4" cx="539.67" cy="842.4" r="722.95"/><g class="cls-5"><path class="cls-4" d="M282,837.07S302,843.93,328,865c9,7.31,11.78,14.89,24.13,24.47,12,9.31,11.47,19.14,20.82,29.18,8.85,9.51,9.95,24.52,19.1,37.78,7.27,10.53,7.09,24.12,12.17,32.65,8.08,13.6,8,28.07,9.94,39.28,7.44,43.5-3.66,59.59-3.66,59.59s-18.83-10.8-41.56-45.82c-5.14-7.91-13.22-16.07-15.83-27.61S342.29,991.87,337,978.3a139.36,139.36,0,0,0-11.18-29.66,109.71,109.71,0,0,1-9.6-25C313,909.32,306,898.35,300.47,885.88,295.15,873.93,287.1,854.69,282,837.07Z"/><path class="cls-6" d="M287.48,846.51s17.87,7.14,41.35,28.11c8.15,7.28,10.78,14.67,21.92,24.22,10.82,9.29,10.63,18.76,19.13,28.69,8.06,9.4,9.42,23.9,17.84,36.92,6.69,10.35,6.89,23.45,11.59,31.81,7.48,13.32,7.82,27.27,9.8,38.13,7.71,42.14-1.67,57.37-1.67,57.37s-16.89-10.91-37.86-45.27c-4.74-7.77-12.08-15.85-14.69-27s-10.13-22.09-15.14-35.33a150.92,150.92,0,0,0-10.63-28.88A118.74,118.74,0,0,1,320,930.85c-3.24-13.86-9.67-24.63-14.89-36.79C300.08,882.39,292.47,863.63,287.48,846.51Z"/><path class="cls-7" d="M282,837.07S302,843.93,328,865c9,7.31,11.78,14.89,24.13,24.47,12,9.31,11.47,19.14,20.82,29.18,8.85,9.51,9.95,24.52,19.1,37.78,7.27,10.53,7.09,24.12,12.17,32.65,8.08,13.6,8,28.07,9.94,39.28,7.44,43.5-3.66,59.59-3.66,59.59s-18.83-10.8-41.56-45.82c-5.14-7.91-13.22-16.07-15.83-27.61S342.29,991.87,337,978.3a139.36,139.36,0,0,0-11.18-29.66,109.71,109.71,0,0,1-9.6-25C313,909.32,306,898.35,300.47,885.88,295.15,873.93,287.1,854.69,282,837.07Z"/><path class="cls-8" d="M404.67,1061.2s-32.12-113.24-96.88-194"/></g><g class="cls-5"><path class="cls-4" d="M231.22,993.07s15.22-2.16,38.93,2.89c8.23,1.76,12.51,5.75,23.63,7.88,10.81,2.07,13.71,8.6,23.05,12,8.85,3.23,14.49,12.57,24.76,18.13,8.16,4.42,12.51,13.26,18.6,17.1,9.69,6.13,14.41,15.5,19.34,22.11,19.1,25.67,17.22,39.71,17.22,39.71s-15.72-.79-41.92-15.94c-5.92-3.43-13.82-6-19.3-12.64s-14.43-11.06-22.3-18.1a101.22,101.22,0,0,0-17-15.49,79.68,79.68,0,0,1-14.44-13c-6.8-8.16-14.91-13-22.59-19.2C251.87,1012.55,240.34,1002.76,231.22,993.07Z"/><path class="cls-6" d="M237.89,997.36s13.9-1.27,36,4.57c7.65,2,11.78,5.93,22.12,8.44,10,2.44,13,8.63,21.8,12.24,8.29,3.43,13.94,12.35,23.66,18,7.72,4.48,12.16,12.89,17.95,16.74,9.21,6.15,14,15.05,18.87,21.42,18.83,24.7,17.78,37.61,17.78,37.61s-14.51-1.49-39.35-16.8c-5.62-3.46-13-6.27-18.38-12.64s-13.81-11-21.4-17.85a109.12,109.12,0,0,0-16.37-15.17,85.89,85.89,0,0,1-13.91-12.75c-6.66-7.89-14.35-12.74-21.72-18.88A326.47,326.47,0,0,1,237.89,997.36Z"/><path class="cls-9" d="M231.22,993.07s15.22-2.16,38.93,2.89c8.23,1.76,12.51,5.75,23.63,7.88,10.81,2.07,13.71,8.6,23.05,12,8.85,3.23,14.49,12.57,24.76,18.13,8.16,4.42,12.51,13.26,18.6,17.1,9.69,6.13,14.41,15.5,19.34,22.11,19.1,25.67,17.22,39.71,17.22,39.71s-15.72-.79-41.92-15.94c-5.92-3.43-13.82-6-19.3-12.64s-14.43-11.06-22.3-18.1a101.22,101.22,0,0,0-17-15.49,79.68,79.68,0,0,1-14.44-13c-6.8-8.16-14.91-13-22.59-19.2C251.87,1012.55,240.34,1002.76,231.22,993.07Z"/><path class="cls-10" d="M384.2,1097.55s-58-62.61-126.36-93.47"/></g><g class="cls-5"><path class="cls-4" d="M819.58,853.53s-23.36,5-55.23,25.17c-11.06,7-15.15,15.11-30.23,24.21-14.65,8.84-15.37,19.91-27.16,29.92C695.8,942.31,692.6,959,680.6,972.61c-9.52,10.82-11.12,26.07-17.92,34.95-10.84,14.15-12.69,30.36-16.31,42.66-14.07,47.72-3.76,67.2-3.76,67.2s22.51-9.62,52.57-45.82c6.79-8.18,16.92-16.25,21.36-28.82s15.09-23.9,22.78-38.41a157,157,0,0,1,16.42-31.72c5.36-8,10.68-17.26,14.06-26.76,5.53-15.56,14.77-26.93,22.62-40.16C800,893.05,811.5,872.57,819.58,853.53Z"/><path class="cls-6" d="M806.2,857.39s-21,5.63-50,26c-10.08,7.07-14,15-27.73,24.22-13.35,9-14.37,19.6-25.2,29.59-10.27,9.46-13.7,25.52-24.84,39-8.85,10.7-10.8,25.34-17.17,34.08-10.13,13.92-12.35,29.5-16,41.39-14.18,46.17-5.69,64.45-5.69,64.45s20.35-10,48.35-45.69c6.33-8.07,15.62-16.15,20-28.33s14.26-23.4,21.61-37.56a169.78,169.78,0,0,1,15.71-30.93,133.05,133.05,0,0,0,13.44-26.1c5.46-15.09,14.08-26.3,21.53-39.23C787.35,895.89,798.35,875.89,806.2,857.39Z"/><path class="cls-7" d="M819.58,853.53s-23.36,5-55.23,25.17c-11.06,7-15.15,15.11-30.23,24.21-14.65,8.84-15.37,19.91-27.16,29.92C695.8,942.31,692.6,959,680.6,972.61c-9.52,10.82-11.12,26.07-17.92,34.95-10.84,14.15-12.69,30.36-16.31,42.66-14.07,47.72-3.76,67.2-3.76,67.2s22.51-9.62,52.57-45.82c6.79-8.18,16.92-16.25,21.36-28.82s15.09-23.9,22.78-38.41a157,157,0,0,1,16.42-31.72c5.36-8,10.68-17.26,14.06-26.76,5.53-15.56,14.77-26.93,22.62-40.16C800,893.05,811.5,872.57,819.58,853.53Z"/><path class="cls-8" d="M652.66,1088.27s50.88-122.54,134-204.36"/></g><path class="cls-11" d="M607.69,819.77l-9.37,19.86,21,36,28.21,28.27,35.72-33.23-7.66-15.21,17.51.37s-20.35-21.84-61.4-39.74C631.67,816.06,614.77,824.84,607.69,819.77Z"/><path class="cls-12" d="M633.82,815.41s30.9,2,66.28,28.92c0,0-2.5,4.74-7,11.47-.12.17-17.51-.37-17.51-.37s8,14.86,7.66,15.21c-11.17,13-24,27.22-35.72,33.23,0,0-21.94-13.46-46.66-61.51"/><path class="cls-13" d="M655,855.38a107.82,107.82,0,0,0,13,11"/><line class="cls-14" x1="625.69" y1="841.52" x2="638.28" y2="852.5"/><polygon class="cls-11" points="430.42 846.05 383.64 883.88 391.65 893.97 406.98 890.58 402.66 906.88 439.35 933.45 471.7 863.8 455 846.2 430.42 846.05"/><path class="cls-12" d="M428.27,847.43c-10.08,4.76-27.22,15.25-44.63,36.46,0,0,2.95,4.23,8,10.08.12.15,15.33-3.39,15.33-3.39s-4.63,16-4.32,16.3c11.87,10.82,25.46,22.66,36.68,26.57a309.67,309.67,0,0,0,31.74-66.8"/><path class="cls-14" d="M437.66,862.45s-10.69,5.63-17.13,13.18"/><line class="cls-14" x1="448.62" y1="868.26" x2="439.29" y2="881.26"/><path class="cls-3" d="M453.13,912.05s-6.44-10.92-8.46,9.11l-13,74.76,8.47,40.32s21.54,32,21.63,8.73C461.75,1045,465.46,893.87,453.13,912.05Z"/><path class="cls-12" d="M448.32,905.18S412.6,1037.54,457,1053"/><polyline class="cls-4" points="604.68 951.75 617.9 1042.98 633.99 1036.61 624.83 981.7"/><path class="cls-3" d="M575.35,866.53s23.08,37.05,47.92,111.59c4.87,14.63,7.29,37.84,12.38,54.68h0a95.19,95.19,0,0,0,14.5-66.39C643.42,922.09,625,856.49,575.35,866.53Z"/><polyline class="cls-15" points="494.38 873.71 526.13 922.5 564.67 872.92"/><path class="cls-4" d="M483.9,865l-18.5,6.46s-2.93,50.81-11.95,83.52l-1.24,31.26s32.88-32.45,28.46-118"/><path class="cls-4" d="M590.69,845.45l7.67,27.73s5,36.84,17.9,54.21l8.57,54.31s-38-36.39-45.39-121.74"/><path class="cls-16" d="M487.79,870.23s-11.62-12-8.12,10.37c0,0-3.2,74.31-27.79,108.88,0,0-.46,64.31,11.49,66.92,0,0,80.9,19.1,139.2-6,0,0,1.59,1.46,15.33-7.41l.72,0-6.46-46.66-7-39.8s-22.67-60.8-25-94.62L561.19,876,526.13,922.5S491.08,867.56,487.79,870.23Z"/><path class="cls-12" d="M457,953s-3.84,26.05,0,100c0,0,81.19,50.2,178.29-3.47,2.7-1.49-20.61-122.84-20.61-122.84"/><polyline class="cls-17" points="494.38 873.71 522.5 920.9 565.59 869.01"/><line class="cls-18" x1="512.47" y1="879.35" x2="515.92" y2="888.87"/><path class="cls-19" d="M507.87,934.09s1.55,74.27,8.53,112.73"/><path class="cls-20" d="M456.64,986.63c25.05-55,24.3-101.06,24.3-101.06"/><path class="cls-20" d="M580.9,868.77s14.81,90.8,44.55,112.28"/><circle class="cls-18" cx="525.7" cy="956.47" r="7.58"/><circle class="cls-18" cx="528.47" cy="989.67" r="7.58"/><circle class="cls-18" cx="532.3" cy="1027.11" r="7.58"/><path class="cls-12" d="M647.45,905.07s33.92,90.41-4.87,138.77"/><ellipse class="cls-21" cx="505.85" cy="642.97" rx="13.88" ry="12.33" transform="translate(-64.27 56.24) rotate(-5.98)"/><path class="cls-4" d="M535.47,674.31s59.45-2.89,85.55,69.27l2.86,23.94,9,5.85,8.09,20.8-6.19,20L649.07,823l-20.83,2.46-7,11.47L600,834.56l-15.51,19.61-26.24,17.38Z"/><path class="cls-15" d="M607.56,772l-.45,46.11,13.06,4.41,11.5-6.47S637.79,765.26,607.56,772Z"/><polyline class="cls-15" points="444.17 796.27 424.57 796.16 410.65 806.67 413.64 833.96 432.74 848.52 448.38 849.03 456.5 842.48"/><path class="cls-11" d="M422.65,797.48l13.87-4-.13-16,8.21-14.81L458.92,733s11-7.25,14.08-7.61l2.84,7.49,78.75-10.12,3.13-5.39,9.11,4.17L583.19,746l20,.36,5,21.5L624,763.09l-7.69-33s-28.67-22.63-37.68-32.32c-11.36-12.22-35-20.21-35-20.21L527,673.83l-40.31,5.93-32,16.23-26.6,31.34-10.23,40.28Z"/><path class="cls-15" d="M433.18,771s.71,86.15,54.94,102.45c0,0,57.06,27,94.79-26.32,0,0,24-29.12,4.72-98.13l-20-31-10.86.58-31.53,9.43-34.84,4.36-14.55.42L473,725.35s-26.42,8.89-29.43,41.29C443.57,766.64,435.4,764.76,433.18,771Z"/><ellipse class="cls-22" cx="574.58" cy="806.78" rx="13.12" ry="11.61" transform="translate(-116.55 97.29) rotate(-8.79)"/><ellipse class="cls-22" cx="477.73" cy="821.76" rx="13.12" ry="11.61" transform="translate(-119.98 82.67) rotate(-8.79)"/><path class="cls-12" d="M512.66,791s-.1,9.21,11.75,9.93"/><path class="cls-12" d="M608.37,770s12.1-10.85,24.48,3.4c0,0,14.9,22.84-1.18,42.69,0,0-12.59,11.53-24,3.71"/><path class="cls-12" d="M623.09,765.68c.56-9.19-2.07-22.1-2.07-22.1s-14.75-60.41-76.24-68.82c0,0-97.48-13.92-122.5,68.8-4.47,14.78-4.35,30.53-2.24,45.82.23,1.67.49,3.39.78,5.11"/><path class="cls-23" d="M610.26,784.05s7.73-7.68,13.61,1.54c0,0,9.52,24.88-12.38,22.18"/><path class="cls-12" d="M435.84,795.52c-4.81-1-16-1.72-22.7,11.63,0,0-8.63,26.22,14.83,39.78,0,0,14,5.6,23.79-1.45"/><path class="cls-23" d="M438.89,809.43c-3.16-.85-9.79-1.55-12.3,6.36,0,0-2.24,26.43,20.25,16.93"/><path class="cls-12" d="M572.67,725.82s10.1,5.23,22.26,32.22"/><path class="cls-12" d="M462.12,731.82a53.52,53.52,0,0,0-18.39,33.54"/><ellipse class="cls-24" cx="558.86" cy="776.53" rx="11.48" ry="13.77" transform="translate(-95.34 78.43) rotate(-7.4)"/><path class="cls-17" d="M552.52,770.92s-7.89-1.29-10.39-8.68"/><ellipse class="cls-24" cx="480.73" cy="786.17" rx="11.48" ry="13.77" transform="translate(-97.23 68.45) rotate(-7.4)"/><path class="cls-17" d="M474.39,780.55s-7.88-1.29-10.38-8.68"/><path class="cls-4" d="M523.37,641.35s-88.5-7.6-103.22,89c0,0-22.84,8.45-19.34,31.27,0,0,108.7-33.12,240.32-36.73,0,0-13.76-18.38-34.89-26.44C606.24,698.46,588.14,638.42,523.37,641.35Z"/><path class="cls-25" d="M508.72,644.73s-73.85-11-88.57,85.63c0,0-22.84,8.45-19.34,31.27,0,0,84.18-32.5,215.8-36.1,0,0-2.45-11.77-23.58-19.83C593,705.7,573.5,641.8,508.72,644.73Z"/><path class="cls-20" d="M526.09,650s11.55,4.64,21,29.47"/><path class="cls-20" d="M483.05,655.86S471.66,669.29,472.13,687"/><path class="cls-26" d="M488.92,693.27s-41.43,7.94-64.71,15.17l-6.48,21.8s56.41-19.54,78.73-19.19"/><path class="cls-26" d="M525.45,688.56S567.38,684,591.76,684l12.6,18.93s-59.65-2.06-80.88,4.84"/><path class="cls-20" d="M424.21,708.44s53.07-21.81,177.44-25"/><path class="cls-20" d="M417.73,730.24s64.22-25,193-27.72"/><circle class="cls-27" cx="510.94" cy="694.35" r="23.78"/><circle class="cls-18" cx="510.67" cy="693.85" r="10.95"/><path class="cls-12" d="M398.43,761.53s66.8-28.88,240.27-37c0,0-6.53-13.61-27.92-22,0,0-18.47-76-114-58.67,0,0-67.23,8-79.08,86.39A43.91,43.91,0,0,0,398.43,761.53Z"/><path class="cls-18" d="M611.34,663.14a12.9,12.9,0,0,0-1.57-8.26c-3.08-5.51-9.21-8-13.71-5.44-3.28,1.82-4.75,5.78-4.13,9.93a24.59,24.59,0,0,0-14.18,7.91c-3.2-2.71-7.35-3.54-10.62-1.71-4.5,2.51-5.65,9-2.57,14.53a12.79,12.79,0,0,0,6.2,5.67,23.82,23.82,0,0,0,2.94,10.74c6.71,12,22.27,16.13,34.76,9.16s17.17-22.36,10.46-34.38A23.86,23.86,0,0,0,611.34,663.14Z"/><path class="cls-3" d="M605.88,667.05a13.72,13.72,0,0,0-1.8-7.94c-3-5.4-8-6.32-11.91-4.16-2.83,1.58-1,1.41-.23,5.38-2.33.38-8.17,3.22-10.33,4.42s-3.5,1.68-5.05,3.46a8.62,8.62,0,0,0-10-1c-3.89,2.17-4.6,8.31-1.59,13.7a13.63,13.63,0,0,0,5.81,5.7A25.94,25.94,0,0,0,574,697c6.56,11.77,20.63,16.43,31.43,10.42s14.22-20.45,7.65-32.22A25.86,25.86,0,0,0,605.88,667.05Z"/><path class="cls-20" d="M611.34,663.14a12.9,12.9,0,0,0-1.57-8.26c-3.08-5.51-9.21-8-13.71-5.44-3.28,1.82-4.75,5.78-4.13,9.93a24.59,24.59,0,0,0-14.18,7.91c-3.2-2.71-7.35-3.54-10.62-1.71-4.5,2.51-5.65,9-2.57,14.53a12.79,12.79,0,0,0,6.2,5.67,23.82,23.82,0,0,0,2.94,10.74c6.71,12,22.27,16.13,34.76,9.16s17.17-22.36,10.46-34.38A23.86,23.86,0,0,0,611.34,663.14Z"/><path class="cls-20" d="M585.36,690.4s20.52,5.84,21.39-11.93"/><ellipse class="cls-24" cx="573.42" cy="675.93" rx="4.39" ry="5.39" transform="translate(-256.61 364.88) rotate(-29.15)"/><ellipse class="cls-24" cx="601.46" cy="660.3" rx="4.39" ry="5.39" transform="translate(-245.44 376.56) rotate(-29.15)"/><ellipse class="cls-24" cx="583.59" cy="690.84" rx="4.01" ry="4.92" transform="translate(-262.58 371.72) rotate(-29.15)"/><ellipse class="cls-24" cx="608.63" cy="676.87" rx="4.01" ry="4.92" transform="translate(-252.6 382.15) rotate(-29.15)"/><path class="cls-28" d="M540.09,810.74s7,35.55-5.48,41.51c0,0-14.3,5.55-18.3-17.23,0,0-1.54-15.88-5.53-20.25"/><path class="cls-17" d="M502.73,811.4S515.64,822,544,808"/><line class="cls-12" x1="536.29" y1="748.39" x2="553.82" y2="738.98"/><line class="cls-12" x1="488.87" y1="756.98" x2="470.83" y2="751.01"/><path class="cls-29" d="M415,943.5l-35.43,47.25c2.3,26.91,35.37,28.44,35.37,28.44l20.76-13.07,14.4-31.32C438.64,963,431.24,947.22,415,943.5Z"/><path class="cls-16" d="M465.72,875.42c-17.68,2.3-46.9,63-46.9,63l-3.78,5c16.2,3.72,23.6,19.54,35.1,31.3l3.28-7.12C455.73,953.84,465.72,875.42,465.72,875.42Z"/><path class="cls-30" d="M367.41,969.38c4.23,20.83,13.49,37.11,31.19,35.86,11.24-.8,24-9.3,27.37-17.36a10,10,0,0,0-1.78-10.6c-1.28-1.45,3.67-4.58,4.32-9.88,2.23-18-13.1-43-35.19-36.64C376.27,935.66,363.31,949.18,367.41,969.38Z"/><ellipse class="cls-30" cx="422.56" cy="947.04" rx="11.98" ry="16.62" transform="translate(-179.65 102.78) rotate(-11.45)"/><line class="cls-31" x1="414.72" y1="981.33" x2="401.51" y2="987.03"/><line class="cls-31" x1="408.6" y1="964.71" x2="395.01" y2="970.33"/><line class="cls-31" x1="401.24" y1="947.47" x2="390.12" y2="952.55"/><path class="cls-12" d="M472.64,866.19s-27.45,20.9-49.21,63.82"/><path class="cls-12" d="M384.35,1003.29c2.94,10.86,47.17,48.44,72.54-51.39"/><path class="cls-20" d="M464.75,886.76s.14,27.57-6.27,45.09"/><path class="cls-12" d="M447.78,975.39s-3.23-7.93-8.22-13.21"/><path class="cls-32" d="M449,951.6a39.21,39.21,0,0,0-7.34-7.34"/><path class="cls-15" d="M671.08,717.09s-54.17,80.16-42.56,89.55c0,0,18.79,24.33,37,8.85l52-81.82"/><path class="cls-16" d="M621.88,795.59s10,30.4,42,25.43l-48,76.09-1.8,27.77-2.32-.49L590.67,853.1Z"/><path class="cls-21" d="M728.44,682.6c16,16.7,24.8,35.07,12.71,50.11-7.69,9.56-23.19,15.66-32.49,13.7a10.92,10.92,0,0,1-8.38-8.17c-.5-2-6.36.44-11.51-2.26-17.44-9.16-30.28-38.37-10.91-54.18C692.81,669.6,712.93,666.4,728.44,682.6Z"/><path class="cls-15" d="M718.61,689.41c16.33,16.27,30,36.09,20.1,48.38-6.28,7.81-20.12,11.85-28.93,9.27a12.94,12.94,0,0,1-8.51-8c-.65-1.86-5.87-.18-10.88-3-17-9.7-31.53-36.81-15-49.13C688.2,677.36,702.77,673.62,718.61,689.41Z"/><path class="cls-12" d="M728.44,682.6c16,16.7,24.8,35.07,12.71,50.11-7.69,9.56-23.19,15.66-32.49,13.7a10.92,10.92,0,0,1-8.38-8.17c-.5-2-6.36.44-11.51-2.26-17.44-9.16-30.28-38.37-10.91-54.18C692.81,669.6,712.93,666.4,728.44,682.6Z"/><ellipse class="cls-30" cx="674.27" cy="718.03" rx="13.03" ry="18.09" transform="translate(-309.35 666.17) rotate(-43.78)"/><line class="cls-18" x1="709.78" y1="732.29" x2="723.06" y2="724.02"/><line class="cls-18" x1="698.71" y1="716.51" x2="712.17" y2="707.85"/><line class="cls-18" x1="687.87" y1="699.24" x2="699.31" y2="692.45"/><path class="cls-12" d="M708.66,746.41,620.22,887.9s-8.92,19.52-5.56,38.78"/><line class="cls-21" x1="664.36" y1="729.93" x2="604.75" y2="827.1"/><path class="cls-17" d="M623.63,800.31s12.91,23.67,35.13,22.23"/><path class="cls-20" d="M606.82,909.07c-4.33-21.45-12.9-48.76-12.9-48.76"/><path class="cls-32" d="M620.79,819.2s7.65,14.33,23.89,12.9"/><rect class="cls-4" x="394.23" y="1340.91" width="291.55" height="113.45" rx="47.57" ry="47.57"/><rect class="cls-33" x="399.84" y="1348.81" width="275.21" height="104.8" rx="43.94" ry="43.94"/><path class="cls-4" d="M431.62,1411.18a3.16,3.16,0,0,1-2.32-1,3.2,3.2,0,0,1-1-2.33v-22.21a3.16,3.16,0,0,1,1-2.32,3.13,3.13,0,0,1,2.32-1h6.8a20.24,20.24,0,0,1,4.52.47,11.6,11.6,0,0,1,3.64,1.53,7.17,7.17,0,0,1,2.53,2.93,11.13,11.13,0,0,1,0,8.86,8,8,0,0,1-2.51,3.1A11.34,11.34,0,0,1,443,1401a15.58,15.58,0,0,1-4.36.58h-3a.33.33,0,0,0-.38.38v5.89a3.29,3.29,0,0,1-3.29,3.29Zm3.63-15.38a.33.33,0,0,0,.38.38h2.64c3.32,0,5-1.47,5-4.42a3.37,3.37,0,0,0-1.29-3,6.88,6.88,0,0,0-3.89-.89h-2.45a.33.33,0,0,0-.38.38Z"/><path class="cls-4" d="M462.57,1411.71q-3.36,0-4.82-2a9.54,9.54,0,0,1-1.45-5.67v-20.48a3.28,3.28,0,0,1,3.28-3.28h.27a3.29,3.29,0,0,1,3.29,3.28v20.74a1.78,1.78,0,0,0,.71,1.7,2.35,2.35,0,0,0,.36.21,3,3,0,0,1,.42.25l.3.22a1,1,0,0,1,.3.32,1.25,1.25,0,0,1,.13.4l.19,1.21a3.15,3.15,0,0,1,0,.53,2.88,2.88,0,0,1-.45,1.55,2.11,2.11,0,0,1-1.66,1C463.17,1411.69,462.87,1411.71,462.57,1411.71Z"/><path class="cls-4" d="M476.59,1411.71a6.17,6.17,0,0,1-4.74-1.93,6.69,6.69,0,0,1-1.79-4.76,6.16,6.16,0,0,1,2.83-5.38q2.83-2,9-2.67c.25,0,.35-.16.3-.41-.25-1.64-1.33-2.46-3.25-2.46a9,9,0,0,0-3.47.8,2.78,2.78,0,0,1-1.14.26,2.84,2.84,0,0,1-.87-.15,2.42,2.42,0,0,1-1.51-1.21,2.7,2.7,0,0,1-.19-2,2.3,2.3,0,0,1,1.25-1.47,17,17,0,0,1,7.22-1.7q8.91,0,8.91,10v9.71a2.8,2.8,0,0,1-2.79,2.8h-.8a2.42,2.42,0,0,1-1.56-.55,2.34,2.34,0,0,1-.89-1.42l0-.15a.12.12,0,0,0-.11-.07.16.16,0,0,0-.12,0A9.52,9.52,0,0,1,476.59,1411.71Zm2.38-5.33a4.33,4.33,0,0,0,3.06-1.47.87.87,0,0,0,.27-.64v-2.76a.37.37,0,0,0-.12-.27.38.38,0,0,0-.22-.07h0c-3.55.53-5.33,1.63-5.33,3.32a1.67,1.67,0,0,0,.63,1.42A2.87,2.87,0,0,0,479,1406.38Z"/><path class="cls-4" d="M499.12,1419.75a6.08,6.08,0,0,1-.61,0,2,2,0,0,1-1.66-1,2.62,2.62,0,0,1-.42-1.4,3.23,3.23,0,0,1,.08-.68c.28-1.15,1.36-2,3.25-2.45a3.39,3.39,0,0,0,2.49-2.49l.23-.76a1,1,0,0,0,0-.72l-7.1-17.94a2.75,2.75,0,0,1-.15-.87,2.2,2.2,0,0,1,2.23-2.19h.37a4.35,4.35,0,0,1,2.63.87,4.43,4.43,0,0,1,1.64,2.26l1.93,6q.22.69,1.7,6.16a.13.13,0,0,0,.13.08c.06,0,.1,0,.1-.08q.38-1.82,1.43-6.16l1.66-6a4.08,4.08,0,0,1,1.53-2.26,4.26,4.26,0,0,1,2.63-.87,2.22,2.22,0,0,1,1.89,1,2.15,2.15,0,0,1,.45,1.32,2.39,2.39,0,0,1-.15.8l-6.5,18.92a17,17,0,0,1-3.83,6.48A8.38,8.38,0,0,1,499.12,1419.75Z"/><path class="cls-4" d="M538,1411.71a6.17,6.17,0,0,1-4.74-1.93,6.73,6.73,0,0,1-1.79-4.76,6.16,6.16,0,0,1,2.83-5.38q2.84-2,9-2.67c.25,0,.35-.16.3-.41-.25-1.64-1.33-2.46-3.25-2.46a9.05,9.05,0,0,0-3.47.8,2.78,2.78,0,0,1-1.14.26,2.73,2.73,0,0,1-.86-.15,2.44,2.44,0,0,1-1.52-1.21,2.77,2.77,0,0,1-.3-1.25,2.45,2.45,0,0,1,.12-.75,2.26,2.26,0,0,1,1.24-1.47,17,17,0,0,1,7.22-1.7q8.91,0,8.91,10v9.71a2.66,2.66,0,0,1-.83,2,2.71,2.71,0,0,1-2,.81H547a2.44,2.44,0,0,1-1.56-.55,2.34,2.34,0,0,1-.89-1.42l0-.15a.11.11,0,0,0-.11-.07.16.16,0,0,0-.12,0A9.52,9.52,0,0,1,538,1411.71Zm2.38-5.33a4.33,4.33,0,0,0,3.06-1.47.87.87,0,0,0,.27-.64v-2.76a.37.37,0,0,0-.12-.27.38.38,0,0,0-.22-.07h0c-3.55.53-5.33,1.63-5.33,3.32a1.67,1.67,0,0,0,.63,1.42A2.87,2.87,0,0,0,540.38,1406.38Z"/><path class="cls-4" d="M565.7,1420.55A18.06,18.06,0,0,1,561,1420a7.37,7.37,0,0,1-3.31-1.83,4.31,4.31,0,0,1-1.28-3.18c0-1.78,1-3.21,3.06-4.26a.25.25,0,0,0,.07-.17.14.14,0,0,0-.07-.14,4.43,4.43,0,0,1-1.29-6,6,6,0,0,1,1.7-1.83.22.22,0,0,0,.08-.15.12.12,0,0,0-.08-.11,7.53,7.53,0,0,1-2.08-2.38,6.58,6.58,0,0,1-.83-3.25,7.46,7.46,0,0,1,1.34-4.44,7.85,7.85,0,0,1,3.39-2.72,12.26,12.26,0,0,1,7.63-.44,2.35,2.35,0,0,0,.71.12h5.22a2.38,2.38,0,0,1,1.75.73,2.42,2.42,0,0,1,.74,1.78,2.34,2.34,0,0,1-.74,1.76,2.4,2.4,0,0,1-1.75.71h-.57a.19.19,0,0,0-.17.12.28.28,0,0,0,0,.22,6,6,0,0,1,.46,2.35,6.56,6.56,0,0,1-2.44,5.53,10.09,10.09,0,0,1-6.33,1.87,9,9,0,0,1-2.23-.3.59.59,0,0,0-.64.15,1.92,1.92,0,0,0-.42,1.28,1.18,1.18,0,0,0,.76,1.14,6.68,6.68,0,0,0,2.49.34h3.48q8.46,0,8.46,5.66a6.63,6.63,0,0,1-3.38,5.73Q571.38,1420.55,565.7,1420.55Zm1.06-4.31a7.45,7.45,0,0,0,3.46-.7,2,2,0,0,0,1.34-1.75,1.25,1.25,0,0,0-.78-1.25,6.36,6.36,0,0,0-2.43-.34h-2.08a18.48,18.48,0,0,1-2.76-.15.5.5,0,0,0-.19,0,.6.6,0,0,0-.45.19,2.37,2.37,0,0,0-.79,1.7,1.89,1.89,0,0,0,1.26,1.76A8.26,8.26,0,0,0,566.76,1416.24Zm-.53-16a2.55,2.55,0,0,0,2-.89,3.74,3.74,0,0,0,.78-2.55,3.67,3.67,0,0,0-.78-2.53,2.57,2.57,0,0,0-2-.87,2.54,2.54,0,0,0-2,.89,3.68,3.68,0,0,0-.77,2.51,3.74,3.74,0,0,0,.77,2.55A2.57,2.57,0,0,0,566.23,1400.19Z"/><path class="cls-4" d="M588.34,1411.71a6.14,6.14,0,0,1-4.74-1.93,6.7,6.7,0,0,1-1.8-4.76,6.17,6.17,0,0,1,2.84-5.38c1.89-1.3,4.89-2.19,9-2.67.25,0,.35-.16.3-.41-.25-1.64-1.34-2.46-3.25-2.46a9.06,9.06,0,0,0-3.48.8,2.7,2.7,0,0,1-1.13.26,2.75,2.75,0,0,1-.87-.15,2.42,2.42,0,0,1-1.51-1.21,2.7,2.7,0,0,1-.19-2,2.27,2.27,0,0,1,1.25-1.47,17,17,0,0,1,7.21-1.7q8.93,0,8.92,10v9.71a2.7,2.7,0,0,1-.83,2,2.74,2.74,0,0,1-2,.81h-.79a2.46,2.46,0,0,1-1.57-.55,2.44,2.44,0,0,1-.89-1.42l0-.15a.13.13,0,0,0-.12-.07.12.12,0,0,0-.11,0A9.52,9.52,0,0,1,588.34,1411.71Zm2.38-5.33a4.33,4.33,0,0,0,3.06-1.47.9.9,0,0,0,.26-.64v-2.76a.36.36,0,0,0-.11-.27.41.41,0,0,0-.23-.07h0c-3.56.53-5.33,1.63-5.33,3.32a1.69,1.69,0,0,0,.62,1.42A2.9,2.9,0,0,0,590.72,1406.38Z"/><path class="cls-4" d="M611.58,1386.09a4.12,4.12,0,0,1-2.85-1,3.2,3.2,0,0,1-1.12-2.53,3.27,3.27,0,0,1,1.12-2.55,4.08,4.08,0,0,1,2.85-1,4,4,0,0,1,2.8,1,3.31,3.31,0,0,1,1.09,2.55,3.24,3.24,0,0,1-1.09,2.53A4,4,0,0,1,611.58,1386.09Zm-.15,25.09a3.29,3.29,0,0,1-3.29-3.29v-15.45a3.13,3.13,0,0,1,1-2.32,3.16,3.16,0,0,1,2.32-1h.26a3.2,3.2,0,0,1,2.33,1,3.16,3.16,0,0,1,1,2.32v15.45a3.28,3.28,0,0,1-3.29,3.29Z"/><path class="cls-4" d="M625.75,1411.18a3.28,3.28,0,0,1-3.28-3.29V1392a2.75,2.75,0,0,1,.81-2,2.65,2.65,0,0,1,2-.84h.31a2.84,2.84,0,0,1,1.9.7,3,3,0,0,1,1,1.8l0,.19c0,.05,0,.07.1.07a.17.17,0,0,0,.13,0,10,10,0,0,1,7-3.24,5.92,5.92,0,0,1,5.15,2.34,11.19,11.19,0,0,1,1.69,6.61v10.31a3.2,3.2,0,0,1-1,2.33,3.16,3.16,0,0,1-2.32,1H639a3.28,3.28,0,0,1-3.29-3.29v-9.48a5.57,5.57,0,0,0-.6-3,2.25,2.25,0,0,0-2-.85,3.78,3.78,0,0,0-1.79.4,7.76,7.76,0,0,0-1.76,1.3.86.86,0,0,0-.26.64v11a3.2,3.2,0,0,1-1,2.33,3.16,3.16,0,0,1-2.32,1Z"/><rect class="cls-34" x="394.23" y="1340.91" width="291.55" height="113.45" rx="47.57" ry="47.57"/><circle class="cls-4" cx="143.7" cy="490.76" r="73.03"/><path class="cls-35" d="M109.59,489.11s-8.13,20.65,8.57,33.39c.78.6,1.12,3.58,1.12,3.58l-9.73,28.26,8.46,4.51,7.75,2.53,16.87,1.42,2.93.73,10.28-1.43,12.54-4.38,7.22-12.42L171.16,521l7.66-12.32.66-11.42"/><path class="cls-36" d="M118.16,522.5s9.3.86,13.28,3.41a134.1,134.1,0,0,0-7.6,35.2l-13-6.39Z"/><path class="cls-36" d="M171.64,522.33s-9.33-.27-13.6,1.77a191.71,191.71,0,0,1,6,36.52l13.77-6.84Z"/><ellipse class="cls-37" cx="125.36" cy="539.91" rx="2.92" ry="8.51" transform="translate(-414.12 412.75) rotate(-63.66)"/><ellipse class="cls-37" cx="125.29" cy="552" rx="2.73" ry="4.79" transform="translate(-425.01 419.41) rotate(-63.66)"/><ellipse class="cls-37" cx="165.03" cy="551.12" rx="4.79" ry="2.73" transform="translate(-227.36 130.41) rotate(-26.34)"/><ellipse class="cls-37" cx="162.3" cy="539.06" rx="8.51" ry="2.92" transform="translate(-182.1 93.73) rotate(-20.96)"/><path class="cls-36" d="M105.27,459.68s-2.24,18.53,4.32,29.43L108.23,498s4.9,8.65,14.26,10.32c0,0,11.25-7.87,17.6-7.33l8.33-.24s10.31.35,16.37,6.65c0,0,9.89-.13,15.37-5.83l-2.33-14.4,4.77-16.41-2.11-13.22L158.25,469l-9.56-1.75-16.6-.16-4,2.76"/><path class="cls-35" d="M127.5,469.87s-1.7,4.86-1,13.94c0,0-8.62,1.25-6.47,11,0,0,1.6,7.23,10,6.37,0,0,9.57-1.46,7.56-10.57,0,0-4.84-19.31-.67-25"/><path class="cls-37" d="M134.76,467.83a59.33,59.33,0,0,0,.75,17s1.73,3.18,3-.67c0,0,.58-11.31,2.3-16.71"/><path class="cls-37" d="M107.58,508.34a49.35,49.35,0,0,1,12.52-6.26s3.62-.17,1,2.9c0,0-7,4.43-10.7,8.73"/><path class="cls-37" d="M112.49,516.33s-.81-.75,7-3.43c0,0,3.62-.18,1,2.9a35.8,35.8,0,0,0-5.62,5.6"/><path class="cls-37" d="M127.31,469.11A45.25,45.25,0,0,0,126,483.19s1.73,3.17,3-.67c0,0,1-9.46,2.71-14.86"/><path class="cls-35" d="M161.33,469.06s1.4,4.95.15,14c0,0,8.53,1.78,5.77,11.38,0,0-2,7.11-10.35,5.73,0,0-9.46-2.05-6.89-11,0,0,6-19,2.22-24.89"/><path class="cls-37" d="M154.21,466.56a59.55,59.55,0,0,1-1.8,16.91s-1.93,3.06-2.95-.85c0,0,.13-11.33-1.26-16.83"/><path class="cls-37" d="M178.82,508.69a49.39,49.39,0,0,0-12.11-7s-3.6-.4-1.17,2.84c0,0,6.7,4.85,10.13,9.37"/><path class="cls-37" d="M173.42,516.36s.86-.7-6.73-3.86c0,0-3.6-.4-1.17,2.84a35.55,35.55,0,0,1,5.25,5.93"/><path class="cls-37" d="M161.56,468.31a44.93,44.93,0,0,1,.45,14.13s-1.93,3.06-2.94-.85c0,0-.4-9.5-1.79-15"/><path class="cls-38" d="M178.22,552.11c-2-10.48-5.94-25.85-7.06-31.1,0,0,15.53-12.46,6.67-33.82,0,0,7.5-4,3.57-28.2,0,0-13.53,1.79-23.15,10a43.19,43.19,0,0,0-15.32-2.74"/><path class="cls-38" d="M143.26,466.24a43.33,43.33,0,0,0-15.15,3.6c-10.06-7.66-22.84-10.16-22.84-10.16-4.38,24.91,4.32,29.43,4.32,29.43-7.64,21.82,8.57,33.39,8.57,33.39-3,10.16-6.39,21.46-8.16,31"/><path class="cls-39" d="M128.73,523.82s14.73,14.64,32-.9"/><circle class="cls-24" cx="128.6" cy="493.01" r="5.57"/><path class="cls-40" d="M131.49,510.9s8,9,12.78-3.69c0,0,3.55,12.78,13.29,3.56"/><path class="cls-24" d="M145.39,507.22l4-4.7a1.65,1.65,0,0,0-1.3-2.72l-8.33.23a1.65,1.65,0,0,0-1.14,2.79l4.29,4.47A1.65,1.65,0,0,0,145.39,507.22Z"/><path class="cls-41" d="M123.43,473.59a86.51,86.51,0,0,0-12.92-6.34A21.91,21.91,0,0,0,114,484.2"/><circle class="cls-24" cx="159.37" cy="492.14" r="5.57"/><path class="cls-41" d="M163.61,472.47a107.41,107.41,0,0,1,12.55-5.29s2.63,6.95-2.68,15.34"/><circle class="cls-42" cx="143.7" cy="490.76" r="73.03"/><g class="cls-43"><circle class="cls-4" cx="341.85" cy="490.76" r="73.03"/><path class="cls-44" d="M316.32,574.79l4,23.22c17.8-3.53,18.78,9,18.78,9l-14.2-3.12-26.25,4.29c1.3-8.91,15.75-10.28,15.75-10.28l-3.28-23.49,4.35-16.58L329.17,553"/><path class="cls-45" d="M322.15,494.43C313.79,499,284.32,516.6,270,547.29c0,0-14.64,17-18.81,24.12,0,0-2.89,5.69,1.35,7.28,0,0-2.89,13.52,23.57-6,0,0,24.48.16,53.31-17.31,0,0,18.95-8.6,29.57-25.79C344.39,523.11,333.2,510.16,322.15,494.43Z"/><path class="cls-46" d="M364.08,464.39a16.74,16.74,0,0,0-7-4.73c-10.67,2-20.65,7.38-29.16,13.29-2.32,4.94-3.83,11.48-3.47,20.26,0,0-.89.44-2.33,1.22,11.05,15.73,22.24,28.68,36.87,35.17,5.62-9.1,1.68-20-1.42-33.88a20.45,20.45,0,0,0-1.67-4.54c-1.36-2.8-.68-10.34,6.2-12a38.5,38.5,0,0,1-5.3-6.65c-2.35,2.33-5.46,3.88-10.57,2.5,5.11,1.38,8.22-.17,10.57-2.5-.54-.85-1.08-1.71-1.62-2.65.54.94,1.08,1.8,1.62,2.65C359.65,469.72,361.37,465.8,364.08,464.39Z"/><path class="cls-47" d="M345.87,458.3S334,460,328,473c8.51-5.91,18.49-11.31,29.16-13.29A25.5,25.5,0,0,0,345.87,458.3Z"/><path class="cls-48" d="M386.23,476.35s-6.14-8.69-21.07-10.46a10.36,10.36,0,0,0-1.08-1.5c-2.71,1.41-4.43,5.33-7.25,8.12a38.5,38.5,0,0,0,5.3,6.65,6.14,6.14,0,0,1,3.33-2.35A67.84,67.84,0,0,1,386.23,476.35Z"/><line class="cls-49" x1="258.2" y1="572.84" x2="266.94" y2="564.96"/><path class="cls-50" d="M362,466.77a6.87,6.87,0,0,1-5.89.11s-3.33-5.08-8.92-4.49c0,0-6.13.49-7.42,8.22,0,0,0,3.59,10.62,4.42,0,0,5.14.25,7.51-2.09"/><path class="cls-51" d="M335,462.85s-10.65,11.49-27.26,12.71c0,0,8.38,5.5,19.78-1.11"/><path class="cls-52" d="M329.45,555.39s44.33-20.11,35.39-60.31a20.72,20.72,0,0,0-1.67-4.55c-1.77-3.64-4.64-11.51,2.29-13.72a67.84,67.84,0,0,1,20.77-.46s-6.14-8.69-21.07-10.46c0,0-4.54-8.77-19.29-7.6,0,0-22.68,3.16-21.39,34.92,0,0-37.71,18.12-54.45,54.08,0,0-14.64,17-18.81,24.12,0,0-2.89,5.69,1.35,7.28,0,0-2.88,13.52,23.57-6C276.14,572.7,300.62,572.86,329.45,555.39Z"/><path class="cls-49" d="M360.6,468.12a12.8,12.8,0,0,0-3.74,5l1.67,2.33"/><circle class="cls-24" cx="348.1" cy="468.65" r="3.69"/><path class="cls-53" d="M331.35,502.92s-1.75,2.65,1.33,11.68"/><path class="cls-53" d="M340,512.48s-.38,9.56,3,13.17"/><line class="cls-53" x1="285.86" y1="542.67" x2="278.67" y2="553.22"/><line class="cls-53" x1="292.52" y1="550.54" x2="290.72" y2="554.81"/><path class="cls-49" d="M280.93,560.45s4.59,7.55,13.33-.33c0,0,7.55,3.23,32.63-16.19"/><path class="cls-49" d="M312.47,564.56l-1.38,9.83,3.28,23.49s-12.49.74-14.16,8.28"/><path class="cls-49" d="M322.85,561.19l-6.53,13.6,4,23.22s17.1-2.67,17.41,6.53"/><rect class="cls-54" x="309" y="582.17" width="13.1" height="8.66" transform="translate(-59.82 36.36) rotate(-6.03)"/><line class="cls-55" x1="310.34" y1="517" x2="300.52" y2="525.61"/><line class="cls-55" x1="323.87" y1="517.76" x2="313.77" y2="525.47"/></g><circle class="cls-42" cx="341.85" cy="490.76" r="73.03"/><g class="cls-56"><g class="cls-56"><circle class="cls-4" cx="936.3" cy="490.76" r="73.03"/></g><path class="cls-57" d="M950.36,496.11l9.06-4.74s-1.73-6.58-2.81-8.56c0,0-6.89.93-6.33-6.12s.19-3.17,6.1-8.53c0,0,10.64.14,8,11.38,0,0,4.25,9.87,5,16.5,0,0-8,6.71-14,8.37"/><path class="cls-57" d="M916.47,509.21l-9.13,4.6s-3.39-5.69-4.37-7.72c0,0,4.77-5-1.28-8.7s-2.68-1.7-10.49,0c0,0-6.09,8.72,4.56,13.17,0,0,4.59,9.66,9.56,14.1,0,0,10.1-2.56,15-6.54"/><path class="cls-4" d="M1011.68,536.55c-.24,11.39-3.28,21.1-11.73,30.56-11.37,12.72-29.1,12-39.07,9.28a44.47,44.47,0,0,1-24.31-17.73c-18.2-26.13-17.39-55.14-17.39-55.14-5.07-.68-6.79-8.1-6.79-8.1C910,491.26,911,471,911,471c.49-6,3.38-8.59,3.38-8.59a9,9,0,0,1,5.29-2.11,11.27,11.27,0,0,1,9.22,4.09c6.7,7.72,13.56,17.6,13.56,17.6a13.84,13.84,0,0,1,2,12c19.91,15.19,28.32,57,28.32,57,4.47,10.95,19.17,1,19.17,1a35.56,35.56,0,0,0,7.64-20.69s.39-16.06-9-23.6c0,0-22.4-19.69-13.2-42,0,0,2,20.73,15.86,31.52C1000.81,503.15,1012.2,512.43,1011.68,536.55Z"/><path class="cls-58" d="M909.54,469.1a8.66,8.66,0,0,1,1.43-1C910.61,466.85,909.54,469.1,909.54,469.1Z"/><path class="cls-59" d="M993.17,497.21c-13.88-10.79-15.86-31.52-15.86-31.52-9.2,22.27,13.2,42,13.2,42,9.43,7.54,9,23.6,9,23.6a36.78,36.78,0,0,1-4.64,16.25c12,4.93,4.21,18.18-1.1,24.86a31.25,31.25,0,0,0,6.14-5.25c8.45-9.46,11.49-19.17,11.73-30.56C1012.2,512.43,1000.81,503.15,993.17,497.21Z"/><path class="cls-58" d="M994.91,547.5a32.67,32.67,0,0,1-3,4.44s-14.7,10-19.17-1c0,0-12.89-36.19-32.8-51.37a13.84,13.84,0,0,0-2-12s-7.22-8.79-13.91-16.51a11.26,11.26,0,0,0-9.23-4.09,9.27,9.27,0,0,0-3.86,1.13,9.81,9.81,0,0,1,0,2.89s-1,20.25,1.39,24.41c0,0,1.72,7.42,6.79,8.1,0,0-.81,29,17.39,55.14a44.47,44.47,0,0,0,24.31,17.73c8.31,2.3,22,3.12,32.93-4C999.12,565.68,1006.94,552.43,994.91,547.5Z"/><path class="cls-52" d="M1011.68,536.55c-.24,11.39-3.28,21.1-11.73,30.56-11.37,12.72-29.1,12-39.07,9.28a44.47,44.47,0,0,1-24.31-17.73c-18.2-26.13-17.39-55.14-17.39-55.14-5.07-.68-6.79-8.1-6.79-8.1C910,491.26,911,471,911,471c.49-6,3.38-8.59,3.38-8.59a9,9,0,0,1,5.29-2.11,11.27,11.27,0,0,1,9.22,4.09c6.7,7.72,13.56,17.6,13.56,17.6a13.84,13.84,0,0,1,2,12c19.91,15.19,28.32,57,28.32,57,4.47,10.95,19.17,1,19.17,1a35.56,35.56,0,0,0,7.64-20.69s.39-16.06-9-23.6c0,0-22.4-19.69-13.2-42,0,0,2,20.73,15.86,31.52C1000.81,503.15,1012.2,512.43,1011.68,536.55Z"/><path class="cls-60" d="M964.81,559.73c-7.57-6-11.84-13.5-15.86-22.16-4.73-10.15-10.19-20.13-11.18-31.47a2.08,2.08,0,0,0-1.35-1.81,122.76,122.76,0,0,1-10.82-25.15c-.78-2.57-4.82-1.47-4,1.12a128.05,128.05,0,0,0,11.68,26.95,2,2,0,0,0,.58.65c1.26,10.11,5.56,19,9.84,28.21,4.78,10.33,9.16,19.41,18.19,26.62C963.94,564.36,966.92,561.41,964.81,559.73Z"/><path class="cls-60" d="M940.32,546.55c-4.61-8.74-9.05-17.52-9.46-27.57-.11-2.69-4.29-2.7-4.18,0,.44,10.79,5.08,20.29,10,29.68C938,551,941.58,548.93,940.32,546.55Z"/><path class="cls-60" d="M957.77,529.05q-2.89-6.15-5.78-12.3c-1.15-2.43-4.76-.31-3.62,2.12q2.89,6.14,5.78,12.29C955.3,533.59,958.91,531.47,957.77,529.05Z"/><ellipse class="cls-24" cx="914.75" cy="484.75" rx="2.97" ry="4.33" transform="translate(-99.72 278.34) rotate(-16.42)"/><ellipse class="cls-24" cx="935.17" cy="477.3" rx="2.97" ry="4.33" transform="translate(-113.36 531.53) rotate(-30)"/></g><circle class="cls-42" cx="936.3" cy="490.76" r="73.03"/><g class="cls-61"><g class="cls-61"><circle class="cls-4" cx="738.15" cy="490.76" r="73.03"/></g><path class="cls-4" d="M689,492.44s-18.82,8.18-17.58,45.85c0,0,1,22.46-11.59,34.77l-10.32,10.49-8.44,2-3.23-5.65,3.37-12.14-5.53,1.82-3.79,11.49,1.86,8.76,7.65,4.2L655,590.12l23.36-24.41,11.28-8,1.56,8.85s8.72,3.74,16-.94l12.93-4.56s2-8.15-6.27-6.68l-14.92,4.38s.83-11.6,8.54-15.8c0,0,23.57-14.53,29.35-13.83l13.4-1.16-8.61-16.73s21.87-17.65,42.07-25.37c0,0,11.42-4.17-25-11.6l-19.08-8s-24.19-4.06-25.9,10.71A28.62,28.62,0,0,1,689,492.44Z"/><path class="cls-62" d="M698.43,501s-28.23-.33-27,37.34c0,0,1,22.46-11.59,34.77l-10.32,10.49-8.44,2-3.23-5.65,3.37-12.14-5.53,1.82-3.79,11.49,1.86,8.76,7.65,4.2L655,590.12l23.36-24.41,11.28-8,1.56,8.85s8.72,3.74,16-.94l12.93-4.56s-.53,0-8.81,1.46l-12.38-3.76s.83-11.6,8.54-15.8c0,0,23.57-14.53,29.35-13.83l18.4,11.67,9.7-2.09,6.08-7.22-9.88.76L750.22,528l-8.61-16.73s21.87-17.65,42.07-25.37c0,0,11.42-4.17-25-11.6l-19.08-8s-20,2.23-21.68,17C717.92,483.31,716.47,500.26,698.43,501Z"/><path class="cls-52" d="M689.64,557.76c-9.16,2.93-20.93,18.55-20.93,18.55-9.43,13.28-18.37,16.93-23.31,17.88a11.08,11.08,0,0,1-8.54-2,12,12,0,0,1-5-11.1c.61-14,11.52-14.77,11.52-14.77-8.25,10.77-4.3,16.71-4.3,16.71,3.28,7.65,13.76-3,13.76-3,8.71-7.94,10.92-20.22,10.92-20.22.49-5.52.67-10.58-.25-15.05a82.13,82.13,0,0,1-2-12.76c-1.89-42.48,34.13-41.11,34.13-41.11,9,1.39,13.87-7.35,13.87-7.35s10.27-30,42.27-12.63c0,0,22.63,9,29.64,8.84,0,0,5.86,3,2.17,6.16,0,0-27.15,11.89-38.3,20.18,0,0-6.52,7,1,16.72a32,32,0,0,0,14.09,9.5s8-3.61,11.23,1.2a22.31,22.31,0,0,1-16,7.22s-12.79-2.67-18.83-11.56"/><path class="cls-52" d="M733.33,483.13S721.19,486,723,494.47c0,0,4.07,8.74,16.56,6.82"/><path class="cls-63" d="M738,495.28a8.57,8.57,0,0,1-9.13-1.94s-1.44-5,7-5.79"/><path class="cls-64" d="M763.27,488.13s-5.2,6.42-7.36,22"/><path class="cls-64" d="M768.22,486.74a25.92,25.92,0,0,0,2.54,13.5"/><path class="cls-64" d="M765.26,476.21s1.82-13.16,5-16.9"/><path class="cls-64" d="M770.79,477.11s2-7.86,6.09-10.43"/><ellipse class="cls-24" cx="748.41" cy="481.11" rx="4.18" ry="4.29" transform="translate(-139.29 540.96) rotate(-36.59)"/><path class="cls-65" d="M686.28,548.79s5.52,8.37,4.92,17.82c0,0,2.69,6,16-.94a23,23,0,0,0,4.57-2.58c2-1.6,2.34,6.16,4.9,6.21,0,0,3.9-9.43-6.27-6.68,0,0-5.57-6.45-11.46-3.81a58.39,58.39,0,0,0,2.35-7.6c1.36-5.71,2.21-13.27-1.11-17.74"/><path class="cls-66" d="M736.41,529.64c1.79-1.33-23.67,5.49-32.72,16.15"/><path class="cls-66" d="M716.93,513.08s8.65,11.39,16.38,11.77"/><path class="cls-24" d="M778.55,480.74s-2.07,2.26,1.08,7.25l4-2.07,1.32-4.49"/></g><circle class="cls-42" cx="738.15" cy="490.76" r="73.03"/><g class="cls-67"><circle class="cls-2" cx="540" cy="490.76" r="73.03"/><g class="cls-68"><circle class="cls-4" cx="540" cy="490.76" r="73.03"/></g><path class="cls-69" d="M468.09,512.87s28.27-25.41,59.19-20.35c0,0,24.87,24.48,42.79,20.05,0,0-35.68,21.11-50.84,21.41C519.23,534,475.23,541.41,468.09,512.87Z"/><path class="cls-70" d="M530.49,509.7s3.44-7.79,8.89-8.62l-4.46-10.6-8.56-.83-2.64,6.13,6,12.87"/><polyline class="cls-70" points="552.28 489.65 559.84 482.1 562.18 486.4 560.36 497.99"/><path class="cls-71" d="M502.1,487.49s-23.66,6.2-40.59,23.55l-14,5.07s-.62-43.1-28.66-32.76c0,0,9.27-44-31.59-63.8,0,0-1-33.06-16.89-45.72,0,0,31.45,1.4,37.37,2.67,0,0,69.26,30.33,83.71,44.78l-2.9,47.45S496.6,490,502.1,487.49Z"/><path class="cls-71" d="M449.29,515.68s-.51,6.44-9,12.1c0,0-7.72.26,7.73,17l9.52,12.36L477.37,528l-13.91-19"/><path class="cls-71" d="M528.25,481.36l9.49-20.49,43.12-46,65-49.66L675.12,363s-15.94,26.94-12.53,41.36c0,0-53.4,12.07-74.27,63.3l-38.17,19.89.16,0Z"/><path class="cls-52" d="M449.88,521.32s-10.33,5.78-13.06,11.24c0,0,16.71,16.11,20.35,26.13l21.27-28.86"/><path class="cls-52" d="M563.43,506.47a21.06,21.06,0,0,0-5.77-11.36c-14-17.76-44.74-10-44.74-10s-13.82-6-16.86-24.58c0,0-3.34-28.56-1.52-38.28,0,0-44.54-43.6-88.59-52.41,0,0-18.53-1.21-35.54,3.95,0,0,23.27,24.15,16.89,45.72,0,0,42.83,19.45,31.59,63.8,0,0,22.18-4.56,25.22,15.19a80.42,80.42,0,0,0,1.23,9.45"/><path class="cls-52" d="M468.26,514.75c1.09,13.26,21.52,18.83,21.52,18.83,32.29,7.53,65.92-12.3,65.92-12.3"/><path class="cls-64" d="M462.64,524.36s-6.68,9.12-5.47,23.09"/><path class="cls-64" d="M502,488,483.31,468.7s10.14-28.46,8.18-47.42c0,0-34.66,4.9-64.42,50"/><path class="cls-64" d="M395.35,414.74c33-14.39,96.14,6.54,96.14,6.54s-52.32-43.5-99.09-40.23"/><path class="cls-52" d="M494.54,422.29s6.71-6.77,11.94.42"/><path class="cls-52" d="M465.65,507s-9.81,9.15-23.54,9.15c0,0-5.23-3.59-6.54,3.93"/><path class="cls-64" d="M540.22,500.09s-2-10.14-12.1-11.77c0,0-10.47,2.61.65,20.93"/><path class="cls-64" d="M552.31,490.61s.33-6.22,8.51-8.83c0,0,2.94,5.23-.33,15.37"/><path class="cls-64" d="M473.57,501.42A47.09,47.09,0,0,1,493.18,489"/><path class="cls-52" d="M523.38,483.14s6.12-1.72,10.52-18.35c0,0,35.22-36.68,47-49.89,0,0,47.44-41.09,69.45-51.36,0,0,12.72-4.4,33.26,2,0,0-13.69,16.63-11.74,40.11,0,0-65.05,24.94-77.28,69.94,0,0-21.23,4-30.52,9.87"/><path class="cls-52" d="M577.43,418.81s8.81-2.93,10.77,3.43"/><path class="cls-64" d="M568.49,438l-23,27.89c-1,3.42.1,19,.1,19"/><path class="cls-64" d="M594.31,412.69s20.79-12,33.5-13.44c0,0,23.35-1,33.62,2"/><path class="cls-64" d="M580.48,426.84s5.14,29.73,8.56,41.47"/><circle class="cls-24" cx="545.48" cy="506.9" r="3.6"/><path class="cls-52" d="M557.62,504.66s8.31,4.94,13.48,3.82c0,0,7.64,4.49-16.63,13.48"/><line class="cls-64" x1="560.27" y1="519.05" x2="549.58" y2="515.22"/><path class="cls-72" d="M520.39,521a33.85,33.85,0,0,1-10.77,2.64"/><path class="cls-72" d="M511.3,513a85.86,85.86,0,0,1-11.44,1.68"/></g><circle class="cls-42" cx="540" cy="490.76" r="73.03"/><path class="cls-24" d="M233.29,349.78a4.81,4.81,0,0,1-4.81-4.81V312.68a4.8,4.8,0,0,1,4.81-4.8h9.07q15.13,0,15.14,10.33a10.44,10.44,0,0,1-1.52,5.48,8.22,8.22,0,0,1-4,3.54c-.11,0-.17,0-.17.16s0,.17.11.17a10.45,10.45,0,0,1,5.64,3.37,9.77,9.77,0,0,1,2.1,6.52q0,6.09-4.48,9.21t-11.72,3.12Zm3.59-25.43a.49.49,0,0,0,.55.55h4.32c2.58,0,4.49-.48,5.75-1.43a4.81,4.81,0,0,0,1.88-4,4.37,4.37,0,0,0-1.86-3.93,10.47,10.47,0,0,0-5.66-1.21h-4.43a.49.49,0,0,0-.55.55Zm0,18.41a.49.49,0,0,0,.55.56h5.26q8.84,0,8.84-6.36a4.83,4.83,0,0,0-2.21-4.43q-2.2-1.38-6.63-1.38h-5.26a.49.49,0,0,0-.55.55Z"/><path class="cls-24" d="M268.12,362.67a9.41,9.41,0,0,1-1.11-.06,2.45,2.45,0,0,1-2.1-1.22,3.27,3.27,0,0,1-.49-1.71,3.16,3.16,0,0,1,.11-.83c.36-1.58,1.71-2.54,4-2.87s4-2,4.87-4.76l.44-1.33a1.52,1.52,0,0,0-.05-1.05l-10.62-26.7A3.21,3.21,0,0,1,263,321a2.44,2.44,0,0,1,.55-1.54,2.63,2.63,0,0,1,2.32-1.28,5.61,5.61,0,0,1,3.4,1.11,5.79,5.79,0,0,1,2.13,2.87l3.71,10.73c.11.3,1,3.25,2.6,8.85a.22.22,0,0,0,.38,0c.22-1,.59-2.43,1.11-4.4s.88-3.45,1.1-4.45L283.55,322a5.26,5.26,0,0,1,1.9-2.74,5.1,5.1,0,0,1,3.18-1.08,2.67,2.67,0,0,1,2.33,1.22,2.61,2.61,0,0,1,.55,1.6,3,3,0,0,1-.17.94l-9.95,28.92q-2.26,6-5.25,8.9A11.07,11.07,0,0,1,268.12,362.67Z"/><path class="cls-24" d="M322.25,350.56q-10.46,0-10.45-11.89V325.13c0-.34-.15-.5-.44-.5h-.94a3,3,0,0,1-3-3,3.36,3.36,0,0,1,3-3.38l1.27-.11c.37,0,.57-.16.61-.49l.49-4.54a3.88,3.88,0,0,1,1.28-2.49,3.75,3.75,0,0,1,2.59-1,3.39,3.39,0,0,1,2.47,1,3.35,3.35,0,0,1,1,2.46v4.48a.48.48,0,0,0,.55.55h4a3.22,3.22,0,0,1,2.3.94,3.3,3.3,0,0,1,0,4.65,3.22,3.22,0,0,1-2.3.94h-4a.48.48,0,0,0-.55.55v13.49c0,3.58,1.44,5.36,4.31,5.36h.17a4.91,4.91,0,0,1,2.32.56,2.49,2.49,0,0,1,1.27,1.77,2.87,2.87,0,0,1,.11.77,3.35,3.35,0,0,1-.44,1.66,2.87,2.87,0,0,1-1.94,1.44A21.29,21.29,0,0,1,322.25,350.56Z"/><path class="cls-24" d="M341.46,348.57a3.9,3.9,0,0,1-2.9,1.21,4.15,4.15,0,0,1-4.15-4.14V308.76a4.17,4.17,0,0,1,4.15-4.15,3.9,3.9,0,0,1,2.9,1.22,4.05,4.05,0,0,1,1.19,2.93V316l-.28,5.37a.22.22,0,0,0,.14.22.22.22,0,0,0,.25-.06q4.69-4.26,9.51-4.26,9.84,0,9.84,12.78v15.59a4.18,4.18,0,0,1-8.35,0V331c0-2.39-.35-4.1-1.05-5.11a3.84,3.84,0,0,0-3.42-1.52,6.31,6.31,0,0,0-3.07.74,15.57,15.57,0,0,0-3.13,2.46,1.22,1.22,0,0,0-.44.94v17.09A4.05,4.05,0,0,1,341.46,348.57Z"/><path class="cls-24" d="M384.39,350.56a15.23,15.23,0,0,1-11.3-4.48q-4.45-4.49-4.45-12.11a18.93,18.93,0,0,1,1.24-6.91,15.36,15.36,0,0,1,3.32-5.31,15.6,15.6,0,0,1,4.73-3.29,13.25,13.25,0,0,1,5.47-1.19q6.14,0,9.56,3.93a15.1,15.1,0,0,1,3.71,10.45,4.06,4.06,0,0,1-1.49,3.21,5.4,5.4,0,0,1-3.71,1.38H377.26a.47.47,0,0,0-.33.16.38.38,0,0,0-.11.39,8.28,8.28,0,0,0,8.68,7.41,12.05,12.05,0,0,0,4.53-.88,3.38,3.38,0,0,1,1.33-.28,4,4,0,0,1,.94.11,2.71,2.71,0,0,1,1.77,1.38,3.1,3.1,0,0,1,.39,1.49,3,3,0,0,1-.11.78,2.36,2.36,0,0,1-1.39,1.71A19.28,19.28,0,0,1,384.39,350.56Zm-7.68-20.24a.39.39,0,0,0,.11.28.36.36,0,0,0,.33.16H389a.53.53,0,0,0,.39-.16.54.54,0,0,0,.17-.39,7.65,7.65,0,0,0-1.66-4.78,5.52,5.52,0,0,0-4.37-1.69,6.43,6.43,0,0,0-4.37,1.66A6.58,6.58,0,0,0,376.71,330.32Z"/><path class="cls-24" d="M427.91,350.56q-10.46,0-10.45-11.89V325.13c0-.34-.15-.5-.44-.5h-.94a3,3,0,0,1-3.05-3,3.3,3.3,0,0,1,.89-2.3,3.27,3.27,0,0,1,2.16-1.08l1.27-.11c.37,0,.57-.16.61-.49l.49-4.54a3.86,3.86,0,0,1,1.27-2.49,3.79,3.79,0,0,1,2.6-1,3.5,3.5,0,0,1,3.49,3.48v4.48a.48.48,0,0,0,.55.55h4a3.22,3.22,0,0,1,2.3.94,3.3,3.3,0,0,1,0,4.65,3.22,3.22,0,0,1-2.3.94h-4a.48.48,0,0,0-.55.55v13.49c0,3.58,1.43,5.36,4.31,5.36h.17a4.91,4.91,0,0,1,2.32.56,2.49,2.49,0,0,1,1.27,1.77,2.87,2.87,0,0,1,.11.77,3.35,3.35,0,0,1-.44,1.66,2.87,2.87,0,0,1-1.94,1.44A21.37,21.37,0,0,1,427.91,350.56Z"/><path class="cls-24" d="M447.12,348.57a3.9,3.9,0,0,1-2.9,1.21,4.15,4.15,0,0,1-4.15-4.14V308.76a4.17,4.17,0,0,1,4.15-4.15,3.9,3.9,0,0,1,2.9,1.22,4.05,4.05,0,0,1,1.19,2.93V316l-.28,5.37a.22.22,0,0,0,.14.22.22.22,0,0,0,.25-.06q4.69-4.26,9.51-4.26,9.84,0,9.84,12.78v15.59a4,4,0,0,1-1.21,2.93,4.23,4.23,0,0,1-5.92,0,4,4,0,0,1-1.22-2.93V331c0-2.39-.35-4.1-1.05-5.11a3.85,3.85,0,0,0-3.43-1.52,6.3,6.3,0,0,0-3.06.74,15.57,15.57,0,0,0-3.13,2.46,1.22,1.22,0,0,0-.44.94v17.09A4.05,4.05,0,0,1,447.12,348.57Z"/><path class="cls-24" d="M480.49,313a5.12,5.12,0,0,1-3.57-1.27,4.2,4.2,0,0,1-1.41-3.26,4.16,4.16,0,0,1,1.38-3.24,5.18,5.18,0,0,1,3.6-1.24,5.11,5.11,0,0,1,3.51,1.24,4.12,4.12,0,0,1,1.41,3.24,4.2,4.2,0,0,1-1.41,3.26A5,5,0,0,1,480.49,313Zm2.85,35.61a3.92,3.92,0,0,1-2.91,1.21,4.13,4.13,0,0,1-4.14-4.14V322.19a3.91,3.91,0,0,1,1.21-2.9,4.05,4.05,0,0,1,2.93-1.19,4,4,0,0,1,4.09,4.09v23.45A4,4,0,0,1,483.34,348.57Z"/><path class="cls-24" d="M500.53,348.57a3.9,3.9,0,0,1-2.9,1.21,4.15,4.15,0,0,1-4.15-4.14V321.48a3.42,3.42,0,0,1,3.37-3.38,3.8,3.8,0,0,1,3.76,3.38l.22,2.1c0,.07,0,.11.12.11a.18.18,0,0,0,.16-.11,14.17,14.17,0,0,1,4.09-4.65,8.48,8.48,0,0,1,4.87-1.66h.16a2.75,2.75,0,0,1,2.33,1.39,3.69,3.69,0,0,1,.6,2,3.84,3.84,0,0,1-.11.89,3.25,3.25,0,0,1-1.52,2.18,5.84,5.84,0,0,1-2.79.91,6.84,6.84,0,0,0-3.76,1.5,10.21,10.21,0,0,0-3,4.2,2.5,2.5,0,0,0-.22,1.05v14.21A4.05,4.05,0,0,1,500.53,348.57Z"/><path class="cls-24" d="M528.76,350.56a11.47,11.47,0,0,1-9.49-4.43q-3.51-4.41-3.51-12.16,0-7.46,4-12.08a12,12,0,0,1,9.37-4.62,10,10,0,0,1,4.12.78,14,14,0,0,1,3.51,2.32.19.19,0,0,0,.25,0c.09-.06.12-.12.08-.2l-.28-4.42v-7a4.17,4.17,0,0,1,4.15-4.15,4.1,4.1,0,0,1,3,1.22,4,4,0,0,1,1.24,2.93v37.65a3.38,3.38,0,0,1-3.37,3.37h-.39A3.64,3.64,0,0,1,539,349a3.42,3.42,0,0,1-1.24-2.11l-.06-.27a.17.17,0,0,0-.14-.06.16.16,0,0,0-.13.06Q533.28,350.56,528.76,350.56ZM526,341.21a5.5,5.5,0,0,0,4.86,2.49,7.09,7.09,0,0,0,5.56-2.82,1.6,1.6,0,0,0,.33-1V327.06a1,1,0,0,0-.44-.88,8.19,8.19,0,0,0-5.42-2.05,5.63,5.63,0,0,0-4.7,2.6,12,12,0,0,0-1.88,7.13C524.33,337.1,524.89,339.56,526,341.21Z"/><path class="cls-24" d="M578,350.56a11.47,11.47,0,0,1-9.48-4.43Q565,341.72,565,334q0-7.46,4-12.08a12,12,0,0,1,9.37-4.62,10,10,0,0,1,4.12.78,14,14,0,0,1,3.51,2.32.2.2,0,0,0,.25,0c.09-.06.12-.12.08-.2l-.27-4.42v-7a4.15,4.15,0,0,1,4.14-4.15,4.09,4.09,0,0,1,3,1.22,4,4,0,0,1,1.24,2.93v37.65a3.38,3.38,0,0,1-3.37,3.37h-.38a3.62,3.62,0,0,1-2.35-.82,3.39,3.39,0,0,1-1.25-2.11l0-.27a.2.2,0,0,0-.14-.06.18.18,0,0,0-.14.06Q582.56,350.56,578,350.56Zm-2.74-9.35a5.53,5.53,0,0,0,4.87,2.49,7.07,7.07,0,0,0,5.55-2.82,1.55,1.55,0,0,0,.34-1V327.06a1,1,0,0,0-.45-.88,8.16,8.16,0,0,0-5.41-2.05,5.62,5.62,0,0,0-4.7,2.6,11.9,11.9,0,0,0-1.88,7.13C573.6,337.1,574.16,339.56,575.28,341.21Z"/><path class="cls-73" d="M680.48,314.52a7.08,7.08,0,0,1,5.25,2.2,7.51,7.51,0,0,1,0,10.5,7,7,0,0,1-5.25,2.2h-.75c-.64,0-1,.29-1,.86v10.39a9.11,9.11,0,0,1-18.22,0V330.49a1,1,0,0,0-1.07-1.07H633.11a6.48,6.48,0,0,1-4.83-2,6.61,6.61,0,0,1-1.93-4.77A24.81,24.81,0,0,1,629.78,310l20.15-33.87a16.37,16.37,0,0,1,6-5.89,16.15,16.15,0,0,1,8.15-2.15h5.36a9.34,9.34,0,0,1,9.32,9.33v36.23c0,.57.33.85,1,.85Zm-34.94-.85a.51.51,0,0,0-.06.58.64.64,0,0,0,.59.27h13.4a.94.94,0,0,0,1.07-1.07V302.63q0-.54.75-17.9c0-.15-.07-.22-.21-.22a.34.34,0,0,0-.32.22q-3.54,7.92-6.43,13.72Z"/><path class="cls-24" d="M728,350.56a9.11,9.11,0,0,1-6.8-2.66,9.23,9.23,0,0,1-2.59-6.74,8.86,8.86,0,0,1,4.23-7.82q4.21-2.8,13.46-3.85a.49.49,0,0,0,.5-.61q-.45-4.92-5.31-4.92a14.08,14.08,0,0,0-6,1.55,3.43,3.43,0,0,1-1.44.33,3.21,3.21,0,0,1-1-.16,2.84,2.84,0,0,1-1.82-1.44,3,3,0,0,1-.44-1.55,2.48,2.48,0,0,1,.16-.88,2.82,2.82,0,0,1,1.5-1.88,23.54,23.54,0,0,1,10.5-2.66q6,0,9.1,3.57t3.06,10.42v15.15a3.38,3.38,0,0,1-3.37,3.37h-.27a3.62,3.62,0,0,1-2.41-.85,3.76,3.76,0,0,1-1.3-2.19v-.27a.18.18,0,0,0-.14-.06.2.2,0,0,0-.14.06Q732.66,350.56,728,350.56Zm2.71-6.47a8.4,8.4,0,0,0,5.75-2.76,1.3,1.3,0,0,0,.39-.95v-5.25a.52.52,0,0,0-.16-.38.45.45,0,0,0-.34-.12h-.05q-5.25.72-7.49,2.22a4.3,4.3,0,0,0-2.24,3.65,3.22,3.22,0,0,0,1.13,2.71A4.77,4.77,0,0,0,730.72,344.09Z"/><path class="cls-24" d="M761.47,350.56q-4.15,0-6-2.49c-1.21-1.66-1.82-4.05-1.82-7.19V308.76a4.17,4.17,0,0,1,4.15-4.15,3.9,3.9,0,0,1,2.9,1.22,4.05,4.05,0,0,1,1.19,2.93v32.51a2.43,2.43,0,0,0,1,2.32,3.06,3.06,0,0,0,.5.28c.29.15.5.26.61.33l.47.33a1.25,1.25,0,0,1,.41.47,2.34,2.34,0,0,1,.17.53l.22,1.21a3.79,3.79,0,0,1,.06.67,3.49,3.49,0,0,1-.56,1.88,2.57,2.57,0,0,1-2,1.21C762.33,350.54,761.91,350.56,761.47,350.56Z"/><path class="cls-24" d="M779.27,350.56q-4.15,0-6-2.49c-1.22-1.66-1.83-4.05-1.83-7.19V308.76a4.17,4.17,0,0,1,4.15-4.15,3.9,3.9,0,0,1,2.9,1.22,4.05,4.05,0,0,1,1.19,2.93v32.51a2.41,2.41,0,0,0,1,2.32,2.74,2.74,0,0,0,.49.28c.3.15.5.26.61.33l.47.33a1.39,1.39,0,0,1,.42.47,2.33,2.33,0,0,1,.16.53l.22,1.21a3.79,3.79,0,0,1,.06.67,3.57,3.57,0,0,1-.55,1.88,2.59,2.59,0,0,1-2.05,1.21C780.13,350.54,779.71,350.56,779.27,350.56Z"/><path class="cls-24" d="M803,350.56a15.23,15.23,0,0,1-11.3-4.48q-4.46-4.49-4.45-12.11a18.93,18.93,0,0,1,1.24-6.91,15.22,15.22,0,0,1,3.32-5.31,15.56,15.56,0,0,1,4.72-3.29,13.33,13.33,0,0,1,5.48-1.19q6.13,0,9.56,3.93a15.1,15.1,0,0,1,3.71,10.45,4,4,0,0,1-1.5,3.21,5.36,5.36,0,0,1-3.7,1.38H795.91a.47.47,0,0,0-.33.16.38.38,0,0,0-.11.39,8.64,8.64,0,0,0,2.93,5.5,8.77,8.77,0,0,0,5.75,1.91,12.05,12.05,0,0,0,4.53-.88A3.35,3.35,0,0,1,810,343a4.1,4.1,0,0,1,.94.11,2.71,2.71,0,0,1,1.77,1.38,3.1,3.1,0,0,1,.39,1.49,2.64,2.64,0,0,1-.12.78,2.32,2.32,0,0,1-1.38,1.71A19.31,19.31,0,0,1,803,350.56Zm-7.68-20.24a.36.36,0,0,0,.11.28.36.36,0,0,0,.33.16h11.83a.55.55,0,0,0,.55-.55,7.64,7.64,0,0,0-1.65-4.78,5.53,5.53,0,0,0-4.37-1.69,6.43,6.43,0,0,0-4.37,1.66A6.58,6.58,0,0,0,795.36,330.32Z"/><polygon class="cls-74" points="560.58 960.17 545.4 955.14 572.76 865.01 592.72 848.17 560.58 960.17"/><polygon class="cls-75" points="503.99 960.17 519.17 955.14 492.28 875.83 473.36 867.51 503.99 960.17"/><path class="cls-44" d="M736,1097.74l9.11,33.08c25.28-7.67,28.51,10.31,28.51,10.31l-21-2.48-37.43,10c.6-13.11,21.35-17.17,21.35-17.17l-8.14-33.57,3.92-24.66,19.2-9"/><path class="cls-45" d="M732.84,980.44c-11.46,7.76-51.64,37.58-67.92,84.12,0,0-18.78,26.7-23.8,37.66,0,0-3.36,8.67,3,10.36,0,0-2.23,20,33.29-12.08,0,0,35.51-3.29,74.78-32.76,0,0,26.22-15.19,39.13-41.63C769.19,1018.8,751.11,1001.64,732.84,980.44Z"/><path class="cls-46" d="M789.29,930.87a24.54,24.54,0,0,0-10.8-5.85c-15.17,4.4-28.86,13.67-40.34,23.45-2.65,7.5-3.9,17.19-2.12,29.87,0,0-1.22.76-3.19,2.1,18.27,21.2,36.35,38.36,58.49,45.67,6.84-14-.44-29.18-6.93-48.9a30.74,30.74,0,0,0-3.07-6.35c-2.38-3.86-2.49-14.88,7.24-18.3a56.2,56.2,0,0,1-8.62-8.88c-3.07,3.72-7.36,6.41-15,5.15,7.6,1.26,11.89-1.43,15-5.15-.91-1.15-1.82-2.32-2.74-3.61.92,1.29,1.83,2.46,2.74,3.61C783.62,939.23,785.55,933.3,789.29,930.87Z"/><path class="cls-47" d="M762,924.66s-16.91,4.19-23.86,23.81c11.48-9.78,25.17-19.05,40.34-23.45A37.13,37.13,0,0,0,762,924.66Z"/><path class="cls-48" d="M823.1,945s-10.15-11.71-32-12.12a15.43,15.43,0,0,0-1.77-2c-3.74,2.43-5.67,8.36-9.34,12.81a56.2,56.2,0,0,0,8.62,8.88,8.93,8.93,0,0,1,4.5-3.88A98.59,98.59,0,0,1,823.1,945Z"/><line class="cls-76" x1="651.45" y1="1103.28" x2="662.98" y2="1090.61"/><path class="cls-50" d="M786.65,934.61a10,10,0,0,1-8.52,1s-5.56-6.88-13.57-5.23c0,0-8.82,1.6-9.58,13,0,0,.48,5.21,16,4.88,0,0,7.49-.39,10.58-4.12"/><path class="cls-77" d="M746.88,932.83S733.09,951,709.19,955.17c0,0,12.94,6.77,28.51-4.46"/><path class="cls-78" d="M752.2,1067.74s61.35-35.53,42.59-92.5a30.2,30.2,0,0,0-3.06-6.35c-3.1-5-8.39-16,1.34-20.21a98.59,98.59,0,0,1,30-3.67s-10.15-11.71-32-12.12c0,0-7.85-12.06-29-8.23,0,0-32.42,7.84-26,53.68,0,0-52,31.69-71.11,86.22,0,0-18.78,26.7-23.8,37.66,0,0-3.36,8.67,3,10.36,0,0-2.23,20,33.29-12.08C677.42,1100.5,712.93,1097.21,752.2,1067.74Z"/><path class="cls-76" d="M784.78,936.78a18.55,18.55,0,0,0-4.7,7.81l2.75,3.14"/><circle class="cls-24" cx="766.73" cy="939.35" r="5.38"/><path class="cls-79" d="M747.4,991.42s-2.16,4.09,3.6,16.74"/><path class="cls-79" d="M761.36,1004s.81,13.9,6.24,18.65"/><line class="cls-79" x1="687.2" y1="1055.58" x2="678.28" y2="1071.91"/><line class="cls-79" x1="703.27" y1="1059.56" x2="695.99" y2="1072.47"/><path class="cls-76" d="M682.61,1082.06s7.74,10.28,19.26-2.4c0,0,11.42,3.6,45-28.17"/><path class="cls-76" d="M728.9,1083.48l-.58,14.44,8.14,33.57s-18,2.87-19.34,14"/><path class="cls-76" d="M743.46,1077.09,736,1097.74l9.11,33.08s24.4-6.33,26.17,7"/><rect class="cls-80" x="726.99" y="1108.52" width="19.07" height="12.62" transform="translate(-210.76 172.51) rotate(-11.7)"/><line class="cls-81" x1="718.97" y1="1014.86" x2="705.98" y2="1028.75"/><line class="cls-81" x1="738.69" y1="1014" x2="725.15" y2="1026.63"/><path class="cls-12" d="M601.7,747.23c19.85,68.93-4.94,95.09-4.94,95.09a99.89,99.89,0,0,1-11.91,13.19"/><path class="cls-12" d="M584.85,855.51c-40,37-91.87,20.36-91.87,20.36-57.57-15.78-58.66-107.55-58.66-107.55"/><path class="cls-24" d="M266.42,1289.45a3,3,0,0,1-2.22-.92,3.06,3.06,0,0,1-.92-2.22V1265.2a3.06,3.06,0,0,1,.92-2.22,3,3,0,0,1,2.22-.92h5.93q9.9,0,9.9,6.76a6.76,6.76,0,0,1-1,3.57,5.35,5.35,0,0,1-2.61,2.32c-.08,0-.11,0-.11.11s0,.1.07.1a6.81,6.81,0,0,1,3.68,2.21,6.34,6.34,0,0,1,1.38,4.26,6.87,6.87,0,0,1-2.93,6,13.12,13.12,0,0,1-7.66,2Zm2.35-16.62a.32.32,0,0,0,.36.36H272a6.14,6.14,0,0,0,3.76-.94,3.14,3.14,0,0,0,1.23-2.64,2.85,2.85,0,0,0-1.21-2.56,6.88,6.88,0,0,0-3.71-.8h-2.89a.32.32,0,0,0-.36.36Zm0,12a.32.32,0,0,0,.36.36h3.43q5.79,0,5.79-4.15a3.16,3.16,0,0,0-1.45-2.89,8.23,8.23,0,0,0-4.34-.91h-3.43a.32.32,0,0,0-.36.36Z"/><path class="cls-24" d="M289.19,1297.87a5.44,5.44,0,0,1-.73,0,1.59,1.59,0,0,1-1.37-.79,2,2,0,0,1-.25-1.66c.24-1,1.12-1.67,2.63-1.88a4,4,0,0,0,3.18-3.11l.29-.87a.93.93,0,0,0,0-.68L286,1271.38a2,2,0,0,1-.14-.72,1.62,1.62,0,0,1,.36-1,1.69,1.69,0,0,1,1.51-.83,3.73,3.73,0,0,1,2.23.72,3.84,3.84,0,0,1,1.39,1.88l2.42,7q.11.28,1.7,5.78a.11.11,0,0,0,.12.07.13.13,0,0,0,.13-.07c.14-.63.39-1.58.72-2.87s.58-2.26.73-2.91l2.13-7.12a3.44,3.44,0,0,1,1.24-1.79,3.35,3.35,0,0,1,2.08-.7,1.73,1.73,0,0,1,1.52.79,1.67,1.67,0,0,1,.36,1.05,2,2,0,0,1-.11.61l-6.5,18.9a15.7,15.7,0,0,1-3.43,5.82A7.27,7.27,0,0,1,289.19,1297.87Z"/><path class="cls-24" d="M324.56,1290q-6.82,0-6.83-7.77v-8.86c0-.21-.09-.32-.29-.32h-.61a2,2,0,0,1-2-2,2.12,2.12,0,0,1,.58-1.5,2.08,2.08,0,0,1,1.41-.7l.83-.07a.35.35,0,0,0,.4-.33l.32-3a2.54,2.54,0,0,1,2.53-2.28,2.18,2.18,0,0,1,1.61.67,2.22,2.22,0,0,1,.67,1.61v2.92a.33.33,0,0,0,.36.37h2.6a2.07,2.07,0,0,1,1.5.61,2.14,2.14,0,0,1,0,3,2.08,2.08,0,0,1-1.5.62h-2.6a.32.32,0,0,0-.36.36v8.82q0,3.49,2.82,3.5h.1a3.22,3.22,0,0,1,1.52.36,1.62,1.62,0,0,1,.83,1.16,1.8,1.8,0,0,1,.08.5,2.2,2.2,0,0,1-.29,1.09,1.87,1.87,0,0,1-1.27.94A14.33,14.33,0,0,1,324.56,1290Z"/><path class="cls-24" d="M337.12,1288.65a2.71,2.71,0,0,1-4.61-1.91v-24.1a2.71,2.71,0,0,1,2.71-2.71,2.55,2.55,0,0,1,1.9.79,2.67,2.67,0,0,1,.77,1.92v4.73l-.18,3.51a.13.13,0,0,0,.09.14.15.15,0,0,0,.17,0,9.27,9.27,0,0,1,6.21-2.79q6.44,0,6.43,8.35v10.19a2.57,2.57,0,0,1-.79,1.91,2.74,2.74,0,0,1-3.87,0,2.57,2.57,0,0,1-.79-1.91v-9.54a6,6,0,0,0-.69-3.34,2.53,2.53,0,0,0-2.24-1,4.15,4.15,0,0,0-2,.49,10.22,10.22,0,0,0-2,1.61.79.79,0,0,0-.29.61v11.17A2.63,2.63,0,0,1,337.12,1288.65Z"/><path class="cls-24" d="M365.17,1290a10,10,0,0,1-7.38-2.93,10.72,10.72,0,0,1-2.91-7.91,12.43,12.43,0,0,1,.81-4.52A9.79,9.79,0,0,1,361,1269a8.61,8.61,0,0,1,3.57-.78,7.88,7.88,0,0,1,6.26,2.57,9.89,9.89,0,0,1,2.42,6.83,2.63,2.63,0,0,1-1,2.09,3.47,3.47,0,0,1-2.42.91h-9.29a.27.27,0,0,0-.21.11.24.24,0,0,0-.08.25,5.42,5.42,0,0,0,5.68,4.84,7.8,7.8,0,0,0,3-.58,2.26,2.26,0,0,1,.87-.18,3,3,0,0,1,.61.07,1.79,1.79,0,0,1,1.16.91,2,2,0,0,1,.25,1,1.79,1.79,0,0,1-.07.51,1.54,1.54,0,0,1-.9,1.12A12.74,12.74,0,0,1,365.17,1290Zm-5-13.23a.29.29,0,0,0,.07.18.25.25,0,0,0,.22.11h7.73a.38.38,0,0,0,.26-.11.36.36,0,0,0,.11-.25,5.06,5.06,0,0,0-1.09-3.13,3.62,3.62,0,0,0-2.85-1.1,4.2,4.2,0,0,0-2.86,1.08A4.3,4.3,0,0,0,360.15,1276.73Z"/><path class="cls-24" d="M393.61,1290q-6.83,0-6.83-7.77v-8.86c0-.21-.09-.32-.29-.32h-.61a1.92,1.92,0,0,1-1.41-.58,1.89,1.89,0,0,1-.58-1.41,2.2,2.2,0,0,1,2-2.2l.83-.07a.35.35,0,0,0,.4-.33l.32-3a2.53,2.53,0,0,1,.83-1.63,2.49,2.49,0,0,1,1.7-.65,2.29,2.29,0,0,1,2.28,2.28v2.92a.33.33,0,0,0,.36.37h2.6a2.07,2.07,0,0,1,1.5.61,2.14,2.14,0,0,1,0,3,2.08,2.08,0,0,1-1.5.62h-2.6a.32.32,0,0,0-.36.36v8.82q0,3.49,2.82,3.5h.11a3.18,3.18,0,0,1,1.51.36,1.62,1.62,0,0,1,.83,1.16,1.8,1.8,0,0,1,.08.5,2.2,2.2,0,0,1-.29,1.09,1.87,1.87,0,0,1-1.27.94A14.33,14.33,0,0,1,393.61,1290Z"/><path class="cls-24" d="M406.17,1288.65a2.56,2.56,0,0,1-1.9.8,2.73,2.73,0,0,1-2.71-2.71v-24.1a2.62,2.62,0,0,1,.8-1.92,2.59,2.59,0,0,1,1.91-.79,2.55,2.55,0,0,1,1.9.79,2.64,2.64,0,0,1,.78,1.92v4.73l-.19,3.51a.13.13,0,0,0,.1.14.14.14,0,0,0,.16,0,9.27,9.27,0,0,1,6.21-2.79q6.43,0,6.43,8.35v10.19a2.57,2.57,0,0,1-.79,1.91,2.74,2.74,0,0,1-3.87,0,2.57,2.57,0,0,1-.79-1.91v-9.54a6,6,0,0,0-.69-3.34,2.53,2.53,0,0,0-2.24-1,4.11,4.11,0,0,0-2,.49,10.24,10.24,0,0,0-2,1.61.78.78,0,0,0-.28.61v11.17A2.6,2.6,0,0,1,406.17,1288.65Z"/><path class="cls-24" d="M428,1265.38a3.35,3.35,0,0,1-2.34-.83,2.74,2.74,0,0,1-.92-2.13,2.68,2.68,0,0,1,.91-2.11,3.69,3.69,0,0,1,4.64,0,2.68,2.68,0,0,1,.92,2.11,2.74,2.74,0,0,1-.92,2.13A3.26,3.26,0,0,1,428,1265.38Zm1.86,23.27a2.56,2.56,0,0,1-1.9.8,2.62,2.62,0,0,1-1.92-.8,2.57,2.57,0,0,1-.79-1.91v-15.32a2.55,2.55,0,0,1,.79-1.9,2.63,2.63,0,0,1,1.92-.77,2.57,2.57,0,0,1,1.9.77,2.61,2.61,0,0,1,.77,1.9v15.32A2.63,2.63,0,0,1,429.84,1288.65Z"/><path class="cls-24" d="M441.07,1288.65a2.54,2.54,0,0,1-1.89.8,2.62,2.62,0,0,1-1.92-.8,2.57,2.57,0,0,1-.79-1.91V1271a2.22,2.22,0,0,1,2.2-2.2,2.36,2.36,0,0,1,1.64.63,2.4,2.4,0,0,1,.82,1.57l.14,1.37a.06.06,0,0,0,.07.07.11.11,0,0,0,.11-.07,9.16,9.16,0,0,1,2.68-3,5.43,5.43,0,0,1,3.18-1.09h.1a1.79,1.79,0,0,1,1.52.91,2.36,2.36,0,0,1,.4,1.33,2.6,2.6,0,0,1-.07.58,2.14,2.14,0,0,1-1,1.43,3.82,3.82,0,0,1-1.82.6,4.44,4.44,0,0,0-2.46,1,6.69,6.69,0,0,0-2,2.75,1.72,1.72,0,0,0-.14.68v9.29A2.6,2.6,0,0,1,441.07,1288.65Z"/><path class="cls-24" d="M459.52,1290a7.5,7.5,0,0,1-6.2-2.9q-2.29-2.88-2.29-7.94a11.72,11.72,0,0,1,2.58-7.9,7.85,7.85,0,0,1,6.13-3,6.55,6.55,0,0,1,2.69.51,9.09,9.09,0,0,1,2.29,1.52.14.14,0,0,0,.17,0,.08.08,0,0,0,.05-.12l-.18-2.89v-4.59a2.7,2.7,0,0,1,2.71-2.71,2.65,2.65,0,0,1,1.93.79,2.6,2.6,0,0,1,.82,1.92v24.61a2.12,2.12,0,0,1-.65,1.55,2.16,2.16,0,0,1-1.56.65h-.25a2.39,2.39,0,0,1-1.54-.54,2.24,2.24,0,0,1-.81-1.38l0-.18a.12.12,0,0,0-.09,0l-.09,0A8.14,8.14,0,0,1,459.52,1290Zm-1.79-6.11a3.62,3.62,0,0,0,3.18,1.62,4.61,4.61,0,0,0,3.63-1.84,1,1,0,0,0,.22-.65v-8.38a.71.71,0,0,0-.29-.58,5.38,5.38,0,0,0-3.54-1.34,3.68,3.68,0,0,0-3.07,1.7,7.81,7.81,0,0,0-1.23,4.66A8.66,8.66,0,0,0,457.73,1283.85Z"/><path class="cls-24" d="M491.71,1290a7.49,7.49,0,0,1-6.19-2.9q-2.29-2.88-2.3-7.94a11.68,11.68,0,0,1,2.59-7.9,7.83,7.83,0,0,1,6.12-3,6.52,6.52,0,0,1,2.69.51,9.14,9.14,0,0,1,2.3,1.52.12.12,0,0,0,.16,0c.06,0,.08-.07.05-.12l-.18-2.89v-4.59a2.71,2.71,0,0,1,2.71-2.71,2.67,2.67,0,0,1,1.94.79,2.59,2.59,0,0,1,.81,1.92v24.61a2.22,2.22,0,0,1-2.2,2.2H500a2.36,2.36,0,0,1-1.53-.54,2.21,2.21,0,0,1-.82-1.38l0-.18-.09,0a.12.12,0,0,0-.09,0A8.16,8.16,0,0,1,491.71,1290Zm-1.78-6.11a3.6,3.6,0,0,0,3.18,1.62,4.64,4.64,0,0,0,3.63-1.84,1.07,1.07,0,0,0,.21-.65v-8.38a.7.7,0,0,0-.28-.58,5.42,5.42,0,0,0-3.55-1.34,3.69,3.69,0,0,0-3.07,1.7,7.81,7.81,0,0,0-1.23,4.66A8.57,8.57,0,0,0,489.93,1283.85Z"/><path class="cls-24" d="M513.32,1290a5.92,5.92,0,0,1-4.44-1.74,6,6,0,0,1-1.7-4.41,5.8,5.8,0,0,1,2.76-5.11c1.85-1.22,4.78-2,8.8-2.51a.33.33,0,0,0,.33-.4,3.13,3.13,0,0,0-3.47-3.21,9.11,9.11,0,0,0-3.9,1,2.32,2.32,0,0,1-.94.21,2.05,2.05,0,0,1-.65-.1,1.92,1.92,0,0,1-1.2-.94,2.07,2.07,0,0,1-.28-1,1.63,1.63,0,0,1,.1-.57,1.85,1.85,0,0,1,1-1.23,15.36,15.36,0,0,1,6.86-1.74,7.44,7.44,0,0,1,5.95,2.33c1.34,1.56,2,3.83,2,6.81v9.91a2.09,2.09,0,0,1-.65,1.55,2.12,2.12,0,0,1-1.55.65h-.18a2.38,2.38,0,0,1-1.57-.56,2.43,2.43,0,0,1-.85-1.43v-.18l-.09,0a.12.12,0,0,0-.09,0A9.79,9.79,0,0,1,513.32,1290Zm1.77-4.23a5.47,5.47,0,0,0,3.76-1.81.82.82,0,0,0,.25-.61v-3.44a.35.35,0,0,0-.1-.25.31.31,0,0,0-.22-.07h0a12.16,12.16,0,0,0-4.89,1.44,2.83,2.83,0,0,0-1.47,2.39,2.13,2.13,0,0,0,.74,1.77A3.1,3.1,0,0,0,515.09,1285.73Z"/><path class="cls-24" d="M531.9,1297.87a5.44,5.44,0,0,1-.73,0,1.59,1.59,0,0,1-1.37-.79,2,2,0,0,1-.25-1.66c.24-1,1.12-1.67,2.63-1.88a4,4,0,0,0,3.18-3.11l.29-.87a.93.93,0,0,0,0-.68l-6.94-17.46a2,2,0,0,1-.15-.72,1.63,1.63,0,0,1,.37-1,1.69,1.69,0,0,1,1.51-.83,3.73,3.73,0,0,1,2.23.72,3.84,3.84,0,0,1,1.39,1.88l2.42,7q.1.28,1.7,5.78a.11.11,0,0,0,.12.07.13.13,0,0,0,.13-.07c.14-.63.38-1.58.72-2.87s.58-2.26.72-2.91l2.14-7.12a3.44,3.44,0,0,1,1.24-1.79,3.35,3.35,0,0,1,2.08-.7,1.73,1.73,0,0,1,1.52.79,1.67,1.67,0,0,1,.36,1.05,2,2,0,0,1-.11.61l-6.5,18.9a15.57,15.57,0,0,1-3.44,5.82A7.23,7.23,0,0,1,531.9,1297.87Z"/><path class="cls-24" d="M550.76,1296.82a1.42,1.42,0,0,1-1.23,0,1.54,1.54,0,0,1-.83-.9,1.67,1.67,0,0,1-.11-.54,1.74,1.74,0,0,1,.14-.66,1.84,1.84,0,0,1,.83-.93,5.14,5.14,0,0,0,3-4,.33.33,0,0,0-.1-.25.34.34,0,0,0-.26-.11,3.44,3.44,0,0,1-2.38-.87,3.25,3.25,0,0,1,0-4.68,3.67,3.67,0,0,1,2.5-.88,3.42,3.42,0,0,1,2.91,1.4,6.64,6.64,0,0,1,1,3.94,9,9,0,0,1-1.45,5.08A9.79,9.79,0,0,1,550.76,1296.82Z"/><path class="cls-24" d="M574.1,1288.73a2.46,2.46,0,0,1-4.19-1.74v-21.9a2.91,2.91,0,0,1,.88-2.14,2.94,2.94,0,0,1,2.15-.89,4.29,4.29,0,0,1,2.5.79,4.42,4.42,0,0,1,1.59,2.06l3.61,10q.15.43,1.63,5.2a.11.11,0,0,0,.12.07.14.14,0,0,0,.13-.07c.17-.53.43-1.38.79-2.55s.64-2,.83-2.65l3.55-10a4.3,4.3,0,0,1,1.59-2.06,4.18,4.18,0,0,1,2.45-.79,3,3,0,0,1,3,3V1287a2.46,2.46,0,0,1-2.48,2.49,2.47,2.47,0,0,1-1.77-.72,2.39,2.39,0,0,1-.74-1.77V1278c0-1.56.22-4.54.65-8.92,0,0,0-.08,0-.08s-.09,0-.09.08l-2.21,6.36-3.68,10a2.31,2.31,0,0,1-.83,1,2.29,2.29,0,0,1-1.29.4,2.25,2.25,0,0,1-1.28-.4,2.31,2.31,0,0,1-.83-1l-3.72-10-2.13-6.36s-.06-.08-.11-.08-.07,0-.07.08q.68,6.9.68,8.92v9A2.37,2.37,0,0,1,574.1,1288.73Z"/><path class="cls-24" d="M610.05,1290a10,10,0,0,1-7.39-2.93,10.72,10.72,0,0,1-2.91-7.91,12.43,12.43,0,0,1,.82-4.52,9.92,9.92,0,0,1,2.17-3.47,10.07,10.07,0,0,1,3.08-2.15,8.65,8.65,0,0,1,3.58-.78,7.85,7.85,0,0,1,6.25,2.57,9.84,9.84,0,0,1,2.42,6.83,2.62,2.62,0,0,1-1,2.09,3.49,3.49,0,0,1-2.42.91h-9.29a.31.31,0,0,0-.22.11.25.25,0,0,0-.07.25,5.42,5.42,0,0,0,5.67,4.84,7.85,7.85,0,0,0,3-.58,2.26,2.26,0,0,1,.87-.18,3,3,0,0,1,.61.07,1.82,1.82,0,0,1,1.16.91,2.12,2.12,0,0,1,.25,1,2.24,2.24,0,0,1-.07.51,1.55,1.55,0,0,1-.91,1.12A12.69,12.69,0,0,1,610.05,1290Zm-5-13.23a.24.24,0,0,0,.07.18.25.25,0,0,0,.22.11h7.73a.34.34,0,0,0,.25-.11.32.32,0,0,0,.11-.25,5,5,0,0,0-1.08-3.13,3.63,3.63,0,0,0-2.86-1.1,4.19,4.19,0,0,0-2.85,1.08A4.3,4.3,0,0,0,605,1276.73Z"/><path class="cls-24" d="M631.34,1290a9.73,9.73,0,0,1-7.29-2.91,10.89,10.89,0,0,1-2.83-7.93,11.37,11.37,0,0,1,1.48-5.86,9.78,9.78,0,0,1,3.87-3.79,10.9,10.9,0,0,1,5.23-1.27,8.78,8.78,0,0,1,4.23,1,1.78,1.78,0,0,1,.94,1.37,1.35,1.35,0,0,1,0,.33,2,2,0,0,1-.47,1.3,2.1,2.1,0,0,1-1.41.83,5.29,5.29,0,0,1-.54,0,3,3,0,0,1-1.2-.26,4.3,4.3,0,0,0-1.33-.21,4.69,4.69,0,0,0-3.81,1.77,8.25,8.25,0,0,0,0,9.34,4.55,4.55,0,0,0,3.7,1.75,5.61,5.61,0,0,0,2.28-.51,2.45,2.45,0,0,1,1-.25,3.44,3.44,0,0,1,.54,0,1.8,1.8,0,0,1,1.23.87,2.2,2.2,0,0,1,.36,1.19,2.35,2.35,0,0,1,0,.47,1.85,1.85,0,0,1-.94,1.33A10.22,10.22,0,0,1,631.34,1290Z"/><path class="cls-24" d="M646.6,1288.65a2.56,2.56,0,0,1-1.9.8,2.61,2.61,0,0,1-1.91-.8,2.58,2.58,0,0,1-.8-1.91v-24.1a2.71,2.71,0,0,1,2.71-2.71,2.55,2.55,0,0,1,1.9.79,2.64,2.64,0,0,1,.78,1.92v4.73l-.18,3.51a.13.13,0,0,0,.09.14.14.14,0,0,0,.16,0,9.29,9.29,0,0,1,6.22-2.79q6.42,0,6.43,8.35v10.19a2.58,2.58,0,0,1-.8,1.91,2.73,2.73,0,0,1-3.86,0,2.58,2.58,0,0,1-.8-1.91v-9.54a6,6,0,0,0-.69-3.34,2.52,2.52,0,0,0-2.24-1,4.14,4.14,0,0,0-2,.49,10.22,10.22,0,0,0-2,1.61.76.76,0,0,0-.29.61v11.17A2.6,2.6,0,0,1,646.6,1288.65Z"/><path class="cls-24" d="M670.76,1290a5.94,5.94,0,0,1-4.45-1.74,6,6,0,0,1-1.7-4.41,5.8,5.8,0,0,1,2.77-5.11c1.84-1.22,4.77-2,8.8-2.51a.32.32,0,0,0,.32-.4,3.13,3.13,0,0,0-3.47-3.21,9.11,9.11,0,0,0-3.9,1,2.29,2.29,0,0,1-.94.21,2.1,2.1,0,0,1-.65-.1,1.88,1.88,0,0,1-1.19-.94,2.08,2.08,0,0,1-.29-1,1.65,1.65,0,0,1,.11-.57,1.83,1.83,0,0,1,1-1.23,15.4,15.4,0,0,1,6.87-1.74,7.41,7.41,0,0,1,5.94,2.33q2,2.34,2,6.81v9.91a2.12,2.12,0,0,1-.65,1.55,2.15,2.15,0,0,1-1.56.65h-.18a2.4,2.4,0,0,1-1.57-.56,2.48,2.48,0,0,1-.85-1.43v-.18a.12.12,0,0,0-.09,0l-.09,0A9.79,9.79,0,0,1,670.76,1290Zm1.77-4.23a5.46,5.46,0,0,0,3.75-1.81.83.83,0,0,0,.26-.61v-3.44a.36.36,0,0,0-.11-.25.29.29,0,0,0-.22-.07h0a12.27,12.27,0,0,0-4.9,1.44,2.84,2.84,0,0,0-1.46,2.39,2.1,2.1,0,0,0,.74,1.77A3.08,3.08,0,0,0,672.53,1285.73Z"/><path class="cls-24" d="M701.83,1290a12.44,12.44,0,0,1-6.18-1.74,1.67,1.67,0,0,1-.86-1.3,1.35,1.35,0,0,1,0-.33,2.14,2.14,0,0,1,1.81-2.09H697a2.37,2.37,0,0,1,1.2.32,7.76,7.76,0,0,0,3.83,1.09,3.58,3.58,0,0,0,2.24-.6,2,2,0,0,0,.76-1.61,1.42,1.42,0,0,0-.24-.77,2.57,2.57,0,0,0-.52-.63,4.87,4.87,0,0,0-.91-.57c-.41-.2-.74-.36-1-.47l-1.19-.48a3.38,3.38,0,0,1-.47-.18,18,18,0,0,1-2-.89,10.79,10.79,0,0,1-1.77-1.17,4.9,4.9,0,0,1-1.4-1.74,5.14,5.14,0,0,1-.48-2.24,5.7,5.7,0,0,1,2.11-4.59,8.41,8.41,0,0,1,5.58-1.77,10.68,10.68,0,0,1,5.35,1.45,1.52,1.52,0,0,1,.87,1.23,2.19,2.19,0,0,1,0,.36,1.82,1.82,0,0,1-.39,1.15,2.09,2.09,0,0,1-1.38.84,3.38,3.38,0,0,1-.47,0,2.61,2.61,0,0,1-1.12-.25,6.16,6.16,0,0,0-2.74-.72,3.25,3.25,0,0,0-2,.54,1.75,1.75,0,0,0-.68,1.44,2.26,2.26,0,0,0,0,.47,1.06,1.06,0,0,0,.22.42l.31.36a1.3,1.3,0,0,0,.45.32l.5.28a6.38,6.38,0,0,0,.62.27l.63.25.7.27c.33.12.56.21.71.25l1.68.69a10.73,10.73,0,0,1,1.52.85,6.36,6.36,0,0,1,1.35,1.16,5.17,5.17,0,0,1,.87,1.51,5.62,5.62,0,0,1,.36,2.05,5.87,5.87,0,0,1-2.17,4.69A9.08,9.08,0,0,1,701.83,1290Z"/><path class="cls-24" d="M726.6,1289.21a9.78,9.78,0,0,1-7.51,0,9.77,9.77,0,0,1-3.17-2.09,10,10,0,0,1-2.2-3.43,13.05,13.05,0,0,1,0-9.16,10,10,0,0,1,2.2-3.47,9.77,9.77,0,0,1,13.84,0,10,10,0,0,1,2.21,3.47,13.05,13.05,0,0,1,0,9.16,10.05,10.05,0,0,1-2.21,3.43A9.73,9.73,0,0,1,726.6,1289.21Zm-7-5.42a3.9,3.9,0,0,0,6.47,0,8.25,8.25,0,0,0,1.15-4.67,8.48,8.48,0,0,0-1.15-4.72,3.87,3.87,0,0,0-6.47,0,8.47,8.47,0,0,0-1.16,4.72A8.25,8.25,0,0,0,719.61,1283.79Z"/><path class="cls-24" d="M742.45,1290a4.55,4.55,0,0,1-3.91-1.63,7.89,7.89,0,0,1-1.19-4.7v-21a2.62,2.62,0,0,1,.8-1.92,2.59,2.59,0,0,1,1.91-.79,2.55,2.55,0,0,1,1.9.79,2.63,2.63,0,0,1,.77,1.92v21.24a1.57,1.57,0,0,0,.66,1.52,1.26,1.26,0,0,0,.32.18c.19.1.33.17.4.22l.31.22a.76.76,0,0,1,.27.3,2,2,0,0,1,.1.35l.15.79a3.27,3.27,0,0,1,0,.44,2.26,2.26,0,0,1-.37,1.22,1.65,1.65,0,0,1-1.33.8C743,1289.94,742.73,1290,742.45,1290Z"/><path class="cls-24" d="M759.34,1288.62a4.25,4.25,0,0,1-2.55.83,4.35,4.35,0,0,1-2.56-.81,4.06,4.06,0,0,1-1.59-2.15l-5.17-15.18a2.11,2.11,0,0,1-.11-.65,2,2,0,0,1,.36-1.12,1.87,1.87,0,0,1,1.59-.79,3.65,3.65,0,0,1,2.21.72,3.46,3.46,0,0,1,1.3,1.88l2.27,7.69c.19.8.5,2,.91,3.45s.65,2.43.72,2.77c0,0,.06.07.13.07a.12.12,0,0,0,.12-.07q.43-1.85,1.63-6.22l2.31-7.8a3.43,3.43,0,0,1,3.32-2.49,1.88,1.88,0,0,1,1.56.75,1.85,1.85,0,0,1,.36,1.09,2,2,0,0,1-.11.61L761,1286.45A4.53,4.53,0,0,1,759.34,1288.62Z"/><path class="cls-24" d="M779,1290a10,10,0,0,1-7.39-2.93,10.72,10.72,0,0,1-2.91-7.91,12.43,12.43,0,0,1,.81-4.52,9.79,9.79,0,0,1,5.26-5.62,8.65,8.65,0,0,1,3.58-.78,7.88,7.88,0,0,1,6.25,2.57,9.89,9.89,0,0,1,2.42,6.83,2.63,2.63,0,0,1-1,2.09,3.47,3.47,0,0,1-2.42.91h-9.28a.28.28,0,0,0-.22.11.23.23,0,0,0-.07.25,5.66,5.66,0,0,0,1.91,3.59,5.74,5.74,0,0,0,3.76,1.25,7.8,7.8,0,0,0,3-.58,2.26,2.26,0,0,1,.87-.18,2.92,2.92,0,0,1,.61.07,1.79,1.79,0,0,1,1.16.91,2,2,0,0,1,.25,1,1.79,1.79,0,0,1-.07.51,1.54,1.54,0,0,1-.9,1.12A12.69,12.69,0,0,1,779,1290Zm-5-13.23a.25.25,0,0,0,.08.18.24.24,0,0,0,.21.11H782a.38.38,0,0,0,.36-.36,5.06,5.06,0,0,0-1.09-3.13,3.62,3.62,0,0,0-2.85-1.1,4.2,4.2,0,0,0-2.86,1.08A4.3,4.3,0,0,0,774,1276.73Z"/><path class="cls-24" d="M798.74,1290a7.47,7.47,0,0,1-6.19-2.9c-1.54-1.92-2.3-4.57-2.3-7.94a11.72,11.72,0,0,1,2.58-7.9,7.86,7.86,0,0,1,6.13-3,6.55,6.55,0,0,1,2.69.51,9.32,9.32,0,0,1,2.3,1.52.12.12,0,0,0,.16,0c.06,0,.08-.07,0-.12l-.18-2.89v-4.59a2.62,2.62,0,0,1,.8-1.92,2.59,2.59,0,0,1,1.91-.79,2.65,2.65,0,0,1,1.93.79,2.56,2.56,0,0,1,.82,1.92v24.61a2.12,2.12,0,0,1-.65,1.55,2.15,2.15,0,0,1-1.56.65H807a2.39,2.39,0,0,1-1.54-.54,2.24,2.24,0,0,1-.81-1.38l0-.18-.09,0a.17.17,0,0,0-.1,0A8.12,8.12,0,0,1,798.74,1290Zm-1.79-6.11a3.62,3.62,0,0,0,3.18,1.62,4.61,4.61,0,0,0,3.63-1.84,1,1,0,0,0,.22-.65v-8.38a.71.71,0,0,0-.29-.58,5.38,5.38,0,0,0-3.54-1.34,3.68,3.68,0,0,0-3.07,1.7,7.81,7.81,0,0,0-1.23,4.66A8.66,8.66,0,0,0,797,1283.85Z"/><path class="cls-4" d="M303.94,1105s-26.75,1.51-83.83-7.54c0,0,33.89,43.73,46.38,52.77,0,0-33.89,31.67-62.43,43.73,0,0,67.55,21.92,144.36,21.92"/><path class="cls-82" d="M328.88,1115.12s-36.75,8-93.83-1c0,0,18.95,27.08,31.44,36.12,0,0-33.89,31.67-62.43,43.73,0,0,67.55,21.92,144.36,21.92"/><polyline class="cls-83" points="301.15 1173.87 348.42 1215.87 348.42 1160.7"/><path class="cls-4" d="M776.06,1105s26.75,1.51,83.83-7.54c0,0-33.89,43.73-46.38,52.77,0,0,33.89,31.67,62.43,43.73,0,0-67.55,21.92-144.36,21.92"/><path class="cls-82" d="M774.55,1116.14s21.42,7.14,69.35-3.06c0,0-17.9,28.1-30.39,37.14,0,0,33.89,31.67,62.43,43.73,0,0-67.55,21.92-144.36,21.92"/><path class="cls-84" d="M303.94,1105s-26.75,1.51-83.83-7.54c0,0,33.89,43.73,46.38,52.77,0,0-33.89,31.67-62.43,43.73,0,0,67.55,21.92,144.36,21.92"/><path class="cls-84" d="M776.06,1105s26.75,1.51,83.83-7.54c0,0-33.89,43.73-46.38,52.77,0,0,33.89,31.67,62.43,43.73,0,0-67.55,21.92-144.36,21.92"/><polyline class="cls-83" points="778.85 1173.87 731.58 1215.87 731.58 1160.7"/><path class="cls-4" d="M778.85,1070s-88.56-33.31-234.15-33.47h-.92c-145.59.16-242.63,33.47-242.63,33.47v103.83c21.21-6.75,46.18-12.32,71.84-16.9a954.15,954.15,0,0,1,334,0c25.66,4.58,50.63,10.15,71.84,16.9Z"/><path class="cls-82" d="M755.26,1094.92s-65.33-35.07-210.56-44.15h-.92c-145.59.14-230.37,26.68-230.37,26.68v92.8c21.21-6,33.92-7.78,59.58-11.87a1065.52,1065.52,0,0,1,334,0c25.66,4.09,27,5.85,48.25,11.87Z"/><path class="cls-84" d="M778.85,1070s-88.56-33.31-234.15-33.47h-.92c-145.59.16-242.63,33.47-242.63,33.47v103.83c21.21-6.75,46.18-12.32,71.84-16.9a954.15,954.15,0,0,1,334,0c25.66,4.58,50.63,10.15,71.84,16.9Z"/><polygon class="cls-85" points="725.46 1079.21 731.16 1097.84 749.75 1103.7 733.79 1114.88 733.97 1134.36 718.4 1122.65 699.92 1128.83 706.25 1110.41 694.67 1094.75 714.14 1095.08 725.46 1079.21"/><polygon class="cls-86" points="722.01 1090.89 725.7 1102.95 737.74 1106.75 727.41 1113.99 727.52 1126.6 717.44 1119.02 705.48 1123.02 709.58 1111.09 702.07 1100.95 714.68 1101.16 722.01 1090.89"/><polygon class="cls-85" points="354.54 1079.21 348.83 1097.84 330.25 1103.7 346.21 1114.88 346.03 1134.36 361.6 1122.65 380.07 1128.83 373.75 1110.41 385.33 1094.75 365.86 1095.08 354.54 1079.21"/><polygon class="cls-86" points="357.99 1090.89 354.3 1102.95 342.26 1106.75 352.59 1113.99 352.48 1126.6 362.56 1119.02 374.52 1123.02 370.43 1111.09 377.93 1100.95 365.32 1101.16 357.99 1090.89"/><path class="cls-4" d="M449.12,1102.21a6.19,6.19,0,0,1,3.34-1.72l.29,0a5.58,5.58,0,0,1,3.44.74,3,3,0,0,1,1.5,2.37,3,3,0,0,1-1.1,2.84c-2.42,1.88-4.6,3.47-6.54,4.79a.48.48,0,0,0-.17.37.33.33,0,0,0,.19.33,26.14,26.14,0,0,0,8.58,4.54,3.35,3.35,0,0,1,2.23,2,4.71,4.71,0,0,1,.22,1,3.43,3.43,0,0,1-.42,2,6.82,6.82,0,0,1-2.87,2.79,5.36,5.36,0,0,1-1.66.48,5,5,0,0,1-2.21-.29,29.5,29.5,0,0,1-12-8,49.17,49.17,0,0,1-8.44-14,.37.37,0,0,0-.26-.21.41.41,0,0,0-.34.1,60.3,60.3,0,0,1-5.76,5.53,1.09,1.09,0,0,0-.42,1l1,8.68a.46.46,0,0,0,.22.35.44.44,0,0,0,.42,0l7.41-2.3a7.51,7.51,0,0,1,.75-.14,3.63,3.63,0,0,1,2.17.47,3.56,3.56,0,0,1,1.68,2.35c0,.15,0,.31.05.46a4.42,4.42,0,0,1-.54,2.66,4.34,4.34,0,0,1-2.43,2q-7.11,2.37-18.56,5.94a3.74,3.74,0,0,1-.92.22,4.4,4.4,0,0,1-2.46-.44,4.3,4.3,0,0,1-2.39-2.38,4,4,0,0,1-.3-1.15,3.7,3.7,0,0,1,0-.94,3.33,3.33,0,0,1,.86-1.78,4.17,4.17,0,0,1,1.76-1.17c1.53-.4,2.62-.7,3.26-.89a.65.65,0,0,0,.51-.76l-.61-5.48a.4.4,0,0,0-.21-.33.3.3,0,0,0-.35,0c-1.22.73-2.46,1.39-3.73,2a5.38,5.38,0,0,1-1.88.56,6.42,6.42,0,0,1-1.84-.09,6.5,6.5,0,0,1-3.34-1.93,2.86,2.86,0,0,1-.83-1.68,3.7,3.7,0,0,1,0-.94,2.71,2.71,0,0,1,1.65-2.13,64,64,0,0,0,13.46-7.86.14.14,0,0,0,.07-.18.13.13,0,0,0-.16-.1L409,1103.4a3.54,3.54,0,0,1-2.7-.76,3.48,3.48,0,0,1-1.37-2.44,3.71,3.71,0,0,1,3.27-4.08l18-2a.51.51,0,0,0,.52-.64l-.11-1a.52.52,0,0,0-.65-.52l-13.22,1.46a3.41,3.41,0,0,1-3.81-3,3.26,3.26,0,0,1,.73-2.49,3.35,3.35,0,0,1,2.34-1.27l13.22-1.46a.52.52,0,0,0,.52-.64l-.1-.88a.52.52,0,0,0-.65-.52l-15.78,1.75a3.71,3.71,0,0,1-4.08-3.26,3.46,3.46,0,0,1,.8-2.68,3.58,3.58,0,0,1,2.47-1.34l16-1.77a.31.31,0,0,0,.31-.39,3.11,3.11,0,0,1,2.75-3.43l2.62-.29a3,3,0,0,1,2.28.66,3,3,0,0,1,1.14,2.09.32.32,0,0,0,.39.31L450.6,1073a3.52,3.52,0,0,1,2.65.76,3.49,3.49,0,0,1,1.36,2.45,3.56,3.56,0,0,1-.79,2.71,3.51,3.51,0,0,1-2.42,1.36L435,1082.08a.52.52,0,0,0-.52.65l.1.87a.52.52,0,0,0,.65.52l14.32-1.58a3.24,3.24,0,0,1,2.5.72,3.28,3.28,0,0,1,1.25,2.28,3.25,3.25,0,0,1-.72,2.5,3.28,3.28,0,0,1-2.28,1.25L436,1090.88a.51.51,0,0,0-.51.64l.11,1a.51.51,0,0,0,.64.52l18.17-2a3.71,3.71,0,0,1,4.08,3.26,3.49,3.49,0,0,1-.8,2.69,3.61,3.61,0,0,1-2.47,1.33l-13.4,1.48a.5.5,0,0,0-.36.22.35.35,0,0,0,0,.41,32.24,32.24,0,0,0,2.95,5.33c.23.33.49.36.77.09Q447.15,1104.15,449.12,1102.21Z"/><path class="cls-4" d="M495.2,1103.13a3.76,3.76,0,0,1,.93-.15,3.52,3.52,0,0,1,1.83.47,3.44,3.44,0,0,1,1.6,2.36,3.9,3.9,0,0,1,.07.64,4.1,4.1,0,0,1-.63,2.37,4.24,4.24,0,0,1-2.4,1.94q-4.65,1.56-14.28,4.66a4.67,4.67,0,0,1-1.23.21,4.22,4.22,0,0,1-2-.47,3.86,3.86,0,0,1-2-2.52,3.17,3.17,0,0,1-.21-1.05,3.8,3.8,0,0,1,.58-2.12,4,4,0,0,1,2.52-2c.35-.08.92-.24,1.72-.46l1.83-.52a.66.66,0,0,0,.56-.72l-.28-9.43a.53.53,0,0,0-.61-.57l-1.7,0a4,4,0,0,1-4.1-3.86,3.86,3.86,0,0,1,1.09-2.85,3.82,3.82,0,0,1,2.77-1.25l1.7-.05a.53.53,0,0,0,.57-.61l-.24-8a.53.53,0,0,0-.61-.57l-2.11.06a3.78,3.78,0,0,1-2.84-1.08,4,4,0,0,1-.17-5.68,3.79,3.79,0,0,1,2.77-1.26l13.35-.4a4,4,0,0,1,4.11,3.89,3.86,3.86,0,0,1-1.09,2.87,3.79,3.79,0,0,1-2.77,1.26l-1.7,0a.52.52,0,0,0-.57.6l.24,8a.53.53,0,0,0,.61.57l1.05,0a3.81,3.81,0,0,1,2.85,1.08,3.85,3.85,0,0,1,1.25,2.78,4,4,0,0,1-3.86,4.1l-1.05,0a.52.52,0,0,0-.57.61l.22,7.2a.44.44,0,0,0,.19.37.43.43,0,0,0,.41.08C493.69,1103.56,494.42,1103.35,495.2,1103.13Zm30,12.34,1.23,0c.31,0,.54-.21.69-.61a9.71,9.71,0,0,0,.28-2.35,2.33,2.33,0,0,1,1.23-2,2.61,2.61,0,0,1,1.28-.39,2.69,2.69,0,0,1,1.06.2,5.78,5.78,0,0,1,2.7,2,4.13,4.13,0,0,1,.83,2.32,2.09,2.09,0,0,1-.1.76c-.38,2.71-1.1,4.61-2.14,5.7a6.4,6.4,0,0,1-4.61,1.72l-3.86.12c-3,.09-5-.53-6.1-1.84s-1.63-3.79-1.74-7.42l-.32-10.31a.52.52,0,0,0-.6-.57l-1.23,0a.58.58,0,0,0-.63.6,41.77,41.77,0,0,1-.81,6.1,21.09,21.09,0,0,1-1.89,5.12,15.16,15.16,0,0,1-3.71,4.57,25.91,25.91,0,0,1-5.89,3.64,3.88,3.88,0,0,1-3.35,0,6.29,6.29,0,0,1-2.88-2.26,2.82,2.82,0,0,1-.57-1.62,2.75,2.75,0,0,1,.14-1,2.82,2.82,0,0,1,1.76-2,18.94,18.94,0,0,0,4.29-2.36,9,9,0,0,0,2.58-3,14.19,14.19,0,0,0,1.28-3.26,24,24,0,0,0,.56-3.94c0-.28-.09-.41-.37-.4a3.5,3.5,0,0,1-3.62-3.41l-.77-25.65a5.09,5.09,0,0,1,4.94-5.25l20-.61a5.11,5.11,0,0,1,5.25,4.94l.73,24.07a5.11,5.11,0,0,1-4.94,5.25l-1.29,0a.52.52,0,0,0-.57.61l.31,10.24a7.45,7.45,0,0,0,.17,1.76C524.54,1115.37,524.78,1115.48,525.17,1115.47Zm-16.5-39.72a.53.53,0,0,0-.57.61l0,1.23a.52.52,0,0,0,.6.57l12.36-.38a.52.52,0,0,0,.57-.6l0-1.23a.52.52,0,0,0-.6-.57Zm.27,8.91a.52.52,0,0,0-.57.6l0,1.23a.52.52,0,0,0,.6.57l12.36-.38a.52.52,0,0,0,.57-.6l0-1.23a.52.52,0,0,0-.6-.57Zm.27,8.9a.52.52,0,0,0-.57.6l0,1.17a.52.52,0,0,0,.6.57l12.36-.37a.52.52,0,0,0,.57-.61l0-1.17a.52.52,0,0,0-.6-.57Z"/><path class="cls-4" d="M559.26,1070.39a4.15,4.15,0,0,1,2.21-2.38,3.82,3.82,0,0,1,1.95-.45,4.39,4.39,0,0,1,1.22.22,4.05,4.05,0,0,1,2.78,3.93,4.2,4.2,0,0,1-.29,1.33c-1,2.46-2.1,4.81-3.2,7a2.63,2.63,0,0,0-.28,1.1l-1.5,38.18a4.13,4.13,0,0,1-8.26-.33l.93-23.53s0-.08-.09-.12-.1,0-.14.05a2,2,0,0,1-1.56.7l-.41,0a2,2,0,0,1-1.58-1.41c-.18-.51-.37-1-.59-1.54a9.13,9.13,0,0,1-.56-3.54,7.3,7.3,0,0,1,.09-.94,9.26,9.26,0,0,1,1.69-4.16A68.31,68.31,0,0,0,559.26,1070.39Zm36.3,37.25a2.2,2.2,0,0,1,.71-.09,3,3,0,0,1,1.62.54l1.44.81a2.59,2.59,0,0,1,1.25,2.34,2.45,2.45,0,0,1-.58,1.5,26.79,26.79,0,0,1-5,4,.16.16,0,0,0-.09.2.28.28,0,0,0,.19.22c2,.35,4.32.67,6.88,1a2,2,0,0,1,1.77,1.3,3.3,3.3,0,0,1,.14,1,2.39,2.39,0,0,1-.4,1.22,7.32,7.32,0,0,1-2.79,2.41,5.72,5.72,0,0,1-2.73.6,5.44,5.44,0,0,1-.75-.09A62.42,62.42,0,0,1,585,1121.3a1.64,1.64,0,0,0-1,0,86.36,86.36,0,0,1-12.35,2.39,7.67,7.67,0,0,1-.83,0,5.17,5.17,0,0,1-2.2-.61,6.2,6.2,0,0,1-2.31-2.32,2.49,2.49,0,0,1-.33-1.42,1.91,1.91,0,0,1,.61-1.24,2.21,2.21,0,0,1,1.31-.62q4.3-.36,7.66-.93a.19.19,0,0,0,.21-.17.3.3,0,0,0-.07-.29,17.58,17.58,0,0,1-2-1.66.74.74,0,0,0-.87-.16l-.9.38a5,5,0,0,1-1.65.23,3.71,3.71,0,0,1-1.28-.29,5.46,5.46,0,0,1-2.45-1.74,2,2,0,0,1-.47-1.42,2.2,2.2,0,0,1,.08-.53,1.85,1.85,0,0,1,1.4-1.41,32.63,32.63,0,0,0,10.33-4.58c.28-.22.29-.47,0-.76a3.68,3.68,0,0,1-.87-1.85.27.27,0,0,0-.23-.21.18.18,0,0,0-.23.08c-.78.86-1.56,1.67-2.33,2.43a3.36,3.36,0,0,1-2.5.89h-.05a4,4,0,0,1-2.49-1l0-.07a2.19,2.19,0,0,1-.75-1.78,2.81,2.81,0,0,1,1-2.08.12.12,0,0,0,0-.14c0-.06,0-.09-.08-.09h-.12a3.66,3.66,0,0,1-2.65-1.21,3.72,3.72,0,0,1-1-2.74l0-.59a4.32,4.32,0,0,1,1.41-3.11,4.23,4.23,0,0,1,3.15-1.16h.29a.47.47,0,0,0,.55-.51l.36-9.19a5.13,5.13,0,0,1,5.3-4.9l4,.16a.63.63,0,0,0,.72-.5l.13-.4a.42.42,0,0,0-.07-.42.47.47,0,0,0-.37-.19l-9.31-.36a3,3,0,0,1-2.13-1,2.92,2.92,0,0,1-.8-2.17,3,3,0,0,1,1-2.13,2.87,2.87,0,0,1,2.2-.82l30.68,1.2a3,3,0,0,1,2.1,1,3,3,0,0,1,.82,2.21,2.84,2.84,0,0,1-1,2.1,3,3,0,0,1-2.17.79l-11.3-.44a.83.83,0,0,0-.84.49l-.25.46a.33.33,0,0,0,0,.38.42.42,0,0,0,.35.16l6.67.27a4.84,4.84,0,0,1,3.57,1.63,5,5,0,0,1,1.33,3.66l-.37,9.25c0,.31.16.47.51.49a4.08,4.08,0,0,1,3,1.38,4.18,4.18,0,0,1,1.13,3.12l0,1.17a3.21,3.21,0,0,1-1.06,2.33,3.25,3.25,0,0,1-2.41.88s-.08,0-.12.11,0,.13,0,.17a.44.44,0,0,1,.17.19,2.35,2.35,0,0,1,.53,1.54,2,2,0,0,1-.15.64,2.65,2.65,0,0,1-1.47,1.76,3.54,3.54,0,0,1-1.54.29,3.76,3.76,0,0,1-.93-.15,3.86,3.86,0,0,1-2-1.49q-.39-.6-.84-1.2a.26.26,0,0,0-.25-.16.46.46,0,0,0-.28.2,3.71,3.71,0,0,1-2,2.12,8.93,8.93,0,0,1-3.71.47l-3.22-.13a1.38,1.38,0,0,0-1,.37,3.33,3.33,0,0,1-.55.51s-.05.1,0,.2a.2.2,0,0,0,.2.16l9.78.38Zm-22.69-10.51a.27.27,0,0,1,.42,0l3.38,2c.15.05.23,0,.23-.11a2,2,0,0,1,.62-1.38,1.8,1.8,0,0,1,1.4-.53l3.8.15a.14.14,0,0,0,.15-.08.16.16,0,0,0,0-.15,1,1,0,0,0-.69-.32l-8.84-.35a.36.36,0,0,0-.43.39Zm6.48-6.72a.52.52,0,0,0-.61.56v.3a.51.51,0,0,0,.57.6l13.58.54a.52.52,0,0,0,.61-.56v-.3a.52.52,0,0,0-.56-.61Zm13.72-2.74a.52.52,0,0,0,.6-.57v-.29a.52.52,0,0,0-.56-.61l-13.58-.53a.52.52,0,0,0-.61.56v.29a.51.51,0,0,0,.56.61Zm.79-5.43a.52.52,0,0,0-.56-.61l-13.58-.53a.52.52,0,0,0-.61.56v.18a.52.52,0,0,0,.57.61l13.58.53a.52.52,0,0,0,.61-.56Zm-4.35,30.21a.34.34,0,0,0,0-.24.15.15,0,0,0-.14-.12l-8.37-.33a.16.16,0,0,0-.16.11.26.26,0,0,0,.08.24,23.87,23.87,0,0,0,3.68,2,1.39,1.39,0,0,0,1.06,0A36.18,36.18,0,0,0,589.51,1112.45Zm-5.43-14.11c0-.08-.11-.1-.23-.07a.22.22,0,0,0-.18.23l-.06,1.52c0,.62.06,1,.27,1.18a2.63,2.63,0,0,0,1.37.29l.7,0a.28.28,0,0,0,.27-.17.22.22,0,0,0,0-.29A18.11,18.11,0,0,0,584.08,1098.34Zm3.4,3a.14.14,0,0,0,0,.15.13.13,0,0,0,.14.09l1.82.07a1.53,1.53,0,0,0,1.12-.3,1.77,1.77,0,0,1,1.38-.77,1,1,0,0,1,.35.07c.66.26,1.41.53,2.26.79a.14.14,0,0,0,.06-.11,1.17,1.17,0,0,1-.31-1.1,1.28,1.28,0,0,1,.68-.88l3.28-1.45a.39.39,0,0,0,.19-.35.2.2,0,0,0-.22-.24l-7.44-.29a.12.12,0,0,0-.15.08.14.14,0,0,0,0,.15,1.76,1.76,0,0,1,.32,1.59,2.07,2.07,0,0,1-1.08,1.31Z"/><path class="cls-4" d="M675.45,1114.91a3.72,3.72,0,0,1-3.27,6l-8.68-.93c-.08,0-.12,0-.13.08s0,.09,0,.09c2.81,1.32,5.47,2.65,8,4a2.6,2.6,0,0,1,1.52,2.34l-.06.53a2.65,2.65,0,0,1-1.27,2,7.4,7.4,0,0,1-4,1.23l-.93-.1a7.63,7.63,0,0,1-3.13-1q-4.15-2.52-8.29-4.6a2.87,2.87,0,0,1-1.63-2.36,2.72,2.72,0,0,1,1.05-2.71c.08,0,.1-.1,0-.2s-.09-.16-.13-.17l-13.45-1.44c-.12,0-.19,0-.22.1a.24.24,0,0,0,.06.24l.33.27a3.11,3.11,0,0,1,1,2.76,2.87,2.87,0,0,1-2,2.62,71.76,71.76,0,0,1-10.62,2.81,5.74,5.74,0,0,1-1.65.06,6,6,0,0,1-1.89-.55,7.38,7.38,0,0,1-2.86-2.43,2.48,2.48,0,0,1-.47-1.7,2.89,2.89,0,0,1,.2-.75,2.51,2.51,0,0,1,1.93-1.56,57.53,57.53,0,0,0,9.51-2.34.14.14,0,0,0,0-.14.11.11,0,0,0-.08-.1l-9.49-1a3.72,3.72,0,0,1-2-6.6,3.66,3.66,0,0,1,2.77-.8l9,1a.52.52,0,0,0,.65-.52l.21-2a.52.52,0,0,0-.52-.65l-5.3-.57a3.45,3.45,0,0,1-2.47-1.38,3.65,3.65,0,0,1-.8-2.74,3.57,3.57,0,0,1,1.36-2.48,3.53,3.53,0,0,1,2.71-.79l5.3.56a.52.52,0,0,0,.64-.52l.2-1.86a.52.52,0,0,0-.52-.65l-2.1-.22a4.92,4.92,0,0,1-3.42-1.84,4.86,4.86,0,0,1-1.1-3.77l1.36-12.76a5.1,5.1,0,0,1,5.62-4.53l33.15,3.55a5.1,5.1,0,0,1,4.52,5.61l-1.36,12.76a4.91,4.91,0,0,1-1.88,3.46,5,5,0,0,1-3.74,1.07l-2.21-.24a.52.52,0,0,0-.65.52l-.19,1.87a.51.51,0,0,0,.52.64l5.76.62a3.66,3.66,0,0,1,2.51,1.36,3.51,3.51,0,0,1,.83,2.71,3.81,3.81,0,0,1-4.13,3.33l-5.77-.62a.51.51,0,0,0-.64.52l-.22,2a.51.51,0,0,0,.52.64l9.32,1A3.55,3.55,0,0,1,675.45,1114.91ZM639,1087.52a.52.52,0,0,0-.65.52l-.11,1a.51.51,0,0,0,.52.64l7.57.82a.53.53,0,0,0,.65-.52l.11-1a.52.52,0,0,0-.52-.65Zm.86-8a.52.52,0,0,0-.65.52l-.1,1a.52.52,0,0,0,.52.65l7.57.81a.52.52,0,0,0,.65-.52l.1-1a.52.52,0,0,0-.52-.65Zm5.33,27.86a.52.52,0,0,0-.65.52l-.22,2a.52.52,0,0,0,.52.65l8.74.93a.52.52,0,0,0,.65-.51l.21-2a.52.52,0,0,0-.52-.65Zm1.11-10.43a.51.51,0,0,0-.64.52l-.2,1.86a.52.52,0,0,0,.52.65l8.74.93a.52.52,0,0,0,.64-.52l.2-1.86a.52.52,0,0,0-.52-.65Zm17.34-4.51a.51.51,0,0,0,.64-.52l.12-1.05a.53.53,0,0,0-.53-.65l-7.63-.81a.51.51,0,0,0-.64.52l-.11,1a.51.51,0,0,0,.52.64Zm.87-8.1a.52.52,0,0,0,.64-.52l.11-1a.53.53,0,0,0-.52-.65l-7.64-.81a.52.52,0,0,0-.64.52l-.11,1a.51.51,0,0,0,.52.64Z"/><circle class="cls-87" cx="532.32" cy="988.75" r="60.08"/><circle class="cls-88" cx="532.32" cy="988.75" r="46.79"/><rect class="cls-4" x="528.78" y="931.93" width="7.94" height="108.93" transform="translate(645.3 -129.01) rotate(34.14)"/><path class="cls-4" d="M571.32,952.16l-59.18,87.3,4.52,3.07,58.5-86.29A20.88,20.88,0,0,1,571.32,952.16Z"/><polygon class="cls-88" points="525 966.73 523.11 1000.39 495.12 993.96 503.06 963.7 509.49 955.76 520.08 956.89 525 966.73"/><polygon class="cls-88" points="552.61 956.51 561.31 961.05 570.01 995.85 540.13 998.12 537.48 966.73 542.02 958.03 552.61 956.51"/><circle class="cls-89" cx="508.53" cy="1000.99" r="15.92"/><path class="cls-90" d="M501.15,966.25a12.7,12.7,0,0,1,25.09,4"/><line class="cls-89" x1="526.24" y1="970.2" x2="524.25" y2="1003.47"/><line class="cls-89" x1="501.15" y1="966.25" x2="492.8" y2="998.51"/><circle class="cls-89" cx="555.55" cy="1000.99" r="15.92"/><path class="cls-90" d="M562.93,966.25a12.7,12.7,0,1,0-25.09,4"/><line class="cls-89" x1="537.84" y1="970.2" x2="539.82" y2="1003.47"/><line class="cls-89" x1="562.93" y1="966.25" x2="571.28" y2="998.51"/><path class="cls-90" d="M521.26,977.73s9.83-10.35,21.45,0"/></svg>