<svg id="圖層_1" data-name="圖層 1" xmlns="http://www.w3.org/2000/svg" viewBox="0 0 1080 616.71"><title>illustration-</title><rect width="1080" height="616.71" style="fill:#fff"/><ellipse cx="540" cy="300.48" rx="291.69" ry="226.72" style="fill:none;stroke:#e5efd0;stroke-miterlimit:10;stroke-width:5.909999847412109px"/><path d="M270.59,273.86l2.32-.37c.66-.25,1.32-.5,2-.73C272.61,273.33,270.3,273.91,270.59,273.86Z" style="fill:#f2ebe3"/><path d="M841.75,287.75c-.61-.34,2-37.3-20.48-38.74-122-11.95-183.68-18.82-264.83-15.95C510,234.7,454.18,231.88,407.75,235c-38.4,2.56-85.78,5.8-123.32,11.83-2.9,1.07-32.19,4.46-35.77,4.79C226.17,261.36,234.55,277.46,233,278c-34.28,11.17-46.83,57.22-15.7,70.76a33.32,33.32,0,0,0,4.67,1.32c.13,2,3.86,1.44,4.15,3.29-3.55,4-5.41,10.78-5.41,15.21a39.71,39.71,0,0,0,9.93,26.92c16,16.34,37.66,16.81,40.17,17.94-5.6,20.74,6.22,49.08,27.63,51.35l25.24,2.66c2.59,9.69,17.53,21.37,28.08,26,20.31,8.92,32.66,8.27,50.92,10.36,19.81,30.1,141.25,27.86,169.16,24.54C610.89,523.7,682,518.22,713,485.44c16.81-17.76,25.75-20.23,47.39-24.5,19.27-3.81,35.07-1.7,48.92-19.26,5.88-7.46,3-24.1,0-30.28,28-8.65,30.72-24.23,30.13-40.91,0-.6-.09-1.19-.13-1.79,9.83-8,19.8-20.4,24.27-32.88C870.64,316,860.31,297.82,841.75,287.75Z" style="fill:#ede4da"/><path d="M274.92,272.76l4.33-1.07A26.36,26.36,0,0,0,274.92,272.76Z" style="fill:#f2ebe3"/><path d="M400.52,292.5s.27-7-5.75-13.77" style="fill:none;stroke:#77ab30;stroke-linecap:round;stroke-linejoin:round;stroke-width:4.429999828338623px"/><path d="M410.35,292.32s-.29-11.33,2-17.84" style="fill:none;stroke:#77ab30;stroke-linecap:round;stroke-linejoin:round;stroke-width:4.429999828338623px"/><line x1="420.83" y1="291.76" x2="424.51" y2="284.39" style="fill:none;stroke:#77ab30;stroke-linecap:round;stroke-linejoin:round;stroke-width:4.429999828338623px"/><path d="M792.76,287.18s.28-7-5.75-13.77" style="fill:none;stroke:#77ab30;stroke-linecap:round;stroke-linejoin:round;stroke-width:4.429999828338623px"/><path d="M802.59,287s-.29-11.33,2-17.84" style="fill:none;stroke:#77ab30;stroke-linecap:round;stroke-linejoin:round;stroke-width:4.429999828338623px"/><line x1="813.07" y1="286.44" x2="816.75" y2="279.07" style="fill:none;stroke:#77ab30;stroke-linecap:round;stroke-linejoin:round;stroke-width:4.429999828338623px"/><path d="M429.08,489.36s.27-7-5.76-13.78" style="fill:none;stroke:#77ab30;stroke-linecap:round;stroke-linejoin:round;stroke-width:4.429999828338623px"/><path d="M438.9,489.18s-.28-11.33,2-17.84" style="fill:none;stroke:#77ab30;stroke-linecap:round;stroke-linejoin:round;stroke-width:4.429999828338623px"/><line x1="449.38" y1="488.61" x2="453.06" y2="481.25" style="fill:none;stroke:#77ab30;stroke-linecap:round;stroke-linejoin:round;stroke-width:4.429999828338623px"/><path d="M242.56,251.36s348.68-42.15,595.82,0" style="fill:none;stroke:#1a1a1a;stroke-linecap:round;stroke-linejoin:round;stroke-width:5.909999847412109px"/><path d="M346.62,109.11l5,230.32s-17.06,11.51-23.81,13.89l-8-223.39Z" style="fill:#fff"/><path d="M269.66,81.65S307.79,57,335.44,62.43c0,0-4.72,150.88,6.63,283,0,0-19.45,18.65-68.91,14.06" style="fill:#ccb399"/><path d="M271,78.14c2.25,118.41,3.68,209.67-1.24,280.1" style="fill:none;stroke:#1a1a1a;stroke-linecap:round;stroke-linejoin:round;stroke-width:5.909999847412109px"/><path d="M348.36,61.35c.35,107.61,1.68,208.16,5.82,276.41" style="fill:none;stroke:#1a1a1a;stroke-linecap:round;stroke-linejoin:round;stroke-width:5.909999847412109px"/><path d="M316,162.35h70.22a6.27,6.27,0,0,1,6.27,6.27v90.81a6.27,6.27,0,0,1-6.27,6.27H316V162.35Z" style="fill:#fff"/><path d="M384.75,218.31c-.13-8.26,3.45-48.66-7.71-52.23a5.55,5.55,0,0,1-3.75-3.73H316V265.71h68.9C385,249.91,385,234.11,384.75,218.31Z" style="fill:#d7d88e"/><path d="M323.53,174c3.33-.51,8.37-.29,11.44-2.05a37.41,37.41,0,0,0,.23-5.85,5.43,5.43,0,0,1,1.36-3.74H316v14.78A18,18,0,0,1,323.53,174Z" style="fill:#96b36a"/><path d="M334.52,260.18a27.14,27.14,0,0,1-1.59-2.62c-3.77-3.46-7.61-6.71-12.38-8.54a6,6,0,0,1-3.11-1l-.48-.14a4.66,4.66,0,0,1-.94-.4v18.18H340.9A17.87,17.87,0,0,1,334.52,260.18Z" style="fill:#96b36a"/><path d="M384.88,240.72q0-6-.07-12a10.77,10.77,0,0,1-2.24-1.32c-5.55-4.3-8.08-12-2.79-17.6a16.74,16.74,0,0,1,5.3-3.64c.14-5.29.19-11.45-.15-17.39-1.82,4.57-5.46,8.45-10.82,8.34-6.73-.13-8.27-6.91-8-12.35.16-3.57,2-12-.33-14-3.28-2.75-2-6.51.67-8.47h-20.6a5.08,5.08,0,0,1,3.61,5.27,16.91,16.91,0,0,1-4.92,11.91,18.07,18.07,0,0,1-10,9.06c-4.91,2-13.27,5.11-18.56,2.21v18.45a15.19,15.19,0,0,1,13.58-9.35c6.35-.27,11.6,4,12,10.45s-4.45,12.11-10.67,13.52A12.49,12.49,0,0,1,316,215.43v23.22c.08-.06.11-.15.19-.2a5.61,5.61,0,0,1,5.39-4,16.71,16.71,0,0,1,9.65,2.51c5.79.36,11.38,1.92,15.69,6.21,4.55,4.52,9.84,13.47,5.65,19.65a9.48,9.48,0,0,1-3.06,2.88h21.35c-6.82-3.14-7.27-11.61-3.14-17.83S378.27,240.47,384.88,240.72ZM347.7,228.46a5.92,5.92,0,0,1-1.4-2.44,5.23,5.23,0,0,1-.07-5.67c7-9.38,28.43-11.87,28.71,3.93C375.2,238.61,354.4,235.49,347.7,228.46Z" style="fill:#96b36a"/><path d="M316,162.35h70.22a6.27,6.27,0,0,1,6.27,6.27v90.81a6.27,6.27,0,0,1-6.27,6.27H316V162.35Z" style="fill:none;stroke:#1a1a1a;stroke-linecap:round;stroke-linejoin:round;stroke-width:5.909999847412109px"/><line x1="335.49" y1="174.8" x2="335.49" y2="254.01" style="fill:none;stroke:#1a1a1a;stroke-linecap:round;stroke-linejoin:round;stroke-width:4.429999828338623px"/><path d="M357.57,179.39H369.9a9.25,9.25,0,0,1,9.25,9.25h0a9.25,9.25,0,0,1-9.25,9.25H357.57a9.25,9.25,0,0,1-9.25-9.25h0A9.25,9.25,0,0,1,357.57,179.39Z" style="fill:#fff;stroke:#1a1a1a;stroke-linecap:round;stroke-linejoin:round;stroke-width:4.429999828338623px"/><path d="M363.73,227.85h0a6.88,6.88,0,0,1,6.88,6.88h0a6.88,6.88,0,0,1-6.88,6.88h0a6.88,6.88,0,0,1-6.88-6.88h0A6.88,6.88,0,0,1,363.73,227.85Z" style="fill:#fff;stroke:#1a1a1a;stroke-linecap:round;stroke-linejoin:round;stroke-width:4.429999828338623px"/><circle cx="363.73" cy="209.36" r="3.87" style="fill:#1a1a1a"/><path d="M319.7,205.67s-32.26.89-53.77-6.19" style="fill:#fff;stroke:#1a1a1a;stroke-linecap:round;stroke-linejoin:round;stroke-width:5.909999847412109px"/><path d="M321,218.06s-11.56,4.42-55.9,0" style="fill:#fff;stroke:#1a1a1a;stroke-linecap:round;stroke-linejoin:round;stroke-width:5.909999847412109px"/><line x1="322.03" y1="80.61" x2="322.03" y2="112.98" style="fill:none;stroke:#927654;stroke-linecap:round;stroke-linejoin:round;stroke-width:4.429999828338623px"/><line x1="300.15" y1="125.33" x2="300.15" y2="146.6" style="fill:none;stroke:#927654;stroke-linecap:round;stroke-linejoin:round;stroke-width:4.429999828338623px"/><line x1="322.06" y1="297.35" x2="322.06" y2="329.73" style="fill:none;stroke:#927654;stroke-linecap:round;stroke-linejoin:round;stroke-width:4.429999828338623px"/><path d="M320.07,432.1s14.67-126.09,140.3-127c0,0,19.72-1.38,27.51,3.21,0,0,18.8-35.31,68.32-58.23,0,0,42.64-5,67.4,8.71l21.55,11s6,9.63,21.09,3.67c0,0,33.47-13.75,81.62,13.3,0,0,54.79,50,71.88,96,0,0,19.92,39.38,3.32,34.63l-50.3,7.6L492.83,436.4Z" style="fill:#fff"/><path d="M831.38,418.07c-1.43-4.68-1.27-3.33-3.38-9.16-.94-2.61.08-6.53-1.29-10-1.1-2.79-3.43-5.41-4.81-8.64-1.21-2.84-2.45-5.89-3.88-9-1.3-2.86-2.24-6.06-3.73-9.09-1.39-2.85-4.77-4.8-6.33-7.77s-3.53-5.39-5.17-8.29-2-6.29-3.76-9.11-2-6.46-3.79-9.22-4.61-4.77-6.52-7.45-3.08-5.88-5.09-8.46-4.4-4.91-6.53-7.39-5.29-4-7.54-6.4-4.42-4.81-6.81-7-4.62-4.65-7.14-6.71-6.23-2.53-8.89-4.39-5.25-3.68-8.07-5.33-4.59-5.23-7.55-6.61-5.86-3.16-9-4.25-6.69-.53-9.89-1.29-6.48-.18-9.75-.6-6.25-3.1-9.57-3.16a94.58,94.58,0,0,0-9.88.46c-3.19.27-6.6.21-9.89.82-3.13.58-6.27,2-9.49,2.86s-5.67,3.41-8.82,4.57" style="fill:none;stroke:#1a1a1a;stroke-linecap:round;stroke-linejoin:round;stroke-width:5.909999847412109px"/><path d="M329.56,397.34c-1.22,3.36-2.34,6.82-3.42,10.42-1,3.43-2.32,6.86-3.2,10.51-.85,3.48-1.28,7.13-2,10.81" style="fill:none;stroke:#1a1a1a;stroke-linecap:round;stroke-linejoin:round;stroke-width:5.909999847412109px"/><path d="M654,278.07c-3.3-3.57-1.81-3.9-6.45-7.74-2.14-1.78-5.25-3.47-8.26-5.56-2.46-1.71-7.9.8-10.9-.93-2.67-1.55-4.93-3.83-8-5.26-2.84-1.33-4.23-6.61-7.38-7.73-3-1.06-6.79-.18-10-1s-6.6.66-9.89.21a86.15,86.15,0,0,0-9.52-.84c-3.16-.07-6.64-4.18-10-3.88-3.14.29-5.62,5.87-8.89,6.54-3.08.63-6.46-.11-9.64.9-3,1-5.54,3-8.61,4.36-2.88,1.25-6.43,1.17-9.37,2.77-2.75,1.5-6.22,2.09-9,3.92-2.63,1.71-3.21,6.44-5.87,8.47-2.5,1.9-8.12.12-10.65,2.31-2.37,2.06-2.3,7-4.7,9.31s-6.49,2.59-8.77,5-1.59,7.14-3.76,9.67-4.63,6.53-6.69,9.15c-4.67,1.65-4.64-4.38-10.86-4.74-2.81-.16-6.18,3.53-9.94,3.54-3,0-6.52-5.7-10.07-5.5-3.12.18-6,5.34-9.46,5.74-3.16.36-6.74-1.61-10.11-1-3.16.55-6.09,2.6-9.39,3.38-3.14.74-6.38,1.21-9.61,2.19s-7.51-1.49-10.66-.3-4.76,5.8-7.8,7.21-4.68,5-7.62,6.59-8-.69-10.82,1.16-4.57,5-7.22,7-5.09,4.13-7.57,6.4-3.13,6-5.43,8.49-6.33,3.09-8.44,5.72-5.58,4.13-7.49,6.91-1.45,6.92-3.16,9.82-1.27,6.66-2.79,9.68-2.65,5.8-4,8.9-4.48,5.17-5.63,8.34" style="fill:none;stroke:#1a1a1a;stroke-linecap:round;stroke-linejoin:round;stroke-width:5.909999847412109px"/><path d="M814,419.17c-1.88-4.49-3-2.58-5.65-8.12-1.19-2.49-1.1-6.19-2.8-9.47-1.37-2.65-3.3-5.33-5-8.39-1.49-2.69-3.75-5.14-5.47-8.08-1.59-2.7-2.87-5.72-4.64-8.56-1.68-2.68-4.65-4.61-6.49-7.37s-3.21-5.56-5.12-8.25-4.23-4.84-6.23-7.44-1.62-7-3.7-9.5-4.74-4.52-6.93-6.94-5.2-4-7.49-6.32-5.43-3.64-7.84-5.81-4.55-4.56-7.08-6.58-4.32-5-7-6.87-6.38-2-9.18-3.6-5.21-3.86-8.15-5.19-5.63-3.38-8.7-4.4-6.43-1-9.61-1.63a77.69,77.69,0,0,0-9.58-.93,74.29,74.29,0,0,0-9.6-.68c-3.18.15-6.58-1-9.85-.45a81.44,81.44,0,0,0-9.64,2c-3,.9-5.81,3-8.89,4.25" style="fill:#cddc4c"/><path d="M649.25,301.18c-3.36-3.56-4-.89-8.72-4.67-2.19-1.75-3-6.1-6.06-8.13-2.52-1.67-4.34-5.28-7.41-6.94-2.73-1.47-6.75-1-9.89-2.32-2.9-1.23-5.4-4.34-8.62-5.33-3-.93-6.75-.28-10-.91s-6.65,1.43-10,1.18c-3.17-.24-6.27-1-9.62-.85-3.17.14-6.64-1.59-10-1.06-3.13.51-5.67,4-8.91,4.9-3,.85-5.51,3-8.64,4.21-2.93,1.17-6.22,1.28-9.23,2.82-2.8,1.44-7.43-.07-10.29,1.73-2.67,1.68-5.71,3.29-8.43,5.3-2.53,1.88-5.38,3.8-8,6-2.41,2-2,7.39-4.45,9.72-2.28,2.18-7.69,1.45-10,3.9s-.8,8-3,10.5-5.94,2.91-8,5.55c-4.77,1.52-3.75,2.92-10,2.33-2.83-.27-5.91-3.32-9.7-3.41-3.08-.07-6.36,1.25-9.94,1.4-3.16.14-6.48-.33-10,.07-3.2.36-7.06-2.44-10.46-1.81-3.19.6-5.55,5.42-8.86,6.31-3.15.84-6.38,1.33-9.6,2.48s-5.82,2.88-8.92,4.29-7.89-.89-10.85.78-3.52,6.9-6.33,8.82-8.09.31-10.72,2.48-2.19,7.5-4.63,9.89-3.73,5.3-6,7.89-5.58,3.83-7.59,6.6-4.72,4.75-6.51,7.67c-1.71,2.77-1.42,6.72-3,9.76-1.51,2.88-7,4-8.39,7.09s-.35,7.07-1.56,10.27.21,7-.82,10.26-3.88,5.67-4.76,9" style="fill:#cddc4c"/><polyline points="811.65 422.42 793.95 384.31 674.69 302.83 634.76 297.98 409.02 384.33 357.75 398.02 338.8 429.87 418.4 436.11" style="fill:#cddc4c"/><ellipse cx="660.38" cy="327.18" rx="3.64" ry="6.29" transform="translate(-44.5 542.34) rotate(-43.33)" style="fill:#7ebc25"/><ellipse cx="445.56" cy="345.58" rx="3.64" ry="6.29" transform="translate(87.14 780.88) rotate(-88.33)" style="fill:#7ebc25"/><ellipse cx="555.57" cy="371.86" rx="3.64" ry="6.29" transform="translate(-15.94 718.72) rotate(-65.05)" style="fill:#7ebc25"/><ellipse cx="754.6" cy="383.67" rx="3.64" ry="6.29" transform="translate(349.1 1126.77) rotate(-88.33)" style="fill:#7ebc25"/><ellipse cx="711.34" cy="344.51" rx="7.9" ry="4.58" transform="translate(-78.29 378.83) rotate(-28.33)" style="fill:#7ebc25"/><ellipse cx="518.91" cy="343.48" rx="7.9" ry="4.58" transform="translate(-44.56 79.39) rotate(-8.39)" style="fill:#7ebc25"/><ellipse cx="403.84" cy="390.41" rx="4.58" ry="7.9" transform="translate(1.83 782.7) rotate(-88.33)" style="fill:#7ebc25"/><ellipse cx="488.74" cy="384.75" rx="4.58" ry="7.9" transform="translate(-133.21 393.1) rotate(-38.98)" style="fill:#7ebc25"/><ellipse cx="564.65" cy="306.8" rx="4.58" ry="7.9" transform="translate(37.43 674.22) rotate(-63.39)" style="fill:#7ebc25"/><ellipse cx="605.73" cy="346.7" rx="7.9" ry="4.58" transform="translate(14.92 718.25) rotate(-61.95)" style="fill:#7ebc25"/><path d="M595.47,317.9s-10.34,24.72,9.48,40.53c.93.74,1.27,4.35,1.27,4.35L590.41,404l12.71,1.35,6.27,5.61,25.06,4.48,3.51,1,11.45-9.19,12-13.18,12.25-6.59L669,358l9.56-14.68,1.1-13.77" style="fill:#fffdf7"/><path d="M605,358.43s11.2,1.27,16,4.45c0,0-11.25,32-12.42,49.88-.25,3.84-5.36-1.18-9.06-2.27l-6.56-3.62Z" style="fill:#c6a679"/><path d="M669.51,359.59S658.25,359,653,361.38c0,0,3.27,18.87,3.49,31.15l15.3,4.79Z" style="fill:#c6a679"/><ellipse cx="613.17" cy="379.57" rx="3.53" ry="10.28" transform="translate(-6.97 747.66) rotate(-62.45)" style="fill:#927b59"/><ellipse cx="655.02" cy="380.12" rx="10.28" ry="3.53" transform="translate(-86.95 228.39) rotate(-18.57)" style="fill:#927b59"/><ellipse cx="612.77" cy="394.17" rx="3.3" ry="5.78" transform="translate(-20.13 755.15) rotate(-62.45)" style="fill:#927b59"/><path d="M591,282.27s-3.18,22.3,4.46,35.63l-1.88,10.72s5.7,10.56,17,12.83c0,0,13.79-9.22,21.44-8.4l10,0s12.43.68,19.59,8.44c0,0,11.93.1,18.69-6.64l-2.43-17.45L684,297.68l-2.21-16-27.14,13.23-11.5-2.37-20-.61-4.87,3.23" style="fill:#c6a679"/><path d="M617.58,295.14S615.4,301,616,311.94c0,0-10.45,1.28-8.1,13.1,0,0,1.74,8.77,11.88,7.94,0,0,11.59-1.51,9.39-12.57,0,0-5.34-23.42-.15-30.16" style="fill:#fffdf7"/><path d="M626.4,292.86s-1.48,10.78.46,20.52c0,0,2,3.88,3.63-.73,0,0,1-13.64,3.21-20.12" style="fill:#927b59"/><path d="M592.55,341.06a59.35,59.35,0,0,1,15.27-7.23s4.37-.12,1.13,3.53c0,0-8.55,5.16-13.14,10.25" style="fill:#927b59"/><path d="M598.27,350.83s-1-.93,8.49-4c0,0,4.37-.12,1.13,3.53,0,0-2.34,1.52-6.93,6.61" style="fill:#927b59"/><path d="M617.37,294.22a54.56,54.56,0,0,0-2,17s2,3.88,3.63-.73c0,0,1.44-11.38,3.66-17.86" style="fill:#927b59"/><path d="M658.44,295s1.56,6-.19,16.87c0,0,10.26,2.37,6.68,13.87,0,0-2.65,8.54-12.64,6.66,0,0-11.37-2.72-8-13.48,0,0,7.76-22.74,3.31-30" style="fill:#fffdf7"/><path d="M649.9,291.83s.34,10.88-2.6,20.36c0,0-2.41,3.65-3.54-1.1,0,0,.44-13.67-1.08-20.35" style="fill:#927b59"/><path d="M678.52,343.31a59.38,59.38,0,0,0-14.43-8.79s-4.33-.58-1.49,3.39c0,0,8,6,12,11.57" style="fill:#927b59"/><path d="M671.82,352.43s1-.82-8-4.83c0,0-4.34-.58-1.49,3.39,0,0,2.16,1.76,6.19,7.3" style="fill:#927b59"/><path d="M658.73,294.13a54.34,54.34,0,0,1,.19,17.07s-2.41,3.64-3.54-1.11c0,0-.24-11.47-1.77-18.15" style="fill:#927b59"/><path d="M672.31,393.74C671.64,383.31,670.52,366,669,358c0,0,19.07-14.65,8.93-40.66,0,0,10.31-5.82,4-35.69,0,0-17.68,5.49-27.14,13.23a52.13,52.13,0,0,0-18.43-3.71" style="fill:none;stroke:#1a1a1a;stroke-linecap:round;stroke-linejoin:round;stroke-width:5.510000228881836px"/><path d="M636.7,291.16a52.22,52.22,0,0,0-18.38,4c-12-9.51-27.31-12.85-27.31-12.85-5.93,30,4.46,35.63,4.46,35.63C585.68,344,605,358.43,605,358.43c-4.62,14.73-11.52,36.55-13.22,49.12" style="fill:none;stroke:#1a1a1a;stroke-linecap:round;stroke-linejoin:round;stroke-width:5.510000228881836px"/><path d="M617.67,360.29s17.42,18,38.6-.26" style="fill:none;stroke:#1a1a1a;stroke-linecap:round;stroke-linejoin:round;stroke-width:4.409999847412109px"/><circle cx="618.31" cy="323.09" r="6.73" style="fill:#1a1a1a"/><path d="M621.34,344.77s9.41,11.09,15.53-4.13c0,0,3.94,15.52,15.94,4.64" style="fill:none;stroke:#1a1a1a;stroke-linecap:round;stroke-linejoin:round;stroke-width:4.130000114440918px"/><path d="M638.22,340.68l5-5.57a2,2,0,0,0-1.5-3.32l-10.06.07a2,2,0,0,0-1.45,3.34l5.07,5.5a2,2,0,0,0,2.83.09Z" style="fill:#1a1a1a"/><path d="M612.57,299.52a104.31,104.31,0,0,0-15.43-8,26.42,26.42,0,0,0,3.74,20.54" style="fill:#fae5ee;stroke:#1a1a1a;stroke-linecap:round;stroke-linejoin:round;stroke-width:3.5799999237060547px"/><circle cx="655.48" cy="322.84" r="6.73" style="fill:#1a1a1a"/><path d="M661.1,299.2a97.22,97.22,0,0,1,15.12-8.2,26.46,26.46,0,0,1-3.46,20.6" style="fill:#fae5ee;stroke:#1a1a1a;stroke-linecap:round;stroke-linejoin:round;stroke-width:3.5799999237060547px"/><path d="M490.84,479.26c1.28-3.27,4.73-5.45,6.08-8.44,1.44-3.21.81-7.22,2.31-10.13,1.62-3.14,4.87-5.15,6.55-8,1.82-3,1.46-7.29,3.34-10,2-2.89,6.57-3.61,8.67-6.09,2.29-2.71,1.64-8,4-10.19,2.57-2.46,7.86-1.42,10.45-3.37,2.84-2.13,4.33-5.73,7.17-7.32,3.09-1.72,7.11-.59,10.16-1.75,3.3-1.25,5.07-7.09,8.27-7.77,3.45-.73,7.21-.24,10.47-.43a76.26,76.26,0,0,1,10.38-.27c3.61.29,6.88,2.35,10,3,3.73.81,6.56,3.17,9.33,4.15,5.85,2.07,4.82,4.69,9.89,4.18,4.77-.49,2.16-4.28,6.92-7.87,2.18-1.65,6.3-1.2,9.38-3.11,2.51-1.55,4-5.26,7.07-6.79,2.72-1.36,5.1-4.11,8.22-5.33,2.87-1.12,6.24-1.53,9.43-2.43,3-.85,6-2.38,9.3-3,3-.55,6.47-.08,9.75-.33,3.1-.23,6.29,3.39,9.58,3.47,3.11.08,6.62-4.55,9.89-4.14,3.08.38,5.7,4.16,8.91,4.88,3,.68,6,1.64,9.1,2.64s5.76,2.22,8.8,3.49c2.87,1.19,6.71.39,9.66,1.89,3.17,1.61,6.91,2,9.78,3.68,3.11,1.76,5.65,4.36,8.42,6.14,3,1.94,4.9,5.3,7.54,7.24,2.91,2.14,6,3.7,8.52,5.82,2.76,2.36,4,5.92,6.33,8.22,2.57,2.61,4.19,5.5,6.2,8,2.33,2.89,7,3.67,8.69,6.36,2,3.21,1,7.57,2.25,10.39,1.6,3.65,3.21,6.47,3.88,9.27,1.53,6.33,1.65,4.69,1.17,9.81" style="fill:#fff"/><path d="M489.45,478.72c1.29-3.27,3.22-6.21,4.56-9.2,1.45-3.22,2.46-6.57,4-9.48,1.61-3.14,3.39-6.15,5.07-9s6.91-3.72,8.79-6.38c2-2.9,3-6.22,5.13-8.7,2.3-2.71,5.72-3.87,8.06-6.11,2.57-2.46,3.58-6.18,6.17-8.13a71.91,71.91,0,0,1,8.61-5.22c3.09-1.73,5.13-5.47,8.18-6.62,3.3-1.25,6.62-3,9.82-3.7,3.45-.73,7.26.33,10.52.13,3.54-.2,6.93,1.32,10.16,1.59a77.77,77.77,0,0,1,10,1.21,80.15,80.15,0,0,1,9.77,2.69c5.85,2.07,4.33,4,9.39,3.48,4.77-.49,3.67-.9,8.42-4.49a87.62,87.62,0,0,1,7.52-5.73c2.51-1.56,5.63-2.23,8.69-3.77,2.71-1.36,4.57-4.83,7.7-6,2.86-1.12,5.56-3.38,8.75-4.28,3-.85,6.42-.55,9.66-1.13,3.06-.55,6.33,0,9.61-.29,3.1-.24,6.22.39,9.51.47,3.11.08,6,1.24,9.31,1.65,3.08.39,6.23-.06,9.44.66,3,.68,6.72-.74,9.86.26s5.12,4.3,8.16,5.56c2.87,1.19,6.36,1.14,9.3,2.63,3.18,1.62,7.39,1.17,10.26,2.8,3.11,1.77,3.67,7.5,6.44,9.28,3,1.94,6.24,3.14,8.88,5.08,2.91,2.13,4.67,5.22,7.15,7.33,2.76,2.36,6.16,3.52,8.43,5.82,2.58,2.61,4.1,5.64,6.11,8.14,2.33,2.88,5.64,4.57,7.31,7.26,2,3.21,2.35,6.76,3.59,9.59,1.61,3.65,3.21,6.5,3.89,9.3,1.53,6.34,5.33,5.1,4.85,10.22" style="fill:none;stroke:#1a1a1a;stroke-linecap:round;stroke-linejoin:round;stroke-width:5.909999847412109px"/><path d="M506.31,481.24c1.43-2.83,5.74-4,7.2-6.52,1.57-2.76,2.21-5.83,3.82-8.3,1.73-2.67,1.61-6.48,3.38-8.83,1.91-2.56,5.91-3.21,7.85-5.42,2.11-2.4,3.06-5.61,5.19-7.63,2.32-2.2,5.07-3.61,7.4-5.39a78.41,78.41,0,0,1,7.29-5.48c2.75-1.62,5.82-2.09,8.52-3.22,3-1.24,5-5,7.78-5.7,3.1-.8,6.43-.65,9.33-1,3.2-.34,6.36.54,9.26.64,3.27.13,6.72-1.77,9.52-1.27,3.39.61,6.15,3.12,8.66,3.94,5.33,1.74,3.85,5.4,8.4,4.8,4.73-.64,1.24-5.09,6.09-8.51,2.22-1.56,5.75-2.28,8.89-4.06,2.56-1.43,4.88-4.28,8-5.66,2.76-1.22,6.85.3,10-.74,2.9-1,6.08-1,9.31-1.76,3-.66,6-.9,9.3-1.29,3.06-.36,6-1.9,9.33-2,3.08-.06,6.17.75,9.44,1,3.07.25,6.46-1.23,9.69-.67,3,.53,5.33,4.53,8.5,5.38,3,.8,6.8-1.09,9.89,0,2.91,1,5.11,4,8.12,5.3s7.38-.78,10,.72,5.15,3.8,7.59,5.55,3.92,5.16,6.18,7.12,6,2.88,8,5,3.36,5.49,5.21,7.79c2,2.49,3.42,5.32,5.07,7.73,1.85,2.7,5.17,4.35,6.59,6.8,1.73,3,1.25,6.85,2.38,9.21,2.46,5.16.11,4.75,1.55,9.11" style="fill:#cddc4c"/><path d="M519.07,470.61s-13.85,9.5-4.75,12.27l116.74,9.89L675,492l79.94-9.89s21.76.79,11.47-9.9" style="fill:#cddc4c"/><path d="M649.16,492.07c-3.27,0-6.6-1.12-10-1.11s-6.6,1.43-10,1.4-6.6,0-10-.09-6.58-.82-10-.92-6.6-.48-10-.62-6.63.36-10,.19-6.56-1.06-9.92-1.26-6.71,1.11-10.06.88-6.41-2.94-9.77-3.21-6.81,2-10.16,1.74-6.59-.76-9.93-1.09-6.62-.48-10-.85-6.44-2-9.77-2.42-6.6-.67-9.93-1.09-6.43-1.85-9.76-2.3-6.78.62-10.1.13" style="fill:none;stroke:#1a1a1a;stroke-linecap:round;stroke-linejoin:round;stroke-width:5.909999847412109px"/><path d="M787.78,475.5c-4.77,1.51-3.31.86-9.71,2.41-2.69.65-5.85,1.83-9.65,2.63-2.94.61-6.35.54-10,1.2-3,.56-6.39.73-9.9,1.3-3.11.51-6.11,3-9.58,3.49-3.15.45-6.56.17-10,.61-3.19.4-6.47,1-9.91,1.43-3.2.35-6.67-.81-10.1-.49-3.22.31-6.44,1.74-9.85,2-3.24.26-6.51,1.42-9.92,1.65-3.25.21-6.73-2.26-10.13-2.08s-6.55.77-10,.9-6.54,2.1-9.94,2.19-6.63-.51-10-.46" style="fill:none;stroke:#1a1a1a;stroke-linecap:round;stroke-linejoin:round;stroke-width:5.909999847412109px"/><ellipse cx="714.41" cy="456.61" rx="7.9" ry="4.58" transform="translate(-132.59 418.38) rotate(-30)" style="fill:#7ebc25"/><ellipse cx="629.57" cy="462.99" rx="4.58" ry="7.9" transform="translate(-108.31 720.37) rotate(-55.56)" style="fill:#7ebc25"/><ellipse cx="666.6" cy="436.73" rx="3.64" ry="6.29" transform="translate(-11.73 855) rotate(-64.89)" style="fill:#7ebc25"/><ellipse cx="569.88" cy="460.47" rx="6.29" ry="3.64" transform="translate(-153.89 346.63) rotate(-30)" style="fill:#7ebc25"/><path d="M758.27,426.15c3.2-.2,6.41.66,9.49.43s6.31-1,9.37-1.22c3.21-.27,6.39-.18,9.44-.48,3.22-.32,6.37-.55,9.4-.91,3.23-.38,6.32-1.09,9.32-1.51,3.26-.46,6.31-1.34,9.27-1.85,3.27-.57,6.27-1.57,9.16-2.2,3.31-.72,6.46-1.07,9.23-1.89" style="fill:none;stroke:#1a1a1a;stroke-linecap:round;stroke-linejoin:round;stroke-width:5.909999847412109px"/><path d="M320.45,430.4c5,.72,3.92-2.63,10.39-1.86,2.8.33,5.85,3.29,9.71,3.7,3,.32,6.61-1.75,10.24-1.41,3.13.29,6.27,3,9.81,3.26,3.19.27,6.51,1,10,1.23,3.22.24,6.57.63,10,.86,3.25.2,6.77-2.52,10.22-2.33,3.26.18,6.61.2,10,.36s6.56,1.9,10,2,6.63.82,10,.91,6.64,1.15,10,1.21,6.7-2.63,10.11-2.6,6.65.39,10,.39,6.68,2,10.07,1.91,6.65-2,10-2.06,6.68,0,10.06-.07,6.76,2,10.14,1.81,6.58-2.74,10-2.91,6.72.28,10.09.07" style="fill:none;stroke:#1a1a1a;stroke-linecap:round;stroke-linejoin:round;stroke-width:5.909999847412109px"/></svg>