<svg id="圖層_1" data-name="圖層 1" xmlns="http://www.w3.org/2000/svg" xmlns:xlink="http://www.w3.org/1999/xlink" viewBox="0 0 1080 616.71"><defs><clipPath id="clip-path"><rect x="375.45" y="59.16" width="332.02" height="469.57" transform="translate(196.8 804.61) rotate(-84.48)" style="fill:none"/></clipPath></defs><title>illustration-success</title><rect width="1080" height="616.71" style="fill:#fff"/><ellipse cx="540" cy="300.48" rx="291.69" ry="226.72" style="fill:none;stroke:#e5efd0;stroke-miterlimit:10;stroke-width:5.909999847412109px"/><g style="clip-path:url(#clip-path)"><rect x="375.45" y="59.16" width="332.02" height="469.57" transform="translate(196.8 804.61) rotate(-84.48)" style="fill:#fff;stroke:#1a1a1a;stroke-linecap:round;stroke-linejoin:round;stroke-width:5.909999847412109px"/><path d="M415.17,227.18s-7.61,25.68,13.81,39.26c1,.64,1.72,4.19,1.72,4.19L419.44,313.3h12.78l6.83,4.9,25.41,1.75,3.59.57,10.39-10.37L489,295.71l11.46-7.86-7.89-28.75,7.92-15.63-.4-13.81" style="fill:#fffdf7"/><path d="M429,266.44s11.27.06,16.33,2.7c0,0-7.73,33-7,50.93.16,3.85-5.45-.59-9.25-1.27l-6.92-2.89Z" style="fill:#c6a679"/><path d="M493.28,260.63s-11.25.65-16.17,3.55c0,0,5.29,18.41,6.84,30.59l15.72,3.11Z" style="fill:#c6a679"/><ellipse cx="439.49" cy="286.65" rx="3.53" ry="10.28" transform="translate(12.45 591.55) rotate(-68.64)" style="fill:#927b59"/><ellipse cx="481.1" cy="282.58" rx="10.28" ry="3.53" transform="translate(-74.13 227.57) rotate(-24.77)" style="fill:#927b59"/><ellipse cx="440.66" cy="301.22" rx="3.3" ry="5.78" transform="translate(-0.36 601.9) rotate(-68.64)" style="fill:#927b59"/><path d="M406.89,192.23s-.75,22.52,8.28,35L414.46,238s6.81,9.89,18.24,10.93c0,0,12.71-10.65,20.41-10.67l10-1.15s12.43-.67,20.38,6.28c0,0,11.88-1.2,17.87-8.63l-4.3-17.08,4-20.23-3.92-15.68-25.55,16.08-11.69-1.11-20,1.56L435.4,202" style="fill:#c6a679"/><path d="M434.69,202.16s-1.54,6,.24,16.87c0,0-10.24,2.41-6.63,13.9,0,0,2.68,8.53,12.67,6.61,0,0,11.36-2.75,8-13.5,0,0-7.84-22.72-3.42-30" style="fill:#fffdf7"/><path d="M443.21,198.94s-.3,10.88,2.68,20.35c0,0,2.42,3.64,3.53-1.12,0,0-.49-13.66,1-20.34" style="fill:#927b59"/><path d="M414.77,250.52a59.12,59.12,0,0,1,14.4-8.84s4.34-.6,1.51,3.38c0,0-8,6.06-12,11.61" style="fill:#927b59"/><path d="M421.51,259.61s-1.06-.82,8-4.85c0,0,4.33-.6,1.5,3.38,0,0-2.15,1.77-6.16,7.32" style="fill:#927b59"/><path d="M434.39,201.27a54.64,54.64,0,0,0-.12,17.06s2.42,3.64,3.53-1.11c0,0,.2-11.48,1.71-18.16" style="fill:#927b59"/><path d="M475.3,197.64s2.2,5.81,1.64,16.79c0,0,10.45,1.25,8.14,13.07,0,0-1.71,8.78-11.86,8,0,0-11.59-1.47-9.43-12.53,0,0,5.26-23.45.06-30.17" style="fill:#fffdf7"/><path d="M466.47,195.38s1.51,10.78-.39,20.52c0,0-2,3.89-3.63-.71,0,0-1-13.64-3.28-20.11" style="fill:#927b59"/><path d="M500.48,243.47a59.31,59.31,0,0,0-15.29-7.18s-4.37-.11-1.12,3.53c0,0,8.57,5.14,13.18,10.21" style="fill:#927b59"/><path d="M494.8,253.26s1-.93-8.5-3.93c0,0-4.37-.11-1.12,3.53,0,0,2.34,1.52,7,6.58" style="fill:#927b59"/><path d="M475.5,196.71a54.39,54.39,0,0,1,2,16.95s-2,3.89-3.63-.72c0,0-1.48-11.38-3.72-17.85" style="fill:#927b59"/><path d="M499.75,294.27C498,284,495,266.94,492.56,259.1c0,0,17.38-16.63,4.49-41.39,0,0,9.62-6.9.09-35.91,0,0-17,7.37-25.55,16.08a52.25,52.25,0,0,0-18.72-1.7" style="fill:none;stroke:#1a1a1a;stroke-linecap:round;stroke-linejoin:round;stroke-width:5.510000228881836px"/><path d="M453.27,196.14a52.3,52.3,0,0,0-17.84,5.92c-12.91-8.16-28.54-9.83-28.54-9.83-2.66,30.42,8.28,35,8.28,35-6.91,27,13.81,39.26,13.81,39.26-3,15.15-7.51,37.59-7.85,50.26" style="fill:none;stroke:#1a1a1a;stroke-linecap:round;stroke-linejoin:round;stroke-width:5.510000228881836px"/><path d="M441.82,266.92s19.26,16.07,38.34-4.43" style="fill:none;stroke:#1a1a1a;stroke-linecap:round;stroke-linejoin:round;stroke-width:4.409999847412109px"/><circle cx="438.44" cy="229.87" r="6.73" style="fill:#1a1a1a"/><path d="M443.8,251.09s10.55,10,15-5.78c0,0,5.6,15,16.36,2.9" style="fill:none;stroke:#1a1a1a;stroke-linecap:round;stroke-linejoin:round;stroke-width:4.130000114440918px"/><path d="M460.13,245.21l4.36-6.08a2,2,0,0,0-1.84-3.14l-10,1.16a2,2,0,0,0-1.08,3.47l5.63,4.92a2,2,0,0,0,2.82-.19Z" style="fill:#1a1a1a"/><path d="M430.19,207.06A103.66,103.66,0,0,0,414,200.79a26.48,26.48,0,0,0,5.94,20" style="fill:#fae5ee;stroke:#1a1a1a;stroke-linecap:round;stroke-linejoin:round;stroke-width:3.5799999237060547px"/><circle cx="475.36" cy="225.6" r="6.73" style="fill:#1a1a1a"/><path d="M478.4,201.5a96.41,96.41,0,0,1,14.14-9.79,26.45,26.45,0,0,1-1.21,20.85" style="fill:#fae5ee;stroke:#1a1a1a;stroke-linecap:round;stroke-linejoin:round;stroke-width:3.5799999237060547px"/><polyline points="607.38 187.39 596.77 315.08 576.94 329.89 577.33 322.68 581.82 263.31 561.53 224 562.35 221.29 585.71 243.06 591.69 183.75" style="fill:#ccb399"/><line x1="615.19" y1="192.22" x2="601.77" y2="331.08" style="fill:none;stroke:#1a1a1a;stroke-linecap:round;stroke-linejoin:round;stroke-width:4.429999828338623px"/><polyline points="577.81 304.69 582 261.32 559.6 221.77" style="fill:none;stroke:#1a1a1a;stroke-linecap:round;stroke-linejoin:round;stroke-width:4.429999828338623px"/><polyline points="589.46 182.89 584.44 234.82 569.31 214.81" style="fill:none;stroke:#1a1a1a;stroke-linecap:round;stroke-linejoin:round;stroke-width:4.429999828338623px"/><polyline points="704.1 198.27 687.32 386.9 677.57 387.14 661.76 372.66 680.21 205.67" style="fill:#ccb399"/><line x1="714.58" y1="191.92" x2="695.88" y2="385.32" style="fill:none;stroke:#1a1a1a;stroke-linecap:round;stroke-linejoin:round;stroke-width:4.429999828338623px"/><line x1="679.25" y1="209.36" x2="664.76" y2="359.27" style="fill:none;stroke:#1a1a1a;stroke-linecap:round;stroke-linejoin:round;stroke-width:4.429999828338623px"/><path d="M779.89,495.3s-2.47-126.92-127.43-139.92c0,0-19.5-3.27-27.7.55,0,0-15.31-37-62.39-64.54,0,0-42-9.12-67.93,2.19l-22.51,8.88s-6.86,9-21.35,1.62c0,0-32-16.91-82.51,5.38,0,0-59.36,44.52-80.79,88.68,0,0-23.62,37.28-6.64,34.16L330,444.69,607.52,483Z" style="fill:#fff"/><path d="M270.57,431.43c1.86-4.53,4.1-2.11,6.76-7.71,1.19-2.5,2-5.72,3.72-9,1.36-2.67.54-6.83,2.22-9.92,1.48-2.71,4.69-4.68,6.41-7.65,1.58-2.71,1.67-6.5,3.44-9.38,1.66-2.7,4.49-4.82,6.32-7.61s4.43-4.82,6.34-7.54,2.19-6.44,4.18-9.09,6.32-3.31,8.39-5.88,3.86-5.19,6-7.67,3.59-5.5,5.85-7.88,5.24-3.93,7.6-6.2,4.35-4.85,6.82-7,3.47-6.14,6.06-8.13,5.65-3.5,8.36-5.3,6.83-1.38,9.66-3,4.61-5.34,7.56-6.7,7-.24,10-1.33,5.81-3,9-3.84,6.12-2.83,9.38-3.29,6.67,2.26,10,2.16,6.4-1.53,9.71-1.28,6.59-.38,9.87.22,5.94,2.86,9.16,3.79c3.06.87,6.64.44,9.77,1.65s6,2.58,9,4" style="fill:none;stroke:#1a1a1a;stroke-linecap:round;stroke-linejoin:round;stroke-width:5.909999847412109px"/><path d="M774.21,459.67c.9,3.46,1.74,7,2.47,10.72.69,3.51,1,7.18,1.48,10.9.51,3.54,1.29,7.14,1.64,10.87" style="fill:none;stroke:#1a1a1a;stroke-linecap:round;stroke-linejoin:round;stroke-width:5.909999847412109px"/><path d="M465.11,313c3.63-3.24.5-5.2,5.49-8.57,2.3-1.56,6.33-1.23,9.53-3,2.61-1.47,5.26-3.21,8.41-4.65,2.81-1.28,4.45-6.07,7.63-7.2,3-1,6.49-1.31,9.73-2.12a98.05,98.05,0,0,1,9.66-2.29c3.13-.45,6.77,3.85,10.08,3.73s6.22-1.16,9.52-.92,6.42-.43,9.68.19a87.34,87.34,0,0,1,9.38,2.4c3,.93,5.71,2.74,8.78,4.06,2.89,1.24,7.57-.79,10.5.83,2.75,1.51,4.71,4.82,7.49,6.7,2.6,1.75,5.09,3.94,7.7,6,2.45,2,5.47,3.54,7.93,5.81,2.3,2.14,2.85,6.21,5.16,8.63,2.17,2.27,6.69,2.6,8.86,5.14s4.57,4.67,6.6,7.32,3.62,5.4,5.53,8.13,2.16,5.73,4,8.53c4.49,2.1,3.36-1.5,9.59-1.26,2.81.11,6.13,1.66,9.87,2,3,.3,6.25,1.41,9.76,2,3.09.48,5.85,3.4,9.24,4.13,3.11.66,7.39-2.94,10.69-2,3.09.85,5,6,8.19,7.06s6.73.45,9.84,1.75,7.35-.15,10.36,1.35,4.17,6.19,7.07,7.89,6.17,2.48,8.93,4.38,6.21,2.76,8.82,4.87,3.32,6.19,5.75,8.49,7.27,2.15,9.52,4.65,1,7.72,3.07,10.38,5.92,3.78,7.76,6.6,3.22,5.75,4.85,8.7,3.87,5.43,5.3,8.49.4,6.93,1.63,10.08.56,6.6,1.59,9.82,7.3,4.69,8.14,8" style="fill:none;stroke:#1a1a1a;stroke-linecap:round;stroke-linejoin:round;stroke-width:5.909999847412109px"/><path d="M291.68,436.08c2.3-4.29.07-4,3.25-9.3,1.43-2.36,2.5-5.58,4.51-8.68,1.61-2.51,3.93-4.9,5.9-7.78,1.74-2.54,2.65-5.91,4.65-8.66,1.83-2.54,4.92-4.32,7-7,1.93-2.5,4.88-4.29,7-6.87s2.86-6,5-8.48,5.18-4,7.42-6.41,4.84-4.26,7.16-6.57,3.74-5.42,6.15-7.61,5.21-3.88,7.71-6,5.18-3.86,7.78-5.79,4.9-4.29,7.61-6,5.9-2.74,8.72-4.3,5.54-3.32,8.49-4.65,6.06-2.15,9.11-3.2,5.93-2.63,9.09-3.36,6.19-2.42,9.42-2.78a80.35,80.35,0,0,1,9.83-.7c3.21,0,6.24,2.65,9.5,3.12s6.63-.6,9.82.28a81.3,81.3,0,0,1,9.33,3,95.5,95.5,0,0,1,8.75,4.4" style="fill:#cddc4c"/><path d="M464.74,333.22c3.69-3.22,2.88-2.35,8-5.66,2.35-1.53,5.4-2.77,8.65-4.5,2.67-1.42,5-4.15,8.21-5.5,2.87-1.21,5.78-3,9-4.07,3-1,6.62-.28,9.92-1a89.14,89.14,0,0,1,9.68-1.22,84.38,84.38,0,0,1,9.73-.25c3.18.07,6.67-1.81,10-1.35,3.15.45,6.69.53,9.93,1.39,3.07.8,5.63,3.9,8.77,5.11,2.94,1.14,6.69,1,9.68,2.55,2.81,1.44,6.31,2.32,9.15,4.15,2.65,1.7,2.08,8.15,4.76,10.22,2.49,1.92,8.13.21,10.63,2.47s1.92,7.26,4.27,9.69c2.2,2.26,5.2,3.83,7.4,6.38,2.06,2.4,5.15,4.07,7.21,6.73s2.45,6.17,4.38,8.92,4.16,5.77,6,8.6c4.6,2,4.25-4.07,10.51-4.06,2.85,0,6.16,3.39,9.94,3.67,3.07.22,6.65-1.6,10.2-1.1,3.14.44,5.8,4.45,9.22,5.17,3.14.67,6.15,1.74,9.47,2.7,3.12.9,6.11,1.9,9.32,3.1,3,1.15,7.8-1.59,10.89-.15s5.15,4.6,8.1,6.29,6.65,2,9.45,3.94,2.91,7,5.52,9.22,4.76,4.28,7.17,6.7,6.74,2.68,8.93,5.3,1.3,7.2,3.26,10,4.91,4.48,6.65,7.43,2,6.24,3.52,9.31,6.69,4.19,8,7.37c1.22,3,1.61,6.51,2.7,9.76,1,3.09-1.65,7.32-.75,10.63.85,3.14,1.92,6.16,2.64,9.51.68,3.19,3.7,6,4.26,9.33" style="fill:#cddc4c"/><polyline points="291.51 438.37 312.81 402.14 439.35 332.51 479.56 331.53 695.94 439.19 745.66 457.76 761.46 491.27 681.63 489.83" style="fill:#cddc4c"/><ellipse cx="451.26" cy="358.05" rx="6.29" ry="3.64" transform="translate(-124.15 385.39) rotate(-41.15)" style="fill:#7ebc25"/><ellipse cx="663.29" cy="397.07" rx="3.64" ry="6.29" transform="translate(222.58 1032.2) rotate(-86.15)" style="fill:#7ebc25"/><ellipse cx="564.23" cy="426.84" rx="6.29" ry="3.64" transform="translate(-109.86 212) rotate(-19.43)" style="fill:#7ebc25"/><ellipse cx="352.05" cy="405.26" rx="3.64" ry="6.29" transform="translate(-75.93 729.31) rotate(-86.15)" style="fill:#7ebc25"/><ellipse cx="398.85" cy="370.43" rx="4.58" ry="7.9" transform="translate(-130.95 495.34) rotate(-56.15)" style="fill:#7ebc25"/><ellipse cx="590.5" cy="387.96" rx="4.58" ry="7.9" transform="translate(71.96 867.88) rotate(-76.09)" style="fill:#7ebc25"/><ellipse cx="460.12" cy="417.94" rx="7.9" ry="4.58" transform="translate(-160.48 453.18) rotate(-45.5)" style="fill:#7ebc25"/><ellipse cx="548.53" cy="346.98" rx="7.9" ry="4.58" transform="translate(-88.11 220.62) rotate(-21.09)" style="fill:#7ebc25"/><ellipse cx="503.74" cy="382.84" rx="4.58" ry="7.9" transform="translate(-108.25 222.24) rotate(-22.53)" style="fill:#7ebc25"/><text transform="translate(623.67 447.1) rotate(5.71)" style="isolation:isolate;font-size:20.149999618530273px;fill:#ee7c00;font-family:ArialMT, Arial;letter-spacing:0.050015509631732145em">2018.7.10</text><text transform="translate(623.67 447.1) rotate(5.71)" style="isolation:isolate;font-size:20.149999618530273px;fill:none;stroke:#fff;stroke-linecap:round;stroke-linejoin:round;stroke-width:5.900000095367432px;font-family:ArialMT, Arial;letter-spacing:0.050015509631732145em">2018.7.10</text><text transform="translate(623.67 447.1) rotate(5.71)" style="isolation:isolate;font-size:20.149999618530273px;fill:#ee7c00;font-family:ArialMT, Arial;letter-spacing:0.050015509631732145em">2018.7.10</text></g><rect x="375.45" y="59.16" width="332.02" height="469.57" transform="translate(196.8 804.61) rotate(-84.48)" style="fill:none;stroke:#1a1a1a;stroke-linecap:round;stroke-linejoin:round;stroke-width:5.909999847412109px"/></svg>