<?xml version="1.0" encoding="utf-8"?>
<!-- Generator: Adobe Illustrator 21.1.0, SVG Export Plug-In . SVG Version: 6.00 Build 0)  -->
<svg version="1.1" id="圖層_1" xmlns="http://www.w3.org/2000/svg" xmlns:xlink="http://www.w3.org/1999/xlink" x="0px" y="0px"
	 viewBox="0 0 356.5 443.3" style="enable-background:new 0 0 356.5 443.3;" xml:space="preserve">
<style type="text/css">
	.st0{fill:#FFFFFF;}
	.st1{fill:#FCEDE1;}
	.st2{fill:#CDDC4C;}
	.st3{fill:#FDEEA4;}
	.st4{fill:#1A1A1A;}
	.st5{fill:#F5BBA8;}
	.st6{fill:#EF8519;}
	.st7{fill:#FBEBDF;}
	.st8{fill:#E0BB52;}
	.st9{fill:#EAB381;}
	.st10{fill:#F2ABB7;}
	.st11{fill:#EBB988;}
	.st12{fill:#AA806A;}
	.st13{fill:#DDCBBA;}
	.st14{fill:#A18F7E;}
	.st15{fill:#BFBFBF;}
	.st16{fill:#EF8B6E;}
</style>
<title>互動設計UI</title>
<path class="st0" d="M274.4,270.3l19.6,87.5c0,0,0,51.5-16.5,69l-37.1,0.9l-17.5-212l30.3-3.2L274.4,270.3z"/>
<polyline class="st1" points="138.8,246.9 168.7,296.9 209.1,248.8 "/>
<path class="st0" d="M111.1,250.1l-7,9c0,0,4.6,12-6.4,30.6l-5.3,68.2c0,0,30.2-24.4,29-110.2"/>
<path class="st0" d="M241.6,220.8l7.5,8.6c0,0-2.6,37.4,9.6,55.2l9.6,67.7c0,0-34.1-33.7-38.3-119.3"/>
<path class="st2" d="M90.6,282.8c0,0-6-11.2-8.8,8.8L66,365.9l7,40.6c0,0,20.3,32.8,21.3,9.5C94.3,416.1,103.6,265.1,90.6,282.8z"/>
<path class="st2" d="M259,276.4c0,0-1.6-34.2-4.4-14.3l8.7,77.8l14.2,86.9c0,0,13.2-13.4,14.1-36.7C291.6,390.1,272,258.7,259,276.4
	z"/>
<path class="st3" d="M132.3,243.2c0,0-11.2-12.4-8.5,10.1c0,0-6,74.2-31.8,107.9c0,0-2.8,64.3,9,67.4c0,0,80.2,22.1,139.4-0.8
	c0,0,3.2,2.8,17.3-5.6l-0.8-8.2l-4.9-40l-5.2-53.5c0,0-19.2-62.2-17.9-82.2l-23.4,13.6l-35.3,41.2
	C170.2,292.9,135.7,240.7,132.3,243.2z"/>
<path class="st4" d="M170.4,443.3c-9,0-17.2-0.6-24.3-1.4c-32.2-3.8-51.9-13.8-52.7-14.2c-1.5-0.8-2.1-2.7-1.4-4.2
	c0.8-1.5,2.7-2.1,4.2-1.4c0.3,0.2,19.8,9.9,50.9,13.6c28.7,3.4,73.6,2.1,123.9-23.4c1.5-0.8,3.4-0.2,4.2,1.4
	c0.8,1.5,0.2,3.4-1.4,4.2C234.5,437.7,198.4,443.3,170.4,443.3z"/>
<path class="st4" d="M170.4,294.8c-0.1,0-0.1,0-0.2,0c-0.9,0-1.6-0.5-2.1-1.2l-31.6-45.1c-0.9-1.3-0.6-3,0.7-3.9
	c1.3-0.9,3-0.6,3.9,0.7l29.6,42.2l36.3-40.6c1-1.2,2.8-1.3,4-0.2c1.2,1,1.3,2.8,0.2,4l-38.7,43.2C172,294.5,171.2,294.8,170.4,294.8
	z"/>
<path class="st4" d="M160.1,265.2c-1,0-1.9-0.6-2.2-1.6l-3.1-9.7c-0.4-1.2,0.3-2.5,1.5-2.9c1.2-0.4,2.5,0.3,2.9,1.5l3.1,9.7
	c0.4,1.2-0.3,2.5-1.5,2.9C160.6,265.2,160.3,265.2,160.1,265.2z"/>
<g>
	<circle class="st0" cx="169.6" cy="325.8" r="7.6"/>
	<path class="st4" d="M169.6,335.7c-5.5,0-9.9-4.4-9.9-9.9s4.5-9.9,9.9-9.9s9.9,4.5,9.9,9.9S175,335.7,169.6,335.7z M169.6,320.5
		c-2.9,0-5.2,2.4-5.2,5.2c0,2.9,2.4,5.2,5.2,5.2s5.2-2.4,5.2-5.2C174.8,322.9,172.5,320.5,169.6,320.5z"/>
</g>
<g>
	<circle class="st0" cx="171.1" cy="364" r="7.6"/>
	<path class="st4" d="M171.1,373.9c-5.5,0-9.9-4.5-9.9-9.9s4.4-9.9,9.9-9.9s9.9,4.5,9.9,9.9S176.6,373.9,171.1,373.9z M171.1,358.8
		c-2.9,0-5.2,2.4-5.2,5.2s2.4,5.2,5.2,5.2s5.2-2.4,5.2-5.2S174,358.8,171.1,358.8z"/>
</g>
<g>
	<path class="st5" d="M151.1,315.1c0,0,0.3,66.9,5.9,105.6"/>
	<path class="st4" d="M156.9,423.1c-1.1,0-2.1-0.8-2.3-2c-5.5-38.5-5.9-105.3-5.9-105.9c0-1.3,1-2.3,2.3-2.3c0,0,0,0,0,0
		c1.3,0,2.3,1,2.3,2.3c0,0.7,0.4,67.1,5.8,105.3c0.2,1.3-0.7,2.5-2,2.6C157.1,423.1,157,423.1,156.9,423.1z"/>
</g>
<path class="st4" d="M95,358.6c-0.4,0-0.8-0.1-1.1-0.3c-1.1-0.6-1.5-2.1-0.9-3.2c33.3-59.1,26.8-107.8,26.7-108.2
	c-0.2-1.3,0.7-2.5,2-2.6c1.3-0.2,2.5,0.7,2.6,2c0.3,2,6.8,50.6-27.3,111.2C96.6,358.1,95.8,358.6,95,358.6z"/>
<path class="st4" d="M262.5,343.3c-0.5,0-1-0.2-1.4-0.5c-12.5-9.7-22-29.9-28.2-59.9c-4.6-22.1-5.7-41.7-5.7-41.9
	c-0.1-1.3,0.9-2.4,2.2-2.5c1.3-0.1,2.4,0.9,2.5,2.2c0,0.8,4.3,76.7,32.1,98.4c1,0.8,1.2,2.3,0.4,3.3
	C263.9,343,263.2,343.3,262.5,343.3z"/>
<path class="st4" d="M94.7,428c-0.3,0-0.6,0-0.8-0.1c-9.9-2.8-17.5-9.1-22.6-18.7c-8.9-17-9.9-44.3-3-81c5.1-27,12.8-49.5,12.9-49.7
	c0.6-1.6,2.3-2.5,4-1.9c1.6,0.6,2.5,2.3,1.9,4c-0.3,0.9-30.1,87.9-10.2,125.8c4.3,8.2,10.4,13.3,18.7,15.6c1.7,0.5,2.6,2.2,2.2,3.8
	C97.4,427.1,96.1,428,94.7,428z"/>
<path class="st4" d="M285.7,423.9c-0.5,0-1-0.1-1.4-0.4c-1.5-0.8-2.1-2.7-1.3-4.2c21.4-40.9-3.2-115.9-3.4-116.7
	c-0.5-1.6,0.3-3.4,2-3.9c1.6-0.5,3.4,0.3,3.9,2c0.3,0.8,6.5,19.7,10.1,44.1c4.9,33.1,2.5,59.2-7.1,77.4
	C287.9,423.2,286.8,423.9,285.7,423.9z"/>
<g>
	<polygon class="st6" points="203,336.4 187.8,331.3 219,236.5 234.2,241.5 	"/>
	<path class="st4" d="M204.4,339.2l-19.4-6.4l32.6-99.1l19.4,6.4L204.4,339.2z M190.6,329.9l11,3.6l29.8-90.7l-11-3.6L190.6,329.9z"
		/>
</g>
<g>
	<polygon class="st6" points="146.4,336.4 161.6,331.3 131.8,242 117.4,248.7 	"/>
	<path class="st4" d="M145,339.2l-30.4-91.6l18.4-8.6l31.3,93.8L145,339.2z M120.1,249.9l27.7,83.7l11-3.6l-28.3-84.9L120.1,249.9z"
		/>
</g>
<path class="st7" d="M60.7,324c0,0,29.7,30.5,23.6,41.1l-14.5,20.6l-14.5,11.4l-15.2,3c0,0-21.3-10.6-21.3-25.1S60.7,324,60.7,324z"
	/>
<path class="st3" d="M104,258.5c-17.7,2.3-48.7,60.8-48.7,60.8l-3.8,5c16.2,3.7,23.6,19.5,35.1,31.3l3.3-7.1
	C92.2,334.7,104,258.5,104,258.5z"/>
<g>
	<path class="st7" d="M3.8,350.2C8.1,371,17.3,387.3,35,386.1c11.2-0.8,24-9.3,27.4-17.4c1.5-3.6,0.8-7.7-1.8-10.6
		c-1.3-1.5,3.7-4.6,4.3-9.9c2.2-18-13.1-43-35.2-36.6C12.7,316.5-0.2,330,3.8,350.2z"/>
	<path class="st4" d="M33.2,389.3c-11.7,0-26-7.1-32.4-38.4c0,0,0,0,0,0c-3.9-19.6,7.1-36.2,28.1-42.2c9.1-2.6,18.2-0.6,25.6,5.7
		c9.5,8.1,15,22.2,13.5,34.3c-0.4,3.6-2.4,6.4-3.7,8.2c-0.1,0.2-0.2,0.3-0.4,0.5c2.5,3.7,3.1,8.5,1.3,12.6c-3.9,9.4-18,18.4-30,19.2
		C34.6,389.2,33.9,389.3,33.2,389.3z M6.9,349.6c4.7,23.1,14.1,34.3,27.9,33.4c10.6-0.8,22-8.9,24.7-15.5c1.1-2.5,0.6-5.3-1.2-7.3
		c-2.3-2.6-0.2-5.4,1-7c1.1-1.5,2.3-3.2,2.6-5.3c1.2-10-3.6-22.1-11.4-28.8c-4.1-3.5-10.8-7.1-19.8-4.5
		C16.6,318.6,3,329.9,6.9,349.6z"/>
</g>
<g>
	<ellipse transform="matrix(0.9801 -0.1985 0.1985 0.9801 -63.9132 18.2312)" class="st7" cx="59" cy="327.9" rx="12" ry="16.6"/>
	<path class="st4" d="M60.6,347.4c-7.4,0-14.4-6.9-16.4-16.6c-1-5-0.5-10,1.3-14.1c2-4.5,5.4-7.4,9.6-8.2
		c8.2-1.7,16.6,5.7,18.7,16.3c2.2,10.7-2.7,20.7-10.9,22.3C62.1,347.4,61.3,347.4,60.6,347.4z M57.4,314.5c-0.4,0-0.8,0-1.1,0.1
		c-2.1,0.4-3.9,2.1-5.1,4.7c-1.3,2.9-1.6,6.6-0.9,10.3c1.5,7.2,6.7,12.4,11.4,11.5c4.7-1,7.5-7.8,6-15
		C66.3,319.5,61.8,314.5,57.4,314.5z"/>
</g>
<path class="st4" d="M37.9,370.2c-0.9,0-1.8-0.5-2.1-1.4c-0.5-1.2,0-2.6,1.2-3.1l13.2-5.7c1.2-0.5,2.6,0,3.1,1.2
	c0.5,1.2,0,2.6-1.2,3.1L38.9,370C38.6,370.1,38.3,370.2,37.9,370.2z"/>
<path class="st4" d="M31.4,353.5c-0.9,0-1.8-0.5-2.2-1.4c-0.5-1.2,0.1-2.6,1.3-3.1l13.6-5.6c1.2-0.5,2.6,0.1,3.1,1.3
	c0.5,1.2-0.1,2.6-1.3,3.1l-13.6,5.6C32,353.4,31.7,353.5,31.4,353.5z"/>
<path class="st4" d="M26.6,335.7c-0.9,0-1.7-0.5-2.1-1.4c-0.5-1.2,0-2.6,1.2-3.1l11.1-5.1c1.2-0.5,2.6,0,3.1,1.2
	c0.5,1.2,0,2.6-1.2,3.1l-11.1,5.1C27.2,335.6,26.9,335.7,26.6,335.7z"/>
<path class="st4" d="M59.9,313.9c-0.5,0-1.1-0.1-1.6-0.4c-1.5-0.9-2-2.8-1.1-4.3c31-53.3,69-69.3,70.6-70c1.6-0.6,3.4,0.1,4.1,1.7
	c0.7,1.6-0.1,3.4-1.7,4.1l0,0c-0.4,0.2-37.7,16-67.5,67.4C62,313.4,60.9,313.9,59.9,313.9z"/>
<path class="st4" d="M45.5,401.4c-6.4,0-12.9-2-18.5-5.8c-4.8-3.2-8.3-7.3-9.2-10.7c-0.4-1.7,0.5-3.4,2.2-3.8
	c1.7-0.5,3.4,0.5,3.8,2.2c0.8,3.1,9.6,11.9,21.7,11.9c0.1,0,0.1,0,0.2,0c27-0.2,41.7-42.3,48.1-67.3c0.4-1.7,2.1-2.7,3.8-2.2
	c1.7,0.4,2.7,2.1,2.3,3.8c-15.1,59.3-37.7,71.9-54.1,72C45.7,401.4,45.6,401.4,45.5,401.4z"/>
<path class="st4" d="M84.2,359.3c-1.2,0-2.4-0.7-2.9-1.9l0,0c0-0.1-3.1-7.5-7.6-12.3c-1.2-1.3-1.1-3.2,0.1-4.4
	c1.3-1.2,3.2-1.1,4.4,0.1c5.3,5.6,8.7,13.8,8.8,14.2c0.6,1.6-0.1,3.4-1.7,4.1C85,359.2,84.6,359.3,84.2,359.3z"/>
<path class="st8" d="M85.4,334.8c-0.7,0-1.4-0.3-1.9-0.9c-2-2.6-4.3-4.9-6.9-6.9c-1-0.8-1.2-2.3-0.4-3.3c0.8-1,2.3-1.2,3.3-0.4
	c2.9,2.2,5.5,4.9,7.8,7.8c0.8,1,0.6,2.5-0.4,3.3C86.4,334.6,85.9,334.8,85.4,334.8z"/>
<path class="st7" d="M295.8,324c0,0-29.7,30.5-23.6,41.1l14.5,20.6l14.5,11.4l15.2,3c0,0,21.4-10.6,21.4-25.1S295.8,324,295.8,324z"
	/>
<path class="st3" d="M250.9,253.3c17.7,2.3,50.4,66,50.4,66l3.8,5c-16.2,3.7-23.6,19.5-35.1,31.3l-3.3-7
	C264.4,334.7,250.9,253.3,250.9,253.3z"/>
<g>
	<path class="st0" d="M352.7,350.2c-4.2,20.8-13.5,37.1-31.2,35.9c-11.2-0.8-24-9.3-27.4-17.4c-1.5-3.6-0.8-7.7,1.8-10.6
		c1.3-1.5-3.7-4.6-4.3-9.9c-2.2-18,13.1-43,35.2-36.6C343.8,316.5,356.8,330,352.7,350.2z"/>
	<path class="st4" d="M323.4,389.3c-0.7,0-1.4,0-2.1-0.1c-12.1-0.9-26.1-9.9-30-19.3c-1.8-4.2-1.2-8.9,1.3-12.6
		c-0.1-0.2-0.3-0.4-0.4-0.5c-1.3-1.8-3.3-4.5-3.7-8.2c-1.5-12.1,4.1-26.2,13.5-34.3c7.4-6.3,16.5-8.3,25.6-5.7
		c21,6,32.1,22.6,28.1,42.2v0C349.4,382.2,335.1,389.3,323.4,389.3z M319.8,313.7c-6,0-10.7,2.7-13.8,5.4
		c-7.8,6.7-12.6,18.8-11.4,28.8c0.3,2.1,1.5,3.8,2.6,5.3c1.2,1.7,3.2,4.5,1,7c-1.8,2-2.3,4.9-1.2,7.3c2.7,6.5,14.1,14.7,24.7,15.5
		c13.8,1,23.2-10.3,27.9-33.4c4-19.7-9.6-31-23.7-35C323.8,314,321.7,313.7,319.8,313.7z M352.7,350.2L352.7,350.2L352.7,350.2z"/>
</g>
<path class="st7" d="M341.5,356.3c-4.2,20.8-2.3,31-20,29.8c-11.2-0.8-24-9.3-27.4-17.4c-1.5-3.6-0.8-7.7,1.8-10.6
	c1.3-1.5-3.7-4.6-4.3-9.9c-2.2-18,1.9-36.9,24-30.6C332.7,322.5,345.6,336.1,341.5,356.3z"/>
<path class="st4" d="M323.4,389.3c-0.7,0-1.4,0-2.1-0.1c-12.1-0.9-26.1-9.9-30-19.3c-1.8-4.2-1.2-8.9,1.3-12.6
	c-0.1-0.2-0.3-0.4-0.4-0.5c-1.3-1.8-3.3-4.5-3.7-8.2c-1.5-12.1,4.1-26.2,13.5-34.3c7.4-6.3,16.5-8.3,25.6-5.7
	c21,6,32.1,22.6,28.1,42.2v0C349.4,382.2,335.1,389.3,323.4,389.3z M319.8,313.7c-6,0-10.7,2.7-13.8,5.4
	c-7.8,6.7-12.6,18.8-11.4,28.8c0.3,2.1,1.5,3.8,2.6,5.3c1.2,1.7,3.2,4.5,1,7c-1.8,2-2.3,4.9-1.2,7.3c2.7,6.5,14.1,14.7,24.7,15.5
	c13.8,1,23.2-10.3,27.9-33.4c4-19.7-9.6-31-23.7-35C323.8,314,321.7,313.7,319.8,313.7z M352.7,350.2L352.7,350.2L352.7,350.2z"/>
<g>
	
		<ellipse transform="matrix(0.1985 -0.9801 0.9801 0.1985 -82.8415 554.3499)" class="st7" cx="297.5" cy="327.8" rx="16.6" ry="12"/>
	<path class="st4" d="M295.9,347.4c-0.8,0-1.5-0.1-2.3-0.2c-8.2-1.7-13-11.7-10.9-22.3l0,0c2.2-10.7,10.6-18,18.7-16.3
		c4.1,0.8,7.5,3.8,9.6,8.2c1.9,4.1,2.3,9.1,1.3,14.1C310.4,340.5,303.3,347.4,295.9,347.4z M288.8,326.1c-1.5,7.2,1.3,14,6,15
		c4.7,1,9.9-4.3,11.4-11.5c0.8-3.7,0.4-7.4-0.9-10.3c-1.2-2.6-3-4.3-5.1-4.7C295.5,313.6,290.3,318.9,288.8,326.1L288.8,326.1z"/>
</g>
<path class="st4" d="M318.6,370.2c-0.3,0-0.6-0.1-0.9-0.2l-13.2-5.7c-1.2-0.5-1.7-1.9-1.2-3.1c0.5-1.2,1.9-1.7,3.1-1.2l13.2,5.7
	c1.2,0.5,1.7,1.9,1.2,3.1C320.4,369.7,319.5,370.2,318.6,370.2z"/>
<path class="st4" d="M325.1,353.5c-0.3,0-0.6-0.1-0.9-0.2l-13.6-5.6c-1.2-0.5-1.8-1.9-1.3-3.1c0.5-1.2,1.9-1.8,3.1-1.3L326,349
	c1.2,0.5,1.8,1.9,1.3,3.1C326.9,352.9,326,353.5,325.1,353.5z"/>
<path class="st4" d="M330,335.7c-0.3,0-0.7-0.1-1-0.2l-11.1-5.1c-1.2-0.5-1.7-1.9-1.2-3.1s1.9-1.7,3.1-1.2l11.1,5.1
	c1.2,0.5,1.7,1.9,1.2,3.1C331.7,335.2,330.9,335.7,330,335.7z"/>
<path class="st4" d="M296.7,313.9c-1.1,0-2.2-0.6-2.8-1.7c-31.8-60.9-63.3-69-63.6-69.1c-1.7-0.4-2.7-2.1-2.3-3.8
	c0.4-1.7,2.1-2.7,3.8-2.3c1.4,0.3,34.5,8.9,67.7,72.3c0.8,1.5,0.2,3.4-1.3,4.2C297.7,313.8,297.2,313.9,296.7,313.9z"/>
<path class="st4" d="M310.7,403.2c-0.1,0-0.2,0-0.3,0c-14.9-0.2-35.7-12.4-50.2-69.7c-0.4-1.7,0.6-3.4,2.3-3.8
	c1.7-0.4,3.4,0.6,3.8,2.3c10.6,41.8,26.3,64.8,44.3,65c0.1,0,0.1,0,0.2,0c12,0,21.1-10.2,22.1-13.7c0.5-1.7,2.2-2.6,3.8-2.2
	c1.7,0.5,2.6,2.2,2.2,3.8C337.1,391.2,325.6,403.2,310.7,403.2z"/>
<path class="st4" d="M272.3,359.3c-0.4,0-0.8-0.1-1.2-0.2c-1.6-0.7-2.4-2.5-1.7-4.1c0.1-0.3,3.5-8.5,8.9-14.2
	c1.2-1.2,3.2-1.3,4.4-0.1c1.2,1.2,1.3,3.2,0.1,4.4c-4.5,4.8-7.6,12.2-7.6,12.2C274.7,358.6,273.5,359.3,272.3,359.3z"/>
<path class="st8" d="M271.1,334.8c-0.5,0-1-0.2-1.4-0.5c-1-0.8-1.2-2.3-0.4-3.3c2.2-2.9,4.9-5.6,7.8-7.8c1-0.8,2.5-0.6,3.3,0.4
	c0.8,1,0.6,2.5-0.4,3.3c-2.6,2-4.9,4.3-6.9,6.9C272.6,334.5,271.9,334.8,271.1,334.8z"/>
<path class="st4" d="M94.8,428c-1.7,0-3-1.3-3.1-3c-1.7-39.1-0.3-68.9,1.3-87c1.7-19.7,3.7-29.9,3.8-30.4c0.3-1.7,2-2.8,3.7-2.4
	c1.7,0.3,2.8,2,2.4,3.7c-0.1,0.4-8.2,41.7-4.9,115.8c0.1,1.7-1.3,3.2-3,3.3C94.9,428,94.8,428,94.8,428z"/>
<path class="st4" d="M99.7,298.1c-0.1,0-0.3,0-0.4,0c-1.3-0.2-2.1-1.4-1.9-2.7c2.1-12.5,5.2-37.3,5.2-37.6c0.2-1.3,1.3-2.2,2.6-2
	c1.3,0.2,2.2,1.3,2,2.6c0,0.2-3.2,25.2-5.3,37.7C101.9,297.3,100.9,298.1,99.7,298.1z"/>
<path class="st4" d="M272.4,418.2c-1.1,0-2.2-0.6-2.8-1.7c-0.5-0.9-0.4-1.9,0-2.7c0.7-7.3-7.9-71.7-13.6-111.3
	c-0.2-1.7,0.9-3.3,2.6-3.5c1.7-0.2,3.3,0.9,3.5,2.6c0,0.3,4.1,28.3,7.7,56c2.1,16.3,3.7,29.4,4.7,38.9c0.6,5.7,1,10.1,1.2,13.1
	c0.3,4.6,0.3,7.1-1.9,8.2C273.3,418.1,272.9,418.2,272.4,418.2z M271,412.3C271,412.3,271,412.3,271,412.3
	C271,412.3,271,412.3,271,412.3z"/>
<g>
	
		<ellipse transform="matrix(0.1297 -0.9916 0.9916 0.1297 154.8122 207.0534)" class="st0" cx="195.4" cy="15.3" rx="12.4" ry="13.9"/>
	<path class="st4" d="M195.8,30.8c-0.8,0-1.6-0.1-2.5-0.2c-4.4-0.6-8.4-2.7-11.2-5.9c-2.9-3.3-4.2-7.5-3.6-11.6l0,0
		C179,9,181.3,5.3,185,2.8c3.5-2.4,7.9-3.4,12.4-2.8c4.4,0.6,8.4,2.7,11.2,5.9c2.9,3.3,4.2,7.5,3.6,11.6c-0.5,4.2-2.9,7.8-6.5,10.3
		C202.8,29.8,199.4,30.8,195.8,30.8z M194.9,6.1c-2.3,0-4.6,0.7-6.4,1.9c-2.2,1.5-3.5,3.6-3.8,6v0c-0.3,2.4,0.5,4.8,2.2,6.7
		c1.8,2.1,4.4,3.4,7.3,3.8c2.9,0.4,5.8-0.3,8.1-1.8c2.2-1.5,3.5-3.6,3.8-6c0.3-2.4-0.5-4.8-2.2-6.7c-1.8-2.1-4.4-3.4-7.3-3.8
		C196,6.1,195.4,6.1,194.9,6.1z M181.6,13.5L181.6,13.5L181.6,13.5z"/>
</g>
<path class="st0" d="M216.9,52.7c0,0,58.6,11,67.2,87.3l-2.8,24l7.4,7.8l3,22.1L281,212l30.5,18.3l26.2,26.3l-9.5,9.5l-85.6-42.3
	l-19.7,15.5L193.3,250L216.9,52.7z"/>
<path class="st1" d="M264.4,164.6l-11.2,44.8l11.7,7.3l12.7-3.6C277.6,213.1,295.4,165.1,264.4,164.6z"/>
<polyline class="st1" points="99.7,150.2 80.6,145.6 64.6,152.6 61.2,179.8 76.4,198.4 91.5,202.6 100.9,198.1 "/>
<path class="st9" d="M78.4,146.4l14.4-0.7l3.6-15.6l11.4-12.5L128.8,92c0,0,12.4-4.5,15.5-4.1l1,8l79,8.5l4.3-4.5l7.9,6.2l10.2,27.5
	l19.4,5l-0.1,22.1l16.4-0.9l0.2-33.9c0,0-22.6-28.7-29.2-40.2C245.2,71.1,224,57.8,224,57.8l-15.3-7.5l-40.6-3.6L133.2,55L100,79.3
	l-19.3,36.9L78.4,146.4z"/>
<path class="st9" d="M253.4,211.1l-13.7,17.2l12,39.9l20.9,34.1l42.5-24l-3.9-16.6l17,4.4c0,0-14.7-26-50.5-53
	C277.6,213.1,259.1,217.7,253.4,211.1z"/>
<polygon class="st9" points="74.7,195.5 20.4,221.4 25.8,233.1 41.5,233.4 33.5,248.3 63.1,282.6 110.8,222.4 98.6,201.4 "/>
<path class="st1" d="M94.8,123.1c0,0-19.3,84,29.6,112.5c0,0,49.3,39.5,98.4-3.6c0,0,30.1-22.8,27.4-94.4L238,102.8l-10.7-2
	l-32.9,1.9l-34.9-3.9l-14.3-3l-1-8c0,0-27.8,2.5-38.2,33.4C106,121.2,98.5,117.5,94.8,123.1z"/>
<ellipse transform="matrix(8.089478e-02 -0.9967 0.9967 8.089478e-02 15.8776 398.7733)" class="st10" cx="224.2" cy="190.8" rx="11.6" ry="13.1"/>
<ellipse transform="matrix(8.089478e-02 -0.9967 0.9967 8.089478e-02 -66.0695 294.0404)" class="st10" cx="126.4" cy="182.8" rx="11.6" ry="13.1"/>
<path class="st4" d="M176.7,176.6c-0.3,0-0.6,0-0.9-0.1c-14.1-4.3-11.3-16-11.2-16.1c0.4-1.7,2.1-2.7,3.8-2.3
	c1.7,0.4,2.7,2.1,2.3,3.8c-1.3,6,6.1,8.4,7,8.7c1.6,0.5,2.6,2.2,2.1,3.9C179.3,175.7,178,176.6,176.7,176.6z"/>
<path class="st4" d="M265.5,219.3c-5,0-10.3-1.5-14.4-6.2c-1.2-1.3-1-3.3,0.2-4.4c1.3-1.2,3.3-1,4.4,0.2c3.1,3.4,7.3,4.7,12.6,3.9
	c3.8-0.6,6.8-2,7.6-2.4c17.3-13.5,10.7-35,9.9-37.4c-2.4-4.5-5.4-7.3-8.9-8.4c-5-1.5-9.7,0.9-9.7,0.9c-1.5,0.8-3.4,0.3-4.2-1.3
	c-0.8-1.5-0.3-3.4,1.3-4.2c0.3-0.2,7-3.7,14.5-1.4c5.3,1.6,9.5,5.5,12.7,11.7c0.1,0.1,0.1,0.3,0.2,0.4c0.1,0.3,9.7,28-12.1,44.8
	c-0.1,0.1-0.3,0.2-0.4,0.3C276,217.5,270.9,219.3,265.5,219.3z"/>
<path class="st4" d="M281,165.2c-0.3,0-0.6,0-0.9-0.1c-1.6-0.5-2.6-2.2-2.1-3.9c2.4-8,2.9-20.1,3-21.1c0-1-0.4-15.8-7.3-32.9
	c-9.4-23.4-25.9-39.9-49-48.8c-0.2-0.1-22.8-8.9-50.3-8.6c-36.4,0.4-63.7,15.8-81.1,45.7c-6.7,11.4-10.7,25.4-12.4,42.8
	c-0.2,2-0.3,3.6-0.4,5.1c-0.1,1.7-1.6,3-3.3,2.9c-1.7-0.1-3-1.6-2.9-3.3c0.1-1.5,0.2-3.2,0.4-5.3c1.8-18.3,6.1-33.2,13.2-45.4
	c18.4-31.5,48.4-48.4,86.6-48.8c28.6-0.3,51.5,8.6,52.5,9c30.9,12,45.7,35.2,52.6,52.5c7.4,18.7,7.6,34.4,7.6,35.1c0,0,0,0.1,0,0.1
	c0,0.6-0.5,13.7-3.3,22.8C283.5,164.3,282.3,165.2,281,165.2z"/>
<g>
	<path class="st11" d="M264.2,177c0,0,9.3-5.7,12.9,4.7c0,0,3.5,26.4-17.2,18.7"/>
	<path class="st4" d="M266.7,204.1c-2.3,0-4.8-0.5-7.6-1.6c-1.2-0.5-1.8-1.8-1.4-3c0.5-1.2,1.8-1.8,3-1.4c4.6,1.7,8.1,1.7,10.4-0.1
		c4.2-3.4,4.1-12.4,3.7-15.9c-0.8-2.2-2-3.6-3.4-4.2c-2.7-1-5.9,0.9-6,0.9c-1.1,0.7-2.5,0.3-3.2-0.8c-0.7-1.1-0.3-2.5,0.8-3.2
		c0.2-0.1,5.1-3.1,10-1.4c2.9,1.1,5.1,3.5,6.4,7.3c0.1,0.1,0.1,0.3,0.1,0.5c0.1,0.6,1.8,14.6-5.4,20.4
		C272,203.3,269.5,204.1,266.7,204.1z"/>
</g>
<path class="st4" d="M88.6,204.3c-9.6,0-17.8-5.7-18.3-6c-0.1-0.1-0.2-0.2-0.3-0.3c-21.3-20.2-5.8-45.8-5.7-46.1
	c0.1-0.1,0.2-0.3,0.3-0.4c11.1-13.1,23.6-9.1,28.5-6.8c1.6,0.7,2.2,2.6,1.5,4.2c-0.7,1.6-2.6,2.2-4.2,1.5c-4.4-2.1-13-4.2-20.9,5
	c-1.3,2.3-12,21.9,4.6,37.9c1.4,0.9,11.5,7.3,20.4,3.7c1.6-0.7,3.4,0.1,4.1,1.7c0.7,1.6-0.1,3.4-1.7,4.1
	C94,203.9,91.3,204.3,88.6,204.3z"/>
<g>
	<path class="st11" d="M91.5,161.8c-2.9-1.6-9.2-3.8-13.5,3.3c0,0-8.3,25.2,15.8,21.2"/>
	<path class="st4" d="M89,189.1c-5,0-8.8-1.5-11.4-4.5c-6.1-7.1-2-19.7-1.8-20.2c0.1-0.2,0.1-0.3,0.2-0.5c3.7-6.2,9.9-7.8,16.6-4.2
		c1.1,0.6,1.6,2,0.9,3.2c-0.6,1.1-2,1.6-3.2,0.9c-4.3-2.4-7.8-1.6-10.2,2.3c-1,3.2-2.5,11.4,1,15.5c2.2,2.6,6.3,3.4,12.2,2.4
		c1.3-0.2,2.5,0.6,2.7,1.9s-0.6,2.5-1.9,2.7C92.3,189,90.6,189.1,89,189.1z"/>
</g>
<path class="st4" d="M272.5,305.3c-0.8,0-1.6-0.3-2.2-0.9c-0.8-0.8-19-19.4-31.9-72.2c-0.4-1.7,0.6-3.4,2.3-3.8
	c1.7-0.4,3.4,0.6,3.8,2.3c10.6,43.3,25,63,29.2,68c11.4-3.4,25.5-12.9,38.1-21.9c-0.6-2.8-2.1-8.9-3.6-14.4c-0.3-1.1,0-2.2,0.8-3
	c0.8-0.8,1.9-1.1,3-0.8c5.9,1.6,12.4,3.3,15.3,4c2.8-2.6,4.9-4.8,6.3-6.2c-26.7-31.6-54.3-40.4-54.6-40.5c-1.6-0.5-2.6-2.3-2.1-3.9
	c0.5-1.6,2.2-2.6,3.9-2.1c1.2,0.4,30.9,9.8,59.3,44.6c1,1.2,0.9,2.9-0.1,4c-0.1,0.2-3.7,4.2-9.7,9.8c-1.4,1.3-1.3,1.3-11.5-1.4
	c-1.1-0.3-2.2-0.6-3.3-0.9c0.2,1,0.5,2,0.8,3c0.6,2.4,1.1,4.4,1.4,5.8c0.6,2.9,1,4.6-0.8,5.9c-14.1,10.2-30.3,21.3-43.6,24.5
	C273,305.3,272.7,305.3,272.5,305.3z M313.2,275.7C313.2,275.7,313.1,275.7,313.2,275.7C313.1,275.7,313.2,275.7,313.2,275.7z
	 M326,263.8C326,263.8,326,263.8,326,263.8C326,263.8,326,263.8,326,263.8z"/>
<path class="st0" d="M296.9,248.1c-0.7,0-1.3-0.3-1.8-0.8c-6.4-7.6-17.7-13.7-17.8-13.8c-1.1-0.6-1.6-2-0.9-3.2s2-1.6,3.2-0.9
	c0.5,0.3,12.1,6.7,19.1,14.9c0.8,1,0.7,2.5-0.3,3.3C297.9,247.9,297.4,248.1,296.9,248.1z"/>
<path class="st12" d="M275.6,252.4c-0.7,0-1.5-0.3-1.9-1l-9.7-13.6c-0.7-1.1-0.5-2.5,0.5-3.3c1.1-0.7,2.5-0.5,3.3,0.5l9.7,13.6
	c0.7,1.1,0.5,2.5-0.5,3.3C276.5,252.3,276,252.4,275.6,252.4z"/>
<path class="st4" d="M63.1,285.8c-0.6,0-1.2-0.2-1.7-0.5c-10.7-6.8-21.3-21.8-30.4-35.3c-1.2-1.8-1-2.2,3.8-10.8
	c0.5-0.9,1-1.8,1.5-2.7c-0.8,0-1.7,0-2.6,0c-2,0-3.9-0.1-5.4-0.1c-3.1-0.1-4.3-0.1-5.2-1.8c-3.6-6.9-5.5-11.7-5.6-11.9
	c-0.5-1.3-0.1-2.8,1-3.6c23.1-17.5,43.2-23.6,53.2-25.7c1.7-0.4,3.3,0.7,3.7,2.4c0.4,1.7-0.7,3.3-2.4,3.7
	c-9.2,1.9-27.4,7.5-48.7,23.1c0.8,1.7,2,4.4,3.6,7.6c2.9,0.1,9.2,0.1,13.8,0.2c1.1,0,2.1,0.6,2.7,1.6c0.6,1,0.6,2.1,0,3.1
	c-2.8,5-5.9,10.5-7.2,13c8.4,12.4,17.3,24.5,25.6,30.7c16.8-16.6,31.6-35.2,44.1-55.3c0.9-1.5,2.8-1.9,4.3-1c1.5,0.9,1.9,2.8,1,4.3
	c-13.2,21.2-29,40.8-46.9,58.2C64.6,285.5,63.9,285.8,63.1,285.8z M28.5,231.6C28.6,231.6,28.6,231.7,28.5,231.6
	C28.6,231.7,28.6,231.6,28.5,231.6z"/>
<path class="st12" d="M58.2,224.3c-0.7,0-1.4-0.3-1.9-1c-0.8-1-0.5-2.5,0.5-3.3c8.3-6,20-9.1,20.5-9.2c1.3-0.3,2.5,0.4,2.8,1.7
	c0.3,1.3-0.4,2.5-1.7,2.8c-0.1,0-11.4,3-18.9,8.5C59.2,224.2,58.7,224.3,58.2,224.3z"/>
<path class="st12" d="M75.2,234.2c-0.7,0-1.3-0.3-1.8-0.8c-0.8-1-0.7-2.5,0.2-3.3l12.1-10.5c1-0.8,2.5-0.7,3.3,0.2
	c0.8,1,0.7,2.5-0.2,3.3l-12.1,10.5C76.2,234,75.7,234.2,75.2,234.2z"/>
<path class="st4" d="M255.3,151.2c-1.5,0-2.8-1-3.1-2.5c-5.2-27.3-13.1-34.7-13.1-34.8c-1.3-1.1-1.4-3.1-0.3-4.4
	c1.1-1.3,3.1-1.4,4.4-0.3c1,0.8,9.6,9,15.2,38.3c0.3,1.7-0.8,3.3-2.5,3.6C255.7,151.2,255.5,151.2,255.3,151.2z"/>
<path class="st4" d="M178.6,255.2c-5.7,0-10.9-0.5-15.6-1.2c-20.6-3.2-34.8-11.5-35.9-12.2c-22.4-12.3-35.3-37.4-37.2-72.5
	c-1.5-26.1,3.4-48.3,3.7-49.3c0.4-1.7,2.1-2.7,3.7-2.4c1.7,0.4,2.7,2,2.4,3.7c-0.2,0.9-19.1,87.6,30.6,114.9c0,0,0.1,0,0.1,0.1
	c0.1,0.1,14.1,8.4,34,11.4c26.5,4.1,50.4-2.6,71.3-19.7c0.1-0.1,0.2-0.1,0.3-0.2c0.3-0.2,28.7-20,25.5-88.7c-0.1-1.7,1.3-3.2,3-3.3
	c1.8-0.1,3.2,1.3,3.3,3c3.3,70.7-25.5,92.2-28.2,94.1C218.3,250.3,196.5,255.2,178.6,255.2z"/>
<path class="st4" d="M106.4,123.2c-0.4,0-0.8-0.1-1.1-0.2c-1.6-0.6-2.4-2.4-1.8-4c5.1-13,14.7-23.7,27.2-30c1.5-0.8,3.4-0.2,4.2,1.4
	c0.8,1.5,0.2,3.4-1.4,4.2c-11.1,5.6-19.7,15.1-24.2,26.7C108.9,122.4,107.7,123.2,106.4,123.2z"/>
<ellipse transform="matrix(0.105 -0.9945 0.9945 0.105 36.4206 355.7959)" class="st4" cx="215.9" cy="157.7" rx="13.8" ry="11.5"/>
<path class="st4" d="M211,153.6c-0.4,0-0.7-0.1-1.1-0.2c-0.4-0.2-8.9-3.8-9.8-13.2c-0.1-1.5,1-2.9,2.5-3.1c1.6-0.2,2.9,1,3.1,2.5
	c0.6,5.9,6.2,8.4,6.4,8.5c1.4,0.6,2.1,2.3,1.5,3.7C213.2,152.9,212.1,153.6,211,153.6z"/>
<ellipse transform="matrix(0.105 -0.9945 0.9945 0.105 -24.9122 270.0699)" class="st4" cx="137.6" cy="148.9" rx="13.8" ry="11.5"/>
<path class="st4" d="M132.8,144.8c-0.4,0-0.7-0.1-1.1-0.2c-0.4-0.2-8.9-3.8-9.8-13.2c-0.1-1.5,1-2.9,2.5-3.1c1.6-0.1,2.9,1,3.1,2.5
	c0.6,6,6.3,8.5,6.4,8.5c1.4,0.6,2.1,2.2,1.5,3.7C134.9,144.1,133.9,144.8,132.8,144.8z"/>
<path class="st0" d="M212.8,17.8c0,0-84.4-28-121.2,62.7c0,0-24.2,2.9-26.1,25.9c0,0,113.5-7,242.5,20.1c0,0-9.1-21.1-27.8-33.9
	C280.2,92.7,276.5,30,212.8,17.8z"/>
<path class="st13" d="M197.8,17.7c0,0-69.3-27.9-106.1,62.8c0,0-24.2,2.9-26.1,25.9c0,0,89.5-12.1,218.5,15c0,0,0.4-12-18.3-24.8
	C265.6,96.7,261.5,29.9,197.8,17.7z"/>
<path class="st4" d="M227,62.8c-1.2,0-2.2-0.9-2.3-2c-3.3-25.1-12.5-31.9-12.6-32c-1.1-0.7-1.3-2.2-0.6-3.3c0.7-1.1,2.2-1.3,3.3-0.6
	c0.4,0.3,11,8.1,14.6,35.2c0.2,1.3-0.7,2.5-2,2.6C227.2,62.8,227.1,62.8,227,62.8z"/>
<path class="st4" d="M152.3,52.7c-0.2,0-0.3,0-0.5-0.1c-1.3-0.3-2.1-1.5-1.8-2.8c3.8-18.1,18.2-28.8,18.8-29.2
	c1-0.8,2.5-0.5,3.3,0.5c0.8,1,0.5,2.5-0.5,3.3c-0.2,0.2-13.6,10.2-17,26.4C154.3,52,153.4,52.7,152.3,52.7z"/>
<path class="st14" d="M167.2,60.4c0,0-42.2-1.9-66.5-0.3L89.3,79.8c0,0,59.4-5.9,81.1-0.4"/>
<path class="st14" d="M203.8,64.3c0,0,41.9,5.3,65.6,11l7.9,21.3c0,0-57.6-15.9-79.9-14.1"/>
<path class="st4" d="M279.2,79.4c-0.2,0-0.3,0-0.5-0.1C158.9,53.9,101.6,62.3,101,62.4c-1.3,0.2-2.5-0.7-2.7-2
	c-0.2-1.3,0.7-2.5,1.9-2.7c0.6-0.1,58.6-8.7,179.4,17c1.3,0.3,2.1,1.5,1.8,2.8C281.2,78.7,280.3,79.4,279.2,79.4z"/>
<path class="st4" d="M283.7,100c-0.2,0-0.3,0-0.5-0.1c-64.8-14.1-114-18.2-143.9-19.1c-32.3-1.1-49.5,1.2-49.7,1.3
	c-1.3,0.2-2.5-0.7-2.6-2c-0.2-1.3,0.7-2.5,2-2.6c0.7-0.1,70.2-9.2,195.2,17.9c1.3,0.3,2.1,1.5,1.8,2.8
	C285.7,99.3,284.7,100,283.7,100z"/>
<g>
	<circle class="st15" cx="188.4" cy="66.5" r="23.8"/>
	<path class="st4" d="M188.4,93.5c-14.8,0-26.9-12.1-26.9-26.9s12.1-26.9,26.9-26.9s26.9,12.1,26.9,26.9S203.2,93.5,188.4,93.5z
		 M188.4,45.9c-11.4,0-20.7,9.3-20.7,20.7s9.3,20.7,20.7,20.7S209,77.9,209,66.5S199.8,45.9,188.4,45.9z"/>
</g>
<g>
	<circle class="st0" cx="188.2" cy="66" r="11"/>
	<path class="st4" d="M188.2,79.3c-7.3,0-13.3-6-13.3-13.3s6-13.3,13.3-13.3s13.3,6,13.3,13.3S195.5,79.3,188.2,79.3z M188.2,57.4
		c-4.8,0-8.6,3.9-8.6,8.6s3.9,8.6,8.6,8.6s8.6-3.9,8.6-8.6S193,57.4,188.2,57.4z"/>
</g>
<path class="st4" d="M305.7,128.7c-0.2,0-0.4,0-0.6-0.1c-168-31.8-240.7-19.9-241.4-19.8c-1.1,0.2-2.2-0.2-2.9-1.1
	c-0.7-0.9-0.9-2-0.5-3.1c4.6-12.5,14.3-22.4,26.6-27.4c15.9-38.2,41.9-54.2,61-61c20.4-7.2,37.1-5.6,38.7-5.4
	c28.4,1.6,66.6,10.7,87.5,45.3c10.6,17.6,12.4,34.5,12.7,39.8c18.5,13.4,21.9,28.2,22,28.9c0.2,1-0.1,2.1-0.8,2.8
	C307.4,128.3,306.6,128.7,305.7,128.7z M106.9,100.2c37.6,0,100.5,3.9,194,21.3c-2.4-5.1-7.8-13.5-19-21.2c-0.8-0.6-1.3-1.5-1.3-2.6
	c0-0.2-0.3-19.2-12-38.5c-15.7-25.8-43.4-39.9-82.4-42.1c-0.1,0-0.1,0-0.2,0c-0.2,0-16.6-1.8-36.2,5.2c-26.3,9.3-45.6,29-57.6,58.6
	c-0.3,0.8-1,1.5-1.8,1.8c-9.5,3.5-17.3,10.4-22,19.2C75,101.2,87.6,100.2,106.9,100.2z"/>
<g>
	<path class="st0" d="M293.4,59.5c1.1-2.7,1.2-5.6,0.4-8.4c-1.7-6.1-7.1-9.9-12.1-8.5c-3.6,1-6,4.5-6.3,8.7
		c-5.6-0.3-11.1,1.2-15.6,4.4c-2.5-3.4-6.3-5.2-9.9-4.2c-5,1.4-7.6,7.5-5.9,13.6c0.7,2.8,2.4,5.3,4.7,7c-0.8,3.7-0.6,7.5,0.4,11.1
		c3.7,13.3,17.9,20.9,31.7,17s21.9-17.8,18.2-31C297.8,65.6,295.9,62.3,293.4,59.5z"/>
	<path class="st4" d="M273.4,103.6c-4.7,0-9.3-1.1-13.4-3.4c-6.6-3.5-11.3-9.3-13.2-16.4c-1-3.5-1.2-7.2-0.7-10.8
		c-2.1-2-3.7-4.5-4.4-7.3c-1-3.4-0.8-7,0.5-10.1c1.4-3.2,3.9-5.5,7-6.3c3.8-1.1,7.9,0.3,11,3.4c4-2.3,8.6-3.6,13.2-3.7
		c1-4.3,3.9-7.5,7.7-8.6c6.2-1.7,12.9,2.8,15,10.1c0.8,2.8,0.8,5.7,0,8.5c2.3,2.8,4.1,6.1,5.1,9.6c2,7,1,14.4-2.8,20.8
		c-3.7,6.4-9.8,11-17,13.1C278.7,103.2,276,103.6,273.4,103.6z M251.8,53.6c-0.5,0-0.9,0.1-1.4,0.2c-1.7,0.5-3.1,1.8-3.9,3.7
		c-0.9,2.1-1,4.5-0.3,7c0.6,2.3,2,4.3,3.9,5.8c0.7,0.5,1.1,1.5,0.9,2.3c-0.7,3.3-0.6,6.8,0.3,10c1.6,5.8,5.5,10.6,10.9,13.5
		c5.5,2.9,11.8,3.6,17.9,1.9c6.1-1.7,11.1-5.6,14.3-10.9c3.1-5.3,3.9-11.4,2.3-17.2c-0.9-3.2-2.7-6.3-5-8.7
		c-0.6-0.7-0.8-1.6-0.5-2.5c0.9-2.2,1-4.6,0.3-6.9c-1.4-4.9-5.5-7.9-9.2-6.9c-2.6,0.7-4.4,3.3-4.6,6.6c-0.1,1.3-1.2,2.2-2.5,2.2
		c-5-0.3-10,1.1-14.2,4c-1,0.7-2.5,0.5-3.2-0.5C256.2,54.9,253.9,53.6,251.8,53.6z"/>
</g>
<path class="st2" d="M287.1,62c0.9-2.6,0.9-5.5,0.1-8.1c-1.7-6-6.3-8-10.6-6.8c-3.1,0.9-1.3,1.1-1.5,5.2c-2.4-0.2-8.7,1.2-11.1,1.9
	s-3.8,0.8-5.7,2.2c-2.1-3-5.9-4.3-9.5-3.3c-4.3,1.2-6.4,7-4.7,13c0.7,2.7,2.2,5.1,4.3,6.9c-0.5,3.6-0.3,7.3,0.7,10.8
	c3.6,13,16.3,20.8,28.2,17.5s18.6-16.6,14.9-29.6C291.2,68.1,289.5,64.8,287.1,62z"/>
<path class="st4" d="M273.4,103.6c-4.7,0-9.3-1.1-13.4-3.4c-6.6-3.5-11.3-9.3-13.2-16.4c-1-3.5-1.2-7.2-0.7-10.8
	c-2.1-2-3.7-4.5-4.4-7.3c-1-3.4-0.8-7,0.5-10.1c1.4-3.2,3.9-5.5,7-6.3c3.8-1.1,7.9,0.3,11,3.4c4-2.3,8.6-3.6,13.2-3.7
	c1-4.3,3.9-7.5,7.7-8.6c6.2-1.7,12.9,2.8,15,10.1c0.8,2.8,0.8,5.7,0,8.5c2.3,2.8,4.1,6.1,5.1,9.6c2,7,1,14.4-2.8,20.8
	c-3.7,6.4-9.8,11-17,13.1C278.7,103.2,276,103.6,273.4,103.6z M251.8,53.6c-0.5,0-0.9,0.1-1.4,0.2c-1.7,0.5-3.1,1.8-3.9,3.7
	c-0.9,2.1-1,4.5-0.3,7c0.6,2.3,2,4.3,3.9,5.8c0.7,0.5,1.1,1.5,0.9,2.3c-0.7,3.3-0.6,6.8,0.3,10c1.6,5.8,5.5,10.6,10.9,13.5
	c5.5,2.9,11.8,3.6,17.9,1.9c6.1-1.7,11.1-5.6,14.3-10.9c3.1-5.3,3.9-11.4,2.3-17.2c-0.9-3.2-2.7-6.3-5-8.7c-0.6-0.7-0.8-1.6-0.5-2.5
	c0.9-2.2,1-4.6,0.3-6.9c-1.4-4.9-5.5-7.9-9.2-6.9c-2.6,0.7-4.4,3.3-4.6,6.6c-0.1,1.3-1.2,2.2-2.5,2.2c-5-0.3-10,1.1-14.2,4
	c-1,0.7-2.5,0.5-3.2-0.5C256.2,54.9,253.9,53.6,251.8,53.6z"/>
<path class="st4" d="M273.3,85.5c-6.4,0-12.4-3.3-12.7-3.5c-1.1-0.6-1.5-2.1-0.9-3.2c0.6-1.1,2.1-1.5,3.2-0.9l0,0
	c0.1,0,8.4,4.6,14.5,2.1c2.7-1.1,4.6-3.5,5.8-7.4c0.4-1.2,1.7-2,2.9-1.6c1.2,0.4,2,1.7,1.6,2.9c-1.5,5.2-4.4,8.7-8.5,10.4
	C277.2,85.2,275.2,85.5,273.3,85.5z"/>
<ellipse transform="matrix(0.9626 -0.2708 0.2708 0.9626 -7.6311 70.9912)" class="st4" cx="253.5" cy="63.2" rx="4.4" ry="5.4"/>
<ellipse transform="matrix(0.9627 -0.2707 0.2707 0.9627 -4.1599 78.8012)" class="st4" cx="283.5" cy="54.5" rx="4.4" ry="5.4"/>
<ellipse transform="matrix(0.9626 -0.2708 0.2708 0.9626 -11.9637 73.3632)" class="st4" cx="259.9" cy="80" rx="4" ry="4.9"/>
<ellipse transform="matrix(0.9626 -0.2708 0.2708 0.9626 -8.8247 80.5542)" class="st4" cx="287.5" cy="72.3" rx="4" ry="4.9"/>
<g>
	
		<ellipse transform="matrix(0.1068 -0.9943 0.9943 0.1068 -50.6037 356.0756)" class="st16" cx="172.9" cy="206.2" rx="20.4" ry="11.8"/>
	<path class="st4" d="M171.5,229.3c-0.4,0-0.7,0-1.1-0.1c-8.1-0.9-13.4-11.7-12-24.6c0.6-5.9,2.6-11.3,5.5-15.3
		c3.2-4.4,7.3-6.6,11.5-6.2c4.2,0.4,7.7,3.5,9.9,8.5c2,4.5,2.7,10.2,2.1,16.1c-0.6,5.9-2.6,11.3-5.5,15.3
		C178.9,227.1,175.3,229.3,171.5,229.3z M174.3,188.7c-2,0-4.1,1.4-5.9,3.9c-2.3,3.2-3.9,7.7-4.4,12.6c0,0,0,0,0,0
		c-1.1,10.3,2.8,18,7,18.4c2.1,0.2,4.4-1.2,6.4-3.9c2.3-3.2,3.9-7.7,4.4-12.6c0.5-4.9-0.1-9.6-1.7-13.3c-1.4-3.1-3.3-5-5.4-5.2
		C174.6,188.7,174.5,188.7,174.3,188.7z M161.2,204.9L161.2,204.9L161.2,204.9z"/>
</g>
<path class="st4" d="M204.4,133.1c-1.3,0-2.4-0.8-2.9-2c-0.6-1.6,0.2-3.4,1.8-4l15.8-6c1.6-0.6,3.4,0.2,4,1.8c0.6,1.6-0.2,3.4-1.8,4
	l-15.8,6C205.2,133,204.8,133.1,204.4,133.1z"/>
<path class="st4" d="M153.2,129.7c-0.6,0-1.3-0.2-1.8-0.6l-14.3-10.5c-1.4-1-1.7-3-0.7-4.4c1-1.4,3-1.7,4.4-0.7l14.3,10.5
	c1.4,1,1.7,3,0.7,4.4C155.1,129.3,154.1,129.7,153.2,129.7z"/>
</svg>
