<?xml version="1.0" encoding="utf-8"?>
<!-- Generator: Adobe Illustrator 21.1.0, SVG Export Plug-In . SVG Version: 6.00 Build 0)  -->
<svg version="1.1" id="圖層_1" xmlns="http://www.w3.org/2000/svg" xmlns:xlink="http://www.w3.org/1999/xlink" x="0px" y="0px"
	 viewBox="0 0 677.8 185.2" style="enable-background:new 0 0 677.8 185.2;" xml:space="preserve">
<style type="text/css">
	.st0{fill:#FFFFFF;}
	.st1{fill:#7EBC25;}
	.st2{fill:#75AE21;stroke:#3E7C18;stroke-width:5.91;stroke-linecap:round;stroke-linejoin:round;}
	.st3{fill:#3E7C18;}
	.st4{fill:#FFFFFF;stroke:#3E7C18;stroke-width:4.45;stroke-linecap:round;stroke-linejoin:round;}
	.st5{fill:#FFE51B;}
</style>
<title>互動設計UI</title>
<path class="st0" d="M102.8,71.4c0,0-26.8,1.5-83.8-7.5c0,0,33.9,43.7,46.4,52.8c0,0-33.9,31.7-62.4,43.7c0,0,67.6,21.9,144.4,21.9"
	/>
<path class="st1" d="M127.8,81.5c0,0-36.7,8-93.8-1c0,0,18.9,27.1,31.4,36.1c0,0-33.9,31.7-62.4,43.7c0,0,67.6,21.9,144.4,21.9"/>
<polyline class="st2" points="100,140.2 147.3,182.3 147.3,127.1 "/>
<path class="st0" d="M575,71.4c0,0,26.8,1.5,83.8-7.5c0,0-33.9,43.7-46.4,52.8c0,0,33.9,31.7,62.4,43.7c0,0-67.5,21.9-144.4,21.9"/>
<path class="st1" d="M573.5,82.5c0,0,21.4,7.1,69.3-3.1c0,0-17.9,28.1-30.4,37.1c0,0,33.9,31.7,62.4,43.7c0,0-67.5,21.9-144.4,21.9"
	/>
<path class="st3" d="M147.3,185.2C70.9,185.2,2.7,163.4,2,163.2c-1.2-0.4-2-1.5-2-2.7c-0.1-1.2,0.7-2.4,1.8-2.8
	c23.3-9.9,50.7-33.4,59-40.9C46.7,104.3,18,67.3,16.7,65.7c-0.7-1-0.8-2.3-0.2-3.3c0.6-1,1.8-1.6,3-1.4c56,8.9,82.9,7.5,83.2,7.5
	c1.6-0.1,3,1.2,3.1,2.8c0.1,1.6-1.2,3-2.8,3.1c-1.1,0.1-25.4,1.3-77-6.4c9.7,12.2,31.8,39.6,41.1,46.3c0.7,0.5,1.2,1.3,1.2,2.2
	c0.1,0.9-0.3,1.7-0.9,2.3c-1.3,1.2-29.4,27.3-56.2,41c19.5,5.5,75.2,19.6,136.1,19.6c1.6,0,3,1.3,3,3S148.9,185.2,147.3,185.2z"/>
<path class="st3" d="M530.5,185.2c-1.6,0-3-1.3-3-3s1.3-3,3-3c60.9,0,116.6-14.1,136.1-19.6c-26.8-13.7-54.9-39.8-56.2-41
	c-0.6-0.6-1-1.5-0.9-2.3c0.1-0.9,0.5-1.7,1.2-2.2c9.3-6.7,31.5-34.1,41.1-46.3c-51.6,7.7-76,6.5-77,6.4c-1.6-0.1-2.9-1.5-2.8-3.1
	c0.1-1.6,1.5-2.9,3.1-2.8c0.3,0,27.2,1.4,83.2-7.5c1.2-0.2,2.4,0.4,3,1.4c0.6,1,0.5,2.4-0.2,3.3c-1.3,1.7-30,38.7-44.2,51.1
	c8.3,7.4,35.7,31,59,40.9c1.1,0.5,1.9,1.6,1.8,2.8c-0.1,1.2-0.9,2.3-2,2.7C675.1,163.4,606.9,185.2,530.5,185.2z"/>
<polyline class="st2" points="577.8,140.2 530.5,182.3 530.5,127.1 "/>
<path class="st0" d="M577.8,36.4c0,0-88.6-33.3-234.2-33.4h-0.9C197.1,3.1,100,36.4,100,36.4v103.9c21.2-6.8,46.2-12.3,71.8-16.9
	c110.5-19.6,223.5-19.6,334,0c25.7,4.6,50.6,10.2,71.8,16.9L577.8,36.4z"/>
<path class="st1" d="M554.2,61.3c0,0-65.3-35.1-210.6-44.1h-0.9c-145.6,0.1-230.4,26.7-230.4,26.7v92.8c21.2-6,33.9-7.8,59.6-11.9
	c110.6-17.6,223.4-17.6,334,0c25.7,4.1,27,5.8,48.2,11.9L554.2,61.3z"/>
<path class="st3" d="M100,143.2c-0.6,0-1.2-0.2-1.7-0.6c-0.8-0.6-1.2-1.4-1.2-2.4V36.4c0-1.3,0.8-2.4,2-2.8
	c1-0.3,99.2-33.5,243.6-33.6h0.9C488,0.1,577.9,33.3,578.8,33.6c1.2,0.4,1.9,1.5,1.9,2.8l0,103.9c0,0.9-0.5,1.8-1.2,2.4
	c-0.8,0.6-1.7,0.7-2.6,0.4c-19.3-6.1-43.3-11.8-71.5-16.8c-110.5-19.6-222.5-19.6-333,0c-28.1,5-52.2,10.7-71.5,16.8
	C100.6,143.2,100.3,143.2,100,143.2z M338.9,105.6c56,0,111.9,4.9,167.5,14.8c26.5,4.7,49.5,10,68.4,15.8l0-97.8
	C561.1,33.8,475.3,6,343.6,5.9h-0.9C210.6,6,117.6,33.9,103,38.5v97.7c18.9-5.8,41.8-11.1,68.4-15.8
	C226.9,110.6,282.9,105.6,338.9,105.6z"/>
<polygon class="st4" points="524.4,45.6 530.1,64.2 548.6,70.1 532.7,81.3 532.9,100.7 517.3,89 498.8,95.2 505.2,76.8 493.6,61.1 
	513,61.5 "/>
<polygon class="st5" points="520.9,57.3 524.6,69.3 536.6,73.1 526.3,80.4 526.4,93 516.3,85.4 504.4,89.4 508.5,77.5 501,67.3 
	513.6,67.5 "/>
<polygon class="st4" points="153.4,45.6 147.7,64.2 129.2,70.1 145.1,81.3 144.9,100.7 160.5,89 179,95.2 172.6,76.8 184.2,61.1 
	164.8,61.5 "/>
<polygon class="st5" points="156.9,57.3 153.2,69.3 141.2,73.1 151.5,80.4 151.4,93 161.5,85.4 173.4,89.4 169.3,77.5 176.8,67.3 
	164.2,67.5 "/>
<path class="st0" d="M212.1,59.2c1.1,0.4,1.8,1.4,2.1,2.5c0.1,0.2,0.1,0.5,0.1,0.7c0.1,0.9-0.1,1.8-0.5,2.6c-0.6,1-1.5,1.7-2.6,1.9
	c-0.2,0.1-0.5,0.1-0.7,0.1c-0.9,0.1-1.8-0.1-2.6-0.5c-0.7-0.4-1.4-0.7-2.2-1c-0.9-0.4-1.7-1.1-2-2.1c-0.1-0.3-0.2-0.5-0.2-0.8
	c-0.1-0.7,0.1-1.4,0.4-2c0.6-1,1.5-1.8,2.6-2.2c0.4-0.2,0.8-0.3,1.3-0.3c0.7-0.1,1.4,0,2,0.2C210.6,58.6,211.3,58.9,212.1,59.2z
	 M212.7,43.4c1.1,0.4,1.9,1.4,2.1,2.5c0.1,0.2,0.1,0.5,0.1,0.7c0.1,0.9-0.1,1.8-0.6,2.6c-0.5,1-1.5,1.7-2.6,1.9l-0.6,0.1
	c-0.9,0.1-1.8-0.1-2.6-0.5c-0.8-0.4-1.6-0.8-2.5-1.1c-0.9-0.4-1.6-1.2-1.9-2.1c-0.1-0.3-0.2-0.5-0.2-0.8c-0.1-0.7,0.1-1.4,0.5-2
	c0.6-1,1.5-1.8,2.5-2.2c0.4-0.2,0.8-0.3,1.3-0.3c0.7-0.1,1.4,0,2.1,0.2C211.1,42.7,211.9,43,212.7,43.4L212.7,43.4z M215.5,92.2
	c-0.3,1.1-1,2.1-2.1,2.5c-0.4,0.2-0.9,0.3-1.3,0.4c-0.7,0.1-1.4,0-2-0.2c-1.1-0.5-2-1.4-2.5-2.5c-0.2-0.5-0.4-1-0.5-1.6
	c-0.1-0.7,0-1.4,0.2-2c1.1-3.8,2.2-7.7,3.1-11.8c0.2-1,0.9-1.8,1.8-2.3c0.3-0.2,0.7-0.3,1.1-0.3c0.6-0.1,1.2,0.1,1.8,0.3
	c1.7,0.8,2.9,2.5,3.1,4.4c0.1,0.6,0,1.1-0.1,1.7C217.3,84.6,216.4,88.4,215.5,92.2z M255.5,66.6l-2.2,0.2c-1.2,0.2-2.5,0.1-3.6-0.4
	c-0.9-0.6-1.5-1.5-1.8-2.6c0-0.1-0.1-0.2-0.2-0.2c0,0,0,0,0,0c-0.1,0-0.2,0-0.3,0.1c-1.3,1.9-2.9,3.6-4.8,4.9
	c-0.1,0-0.1,0.1-0.1,0.2c0,0,0,0,0,0c0,0.1,0.1,0.1,0.2,0.1c0,0,0,0,0,0l8.7-1c2.8-0.4,5.3,1.6,5.7,4.4c0,0,0,0.1,0,0.1l1.7,15.2
	c0.1,1.1-0.2,2.2-0.9,3.1c-0.7,0.9-1.8,1.5-2.9,1.6l-2.6,0.3c-0.4,0-0.8-0.1-1.2-0.3c-0.3-0.3-0.5-0.6-0.6-1.1
	c0-0.2-0.1-0.2-0.2-0.2L233.3,93c-0.1,0-0.2,0.1-0.1,0.2c0.1,0.5-0.1,1-0.4,1.3c-0.3,0.4-0.8,0.6-1.3,0.7l-2.1,0.2
	c-1.1,0.1-2.2-0.2-3-0.8c-0.9-0.7-1.4-1.6-1.5-2.7L223,76.4c-0.3-2.8,1.7-5.3,4.5-5.6c0,0,0,0,0,0l3.7-0.4c0.1,0,0.3-0.1,0.3-0.2
	c0.1-0.1,0.1-0.2,0-0.4l-1.8-3.7c-0.1-0.2-0.2-0.6-0.1-0.8c0.1-0.3,0.3-0.5,0.6-0.5c0.1,0,0.1-0.1,0.1-0.2l-0.2-2
	c0-0.1-0.1-0.1-0.1-0.1c-0.1,0-0.1,0-0.2,0.1c0,0,0,0,0,0c-1.4,3.2-3.6,6-6.4,8c-0.5,0.4-1.1,0.6-1.7,0.7c-0.3,0-0.6,0-0.9,0
	c-0.9-0.1-1.8-0.6-2.5-1.2c-0.5-0.4-0.7-0.9-0.8-1.5c0-0.2,0-0.4,0-0.5c0-0.7,0.4-1.4,1-1.8c3-2.1,5.1-5.3,5.7-8.9
	c0-0.2-0.1-0.4-0.4-0.5c0,0-0.1,0-0.1,0l-1.6,0.2c-0.1,0-0.2,0.1-0.3,0.2c0,0.5-0.3,1-0.7,1.4c-0.4,0.4-0.9,0.5-1.5,0.5h-0.8
	c-0.7,0-1.3-0.3-1.7-0.9c-0.3-0.4-0.6-0.8-0.6-1.3c0-0.2,0-0.4,0-0.6c0.1-1.3,0.2-2.7,0.3-4c0-0.8,0.3-1.5,0.9-2
	c0.4-0.5,1-0.8,1.7-0.8c0.1,0,0.2,0,0.3,0h1.3c0.4-0.1,0.7,0.1,1,0.4c0.3,0.3,0.4,0.6,0.4,1c0,0.1,0,0.1,0.1,0.1l1.1-0.1
	c0.3,0,0.5-0.2,0.5-0.5c0,0,0-0.1,0-0.1l-0.2-1.5c0-0.3-0.2-0.5-0.5-0.5c0,0-0.1,0-0.1,0l-3.1,0.3c-0.8,0.1-1.5-0.1-2.1-0.6
	c-1.3-1-1.5-2.8-0.5-4.1c0,0,0,0,0-0.1c0.5-0.6,1.2-1,2-1.1l3.4-0.4c0.1,0,0.3-0.1,0.3-0.3c0,0,0-0.1,0-0.1c-0.2-1.5,0.9-2.8,2.3-3
	c0,0,0,0,0.1,0l1.5-0.2c0.7-0.1,1.4,0.1,2,0.6c0.6,0.4,0.9,1.1,1,1.8c0,0.1,0.1,0.3,0.3,0.3c0,0,0,0,0.1,0l1.7-0.2
	c0.8-0.1,1.5,0.1,2.1,0.6c1.3,1,1.5,2.8,0.5,4c0,0,0,0.1-0.1,0.1c-0.5,0.6-1.2,1-1.9,1.1l-1.6,0.2c-0.3,0-0.4,0.2-0.4,0.6l0.2,1.6
	c0,0.3,0.2,0.5,0.4,0.5c0,0,0.1,0,0.1,0c2.5-0.3,4.7,1.5,5,3.9c0,0,0,0,0,0.1V54l0,0c0,0,0,0,0-0.1c0.1-1.1,0.1-2.4,0.2-3.9
	c0-0.7,0.3-1.4,0.8-1.9c0.4-0.5,1-0.8,1.7-0.8h0.2h1.4c0.4,0,0.7,0.1,1,0.4c0.3,0.3,0.4,0.6,0.4,1c0,0.1,0,0.1,0.1,0.1l1-0.1
	c0.3,0,0.5-0.2,0.5-0.5c0,0,0-0.1,0-0.1l-0.2-1.5c0-0.3-0.2-0.5-0.5-0.5c0,0-0.1,0-0.1,0l-3.4,0.4c-0.8,0.1-1.5-0.1-2.1-0.6
	c-1.3-1-1.5-2.8-0.5-4.1c0,0,0.1-0.1,0.1-0.1c0.5-0.6,1.2-1,1.9-1.1l3.7-0.4c0.1,0,0.3-0.1,0.3-0.3c0,0,0,0,0-0.1
	c-0.1-0.7,0.1-1.4,0.6-2c0.4-0.6,1.1-0.9,1.8-1l1.5-0.2c0.7-0.1,1.4,0.1,2,0.6c0.6,0.4,0.9,1.1,1,1.8c0,0.1,0.1,0.3,0.3,0.3
	c0,0,0,0,0.1,0l2.5-0.3c1.6-0.2,3.1,0.9,3.3,2.5c0.2,1.6-0.9,3.1-2.5,3.3c-0.1,0-0.2,0-0.2,0l-2.1,0.2c-0.3,0-0.5,0.2-0.5,0.5
	c0,0,0,0.1,0,0.1l0.2,1.5c0,0.3,0.2,0.5,0.5,0.5c0,0,0.1,0,0.1,0l2.5-0.3c0.8-0.1,1.6,0.1,2.2,0.6c1.3,1,1.5,2.9,0.4,4.2
	c-0.5,0.6-1.2,1-2,1.1l-3.1,0.3c-0.3,0-0.6,0.3-0.6,0.6l-0.1,0.7c0,0.1,0,0.2,0.2,0.2c0.4,0,0.9,0.1,1.2,0.4
	c0.4,0.3,0.6,0.7,0.6,1.1l0.4,3.4c0,0.4,0.1,0.8,0.2,1.1c0.1,0.1,0.2,0.2,0.4,0.2h0.4c0.2,0,0.4-0.2,0.5-0.4
	c0.1-0.5,0.2-1.1,0.1-1.6c0-0.6,0.2-1.1,0.7-1.5c0.5-0.3,1.1-0.4,1.6-0.3c0.8,0.2,1.5,0.6,2,1.2c0.4,0.4,0.6,1,0.7,1.6
	c0,0.2,0,0.4,0,0.5c0,1.5-0.4,3-1.2,4.3C257.8,66.1,256.7,66.6,255.5,66.6L255.5,66.6z M231.1,57c-0.1,0.3,0.1,0.4,0.4,0.4
	c2.1-0.2,4,1.3,4.3,3.4l0.1,1.2c0,0.2,0.1,0.2,0.2,0.2l0.2-0.1c0.5-0.2,1.1-0.2,1.6,0c0.5,0.2,0.9,0.6,1,1.2
	c0.1,0.2,0.2,0.2,0.3,0.1c2.4-2.1,4.1-5,4.6-8.2c0-0.1,0-0.3-0.1-0.3c-0.1-0.1-0.2-0.1-0.3-0.1l-1.3,0.1c-0.1,0-0.2,0.1-0.3,0.2
	c-0.1,0.5-0.3,1-0.7,1.3c-0.4,0.3-0.9,0.5-1.4,0.4l-2.4-0.1c-0.3,0-0.6-0.1-0.8-0.4c-0.2-0.2-0.3-0.5-0.3-0.8c0-0.1,0-0.1-0.1-0.1
	l-4.5,0.5c-0.3,0-0.6,0.3-0.6,0.6c0,0,0,0,0,0C231.2,56.6,231.2,56.8,231.1,57L231.1,57z M248.4,77c0.3,0,0.5-0.2,0.5-0.5
	c0-0.1,0-0.1,0-0.2l-0.1-0.8c0-0.3-0.2-0.5-0.5-0.5c0,0-0.1,0-0.1,0l-16.4,1.8c-0.3,0-0.5,0.2-0.5,0.5c0,0,0,0.1,0,0.1l0.1,0.8
	c0,0.3,0.2,0.5,0.5,0.5c0.1,0,0.1,0,0.2,0L248.4,77z M232.2,86.1c0,0.3,0.2,0.5,0.5,0.5c0,0,0.1,0,0.1,0l16.4-1.8
	c0.3,0,0.5-0.2,0.5-0.5c0-0.1,0-0.1,0-0.2l-0.1-1c0-0.3-0.2-0.5-0.5-0.5c0,0-0.1,0-0.1,0l-16.4,1.8c-0.3,0-0.5,0.2-0.5,0.5
	c0,0,0,0.1,0,0.1L232.2,86.1z M232.4,70C232.3,70,232.3,70,232.4,70c-0.1,0.2,0,0.2,0,0.2l8.7-1c0.1,0,0.2-0.1,0.2-0.2
	c0-0.1,0-0.2-0.1-0.3c-0.6-0.6-1.2-1.2-1.8-1.7c-0.2-0.3-0.7-0.4-1-0.1c-0.6,0.3-1.6,0.8-3,1.5S233.2,69.7,232.4,70L232.4,70z"/>
<path class="st0" d="M304.6,43.4c0,0.3,0.2,0.5,0.5,0.6c0,0,0.1,0,0.1,0l18.3-0.6c2.7-0.1,4.9,2,5,4.7c0.2,8.3-0.1,16.7-1.1,25
	c-0.6,5.3-1.5,8.7-2.8,10.4c-0.8,1.1-1.7,2-2.9,2.7c-1.2,0.6-2.4,1-3.7,1.2c-1.6,0.3-3.1,0.4-4.7,0.5h-0.1c-1.3,0-2.6-0.4-3.5-1.2
	c-1.1-0.9-1.9-2.1-2.4-3.4c-0.1-0.3-0.2-0.7-0.2-1c0-0.6,0.1-1.2,0.5-1.8c0.5-0.8,1.3-1.3,2.2-1.3h0.2c1.3,0,2.6,0,3.9-0.1
	c1,0,2-0.4,2.7-1.1c1.6-1.7,2.6-10,2.9-24.9c0-0.1,0-0.3-0.1-0.4c-0.1-0.1-0.3-0.2-0.4-0.2l-13.8,0.4c-0.3,0-0.6,0.2-0.6,0.5
	c0,0,0,0,0,0.1c-0.8,14.8-6.3,25.9-16.5,33.5c-0.8,0.6-1.8,1-2.9,1c-0.3,0-0.7,0-1,0c-1.4-0.2-2.6-0.9-3.6-1.9
	c-0.7-0.7-1.1-1.6-1.1-2.6c0-0.2,0-0.3,0-0.5c0.1-1.1,0.6-2.2,1.5-2.8c8.5-6.1,13.3-14.9,14.3-26.5c0-0.1-0.1-0.3-0.2-0.4
	c-0.1-0.1-0.2-0.2-0.4-0.2l-12.3,0.4c-2.5,0.1-4.6-1.9-4.6-4.3c-0.1-2.5,1.9-4.5,4.4-4.6l12.6-0.4c0.3,0,0.5-0.2,0.6-0.5
	c0,0,0-0.1,0-0.1l-0.2-6.8c0-1.2,0.4-2.4,1.3-3.3c1.7-1.9,4.6-2,6.5-0.2c0,0,0,0,0,0c0.9,0.8,1.5,2,1.5,3.2L304.6,43.4z"/>
<path class="st0" d="M357.2,52.6c0.3,0.1,0.6-0.1,0.6-0.4c0,0,0-0.1,0-0.1l0.1-1.6c0-0.1,0-0.1-0.1-0.2c0,0-0.1,0-0.1,0
	c-0.6,0.5-1.3,0.8-2.1,0.7h-0.1c-0.8-0.1-1.6-0.4-2.2-1c-0.4-0.4-0.8-0.7-1.2-1.1c-0.8-0.7-1.2-1.7-1.1-2.7c0-1.1,0.5-2.1,1.3-2.7
	c2.5-2,4.8-4.3,6.7-6.9c0.7-1.1,1.8-1.9,3-2.3c0.7-0.3,1.4-0.4,2.1-0.4c0.5,0,1,0.1,1.5,0.3l0.8,0.3c0.9,0.3,1.5,1,1.8,1.9
	c0.1,0.3,0.2,0.7,0.2,1.1c0,0.5-0.2,1-0.5,1.4c0,0.1,0,0.2,0,0.2c0,0.1,0.1,0.1,0.2,0.1l30.8,1.2c2.1,0,3.8,1.7,3.8,3.8
	c0,2.1-1.7,3.8-3.8,3.8c-0.1,0-0.2,0-0.2,0h-1c-0.2,0-0.5,0.1-0.5,0.4c0,0,0,0.1,0,0.1l-0.2,5.1c-0.1,0.3,0.1,0.5,0.4,0.6
	c0.1,0,0.1,0,0.2,0l3,0.1c2.1,0.2,3.8,2,3.6,4.2c-0.1,2-1.9,3.6-3.9,3.6l-3-0.1c-0.3-0.1-0.6,0.1-0.6,0.4c0,0,0,0.1,0,0.1l-0.2,5
	c-0.1,0.3,0.1,0.5,0.4,0.6c0.1,0,0.1,0,0.2,0l2.2,0.1c2.1,0.1,3.8,1.9,3.7,4c-0.1,2.1-1.9,3.8-4,3.7l-44.9-1.8c-1,0-2-0.5-2.6-1.3
	c-1.4-1.6-1.3-4,0.2-5.4c0.8-0.7,1.8-1.1,2.8-1l2.5,0.1c0.3,0.1,0.6-0.1,0.6-0.4c0,0,0-0.1,0-0.1l0.2-5c0.1-0.3-0.1-0.6-0.4-0.6
	c0,0-0.1,0-0.1,0l-3.5-0.1c-2.1-0.2-3.8-2-3.6-4.2c0.1-2,1.9-3.6,3.9-3.6L357.2,52.6z M358.8,86.2c-0.7,1.1-1.8,1.8-3,2.1
	c-1.3,0.3-2.6,0.2-3.9-0.3c-1-0.4-1.7-1.3-1.9-2.4c-0.1-0.3-0.1-0.7-0.1-1c0-0.7,0.3-1.4,0.7-2c0.9-1.2,1.6-2.5,2.3-3.8
	c0.5-1.1,1.4-2,2.5-2.5c0.7-0.4,1.5-0.6,2.3-0.6c0.4,0,0.8,0.1,1.1,0.2c1.1,0.3,2,1,2.6,2c0.6,1,0.6,2.2,0.1,3.2
	C360.7,82.9,359.8,84.6,358.8,86.2L358.8,86.2z M365.7,60.7c-0.3,0-0.6,0.2-0.6,0.4c0,0,0,0.1,0,0.1l-0.2,5
	c-0.1,0.3,0.1,0.6,0.4,0.6c0,0,0.1,0,0.1,0l1.8,0.1c0.3,0.1,0.5-0.1,0.6-0.4c0-0.1,0-0.1,0-0.2l0.2-5c0.1-0.3-0.1-0.6-0.4-0.6
	c0,0-0.1,0-0.1,0L365.7,60.7z M366.2,46.7c-0.3-0.1-0.6,0.1-0.6,0.4c0,0,0,0.1,0,0.1l-0.2,5c-0.1,0.3,0.1,0.6,0.4,0.6
	c0,0,0.1,0,0.1,0l1.8,0.1c0.3,0.1,0.6-0.1,0.6-0.4c0-0.1,0-0.1,0-0.2l0.2-5c0.1-0.3-0.1-0.6-0.4-0.6c0,0-0.1,0-0.1,0L366.2,46.7z
	 M365.8,81.6c0-0.2,0-0.3,0-0.5c0-0.9,0.4-1.7,0.9-2.4c0.7-0.8,1.7-1.4,2.8-1.4c0.2,0,0.4,0,0.6,0c0.9,0,1.8,0.4,2.5,1
	c0.9,0.6,1.5,1.6,1.6,2.7c0.1,1.1,0.3,2.2,0.4,3.3c0,0.2,0,0.4,0,0.6c0,1-0.4,1.9-1,2.6c-0.8,0.9-1.9,1.5-3.1,1.6
	c-0.2,0-0.4,0-0.6,0c-0.9,0-1.7-0.4-2.4-1c-0.9-0.7-1.3-1.8-1.4-2.9C366,83.9,366,82.8,365.8,81.6L365.8,81.6z M378.2,61.8
	c0-0.3-0.2-0.6-0.4-0.6c0,0-0.1,0-0.1,0l-1.9-0.1c-0.3-0.1-0.6,0.1-0.6,0.4c0,0,0,0.1,0,0.1l-0.2,5c-0.1,0.3,0.1,0.6,0.4,0.6
	c0,0,0.1,0,0.1,0l1.9,0.1c0.3,0.1,0.5-0.1,0.6-0.4c0-0.1,0-0.1,0-0.2L378.2,61.8z M375.5,52.7c-0.1,0.3,0.1,0.6,0.4,0.6
	c0.1,0,0.1,0,0.2,0l1.9,0.1c0.3,0.1,0.6-0.1,0.6-0.4c0-0.1,0-0.1,0-0.2l0.2-5c0-0.3-0.2-0.6-0.4-0.6c0,0-0.1,0-0.1,0l-1.9-0.1
	c-0.3-0.1-0.6,0.1-0.6,0.4c0,0,0,0.1,0,0.1L375.5,52.7z M378.2,82.3c-0.1-0.4-0.1-0.7-0.1-1.1c0-0.7,0.2-1.3,0.6-1.9
	c0.6-0.9,1.5-1.5,2.6-1.5c0.3-0.1,0.6-0.1,0.9-0.1c0.9,0,1.7,0.3,2.4,0.8c1,0.6,1.7,1.6,2.1,2.7c0.3,1.1,0.6,2.1,0.8,3.1
	c0.1,0.4,0.1,0.7,0.1,1.1c0,0.8-0.3,1.5-0.8,2.1c-0.7,1-1.8,1.7-3,1.8c-0.3,0-0.5,0-0.8,0c-0.9,0-1.7-0.3-2.4-0.9
	c-1-0.7-1.6-1.8-1.8-2.9C378.7,84.5,378.5,83.4,378.2,82.3L378.2,82.3z M387.7,67.7c0.3,0,0.6-0.2,0.6-0.4c0,0,0-0.1,0-0.1l0.2-5
	c0.1-0.3-0.1-0.5-0.4-0.6c-0.1,0-0.1,0-0.2,0l-1.9-0.1c-0.3-0.1-0.6,0.1-0.6,0.4c0,0,0,0.1,0,0.1l-0.2,5c-0.1,0.3,0.1,0.6,0.4,0.6
	c0.1,0,0.1,0,0.2,0L387.7,67.7z M388.3,53.8c0.3,0.1,0.5-0.1,0.6-0.4c0-0.1,0-0.1,0-0.2l0.2-5c0.1-0.3-0.1-0.5-0.4-0.6
	c-0.1,0-0.1,0-0.2,0l-1.9-0.1c-0.3-0.1-0.5,0.1-0.6,0.4c0,0.1,0,0.1,0,0.2l-0.2,5c-0.1,0.3,0.1,0.6,0.4,0.6c0,0,0.1,0,0.1,0
	L388.3,53.8z M391.1,82.2c-0.3-0.5-0.4-1.1-0.4-1.7c0-0.4,0.1-0.9,0.3-1.3c0.4-1,1.2-1.7,2.2-2c0.6-0.1,1.2-0.2,1.8-0.2
	c0.7,0,1.4,0.2,2,0.4c1.2,0.5,2.1,1.3,2.8,2.4c1,1.6,1.9,3.2,2.6,4.6c0.3,0.6,0.5,1.2,0.5,1.8c0,0.5-0.1,1-0.4,1.5
	c-0.5,1.1-1.5,1.9-2.6,2.2c-0.5,0.2-1.1,0.2-1.6,0.2c-0.7,0-1.5-0.2-2.1-0.6c-1.2-0.6-2.1-1.5-2.6-2.7
	C392.8,85.4,392,83.9,391.1,82.2L391.1,82.2z"/>
<path class="st0" d="M440.2,40.2c0.7-0.1,1.4,0,2,0.5l1.9,1.3c0.8,0.6,1.4,1.4,1.7,2.3c0.1,0.6,0.2,1.1,0.1,1.7
	c0,0.4-0.1,0.8-0.3,1.2c-2.3,5.7-4,9.9-5.3,12.6c-0.2,0.3-0.1,0.7,0.1,1.1c2.1,3.6,2.9,7.7,2.4,11.8c-0.4,4.2-1.8,6.8-3.9,8.1
	c-0.8,0.5-1.7,0.8-2.6,0.9c-0.4,0.1-0.7,0.1-1.1,0.1c-1-0.1-1.8-0.6-2.4-1.3c-1-1.1-1.6-2.5-1.8-3.9c0-0.3-0.1-0.6-0.2-0.9
	c0,0,0-0.1-0.1-0.1s-0.1,0-0.1,0.1L429,89.8c-0.1,1.1-0.6,2.1-1.5,2.7c-0.8,0.7-1.9,1-3,0.9c-2.2-0.2-3.8-2.2-3.6-4.4c0,0,0,0,0-0.1
	l4.8-45c0.1-1.4,0.8-2.7,1.9-3.5c1.1-0.8,2.4-1.2,3.7-1l8.6,0.9C440.1,40.3,440.2,40.3,440.2,40.2z M434.1,47.4
	c-0.3-0.1-0.6,0.1-0.6,0.4c0,0,0,0.1,0,0.1l-2.7,25.2c-0.1,0.3,0.1,0.6,0.4,0.6c0,0,0.1,0,0.1,0l0.9,0.1c0.6,0.1,1.2,0,1.7-0.3
	c0.7-0.4,1.1-1.4,1.2-2.9c0.2-1.9,0-3.7-0.5-5.5c-0.7-2.4-1-4.8-0.8-7.3c0.1-0.7,0.2-1.5,0.5-2.2c0.8-2.3,1.5-4.8,2.4-7.5
	c0.1-0.1,0-0.3,0-0.4c-0.1-0.1-0.2-0.2-0.4-0.2L434.1,47.4z M470.2,72.6c-0.1,0-0.1,0-0.1,0.1s0,0.1,0.1,0.2l1.9,1.7
	c1,0.8,1.5,2,1.5,3.2c0,0.2,0,0.3,0,0.4c-0.1,1.1-0.7,2.1-1.6,2.7l-3.4,2.4c-0.3,0.1-0.4,0.5-0.3,0.8c0,0,0,0.1,0,0.1
	c1,1.6,2.2,3,3.6,4.2c1,0.9,1.5,2.3,1.4,3.6c-0.1,0.9-0.5,1.7-1.1,2.3c-0.9,0.9-2,1.5-3.2,1.7c-0.3,0-0.7,0-1,0
	c-0.9-0.1-1.7-0.5-2.3-1.1c-2.8-2.7-4.9-6.1-6.2-9.7c-1.5-4.4-2.5-8.9-3-13.5c0-0.4-0.3-0.6-0.6-0.7l-1.9-0.2
	c-0.3-0.1-0.6,0.1-0.6,0.4c0,0,0,0.1,0,0.1L452,84c0,0.3,0.1,0.5,0.4,0.5c0,0,0.1,0,0.1,0l2.8-0.2c0.2,0,0.4,0,0.6,0
	c0.8,0.1,1.5,0.4,2,1c0.7,0.7,1.1,1.6,1.1,2.6c0,0.1,0,0.3,0,0.4c-0.1,0.9-0.5,1.8-1.1,2.4c-0.7,0.8-1.6,1.3-2.7,1.4l-11.4,1.2
	c-0.4,0-0.7,0-1.1,0c-2.1-0.2-3.8-1.8-4.3-3.9c-0.1-0.4-0.1-0.8-0.1-1.2c0.1-0.7,0.4-1.3,0.8-1.9c0.6-0.9,1.7-1.4,2.7-1.4h1
	c0.3,0,0.6-0.3,0.6-0.7l4.1-38.1c0.3-2.8,2.8-4.8,5.6-4.5l18.3,2c2.8,0.3,4.8,2.8,4.5,5.6l-2.2,20.4C473.5,71.5,472,72.8,470.2,72.6
	C470.2,72.6,470.2,72.6,470.2,72.6z M455.2,59.9c-0.3-0.1-0.6,0.1-0.6,0.4c0,0.1,0,0.1,0,0.2l-0.3,2.4c-0.1,0.3,0.1,0.6,0.4,0.6
	c0,0,0.1,0,0.1,0l10.2,1.1c0.3,0.1,0.6-0.1,0.6-0.4c0,0,0-0.1,0-0.1l0.3-2.4c0.1-0.3-0.1-0.6-0.4-0.6c0,0-0.1,0-0.1,0L455.2,59.9z
	 M467,51.4c0.1-0.3-0.1-0.6-0.4-0.6c0,0-0.1,0-0.1,0l-10.2-1.1c-0.3-0.1-0.6,0.1-0.6,0.4c0,0,0,0.1,0,0.1l-0.2,2.2
	c-0.1,0.3,0.1,0.6,0.4,0.6c0,0,0.1,0,0.1,0l10.2,1.1c0.3,0.1,0.6-0.1,0.6-0.4c0,0,0-0.1,0-0.1L467,51.4z M469.2,73
	c0.1-0.1,0.1-0.2,0.1-0.3c0-0.1-0.1-0.2-0.2-0.2l-4.4-0.5c-0.1,0-0.3,0-0.4,0.1c-0.1,0.1-0.1,0.3-0.1,0.4c0.2,1.3,0.5,2.6,0.9,3.8
	c0,0.1,0.1,0.2,0.2,0.2c0.1,0,0.3,0,0.4,0C466.9,75.4,468.1,74.2,469.2,73z"/>
</svg>
