<svg id="圖層_1" data-name="圖層 1" xmlns="http://www.w3.org/2000/svg" xmlns:xlink="http://www.w3.org/1999/xlink" viewBox="0 0 1080 1920"><defs><style>.cls-1,.cls-10,.cls-11,.cls-14,.cls-18,.cls-19,.cls-20,.cls-22,.cls-29,.cls-32,.cls-44,.cls-52,.cls-58,.cls-59,.cls-6,.cls-65,.cls-66,.cls-73,.cls-79{fill:none;}.cls-2{fill:#a6a6a6;}.cls-3{fill:#cddc4c;}.cls-12,.cls-33,.cls-4,.cls-46,.cls-60,.cls-61,.cls-74,.cls-76,.cls-78{fill:#fff;}.cls-5,.cls-54{fill:#ef8519;}.cls-6{stroke:#ac5508;}.cls-22,.cls-35,.cls-52,.cls-54,.cls-6{stroke-miterlimit:10;}.cls-6,.cls-72,.cls-73{stroke-width:5.91px;}.cls-7{fill:#1a1a1a;}.cls-8{fill:#fcede1;}.cls-9{fill:#fdeea4;}.cls-10,.cls-11,.cls-12,.cls-13,.cls-14,.cls-18,.cls-19,.cls-20,.cls-21,.cls-29,.cls-31,.cls-32,.cls-33,.cls-34,.cls-37,.cls-43,.cls-44,.cls-45,.cls-46,.cls-54,.cls-56,.cls-57,.cls-58,.cls-60,.cls-61,.cls-64,.cls-69,.cls-70,.cls-76,.cls-78,.cls-79{stroke:#1a1a1a;}.cls-10,.cls-11,.cls-12,.cls-13,.cls-14,.cls-18,.cls-19,.cls-20,.cls-21,.cls-29,.cls-31,.cls-32,.cls-33,.cls-34,.cls-35,.cls-37,.cls-43,.cls-44,.cls-45,.cls-46,.cls-52,.cls-56,.cls-57,.cls-58,.cls-59,.cls-60,.cls-61,.cls-64,.cls-65,.cls-66,.cls-69,.cls-70,.cls-72,.cls-73,.cls-74,.cls-76,.cls-78,.cls-79{stroke-linecap:round;}.cls-10,.cls-11,.cls-12,.cls-13,.cls-14,.cls-18,.cls-19,.cls-20,.cls-21,.cls-29,.cls-31,.cls-32,.cls-33,.cls-34,.cls-37,.cls-43,.cls-44,.cls-45,.cls-46,.cls-56,.cls-57,.cls-58,.cls-59,.cls-60,.cls-61,.cls-64,.cls-65,.cls-66,.cls-69,.cls-70,.cls-72,.cls-73,.cls-74,.cls-76,.cls-78,.cls-79{stroke-linejoin:round;}.cls-10,.cls-61,.cls-69{stroke-width:6.24px;}.cls-11{stroke-width:5.62px;}.cls-12,.cls-13,.cls-14,.cls-64,.cls-65,.cls-66{stroke-width:4.68px;}.cls-13{fill:#f5bba8;}.cls-15{fill:#fffdf7;}.cls-16{fill:#c6a679;}.cls-17{fill:#927b59;}.cls-18{stroke-width:3.84px;}.cls-19{stroke-width:3.07px;}.cls-20{stroke-width:2.88px;}.cls-21{fill:#fae5ee;stroke-width:2.49px;}.cls-22{stroke:#c8c9ca;}.cls-22,.cls-32,.cls-37,.cls-45,.cls-46{stroke-width:4.06px;}.cls-23{clip-path:url(#clip-path);}.cls-24{fill:#d6d6d6;}.cls-25,.cls-35{fill:#d6a17f;}.cls-26{fill:#e4bfa4;}.cls-27,.cls-31{fill:#2c88c9;}.cls-28{fill:#b3b3b3;}.cls-29,.cls-31,.cls-33,.cls-34,.cls-35,.cls-52{stroke-width:2.84px;}.cls-30{fill:#c2ddec;}.cls-34{fill:#f29a4a;}.cls-35{stroke:#a77858;}.cls-36{clip-path:url(#clip-path-2);}.cls-37,.cls-38{fill:#939280;}.cls-39{fill:#6bc7f1;}.cls-40{fill:#f2f0db;}.cls-41{clip-path:url(#clip-path-4);}.cls-42{fill:#ae9378;}.cls-43{fill:#f9d1bf;}.cls-43,.cls-44{stroke-width:3.04px;}.cls-45{fill:#ac9177;}.cls-47{clip-path:url(#clip-path-6);}.cls-48{clip-path:url(#clip-path-7);}.cls-49{fill:#bcb2ae;}.cls-50{fill:#827975;}.cls-51{fill:#928985;}.cls-52{stroke:#8d827f;}.cls-53{fill:#7fbe26;}.cls-54{stroke-width:4.43px;}.cls-55,.cls-56,.cls-57{fill:#fbebdf;}.cls-56,.cls-58,.cls-60{stroke-width:6.23px;}.cls-57,.cls-59{stroke-width:4.68px;}.cls-59{stroke:#e0bb52;}.cls-62{fill:#eab381;}.cls-63{fill:#f2abb7;}.cls-64{fill:#ebb988;}.cls-65{stroke:#fff;}.cls-66{stroke:#aa806a;}.cls-67{fill:#ddcbba;}.cls-68{fill:#a18f7e;}.cls-69{fill:#bfbfbf;}.cls-70{fill:#ef8b6e;stroke-width:5.61px;}.cls-71{fill:#7ebc25;}.cls-72{fill:#75ae21;}.cls-72,.cls-73,.cls-74{stroke:#3e7c18;}.cls-74{stroke-width:4.45px;}.cls-75{fill:#ffe51b;}.cls-76{stroke-width:4.81px;}.cls-77{fill:#eabd81;}.cls-78,.cls-79{stroke-width:4.01px;}</style><clipPath id="clip-path"><circle class="cls-1" cx="341.85" cy="490.76" r="73.03"/></clipPath><clipPath id="clip-path-2"><circle class="cls-1" cx="936.3" cy="490.76" r="73.03"/></clipPath><clipPath id="clip-path-4"><circle class="cls-1" cx="738.15" cy="490.76" r="73.03"/></clipPath><clipPath id="clip-path-6"><circle class="cls-1" cx="540" cy="490.76" r="73.03"/></clipPath><clipPath id="clip-path-7"><circle class="cls-2" cx="540" cy="490.76" r="73.03"/></clipPath></defs><title>互動設計UI</title><rect class="cls-3" width="1080" height="1920"/><circle class="cls-4" cx="539.67" cy="842.4" r="722.95"/><rect class="cls-4" x="394.23" y="1340.91" width="291.55" height="113.45" rx="47.57" ry="47.57"/><rect class="cls-5" x="399.84" y="1348.81" width="275.21" height="104.8" rx="43.94" ry="43.94"/><path class="cls-4" d="M431.62,1411.18a3.16,3.16,0,0,1-2.32-1,3.2,3.2,0,0,1-1-2.33v-22.21a3.16,3.16,0,0,1,1-2.32,3.13,3.13,0,0,1,2.32-1h6.8a20.24,20.24,0,0,1,4.52.47,11.39,11.39,0,0,1,3.64,1.54,7.08,7.08,0,0,1,2.53,2.92,11.13,11.13,0,0,1,0,8.86,8,8,0,0,1-2.51,3.1A11.34,11.34,0,0,1,443,1401a15.58,15.58,0,0,1-4.36.58h-3a.33.33,0,0,0-.38.38v5.89a3.29,3.29,0,0,1-3.29,3.29Zm3.63-15.38a.33.33,0,0,0,.38.38h2.64c3.32,0,5-1.47,5-4.42a3.37,3.37,0,0,0-1.29-3,6.88,6.88,0,0,0-3.89-.89h-2.45a.33.33,0,0,0-.38.38Z"/><path class="cls-4" d="M462.57,1411.71q-3.36,0-4.82-2a9.54,9.54,0,0,1-1.45-5.67v-20.48a3.28,3.28,0,0,1,3.28-3.28h.27a3.29,3.29,0,0,1,3.29,3.28v20.74a1.78,1.78,0,0,0,.71,1.7,2.35,2.35,0,0,0,.36.21,3,3,0,0,1,.42.25l.3.22a1,1,0,0,1,.3.32,1.25,1.25,0,0,1,.13.4l.19,1.21a3.15,3.15,0,0,1,0,.53,2.88,2.88,0,0,1-.45,1.55,2.11,2.11,0,0,1-1.66,1C463.17,1411.7,462.87,1411.71,462.57,1411.71Z"/><path class="cls-4" d="M476.59,1411.71a6.17,6.17,0,0,1-4.74-1.93,6.69,6.69,0,0,1-1.79-4.76,6.17,6.17,0,0,1,2.83-5.38q2.83-2,9-2.66a.31.31,0,0,0,.3-.42c-.25-1.64-1.33-2.46-3.25-2.46a9,9,0,0,0-3.47.8,2.78,2.78,0,0,1-1.14.26,2.84,2.84,0,0,1-.87-.15,2.42,2.42,0,0,1-1.51-1.21,2.76,2.76,0,0,1-.3-1.24,2.79,2.79,0,0,1,.11-.76,2.3,2.3,0,0,1,1.25-1.47,17,17,0,0,1,7.22-1.7q8.91,0,8.91,10v9.71a2.8,2.8,0,0,1-2.79,2.8h-.8a2.42,2.42,0,0,1-1.56-.55,2.34,2.34,0,0,1-.89-1.42l0-.15a.12.12,0,0,0-.11-.07.16.16,0,0,0-.12,0A9.52,9.52,0,0,1,476.59,1411.71Zm2.38-5.33a4.33,4.33,0,0,0,3.06-1.47.87.87,0,0,0,.27-.64v-2.76a.37.37,0,0,0-.12-.27.38.38,0,0,0-.22-.07h0q-5.32.8-5.33,3.32a1.67,1.67,0,0,0,.63,1.42A2.87,2.87,0,0,0,479,1406.38Z"/><path class="cls-4" d="M499.12,1419.75a6.08,6.08,0,0,1-.61,0,2,2,0,0,1-1.66-1,2.62,2.62,0,0,1-.42-1.4,3.07,3.07,0,0,1,.08-.67c.28-1.16,1.36-2,3.25-2.46a3.39,3.39,0,0,0,2.49-2.49l.23-.76a1,1,0,0,0,0-.72l-7.1-17.94a2.75,2.75,0,0,1-.15-.87,2.2,2.2,0,0,1,2.23-2.19h.37a4.35,4.35,0,0,1,2.63.87,4.43,4.43,0,0,1,1.64,2.26l1.93,6q.22.69,1.7,6.16a.13.13,0,0,0,.13.08c.06,0,.1,0,.1-.08q.38-1.82,1.43-6.16l1.66-6a4.08,4.08,0,0,1,1.53-2.26,4.26,4.26,0,0,1,2.63-.87,2.25,2.25,0,0,1,1.89,1,2.15,2.15,0,0,1,.45,1.32,2.39,2.39,0,0,1-.15.8l-6.5,18.92a17,17,0,0,1-3.83,6.48A8.38,8.38,0,0,1,499.12,1419.75Z"/><path class="cls-4" d="M538,1411.71a6.17,6.17,0,0,1-4.74-1.93,6.73,6.73,0,0,1-1.79-4.76,6.17,6.17,0,0,1,2.83-5.38q2.84-2,9-2.66a.31.31,0,0,0,.3-.42c-.25-1.64-1.33-2.46-3.25-2.46a9.05,9.05,0,0,0-3.47.8,2.78,2.78,0,0,1-1.14.26,2.73,2.73,0,0,1-.86-.15,2.44,2.44,0,0,1-1.52-1.21,2.76,2.76,0,0,1-.3-1.24,2.46,2.46,0,0,1,.12-.76,2.26,2.26,0,0,1,1.24-1.47,17,17,0,0,1,7.22-1.7q8.91,0,8.91,10v9.71a2.66,2.66,0,0,1-.83,2,2.71,2.71,0,0,1-2,.81H547a2.44,2.44,0,0,1-1.56-.55,2.39,2.39,0,0,1-.89-1.42l0-.15a.11.11,0,0,0-.11-.07.16.16,0,0,0-.12,0A9.52,9.52,0,0,1,538,1411.71Zm2.38-5.33a4.33,4.33,0,0,0,3.06-1.47.87.87,0,0,0,.27-.64v-2.76a.37.37,0,0,0-.12-.27.38.38,0,0,0-.22-.07h0q-5.33.8-5.33,3.32a1.67,1.67,0,0,0,.63,1.42A2.87,2.87,0,0,0,540.38,1406.38Z"/><path class="cls-4" d="M565.7,1420.55A18.06,18.06,0,0,1,561,1420a7.28,7.28,0,0,1-3.31-1.83,4.35,4.35,0,0,1-1.28-3.18c0-1.78,1-3.21,3.06-4.26a.23.23,0,0,0,.07-.17.14.14,0,0,0-.07-.14,4.43,4.43,0,0,1-1.29-6,6.29,6.29,0,0,1,1.7-1.83.22.22,0,0,0,.08-.15.12.12,0,0,0-.08-.11,7.53,7.53,0,0,1-2.08-2.38,6.55,6.55,0,0,1-.83-3.25,7.46,7.46,0,0,1,1.34-4.44,7.85,7.85,0,0,1,3.39-2.72,11.48,11.48,0,0,1,4.49-.85,11.19,11.19,0,0,1,3.14.42,2.68,2.68,0,0,0,.72.11h5.21a2.42,2.42,0,0,1,1.76.73,2.45,2.45,0,0,1,.73,1.78,2.37,2.37,0,0,1-.73,1.76,2.44,2.44,0,0,1-1.76.71h-.57a.19.19,0,0,0-.17.12.28.28,0,0,0,0,.22,5.8,5.8,0,0,1,.46,2.35,6.54,6.54,0,0,1-2.44,5.53,10.09,10.09,0,0,1-6.33,1.87,9,9,0,0,1-2.23-.3.59.59,0,0,0-.64.15,1.93,1.93,0,0,0-.42,1.29,1.18,1.18,0,0,0,.76,1.13,6.68,6.68,0,0,0,2.49.34h3.48q8.46,0,8.46,5.66a6.63,6.63,0,0,1-3.38,5.73Q571.38,1420.55,565.7,1420.55Zm1.06-4.31a7.45,7.45,0,0,0,3.46-.7,2,2,0,0,0,1.34-1.75,1.25,1.25,0,0,0-.78-1.25,6.33,6.33,0,0,0-2.43-.34h-2.08a18.48,18.48,0,0,1-2.76-.15.5.5,0,0,0-.19,0,.61.61,0,0,0-.45.19,2.37,2.37,0,0,0-.79,1.7,1.88,1.88,0,0,0,1.26,1.76A8.32,8.32,0,0,0,566.76,1416.24Zm-.53-16a2.55,2.55,0,0,0,2-.89,3.74,3.74,0,0,0,.78-2.55,3.67,3.67,0,0,0-.78-2.53,2.57,2.57,0,0,0-2-.87,2.54,2.54,0,0,0-2,.89,3.68,3.68,0,0,0-.77,2.51,3.74,3.74,0,0,0,.77,2.55A2.57,2.57,0,0,0,566.23,1400.19Z"/><path class="cls-4" d="M588.34,1411.71a6.14,6.14,0,0,1-4.74-1.93,6.7,6.7,0,0,1-1.8-4.76,6.18,6.18,0,0,1,2.84-5.38c1.89-1.3,4.89-2.19,9-2.66a.31.31,0,0,0,.3-.42c-.25-1.64-1.34-2.46-3.25-2.46a9.06,9.06,0,0,0-3.48.8,2.7,2.7,0,0,1-1.13.26,2.75,2.75,0,0,1-.87-.15,2.42,2.42,0,0,1-1.51-1.21,2.76,2.76,0,0,1-.3-1.24,2.79,2.79,0,0,1,.11-.76,2.27,2.27,0,0,1,1.25-1.47,17,17,0,0,1,7.21-1.7q8.93,0,8.92,10v9.71a2.7,2.7,0,0,1-.83,2,2.74,2.74,0,0,1-2,.81h-.79a2.46,2.46,0,0,1-1.57-.55,2.44,2.44,0,0,1-.89-1.42l0-.15a.13.13,0,0,0-.12-.07.12.12,0,0,0-.11,0A9.52,9.52,0,0,1,588.34,1411.71Zm2.38-5.33a4.33,4.33,0,0,0,3.06-1.47.9.9,0,0,0,.26-.64v-2.76a.36.36,0,0,0-.11-.27.41.41,0,0,0-.23-.07h0c-3.56.53-5.33,1.64-5.33,3.32a1.69,1.69,0,0,0,.62,1.42A2.9,2.9,0,0,0,590.72,1406.38Z"/><path class="cls-4" d="M611.58,1386.09a4.12,4.12,0,0,1-2.85-1,3.2,3.2,0,0,1-1.12-2.53,3.27,3.27,0,0,1,1.12-2.55,4.08,4.08,0,0,1,2.85-1,4,4,0,0,1,2.8,1,3.31,3.31,0,0,1,1.09,2.55,3.24,3.24,0,0,1-1.09,2.53A4,4,0,0,1,611.58,1386.09Zm-.15,25.09a3.29,3.29,0,0,1-3.29-3.29v-15.45a3.29,3.29,0,0,1,3.29-3.28h.26a3.19,3.19,0,0,1,2.33,1,3.16,3.16,0,0,1,1,2.32v15.45a3.28,3.28,0,0,1-3.29,3.29Z"/><path class="cls-4" d="M625.75,1411.18a3.28,3.28,0,0,1-3.28-3.29V1392a2.75,2.75,0,0,1,.81-2,2.64,2.64,0,0,1,2-.83h.31a2.83,2.83,0,0,1,1.9.69,3,3,0,0,1,1,1.8l0,.19c0,.05,0,.07.1.07a.17.17,0,0,0,.13,0,10,10,0,0,1,7-3.24,5.92,5.92,0,0,1,5.15,2.34,11.19,11.19,0,0,1,1.69,6.61v10.31a3.2,3.2,0,0,1-1,2.33,3.16,3.16,0,0,1-2.32,1H639a3.28,3.28,0,0,1-3.29-3.29v-9.48a5.57,5.57,0,0,0-.6-3,2.25,2.25,0,0,0-2-.85,3.78,3.78,0,0,0-1.79.4,7.76,7.76,0,0,0-1.76,1.3.86.86,0,0,0-.26.64v11a3.2,3.2,0,0,1-1,2.33,3.16,3.16,0,0,1-2.32,1Z"/><rect class="cls-6" x="394.23" y="1340.91" width="291.55" height="113.45" rx="47.57" ry="47.57"/><path class="cls-7" d="M266.42,1289.45a3.14,3.14,0,0,1-3.14-3.14V1265.2a3.14,3.14,0,0,1,3.14-3.14h5.93q9.9,0,9.9,6.76a6.82,6.82,0,0,1-1,3.58,5.38,5.38,0,0,1-2.61,2.31c-.08,0-.11,0-.11.11s0,.1.07.1a6.81,6.81,0,0,1,3.68,2.21,6.34,6.34,0,0,1,1.38,4.26,6.87,6.87,0,0,1-2.93,6,13.12,13.12,0,0,1-7.66,2Zm2.35-16.62a.32.32,0,0,0,.36.36H272a6.14,6.14,0,0,0,3.76-.94,3.14,3.14,0,0,0,1.23-2.64,2.85,2.85,0,0,0-1.21-2.56,6.88,6.88,0,0,0-3.71-.8h-2.89a.32.32,0,0,0-.36.36Zm0,12a.32.32,0,0,0,.36.36h3.43q5.79,0,5.79-4.15a3.16,3.16,0,0,0-1.45-2.89,8.23,8.23,0,0,0-4.34-.91h-3.43a.32.32,0,0,0-.36.36Z"/><path class="cls-7" d="M289.19,1297.87a5.44,5.44,0,0,1-.73,0,1.59,1.59,0,0,1-1.37-.79,2.12,2.12,0,0,1-.25-1.66c.24-1,1.12-1.67,2.64-1.88a4,4,0,0,0,3.18-3.11l.28-.87a.93.93,0,0,0,0-.68L286,1271.38a2,2,0,0,1-.14-.72,1.62,1.62,0,0,1,.36-1,1.69,1.69,0,0,1,1.51-.83,3.73,3.73,0,0,1,2.23.72,3.84,3.84,0,0,1,1.39,1.88l2.42,7q.11.28,1.7,5.78a.11.11,0,0,0,.12.07.13.13,0,0,0,.13-.07c.14-.63.39-1.58.72-2.87s.58-2.26.73-2.91l2.13-7.12a3.44,3.44,0,0,1,1.24-1.79,3.35,3.35,0,0,1,2.08-.7,1.73,1.73,0,0,1,1.52.79,1.71,1.71,0,0,1,.36,1.05,2.08,2.08,0,0,1-.11.62l-6.5,18.89a15.7,15.7,0,0,1-3.43,5.82A7.27,7.27,0,0,1,289.19,1297.87Z"/><path class="cls-7" d="M324.56,1290q-6.82,0-6.83-7.77v-8.86c0-.21-.09-.32-.29-.32h-.61a2,2,0,0,1-2-2,2.12,2.12,0,0,1,.58-1.5,2.08,2.08,0,0,1,1.41-.7l.83-.07a.35.35,0,0,0,.4-.33l.32-3a2.54,2.54,0,0,1,2.53-2.28,2.18,2.18,0,0,1,1.61.67,2.22,2.22,0,0,1,.67,1.61v2.92a.33.33,0,0,0,.36.37h2.6a2.07,2.07,0,0,1,1.5.61,2.15,2.15,0,0,1,0,3,2.11,2.11,0,0,1-1.5.61h-2.6a.32.32,0,0,0-.36.36v8.82q0,3.49,2.82,3.5h.1a3.22,3.22,0,0,1,1.52.36,1.62,1.62,0,0,1,.83,1.16,1.81,1.81,0,0,1,.08.51,2.19,2.19,0,0,1-.29,1.08,1.84,1.84,0,0,1-1.27.94A14.33,14.33,0,0,1,324.56,1290Z"/><path class="cls-7" d="M337.12,1288.66a2.55,2.55,0,0,1-1.9.79,2.59,2.59,0,0,1-1.91-.79,2.62,2.62,0,0,1-.8-1.92v-24.1a2.62,2.62,0,0,1,.8-1.92,2.59,2.59,0,0,1,1.91-.79,2.55,2.55,0,0,1,1.9.79,2.63,2.63,0,0,1,.77,1.92v4.73l-.18,3.51a.13.13,0,0,0,.09.14.15.15,0,0,0,.17,0,9.27,9.27,0,0,1,6.21-2.79q6.44,0,6.43,8.35v10.19a2.7,2.7,0,0,1-2.72,2.71,2.64,2.64,0,0,1-1.94-.79,2.61,2.61,0,0,1-.79-1.92v-9.54a6.07,6.07,0,0,0-.69-3.34,2.53,2.53,0,0,0-2.24-1,4.18,4.18,0,0,0-2,.49,10.22,10.22,0,0,0-2,1.61.79.79,0,0,0-.29.61v11.17A2.63,2.63,0,0,1,337.12,1288.66Z"/><path class="cls-7" d="M365.18,1290a10,10,0,0,1-7.39-2.93,10.72,10.72,0,0,1-2.91-7.91,12.43,12.43,0,0,1,.81-4.52A9.79,9.79,0,0,1,361,1269a8.61,8.61,0,0,1,3.57-.78,7.88,7.88,0,0,1,6.26,2.57,9.89,9.89,0,0,1,2.42,6.83,2.63,2.63,0,0,1-1,2.09,3.47,3.47,0,0,1-2.42.91h-9.29a.27.27,0,0,0-.21.11.24.24,0,0,0-.08.25,5.42,5.42,0,0,0,5.68,4.84,7.8,7.8,0,0,0,3-.58,2.26,2.26,0,0,1,.87-.18,3,3,0,0,1,.61.07,1.79,1.79,0,0,1,1.16.91,2,2,0,0,1,.25,1,1.79,1.79,0,0,1-.07.51,1.54,1.54,0,0,1-.9,1.12A12.73,12.73,0,0,1,365.18,1290Zm-5-13.23a.29.29,0,0,0,.07.18.27.27,0,0,0,.22.11h7.73a.38.38,0,0,0,.26-.11.34.34,0,0,0,.11-.25,5.06,5.06,0,0,0-1.09-3.13,3.62,3.62,0,0,0-2.85-1.1,4.16,4.16,0,0,0-2.86,1.09A4.27,4.27,0,0,0,360.15,1276.73Z"/><path class="cls-7" d="M393.61,1290q-6.83,0-6.83-7.77v-8.86c0-.21-.09-.32-.29-.32h-.61a2,2,0,0,1-2-2,2.17,2.17,0,0,1,.58-1.5,2.13,2.13,0,0,1,1.41-.7l.83-.07a.35.35,0,0,0,.4-.33l.32-3a2.53,2.53,0,0,1,.83-1.63,2.49,2.49,0,0,1,1.7-.65,2.29,2.29,0,0,1,2.28,2.28v2.92a.33.33,0,0,0,.36.37h2.6a2.07,2.07,0,0,1,1.5.61,2.15,2.15,0,0,1,0,3,2.11,2.11,0,0,1-1.5.61h-2.6a.32.32,0,0,0-.36.36v8.82q0,3.49,2.82,3.5h.11a3.18,3.18,0,0,1,1.51.36,1.62,1.62,0,0,1,.83,1.16,1.81,1.81,0,0,1,.08.51,2.19,2.19,0,0,1-.29,1.08,1.84,1.84,0,0,1-1.27.94A14.33,14.33,0,0,1,393.61,1290Z"/><path class="cls-7" d="M406.17,1288.66a2.55,2.55,0,0,1-1.9.79,2.59,2.59,0,0,1-1.91-.79,2.62,2.62,0,0,1-.8-1.92v-24.1a2.62,2.62,0,0,1,.8-1.92,2.59,2.59,0,0,1,1.91-.79,2.55,2.55,0,0,1,1.9.79,2.64,2.64,0,0,1,.78,1.92v4.73l-.19,3.51a.13.13,0,0,0,.1.14.14.14,0,0,0,.16,0,9.29,9.29,0,0,1,6.21-2.79q6.43,0,6.43,8.35v10.19a2.7,2.7,0,0,1-2.72,2.71,2.64,2.64,0,0,1-1.94-.79,2.61,2.61,0,0,1-.79-1.92v-9.54a6.07,6.07,0,0,0-.69-3.34,2.53,2.53,0,0,0-2.24-1,4.11,4.11,0,0,0-2,.49,10.53,10.53,0,0,0-2,1.61.78.78,0,0,0-.28.61v11.17A2.64,2.64,0,0,1,406.17,1288.66Z"/><path class="cls-7" d="M428,1265.38a3.35,3.35,0,0,1-2.34-.83,2.74,2.74,0,0,1-.92-2.13,2.68,2.68,0,0,1,.91-2.11,3.69,3.69,0,0,1,4.64,0,2.68,2.68,0,0,1,.92,2.11,2.74,2.74,0,0,1-.92,2.13A3.26,3.26,0,0,1,428,1265.38Zm1.86,23.28a2.55,2.55,0,0,1-1.9.79,2.7,2.7,0,0,1-2.71-2.71v-15.32a2.55,2.55,0,0,1,.79-1.9,2.63,2.63,0,0,1,1.92-.77,2.57,2.57,0,0,1,1.9.77,2.61,2.61,0,0,1,.77,1.9v15.32A2.67,2.67,0,0,1,429.84,1288.66Z"/><path class="cls-7" d="M441.07,1288.66a2.53,2.53,0,0,1-1.89.79,2.7,2.7,0,0,1-2.71-2.71V1271a2.22,2.22,0,0,1,2.2-2.2,2.4,2.4,0,0,1,1.65.63,2.43,2.43,0,0,1,.81,1.57l.14,1.37a.07.07,0,0,0,.07.08.12.12,0,0,0,.11-.08,9.16,9.16,0,0,1,2.68-3,5.5,5.5,0,0,1,3.18-1.09h.11a1.79,1.79,0,0,1,1.51.91,2.36,2.36,0,0,1,.4,1.33,2.54,2.54,0,0,1-.07.58,2.14,2.14,0,0,1-1,1.43,3.82,3.82,0,0,1-1.82.6,4.44,4.44,0,0,0-2.46,1,6.59,6.59,0,0,0-2,2.75,1.57,1.57,0,0,0-.15.68v9.29A2.64,2.64,0,0,1,441.07,1288.66Z"/><path class="cls-7" d="M459.52,1290a7.52,7.52,0,0,1-6.2-2.89q-2.29-2.89-2.29-8a11.72,11.72,0,0,1,2.58-7.9,7.85,7.85,0,0,1,6.13-3,6.55,6.55,0,0,1,2.69.51,9.09,9.09,0,0,1,2.29,1.52.12.12,0,0,0,.17,0,.08.08,0,0,0,.05-.12l-.18-2.89v-4.59a2.7,2.7,0,0,1,2.71-2.71,2.65,2.65,0,0,1,1.93.79,2.6,2.6,0,0,1,.82,1.92v24.61a2.12,2.12,0,0,1-.65,1.55,2.16,2.16,0,0,1-1.56.65h-.25a2.39,2.39,0,0,1-1.54-.54,2.24,2.24,0,0,1-.81-1.38l0-.18a.12.12,0,0,0-.09,0l-.09,0A8.14,8.14,0,0,1,459.52,1290Zm-1.79-6.11a3.63,3.63,0,0,0,3.18,1.63,4.62,4.62,0,0,0,3.63-1.85,1,1,0,0,0,.22-.65v-8.38a.71.71,0,0,0-.29-.58,5.38,5.38,0,0,0-3.54-1.34,3.68,3.68,0,0,0-3.07,1.7,7.81,7.81,0,0,0-1.23,4.66A8.64,8.64,0,0,0,457.73,1283.85Z"/><path class="cls-7" d="M491.72,1290a7.51,7.51,0,0,1-6.2-2.89q-2.29-2.89-2.3-8a11.68,11.68,0,0,1,2.59-7.9,7.83,7.83,0,0,1,6.12-3,6.49,6.49,0,0,1,2.69.51,9.14,9.14,0,0,1,2.3,1.52.11.11,0,0,0,.16,0q.09,0,.06-.12l-.19-2.89v-4.59a2.71,2.71,0,0,1,2.71-2.71,2.67,2.67,0,0,1,1.94.79,2.59,2.59,0,0,1,.81,1.92v24.61a2.22,2.22,0,0,1-2.2,2.2H500a2.36,2.36,0,0,1-1.53-.54,2.21,2.21,0,0,1-.82-1.38l0-.18-.09,0a.12.12,0,0,0-.09,0A8.16,8.16,0,0,1,491.72,1290Zm-1.79-6.11a3.61,3.61,0,0,0,3.18,1.63,4.65,4.65,0,0,0,3.63-1.85,1.07,1.07,0,0,0,.21-.65v-8.38a.7.7,0,0,0-.28-.58,5.38,5.38,0,0,0-3.55-1.34,3.69,3.69,0,0,0-3.07,1.7,7.81,7.81,0,0,0-1.23,4.66A8.55,8.55,0,0,0,489.93,1283.85Z"/><path class="cls-7" d="M513.32,1290a5.92,5.92,0,0,1-4.44-1.74,6,6,0,0,1-1.7-4.41,5.8,5.8,0,0,1,2.76-5.11c1.85-1.22,4.78-2,8.8-2.51a.33.33,0,0,0,.33-.4,3.13,3.13,0,0,0-3.47-3.21,9.11,9.11,0,0,0-3.9,1,2.32,2.32,0,0,1-.94.21,2.05,2.05,0,0,1-.65-.1,1.92,1.92,0,0,1-1.2-.94,2.07,2.07,0,0,1-.28-1,1.63,1.63,0,0,1,.1-.57,1.85,1.85,0,0,1,1-1.23,15.37,15.37,0,0,1,6.87-1.74,7.43,7.43,0,0,1,5.94,2.33c1.34,1.56,2,3.83,2,6.82v9.9a2.09,2.09,0,0,1-.65,1.55,2.12,2.12,0,0,1-1.55.65h-.18a2.38,2.38,0,0,1-1.57-.56,2.43,2.43,0,0,1-.85-1.43v-.18l-.09,0a.12.12,0,0,0-.09,0A9.74,9.74,0,0,1,513.32,1290Zm1.77-4.23a5.47,5.47,0,0,0,3.76-1.81.82.82,0,0,0,.25-.61v-3.44a.35.35,0,0,0-.1-.25.29.29,0,0,0-.22-.07h0a12.16,12.16,0,0,0-4.89,1.44,2.85,2.85,0,0,0-1.47,2.39,2.12,2.12,0,0,0,.74,1.77A3.1,3.1,0,0,0,515.09,1285.73Z"/><path class="cls-7" d="M531.9,1297.87a5.44,5.44,0,0,1-.73,0,1.59,1.59,0,0,1-1.37-.79,2,2,0,0,1-.25-1.66c.24-1,1.12-1.67,2.63-1.88a4,4,0,0,0,3.18-3.11l.29-.87a.93.93,0,0,0,0-.68l-6.94-17.46a2,2,0,0,1-.14-.72,1.62,1.62,0,0,1,.36-1,1.69,1.69,0,0,1,1.51-.83,3.73,3.73,0,0,1,2.23.72,3.84,3.84,0,0,1,1.39,1.88l2.42,7q.1.28,1.7,5.78a.11.11,0,0,0,.12.07.13.13,0,0,0,.13-.07c.14-.63.38-1.58.72-2.87s.58-2.26.73-2.91l2.13-7.12a3.44,3.44,0,0,1,1.24-1.79,3.35,3.35,0,0,1,2.08-.7,1.73,1.73,0,0,1,1.52.79,1.71,1.71,0,0,1,.36,1.05,2.08,2.08,0,0,1-.11.62l-6.5,18.89a15.7,15.7,0,0,1-3.43,5.82A7.27,7.27,0,0,1,531.9,1297.87Z"/><path class="cls-7" d="M550.76,1296.82a1.34,1.34,0,0,1-1.23,0,1.54,1.54,0,0,1-.83-.9,1.67,1.67,0,0,1-.11-.54,1.65,1.65,0,0,1,.14-.65,1.86,1.86,0,0,1,.83-.94,5.14,5.14,0,0,0,3-4,.33.33,0,0,0-.1-.25.34.34,0,0,0-.26-.11,3.44,3.44,0,0,1-2.38-.87,3.25,3.25,0,0,1,0-4.68,3.67,3.67,0,0,1,2.5-.88,3.4,3.4,0,0,1,2.91,1.41,6.58,6.58,0,0,1,1,3.93,9,9,0,0,1-1.45,5.08A9.79,9.79,0,0,1,550.76,1296.82Z"/><path class="cls-7" d="M574.1,1288.73a2.46,2.46,0,0,1-4.19-1.74V1265.1a3,3,0,0,1,3-3,4.23,4.23,0,0,1,2.5.8,4.4,4.4,0,0,1,1.59,2.05l3.61,10q.15.43,1.63,5.2a.11.11,0,0,0,.12.07.14.14,0,0,0,.13-.07c.17-.53.43-1.38.79-2.55s.64-2,.83-2.65l3.55-10a4.27,4.27,0,0,1,1.59-2.05,4.13,4.13,0,0,1,2.45-.8,3,3,0,0,1,3,3V1287a2.46,2.46,0,0,1-2.48,2.49,2.47,2.47,0,0,1-1.77-.72,2.39,2.39,0,0,1-.74-1.77V1278c0-1.56.22-4.54.65-8.92,0,0,0-.08,0-.08s-.09,0-.09.08l-2.21,6.36-3.68,10a2.26,2.26,0,0,1-.83,1,2.29,2.29,0,0,1-1.29.4,2.27,2.27,0,0,1-2.11-1.45l-3.72-10-2.13-6.36s-.06-.08-.11-.08-.07,0-.07.08q.68,6.9.68,8.92v9A2.37,2.37,0,0,1,574.1,1288.73Z"/><path class="cls-7" d="M610.05,1290a10,10,0,0,1-7.39-2.93,10.72,10.72,0,0,1-2.91-7.91,12.43,12.43,0,0,1,.82-4.52,9.79,9.79,0,0,1,5.26-5.62,8.57,8.57,0,0,1,3.57-.78,7.85,7.85,0,0,1,6.25,2.57,9.84,9.84,0,0,1,2.42,6.83,2.62,2.62,0,0,1-1,2.09,3.49,3.49,0,0,1-2.42.91h-9.29a.31.31,0,0,0-.22.11.25.25,0,0,0-.07.25,5.42,5.42,0,0,0,5.68,4.84,7.84,7.84,0,0,0,3-.58,2.26,2.26,0,0,1,.87-.18,3,3,0,0,1,.61.07,1.82,1.82,0,0,1,1.16.91,2.12,2.12,0,0,1,.25,1,2.24,2.24,0,0,1-.07.51,1.55,1.55,0,0,1-.91,1.12A12.66,12.66,0,0,1,610.05,1290Zm-5-13.23a.24.24,0,0,0,.07.18.25.25,0,0,0,.22.11h7.73a.34.34,0,0,0,.25-.11.31.31,0,0,0,.11-.25,5,5,0,0,0-1.08-3.13,3.63,3.63,0,0,0-2.86-1.1,4.15,4.15,0,0,0-2.85,1.09A4.27,4.27,0,0,0,605,1276.73Z"/><path class="cls-7" d="M631.34,1290a9.75,9.75,0,0,1-7.29-2.91,10.89,10.89,0,0,1-2.83-7.93,11.37,11.37,0,0,1,1.48-5.86,9.78,9.78,0,0,1,3.87-3.79,10.92,10.92,0,0,1,5.24-1.27,8.77,8.77,0,0,1,4.22,1,1.78,1.78,0,0,1,.94,1.37,1.35,1.35,0,0,1,0,.33,2,2,0,0,1-.47,1.3,2.06,2.06,0,0,1-1.41.83,3.44,3.44,0,0,1-.54,0,3,3,0,0,1-1.2-.26,4.25,4.25,0,0,0-1.33-.21,4.69,4.69,0,0,0-3.81,1.77,8.25,8.25,0,0,0,0,9.34,4.55,4.55,0,0,0,3.7,1.75,5.77,5.77,0,0,0,2.28-.5,2.33,2.33,0,0,1,1-.26,5.29,5.29,0,0,1,.54,0,1.8,1.8,0,0,1,1.23.87,2.2,2.2,0,0,1,.36,1.19,2.35,2.35,0,0,1,0,.47,1.89,1.89,0,0,1-.94,1.34A10.32,10.32,0,0,1,631.34,1290Z"/><path class="cls-7" d="M646.6,1288.66a2.55,2.55,0,0,1-1.9.79,2.71,2.71,0,0,1-2.71-2.71v-24.1a2.71,2.71,0,0,1,2.71-2.71,2.55,2.55,0,0,1,1.9.79,2.64,2.64,0,0,1,.78,1.92v4.73l-.18,3.51a.13.13,0,0,0,.09.14.14.14,0,0,0,.16,0,9.29,9.29,0,0,1,6.22-2.79q6.42,0,6.43,8.35v10.19a2.73,2.73,0,0,1-5.46,0v-9.54a6.07,6.07,0,0,0-.69-3.34,2.52,2.52,0,0,0-2.24-1,4.14,4.14,0,0,0-2,.49,10.22,10.22,0,0,0-2,1.61.76.76,0,0,0-.29.61v11.17A2.64,2.64,0,0,1,646.6,1288.66Z"/><path class="cls-7" d="M670.76,1290a5.94,5.94,0,0,1-4.45-1.74,6,6,0,0,1-1.7-4.41,5.8,5.8,0,0,1,2.77-5.11c1.84-1.22,4.77-2,8.8-2.51a.32.32,0,0,0,.32-.4,3.13,3.13,0,0,0-3.47-3.21,9.11,9.11,0,0,0-3.9,1,2.29,2.29,0,0,1-.94.21,2.1,2.1,0,0,1-.65-.1,1.88,1.88,0,0,1-1.19-.94,2.08,2.08,0,0,1-.29-1,1.65,1.65,0,0,1,.11-.57,1.83,1.83,0,0,1,1-1.23,15.4,15.4,0,0,1,6.87-1.74,7.41,7.41,0,0,1,5.94,2.33q2,2.34,2,6.82v9.9a2.12,2.12,0,0,1-.65,1.55,2.15,2.15,0,0,1-1.56.65h-.18a2.4,2.4,0,0,1-1.57-.56,2.48,2.48,0,0,1-.85-1.43v-.18a.12.12,0,0,0-.09,0l-.09,0A9.74,9.74,0,0,1,670.76,1290Zm1.77-4.23a5.5,5.5,0,0,0,3.76-1.81.86.86,0,0,0,.25-.61v-3.44a.36.36,0,0,0-.11-.25.29.29,0,0,0-.22-.07h0a12.27,12.27,0,0,0-4.9,1.44,2.86,2.86,0,0,0-1.46,2.39,2.09,2.09,0,0,0,.74,1.77A3.08,3.08,0,0,0,672.53,1285.73Z"/><path class="cls-7" d="M701.83,1290a12.44,12.44,0,0,1-6.18-1.74,1.67,1.67,0,0,1-.86-1.3,1.33,1.33,0,0,1,0-.32,2.14,2.14,0,0,1,1.81-2.1H697a2.37,2.37,0,0,1,1.2.32,7.76,7.76,0,0,0,3.83,1.09,3.58,3.58,0,0,0,2.24-.6,2,2,0,0,0,.76-1.61,1.42,1.42,0,0,0-.24-.77,2.57,2.57,0,0,0-.52-.63,4.44,4.44,0,0,0-.91-.56,10,10,0,0,0-1-.47l-1.19-.49a3.38,3.38,0,0,1-.47-.18,18,18,0,0,1-2-.89,10.79,10.79,0,0,1-1.77-1.17,4.9,4.9,0,0,1-1.4-1.74,5.14,5.14,0,0,1-.48-2.24,5.7,5.7,0,0,1,2.11-4.59,8.41,8.41,0,0,1,5.58-1.77,10.78,10.78,0,0,1,5.35,1.45,1.52,1.52,0,0,1,.87,1.23,2.19,2.19,0,0,1,0,.36,1.87,1.87,0,0,1-.39,1.16,2.12,2.12,0,0,1-1.38.83,3.38,3.38,0,0,1-.47,0,2.61,2.61,0,0,1-1.12-.25,6.16,6.16,0,0,0-2.74-.72,3.25,3.25,0,0,0-2,.54,1.75,1.75,0,0,0-.68,1.44,2.26,2.26,0,0,0,0,.47,1.06,1.06,0,0,0,.22.42l.31.36a1.45,1.45,0,0,0,.45.33l.5.27c.14.07.34.16.62.27l.63.25.7.27c.33.12.56.21.71.25l1.68.69a10.73,10.73,0,0,1,1.52.85,6.36,6.36,0,0,1,1.35,1.16,5.17,5.17,0,0,1,.87,1.51,5.62,5.62,0,0,1,.36,2.05,5.87,5.87,0,0,1-2.17,4.69A9.08,9.08,0,0,1,701.83,1290Z"/><path class="cls-7" d="M726.6,1289.21a9.78,9.78,0,0,1-7.51,0,9.77,9.77,0,0,1-3.17-2.09,9.94,9.94,0,0,1-2.2-3.43,13.05,13.05,0,0,1,0-9.16,10,10,0,0,1,2.2-3.47,9.77,9.77,0,0,1,13.84,0,10,10,0,0,1,2.21,3.47,13.05,13.05,0,0,1,0,9.16,10,10,0,0,1-2.21,3.43A9.73,9.73,0,0,1,726.6,1289.21Zm-7-5.42a3.9,3.9,0,0,0,6.47,0,8.25,8.25,0,0,0,1.15-4.67,8.48,8.48,0,0,0-1.15-4.72,3.87,3.87,0,0,0-6.47,0,8.47,8.47,0,0,0-1.16,4.72A8.25,8.25,0,0,0,719.61,1283.79Z"/><path class="cls-7" d="M742.45,1290a4.55,4.55,0,0,1-3.91-1.63,7.89,7.89,0,0,1-1.19-4.7v-21a2.62,2.62,0,0,1,.8-1.92,2.59,2.59,0,0,1,1.91-.79,2.55,2.55,0,0,1,1.9.79,2.64,2.64,0,0,1,.78,1.92v21.25a1.56,1.56,0,0,0,.65,1.51,1.26,1.26,0,0,0,.32.18c.19.1.33.17.4.22l.31.22a.83.83,0,0,1,.27.3,2,2,0,0,1,.1.35l.15.79a3.27,3.27,0,0,1,0,.44,2.26,2.26,0,0,1-.37,1.22,1.65,1.65,0,0,1-1.33.8C743,1289.94,742.74,1290,742.45,1290Z"/><path class="cls-7" d="M759.34,1288.62a4.25,4.25,0,0,1-2.55.83,4.35,4.35,0,0,1-2.56-.81,4.06,4.06,0,0,1-1.59-2.15l-5.17-15.18a2.11,2.11,0,0,1-.11-.65,2,2,0,0,1,.36-1.12,1.87,1.87,0,0,1,1.59-.79,3.63,3.63,0,0,1,2.21.72,3.46,3.46,0,0,1,1.3,1.88l2.27,7.69c.2.8.5,2,.91,3.45s.65,2.43.72,2.77c0,0,.06.07.13.07a.11.11,0,0,0,.12-.07q.43-1.85,1.63-6.22l2.31-7.8a3.43,3.43,0,0,1,3.32-2.49,1.85,1.85,0,0,1,1.92,1.84,2,2,0,0,1-.11.61L761,1286.45A4.48,4.48,0,0,1,759.34,1288.62Z"/><path class="cls-7" d="M779,1290a10,10,0,0,1-7.39-2.93,10.72,10.72,0,0,1-2.91-7.91,12.43,12.43,0,0,1,.81-4.52,9.79,9.79,0,0,1,5.26-5.62,8.65,8.65,0,0,1,3.58-.78,7.88,7.88,0,0,1,6.25,2.57,9.89,9.89,0,0,1,2.42,6.83,2.63,2.63,0,0,1-1,2.09,3.47,3.47,0,0,1-2.42.91h-9.28a.28.28,0,0,0-.22.11.23.23,0,0,0-.07.25,5.63,5.63,0,0,0,1.91,3.59,5.74,5.74,0,0,0,3.76,1.25,7.8,7.8,0,0,0,3-.58,2.26,2.26,0,0,1,.87-.18,2.92,2.92,0,0,1,.61.07,1.79,1.79,0,0,1,1.16.91,2,2,0,0,1,.25,1,1.79,1.79,0,0,1-.07.51,1.54,1.54,0,0,1-.9,1.12A12.69,12.69,0,0,1,779,1290Zm-5-13.23a.25.25,0,0,0,.08.18.24.24,0,0,0,.21.11H782a.36.36,0,0,0,.25-.11.34.34,0,0,0,.11-.25,5,5,0,0,0-1.09-3.13,3.62,3.62,0,0,0-2.85-1.1,4.18,4.18,0,0,0-2.86,1.09A4.27,4.27,0,0,0,774,1276.73Z"/><path class="cls-7" d="M798.74,1290a7.49,7.49,0,0,1-6.19-2.89q-2.29-2.89-2.3-8a11.72,11.72,0,0,1,2.58-7.9,7.86,7.86,0,0,1,6.13-3,6.55,6.55,0,0,1,2.69.51,9.32,9.32,0,0,1,2.3,1.52.11.11,0,0,0,.16,0c.06,0,.08-.07,0-.12l-.18-2.89v-4.59a2.62,2.62,0,0,1,.8-1.92,2.59,2.59,0,0,1,1.91-.79,2.65,2.65,0,0,1,1.93.79,2.56,2.56,0,0,1,.82,1.92v24.61a2.12,2.12,0,0,1-.65,1.55,2.15,2.15,0,0,1-1.56.65H807a2.35,2.35,0,0,1-1.53-.54,2.21,2.21,0,0,1-.82-1.38l0-.18-.09,0a.12.12,0,0,0-.09,0A8.16,8.16,0,0,1,798.74,1290Zm-1.79-6.11a3.63,3.63,0,0,0,3.18,1.63,4.62,4.62,0,0,0,3.63-1.85,1,1,0,0,0,.22-.65v-8.38a.68.68,0,0,0-.29-.58,5.38,5.38,0,0,0-3.54-1.34,3.68,3.68,0,0,0-3.07,1.7,7.81,7.81,0,0,0-1.23,4.66A8.64,8.64,0,0,0,797,1283.85Z"/><path class="cls-4" d="M632,894.05l19.57,87.53s0,51.5-16.48,69l-37.09.9-17.49-212,30.26-3.25Z"/><polyline class="cls-8" points="496.37 870.74 526.32 920.72 566.71 872.57"/><path class="cls-4" d="M468.72,873.87l-7,9s4.65,12-6.43,30.6L450,981.69s30.22-24.43,29-110.17"/><path class="cls-4" d="M599.14,844.56l7.54,8.56s-2.65,37.39,9.59,55.24l9.63,67.72s-34.07-33.71-38.3-119.35"/><path class="cls-3" d="M448.14,906.61s-6-11.16-8.8,8.8L423.55,989.7l7,40.64s20.35,32.84,21.31,9.54C451.83,1039.88,461.15,888.89,448.14,906.61Z"/><path class="cls-3" d="M616.6,900.23S615,866,612.21,885.93l8.72,77.78,14.17,86.87s13.15-13.39,14.11-36.69C649.21,1013.89,629.61,882.5,616.6,900.23Z"/><path class="cls-9" d="M489.91,867s-11.18-12.39-8.5,10.07c0,0-6,74.2-31.85,107.87,0,0-2.85,64.3,9,67.35,0,0,80.21,22.11,139.44-.83,0,0-4,19.5,10.07,11.14l6.38-24.94-4.84-40-5.16-53.5S585.22,882,586.5,862l-23.39,13.58L527.8,916.72S493.3,864.47,489.91,867Z"/><path class="cls-10" d="M452.3,1048.67s78.54,40.26,177.66-9.81"/><polyline class="cls-11" points="496.37 870.74 528 915.81 566.71 872.57"/><line class="cls-12" x1="514.58" y1="877.05" x2="517.67" y2="886.7"/><circle class="cls-12" cx="527.14" cy="949.56" r="7.58"/><circle class="cls-12" cx="528.67" cy="987.8" r="7.58"/><path class="cls-13" d="M508.63,938.92s.28,66.86,5.84,105.6"/><path class="cls-14" d="M452.59,980c34.1-60.59,27-109.72,27-109.72"/><path class="cls-14" d="M587.12,864.71s4,77.48,33,100.08"/><path class="cls-10" d="M441.73,903.26s-45.07,129.87,10.57,145.41"/><path class="cls-10" d="M640.05,925.41s25.52,76.51,3.2,119.11"/><circle class="cls-4" cx="143.7" cy="490.76" r="73.03"/><path class="cls-15" d="M109.59,489.11s-8.13,20.65,8.57,33.39c.78.6,1.12,3.58,1.12,3.58l-9.73,28.26,8.46,4.51,7.75,2.53,16.87,1.42,2.93.73,10.28-1.43,12.54-4.38,7.22-12.42L171.16,521l7.66-12.32.66-11.42"/><path class="cls-16" d="M118.16,522.5s9.3.86,13.28,3.41a134.1,134.1,0,0,0-7.6,35.2l-13-6.39Z"/><path class="cls-16" d="M171.64,522.33s-9.33-.27-13.6,1.77a191.71,191.71,0,0,1,6,36.52l13.77-6.84Z"/><ellipse class="cls-17" cx="125.36" cy="539.91" rx="2.92" ry="8.51" transform="translate(-414.12 412.75) rotate(-63.66)"/><ellipse class="cls-17" cx="125.29" cy="552" rx="2.73" ry="4.79" transform="translate(-425.01 419.41) rotate(-63.66)"/><ellipse class="cls-17" cx="165.03" cy="551.12" rx="4.79" ry="2.73" transform="translate(-227.36 130.41) rotate(-26.34)"/><ellipse class="cls-17" cx="162.3" cy="539.06" rx="8.51" ry="2.92" transform="translate(-182.1 93.73) rotate(-20.96)"/><path class="cls-16" d="M105.27,459.68s-2.24,18.53,4.32,29.43L108.23,498s4.9,8.65,14.26,10.32c0,0,11.25-7.87,17.6-7.33l8.33-.24s10.31.35,16.37,6.65c0,0,9.89-.13,15.37-5.83l-2.33-14.4,4.77-16.41-2.11-13.22L158.25,469l-9.56-1.75-16.6-.16-4,2.76"/><path class="cls-15" d="M127.5,469.87s-1.7,4.86-1,13.94c0,0-8.62,1.25-6.47,11,0,0,1.6,7.23,10,6.37,0,0,9.57-1.46,7.56-10.57,0,0-4.84-19.31-.67-25"/><path class="cls-17" d="M134.76,467.83a59.33,59.33,0,0,0,.75,17s1.73,3.18,3-.67c0,0,.58-11.31,2.3-16.71"/><path class="cls-17" d="M107.58,508.34a49.35,49.35,0,0,1,12.52-6.26s3.62-.17,1,2.9c0,0-7,4.43-10.7,8.73"/><path class="cls-17" d="M112.49,516.33s-.81-.75,7-3.43c0,0,3.62-.18,1,2.9a35.8,35.8,0,0,0-5.62,5.6"/><path class="cls-17" d="M127.31,469.11A45.25,45.25,0,0,0,126,483.19s1.73,3.17,3-.67c0,0,1-9.46,2.71-14.86"/><path class="cls-15" d="M161.33,469.06s1.4,4.95.15,14c0,0,8.53,1.78,5.77,11.38,0,0-2,7.11-10.35,5.73,0,0-9.46-2.05-6.89-11,0,0,6-19,2.22-24.89"/><path class="cls-17" d="M154.21,466.56a59.55,59.55,0,0,1-1.8,16.91s-1.93,3.06-2.95-.85c0,0,.13-11.33-1.26-16.83"/><path class="cls-17" d="M178.82,508.69a49.39,49.39,0,0,0-12.11-7s-3.6-.4-1.17,2.84c0,0,6.7,4.85,10.13,9.37"/><path class="cls-17" d="M173.42,516.36s.86-.7-6.73-3.86c0,0-3.6-.4-1.17,2.84a35.55,35.55,0,0,1,5.25,5.93"/><path class="cls-17" d="M161.56,468.31a44.93,44.93,0,0,1,.45,14.13s-1.93,3.06-2.94-.85c0,0-.4-9.5-1.79-15"/><path class="cls-18" d="M178.22,552.11c-2-10.48-5.94-25.85-7.06-31.1,0,0,15.53-12.46,6.67-33.82,0,0,7.5-4,3.57-28.2,0,0-13.53,1.79-23.15,10a43.19,43.19,0,0,0-15.32-2.74"/><path class="cls-18" d="M143.26,466.24a43.33,43.33,0,0,0-15.15,3.6c-10.06-7.66-22.84-10.16-22.84-10.16-4.38,24.91,4.32,29.43,4.32,29.43-7.64,21.82,8.57,33.39,8.57,33.39-3,10.16-6.39,21.46-8.16,31"/><path class="cls-19" d="M128.73,523.82s14.73,14.64,32-.9"/><circle class="cls-7" cx="128.6" cy="493.01" r="5.57"/><path class="cls-20" d="M131.49,510.9s8,9,12.78-3.69c0,0,3.55,12.78,13.29,3.56"/><path class="cls-7" d="M145.39,507.22l4-4.7a1.65,1.65,0,0,0-1.3-2.72l-8.33.23a1.65,1.65,0,0,0-1.14,2.79l4.29,4.47A1.65,1.65,0,0,0,145.39,507.22Z"/><path class="cls-21" d="M123.43,473.59a86.51,86.51,0,0,0-12.92-6.34A21.91,21.91,0,0,0,114,484.2"/><circle class="cls-7" cx="159.37" cy="492.14" r="5.57"/><path class="cls-21" d="M163.61,472.47a107.41,107.41,0,0,1,12.55-5.29s2.63,6.95-2.68,15.34"/><circle class="cls-22" cx="143.7" cy="490.76" r="73.03"/><g class="cls-23"><circle class="cls-4" cx="341.85" cy="490.76" r="73.03"/><path class="cls-24" d="M316.32,574.79l4,23.22c17.8-3.53,18.78,9,18.78,9l-14.2-3.12-26.25,4.29c1.3-8.91,15.75-10.28,15.75-10.28l-3.28-23.49,4.35-16.58L329.17,553"/><path class="cls-25" d="M322.15,494.43C313.79,499,284.32,516.6,270,547.29c0,0-14.64,17-18.81,24.12,0,0-2.89,5.69,1.35,7.28,0,0-2.89,13.52,23.57-6,0,0,24.48.16,53.31-17.31,0,0,18.95-8.6,29.57-25.79C344.39,523.11,333.2,510.16,322.15,494.43Z"/><path class="cls-26" d="M364.08,464.39a16.74,16.74,0,0,0-7-4.73c-10.67,2-20.65,7.38-29.16,13.29-2.32,4.94-3.83,11.48-3.47,20.26,0,0-.89.44-2.33,1.22,11.05,15.73,22.24,28.68,36.87,35.17,5.62-9.1,1.68-20-1.42-33.88a20.45,20.45,0,0,0-1.67-4.54c-1.36-2.8-.68-10.34,6.2-12a38.5,38.5,0,0,1-5.3-6.65c-2.35,2.33-5.46,3.88-10.57,2.5,5.11,1.38,8.22-.17,10.57-2.5-.54-.85-1.08-1.71-1.62-2.65.54.94,1.08,1.8,1.62,2.65C359.65,469.72,361.37,465.8,364.08,464.39Z"/><path class="cls-27" d="M345.87,458.3S334,460,328,473c8.51-5.91,18.49-11.31,29.16-13.29A25.5,25.5,0,0,0,345.87,458.3Z"/><path class="cls-28" d="M386.23,476.35s-6.14-8.69-21.07-10.46a10.36,10.36,0,0,0-1.08-1.5c-2.71,1.41-4.43,5.33-7.25,8.12a38.5,38.5,0,0,0,5.3,6.65,6.14,6.14,0,0,1,3.33-2.35A67.84,67.84,0,0,1,386.23,476.35Z"/><line class="cls-29" x1="258.2" y1="572.84" x2="266.94" y2="564.96"/><path class="cls-30" d="M362,466.77a6.87,6.87,0,0,1-5.89.11s-3.33-5.08-8.92-4.49c0,0-6.13.49-7.42,8.22,0,0,0,3.59,10.62,4.42,0,0,5.14.25,7.51-2.09"/><path class="cls-31" d="M335,462.85s-10.65,11.49-27.26,12.71c0,0,8.38,5.5,19.78-1.11"/><path class="cls-32" d="M329.45,555.39s44.33-20.11,35.39-60.31a20.72,20.72,0,0,0-1.67-4.55c-1.77-3.64-4.64-11.51,2.29-13.72a67.84,67.84,0,0,1,20.77-.46s-6.14-8.69-21.07-10.46c0,0-4.54-8.77-19.29-7.6,0,0-22.68,3.16-21.39,34.92,0,0-37.71,18.12-54.45,54.08,0,0-14.64,17-18.81,24.12,0,0-2.89,5.69,1.35,7.28,0,0-2.88,13.52,23.57-6C276.14,572.7,300.62,572.86,329.45,555.39Z"/><path class="cls-29" d="M360.6,468.12a12.8,12.8,0,0,0-3.74,5l1.67,2.33"/><circle class="cls-7" cx="348.1" cy="468.65" r="3.69"/><path class="cls-33" d="M331.35,502.92s-1.75,2.65,1.33,11.68"/><path class="cls-33" d="M340,512.48s-.38,9.56,3,13.17"/><line class="cls-33" x1="285.86" y1="542.67" x2="278.67" y2="553.22"/><line class="cls-33" x1="292.52" y1="550.54" x2="290.72" y2="554.81"/><path class="cls-29" d="M280.93,560.45s4.59,7.55,13.33-.33c0,0,7.55,3.23,32.63-16.19"/><path class="cls-29" d="M312.47,564.56l-1.38,9.83,3.28,23.49s-12.49.74-14.16,8.28"/><path class="cls-29" d="M322.85,561.19l-6.53,13.6,4,23.22s17.1-2.67,17.41,6.53"/><rect class="cls-34" x="309" y="582.17" width="13.1" height="8.66" transform="translate(-59.82 36.36) rotate(-6.03)"/><line class="cls-35" x1="310.34" y1="517" x2="300.52" y2="525.61"/><line class="cls-35" x1="323.87" y1="517.76" x2="313.77" y2="525.47"/></g><circle class="cls-22" cx="341.85" cy="490.76" r="73.03"/><g class="cls-36"><g class="cls-36"><circle class="cls-4" cx="936.3" cy="490.76" r="73.03"/></g><path class="cls-37" d="M950.36,496.11l9.06-4.74s-1.73-6.58-2.81-8.56c0,0-6.89.93-6.33-6.12s.19-3.17,6.1-8.53c0,0,10.64.14,8,11.38,0,0,4.25,9.87,5,16.5,0,0-8,6.71-14,8.37"/><path class="cls-37" d="M916.47,509.21l-9.13,4.6s-3.39-5.69-4.37-7.72c0,0,4.77-5-1.28-8.7s-2.68-1.7-10.49,0c0,0-6.09,8.72,4.56,13.17,0,0,4.59,9.66,9.56,14.1,0,0,10.1-2.56,15-6.54"/><path class="cls-4" d="M1011.68,536.55c-.24,11.39-3.28,21.1-11.73,30.56-11.37,12.72-29.1,12-39.07,9.28a44.47,44.47,0,0,1-24.31-17.73c-18.2-26.13-17.39-55.14-17.39-55.14-5.07-.68-6.79-8.1-6.79-8.1C910,491.26,911,471,911,471c.49-6,3.38-8.59,3.38-8.59a9,9,0,0,1,5.29-2.11,11.27,11.27,0,0,1,9.22,4.09c6.7,7.72,13.56,17.6,13.56,17.6a13.84,13.84,0,0,1,2,12c19.91,15.19,28.32,57,28.32,57,4.47,10.95,19.17,1,19.17,1a35.56,35.56,0,0,0,7.64-20.69s.39-16.06-9-23.6c0,0-22.4-19.69-13.2-42,0,0,2,20.73,15.86,31.52C1000.81,503.15,1012.2,512.43,1011.68,536.55Z"/><path class="cls-38" d="M909.54,469.1a8.66,8.66,0,0,1,1.43-1C910.61,466.85,909.54,469.1,909.54,469.1Z"/><path class="cls-39" d="M993.17,497.21c-13.88-10.79-15.86-31.52-15.86-31.52-9.2,22.27,13.2,42,13.2,42,9.43,7.54,9,23.6,9,23.6a36.78,36.78,0,0,1-4.64,16.25c12,4.93,4.21,18.18-1.1,24.86a31.25,31.25,0,0,0,6.14-5.25c8.45-9.46,11.49-19.17,11.73-30.56C1012.2,512.43,1000.81,503.15,993.17,497.21Z"/><path class="cls-38" d="M994.91,547.5a32.67,32.67,0,0,1-3,4.44s-14.7,10-19.17-1c0,0-12.89-36.19-32.8-51.37a13.84,13.84,0,0,0-2-12s-7.22-8.79-13.91-16.51a11.26,11.26,0,0,0-9.23-4.09,9.27,9.27,0,0,0-3.86,1.13,9.81,9.81,0,0,1,0,2.89s-1,20.25,1.39,24.41c0,0,1.72,7.42,6.79,8.1,0,0-.81,29,17.39,55.14a44.47,44.47,0,0,0,24.31,17.73c8.31,2.3,22,3.12,32.93-4C999.12,565.68,1006.94,552.43,994.91,547.5Z"/><path class="cls-32" d="M1011.68,536.55c-.24,11.39-3.28,21.1-11.73,30.56-11.37,12.72-29.1,12-39.07,9.28a44.47,44.47,0,0,1-24.31-17.73c-18.2-26.13-17.39-55.14-17.39-55.14-5.07-.68-6.79-8.1-6.79-8.1C910,491.26,911,471,911,471c.49-6,3.38-8.59,3.38-8.59a9,9,0,0,1,5.29-2.11,11.27,11.27,0,0,1,9.22,4.09c6.7,7.72,13.56,17.6,13.56,17.6a13.84,13.84,0,0,1,2,12c19.91,15.19,28.32,57,28.32,57,4.47,10.95,19.17,1,19.17,1a35.56,35.56,0,0,0,7.64-20.69s.39-16.06-9-23.6c0,0-22.4-19.69-13.2-42,0,0,2,20.73,15.86,31.52C1000.81,503.15,1012.2,512.43,1011.68,536.55Z"/><path class="cls-40" d="M964.81,559.73c-7.57-6-11.84-13.5-15.86-22.16-4.73-10.15-10.19-20.13-11.18-31.47a2.08,2.08,0,0,0-1.35-1.81,122.76,122.76,0,0,1-10.82-25.15c-.78-2.57-4.82-1.47-4,1.12a128.05,128.05,0,0,0,11.68,26.95,2,2,0,0,0,.58.65c1.26,10.11,5.56,19,9.84,28.21,4.78,10.33,9.16,19.41,18.19,26.62C963.94,564.36,966.92,561.41,964.81,559.73Z"/><path class="cls-40" d="M940.32,546.55c-4.61-8.74-9.05-17.52-9.46-27.57-.11-2.69-4.29-2.7-4.18,0,.44,10.79,5.08,20.29,10,29.68C938,551,941.58,548.93,940.32,546.55Z"/><path class="cls-40" d="M957.77,529.05q-2.89-6.15-5.78-12.3c-1.15-2.43-4.76-.31-3.62,2.12q2.89,6.14,5.78,12.29C955.3,533.59,958.91,531.47,957.77,529.05Z"/><ellipse class="cls-7" cx="914.75" cy="484.75" rx="2.97" ry="4.33" transform="translate(-99.72 278.34) rotate(-16.42)"/><ellipse class="cls-7" cx="935.17" cy="477.3" rx="2.97" ry="4.33" transform="translate(-113.36 531.53) rotate(-30)"/></g><circle class="cls-22" cx="936.3" cy="490.76" r="73.03"/><g class="cls-41"><g class="cls-41"><circle class="cls-4" cx="738.15" cy="490.76" r="73.03"/></g><path class="cls-4" d="M689,492.44s-18.82,8.18-17.58,45.85c0,0,1,22.46-11.59,34.77l-10.32,10.49-8.44,2-3.23-5.65,3.37-12.14-5.53,1.82-3.79,11.49,1.86,8.76,7.65,4.2L655,590.12l23.36-24.41,11.28-8,1.56,8.85s8.72,3.74,16-.94l12.93-4.56s2-8.15-6.27-6.68l-14.92,4.38s.83-11.6,8.54-15.8c0,0,23.57-14.53,29.35-13.83l13.4-1.16-8.61-16.73s21.87-17.65,42.07-25.37c0,0,11.42-4.17-25-11.6l-19.08-8s-24.19-4.06-25.9,10.71A28.62,28.62,0,0,1,689,492.44Z"/><path class="cls-42" d="M698.43,501s-28.23-.33-27,37.34c0,0,1,22.46-11.59,34.77l-10.32,10.49-8.44,2-3.23-5.65,3.37-12.14-5.53,1.82-3.79,11.49,1.86,8.76,7.65,4.2L655,590.12l23.36-24.41,11.28-8,1.56,8.85s8.72,3.74,16-.94l12.93-4.56s-.53,0-8.81,1.46l-12.38-3.76s.83-11.6,8.54-15.8c0,0,23.57-14.53,29.35-13.83l18.4,11.67,9.7-2.09,6.08-7.22-9.88.76L750.22,528l-8.61-16.73s21.87-17.65,42.07-25.37c0,0,11.42-4.17-25-11.6l-19.08-8s-20,2.23-21.68,17C717.92,483.31,716.47,500.26,698.43,501Z"/><path class="cls-32" d="M689.64,557.76c-9.16,2.93-20.93,18.55-20.93,18.55-9.43,13.28-18.37,16.93-23.31,17.88a11.08,11.08,0,0,1-8.54-2,12,12,0,0,1-5-11.1c.61-14,11.52-14.77,11.52-14.77-8.25,10.77-4.3,16.71-4.3,16.71,3.28,7.65,13.76-3,13.76-3,8.71-7.94,10.92-20.22,10.92-20.22.49-5.52.67-10.58-.25-15.05a82.13,82.13,0,0,1-2-12.76c-1.89-42.48,34.13-41.11,34.13-41.11,9,1.39,13.87-7.35,13.87-7.35s10.27-30,42.27-12.63c0,0,22.63,9,29.64,8.84,0,0,5.86,3,2.17,6.16,0,0-27.15,11.89-38.3,20.18,0,0-6.52,7,1,16.72a32,32,0,0,0,14.09,9.5s8-3.61,11.23,1.2a22.31,22.31,0,0,1-16,7.22s-12.79-2.67-18.83-11.56"/><path class="cls-32" d="M733.33,483.13S721.19,486,723,494.47c0,0,4.07,8.74,16.56,6.82"/><path class="cls-43" d="M738,495.28a8.57,8.57,0,0,1-9.13-1.94s-1.44-5,7-5.79"/><path class="cls-44" d="M763.27,488.13s-5.2,6.42-7.36,22"/><path class="cls-44" d="M768.22,486.74a25.92,25.92,0,0,0,2.54,13.5"/><path class="cls-44" d="M765.26,476.21s1.82-13.16,5-16.9"/><path class="cls-44" d="M770.79,477.11s2-7.86,6.09-10.43"/><ellipse class="cls-7" cx="748.41" cy="481.11" rx="4.18" ry="4.29" transform="translate(-139.29 540.96) rotate(-36.59)"/><path class="cls-45" d="M686.28,548.79s5.52,8.37,4.92,17.82c0,0,2.69,6,16-.94a23,23,0,0,0,4.57-2.58c2-1.6,2.34,6.16,4.9,6.21,0,0,3.9-9.43-6.27-6.68,0,0-5.57-6.45-11.46-3.81a58.39,58.39,0,0,0,2.35-7.6c1.36-5.71,2.21-13.27-1.11-17.74"/><path class="cls-46" d="M736.41,529.64c1.79-1.33-23.67,5.49-32.72,16.15"/><path class="cls-46" d="M716.93,513.08s8.65,11.39,16.38,11.77"/><path class="cls-7" d="M778.55,480.74s-2.07,2.26,1.08,7.25l4-2.07,1.32-4.49"/></g><circle class="cls-22" cx="738.15" cy="490.76" r="73.03"/><g class="cls-47"><circle class="cls-2" cx="540" cy="490.76" r="73.03"/><g class="cls-48"><circle class="cls-4" cx="540" cy="490.76" r="73.03"/></g><path class="cls-49" d="M468.09,512.87s28.27-25.41,59.19-20.35c0,0,24.87,24.48,42.79,20.05,0,0-35.68,21.11-50.84,21.41C519.23,534,475.23,541.41,468.09,512.87Z"/><path class="cls-50" d="M530.49,509.7s3.44-7.79,8.89-8.62l-4.46-10.6-8.56-.83-2.64,6.13,6,12.87"/><polyline class="cls-50" points="552.28 489.65 559.84 482.1 562.18 486.4 560.36 497.99"/><path class="cls-51" d="M502.1,487.49s-23.66,6.2-40.59,23.55l-14,5.07s-.62-43.1-28.66-32.76c0,0,9.27-44-31.59-63.8,0,0-1-33.06-16.89-45.72,0,0,31.45,1.4,37.37,2.67,0,0,69.26,30.33,83.71,44.78l-2.9,47.45S496.6,490,502.1,487.49Z"/><path class="cls-51" d="M449.29,515.68s-.51,6.44-9,12.1c0,0-7.72.26,7.73,17l9.52,12.36L477.37,528l-13.91-19"/><path class="cls-51" d="M528.25,481.36l9.49-20.49,43.12-46,65-49.66L675.12,363s-15.94,26.94-12.53,41.36c0,0-53.4,12.07-74.27,63.3l-38.17,19.89.16,0Z"/><path class="cls-32" d="M449.88,521.32s-10.33,5.78-13.06,11.24c0,0,16.71,16.11,20.35,26.13l21.27-28.86"/><path class="cls-32" d="M563.43,506.47a21.06,21.06,0,0,0-5.77-11.36c-14-17.76-44.74-10-44.74-10s-13.82-6-16.86-24.58c0,0-3.34-28.56-1.52-38.28,0,0-44.54-43.6-88.59-52.41,0,0-18.53-1.21-35.54,3.95,0,0,23.27,24.15,16.89,45.72,0,0,42.83,19.45,31.59,63.8,0,0,22.18-4.56,25.22,15.19a80.42,80.42,0,0,0,1.23,9.45"/><path class="cls-32" d="M468.26,514.75c1.09,13.26,21.52,18.83,21.52,18.83,32.29,7.53,65.92-12.3,65.92-12.3"/><path class="cls-44" d="M462.64,524.36s-6.68,9.12-5.47,23.09"/><path class="cls-44" d="M502,488,483.31,468.7s10.14-28.46,8.18-47.42c0,0-34.66,4.9-64.42,50"/><path class="cls-44" d="M395.35,414.74c33-14.39,96.14,6.54,96.14,6.54s-52.32-43.5-99.09-40.23"/><path class="cls-32" d="M494.54,422.29s6.71-6.77,11.94.42"/><path class="cls-32" d="M465.65,507s-9.81,9.15-23.54,9.15c0,0-5.23-3.59-6.54,3.93"/><path class="cls-44" d="M540.22,500.09s-2-10.14-12.1-11.77c0,0-10.47,2.61.65,20.93"/><path class="cls-44" d="M552.31,490.61s.33-6.22,8.51-8.83c0,0,2.94,5.23-.33,15.37"/><path class="cls-44" d="M473.57,501.42A47.09,47.09,0,0,1,493.18,489"/><path class="cls-32" d="M523.38,483.14s6.12-1.72,10.52-18.35c0,0,35.22-36.68,47-49.89,0,0,47.44-41.09,69.45-51.36,0,0,12.72-4.4,33.26,2,0,0-13.69,16.63-11.74,40.11,0,0-65.05,24.94-77.28,69.94,0,0-21.23,4-30.52,9.87"/><path class="cls-32" d="M577.43,418.81s8.81-2.93,10.77,3.43"/><path class="cls-44" d="M568.49,438l-23,27.89c-1,3.42.1,19,.1,19"/><path class="cls-44" d="M594.31,412.69s20.79-12,33.5-13.44c0,0,23.35-1,33.62,2"/><path class="cls-44" d="M580.48,426.84s5.14,29.73,8.56,41.47"/><circle class="cls-7" cx="545.48" cy="506.9" r="3.6"/><path class="cls-32" d="M557.62,504.66s8.31,4.94,13.48,3.82c0,0,7.64,4.49-16.63,13.48"/><line class="cls-44" x1="560.27" y1="519.05" x2="549.58" y2="515.22"/><path class="cls-52" d="M520.39,521a33.85,33.85,0,0,1-10.77,2.64"/><path class="cls-52" d="M511.3,513a85.86,85.86,0,0,1-11.44,1.68"/></g><circle class="cls-22" cx="540" cy="490.76" r="73.03"/><path class="cls-7" d="M233.29,349.78a4.81,4.81,0,0,1-4.81-4.81V312.68a4.81,4.81,0,0,1,4.81-4.81h9.07q15.13,0,15.14,10.34a10.44,10.44,0,0,1-1.52,5.48,8.22,8.22,0,0,1-4,3.54c-.11,0-.17,0-.17.16s0,.17.11.17a10.45,10.45,0,0,1,5.64,3.37,9.77,9.77,0,0,1,2.1,6.52q0,6.09-4.48,9.21t-11.72,3.12Zm3.59-25.43a.49.49,0,0,0,.55.55h4.32c2.58,0,4.49-.48,5.75-1.43a4.81,4.81,0,0,0,1.88-4,4.36,4.36,0,0,0-1.86-3.93,10.47,10.47,0,0,0-5.66-1.21h-4.43a.49.49,0,0,0-.55.55Zm0,18.41a.49.49,0,0,0,.55.56h5.26q8.84,0,8.84-6.36a4.83,4.83,0,0,0-2.21-4.43q-2.2-1.38-6.63-1.38h-5.26a.49.49,0,0,0-.55.55Z"/><path class="cls-7" d="M268.12,362.67a9.41,9.41,0,0,1-1.11-.06,2.45,2.45,0,0,1-2.1-1.22,3.27,3.27,0,0,1-.49-1.71,3.16,3.16,0,0,1,.11-.83c.36-1.58,1.71-2.54,4-2.87s4-2,4.87-4.76l.44-1.33a1.52,1.52,0,0,0-.05-1.05l-10.62-26.7A3.25,3.25,0,0,1,263,321a2.44,2.44,0,0,1,.55-1.54,2.63,2.63,0,0,1,2.32-1.28,5.61,5.61,0,0,1,3.4,1.11,5.79,5.79,0,0,1,2.13,2.87l3.71,10.73c.11.3,1,3.24,2.6,8.85a.22.22,0,0,0,.38,0c.22-1,.59-2.43,1.11-4.4s.88-3.45,1.1-4.45L283.55,322a5.26,5.26,0,0,1,1.9-2.74,5.1,5.1,0,0,1,3.18-1.08,2.67,2.67,0,0,1,2.33,1.22,2.61,2.61,0,0,1,.55,1.6,3,3,0,0,1-.17.94l-9.95,28.92q-2.26,6-5.25,8.9A11.07,11.07,0,0,1,268.12,362.67Z"/><path class="cls-7" d="M322.25,350.56q-10.46,0-10.45-11.89V325.12c0-.33-.15-.49-.44-.49h-.94a3,3,0,0,1-3-3,3.36,3.36,0,0,1,3-3.38l1.27-.11c.37,0,.57-.16.61-.49l.49-4.54a3.88,3.88,0,0,1,1.28-2.49,3.75,3.75,0,0,1,2.59-1,3.39,3.39,0,0,1,2.47,1,3.35,3.35,0,0,1,1,2.46v4.48a.48.48,0,0,0,.55.55h4a3.22,3.22,0,0,1,2.3.94,3.3,3.3,0,0,1,0,4.65,3.22,3.22,0,0,1-2.3.94h-4a.48.48,0,0,0-.55.55v13.49c0,3.58,1.44,5.36,4.31,5.36h.17a4.91,4.91,0,0,1,2.32.56,2.49,2.49,0,0,1,1.27,1.77,2.87,2.87,0,0,1,.11.77,3.35,3.35,0,0,1-.44,1.66,2.87,2.87,0,0,1-1.94,1.44A21.29,21.29,0,0,1,322.25,350.56Z"/><path class="cls-7" d="M341.46,348.57a3.9,3.9,0,0,1-2.9,1.21,4.15,4.15,0,0,1-4.15-4.14V308.76a4.17,4.17,0,0,1,4.15-4.15,3.9,3.9,0,0,1,2.9,1.22,4.05,4.05,0,0,1,1.19,2.93V316l-.28,5.36a.23.23,0,0,0,.14.23.22.22,0,0,0,.25-.06q4.69-4.26,9.51-4.26,9.84,0,9.84,12.78v15.59a4.18,4.18,0,0,1-8.35,0V331c0-2.39-.35-4.1-1.05-5.11a3.84,3.84,0,0,0-3.42-1.52,6.31,6.31,0,0,0-3.07.74,15.57,15.57,0,0,0-3.13,2.46,1.22,1.22,0,0,0-.44.94v17.09A4.05,4.05,0,0,1,341.46,348.57Z"/><path class="cls-7" d="M384.39,350.56a15.23,15.23,0,0,1-11.3-4.48q-4.45-4.49-4.45-12.11a18.93,18.93,0,0,1,1.24-6.91,15.36,15.36,0,0,1,3.32-5.31,15.6,15.6,0,0,1,4.73-3.29,13.25,13.25,0,0,1,5.47-1.19q6.14,0,9.56,3.93a15.1,15.1,0,0,1,3.71,10.45,4.06,4.06,0,0,1-1.49,3.21,5.4,5.4,0,0,1-3.71,1.38H377.26a.47.47,0,0,0-.33.16.38.38,0,0,0-.11.39,8.28,8.28,0,0,0,8.68,7.41,12.05,12.05,0,0,0,4.53-.88,3.38,3.38,0,0,1,1.33-.28,4,4,0,0,1,.94.11,2.71,2.71,0,0,1,1.77,1.38,3.1,3.1,0,0,1,.39,1.49,3,3,0,0,1-.11.78,2.36,2.36,0,0,1-1.39,1.71A19.28,19.28,0,0,1,384.39,350.56Zm-7.68-20.24a.39.39,0,0,0,.11.28.36.36,0,0,0,.33.16H389a.53.53,0,0,0,.39-.16.54.54,0,0,0,.17-.39,7.65,7.65,0,0,0-1.66-4.78,5.52,5.52,0,0,0-4.37-1.69,6.43,6.43,0,0,0-4.37,1.66A6.58,6.58,0,0,0,376.71,330.32Z"/><path class="cls-7" d="M427.91,350.56q-10.46,0-10.45-11.89V325.12c0-.33-.15-.49-.44-.49h-.94a3,3,0,0,1-3.05-3,3.3,3.3,0,0,1,.89-2.3,3.27,3.27,0,0,1,2.16-1.08l1.27-.11c.37,0,.57-.16.61-.49l.49-4.54a3.86,3.86,0,0,1,1.27-2.49,3.79,3.79,0,0,1,2.6-1,3.5,3.5,0,0,1,3.49,3.48v4.48a.48.48,0,0,0,.55.55h4a3.22,3.22,0,0,1,2.3.94,3.3,3.3,0,0,1,0,4.65,3.22,3.22,0,0,1-2.3.94h-4a.48.48,0,0,0-.55.55v13.49c0,3.58,1.43,5.36,4.31,5.36h.17a4.91,4.91,0,0,1,2.32.56,2.49,2.49,0,0,1,1.27,1.77,2.87,2.87,0,0,1,.11.77,3.35,3.35,0,0,1-.44,1.66,2.87,2.87,0,0,1-1.94,1.44A21.37,21.37,0,0,1,427.91,350.56Z"/><path class="cls-7" d="M447.12,348.57a3.9,3.9,0,0,1-2.9,1.21,4.15,4.15,0,0,1-4.15-4.14V308.76a4.17,4.17,0,0,1,4.15-4.15,3.9,3.9,0,0,1,2.9,1.22,4.05,4.05,0,0,1,1.19,2.93V316l-.28,5.36a.23.23,0,0,0,.14.23.22.22,0,0,0,.25-.06q4.69-4.26,9.51-4.26,9.84,0,9.84,12.78v15.59a4,4,0,0,1-1.21,2.93,4.23,4.23,0,0,1-5.92,0,4,4,0,0,1-1.22-2.93V331c0-2.39-.35-4.1-1.05-5.11a3.85,3.85,0,0,0-3.43-1.52,6.3,6.3,0,0,0-3.06.74,15.57,15.57,0,0,0-3.13,2.46,1.22,1.22,0,0,0-.44.94v17.09A4.05,4.05,0,0,1,447.12,348.57Z"/><path class="cls-7" d="M480.49,313a5.12,5.12,0,0,1-3.57-1.27,4.2,4.2,0,0,1-1.41-3.26,4.16,4.16,0,0,1,1.38-3.24,5.18,5.18,0,0,1,3.6-1.24,5.11,5.11,0,0,1,3.51,1.24,4.12,4.12,0,0,1,1.41,3.24,4.2,4.2,0,0,1-1.41,3.26A5,5,0,0,1,480.49,313Zm2.85,35.61a3.92,3.92,0,0,1-2.91,1.21,4.13,4.13,0,0,1-4.14-4.14V322.19a3.9,3.9,0,0,1,1.21-2.9,4.05,4.05,0,0,1,2.93-1.19,4,4,0,0,1,4.09,4.09v23.45A4,4,0,0,1,483.34,348.57Z"/><path class="cls-7" d="M500.53,348.57a3.9,3.9,0,0,1-2.9,1.21,4.15,4.15,0,0,1-4.15-4.14V321.48a3.42,3.42,0,0,1,3.37-3.38,3.8,3.8,0,0,1,3.76,3.38l.22,2.1c0,.07,0,.11.12.11a.18.18,0,0,0,.16-.11,14.17,14.17,0,0,1,4.09-4.65,8.48,8.48,0,0,1,4.87-1.66h.16a2.75,2.75,0,0,1,2.33,1.39,3.69,3.69,0,0,1,.6,2,3.84,3.84,0,0,1-.11.89,3.25,3.25,0,0,1-1.52,2.18,5.84,5.84,0,0,1-2.79.91,6.84,6.84,0,0,0-3.76,1.5,10.21,10.21,0,0,0-3,4.2,2.5,2.5,0,0,0-.22,1.05v14.21A4.05,4.05,0,0,1,500.53,348.57Z"/><path class="cls-7" d="M528.76,350.56a11.47,11.47,0,0,1-9.49-4.43q-3.51-4.41-3.51-12.16,0-7.47,4-12.08a12,12,0,0,1,9.37-4.62,10,10,0,0,1,4.12.78,14,14,0,0,1,3.51,2.32.19.19,0,0,0,.25,0c.09-.06.12-.12.08-.2l-.28-4.42v-7a4.17,4.17,0,0,1,4.15-4.15,4.1,4.1,0,0,1,3,1.22,4,4,0,0,1,1.24,2.93v37.65a3.38,3.38,0,0,1-3.37,3.37h-.39A3.59,3.59,0,0,1,539,349a3.37,3.37,0,0,1-1.24-2.1l-.06-.27a.17.17,0,0,0-.14-.06.16.16,0,0,0-.13.06Q533.28,350.56,528.76,350.56ZM526,341.21a5.5,5.5,0,0,0,4.86,2.49,7.09,7.09,0,0,0,5.56-2.82,1.6,1.6,0,0,0,.33-1V327.06a1,1,0,0,0-.44-.88,8.19,8.19,0,0,0-5.42-2.05,5.63,5.63,0,0,0-4.7,2.6,12,12,0,0,0-1.88,7.13C524.33,337.1,524.89,339.56,526,341.21Z"/><path class="cls-7" d="M578,350.56a11.47,11.47,0,0,1-9.48-4.43Q565,341.72,565,334q0-7.47,4-12.08a12,12,0,0,1,9.37-4.62,10,10,0,0,1,4.12.78,14,14,0,0,1,3.51,2.32.2.2,0,0,0,.25,0c.09-.06.12-.12.08-.2l-.27-4.42v-7a4.15,4.15,0,0,1,4.14-4.15,4.09,4.09,0,0,1,3,1.22,4,4,0,0,1,1.24,2.93v37.65a3.38,3.38,0,0,1-3.37,3.37h-.38a3.57,3.57,0,0,1-2.35-.83,3.34,3.34,0,0,1-1.25-2.1l0-.27a.2.2,0,0,0-.14-.06.18.18,0,0,0-.14.06Q582.56,350.56,578,350.56Zm-2.74-9.35a5.53,5.53,0,0,0,4.87,2.49,7.07,7.07,0,0,0,5.55-2.82,1.55,1.55,0,0,0,.34-1V327.06a1,1,0,0,0-.45-.88,8.16,8.16,0,0,0-5.41-2.05,5.62,5.62,0,0,0-4.7,2.6,11.9,11.9,0,0,0-1.88,7.13C573.6,337.1,574.16,339.56,575.28,341.21Z"/><path class="cls-53" d="M634.07,349.78a5.67,5.67,0,0,1-5.57-5.57,12.48,12.48,0,0,1,4.07-9.43Q647.46,321,655,311t7.56-17.63q0-5.58-2.84-8.58a10.19,10.19,0,0,0-7.77-3,14.11,14.11,0,0,0-8.25,2.9,10,10,0,0,1-5.68,1.82,7.85,7.85,0,0,1-5.26-2,7,7,0,0,1-2.25-5.3,6.12,6.12,0,0,1,2.47-5.09,33.2,33.2,0,0,1,21.65-7.51q11.9,0,19.34,7t7.45,18.6q0,17.14-23.9,41.48c-.14.07-.16.2,0,.37s.23.24.37.16a102.65,102.65,0,0,1,12.22-1h6.86a7.83,7.83,0,0,1,5.74,2.41,8.28,8.28,0,0,1,0,11.68,7.83,7.83,0,0,1-5.74,2.41Z"/><path class="cls-7" d="M728,350.56a9.11,9.11,0,0,1-6.8-2.66,9.23,9.23,0,0,1-2.59-6.74,8.86,8.86,0,0,1,4.23-7.82q4.21-2.8,13.46-3.85a.49.49,0,0,0,.5-.61q-.45-4.92-5.31-4.92a14.08,14.08,0,0,0-6,1.55,3.43,3.43,0,0,1-1.44.33,3.21,3.21,0,0,1-1-.16,2.84,2.84,0,0,1-1.82-1.44,3,3,0,0,1-.44-1.55,2.48,2.48,0,0,1,.16-.88,2.82,2.82,0,0,1,1.5-1.88,23.54,23.54,0,0,1,10.5-2.66q6,0,9.1,3.57t3.06,10.42v15.15a3.38,3.38,0,0,1-3.37,3.37h-.27a3.62,3.62,0,0,1-2.41-.85,3.76,3.76,0,0,1-1.3-2.19v-.27a.18.18,0,0,0-.14-.06.2.2,0,0,0-.14.06Q732.66,350.56,728,350.56Zm2.71-6.47a8.37,8.37,0,0,0,5.75-2.77,1.26,1.26,0,0,0,.39-.94v-5.25a.56.56,0,0,0-.16-.39.5.5,0,0,0-.34-.11h-.05q-5.25.72-7.49,2.22a4.3,4.3,0,0,0-2.24,3.64,3.21,3.21,0,0,0,1.13,2.71A4.77,4.77,0,0,0,730.72,344.09Z"/><path class="cls-7" d="M761.47,350.56q-4.15,0-6-2.49c-1.21-1.66-1.82-4.05-1.82-7.19V308.76a4.17,4.17,0,0,1,4.15-4.15,3.9,3.9,0,0,1,2.9,1.22,4.05,4.05,0,0,1,1.19,2.93v32.51a2.43,2.43,0,0,0,1,2.32,3.06,3.06,0,0,0,.5.28c.29.15.5.26.61.33l.47.33a1.25,1.25,0,0,1,.41.47,2.34,2.34,0,0,1,.17.53l.22,1.21a3.79,3.79,0,0,1,.06.67,3.49,3.49,0,0,1-.56,1.88,2.57,2.57,0,0,1-2,1.21C762.33,350.54,761.91,350.56,761.47,350.56Z"/><path class="cls-7" d="M779.27,350.56q-4.15,0-6-2.49c-1.22-1.66-1.83-4.05-1.83-7.19V308.76a4.17,4.17,0,0,1,4.15-4.15,3.9,3.9,0,0,1,2.9,1.22,4.05,4.05,0,0,1,1.19,2.93v32.51a2.41,2.41,0,0,0,1,2.32,2.74,2.74,0,0,0,.49.28c.3.15.5.26.61.33l.47.33a1.39,1.39,0,0,1,.42.47,2.33,2.33,0,0,1,.16.53l.22,1.21a3.79,3.79,0,0,1,.06.67,3.57,3.57,0,0,1-.55,1.88,2.59,2.59,0,0,1-2.05,1.21C780.13,350.54,779.71,350.56,779.27,350.56Z"/><path class="cls-7" d="M803,350.56a15.23,15.23,0,0,1-11.3-4.48q-4.46-4.49-4.45-12.11a18.93,18.93,0,0,1,1.24-6.91,15.22,15.22,0,0,1,3.32-5.31,15.56,15.56,0,0,1,4.72-3.29,13.33,13.33,0,0,1,5.48-1.19q6.13,0,9.56,3.93a15.1,15.1,0,0,1,3.71,10.45,4,4,0,0,1-1.5,3.21,5.36,5.36,0,0,1-3.7,1.38H795.91a.47.47,0,0,0-.33.16.38.38,0,0,0-.11.39,8.64,8.64,0,0,0,2.93,5.5,8.77,8.77,0,0,0,5.75,1.91,12.05,12.05,0,0,0,4.53-.88A3.35,3.35,0,0,1,810,343a4.1,4.1,0,0,1,.94.11,2.71,2.71,0,0,1,1.77,1.38,3.1,3.1,0,0,1,.39,1.49,2.64,2.64,0,0,1-.12.78,2.32,2.32,0,0,1-1.38,1.71A19.31,19.31,0,0,1,803,350.56Zm-7.68-20.24a.36.36,0,0,0,.11.28.36.36,0,0,0,.33.16h11.83a.55.55,0,0,0,.55-.55,7.64,7.64,0,0,0-1.65-4.78,5.53,5.53,0,0,0-4.37-1.69,6.43,6.43,0,0,0-4.37,1.66A6.58,6.58,0,0,0,795.36,330.32Z"/><polygon class="cls-54" points="560.58 960.17 545.4 955.14 576.61 860.28 591.79 865.31 560.58 960.17"/><polygon class="cls-54" points="503.99 960.17 519.17 955.14 489.36 865.83 474.94 872.53 503.99 960.17"/><path class="cls-55" d="M418.28,947.75s29.72,30.48,23.63,41.14l-14.48,20.58L413,1020.9,397.71,1024s-21.33-10.67-21.33-25.15S418.28,947.75,418.28,947.75Z"/><path class="cls-9" d="M461.54,882.28c-17.68,2.31-48.71,60.8-48.71,60.8l-3.78,5c16.2,3.73,23.6,19.54,35.1,31.31l3.27-7.12C449.73,958.45,461.54,882.28,461.54,882.28Z"/><path class="cls-56" d="M361.42,974c4.23,20.83,13.48,37.11,31.18,35.86,11.25-.8,24-9.31,27.37-17.36a10,10,0,0,0-1.77-10.61c-1.29-1.45,3.66-4.57,4.32-9.88,2.22-18-13.1-43-35.19-36.63C370.28,940.27,357.31,953.79,361.42,974Z"/><ellipse class="cls-56" cx="416.56" cy="951.65" rx="11.98" ry="16.62" transform="translate(-180.69 101.68) rotate(-11.45)"/><line class="cls-57" x1="408.73" y1="985.95" x2="395.52" y2="991.64"/><line class="cls-57" x1="402.61" y1="969.32" x2="389.02" y2="974.94"/><line class="cls-57" x1="395.25" y1="952.08" x2="384.12" y2="957.16"/><path class="cls-58" d="M486.48,865.93s-38.2,15.69-69,68.69"/><path class="cls-58" d="M378.36,1007.9c2.93,10.87,50.6,44.36,76-55.47"/><path class="cls-58" d="M441.79,980s-3.23-7.93-8.22-13.22"/><path class="cls-59" d="M443,956.22a38.55,38.55,0,0,0-7.34-7.34"/><path class="cls-55" d="M653.4,947.75s-29.72,30.48-23.62,41.14l14.48,20.58,14.48,11.43L674,1024s21.33-10.67,21.33-25.15S653.4,947.75,653.4,947.75Z"/><path class="cls-9" d="M608.47,877.08c17.68,2.31,50.39,66,50.39,66l3.78,5c-16.2,3.73-23.6,19.54-35.1,31.31l-3.28-7.12C622,958.45,608.47,877.08,608.47,877.08Z"/><path class="cls-60" d="M710.27,974c-4.23,20.83-13.49,37.11-31.18,35.86-11.25-.8-24-9.31-27.37-17.36a10,10,0,0,1,1.77-10.61c1.28-1.45-3.67-4.57-4.32-9.88-2.22-18,13.1-43,35.19-36.63C701.41,940.27,714.37,953.79,710.27,974Z"/><path class="cls-55" d="M699.1,980.07c-4.23,20.83-2.32,31-20,29.79-11.25-.8-24-9.31-27.37-17.36a10,10,0,0,1,1.77-10.61c1.28-1.45-3.67-4.57-4.32-9.88-2.22-18,1.93-36.89,24-30.55C690.24,946.35,703.21,959.87,699.1,980.07Z"/><path class="cls-58" d="M710.27,974c-4.23,20.83-13.49,37.11-31.18,35.86-11.25-.8-24-9.31-27.37-17.36a10,10,0,0,1,1.77-10.61c1.28-1.45-3.67-4.57-4.32-9.88-2.22-18,13.1-43,35.19-36.63C701.41,940.27,714.37,953.79,710.27,974Z"/><ellipse class="cls-56" cx="655.12" cy="951.65" rx="16.62" ry="11.98" transform="translate(-407.68 1404.74) rotate(-78.55)"/><line class="cls-57" x1="662.96" y1="985.95" x2="676.17" y2="991.64"/><line class="cls-57" x1="669.08" y1="969.32" x2="682.67" y2="974.94"/><line class="cls-57" x1="676.44" y1="952.08" x2="687.57" y2="957.16"/><path class="cls-58" d="M588.63,863.94s32.74,7.82,65.62,70.68"/><path class="cls-58" d="M693.33,1007.9c-2.94,10.87-47.17,48.44-72.54-51.39"/><path class="cls-58" d="M629.9,980s3.23-7.93,8.22-13.22"/><path class="cls-59" d="M628.72,956.22a38.89,38.89,0,0,1,7.34-7.34"/><path class="cls-10" d="M457.32,932.09s-8.36,41.13-5,116.58"/><path class="cls-14" d="M462.55,881.88s-3.12,25-5.23,37.65"/><path class="cls-10" d="M630,1038.86c2.75-1.39-13.33-113-13.33-113"/><ellipse class="cls-61" cx="552.93" cy="639.13" rx="12.35" ry="13.89" transform="translate(-152.5 1104.53) rotate(-82.55)"/><path class="cls-4" d="M574.47,676.53s58.55,11,67.18,87.33l-2.78,24,7.37,7.78,3,22.12-10.68,18,30.45,18.33,26.16,26.24-9.52,9.54-85.61-42.32L580.41,863l-29.58,10.82Z"/><path class="cls-8" d="M621.94,788.41l-11.16,44.78,11.69,7.33,12.69-3.63S652.93,788.86,621.94,788.41Z"/><polyline class="cls-8" points="457.24 774.02 438.19 769.37 422.19 776.36 418.75 803.62 433.96 822.23 449.07 826.37 458.5 821.88"/><path class="cls-62" d="M436,770.2l14.44-.71L454,753.88l11.44-12.51,20.84-25.54s12.36-4.51,15.47-4.13l1,7.94,79,8.46,4.3-4.52,7.9,6.18,10.24,27.62,19.42,5-.13,22.1,16.42-1,.18-33.86S617.51,721,611,709.45c-8.22-14.54-29.42-27.82-29.42-27.82l-15.28-7.54-40.62-3.6-34.89,8.36L457.6,703.18,438.28,740Z"/><path class="cls-62" d="M611,834.92l-13.74,17.16,12,39.89,20.88,34.09L672.66,902l-3.93-16.58,17,4.44s-14.73-26-50.53-53C635.16,836.89,616.67,841.5,611,834.92Z"/><polygon class="cls-62" points="432.28 819.29 377.94 845.25 383.39 856.92 399.11 857.19 391.11 872.05 420.65 906.44 468.34 846.17 456.18 825.15 432.28 819.29"/><path class="cls-8" d="M452.41,746.91s-19.34,84,29.66,112.5c0,0,49.27,39.55,98.4-3.58,0,0,30.14-22.77,27.4-94.43L595.6,726.58l-10.7-2L552,726.48l-34.93-3.86-14.27-3-1-7.94S474,714.2,463.54,745C463.54,745,456,741.32,452.41,746.91Z"/><ellipse class="cls-63" cx="581.74" cy="814.58" rx="11.62" ry="13.13" transform="translate(-277.25 1328.49) rotate(-85.36)"/><ellipse class="cls-63" cx="483.99" cy="806.64" rx="11.62" ry="13.13" transform="translate(-359.18 1223.75) rotate(-85.36)"/><path class="cls-10" d="M525.13,784.86s-2.24,8.94,9.13,12.4"/><path class="cls-10" d="M623.2,786.61s14.3-7.75,23,9c0,0,9.2,25.7-11.08,41.28,0,0-14.93,8.29-24.2-2"/><path class="cls-10" d="M638.52,785.85c2.69-8.82,3.13-22,3.13-22s-.32-62.24-58.22-84.73c0,0-91.66-36.21-135.25,38.5-7.79,13.35-11.33,28.7-12.83,44.08-.17,1.68-.31,3.41-.43,5.16"/><path class="cls-64" d="M621.76,800.75s9.31-5.68,12.9,4.67c0,0,3.48,26.43-17.21,18.71"/><path class="cls-10" d="M449.3,771.37c-4.44-2.12-15.2-5.41-24.8,6,0,0-14.5,23.53,5.19,42.18,0,0,12.3,8.7,23.49,4.11"/><path class="cls-64" d="M449,785.61c-2.88-1.56-9.17-3.79-13.45,3.33,0,0-8.33,25.21,15.77,21.19"/><path class="cls-10" d="M637.4,836.76s29.63,9.09,57.81,43.56c0,0-3.54,4-9.52,9.54-.15.13-17-4.44-17-4.44S673,901.74,672.66,902c-13.89,10-29.74,20.92-42.51,24.06,0,0-18.22-18.21-31.11-70.74"/><path class="cls-65" d="M636,855.22s11.65,6.35,18.43,14.33"/><line class="cls-66" x1="623.42" y1="860.28" x2="633.13" y2="873.9"/><path class="cls-10" d="M429.87,820.14c-10.93,2.28-30.05,8.51-51.93,25.11,0,0,1.89,4.8,5.45,11.67.09.18,15.72.27,15.72.27s-8.24,14.51-8,14.86c9,13.3,19.51,28,29.54,34.39a309.92,309.92,0,0,0,46.42-57.64"/><path class="cls-66" d="M435.52,836.94s-11.72,3-19.75,8.84"/><line class="cls-66" x1="444.83" y1="845.15" x2="432.73" y2="855.63"/><path class="cls-10" d="M598.71,735.33s8.62,7.43,14.18,36.53"/><path class="cls-10" d="M622,762.92c3.3,71.71-26.91,91.41-26.91,91.41-52.13,42.89-108.84,8.54-108.84,8.54-52.37-28.75-32.09-118.34-32.09-118.34"/><path class="cls-10" d="M489.7,715.46A53.54,53.54,0,0,0,464,743.84"/><ellipse class="cls-7" cx="573.48" cy="781.48" rx="13.78" ry="11.49" transform="translate(-263.96 1269.61) rotate(-83.97)"/><path class="cls-11" d="M568.61,774.54s-7.38-3.09-8.09-10.87"/><ellipse class="cls-7" cx="495.18" cy="772.69" rx="13.78" ry="11.49" transform="translate(-325.29 1183.89) rotate(-83.97)"/><path class="cls-11" d="M490.32,765.76s-7.38-3.09-8.1-10.87"/><path class="cls-4" d="M570.36,641.63s-84.39-28-121.18,62.65c0,0-24.2,2.91-26.1,25.94,0,0,113.52-7,242.49,20.13,0,0-9.12-21.1-27.82-33.86C637.75,716.49,634.09,653.84,570.36,641.63Z"/><path class="cls-67" d="M555.32,641.52S486,613.65,449.18,704.28c0,0-24.2,2.91-26.1,25.94,0,0,89.51-12.06,218.48,15,0,0,.35-12-18.35-24.78C623.21,720.47,619.05,653.73,555.32,641.52Z"/><path class="cls-14" d="M571,650.64s10.16,7.21,13.6,33.58"/><path class="cls-14" d="M527.73,646.38s-14.21,10.43-17.87,27.82"/><path class="cls-68" d="M524.75,684.16s-42.17-1.9-66.52-.28L446.86,703.6s59.44-5.9,81.09-.37"/><path class="cls-68" d="M561.41,688.07s41.89,5.26,65.61,11l7.87,21.36S577.3,704.53,555,706.32"/><path class="cls-14" d="M458.23,683.88s56.74-8.89,178.54,17"/><path class="cls-14" d="M446.86,703.6s68.32-9.41,194.37,17.9"/><circle class="cls-69" cx="545.94" cy="690.33" r="23.8"/><circle class="cls-12" cx="545.79" cy="689.78" r="10.96"/><path class="cls-10" d="M420.79,729.57S492.53,717,663.3,749.38c0,0-3.19-14.77-22.07-27.88,0,0-.31-78.28-97.31-83.61,0,0-67.31-7.85-97.06,65.71A44,44,0,0,0,420.79,729.57Z"/><path class="cls-12" d="M650.93,683.3a12.87,12.87,0,0,0,.39-8.41c-1.71-6.08-7.12-9.88-12.08-8.49-3.61,1-6,4.53-6.33,8.71a24.75,24.75,0,0,0-15.64,4.4c-2.49-3.38-6.33-5.14-9.95-4.13-5,1.4-7.59,7.46-5.88,13.55a12.91,12.91,0,0,0,4.72,7,24.06,24.06,0,0,0,.37,11.14c3.73,13.27,17.93,20.88,31.7,17s21.92-17.77,18.19-31A23.86,23.86,0,0,0,650.93,683.3Z"/><path class="cls-3" d="M644.71,685.83a13.77,13.77,0,0,0,.09-8.14c-1.67-6-6.34-8-10.62-6.82-3.13.88-1.3,1.14-1.48,5.19-2.36-.18-8.71,1.23-11.08,1.89s-3.8.82-5.72,2.2a8.64,8.64,0,0,0-9.48-3.3c-4.29,1.2-6.4,7-4.73,13a13.7,13.7,0,0,0,4.33,6.89,26,26,0,0,0,.65,10.83c3.66,13,16.27,20.8,28.18,17.45s18.59-16.6,14.94-29.59A26,26,0,0,0,644.71,685.83Z"/><path class="cls-14" d="M650.93,683.3a12.87,12.87,0,0,0,.39-8.41c-1.71-6.08-7.12-9.88-12.08-8.49-3.61,1-6,4.53-6.33,8.71a24.75,24.75,0,0,0-15.64,4.4c-2.49-3.38-6.33-5.14-9.95-4.13-5,1.4-7.59,7.46-5.88,13.55a12.91,12.91,0,0,0,4.72,7,24.06,24.06,0,0,0,.37,11.14c3.73,13.27,17.93,20.88,31.7,17s21.92-17.77,18.19-31A23.86,23.86,0,0,0,650.93,683.3Z"/><path class="cls-14" d="M619.3,703.79s18.62,10.46,23.6-6.64"/><ellipse class="cls-7" cx="611.04" cy="686.94" rx="4.4" ry="5.39" transform="translate(-163.21 191.16) rotate(-15.71)"/><ellipse class="cls-7" cx="641.97" cy="678.23" rx="4.4" ry="5.39" transform="matrix(0.96, -0.27, 0.27, 0.96, -159.7, 199.22)"/><ellipse class="cls-7" cx="617.48" cy="703.81" rx="4.01" ry="4.92" transform="translate(-167.54 193.54) rotate(-15.71)"/><ellipse class="cls-7" cx="645.1" cy="696.04" rx="4.01" ry="4.92" transform="translate(-164.4 200.73) rotate(-15.71)"/><ellipse class="cls-70" cx="530.46" cy="830" rx="20.38" ry="11.78" transform="translate(-351.45 1268.77) rotate(-83.87)"/><line class="cls-10" x1="562.01" y1="753.77" x2="577.84" y2="747.73"/><line class="cls-10" x1="510.74" y1="750.37" x2="496.47" y2="739.91"/><path class="cls-4" d="M303.94,1105s-26.75,1.51-83.83-7.54c0,0,33.89,43.73,46.38,52.77,0,0-33.89,31.67-62.43,43.73,0,0,67.55,21.92,144.36,21.92"/><path class="cls-71" d="M328.88,1115.12s-36.75,8-93.83-1c0,0,18.95,27.08,31.44,36.12,0,0-33.89,31.67-62.43,43.73,0,0,67.55,21.92,144.36,21.92"/><polyline class="cls-72" points="301.15 1173.87 348.42 1215.87 348.42 1160.7"/><path class="cls-4" d="M776.06,1105s26.75,1.51,83.83-7.54c0,0-33.89,43.73-46.38,52.77,0,0,33.89,31.67,62.43,43.73,0,0-67.55,21.92-144.36,21.92"/><path class="cls-71" d="M774.55,1116.14s21.42,7.14,69.35-3.06c0,0-17.9,28.1-30.39,37.14,0,0,33.89,31.67,62.43,43.73,0,0-67.55,21.92-144.36,21.92"/><path class="cls-73" d="M303.94,1105s-26.75,1.51-83.83-7.54c0,0,33.89,43.73,46.38,52.77,0,0-33.89,31.67-62.43,43.73,0,0,67.55,21.92,144.36,21.92"/><path class="cls-73" d="M776.06,1105s26.75,1.51,83.83-7.54c0,0-33.89,43.73-46.38,52.77,0,0,33.89,31.67,62.43,43.73,0,0-67.55,21.92-144.36,21.92"/><polyline class="cls-72" points="778.85 1173.87 731.58 1215.87 731.58 1160.7"/><path class="cls-4" d="M778.85,1070s-88.56-33.31-234.15-33.47h-.92c-145.59.16-242.63,33.47-242.63,33.47v103.83c21.21-6.75,46.18-12.32,71.84-16.9a954.15,954.15,0,0,1,334,0c25.66,4.58,50.63,10.15,71.84,16.9Z"/><path class="cls-71" d="M755.26,1094.92s-65.33-35.07-210.56-44.15h-.92c-145.59.14-230.37,26.68-230.37,26.68v92.8c21.21-6,33.92-7.78,59.58-11.87a1065.52,1065.52,0,0,1,334,0c25.66,4.09,27,5.85,48.25,11.87Z"/><path class="cls-73" d="M778.85,1070s-88.56-33.31-234.15-33.47h-.92c-145.59.16-242.63,33.47-242.63,33.47v103.83c21.21-6.75,46.18-12.32,71.84-16.9a954.15,954.15,0,0,1,334,0c25.66,4.58,50.63,10.15,71.84,16.9Z"/><polygon class="cls-74" points="725.46 1079.21 731.16 1097.84 749.75 1103.7 733.79 1114.88 733.97 1134.36 718.4 1122.65 699.92 1128.83 706.25 1110.41 694.67 1094.75 714.14 1095.08 725.46 1079.21"/><polygon class="cls-75" points="722.01 1090.89 725.7 1102.95 737.74 1106.75 727.41 1113.99 727.52 1126.6 717.44 1119.02 705.48 1123.02 709.58 1111.09 702.07 1100.95 714.68 1101.16 722.01 1090.89"/><polygon class="cls-74" points="354.54 1079.21 348.83 1097.84 330.25 1103.7 346.21 1114.88 346.03 1134.36 361.6 1122.65 380.07 1128.83 373.75 1110.41 385.33 1094.75 365.86 1095.08 354.54 1079.21"/><polygon class="cls-75" points="357.99 1090.89 354.3 1102.95 342.26 1106.75 352.59 1113.99 352.48 1126.6 362.56 1119.02 374.52 1123.02 370.43 1111.09 377.93 1100.95 365.32 1101.16 357.99 1090.89"/><path class="cls-4" d="M413.18,1092.86a3.6,3.6,0,0,1,2.1,2.48,4.23,4.23,0,0,1-.4,3.29,4,4,0,0,1-2.61,1.94,4.13,4.13,0,0,1-.7.14,4.28,4.28,0,0,1-2.59-.54,23.85,23.85,0,0,0-2.23-1,3.56,3.56,0,0,1-2-2.08,2.87,2.87,0,0,1-.21-.8,3.22,3.22,0,0,1,.43-2,5.23,5.23,0,0,1,2.58-2.23,4.81,4.81,0,0,1,1.27-.31,4.66,4.66,0,0,1,2,.24C411.66,1092.27,412.44,1092.55,413.18,1092.86Zm.6-15.86a3.42,3.42,0,0,1,2.11,2.48,4.19,4.19,0,0,1,.13.69,3.92,3.92,0,0,1-.59,2.6,3.83,3.83,0,0,1-2.56,1.93l-.64.08a4.39,4.39,0,0,1-2.65-.54c-.79-.38-1.62-.76-2.49-1.13a3.62,3.62,0,0,1-1.94-2.09,2.87,2.87,0,0,1-.21-.8,3.08,3.08,0,0,1,.49-2,5.07,5.07,0,0,1,2.53-2.17,4.81,4.81,0,0,1,3.35-.07C412.18,1076.31,413,1076.65,413.78,1077Zm2.81,48.79a3.67,3.67,0,0,1-2.08,2.53,4,4,0,0,1-1.31.38,4.12,4.12,0,0,1-2-.25,4.74,4.74,0,0,1-2.51-2.49,4.66,4.66,0,0,1-.47-1.6,4.74,4.74,0,0,1,.19-2q1.72-5.67,3.12-11.78a3.36,3.36,0,0,1,1.81-2.26,4,4,0,0,1,1.09-.3,3.16,3.16,0,0,1,1.75.34,5.32,5.32,0,0,1,2.51,2.49,5.45,5.45,0,0,1,.56,1.83,5,5,0,0,1-.11,1.66Q418,1120.16,416.59,1125.79Zm40-25.53-2.21.25a6.11,6.11,0,0,1-3.64-.42,4.2,4.2,0,0,1-1.76-2.58.2.2,0,0,0-.2-.19.35.35,0,0,0-.28.12,20.09,20.09,0,0,1-4.76,5,.15.15,0,0,0-.07.19.14.14,0,0,0,.16.1l8.74-1a5.1,5.1,0,0,1,5.62,4.51l1.69,15.2a4.21,4.21,0,0,1-3.79,4.66l-2.62.29a1.6,1.6,0,0,1-1.75-1.4c0-.15-.08-.23-.2-.21l-17.24,1.9c-.11,0-.16.1-.15.26a1.69,1.69,0,0,1-.41,1.34,1.88,1.88,0,0,1-1.25.67l-2.16.24a4,4,0,0,1-3-.85,3.89,3.89,0,0,1-1.51-2.72L424.1,1110a4.84,4.84,0,0,1,1.09-3.74,4.92,4.92,0,0,1,3.41-1.89l3.61-.4a.36.36,0,0,0,.33-.21.37.37,0,0,0,0-.35l-1.83-3.75a1,1,0,0,1-.06-.82.81.81,0,0,1,.62-.54.2.2,0,0,0,.1-.19l-.23-2a.14.14,0,0,0-.13-.13.15.15,0,0,0-.17.11,19.2,19.2,0,0,1-6.36,8,3.6,3.6,0,0,1-1.7.66,3.7,3.7,0,0,1-.94,0,4.76,4.76,0,0,1-2.49-1.2,2.31,2.31,0,0,1-.82-1.5,4.67,4.67,0,0,1,0-.53,2.52,2.52,0,0,1,1-1.83,13.37,13.37,0,0,0,5.63-8.76.37.37,0,0,0-.09-.34.39.39,0,0,0-.37-.13l-1.63.18c-.16,0-.25.08-.27.2a2,2,0,0,1-.74,1.38,2.16,2.16,0,0,1-1.47.52l-.77,0a2.57,2.57,0,0,1-2.37-2.21,2.91,2.91,0,0,1,0-.59c.13-1.31.23-2.64.32-4a2.77,2.77,0,0,1,.9-2,2.65,2.65,0,0,1,1.68-.83,1.14,1.14,0,0,1,.3,0l1.29,0a1.07,1.07,0,0,1,1,.36,1.44,1.44,0,0,1,.41,1c0,.08,0,.11.13.1l1.11-.12a.52.52,0,0,0,.51-.65l-.16-1.46a.51.51,0,0,0-.64-.51l-3.09.34a2.86,2.86,0,0,1-2.13-.62,2.91,2.91,0,0,1-.46-4.14,2.91,2.91,0,0,1,1.95-1.07l3.37-.37a.26.26,0,0,0,.26-.32,2.58,2.58,0,0,1,.58-2,2.56,2.56,0,0,1,1.8-1l1.52-.17a2.7,2.7,0,0,1,3,2.39.27.27,0,0,0,.33.26l1.69-.19a2.85,2.85,0,0,1,2.13.62,2.9,2.9,0,0,1,.46,4.13,2.83,2.83,0,0,1-2,1.07l-1.51.17c-.31,0-.45.23-.41.58l.17,1.57a.47.47,0,0,0,.58.47,4.5,4.5,0,0,1,5,4v.12s0,.06,0,0,0,0,0-.06c.07-1.07.15-2.37.21-3.91a2.84,2.84,0,0,1,.85-1.92,2.66,2.66,0,0,1,1.68-.84l.23,0,1.35,0a1.4,1.4,0,0,1,1,.37,1.29,1.29,0,0,1,.4,1c0,.08,0,.11.13.1l1-.11a.51.51,0,0,0,.51-.65l-.16-1.45a.52.52,0,0,0-.64-.52l-3.38.37a2.82,2.82,0,0,1-2.13-.62,2.74,2.74,0,0,1-1.11-2,2.79,2.79,0,0,1,.65-2.16,2.83,2.83,0,0,1,1.94-1.07l3.67-.41a.25.25,0,0,0,.26-.32,2.7,2.7,0,0,1,2.38-3l1.52-.17a2.63,2.63,0,0,1,2,.57,2.6,2.6,0,0,1,1,1.81.26.26,0,0,0,.33.26l2.44-.27a2.9,2.9,0,0,1,3.24,2.59,2.9,2.9,0,0,1-2.59,3.23l-2.16.24a.52.52,0,0,0-.52.65l.17,1.45a.51.51,0,0,0,.64.52L455,1081a3,3,0,0,1,2.65,4.84,2.83,2.83,0,0,1-2,1.1l-3.08.35a.62.62,0,0,0-.64.6l-.1.71c0,.13,0,.18.19.16a1.56,1.56,0,0,1,1.19.37,1.61,1.61,0,0,1,.63,1.14l.37,3.38a5.53,5.53,0,0,0,.19,1.13c.05.13.18.18.37.16l.41,0a.57.57,0,0,0,.48-.44,5.69,5.69,0,0,0,.12-1.58,1.58,1.58,0,0,1,.72-1.46,1.82,1.82,0,0,1,1.62-.27,4.16,4.16,0,0,1,2,1.25,3,3,0,0,1,.7,1.57,2.34,2.34,0,0,1,0,.53,7.58,7.58,0,0,1-1.21,4.26A4.33,4.33,0,0,1,456.62,1100.26Zm-24.41-9.68c0,.28.08.41.39.37a3.92,3.92,0,0,1,4.27,3.42l.14,1.22c0,.16.1.21.25.15l.22-.08a1.78,1.78,0,0,1,1.56,0,1.71,1.71,0,0,1,1,1.16q.08.23.3.09a13.91,13.91,0,0,0,4.64-8.18.37.37,0,0,0-.13-.34.45.45,0,0,0-.34-.14l-1.28.14c-.15,0-.25.09-.27.21a2,2,0,0,1-.68,1.31,1.66,1.66,0,0,1-1.37.45l-2.36-.09a.94.94,0,0,1-.75-.36,1.13,1.13,0,0,1-.26-.77c0-.08,0-.12-.07-.11l-4.55.5a.65.65,0,0,0-.64.61Zm17.36,20a.52.52,0,0,0,.52-.64l-.09-.82a.52.52,0,0,0-.65-.52l-16.42,1.82a.52.52,0,0,0-.52.65l.09.81a.52.52,0,0,0,.65.52Zm-16.21,9.11a.52.52,0,0,0,.65.51l16.42-1.81a.52.52,0,0,0,.52-.65l-.11-1a.52.52,0,0,0-.64-.52l-16.43,1.82a.52.52,0,0,0-.52.64Zm.17-16.06c-.07,0-.1,0-.07.1s.05.08.09.08l8.74-1a.27.27,0,0,0,.24-.17.28.28,0,0,0-.06-.32,22.39,22.39,0,0,0-1.84-1.74.74.74,0,0,0-1-.13c-.64.3-1.64.82-3,1.54S434.24,1103.29,433.53,1103.64Z"/><path class="cls-4" d="M505.66,1077a.52.52,0,0,0,.6.57l18.33-.56a4.91,4.91,0,0,1,5,4.66,187.67,187.67,0,0,1-1.06,25c-.58,5.26-1.52,8.72-2.79,10.4a9.41,9.41,0,0,1-2.88,2.73,11.9,11.9,0,0,1-3.74,1.28,33.13,33.13,0,0,1-4.74.5h-.11a5.27,5.27,0,0,1-3.56-1.24,7.55,7.55,0,0,1-2.39-3.38,3.54,3.54,0,0,1-.2-1.05,3.16,3.16,0,0,1,.47-1.78,2.61,2.61,0,0,1,2.25-1.3H511q1.93,0,3.87-.06a3.82,3.82,0,0,0,2.72-1.14q2.39-2.53,2.88-24.94a.41.41,0,0,0-.13-.4.56.56,0,0,0-.41-.17l-13.77.42a.57.57,0,0,0-.62.6q-1.21,22.14-16.52,33.51a5.18,5.18,0,0,1-2.84,1,8.6,8.6,0,0,1-1,0,6.93,6.93,0,0,1-3.63-1.88,3.62,3.62,0,0,1-1.13-2.55c0-.15,0-.31,0-.46a3.62,3.62,0,0,1,1.56-2.81q12.79-9.12,14.26-26.46a.55.55,0,0,0-.16-.4.43.43,0,0,0-.38-.16l-12.3.37a4.51,4.51,0,0,1-4.65-4.35,4.32,4.32,0,0,1,1.23-3.2,4.36,4.36,0,0,1,3.15-1.41l12.65-.39a.52.52,0,0,0,.57-.6l-.21-6.79a4.66,4.66,0,0,1,9.31-.28Z"/><path class="cls-4" d="M558.23,1086.18a.51.51,0,0,0,.61-.56l.06-1.58a.12.12,0,0,0-.08-.15.12.12,0,0,0-.15,0,2.87,2.87,0,0,1-2.08.74h-.11a3.75,3.75,0,0,1-2.2-1c-.37-.37-.79-.73-1.24-1.1a3.23,3.23,0,0,1-1.13-2.69,3.46,3.46,0,0,1,1.34-2.7,37.47,37.47,0,0,0,6.72-6.89,6.16,6.16,0,0,1,3-2.29,5.41,5.41,0,0,1,2.13-.39,5,5,0,0,1,1.51.3l.81.27a3,3,0,0,1,1.87,1.77,2.51,2.51,0,0,1,.19,1.06,2.8,2.8,0,0,1-.46,1.39.23.23,0,0,0,0,.24.17.17,0,0,0,.17.12L600,1074a3.81,3.81,0,1,1-.29,7.61l-1,0a.48.48,0,0,0-.55.51l-.2,5.09a.52.52,0,0,0,.56.61l3,.12a3.9,3.9,0,0,1-.31,7.79l-3-.12a.52.52,0,0,0-.61.56l-.2,5a.53.53,0,0,0,.57.61l2.16.08a3.91,3.91,0,0,1,3.72,4,3.79,3.79,0,0,1-1.25,2.68,3.74,3.74,0,0,1-2.77,1l-44.91-1.76a3.71,3.71,0,0,1-2.7-1.25,3.89,3.89,0,0,1,.21-5.45,3.67,3.67,0,0,1,2.8-1l2.46.09a.51.51,0,0,0,.6-.56l.2-5a.52.52,0,0,0-.56-.61l-3.52-.14a3.9,3.9,0,0,1,.31-7.79Zm1.61,33.6a4.66,4.66,0,0,1-3,2.11,6.14,6.14,0,0,1-3.86-.32,3.19,3.19,0,0,1-1.84-2.36,3,3,0,0,1-.14-1,3.73,3.73,0,0,1,.73-2,28.72,28.72,0,0,0,2.26-3.84,5.32,5.32,0,0,1,2.5-2.48,4.52,4.52,0,0,1,2.31-.55,3.58,3.58,0,0,1,1.11.22,3.91,3.91,0,0,1,2.55,2,3.71,3.71,0,0,1,.46,1.84,3.57,3.57,0,0,1-.35,1.39A40.32,40.32,0,0,1,559.84,1119.78Zm6.93-25.47a.52.52,0,0,0-.61.57l-.2,5a.52.52,0,0,0,.57.61l1.81.07a.52.52,0,0,0,.61-.56l.2-5a.52.52,0,0,0-.57-.6Zm.55-14a.52.52,0,0,0-.61.56l-.2,5a.52.52,0,0,0,.56.61l1.82.07a.52.52,0,0,0,.61-.56l.19-5a.52.52,0,0,0-.56-.61Zm-.38,34.88c0-.16,0-.34,0-.53a4.06,4.06,0,0,1,.92-2.43,3.82,3.82,0,0,1,2.75-1.41,3,3,0,0,1,.59,0,4.15,4.15,0,0,1,2.49,1,3.91,3.91,0,0,1,1.56,2.76c.13,1.14.25,2.24.37,3.3l0,.58a4,4,0,0,1-1,2.6,4.49,4.49,0,0,1-3.11,1.58,2.88,2.88,0,0,1-.59,0,3.64,3.64,0,0,1-2.36-1,3.9,3.9,0,0,1-1.35-2.93C567.12,1117.55,567.05,1116.37,566.94,1115.2Zm12.39-19.81a.52.52,0,0,0-.56-.61l-1.87-.07a.52.52,0,0,0-.61.57l-.2,5a.52.52,0,0,0,.56.61l1.88.07a.52.52,0,0,0,.61-.56Zm-2.69-9.07a.52.52,0,0,0,.56.61l1.88.07a.51.51,0,0,0,.6-.56l.2-5a.52.52,0,0,0-.56-.61l-1.87-.07a.51.51,0,0,0-.61.56Zm2.71,29.6a5.47,5.47,0,0,1-.08-1.12,3.91,3.91,0,0,1,.61-1.91,3.4,3.4,0,0,1,2.58-1.54,3.14,3.14,0,0,1,.88-.08,4.66,4.66,0,0,1,2.43.8,4.56,4.56,0,0,1,2.07,2.72c.31,1.06.58,2.11.81,3.14a3.65,3.65,0,0,1,.13,1.11,3.61,3.61,0,0,1-.79,2.14,4.11,4.11,0,0,1-2.94,1.82,5.67,5.67,0,0,1-.82,0,4.12,4.12,0,0,1-2.37-.86,4.56,4.56,0,0,1-1.82-2.94C579.85,1118.17,579.61,1117.06,579.35,1115.92Zm9.48-14.58a.52.52,0,0,0,.61-.56l.2-5a.53.53,0,0,0-.57-.61l-1.93-.08a.53.53,0,0,0-.61.57l-.19,5a.51.51,0,0,0,.56.61Zm.55-13.94a.52.52,0,0,0,.61-.56l.2-5a.52.52,0,0,0-.56-.61l-1.94-.08a.52.52,0,0,0-.61.56l-.19,5a.52.52,0,0,0,.56.61Zm2.81,28.44a3.42,3.42,0,0,1-.4-1.72,3.71,3.71,0,0,1,.29-1.28,3.32,3.32,0,0,1,2.24-2,7.09,7.09,0,0,1,1.77-.17,7.28,7.28,0,0,1,2,.37,6,6,0,0,1,2.78,2.4q1.49,2.46,2.57,4.56a3.51,3.51,0,0,1,.46,1.83,4.31,4.31,0,0,1-.35,1.51,4.08,4.08,0,0,1-2.61,2.19,4.78,4.78,0,0,1-1.59.23,5.43,5.43,0,0,1-2.15-.55,5.67,5.67,0,0,1-2.65-2.75C593.88,1119.07,593.1,1117.51,592.19,1115.84Z"/><path class="cls-4" d="M641.33,1073.86a2.51,2.51,0,0,1,.72,0,2.54,2.54,0,0,1,1.29.55l1.86,1.32a4.37,4.37,0,0,1,1.7,2.31,5,5,0,0,1,.11,1.72,3.85,3.85,0,0,1-.3,1.14q-3.37,8.49-5.3,12.64a1.18,1.18,0,0,0,.06,1.06,18.85,18.85,0,0,1,2.4,11.75q-.68,6.24-3.93,8.07a7.15,7.15,0,0,1-2.63.89,3.53,3.53,0,0,1-1.07.07,3.81,3.81,0,0,1-2.45-1.33,7.53,7.53,0,0,1-1.82-3.9,5,5,0,0,0-.2-.91s0-.06-.08-.07-.09,0-.1.11l-1.51,14.16a3.85,3.85,0,0,1-1.5,2.72,4,4,0,0,1-3,.86,4,4,0,0,1-3.56-4.44l4.82-45a4.86,4.86,0,0,1,1.87-3.45,5,5,0,0,1,3.74-1.08l8.62.93A.41.41,0,0,0,641.33,1073.86Zm-6.13,7.19a.51.51,0,0,0-.64.52l-2.7,25.22a.52.52,0,0,0,.52.65l.87.09a2.68,2.68,0,0,0,1.68-.29c.67-.4,1.09-1.38,1.26-2.93a14.58,14.58,0,0,0-.47-5.53,20,20,0,0,1-.81-7.28,10.26,10.26,0,0,1,.47-2.19q1.13-3.4,2.39-7.46a.37.37,0,0,0,0-.36.46.46,0,0,0-.36-.21Zm36.08,25.19a.15.15,0,0,0-.16.07c0,.06,0,.11.08.16l1.94,1.68a4,4,0,0,1,1.48,3.22c0,.16,0,.29,0,.41a3.76,3.76,0,0,1-1.59,2.72l-3.38,2.4a.59.59,0,0,0-.21.87,21.51,21.51,0,0,0,3.66,4.28,4.21,4.21,0,0,1,1.4,2.92,4.1,4.1,0,0,1,0,.7,4,4,0,0,1-1.07,2.3,5.5,5.5,0,0,1-3.25,1.72,4.8,4.8,0,0,1-1,0,3.79,3.79,0,0,1-2.29-1.13,26.1,26.1,0,0,1-6.21-9.74,57.62,57.62,0,0,1-3-13.47.64.64,0,0,0-.63-.65l-1.87-.2a.51.51,0,0,0-.64.52l-1.36,12.64a.49.49,0,0,0,.14.4.44.44,0,0,0,.4.13c.63,0,1.56-.11,2.78-.17a2.91,2.91,0,0,1,.59,0,3.57,3.57,0,0,1,3.1,3.57,1.44,1.44,0,0,1,0,.42,4.52,4.52,0,0,1-3.83,3.83q-4.83.54-11.39,1.25a5.24,5.24,0,0,1-1.12,0,4.71,4.71,0,0,1-2.32-.9,4.62,4.62,0,0,1-2-3,3.6,3.6,0,0,1-.11-1.24,3.71,3.71,0,0,1,.79-1.87,3.42,3.42,0,0,1,2.75-1.41h1a.63.63,0,0,0,.6-.64l4.08-38.1a5.1,5.1,0,0,1,5.61-4.53l18.29,2A5.1,5.1,0,0,1,677,1083l-2.18,20.39a3.12,3.12,0,0,1-1.18,2.17A3.07,3.07,0,0,1,671.28,1106.24Zm-15-12.69a.53.53,0,0,0-.65.52l-.26,2.39a.53.53,0,0,0,.53.65l10.19,1.09a.52.52,0,0,0,.65-.52l.25-2.39a.51.51,0,0,0-.52-.64Zm11.82-8.57a.53.53,0,0,0-.52-.65l-10.2-1.09a.52.52,0,0,0-.65.52l-.23,2.16a.52.52,0,0,0,.52.64l10.2,1.09a.51.51,0,0,0,.64-.52Zm2.16,21.62a.25.25,0,0,0,.06-.29.29.29,0,0,0-.24-.2l-4.43-.47a.4.4,0,0,0-.37.13.49.49,0,0,0-.1.41,30.07,30.07,0,0,0,.89,3.8.28.28,0,0,0,.24.23.5.5,0,0,0,.38,0Q668.64,1108.37,670.24,1106.6Z"/><circle class="cls-76" cx="532.32" cy="988.75" r="54.39"/><circle class="cls-77" cx="532.32" cy="988.75" r="42.36"/><rect class="cls-4" x="529.11" y="937.3" width="7.19" height="98.63" transform="translate(645.42 -128.95) rotate(34.14)"/><path class="cls-4" d="M567.63,955.62l-53.58,79,4.09,2.78,53-78.13A18.71,18.71,0,0,1,567.63,955.62Z"/><polygon class="cls-77" points="525.69 968.81 523.98 999.29 498.64 993.47 505.83 966.07 511.65 958.88 521.24 959.91 525.69 968.81"/><polygon class="cls-77" points="550.69 959.56 558.57 963.67 566.44 995.18 539.39 997.23 536.99 968.81 541.1 960.93 550.69 959.56"/><circle class="cls-78" cx="510.78" cy="999.83" r="14.41"/><path class="cls-79" d="M504.1,968.37A11.5,11.5,0,1,1,526.82,972"/><line class="cls-78" x1="526.82" y1="971.96" x2="525.02" y2="1002.08"/><line class="cls-78" x1="504.1" y1="968.37" x2="496.54" y2="997.59"/><circle class="cls-78" cx="553.35" cy="999.83" r="14.41"/><path class="cls-79" d="M560,968.37A11.51,11.51,0,1,0,537.31,972"/><line class="cls-78" x1="537.31" y1="971.96" x2="539.11" y2="1002.08"/><line class="cls-78" x1="560.04" y1="968.37" x2="567.59" y2="997.59"/><path class="cls-79" d="M522.3,978.78s8.9-9.38,19.43,0"/></svg>