<svg id="圖層_1" data-name="圖層 1" xmlns="http://www.w3.org/2000/svg" viewBox="0 0 1080 616.71"><defs><style>.cls-1,.cls-4{fill:#fff;}.cls-14,.cls-2,.cls-7,.cls-8{fill:none;}.cls-2{stroke:#e5efd0;}.cls-14,.cls-2{stroke-miterlimit:10;}.cls-14,.cls-2,.cls-4,.cls-8,.cls-9{stroke-width:5.91px;}.cls-3{fill:#f2ebe3;}.cls-15,.cls-4,.cls-8,.cls-9{stroke:#1a1a1a;}.cls-14,.cls-15,.cls-4,.cls-7,.cls-8,.cls-9{stroke-linecap:round;}.cls-15,.cls-4,.cls-7,.cls-8,.cls-9{stroke-linejoin:round;}.cls-5{fill:#f5ae6e;}.cls-6{fill:#efa15b;}.cls-7{stroke:#77ab30;}.cls-15,.cls-7{stroke-width:4.43px;}.cls-10,.cls-9{fill:#939280;}.cls-11{fill:#6bc7f1;}.cls-12{fill:#f2f0db;}.cls-13{fill:#1a1a1a;}.cls-14{stroke:#d69051;}.cls-15{fill:#cddc4c;}.cls-16{fill:#f9efc3;}</style></defs><title>互動設計UI</title><rect class="cls-1" width="1080" height="616.71"/><ellipse class="cls-2" cx="540" cy="300.48" rx="291.69" ry="226.72"/><path class="cls-3" d="M811,213.29l-4.37-.23c-1.15-11.17-6.79-21.61-17.77-27.26-14.95-7.69-2.76-25.26-18.17-30.9,2.3-9.66-26.15-9.44-30.37-19.13-17.16-39.47-87.53-41.86-123.19-43A330.52,330.52,0,0,0,489.92,114.5a43.59,43.59,0,0,0-9.8-2A375,375,0,0,0,333,130c-9.93,3.24-17.68,11.05-22.31,20.43a42.16,42.16,0,0,0-15.59,25.59,141.29,141.29,0,0,0-43.46,15.07c-21,11.5-22.25,36.69-11.07,54.39-7,4.59-14.15,8.79-19.38,12.45-28.46,20-20.64,73.51,18.8,71.56,32.86-1.63,65.73-3.17,98.59-4.89,27-1.41,56.4-3,76.45-24.43,17.5-18.71,19.65-48.67,1.48-67.57-.16-.16-.33-.29-.49-.45a41.6,41.6,0,0,0-1.7-6.41,51.32,51.32,0,0,0,10-16.47q30.76-5.87,61-14.66a26.23,26.23,0,0,0,13.28-1.77,333.49,333.49,0,0,1,41.29-14.34c1.94,13.09,10.23,24.27,26.32,26.53,32.2,4.5,64.87,9,96.8,16.27-17.86,21.55,2.32,61,30.88,62.57l1.59.08c-3.13,18.39,4.74,38.36,25.94,42.32L794.5,340c36.48,6.81,56.73-36.52,41.66-60.21.37-.31.76-.58,1.12-.9C863.67,256,840.55,214.86,811,213.29Z"/><path class="cls-3" d="M606,73.22c-46.79-11.14-120.57-1.34-156.84,4.17-41.37,6.28-32.3,4.21-73.68,10.49-20.66,3.14-31.66,28.9-26.82,47.24,5.79,22,26.83,29.92,47.23,26.82l90.28-13.71,45.14-6.86c9.93-1.5,26.49-7.39,35.93-1.84C609.89,164.64,654.06,84.67,606,73.22Z"/><path class="cls-3" d="M774.13,380.29q-20.42-.89-40.83-1.52a194.8,194.8,0,0,0-26.52-31c-27.78-26.25-66.58.24-66.09,29.33-5.3,0-10.6-.08-15.9-.08-21.84,0-34,15-36.57,31.76-29.07,0-58.12,2.57-87.24.65-9.19-.61-16.66,1.57-22.42,5.53-6.37-.13-12.74-.29-19.09-.55,16.89-24,8.43-64.35-28.24-62.4l-131.14,7c-43.94,2.34-48.82,63.89-14.06,75.08-.33,17.3,9,35.18,27.39,39q18.72,3.9,37.54,7c3.35,10.26,11.44,19.4,25.29,24.22a354.17,354.17,0,0,0,34,9.93,33.45,33.45,0,0,0,3.23,2c1.3.66,2.61,1.24,3.92,1.84a39,39,0,0,0,30.72,19.76c64.51,6.7,128.52-7.8,193.08-4.32,23.17,1.24,35.4-15,36.8-32.86a113.55,113.55,0,0,0,28,1.83c20.39-1.45,32.33-15.6,35.81-31.36a195.77,195.77,0,0,0,51.69-19.28C828.43,432.9,810.58,381.9,774.13,380.29Z"/><ellipse class="cls-4" cx="540.17" cy="299.9" rx="193.63" ry="130.53"/><path class="cls-5" d="M375.33,264.83l21.3-31.45s148-82.29,272.68,6.88c0,0,10.36,62.1-37.32,73.26,0,0-135.94-60.87-205.94,27.39,0,0-25.36,32.46-6.08,42.61C420,383.52,364.17,365.26,375.33,264.83Z"/><path class="cls-6" d="M630.19,368.26c0,33.91-46.52,61.4-103.91,61.4s-113-29.83-103.91-61.4c9.39-32.59,46.53-61.41,103.91-61.41S630.19,334.34,630.19,368.26Z"/><path class="cls-7" d="M388.32,152.89s.34-8.89-7.31-17.51"/><path class="cls-7" d="M400.8,152.66s-.36-14.4,2.52-22.68"/><line class="cls-7" x1="414.12" y1="151.94" x2="418.8" y2="142.58"/><path class="cls-7" d="M303.21,239.08s.34-8.89-7.32-17.51"/><path class="cls-7" d="M315.69,238.85s-.36-14.4,2.52-22.68"/><line class="cls-7" x1="329.01" y1="238.13" x2="333.69" y2="228.77"/><path class="cls-8" d="M411.86,374.7C414.17,328.79,470.73,292,540.17,292s126.19,36.87,128.32,82.89"/><path class="cls-9" d="M538.25,356.41l8.91-9.67s-4.95-7.22-7.12-9.15c0,0-7.94,4.12-10.32-4.66s-1.16-3.92,3.68-13c0,0,12.94-4.46,14.69,10.29,0,0,9.44,10.1,13.19,17.82,0,0-6.73,11.6-13.38,16.25"/><path class="cls-9" d="M502.89,387l-9.05,9.53s-6.58-5.41-8.65-7.45c0,0,3.58-8.19-5.34-10s-4-.9-12.7,4.54c0,0-3.59,13.2,11.24,14,0,0,9.76,9.7,17.7,12.92,0,0,11.13-7.49,15.32-14.43"/><path class="cls-9" d="M561.89,439.52,541,448.07s-3.44,10.83-3.84,13.7c0,0,7.83,4.34,1.83,11.18s-2.63,3.13-12.85,4.11c0,0-10.87-8.31.44-17.93,0,0,1.86-13.63,6.21-21,0,0,20.41-9.92,29.61-10.49"/><path class="cls-9" d="M588.89,408l10.88-9.61s8.21,2.28,10.92,3.31c0,0,0,8.95,8.92,7s4-.8,9.79-9.3c0,0-2.06-13.52-15.94-8.23,0,0-12.84-4.92-21.41-4.65,0,0-9.72,8.83-14.64,16.62"/><path class="cls-1" d="M630.11,378.75c4.65,13.9,5.19,27-.94,42.12-8.24,20.34-30,27.22-43.29,28.21s-26.35-3.22-37.15-10.9c-33.4-23.74-45-59.23-45-59.23-6.43,1.38-11.74-6.87-11.74-6.87-4.74-4-12.29-29-12.29-29-2-7.52.36-11.87.36-11.87a11.66,11.66,0,0,1,5.49-4.86,14.53,14.53,0,0,1,13,.95c11.46,6.44,24.07,15.43,24.07,15.43a17.81,17.81,0,0,1,7.6,13.67c30.71,9.74,59.06,56.67,59.06,56.67,10.16,11.34,23.64-7.13,23.64-7.13,3.45-9.93,2.83-19.64.26-28.38,0,0-6.51-19.62-21.21-24.66,0,0-35.69-14.11-34.22-45.08,0,0,11.41,24.24,32.92,31.29C602.42,343,620.25,349.31,630.11,378.75Z"/><path class="cls-10" d="M477.07,341.44a11.68,11.68,0,0,1,1.3-1.8C477.39,338.25,477.07,341.44,477.07,341.44Z"/><path class="cls-11" d="M590.59,339.15c-21.51-7-32.92-31.29-32.92-31.29-1.47,31,34.22,45.08,34.22,45.08,14.7,5,21.21,24.66,21.21,24.66a47.31,47.31,0,0,1,1.45,21.7c16.71.74,13,20.19,9.47,30.59a39.76,39.76,0,0,0,5.15-9c6.13-15.13,5.59-28.22.94-42.12C620.25,349.31,602.42,343,590.59,339.15Z"/><path class="cls-10" d="M614.55,399.3a42.85,42.85,0,0,1-1.71,6.68s-13.48,18.47-23.64,7.13c0,0-31.34-38.22-62.06-48a17.8,17.8,0,0,0-7.6-13.66s-12.57-7.51-24-14a14.55,14.55,0,0,0-13-.95,12.11,12.11,0,0,0-4.19,3.06,12.39,12.39,0,0,1,1.3,3.48s7.55,25,12.29,29c0,0,5.31,8.25,11.74,6.87,0,0,11.63,35.49,45,59.23,10.8,7.68,23.93,11.88,37.15,10.9,11.07-.82,28-5.78,38.14-19.19C627.54,419.49,631.26,400,614.55,399.3Z"/><path class="cls-8" d="M630.11,378.75c4.65,13.9,5.19,27-.94,42.12-8.24,20.34-30,27.22-43.29,28.21s-26.35-3.22-37.15-10.9c-33.4-23.74-45-59.23-45-59.23-6.43,1.38-11.74-6.87-11.74-6.87-4.74-4-12.29-29-12.29-29-2-7.52.36-11.87.36-11.87a11.66,11.66,0,0,1,5.49-4.86,14.53,14.53,0,0,1,13,.95c11.46,6.44,24.07,15.43,24.07,15.43a17.81,17.81,0,0,1,7.6,13.67c30.71,9.74,59.06,56.67,59.06,56.67,10.16,11.34,23.64-7.13,23.64-7.13,3.45-9.93,2.83-19.64.26-28.38,0,0-6.51-19.62-21.21-24.66,0,0-35.69-14.11-34.22-45.08,0,0,11.41,24.24,32.92,31.29C602.42,343,620.25,349.31,630.11,378.75Z"/><path class="cls-12" d="M583.41,427.2c-11.8-4-20.21-11.2-28.85-19.94-10.13-10.25-21.09-20-27.21-33.27a2.7,2.7,0,0,0-2.43-1.6,158.11,158.11,0,0,1-24-25.76c-2.06-2.78-6.48.31-4.41,3.1a164.7,164.7,0,0,0,25.85,27.57,2.86,2.86,0,0,0,1,.54c5.92,11.69,15,20.57,24.18,29.89,10.28,10.43,19.54,19.54,33.61,24.34C584.35,433.18,586.68,428.32,583.41,427.2Z"/><path class="cls-12" d="M548,421.87c-9.37-8.57-18.58-17.28-23.44-29.28-1.3-3.2-6.37-1.4-5.07,1.82,5.23,12.89,15,22.37,25.06,31.59C547.11,428.34,550.57,424.21,548,421.87Z"/><path class="cls-12" d="M561.54,393.09l-12.35-12.37c-2.44-2.45-5.89,1.68-3.46,4.13l12.35,12.37C560.52,399.67,564,395.54,561.54,393.09Z"/><ellipse class="cls-13" cx="490.18" cy="358.13" rx="3.82" ry="5.57" transform="translate(-116.89 358.18) rotate(-36.16)"/><ellipse class="cls-13" cx="511.67" cy="340.23" rx="3.82" ry="5.57" transform="translate(-78.65 510.8) rotate(-49.74)"/><path class="cls-3" d="M688.05,361S585,465.11,420,383.52L398,486.65l279.39-2.82Z"/><path class="cls-14" d="M420.54,258.07S450,221.3,513.7,220.49"/><path class="cls-14" d="M434.43,280.14s22.88-28.6,72.73-31.87"/><path class="cls-15" d="M663.16,484.71s4-28.68-9.2-65c0,0,21,20.28,22.35,44.06,0,0,5.92-23.78,17.1-37.07,0,0-2,30.78-1.32,39.87,0,0,9.86-21.68,23.67-35,0,0-13.15,37.77-10.52,51.06"/><path class="cls-15" d="M485.76,148.88s4.07-29.57-9.49-67.08c0,0,21.69,20.92,23.05,45.44,0,0,6.1-24.52,17.63-38.22,0,0-2,31.73-1.36,41.11,0,0,10.17-22.36,24.41-36.06,0,0-13.56,38.94-10.85,52.65"/><path class="cls-1" d="M420,383.52s128,88.7,268.08-22.51l10,15.74s-113.32,106-284.34,22Z"/><ellipse class="cls-8" cx="540.17" cy="299.39" rx="174.4" ry="116.26"/><ellipse class="cls-8" cx="540.17" cy="299.9" rx="193.63" ry="130.53"/><path class="cls-7" d="M445.42,469.64s.35-8.89-7.31-17.51"/><path class="cls-7" d="M457.9,469.41s-.36-14.4,2.52-22.68"/><line class="cls-7" x1="471.22" y1="468.69" x2="475.9" y2="459.33"/><path class="cls-7" d="M770.06,268s.34-8.89-7.31-17.51"/><path class="cls-7" d="M782.54,267.81s-.36-14.4,2.52-22.68"/><line class="cls-7" x1="795.86" y1="267.09" x2="800.54" y2="257.73"/><path class="cls-7" d="M579,490.11s.34-8.89-7.32-17.51"/><path class="cls-7" d="M591.5,489.88s-.36-14.4,2.52-22.68"/><line class="cls-7" x1="604.82" y1="489.16" x2="609.5" y2="479.8"/><polyline class="cls-1" points="262.03 429.89 399.24 367.13 399.36 272.1 385.54 262.64 243.46 325.36"/><polyline class="cls-16" points="262.03 429.89 399.24 367.13 397.94 312.08 248.22 337.29"/><polyline class="cls-8" points="262.03 429.89 399.24 367.13 399.24 272.83 385.17 262.28 243.46 325.36"/><path class="cls-15" d="M319.56,414.05s4.67-34-10.92-77.13c0,0,24.95,24.05,26.51,52.25,0,0,7-28.2,20.27-44,0,0-2.34,36.49-1.56,47.27,0,0,11.69-25.71,28.06-41.46,0,0-15.59,44.78-12.47,60.54"/><line class="cls-15" x1="265.83" y1="329.59" x2="382.26" y2="277.93"/><polyline class="cls-1" points="817.07 429.89 679.86 367.13 679.73 272.1 693.56 262.64 835.64 325.36"/><polyline class="cls-16" points="817.07 429.89 679.86 367.13 681.15 293.9 823.69 383.58"/><polyline class="cls-8" points="817.07 429.89 679.86 367.13 679.86 272.83 693.92 262.28 835.64 325.36"/><line class="cls-15" x1="813.27" y1="329.59" x2="696.84" y2="277.93"/></svg>