<svg id="圖層_1" data-name="圖層 1" xmlns="http://www.w3.org/2000/svg" viewBox="0 0 576.3 440.3"><title>avatar</title><path d="M137.7,236.5c-31.4-23.5-74.9-40.2-74.9-40.2-28.6,2.8-41-1.7-46.4-5.6a4.12,4.12,0,0,1-.9-5.7,3.31,3.31,0,0,1,1.9-1.4c9.2-3.3,22.9-1.4,22.9-1.4-21-6.1-30.4-12.8-34.6-17.6a4.32,4.32,0,0,1,.2-6.2,4.72,4.72,0,0,1,3.2-1.2c11.9.3,27.5,7.8,27.5,7.8C21.7,154,13,144.9,10.9,140.2a5,5,0,0,1,2.6-6.4,5,5,0,0,1,3.2-.2c10.6,3,29.9,18,29.9,18-12-13.6-16.1-21.9-16.9-26.9a5,5,0,0,1,8-4.8c11.5,8.8,28.3,31,28.3,31-3.5-8.2-4.5-13.6-4.5-17a4.56,4.56,0,0,1,4.9-4.4,5.09,5.09,0,0,1,2.6.9c13.8,11.1,21.1,36.7,21.1,36.7s55,28.3,62,32.8" style="fill:#fff"/><polyline points="245.8 244 275.7 294 316.1 245.8" style="fill:#fcede1"/><path d="M217.8,222l-7,9s5,37.1-6,55.7l-5.3,68.2s31.8-35.8,30.6-121.5" style="fill:#fff"/><path d="M348.6,217.8l7.5,8.6s-2.6,37.4,9.6,55.2l7.7,61.6S341.3,315.6,337,229.9" style="fill:#fff"/><path d="M197.6,279.9s-6-11.2-8.8,8.8l-15.9,74.2,7,40.6s20.3,32.8,21.3,9.5C201.2,413.1,210.6,262.1,197.6,279.9Z" style="fill:#cddc4c"/><path d="M366,273.5s-1.6-34.3-4.4-14.3l8.7,77.8,14.2,86.9s13.2-13.4,14.1-36.7C398.6,387.1,379,255.7,366,273.5Z" style="fill:#cddc4c"/><path d="M213.2,231.6s1.2,48.2-8.5,55.1l-19.2-21.2" style="fill:#fdeea4"/><path d="M239.3,240.3s-11.2-12.4-8.5,10.1c0,0-6,74.2-31.9,107.9,0,0-2.9,64.3,9,67.4,0,0,80.2,22.1,139.4-.8,0,0-5.3,6,8.7-2.3l7.7-3.1-4.8-48.3-5.2-53.5s-19.2-62.3-17.9-82.2l-23.4,13.6-35.3,41.2C277.2,290,242.7,237.7,239.3,240.3Z" style="fill:#fdeea4"/><path d="M430.5,254.6c31.8-23,75.5-39.2,75.5-39.2,28.5,3.2,41.1-1.1,46.5-4.9a4.05,4.05,0,0,0,1-5.7,4,4,0,0,0-1.9-1.5c-9.2-3.4-22.9-1.8-22.9-1.8,21.1-5.8,30.5-12.4,34.8-17.1a4.4,4.4,0,0,0-.1-6.2,4.28,4.28,0,0,0-3.2-1.2c-11.9.1-27.6,7.4-27.6,7.4,15-10.8,23.9-19.8,26-24.4a4.88,4.88,0,0,0-2.5-6.4,5,5,0,0,0-3.2-.2c-10.6,2.8-30.2,17.5-30.2,17.5,12.2-13.3,16.4-21.5,17.3-26.6a5,5,0,0,0-4-5.8,5.32,5.32,0,0,0-3.9.9C520.5,148,503.4,170,503.4,170c3.6-8.2,4.7-13.5,4.7-16.9a4.61,4.61,0,0,0-4.7-4.6,4.19,4.19,0,0,0-2.8,1c-14,10.9-21.7,36.4-21.7,36.4s-75.8,36.8-82.9,41.2" style="fill:#fcede1"/><path d="M506.6,178.8s7,7.5,1.7,15.5" style="fill:#fcede1"/><path d="M424.4,263a2.88,2.88,0,0,1-2.5-1.3,3.19,3.19,0,0,1,.7-4.4c33.3-24.1,87.3-45.1,87.8-45.3a3.89,3.89,0,0,1,1.5-.2c30,3.5,42.2-1.2,46.8-4.3a1.37,1.37,0,0,0,.5-.8,1.34,1.34,0,0,0-.2-.8.92.92,0,0,0-.6-.4c-8.9-3.3-22.6-1.8-22.8-1.8a3.09,3.09,0,0,1-3.4-2.5,3.13,3.13,0,0,1,2.3-3.6c22.9-6.2,31.8-13.2,35.1-16.9a1.91,1.91,0,0,0,.5-1.2,1.61,1.61,0,0,0-.5-1.1,1.47,1.47,0,0,0-1.2-.4c-11.8.1-27.6,7.2-27.8,7.3a3.08,3.08,0,0,1-4-1.3,3.13,3.13,0,0,1,.9-4.1c15.6-11.2,24.4-20.3,26.3-24.3a1.89,1.89,0,0,0-.3-2,2,2,0,0,0-2.2-.7c-10.5,2.7-30.5,17.6-30.7,17.8a3.13,3.13,0,0,1-4.2-4.6c13-14.3,16.6-22.2,17.3-26.4a2.09,2.09,0,0,0-.4-1.7,1.86,1.86,0,0,0-1.4-.8,2.23,2.23,0,0,0-1.8.4c-11.7,8.7-29.3,31.2-29.5,31.5a3.12,3.12,0,0,1-4,.8,3.09,3.09,0,0,1-1.3-3.9c3.8-8.9,4.6-13.9,4.6-16.5a1.82,1.82,0,0,0-2-1.7c-.2,0-.4,0-1,.4-13.7,10.7-21.4,36.3-21.5,36.5a3,3,0,0,1-1.6,1.9c-27.4,13.4-80.7,39.6-86.5,43.2a3.12,3.12,0,0,1-3.3-5.3c7.1-4.5,75.5-37.9,85.9-43,1.9-5.7,9.8-27.9,23.4-38.4.1-.1.2-.1.3-.2a8.39,8.39,0,0,1,4.3-1.4,8.14,8.14,0,0,1,8.4,7.8v.1a23.79,23.79,0,0,1-.3,3.6c6.2-7.1,14.1-15.6,20.6-20.4l.1-.1a9,9,0,0,1,6.2-1.4,8.17,8.17,0,0,1,5.5,3.3,8.57,8.57,0,0,1,1.5,6.4c-.7,3.8-2.7,8.4-6.2,13.7,5.5-3.3,11.5-6.4,16-7.5a8.34,8.34,0,0,1,8.5,2.7,8,8,0,0,1,1.2,8.6c-1.7,3.8-6.5,9.2-13.6,15.3a60.77,60.77,0,0,1,12.6-1.8,7.86,7.86,0,0,1,7.9,7.6,7.69,7.69,0,0,1-2.1,5.6c-3.2,3.5-9.3,8.3-20.7,12.9a42.13,42.13,0,0,1,7.2,1.8,7.53,7.53,0,0,1,3.5,2.6,7.15,7.15,0,0,1,1.3,5.5,7.52,7.52,0,0,1-3,4.8.1.1,0,0,0-.1.1c-6.4,4.4-20.4,8.9-50.3,5.5-6.4,2.6-55.1,22.1-85.7,44.2A3.86,3.86,0,0,1,424.4,263Z" style="fill:#1a1a1a"/><path d="M513.9,195.1a2,2,0,0,1-1.3-.4,2.2,2.2,0,0,1-.6-3.2c4.5-6.6-1.4-13.1-1.7-13.4a2.33,2.33,0,0,1,3.4-3.2c3,3.2,7.4,11.4,2.1,19.2A2.28,2.28,0,0,1,513.9,195.1Z" style="fill:#1a1a1a"/><path d="M144.9,239.5c-31.5-23.5-75-40.2-75-40.2-28.6,2.8-41-1.7-46.4-5.5a4.12,4.12,0,0,1-.9-5.7,3.31,3.31,0,0,1,1.9-1.4c9.2-3.3,22.9-1.4,22.9-1.4-21-6.1-30.4-12.8-34.5-17.6a4.32,4.32,0,0,1,.2-6.2,4.72,4.72,0,0,1,3.2-1.2c11.9.3,27.5,7.8,27.5,7.8-14.9-11-23.6-20.1-25.7-24.8a4.87,4.87,0,0,1,5.8-6.6c10.6,3,29.9,17.9,29.9,17.9-12-13.5-16.1-21.8-16.9-26.9a5.06,5.06,0,0,1,4.1-5.8,5,5,0,0,1,3.9,1c11.5,8.7,28.3,31,28.3,31-3.5-8.2-4.5-13.5-4.5-17a4.61,4.61,0,0,1,4.8-4.5,4.49,4.49,0,0,1,2.7,1c13.8,11,21.2,36.7,21.2,36.7s55,28.2,62.1,32.7" style="fill:#fcede1"/><path d="M69.8,162.7s-7.1,7.4-1.9,15.5" style="fill:#fcede1"/><path d="M150.8,248a3.53,3.53,0,0,1-1.9-.6c-30.4-22.5-78.6-42.8-85-45.4-30.1,3-43.9-1.7-50.2-6.2a7.52,7.52,0,0,1-3-4.8,7.39,7.39,0,0,1,1.3-5.6,8.15,8.15,0,0,1,3.4-2.6,40.87,40.87,0,0,1,7.1-1.7C11.2,176.3,5.1,171.5,2,167.9a7.6,7.6,0,0,1-2-5.6,7.69,7.69,0,0,1,8.1-7.4,54.31,54.31,0,0,1,12.4,2c-6.9-6.1-11.6-11.6-13.4-15.5a8.21,8.21,0,0,1,1.4-8.7,8.1,8.1,0,0,1,8.5-2.5c4.6,1.3,10.4,4.4,15.9,7.8-3.5-5.4-5.5-10-6.2-13.9a8.63,8.63,0,0,1,7-9.7,8.42,8.42,0,0,1,6.4,1.6c6.4,4.8,14.2,13.4,20.3,20.6a23,23,0,0,1-.2-3.6,7.8,7.8,0,0,1,2.6-5.6,8.11,8.11,0,0,1,10.4-.6c13.5,10.8,21.2,33.2,22.9,38.9,10.3,5.2,78.1,39.6,85.3,44a3.12,3.12,0,1,1-3.3,5.3c-7.3-4.6-85.2-44-86-44.4a3,3,0,0,1-1.6-1.9c-.1-.3-7.5-26.2-21.1-37a1.93,1.93,0,0,0-1-.3,2.39,2.39,0,0,0-1.4.5,1.61,1.61,0,0,0-.6,1.3c-.1,3.8,1.4,9.4,4.4,16.6a3.16,3.16,0,0,1-1.3,3.9,3.08,3.08,0,0,1-4-.8c-.2-.2-17.5-23.2-29.1-31.9l-.1-.1a1.73,1.73,0,0,0-1.5-.3,2.34,2.34,0,0,0-1.8,2.6c.7,4.1,4.2,12.1,17,26.7a3.13,3.13,0,0,1-4.3,4.5c-.2-.2-19.9-15.3-30.4-18.2a2.1,2.1,0,0,0-2.1.6,2,2,0,0,0-.4,2c1.9,4.2,10.7,13.5,26,24.7a3,3,0,0,1,.8,4.1,3.07,3.07,0,0,1-4,1.2c-.2-.1-16-7.5-27.7-7.8H7.7a1.6,1.6,0,0,0-1.1.4c-.4.3-.4.8-.5,1a1.75,1.75,0,0,0,.4,1.2c4,4.5,13.3,11.2,34.9,17.4a3.06,3.06,0,0,1,2.2,3.6,3.13,3.13,0,0,1-3.5,2.5c-.1,0-13.8-1.8-22.7,1.4a1,1,0,0,0-.5.4,1.34,1.34,0,0,0-.2.8,1.37,1.37,0,0,0,.5.8c4.5,3.2,16.5,8.1,46.7,5a2.62,2.62,0,0,1,1.5.2c.5.2,54,22,87.1,46.5a3.18,3.18,0,0,1,.7,4.4A2.69,2.69,0,0,1,150.8,248Z" style="fill:#1a1a1a"/><path d="M62.3,178.9a2.43,2.43,0,0,1-2-1.1c-5.2-7.9-.7-16,2.4-19.2a2.33,2.33,0,1,1,3.4,3.2c-.3.3-6.2,6.7-1.8,13.4a2.29,2.29,0,0,1-.7,3.2A1.66,1.66,0,0,1,62.3,178.9Z" style="fill:#1a1a1a"/><path d="M277.4,440.3a220.32,220.32,0,0,1-24.4-1.4c-32.2-3.8-51.9-13.8-52.7-14.2a3.18,3.18,0,0,1-1.7-2.6,1015,1015,0,0,1,3.5-138.3,3.11,3.11,0,0,1,6.2.6A1024.63,1024.63,0,0,0,204.7,420c5.3,2.4,23.2,9.8,49.3,12.8,28.5,3.3,72.7,2.1,122.6-22.7.2-11.3-9.4-86-15.7-132.5a3.13,3.13,0,1,1,6.2-.8c0,.3,4.6,33.8,8.8,67,2.4,19.5,4.3,35.1,5.4,46.4.7,6.7,1.2,12,1.4,15.6.3,5.7.4,8.1-1.9,9.2C341.5,434.7,305.5,440.3,277.4,440.3Zm100.6-31Z" style="fill:#1a1a1a"/><path d="M277.4,291.9h-.2a2.57,2.57,0,0,1-2.1-1.2l-31.6-45.1a2.8,2.8,0,1,1,4.6-3.2l29.6,42.2L314,243.9a2.83,2.83,0,0,1,4.2,3.8L279.5,291A3.12,3.12,0,0,1,277.4,291.9Z" style="fill:#1a1a1a"/><path d="M267.1,262.2a2.25,2.25,0,0,1-2.2-1.6l-3.1-9.6a2.31,2.31,0,0,1,4.4-1.4l3.1,9.6a2.32,2.32,0,0,1-1.5,2.9A1.48,1.48,0,0,1,267.1,262.2Z" style="fill:#1a1a1a"/><circle cx="276.6" cy="322.8" r="7.6" style="fill:#fff"/><path d="M276.6,332.7a9.9,9.9,0,1,1,9.9-9.9A9.92,9.92,0,0,1,276.6,332.7Zm0-15.2a5.3,5.3,0,1,0,5.3,5.3A5.34,5.34,0,0,0,276.6,317.5Z" style="fill:#1a1a1a"/><circle cx="278.1" cy="361" r="7.6" style="fill:#fff"/><path d="M278.1,370.9A9.9,9.9,0,1,1,288,361,9.92,9.92,0,0,1,278.1,370.9Zm0-15.2a5.3,5.3,0,1,0,5.3,5.3A5.34,5.34,0,0,0,278.1,355.7Z" style="fill:#1a1a1a"/><path d="M258,312.2s.3,66.9,5.9,105.6" style="fill:#f5bba8"/><path d="M263.9,420.1a2.35,2.35,0,0,1-2.3-2c-5.6-38.4-5.9-105.3-5.9-105.9a2.41,2.41,0,0,1,2.3-2.4h0a2.26,2.26,0,0,1,2.3,2.3c0,.7.4,67.2,5.9,105.3a2.37,2.37,0,0,1-2,2.7Z" style="fill:#1a1a1a"/><path d="M205.5,286.8a3.53,3.53,0,0,1-1.9-.6l-20.3-15a3.15,3.15,0,0,1,3.7-5.1l20.3,15a3.18,3.18,0,0,1,.7,4.4A3.13,3.13,0,0,1,205.5,286.8Z" style="fill:#1a1a1a"/><path d="M202,355.6a2,2,0,0,1-1.1-.3,2.41,2.41,0,0,1-.9-3.2c33.3-59.2,27.1-115.4,27-116a2.32,2.32,0,0,1,4.6-.6c.1.6,6.5,58.3-27.6,118.8A2.13,2.13,0,0,1,202,355.6Z" style="fill:#1a1a1a"/><path d="M209.5,278.2h-.4a2.3,2.3,0,0,1-1.9-2.7c2-12.3,2.4-40.6,2.4-40.8a2.35,2.35,0,1,1,4.7.1c0,1.2-.3,28.9-2.4,41.6A2.58,2.58,0,0,1,209.5,278.2Z" style="fill:#1a1a1a"/><path d="M369.5,340.3a2.39,2.39,0,0,1-1.4-.5c-12.5-9.7-22-29.9-28.2-59.9a313.38,313.38,0,0,1-5.7-41.9,2.35,2.35,0,0,1,4.7-.3c0,.8,4.3,76.7,32.1,98.4a2.37,2.37,0,0,1,.4,3.3A2.46,2.46,0,0,1,369.5,340.3Z" style="fill:#1a1a1a"/><path d="M201.7,425a2,2,0,0,1-.8-.1c-9.9-2.8-17.5-9.1-22.6-18.7-8.9-17-10-44.3-3-81a391.4,391.4,0,0,1,12.9-49.7,3.13,3.13,0,1,1,5.9,2.1c-.3.9-30.1,87.9-10.2,125.8,4.3,8.2,10.4,13.3,18.7,15.6a3.16,3.16,0,0,1,2.2,3.8A3.34,3.34,0,0,1,201.7,425Z" style="fill:#1a1a1a"/><path d="M392.7,420.9a2.3,2.3,0,0,1-1.4-.4,3.13,3.13,0,0,1-1.3-4.2c21.4-41-3.1-115.9-3.4-116.7a3.1,3.1,0,1,1,5.9-1.9,281.54,281.54,0,0,1,10.1,44.1c4.9,33.1,2.5,59.2-7.1,77.4A3.2,3.2,0,0,1,392.7,420.9Z" style="fill:#1a1a1a"/><rect x="263.75" y="269.28" width="112.9" height="16" transform="translate(-43.71 494.04) rotate(-71.67)" style="fill:#ef8519"/><path d="M311.4,336.2,292,329.8l36.9-111.4,19.4,6.4Zm-13.8-9.3,11,3.6,34.1-103-11-3.6Z" style="fill:#1a1a1a"/><rect x="235.3" y="220.82" width="16" height="112.9" transform="translate(-74.85 90.58) rotate(-18.33)" style="fill:#ef8519"/><path d="M252.1,336.2,215.2,224.8l19.4-6.4,36.9,111.4ZM220.8,227.6l34.1,103,11-3.6L231.8,224Z" style="fill:#1a1a1a"/><ellipse cx="302.39" cy="15.35" rx="12.4" ry="13.9" transform="translate(247.95 313.19) rotate(-82.55)" style="fill:#fff"/><path d="M302.8,30.9a19.42,19.42,0,0,1-2.4-.2,18.11,18.11,0,0,1-11.2-5.9,14.51,14.51,0,0,1-3.6-11.7A14.42,14.42,0,0,1,292,2.8,17.7,17.7,0,0,1,304.4,0c9.3,1.2,16,9.1,14.9,17.6C318.2,25.3,311.1,30.9,302.8,30.9Zm-.9-24.8A11.73,11.73,0,0,0,295.5,8a8.44,8.44,0,0,0-3.8,6h0a8.78,8.78,0,0,0,2.2,6.8,11.57,11.57,0,0,0,7.3,3.8c5.9.8,11.2-2.7,11.9-7.8S309.5,7,303.6,6.2A9.7,9.7,0,0,0,301.9,6.1Zm-13.3,7.5Z" style="fill:#1a1a1a"/><path d="M323.9,52.8s58.5,11,67.2,87.3l-2.8,24,7.4,7.8,3,22.1L388,212l30.4,18.3,26.1,26.3-9.5,9.5-85.6-42.3-19.7,15.5-29.6,10.8Z" style="fill:#fff"/><path d="M371.4,164.7l-11.2,44.8,11.7,7.3,12.7-3.6S402.3,165.1,371.4,164.7Z" style="fill:#fcede1"/><polyline points="206.7 150.3 187.6 145.6 171.6 152.6 168.2 179.9 183.4 198.5 198.5 202.6 207.9 198.1" style="fill:#fcede1"/><path d="M185.4,146.5l14.4-.7,3.6-15.6,11.5-12.5,20.8-25.6s12.4-4.5,15.5-4.1l1,7.9,79,8.5,4.3-4.5,7.9,6.2,10.2,27.6,19.4,5-.1,22.1,16.4-.9.2-33.9s-22.7-28.7-29.2-40.2C352.2,71.2,331,57.9,331,57.9l-15.3-7.5-40.6-3.6-34.9,8.4L207,79.5l-19.3,36.8Z" style="fill:#eab381"/><path d="M360.4,211.2l-13.7,17.2,12,39.9,20.9,34.1,42.5-24-3.9-16.6,17,4.4s-14.7-26-50.5-53C384.6,213.2,366.1,217.8,360.4,211.2Z" style="fill:#eab381"/><polygon points="181.7 195.6 127.4 221.5 132.8 233.2 148.5 233.5 140.5 248.3 170.1 282.7 217.8 222.4 205.6 201.4 181.7 195.6" style="fill:#eab381"/><path d="M201.8,123.2s-19.4,84,29.6,112.5c0,0,49.3,39.6,98.4-3.6,0,0,30.1-22.8,27.4-94.4l-12.3-34.8-10.7-2-32.9,1.9-34.9-3.9-14.3-3-1-7.9s-27.8,2.6-38.3,33.4C212.9,121.3,205.4,117.6,201.8,123.2Z" style="fill:#fcede1"/><ellipse cx="331.61" cy="189.46" rx="11.7" ry="13.2" transform="translate(116.3 504.91) rotate(-85.43)" style="fill:#f2abb7"/><ellipse cx="233.37" cy="182.86" rx="11.6" ry="13.1" transform="translate(32.23 400.67) rotate(-85.36)" style="fill:#f2abb7"/><path d="M283.7,176.6a2.77,2.77,0,0,1-.9-.1c-14-4.3-11.2-16-11.2-16.1a3.13,3.13,0,0,1,3.8-2.3,3.07,3.07,0,0,1,2.3,3.7c-.1.7-1.1,6.2,7,8.7a3.2,3.2,0,0,1,2.1,3.9A3.45,3.45,0,0,1,283.7,176.6Z" style="fill:#1a1a1a"/><path d="M372.4,219.4a18.37,18.37,0,0,1-14.4-6.2,3.11,3.11,0,0,1,4.6-4.2q4.65,5.1,12.6,3.9a29,29,0,0,0,7.6-2.4c17.3-13.5,10.7-35,9.9-37.4-2.4-4.5-5.3-7.3-8.8-8.4a14.11,14.11,0,0,0-9.8.9,3.13,3.13,0,0,1-4.2-1.3,3.1,3.1,0,0,1,1.2-4.2,20.18,20.18,0,0,1,14.5-1.4c5.3,1.6,9.5,5.5,12.7,11.7.1.1.1.3.2.4.1.3,9.7,28-12.1,44.8a1.38,1.38,0,0,1-.4.3A29.07,29.07,0,0,1,372.4,219.4Z" style="fill:#1a1a1a"/><path d="M387.9,165.2a2.77,2.77,0,0,1-.9-.1,3.2,3.2,0,0,1-2.1-3.9c2.5-8,2.9-20.1,3-21.1a101.63,101.63,0,0,0-7.2-32.9c-9.4-23.4-25.9-39.8-49-48.8a147.23,147.23,0,0,0-50.3-8.5c-36.4.4-63.7,15.8-81.1,45.7-6.6,11.4-10.7,25.4-12.4,42.8-.2,1.6-.3,3.2-.4,5.1a3.11,3.11,0,0,1-6.2-.4c.1-1.9.2-3.6.4-5.4,1.8-18.3,6.1-33.1,13.2-45.3,18.4-31.5,48.4-48.4,86.7-48.8a151.66,151.66,0,0,1,52.5,9c30.9,12,45.7,35.2,52.6,52.5a106.37,106.37,0,0,1,7.6,35.1v.1c0,.6-.4,13.7-3.2,22.8A3.66,3.66,0,0,1,387.9,165.2Z" style="fill:#1a1a1a"/><path d="M371.2,177s9.3-5.7,12.9,4.7c0,0,3.5,26.4-17.2,18.7" style="fill:#ebb988"/><path d="M373.7,204.1a20.74,20.74,0,0,1-7.6-1.6,2.34,2.34,0,1,1,1.6-4.4c4.6,1.7,8.1,1.7,10.4-.1,4.2-3.4,4.1-12.3,3.7-15.8-.8-2.3-2-3.7-3.5-4.2-2.6-.9-5.9.9-5.9.9a2.33,2.33,0,0,1-2.4-4c.2-.1,5.1-3.1,9.9-1.4,2.9,1.1,5.1,3.5,6.4,7.3a.75.75,0,0,1,.1.5c.1.6,1.8,14.6-5.4,20.3A10.79,10.79,0,0,1,373.7,204.1Z" style="fill:#1a1a1a"/><path d="M195.6,204.3c-9.6,0-17.8-5.7-18.3-6l-.3-.3c-21.3-20.2-5.9-45.8-5.7-46.1.1-.1.2-.3.3-.4,11.4-13.5,24.7-8.6,28.5-6.8a3.15,3.15,0,0,1-2.7,5.7c-4.4-2.1-13-4.2-20.9,5-1.3,2.2-12,21.9,4.6,37.9,1.4.9,11.5,7.3,20.3,3.6a3.14,3.14,0,0,1,2.4,5.8A20.6,20.6,0,0,1,195.6,204.3Z" style="fill:#1a1a1a"/><path d="M198.5,161.9c-2.9-1.6-9.2-3.8-13.4,3.3,0,0-8.3,25.2,15.8,21.2" style="fill:#ebb988"/><path d="M196.1,189.1q-7.5,0-11.4-4.5c-6.1-7.1-2-19.7-1.8-20.2.1-.2.1-.3.2-.5,4.4-7.4,11.4-7,16.5-4.2a2.35,2.35,0,1,1-2.3,4.1c-4.3-2.4-7.7-1.6-10.1,2.2-1,3.1-2.5,11.4,1,15.5,2.2,2.6,6.3,3.4,12.2,2.4a2.33,2.33,0,0,1,.8,4.6A18.64,18.64,0,0,1,196.1,189.1Z" style="fill:#1a1a1a"/><path d="M379.5,305.4a3.1,3.1,0,0,1-2.2-.9c-.8-.8-19-19.4-31.9-72.2a3.14,3.14,0,1,1,6.1-1.5c10.7,43.5,25,63,29.1,67.9,11.4-3.4,25.5-12.9,38.1-21.9-.6-2.8-2.1-8.9-3.6-14.4a3.1,3.1,0,0,1,3.8-3.8c4.8,1.3,12.2,3.2,15.3,4,2.8-2.6,4.9-4.7,6.3-6.2-26.7-31.6-54.3-40.4-54.6-40.5a3.2,3.2,0,0,1-2.1-3.9,3.16,3.16,0,0,1,3.9-2.1c1.2.4,30.8,9.8,59.3,44.6a3,3,0,0,1-.1,4,120.25,120.25,0,0,1-9.7,9.7c-1.3,1.3-1.4,1.2-11.5-1.4l-3.3-.9c3.3,12.6,3.2,13.3,1.4,14.7-14.8,10.7-30.4,21.3-43.6,24.5A.91.91,0,0,1,379.5,305.4Zm53.4-41.6Zm0,0Zm.1-.1Z" style="fill:#1a1a1a"/><path d="M403.8,248.1a2.5,2.5,0,0,1-1.8-.8c-6.4-7.5-17.6-13.7-17.8-13.8a2.38,2.38,0,0,1-.9-3.2,2.41,2.41,0,0,1,3.2-.9c.5.3,12,6.7,19,14.8a2.45,2.45,0,0,1-.2,3.3A2,2,0,0,1,403.8,248.1Z" style="fill:#fff"/><path d="M382.5,252.5a2.17,2.17,0,0,1-1.9-1l-9.7-13.7a2.37,2.37,0,1,1,3.9-2.7l9.7,13.7a2.4,2.4,0,0,1-.6,3.3A2.3,2.3,0,0,1,382.5,252.5Z" style="fill:#aa806a"/><path d="M170,285.9a3.37,3.37,0,0,1-1.7-.5c-10.6-6.8-21.3-21.8-30.4-35.3-.1-.1-.1-.2-.2-.4-.8-1.7-.7-2.3,5.5-13.2h-2.5c-2,0-3.9-.1-5.4-.1-3.1-.1-4.3-.1-5.2-1.9-3.5-6.9-5.4-11.7-5.5-11.9a3.09,3.09,0,0,1,1-3.6c21.8-16.6,41-23.1,53.1-25.7a3.12,3.12,0,1,1,1.3,6.1c-9.2,1.9-27.5,7.5-48.7,23.1.8,1.7,2,4.4,3.6,7.7,2.7.1,8.5.1,13.7.2a3.15,3.15,0,0,1,2.7,1.6,2.89,2.89,0,0,1,0,3.1c-2.8,5-5.9,10.5-7.2,13,8.5,12.4,17.3,24.5,25.6,30.7a306.94,306.94,0,0,0,44.1-55.3,3.12,3.12,0,0,1,5.3,3.3,307.58,307.58,0,0,1-46.9,58.3A3.49,3.49,0,0,1,170,285.9Zm-34.4-54.2Z" style="fill:#1a1a1a"/><path d="M165.2,224.3a2.28,2.28,0,0,1-1.9-1,2.39,2.39,0,0,1,.5-3.3c8.3-6,20-9,20.5-9.2a2.29,2.29,0,0,1,2.8,1.7,2.25,2.25,0,0,1-1.7,2.8c-.1,0-11.4,3-18.9,8.4A1.61,1.61,0,0,1,165.2,224.3Z" style="fill:#aa806a"/><path d="M182.1,234.2a2.5,2.5,0,0,1-1.8-.8,2.45,2.45,0,0,1,.2-3.3l12.1-10.5a2.34,2.34,0,1,1,3.1,3.5l-12.1,10.5A2,2,0,0,1,182.1,234.2Z" style="fill:#aa806a"/><path d="M362.3,151.2a3.11,3.11,0,0,1-3.1-2.5C354,121.4,346.1,114,346,114a3.12,3.12,0,0,1,4.1-4.7c1,.8,9.6,9,15.2,38.3a3.23,3.23,0,0,1-2.5,3.7A.75.75,0,0,0,362.3,151.2Z" style="fill:#1a1a1a"/><path d="M285.7,255.2a105.27,105.27,0,0,1-15.6-1.2c-20.6-3.2-34.8-11.5-35.9-12.2-22.4-12.3-35.3-37.4-37.3-72.5a196.33,196.33,0,0,1,3.7-49.3,3.12,3.12,0,1,1,6.1,1.3c-.2.9-19.2,87.7,30.6,115a.1.1,0,0,1,.1.1,102.72,102.72,0,0,0,34,11.5c26.4,4.1,50.4-2.6,71.2-19.7.1-.1.2-.1.3-.2.3-.2,28.7-20,25.5-88.6a3.15,3.15,0,1,1,6.3-.3c3.3,70.7-25.4,92.2-28.1,94C325.3,250.4,303.5,255.2,285.7,255.2Z" style="fill:#1a1a1a"/><path d="M213.4,123.2a3.6,3.6,0,0,1-1.1-.2,3.11,3.11,0,0,1-1.8-4,56.63,56.63,0,0,1,27.2-30,3.13,3.13,0,0,1,2.8,5.6,50,50,0,0,0-24.2,26.8A3.29,3.29,0,0,1,213.4,123.2Z" style="fill:#1a1a1a"/><path d="M266.1,187.5s-6.5,33,6.6,37.1c0,0,16.4,8.8,20-36.5" style="fill:#ef8b6e"/><path d="M275.9,228a9.84,9.84,0,0,1-4.3-.9c-14.8-5-9-36.6-8.3-40.3a2.8,2.8,0,0,1,5.5,1.1c-1.6,7.9-4,31.1,4.7,33.9.2.1.3.1.5.2a5.7,5.7,0,0,0,4.8-.4c3.3-1.9,9.1-8.8,11.1-33.8a2.81,2.81,0,0,1,5.6.4c-1.7,21.2-6.4,34.2-14.1,38.4A11,11,0,0,1,275.9,228Z" style="fill:#1a1a1a"/><path d="M282.1,190.4c-15.6,0-22.5-6.7-23.7-7.9-.7-.7-3.2-3.2-2.7-6.6.4-2.8,2.6-5.1,6.6-6.7a2.82,2.82,0,1,1,2.2,5.2c-2.2,1-3.1,1.9-3.2,2.4s.7,1.5.9,1.7l.3.3c.1.1,10.3,11.2,38.3,3.2a2.82,2.82,0,0,1,1.6,5.4A80.84,80.84,0,0,1,282.1,190.4Z" style="fill:#1a1a1a"/><path d="M334.7,130.3a3,3,0,0,1-2-.8c-7.3-6.4-16.4-2.5-16.8-2.3a3.11,3.11,0,1,1-2.5-5.7c.5-.2,13-5.7,23.4,3.3a3.14,3.14,0,0,1,.3,4.4A3.19,3.19,0,0,1,334.7,130.3Z" style="fill:#1a1a1a"/><path d="M235.1,121.6a2.88,2.88,0,0,1-2.5-1.3,3.19,3.19,0,0,1,.7-4.4c11.1-8.2,23.1-1.8,23.6-1.5a3.11,3.11,0,0,1-2.9,5.5c-.4-.2-9.1-4.7-17,1.1A3.29,3.29,0,0,1,235.1,121.6Z" style="fill:#1a1a1a"/><ellipse cx="322.86" cy="157.57" rx="13.8" ry="11.5" transform="translate(132.26 462.1) rotate(-83.97)" style="fill:#1a1a1a"/><path d="M318,153.6a4.25,4.25,0,0,1-1.1-.2c-.4-.2-9-3.9-9.8-13.2a3,3,0,0,1,2.5-3.1,2.79,2.79,0,0,1,3,2.5c.5,6,6.3,8.5,6.4,8.6a2.83,2.83,0,0,1,1.5,3.7A2.62,2.62,0,0,1,318,153.6Z" style="fill:#1a1a1a"/><ellipse cx="244.99" cy="150.99" rx="13.7" ry="11.4" transform="translate(67.87 377.81) rotate(-83.66)" style="fill:#1a1a1a"/><path d="M239.7,144.8a4.25,4.25,0,0,1-1.1-.2c-.4-.2-9-3.9-9.8-13.2a2.76,2.76,0,0,1,5.5-.5c.5,6,6.2,8.5,6.4,8.6a2.87,2.87,0,0,1,1.5,3.7A2.8,2.8,0,0,1,239.7,144.8Z" style="fill:#1a1a1a"/><path d="M319.8,17.9s-84.4-28-121.2,62.7c0,0-24.2,2.9-26.1,25.9,0,0,113.5-7,242.5,20.1,0,0-9.1-21.1-27.8-33.9C387.2,92.8,383.5,30.1,319.8,17.9Z" style="fill:#fff"/><path d="M304.7,17.8S235.3-10.1,198.6,80.6c0,0-24.2,2.9-26.1,25.9,0,0,89.5-12.1,218.5,15,0,0,.4-12-18.4-24.8C372.6,96.7,368.5,30,304.7,17.8Z" style="fill:#ddcbba"/><path d="M334,62.8a2.29,2.29,0,0,1-2.3-2c-3.2-25.1-12.5-31.9-12.6-32a2.37,2.37,0,1,1,2.7-3.9c.5.3,11.1,8.1,14.6,35.2a2.23,2.23,0,0,1-2,2.6A.76.76,0,0,1,334,62.8Z" style="fill:#1a1a1a"/><path d="M259.2,52.7a.9.9,0,0,1-.5-.1,2.31,2.31,0,0,1-1.8-2.8c3.8-18.1,18.2-28.8,18.8-29.2a2.36,2.36,0,0,1,2.8,3.8h0c-.1.1-13.5,10.1-17,26.4A2.35,2.35,0,0,1,259.2,52.7Z" style="fill:#1a1a1a"/><path d="M274.2,60.4s-42.2-1.9-66.5-.3L196.3,79.9s59.5-5.9,81.1-.4" style="fill:#a18f7e"/><path d="M310.8,64.4s41.9,5.3,65.6,11l7.9,21.4s-57.6-15.9-79.9-14.1" style="fill:#a18f7e"/><path d="M386.1,79.4a.9.9,0,0,1-.5-.1c-120-25.5-177.1-17.1-177.7-17a2.38,2.38,0,0,1-2.7-1.9,2.43,2.43,0,0,1,1.9-2.7c.6-.1,58.5-8.7,179.3,17a2.31,2.31,0,0,1,1.8,2.8A2,2,0,0,1,386.1,79.4Z" style="fill:#1a1a1a"/><path d="M390.7,100.1a.9.9,0,0,1-.5-.1C325.3,86,276.1,81.8,246.3,80.9c-32.3-1.1-49.5,1.2-49.7,1.3a2.32,2.32,0,1,1-.6-4.6c.7-.1,70.2-9.1,195.2,17.9a2.31,2.31,0,0,1,1.8,2.8A2.37,2.37,0,0,1,390.7,100.1Z" style="fill:#1a1a1a"/><circle cx="295.4" cy="66.6" r="23.8" style="fill:#bfbfbf"/><path d="M295.4,93.5a26.9,26.9,0,1,1,26.9-26.9A27,27,0,0,1,295.4,93.5Zm0-47.6a20.7,20.7,0,1,0,20.7,20.7A20.74,20.74,0,0,0,295.4,45.9Z" style="fill:#1a1a1a"/><circle cx="295.2" cy="66" r="11" style="fill:#fff"/><path d="M295.2,79.3A13.3,13.3,0,1,1,308.5,66,13.29,13.29,0,0,1,295.2,79.3Zm0-22a8.7,8.7,0,1,0,8.7,8.7A8.71,8.71,0,0,0,295.2,57.3Z" style="fill:#1a1a1a"/><path d="M412.7,128.7a1.27,1.27,0,0,1-.6-.1c-168.3-31.9-240.7-19.9-241.4-19.8a3,3,0,0,1-2.9-1.1,3.15,3.15,0,0,1-.5-3.1,47.77,47.77,0,0,1,26.5-27.3c15.9-38.2,41.9-54.2,61.1-61,20.4-7.2,37.1-5.6,38.7-5.4C322,12.5,360.2,21.6,381,56.2A90.29,90.29,0,0,1,393.7,96c18.6,13.4,22,28.3,22.1,28.9a3.16,3.16,0,0,1-.8,2.8A3.26,3.26,0,0,1,412.7,128.7ZM213.9,100.1c37.6,0,100.5,3.9,194,21.3-2.4-5.1-7.8-13.5-19-21.2a3.17,3.17,0,0,1-1.3-2.6,84.11,84.11,0,0,0-12-38.5c-15.7-25.8-43.4-39.9-82.4-42H293a89.66,89.66,0,0,0-36.2,5.2c-26.3,9.3-45.6,29-57.6,58.6a3.51,3.51,0,0,1-1.8,1.8,41.29,41.29,0,0,0-21.9,19.2A359.45,359.45,0,0,1,213.9,100.1Z" style="fill:#1a1a1a"/><path d="M400.3,59.6a12.75,12.75,0,0,0,.4-8.4c-1.7-6.1-7.1-9.9-12.1-8.5-3.6,1-6,4.5-6.3,8.7a24.57,24.57,0,0,0-15.6,4.4c-2.5-3.4-6.3-5.2-9.9-4.1-5,1.4-7.6,7.5-5.9,13.6a12.57,12.57,0,0,0,4.7,7,23.15,23.15,0,0,0,.4,11.1c3.7,13.3,17.9,20.9,31.7,17s21.9-17.8,18.2-31A24,24,0,0,0,400.3,59.6Z" style="fill:#fff"/><path d="M380.3,103.7a28.52,28.52,0,0,1-13.9-3.6A26.49,26.49,0,0,1,353,73.2a14.45,14.45,0,0,1-4.4-7.4c-2-7.3,1.3-14.7,7.5-16.4a11,11,0,0,1,11,3.3A27.27,27.27,0,0,1,380.3,49a11.14,11.14,0,0,1,7.7-8.6,10.38,10.38,0,0,1,8.2,1.1,15,15,0,0,1,6.8,9,15.35,15.35,0,0,1,0,8.5,26.66,26.66,0,0,1,5.2,9.7c4.1,14.5-4.8,29.7-19.8,33.9A28.24,28.24,0,0,1,380.3,103.7ZM359,53.7a7.72,7.72,0,0,0-1.5.2c-3.8,1.1-5.7,5.9-4.3,10.7a10.19,10.19,0,0,0,3.8,5.7,2.41,2.41,0,0,1,.9,2.4,20.06,20.06,0,0,0,.4,10A22.12,22.12,0,0,0,368.8,96a23.73,23.73,0,0,0,18.3,2.1C399.6,94.6,407,82,403.7,70a21.32,21.32,0,0,0-5-8.8,2.52,2.52,0,0,1-.5-2.5,10.94,10.94,0,0,0-4.3-13.1,6.15,6.15,0,0,0-4.6-.7c-2.6.7-4.4,3.3-4.6,6.6a2.42,2.42,0,0,1-2.5,2.2,21.82,21.82,0,0,0-14.1,4,2.35,2.35,0,0,1-3.2-.5C363.2,54.9,361.1,53.7,359,53.7Z" style="fill:#1a1a1a"/><path d="M394.1,62.1a13.19,13.19,0,0,0,.1-8.1c-1.7-6-6.3-8-10.6-6.8-3.1.9-1.3,1.1-1.5,5.2-2.4-.2-8.7,1.2-11.1,1.9s-3.8.8-5.7,2.2a8.69,8.69,0,0,0-9.5-3.3c-4.3,1.2-6.4,7-4.7,13a13.55,13.55,0,0,0,4.3,6.9,26.25,26.25,0,0,0,.7,10.8c3.6,13,16.3,20.8,28.2,17.5s18.6-16.6,14.9-29.6A25.14,25.14,0,0,0,394.1,62.1Z" style="fill:#cddc4c"/><path d="M380.3,103.7a28.52,28.52,0,0,1-13.9-3.6A26.49,26.49,0,0,1,353,73.2a14.45,14.45,0,0,1-4.4-7.4c-2-7.3,1.3-14.7,7.5-16.4a11,11,0,0,1,11,3.3A27.27,27.27,0,0,1,380.3,49a11.14,11.14,0,0,1,7.7-8.6,10.38,10.38,0,0,1,8.2,1.1,15,15,0,0,1,6.8,9,15.35,15.35,0,0,1,0,8.5,26.66,26.66,0,0,1,5.2,9.7c4.1,14.5-4.8,29.7-19.8,33.9A28.24,28.24,0,0,1,380.3,103.7ZM359,53.7a7.72,7.72,0,0,0-1.5.2c-3.8,1.1-5.7,5.9-4.3,10.7a10.19,10.19,0,0,0,3.8,5.7,2.41,2.41,0,0,1,.9,2.4,20.06,20.06,0,0,0,.4,10A22.12,22.12,0,0,0,368.8,96a23.73,23.73,0,0,0,18.3,2.1C399.6,94.6,407,82,403.7,70a21.32,21.32,0,0,0-5-8.8,2.52,2.52,0,0,1-.5-2.5,10.94,10.94,0,0,0-4.3-13.1,6.15,6.15,0,0,0-4.6-.7c-2.6.7-4.4,3.3-4.6,6.6a2.42,2.42,0,0,1-2.5,2.2,21.82,21.82,0,0,0-14.1,4,2.35,2.35,0,0,1-3.2-.5C363.2,54.9,361.1,53.7,359,53.7Z" style="fill:#1a1a1a"/><path d="M380.3,85.6a28.81,28.81,0,0,1-12.7-3.5,2.35,2.35,0,0,1,2.3-4.1h0c.1,0,8.4,4.6,14.5,2.2,2.7-1.1,4.6-3.5,5.8-7.4a2.34,2.34,0,0,1,4.5,1.3c-1.5,5.2-4.4,8.7-8.5,10.4A15.76,15.76,0,0,1,380.3,85.6Z" style="fill:#1a1a1a"/><ellipse cx="360.4" cy="63.2" rx="4.4" ry="5.4" transform="translate(-3.65 99.96) rotate(-15.71)" style="fill:#1a1a1a"/><ellipse cx="391.38" cy="54.4" rx="4.4" ry="5.4" transform="translate(-0.11 108.02) rotate(-15.71)" style="fill:#1a1a1a"/><ellipse cx="366.88" cy="80" rx="4" ry="4.9" transform="translate(-7.96 102.34) rotate(-15.71)" style="fill:#1a1a1a"/><ellipse cx="394.47" cy="72.2" rx="4" ry="4.9" transform="translate(-4.81 109.53) rotate(-15.71)" style="fill:#1a1a1a"/></svg>