<svg id="圖層_1" data-name="圖層 1" xmlns="http://www.w3.org/2000/svg" viewBox="0 0 755.8 401.8"><title>background</title><g style="opacity:0.5"><path d="M713.5,293.5a31.62,31.62,0,0,0-19,4.3s5.2,6.6,16.6,7.4,24.9-4.6,24.9-4.6S725,294.3,713.5,293.5Z" style="fill:#fff"/><path d="M693.1,279.9c-3.4,11,1.2,17.5,1.2,17.5s7.4-4.2,10.8-15.1,1.5-24.6,1.5-24.6S696.5,268.9,693.1,279.9Z" style="fill:#fff"/><path d="M688.9,311.3c-13.4-1.1-20.6,5.2-20.6,5.2a32.82,32.82,0,0,0,20.8,9.6c13.4,1.1,27.7-5.5,27.7-5.5S702.3,312.5,688.9,311.3Z" style="fill:#fff"/><path d="M668,293a35.83,35.83,0,0,0,.1,23.1,36.45,36.45,0,0,0,13.3-18.7c4.2-12.8,1.8-27.6,1.8-27.6S672.1,280.2,668,293Z" style="fill:#fff"/><path d="M661.1,331.9c-15.5-1.3-24.3,6.2-24.3,6.2A39.65,39.65,0,0,0,661,348.7c15.5,1.3,31.8-5.9,31.8-5.9S676.6,333.2,661.1,331.9Z" style="fill:#fff"/><path d="M635.2,313.6c-4.8,14.7,1.3,24,1.3,24a38.24,38.24,0,0,0,16.7-20.8c4.8-14.7.8-32.5.8-32.5S640.1,298.9,635.2,313.6Z" style="fill:#fff"/><path d="M727.9,262.8a64.76,64.76,0,0,0-17.4,23.1A60.52,60.52,0,0,0,754,250.4,65.61,65.61,0,0,0,727.9,262.8Z" style="fill:#fff"/><path d="M713.5,293.5a31.62,31.62,0,0,0-19,4.3s5.2,6.6,16.6,7.4,24.9-4.6,24.9-4.6S725,294.3,713.5,293.5Z" style="fill:#c5d357"/><path d="M693.8,286.7a12,12,0,0,0,1.7,11.1,14.32,14.32,0,0,0,7.5-9c2.1-6.8.1-15.4.1-15.4S695.9,280,693.8,286.7Z" style="fill:#c5d357"/><path d="M688.9,311.3c-13.4-1.1-20.6,5.2-20.6,5.2a32.82,32.82,0,0,0,20.8,9.6c13.4,1.1,27.7-5.5,27.7-5.5S702.3,312.5,688.9,311.3Z" style="fill:#c5d357"/><path d="M668.8,301.3a21.54,21.54,0,0,0,.8,15.2,21.84,21.84,0,0,0,9.4-11.9c2.7-8.3.4-18.1.4-18.1S671.5,293.1,668.8,301.3Z" style="fill:#c5d357"/><path d="M661.1,331.9c-15.5-1.3-24.3,6.2-24.3,6.2A39.65,39.65,0,0,0,661,348.7c15.5,1.3,31.8-5.9,31.8-5.9S676.6,333.2,661.1,331.9Z" style="fill:#c5d357"/><path d="M635.5,320.5c-3.4,10.5,2.2,17.4,2.2,17.4s9.8-3.9,13.2-14.3-.8-23.5-.8-23.5S638.9,310.1,635.5,320.5Z" style="fill:#c5d357"/><path d="M727.4,270.3A69.23,69.23,0,0,0,712.3,288a64.72,64.72,0,0,0,35.5-28.9A66.65,66.65,0,0,0,727.4,270.3Z" style="fill:#c5d357"/><path d="M713.5,307.5a20.08,20.08,0,0,1-2.5-.1c-12.3-.8-18-8-18.2-8.3a2.32,2.32,0,0,1-.4-1.8,2.09,2.09,0,0,1,1.1-1.5,34.43,34.43,0,0,1,20.3-4.6c11.8.8,23,7.2,23.5,7.5a2.17,2.17,0,0,1,1.1,2.1,2.32,2.32,0,0,1-1.4,1.9C736.3,302.9,724.7,307.5,713.5,307.5Zm-15.3-9.2a23.69,23.69,0,0,0,13,4.7c6.7.5,14.2-1.3,19-2.7a55,55,0,0,0-16.9-4.6h0A31.18,31.18,0,0,0,698.2,298.3Z" style="fill:#1a1a1a"/><path d="M694.3,299.6a2.14,2.14,0,0,1-1.8-.9c-.2-.3-5.2-7.5-1.5-19.4h0c3.5-11.3,13.6-22.6,14-23.1a2.22,2.22,0,0,1,2.3-.6,2.29,2.29,0,0,1,1.5,1.8c.1.6,1.9,14.3-1.6,25.6-3.6,11.7-11.5,16.2-11.9,16.4A3.55,3.55,0,0,1,694.3,299.6Zm.9-19.1c-2,6.4-1,11-.1,13.5a26.26,26.26,0,0,0,7.9-12.4c1.9-6.2,2.1-13.5,1.9-18.3-3.2,4.1-7.7,10.8-9.7,17.2Z" style="fill:#1a1a1a"/><path d="M692.2,328.5c-1.1,0-2.2,0-3.3-.1a35.05,35.05,0,0,1-22.2-10.2,1.91,1.91,0,0,1-.6-1.6,2.09,2.09,0,0,1,.8-1.6c.3-.3,8.1-6.9,22.3-5.7h0c13.7,1.2,28.1,9.2,28.7,9.6a2.11,2.11,0,0,1,1.1,2,2.05,2.05,0,0,1-1.3,1.9C717.1,322.9,704.9,328.5,692.2,328.5Zm-20.4-11.7a30.92,30.92,0,0,0,17.4,7.1c8.2.7,17-1.8,22.1-3.6-5.2-2.4-14.2-6.1-22.6-6.8h0A30.2,30.2,0,0,0,671.8,316.8Z" style="fill:#1a1a1a"/><path d="M668,318.3a2,2,0,0,1-.7-.1,2,2,0,0,1-1.4-1.4,38.75,38.75,0,0,1-.1-24.5c4.3-13.2,15.3-23.6,15.8-24.1a2.05,2.05,0,0,1,2.2-.5,2.34,2.34,0,0,1,1.5,1.7c.1.6,2.4,15.5-1.9,28.6a39.13,39.13,0,0,1-14.1,19.8A1.9,1.9,0,0,1,668,318.3Zm13.4-43.4c-3.5,4-8.8,11-11.4,18.8h0a33.3,33.3,0,0,0-.8,18.5,34.7,34.7,0,0,0,10-15.5C681.8,288.9,681.8,280.1,681.4,274.9ZM668,293Z" style="fill:#1a1a1a"/><path d="M664.8,351.1c-1.4,0-2.7-.1-4.1-.2a42.12,42.12,0,0,1-25.5-11.2,2.06,2.06,0,0,1-.7-1.7,1.94,1.94,0,0,1,.8-1.6c.4-.3,9.7-8.1,25.9-6.8h0c15.8,1.3,31.9,10.8,32.6,11.2a2.31,2.31,0,0,1,1.1,2,2.42,2.42,0,0,1-1.3,1.9C693,345.1,679.3,351.1,664.8,351.1Zm-24.4-12.8a38.07,38.07,0,0,0,20.7,8.2c10,.8,20.5-2.1,26.3-4-5.7-2.9-16.3-7.5-26.5-8.4A34.89,34.89,0,0,0,640.4,338.3Z" style="fill:#1a1a1a"/><path d="M636.5,339.8a2.58,2.58,0,0,1-1.9-1c-.3-.4-6.7-10.3-1.5-25.9,4.9-15,18.7-29.6,19.3-30.2a2.26,2.26,0,0,1,2.2-.6,2.34,2.34,0,0,1,1.6,1.6c.2.8,4.1,18.6-.8,33.7a39.46,39.46,0,0,1-17.7,22A1.92,1.92,0,0,1,636.5,339.8Zm16.1-50.6c-4.3,5.1-12,15.2-15.2,25.1h0c-3.2,9.8-1.3,16.9.1,20.1a35.37,35.37,0,0,0,13.7-18.3C654.3,306.4,653.4,295.2,652.6,289.2Zm-17.4,24.4Z" style="fill:#1a1a1a"/><path d="M620.2,351.3a2.2,2.2,0,0,1-1.1-4.1,721.39,721.39,0,0,0,89.8-63.6,2.2,2.2,0,0,1,2.8,3.4,729.79,729.79,0,0,1-90.3,64A2.66,2.66,0,0,1,620.2,351.3Z" style="fill:#1a1a1a"/><path d="M710.5,288.1a2.14,2.14,0,0,1-1.7-.8,2.38,2.38,0,0,1-.3-2.3,67.16,67.16,0,0,1,18-23.9h.1a68,68,0,0,1,27-12.8,2.24,2.24,0,0,1,2.5,3.1A62.72,62.72,0,0,1,711,288.1Zm18.8-23.6a62.2,62.2,0,0,0-14.7,18A58.44,58.44,0,0,0,750,253.7,67.09,67.09,0,0,0,729.3,264.5Z" style="fill:#1a1a1a"/></g><g style="opacity:0.5"><path d="M42.6,293.4a31.62,31.62,0,0,1,19,4.3s-5.2,6.6-16.6,7.4-25-4.5-25-4.5S31.1,294.2,42.6,293.4Z" style="fill:#fff"/><path d="M63,279.8c3.4,11-1.2,17.5-1.2,17.5s-7.4-4.2-10.8-15.1-1.5-24.6-1.5-24.6S59.6,268.8,63,279.8Z" style="fill:#fff"/><path d="M67.2,311.3c13.4-1.1,20.6,5.2,20.6,5.2A32.82,32.82,0,0,1,67,326.1c-13.4,1.1-27.6-5.5-27.6-5.5S53.8,312.4,67.2,311.3Z" style="fill:#fff"/><path d="M88.1,292.9A35.83,35.83,0,0,1,88,316a37.39,37.39,0,0,1-13.4-18.6c-4.2-12.8-1.8-27.6-1.8-27.6S83.9,280.1,88.1,292.9Z" style="fill:#fff"/><path d="M95,331.8c15.5-1.3,24.3,6.2,24.3,6.2a39.65,39.65,0,0,1-24.2,10.6c-15.4,1.3-31.8-5.9-31.8-5.9S79.5,333.1,95,331.8Z" style="fill:#fff"/><path d="M120.8,313.5c4.8,14.7-1.3,24-1.3,24a38.24,38.24,0,0,1-16.7-20.8c-4.8-14.7-.8-32.5-.8-32.5S116,298.8,120.8,313.5Z" style="fill:#fff"/><path d="M28.1,262.7a64.76,64.76,0,0,1,17.4,23.1,63.68,63.68,0,0,1-26.1-12.4A65.94,65.94,0,0,1,2,250.3,64.35,64.35,0,0,1,28.1,262.7Z" style="fill:#fff"/><path d="M42.6,293.4a31.62,31.62,0,0,1,19,4.3s-5.2,6.6-16.6,7.4-25-4.5-25-4.5S31.1,294.2,42.6,293.4Z" style="fill:#c5d357"/><path d="M62.2,286.6a12,12,0,0,1-1.7,11.1,14.62,14.62,0,0,1-7.5-9c-2.1-6.8-.1-15.4-.1-15.4S60.1,279.9,62.2,286.6Z" style="fill:#c5d357"/><path d="M67.2,311.3c13.4-1.1,20.6,5.2,20.6,5.2A32.82,32.82,0,0,1,67,326.1c-13.4,1.1-27.6-5.5-27.6-5.5S53.8,312.4,67.2,311.3Z" style="fill:#c5d357"/><path d="M87.3,301.3a21.54,21.54,0,0,1-.8,15.2,21.84,21.84,0,0,1-9.4-11.9c-2.7-8.3-.4-18.1-.4-18.1S84.5,293,87.3,301.3Z" style="fill:#c5d357"/><path d="M95,331.8c15.5-1.3,24.3,6.2,24.3,6.2a39.65,39.65,0,0,1-24.2,10.6c-15.4,1.3-31.8-5.9-31.8-5.9S79.5,333.1,95,331.8Z" style="fill:#c5d357"/><path d="M120.6,320.4c3.4,10.5-2.2,17.4-2.2,17.4s-9.8-3.9-13.2-14.3.8-23.5.8-23.5S117.2,310,120.6,320.4Z" style="fill:#c5d357"/><path d="M28.7,270.2a69.23,69.23,0,0,1,15.1,17.7A64.72,64.72,0,0,1,8.3,259,65.52,65.52,0,0,1,28.7,270.2Z" style="fill:#c5d357"/><path d="M42.6,307.5c-11.2,0-22.8-4.6-23.4-4.8a2.32,2.32,0,0,1-1.4-1.9,2.26,2.26,0,0,1,1.1-2.1c.5-.3,11.6-6.6,23.5-7.5a34.43,34.43,0,0,1,20.3,4.6,2.4,2.4,0,0,1,1.1,1.5,2.32,2.32,0,0,1-.4,1.8c-.2.3-5.9,7.4-18.2,8.3C44.3,307.4,43.4,307.5,42.6,307.5Zm-16.8-7.3c4.8,1.4,12.3,3.2,19,2.7a22.63,22.63,0,0,0,13-4.7,28.84,28.84,0,0,0-15.1-2.6h0A55.83,55.83,0,0,0,25.8,300.2Zm16.8-6.8Z" style="fill:#1a1a1a"/><path d="M61.8,299.5a2.28,2.28,0,0,1-1.1-.3c-.3-.2-8.2-4.7-11.9-16.4-3.5-11.3-1.7-25-1.6-25.6a2,2,0,0,1,1.5-1.8,2.22,2.22,0,0,1,2.3.6c.4.5,10.5,11.8,14.1,23.1h0c3.7,11.9-1.3,19.1-1.5,19.4A2,2,0,0,1,61.8,299.5ZM51.2,263.2c-.2,4.8-.1,12.1,1.9,18.3A26.92,26.92,0,0,0,61,294c.9-2.5,1.9-7.1-.1-13.5S54.4,267.4,51.2,263.2Z" style="fill:#1a1a1a"/><path d="M63.9,328.4c-12.7,0-24.9-5.6-25.4-5.8a2.35,2.35,0,0,1-1.3-1.9,2.11,2.11,0,0,1,1.1-2c.6-.3,15-8.4,28.7-9.6h0c14.2-1.2,22,5.5,22.3,5.8a2.47,2.47,0,0,1,.8,1.6,1.91,1.91,0,0,1-.6,1.6,34.55,34.55,0,0,1-22.2,10.2C66.1,328.4,65,328.4,63.9,328.4Zm-19.1-8.1c5.1,1.8,13.8,4.2,22.1,3.6a30.92,30.92,0,0,0,17.4-7.1c-2.8-1.6-8.5-4-16.9-3.3S49.9,317.9,44.8,320.3Z" style="fill:#1a1a1a"/><path d="M88,318.2a2,2,0,0,1-1.3-.4A39.91,39.91,0,0,1,72.5,298c-4.3-13.1-2-28-1.9-28.6a2.22,2.22,0,0,1,3.7-1.2c.5.4,11.5,10.9,15.8,24.1a38.07,38.07,0,0,1-.1,24.5,2.17,2.17,0,0,1-1.4,1.4ZM74.6,274.8c-.3,5.2-.4,14,2.2,21.8a34.45,34.45,0,0,0,10,15.5,34.2,34.2,0,0,0-.8-18.5h0C83.4,285.7,78.1,278.8,74.6,274.8Z" style="fill:#1a1a1a"/><path d="M91.2,351c-14.4,0-28.1-6-28.8-6.2a2.05,2.05,0,0,1-1.3-1.9,2.31,2.31,0,0,1,1.1-2c.7-.4,16.8-9.9,32.6-11.2l.2,2.2-.2-2.2c16.2-1.4,25.5,6.4,25.9,6.7a2.09,2.09,0,0,1,.8,1.6,2.34,2.34,0,0,1-.7,1.7,41.87,41.87,0,0,1-25.5,11.2C93.9,351,92.6,351,91.2,351Zm-22.5-8.6c5.8,2,16.2,4.9,26.2,4a37.32,37.32,0,0,0,20.7-8.2A34.33,34.33,0,0,0,95.1,334C85,334.9,74.4,339.5,68.7,342.4Z" style="fill:#1a1a1a"/><path d="M119.5,339.7a2,2,0,0,1-1.1-.3,40.14,40.14,0,0,1-17.7-22c-5-15.1-1-33-.8-33.7a2.17,2.17,0,0,1,1.6-1.6,2.26,2.26,0,0,1,2.2.6c.6.6,14.3,15.2,19.3,30.2h0c5.1,15.6-1.3,25.5-1.5,25.9A2.52,2.52,0,0,1,119.5,339.7Zm-16-50.6c-.8,6.1-1.7,17.3,1.5,26.9a35.37,35.37,0,0,0,13.7,18.3c1.4-3.2,3.3-10.3.1-20.1h0C115.5,304.3,107.8,294.2,103.5,289.1Z" style="fill:#1a1a1a"/><path d="M135.9,351.2a2,2,0,0,1-1.1-.3,732.89,732.89,0,0,1-90.3-64,2.2,2.2,0,1,1,2.8-3.4,721.39,721.39,0,0,0,89.8,63.6,2.17,2.17,0,0,1,.8,3A2.73,2.73,0,0,1,135.9,351.2Z" style="fill:#1a1a1a"/><path d="M45.6,288a.9.9,0,0,1-.5-.1,68,68,0,0,1-27-12.8A68.32,68.32,0,0,1,0,251.2a2.34,2.34,0,0,1,.3-2.3,2.54,2.54,0,0,1,2.2-.8,68,68,0,0,1,27,12.8h.1a67.16,67.16,0,0,1,18,23.9,2.34,2.34,0,0,1-.3,2.3A2.09,2.09,0,0,1,45.6,288ZM6.2,253.7a62.2,62.2,0,0,0,14.7,18,63.79,63.79,0,0,0,20.5,10.7,62.2,62.2,0,0,0-14.7-18A65.82,65.82,0,0,0,6.2,253.7Z" style="fill:#1a1a1a"/></g><g style="opacity:0.5"><path d="M118.7,120.8s20.1,6.9,46.1,27.9c9,7.3,11.8,14.9,24.1,24.5,12,9.3,11.5,19.1,20.8,29.2,8.9,9.5,10,24.5,19.1,37.8,7.3,10.5,7.1,24.1,12.2,32.7,8.1,13.6,8,28.1,9.9,39.3,7.4,43.5-3.7,59.6-3.7,59.6S228.3,361,205.6,326c-5.1-7.9-13.2-16.1-15.8-27.6s-10.8-22.8-16-36.4a138.42,138.42,0,0,0-11.2-29.7,111.39,111.39,0,0,1-9.6-25c-3.2-14.3-10.2-25.3-15.8-37.7C131.9,157.6,123.8,138.4,118.7,120.8Z" style="fill:#fff"/><path d="M124.2,130.2s17.9,7.1,41.4,28.1c8.1,7.3,10.8,14.7,21.9,24.2,10.8,9.3,10.6,18.8,19.1,28.7,8.1,9.4,9.4,23.9,17.8,36.9,6.7,10.3,6.9,23.5,11.6,31.8,7.5,13.3,7.8,27.3,9.8,38.1,7.7,42.1-1.7,57.4-1.7,57.4s-16.9-10.9-37.8-45.3c-4.7-7.8-12.1-15.8-14.7-27s-10.1-22.1-15.1-35.3a156.37,156.37,0,0,0-10.6-28.9,117.42,117.42,0,0,1-9.1-24.4c-3.2-13.9-9.7-24.6-14.9-36.8C136.8,166.1,129.2,147.3,124.2,130.2Z" style="fill:#9dc953"/><path d="M247.2,374a2.66,2.66,0,0,1-1.2-.3c-.8-.5-19.6-11.5-42.4-46.6-1.3-2-2.8-4-4.3-6.1-4.6-6.2-9.8-13.2-11.8-22.3-1.4-6.4-4.8-12.8-8.3-19.6a154.06,154.06,0,0,1-7.7-16.3c0-.1-.1-.2-.1-.3a133.77,133.77,0,0,0-11-29.2,109.39,109.39,0,0,1-9.8-25.5c-2.3-10-6.3-18.2-10.6-26.8-1.7-3.4-3.4-6.9-5-10.5-5.7-12.8-13.5-31.7-18.6-49.1a2.33,2.33,0,0,1,.6-2.4,2.39,2.39,0,0,1,2.4-.5c.8.3,20.8,7.2,46.8,28.3a70.61,70.61,0,0,1,10.1,10.5,83.33,83.33,0,0,0,14,13.9c7.2,5.6,10.2,11.4,13.1,17.1,2.2,4.2,4.2,8.3,8,12.4,5,5.4,7.7,12.3,10.4,19.5,2.4,6.2,4.8,12.5,8.9,18.5,4.3,6.2,6.1,13.4,7.8,19.8,1.2,4.9,2.4,9.5,4.5,13,6.5,10.9,7.9,22.2,9.1,32.1.3,2.8.7,5.5,1.1,8,7.5,44-3.6,60.7-4.1,61.4A2,2,0,0,1,247.2,374ZM176.1,261.3c2.2,5.5,4.8,10.7,7.4,15.7,3.7,7.1,7.1,13.8,8.7,20.8,1.8,8.1,6.5,14.4,11,20.5,1.6,2.2,3.1,4.2,4.5,6.3,17.7,27.4,33.2,39.8,38.6,43.6,2.5-5.5,7.9-22.4,2.2-55.7-.4-2.6-.8-5.3-1.1-8.2-1.2-9.5-2.5-20.2-8.5-30.3-2.4-4.1-3.7-9-5-14.3-1.6-6.3-3.3-12.8-7.1-18.3-4.4-6.4-7-13.1-9.4-19.5-2.6-6.8-5.1-13.3-9.5-18s-6.6-9.1-8.8-13.4c-2.8-5.4-5.4-10.5-11.7-15.5a84.14,84.14,0,0,1-14.7-14.7,62.48,62.48,0,0,0-9.5-9.8c-18.2-14.7-33.5-22.4-40.8-25.6a443.56,443.56,0,0,0,16.9,43.7c1.6,3.5,3.3,7,4.9,10.4,4.2,8.5,8.6,17.3,11,27.8a108,108,0,0,0,9.4,24.4A142.64,142.64,0,0,1,176.1,261.3Z" style="fill:#1a1a1a"/><path d="M241.4,346.7a1.71,1.71,0,0,1-1.7-1.3c-.3-1.1-32.8-113.8-96.6-193.3a1.78,1.78,0,0,1,2.8-2.2c64.2,80.1,96.9,193.5,97.2,194.6a1.73,1.73,0,0,1-1.2,2.2Z" style="fill:#649446"/></g><g style="opacity:0.5"><path d="M661.9,136.8s-23.4,5-55.2,25.2c-11.1,7-15.2,15.1-30.2,24.2-14.7,8.8-15.4,19.9-27.2,29.9-11.2,9.5-14.4,26.1-26.4,39.8-9.5,10.8-11.1,26.1-17.9,35-10.8,14.1-12.7,30.4-16.3,42.7-14.1,47.7-3.8,67.2-3.8,67.2s22.5-9.6,52.6-45.8c6.8-8.2,16.9-16.2,21.4-28.8s15.1-23.9,22.8-38.4a161.32,161.32,0,0,1,16.4-31.7c5.4-8,10.7-17.3,14-26.8,5.5-15.6,14.8-26.9,22.6-40.2C642.3,176.3,653.8,155.9,661.9,136.8Z" style="fill:#fff"/><path d="M648.5,140.7s-21,5.6-50,26c-10.1,7.1-14,15-27.7,24.2-13.3,9-14.4,19.6-25.2,29.6-10.3,9.5-13.7,25.5-24.8,39-8.8,10.7-10.8,25.3-17.2,34.1-10.1,13.9-12.3,29.5-16,41.4-14.2,46.2-5.7,64.5-5.7,64.5s20.4-10,48.4-45.7c6.3-8.1,15.6-16.1,20-28.3s14.2-23.4,21.6-37.5a169.37,169.37,0,0,1,15.7-30.9A134,134,0,0,0,601,231c5.5-15.1,14.1-26.3,21.5-39.2C629.7,179.2,640.7,159.2,648.5,140.7Z" style="fill:#9dc953"/><path d="M485,403.1a2.33,2.33,0,0,1-2.1-1.3c-.4-.8-10.6-20.9,3.6-69,.8-2.7,1.5-5.6,2.2-8.6,2.7-11,5.7-23.4,14.5-34.8,2.8-3.7,4.7-8.7,6.8-14,2.7-6.9,5.7-14.7,11.2-21.1,5.4-6.2,9-13,12.5-19.7,4-7.7,7.8-15,14.1-20.4,4.8-4.1,7.7-8.3,10.7-12.8,4-5.9,8-12,16.8-17.3a92.65,92.65,0,0,0,17.5-13.8,79.38,79.38,0,0,1,12.7-10.4c31.9-20.2,55-25.3,56-25.5a2.43,2.43,0,0,1,2.4.8,2.49,2.49,0,0,1,.4,2.5c-8.5,20-20.8,41.5-27.4,52.5-2.3,3.8-4.7,7.6-7,11.2-5.9,9.1-11.5,17.7-15.4,28.6-2.9,8.3-7.7,17.5-14.3,27.3A162.15,162.15,0,0,0,584,288.5c0,.1-.1.2-.1.3A202,202,0,0,1,573.2,306c-4.9,7.2-9.4,13.9-11.9,20.9-3.5,9.8-10.2,17-16.1,23.3-2,2.2-4,4.2-5.7,6.3C509.4,392.7,487,402.6,486,403A3.75,3.75,0,0,1,485,403.1ZM657.7,140.5c-8.3,2.5-26.9,9.1-49.7,23.6a74,74,0,0,0-12,9.8c-4.6,4.3-9.8,9.3-18.3,14.4-7.9,4.7-11.5,10.1-15.3,15.9-3,4.6-6.2,9.3-11.6,13.8-5.6,4.7-9.2,11.6-13,18.9-3.6,6.9-7.3,14-13.1,20.6-5,5.7-7.7,12.8-10.4,19.6-2.2,5.7-4.2,11-7.5,15.2-8.1,10.6-11,22.5-13.6,33-.8,3.1-1.5,6.1-2.3,8.9-9.8,33.4-7.8,54.7-4.8,63.2,6.3-3.4,25.5-15.2,49.5-44.1,1.8-2.2,3.8-4.3,5.9-6.5,5.9-6.3,12-12.7,15.1-21.6,2.7-7.6,7.4-14.6,12.5-22a180.1,180.1,0,0,0,10.4-16.6,160,160,0,0,1,16.6-32.1c6.3-9.4,11-18.3,13.7-26.2,4-11.4,10.1-20.6,15.9-29.6,2.3-3.6,4.7-7.2,6.9-11C638.6,177.7,649.5,158.8,657.7,140.5Z" style="fill:#1a1a1a"/><path d="M495,373.4a1.7,1.7,0,0,1-.7-.1,1.84,1.84,0,0,1-1-2.4c.5-1.2,52-123.8,134.4-204.9a1.84,1.84,0,1,1,2.6,2.6C548.4,249.1,497.2,371,496.7,372.3A2,2,0,0,1,495,373.4Z" style="fill:#649446"/></g><polygon points="220.7 2.7 226.3 23.8 246.5 29.7 226.3 35.6 220.7 56.8 215.1 35.6 194.9 29.7 215.1 23.8 220.7 2.7" style="fill:#fff"/><path d="M220.7,59.4h0a2.67,2.67,0,0,1-2.6-2l-5.2-19.7-18.8-5.5a2.7,2.7,0,0,1-1.9-2.6,2.8,2.8,0,0,1,1.9-2.6l18.8-5.5L218.1,2a2.69,2.69,0,0,1,5.2,0l5.2,19.7,18.8,5.5a2.7,2.7,0,0,1,1.9,2.6,2.8,2.8,0,0,1-1.9,2.6l-18.8,5.5-5.2,19.7A2.74,2.74,0,0,1,220.7,59.4ZM204.4,29.7,215.8,33a2.65,2.65,0,0,1,1.8,1.9l3,11.5,3-11.5a2.65,2.65,0,0,1,1.8-1.9l11.4-3.3-11.4-3.3a2.65,2.65,0,0,1-1.8-1.9l-3-11.5-3,11.5a2.65,2.65,0,0,1-1.8,1.9Z" style="fill:#ffd800"/><polygon points="534.4 31.1 540.1 52.3 560.3 58.2 540.1 64 534.4 85.2 528.8 64 508.6 58.2 528.8 52.3 534.4 31.1" style="fill:#fff"/><path d="M534.4,87.9h0a2.67,2.67,0,0,1-2.6-2l-5.2-19.7-18.8-5.5a2.7,2.7,0,0,1-1.9-2.6,2.8,2.8,0,0,1,1.9-2.6L526.6,50l5.2-19.7a2.67,2.67,0,0,1,2.6-2h0a2.67,2.67,0,0,1,2.6,2L542.2,50,561,55.5a2.7,2.7,0,0,1,1.9,2.6,2.8,2.8,0,0,1-1.9,2.6l-18.8,5.5L537,85.9A2.59,2.59,0,0,1,534.4,87.9ZM518.1,58.2l11.4,3.3a2.65,2.65,0,0,1,1.8,1.9l3,11.5,3-11.5a2.65,2.65,0,0,1,1.8-1.9l11.4-3.3-11.4-3.3a2.65,2.65,0,0,1-1.8-1.9l-3-11.5-3,11.5a2.65,2.65,0,0,1-1.8,1.9Zm10.7-5.9Z" style="fill:#ffd800"/><polygon points="684.6 144.6 689.1 161.6 705.3 166.3 689.1 171 684.6 188 680.1 171 663.9 166.3 680.1 161.6 684.6 144.6" style="fill:#fff"/><path d="M684.6,190.2a2.16,2.16,0,0,1-2.1-1.6l-4.2-15.8-15-4.4a2.25,2.25,0,0,1-1.6-2.1,2.16,2.16,0,0,1,1.6-2.1l15-4.4,4.2-15.8a2.13,2.13,0,0,1,2.1-1.6,2.16,2.16,0,0,1,2.1,1.6l4.2,15.8,15,4.4a2.25,2.25,0,0,1,1.6,2.1,2.16,2.16,0,0,1-1.6,2.1l-15,4.4-4.2,15.8A2.05,2.05,0,0,1,684.6,190.2Zm-12.8-23.9,8.9,2.6a2.21,2.21,0,0,1,1.5,1.6l2.4,8.9,2.4-8.9a2.4,2.4,0,0,1,1.5-1.6l8.9-2.6-8.9-2.6a2.21,2.21,0,0,1-1.5-1.6l-2.4-8.9-2.4,8.9a2.4,2.4,0,0,1-1.5,1.6Z" style="fill:#ffd800"/><polygon points="76.2 124.6 80.7 141.6 96.9 146.3 80.7 151 76.2 168 71.7 151 55.5 146.3 71.7 141.6 76.2 124.6" style="fill:#fff"/><path d="M76.2,170.2a2.16,2.16,0,0,1-2.1-1.6l-4.2-15.8-15-4.4a2.25,2.25,0,0,1-1.6-2.1,2.16,2.16,0,0,1,1.6-2.1l15-4.4L74.1,124a2.13,2.13,0,0,1,2.1-1.6,2.16,2.16,0,0,1,2.1,1.6l4.2,15.8,15,4.4a2.25,2.25,0,0,1,1.6,2.1,2.16,2.16,0,0,1-1.6,2.1l-15,4.4-4.2,15.8A2.16,2.16,0,0,1,76.2,170.2ZM63.4,146.3l8.9,2.6a2.21,2.21,0,0,1,1.5,1.6l2.4,8.9,2.4-8.9a2.4,2.4,0,0,1,1.5-1.6l8.9-2.6-8.9-2.6a2.21,2.21,0,0,1-1.5-1.6l-2.4-8.9-2.4,8.9a2.4,2.4,0,0,1-1.5,1.6Z" style="fill:#ffd800"/></svg>