<?xml version="1.0" encoding="utf-8"?>
<!-- Generator: Adobe Illustrator 21.1.0, SVG Export Plug-In . SVG Version: 6.00 Build 0)  -->
<svg version="1.1" id="圖層_1" xmlns="http://www.w3.org/2000/svg" xmlns:xlink="http://www.w3.org/1999/xlink" x="0px" y="0px"
	 viewBox="0 0 188.4 227.6" style="enable-background:new 0 0 188.4 227.6;" xml:space="preserve">
<style type="text/css">
	.st0{fill:#D6D6D6;}
	.st1{fill:#D6A17F;}
	.st2{fill:#E4BFA4;}
	.st3{fill:#2C88C9;}
	.st4{fill:#B3B3B3;}
	.st5{fill:#1A1A1A;}
	.st6{fill:#C2DDEC;}
	.st7{fill:#FFFFFF;}
	.st8{fill:#F29A4A;}
	.st9{fill:#A77858;}
</style>
<title>互動設計UI</title>
<path class="st0" d="M89.8,176.7l-9.1,33C55.4,202,52.2,220,52.2,220l21-2.5l37.4,10c-0.6-13.1-21.3-17.2-21.3-17.2l8.1-33.6
	l-3.9-24.5l-19.2-9"/>
<path class="st1" d="M92.9,59.3c11.5,7.8,51.6,37.6,67.9,84.1c0,0,18.8,26.7,23.8,37.7c0,0,3.4,8.7-3,10.4c0,0,2.2,20-33.3-12.1
	c0,0-35.5-3.3-74.8-32.8c0,0-26.2-15.2-39.1-41.6C56.5,97.7,74.6,80.6,92.9,59.3z"/>
<path class="st2" d="M36.4,9.8c3-2.8,6.8-4.8,10.8-5.9c15.2,4.4,28.9,13.7,40.3,23.5c2.7,7.5,3.9,17.2,2.1,29.9c0,0,1.2,0.8,3.2,2.1
	C74.6,80.6,56.5,97.7,34.4,105c-6.8-14,0.4-29.2,6.9-48.9c0.8-2.2,1.8-4.4,3.1-6.3c2.4-3.9,2.5-14.9-7.2-18.3
	c3.2-2.6,6.1-5.6,8.6-8.9c3.1,3.7,7.4,6.4,15,5.2c-7.6,1.2-11.9-1.4-15-5.2c0.9-1.1,1.8-2.3,2.7-3.6c-0.9,1.3-1.8,2.5-2.7,3.6
	C42.1,18.2,40.2,12.2,36.4,9.8z"/>
<path class="st3" d="M63.7,3.6c0,0,16.9,4.2,23.9,23.8c-11.5-9.8-25.2-19-40.3-23.5C52.6,2.6,58.3,2.5,63.7,3.6z"/>
<path class="st4" d="M2.6,23.9c0,0,10.1-11.7,32-12.1c0.5-0.7,1.1-1.4,1.8-2c3.7,2.4,5.7,8.3,9.3,12.8c-2.5,3.3-5.4,6.3-8.6,8.9
	c-1-1.8-2.6-3.1-4.5-3.9C22.9,24.8,12.7,23.6,2.6,23.9z"/>
<path class="st5" d="M174.3,184.3c-0.6,0-1.1-0.2-1.5-0.7l-11.6-12.7c-0.8-0.8-0.7-2.2,0.1-2.9c0.8-0.8,2.2-0.7,2.9,0.1l11.6,12.7
	c0.8,0.8,0.7,2.2-0.1,2.9C175.3,184.1,174.8,184.3,174.3,184.3z"/>
<path class="st6" d="M39.1,13.5c2.5,1.6,5.7,2,8.5,1c0,0,5.6-6.9,13.6-5.2c0,0,8.8,1.6,9.6,13c0,0-0.5,5.2-16,4.9
	c0,0-7.5-0.4-10.6-4.1"/>
<g>
	<path class="st3" d="M78.8,11.7c0,0,13.8,18.2,37.7,22.3c0,0-12.9,6.8-28.5-4.4"/>
	<path class="st5" d="M106.5,38.2c-5.4,0-12.3-1.5-19.7-6.9c-0.9-0.7-1.1-2-0.5-2.9c0.7-0.9,2-1.1,2.9-0.5
		c7.3,5.2,13.8,6.3,18.6,6.1c-19.2-6.2-30.1-20.3-30.6-21c-0.7-0.9-0.5-2.2,0.4-2.9c0.9-0.7,2.2-0.5,2.9,0.4
		c0.2,0.3,13.7,17.6,36.4,21.5c0.9,0.1,1.6,0.8,1.7,1.7c0.1,0.9-0.3,1.7-1.1,2.2C117.1,36,112.9,38.2,106.5,38.2z"/>
</g>
<path class="st5" d="M176.8,200.9c-4.8,0-13.2-3.5-29.9-18.5c-11.8-1.8-42.3-8.6-75.1-33.2c-1.8-1-16.3-9.9-29-25.5
	C25.2,102,20.1,77.6,28.1,53.3c1-2.8,2.1-5.1,3.4-7c3.1-5.1,4.4-9.6,3.5-12.4c-0.5-1.5-1.6-2.6-3.3-3.4c-9.3-2.6-19-3.8-28.9-3.5
	c-1.2,0-2.3-0.6-2.8-1.7c-0.5-1.1-0.3-2.3,0.4-3.2C0.9,21.6,11.2,9.9,33.2,9c2.9-3.4,12.2-11.7,31-8.2c0.1,0,0.1,0,0.2,0
	c0.3,0.1,34,8.9,28.5,55.1c9.2,6,52.9,36.5,70.6,86.3c2.3,3.3,19,27.3,23.8,37.8c0,0,0,0.1,0.1,0.1c0.2,0.6,2.3,6.1,0.1,10.3
	c-0.7,1.3-1.7,2.4-3,3.1c-0.3,2.2-1.3,4.9-4,6.3C179.5,200.5,178.4,200.9,176.8,200.9z M150.2,177.4c21.6,19.5,27,17.6,27.5,17.3
	c0.8-0.4,0.9-2.2,0.8-2.7c-0.2-1.5,0.8-2.8,2.2-3.2c0.9-0.2,1.2-0.6,1.4-1c0.7-1.5,0.1-4.3-0.3-5.4c-4.9-10.7-23.3-36.9-23.5-37.1
	c-0.2-0.2-0.3-0.5-0.4-0.7C139.5,91.8,88.6,60.3,88.1,60c-1-0.6-1.6-1.8-1.4-2.9C92.6,15.2,65.1,7.2,63,6.6
	c-19-3.4-25.8,6.8-25.9,6.9c-0.5,0.8-1.4,1.3-2.4,1.4c-10.5,0.2-18.1,3.2-22.6,5.7c-0.4,0.2-0.7,0.4-1.1,0.6
	c7.6,0.4,15.1,1.6,22.4,3.7c0.1,0,0.2,0.1,0.4,0.1c3.5,1.5,5.8,4,6.8,7.1c1.8,5.8-1.2,12.7-4.2,17.4c0,0,0,0.1-0.1,0.1
	c-1,1.5-1.9,3.3-2.8,5.6c-7.4,22.5-2.8,44.3,13.7,64.6c12.5,15.4,27.5,24.2,27.6,24.3c0.1,0.1,0.2,0.1,0.3,0.2
	c31.9,24,61.5,30.5,72.7,32.2C148.9,176.7,149.7,177,150.2,177.4L150.2,177.4z M145.3,179.7c0,1,0.5,1.8,1.1,2.3
	c0,0-0.1-0.1-0.1-0.1C145.7,181.3,145.3,180.5,145.3,179.7z M145.3,179.6C145.3,179.6,145.3,179.6,145.3,179.6
	C145.3,179.6,145.3,179.6,145.3,179.6z M151.2,179.6L151.2,179.6L151.2,179.6z"/>
<path class="st5" d="M42.9,28.7c-0.5,0-1-0.2-1.4-0.5c-0.8-0.8-0.9-2.1-0.1-2.9l2-2.2c-0.9-2.2-2.2-4.2-3.8-5.9
	c-0.8-0.8-0.8-2.1,0-2.9c0.8-0.8,2.1-0.8,2.9,0c2.4,2.4,4.2,5.4,5.2,8.7c0.2,0.7,0,1.5-0.4,2L44.4,28C44,28.5,43.4,28.7,42.9,28.7z"
	/>
<circle class="st5" cx="59" cy="18.3" r="5.4"/>
<g>
	<path class="st7" d="M78.3,70.3c0,0,2.2,4.1-3.6,16.7"/>
	<path class="st5" d="M74.7,89.1c-0.3,0-0.6-0.1-0.9-0.2c-1-0.5-1.5-1.7-1-2.7c5.1-11,3.6-14.9,3.6-15c0,0.1,0,0.1,0,0.1l3.6-2
		c0.4,0.8,2.4,5.7-3.5,18.5C76.2,88.7,75.5,89.1,74.7,89.1z"/>
</g>
<g>
	<path class="st7" d="M64.4,82.9c0,0-0.8,13.9-6.2,18.7"/>
	<path class="st5" d="M58.2,103.7c-0.6,0-1.1-0.2-1.5-0.7c-0.8-0.9-0.7-2.2,0.2-2.9c3.9-3.5,5.3-13.6,5.5-17.3
		c0.1-1.1,1.1-2,2.2-1.9c1.1,0.1,2,1,1.9,2.2c-0.1,1.5-1,14.9-6.9,20.1C59.1,103.5,58.7,103.7,58.2,103.7z"/>
</g>
<path class="st5" d="M147.4,152.9c-0.7,0-1.4-0.4-1.8-1.1l-8.9-16.3c-0.5-1-0.2-2.3,0.8-2.8c1-0.5,2.3-0.2,2.8,0.8l8.9,16.3
	c0.5,1,0.2,2.3-0.8,2.8C148,152.8,147.7,152.9,147.4,152.9z"/>
<path class="st5" d="M129.7,153.5c-0.7,0-1.4-0.4-1.8-1.1l-7.2-12.9c-0.6-1-0.2-2.3,0.8-2.8c1-0.6,2.3-0.2,2.8,0.8l7.2,12.9
	c0.6,1,0.2,2.3-0.8,2.8C130.4,153.4,130,153.5,129.7,153.5z"/>
<path class="st5" d="M135.1,167c-4,0-8.1-2.1-12.1-6.2c-4.1,0.2-17.3-2-45.6-28.9c-0.8-0.8-0.9-2.1-0.1-2.9c0.8-0.8,2.1-0.9,2.9-0.1
	c31.6,29.9,42.9,27.7,43,27.7c0.8-0.2,1.5,0,2.1,0.6c3.6,3.9,7,5.8,10.1,5.7c3.7-0.2,6-3.1,6-3.1c0.7-0.9,2-1.1,2.9-0.4
	c0.9,0.7,1.1,2,0.4,2.9c-0.1,0.2-3.4,4.5-9,4.8C135.5,167,135.3,167,135.1,167z"/>
<path class="st5" d="M108.6,226.5c-1,0-1.9-0.8-2.1-1.8c-1.1-9.4-17.4-12.2-17.6-12.2c-0.6-0.1-1.1-0.4-1.4-0.9
	c-0.3-0.5-0.4-1.1-0.3-1.6l8-33.3l-0.6-14.1c0-1.1,0.8-2.1,2-2.2c1.1,0,2.1,0.8,2.2,2l0.6,14.4c0,0.2,0,0.4-0.1,0.6l-7.6,31.5
	c5.2,1.2,17.7,5.2,18.8,15.4c0.1,1.1-0.7,2.2-1.8,2.3C108.7,226.5,108.6,226.5,108.6,226.5z"/>
<path class="st5" d="M54.5,218.8c-0.1,0-0.2,0-0.3,0c-1.1-0.2-1.9-1.2-1.8-2.3c0.4-3.2,2-5.7,4.6-7.5c6.4-4.3,17.6-2.6,22.2-1.7
	l8.4-30.6l-7.3-20c-0.4-1.1,0.2-2.3,1.2-2.7c1.1-0.4,2.3,0.2,2.7,1.2l7.5,20.6c0.1,0.4,0.2,0.8,0.1,1.3l-9.1,33.1
	c-0.3,1.1-1.4,1.7-2.5,1.5c-4-1-15.5-2.9-20.8,0.7c-1.6,1.1-2.5,2.6-2.8,4.6C56.4,218.1,55.5,218.8,54.5,218.8z"/>
<g>
	
		<rect x="82.9" y="184.2" transform="matrix(0.2028 -0.9792 0.9792 0.2028 -118.6647 241.7889)" class="st8" width="12.6" height="19.1"/>
	<path class="st5" d="M97.2,203.9c-0.1,0-0.3,0-0.4,0L78.1,200c-0.5-0.1-1-0.4-1.3-0.9c-0.3-0.5-0.4-1-0.3-1.6l2.6-12.3
		c0.2-1.1,1.3-1.8,2.4-1.6l18.7,3.9c1.1,0.2,1.8,1.3,1.6,2.4l-2.6,12.3c-0.1,0.5-0.4,1-0.9,1.3C98,203.8,97.6,203.9,97.2,203.9z
		 M81,196.4l14.6,3l1.7-8.3l-14.6-3L81,196.4z"/>
</g>
<path class="st9" d="M119.7,109.8c-0.6,0-1.1-0.2-1.5-0.7l-12.9-13.9c-0.8-0.8-0.7-2.1,0.1-2.9c0.8-0.8,2.1-0.7,2.9,0.1l12.9,13.9
	c0.8,0.8,0.7,2.1-0.1,2.9C120.7,109.6,120.2,109.8,119.7,109.8z"/>
<path class="st9" d="M100.6,107.6c-0.5,0-1-0.2-1.4-0.6L85.6,94.5c-0.8-0.8-0.9-2.1-0.1-2.9c0.8-0.8,2.1-0.9,2.9-0.1L102,104
	c0.8,0.8,0.9,2.1,0.1,2.9C101.7,107.4,101.1,107.6,100.6,107.6z"/>
</svg>
