<?xml version="1.0" encoding="utf-8"?>
<!-- Generator: Adobe Illustrator 21.1.0, SVG Export Plug-In . SVG Version: 6.00 Build 0)  -->
<svg version="1.1" id="圖層_1" xmlns="http://www.w3.org/2000/svg" xmlns:xlink="http://www.w3.org/1999/xlink" x="0px" y="0px"
	 viewBox="0 0 125.5 125.5" style="enable-background:new 0 0 125.5 125.5;" xml:space="preserve">
<style type="text/css">
	.st0{fill:#FFFFFF;}
	.st1{fill:#1A1A1A;}
	.st2{fill:#F8DE40;}
	.st3{fill:#FFFFFF;stroke:#1A1A1A;stroke-width:4.43;stroke-linecap:round;stroke-linejoin:round;}
	.st4{fill:none;stroke:#1A1A1A;stroke-width:4.43;stroke-linecap:round;stroke-linejoin:round;}
</style>
<title>互動設計UI</title>
<g>
	<circle class="st0" cx="62.7" cy="62.7" r="60.1"/>
	<path class="st1" d="M62.7,125.5C28.1,125.5,0,97.3,0,62.7C0,28.1,28.1,0,62.7,0c34.6,0,62.7,28.1,62.7,62.7
		C125.5,97.3,97.3,125.5,62.7,125.5z M62.7,5.3C31.1,5.3,5.3,31.1,5.3,62.7c0,31.7,25.8,57.4,57.4,57.4c31.7,0,57.4-25.8,57.4-57.4
		C120.2,31.1,94.4,5.3,62.7,5.3z"/>
</g>
<circle class="st2" cx="62.7" cy="62.7" r="46.8"/>
<rect x="8.7" y="56.4" transform="matrix(0.5612 -0.8277 0.8277 0.5612 -22.2656 78.7764)" class="st0" width="108.9" height="7.9"/>
<path class="st0" d="M101.8,26.2l-59.2,87.3l4.5,3.1l58.5-86.3C104.1,29.1,102.8,27.7,101.8,26.2z"/>
<polygon class="st2" points="55.4,40.7 53.5,74.4 25.5,68 33.5,37.7 39.9,29.8 50.5,30.9 "/>
<polygon class="st2" points="83,30.5 91.7,35.1 100.4,69.8 70.6,72.1 67.9,40.7 72.4,32 "/>
<circle class="st3" cx="39" cy="75" r="15.9"/>
<path class="st4" d="M31.6,40.2c1.1-6.9,7.6-11.6,14.5-10.5c6.9,1.1,11.6,7.6,10.5,14.5l0,0"/>
<line class="st4" x1="56.7" y1="44.2" x2="54.7" y2="77.5"/>
<line class="st4" x1="31.6" y1="40.2" x2="23.2" y2="72.5"/>
<circle class="st3" cx="86" cy="75" r="15.9"/>
<path class="st4" d="M93.4,40.2c-1.1-6.9-7.6-11.6-14.5-10.5c-6.9,1.1-11.6,7.6-10.5,14.5"/>
<line class="st4" x1="68.3" y1="44.2" x2="70.3" y2="77.5"/>
<line class="st4" x1="93.4" y1="40.2" x2="101.7" y2="72.5"/>
<path class="st4" d="M51.7,51.7c0,0,9.8-10.3,21.5,0"/>
</svg>
