<svg id="圖層_1" data-name="圖層 1" xmlns="http://www.w3.org/2000/svg" viewBox="0 0 125.5 125.5"><title>medal</title><circle cx="62.7" cy="62.7" r="60.1" style="fill:#fff"/><path d="M62.7,125.5a62.75,62.75,0,1,1,62.7-62.8A62.82,62.82,0,0,1,62.7,125.5Zm0-120.2a57.4,57.4,0,1,0,57.4,57.4A57.53,57.53,0,0,0,62.7,5.3Z" style="fill:#1a1a1a"/><circle cx="62.7" cy="62.7" r="46.8" style="fill:#f8de40"/><rect x="8.67" y="56.43" width="108.9" height="7.9" transform="translate(-22.27 78.74) rotate(-55.86)" style="fill:#fff"/><path d="M101.8,26.2,42.6,113.5l4.5,3.1,58.5-86.3A18.36,18.36,0,0,1,101.8,26.2Z" style="fill:#fff"/><polygon points="55.4 40.7 53.5 74.4 25.5 68 33.5 37.7 39.9 29.8 50.5 30.9 55.4 40.7" style="fill:#f8de40"/><polygon points="83 30.5 91.7 35.1 100.4 69.8 70.6 72.1 67.9 40.7 72.4 32 83 30.5" style="fill:#f8de40"/><circle cx="39" cy="75" r="15.9" style="fill:#fff;stroke:#1a1a1a;stroke-linecap:round;stroke-linejoin:round;stroke-width:4.429999828338623px"/><path d="M31.6,40.2a12.66,12.66,0,1,1,25,4h0" style="fill:none;stroke:#1a1a1a;stroke-linecap:round;stroke-linejoin:round;stroke-width:4.429999828338623px"/><line x1="56.7" y1="44.2" x2="54.7" y2="77.5" style="fill:none;stroke:#1a1a1a;stroke-linecap:round;stroke-linejoin:round;stroke-width:4.429999828338623px"/><line x1="31.6" y1="40.2" x2="23.2" y2="72.5" style="fill:none;stroke:#1a1a1a;stroke-linecap:round;stroke-linejoin:round;stroke-width:4.429999828338623px"/><circle cx="86" cy="75" r="15.9" style="fill:#fff;stroke:#1a1a1a;stroke-linecap:round;stroke-linejoin:round;stroke-width:4.429999828338623px"/><path d="M93.4,40.2a12.66,12.66,0,0,0-25,4" style="fill:none;stroke:#1a1a1a;stroke-linecap:round;stroke-linejoin:round;stroke-width:4.429999828338623px"/><line x1="68.3" y1="44.2" x2="70.3" y2="77.5" style="fill:none;stroke:#1a1a1a;stroke-linecap:round;stroke-linejoin:round;stroke-width:4.429999828338623px"/><line x1="93.4" y1="40.2" x2="101.7" y2="72.5" style="fill:none;stroke:#1a1a1a;stroke-linecap:round;stroke-linejoin:round;stroke-width:4.429999828338623px"/><path d="M51.7,51.7s9.8-10.3,21.5,0" style="fill:none;stroke:#1a1a1a;stroke-linecap:round;stroke-linejoin:round;stroke-width:4.429999828338623px"/></svg>