<svg id="圖層_1" data-name="圖層 1" xmlns="http://www.w3.org/2000/svg" viewBox="0 0 677.8 185"><title>ribbon</title><path d="M102.8,71.4S76,72.9,19,63.9c0,0,33.9,43.7,46.4,52.8,0,0-33.9,31.7-62.4,43.7,0,0,67.6,21.9,144.4,21.9" style="fill:#fff"/><path d="M127.8,81.5s-36.7,8-93.8-1c0,0,18.9,27.1,31.4,36.1,0,0-33.9,31.7-62.4,43.7,0,0,67.6,21.9,144.4,21.9" style="fill:#7ebc25"/><polyline points="100 140.2 147.3 182.3 147.3 127.1" style="fill:#75ae21"/><path d="M147.3,185.2a3.72,3.72,0,0,1-2-.7L98,142.5a3,3,0,1,1,4-4.4l42.4,37.6V127.1a3,3,0,0,1,3-3,3,3,0,0,1,3,3v55.2a3,3,0,0,1-1.7,2.7A9.32,9.32,0,0,1,147.3,185.2Z" style="fill:#3e7c18"/><path d="M575,71.4s26.8,1.5,83.8-7.5c0,0-33.9,43.7-46.4,52.8,0,0,33.9,31.7,62.4,43.7,0,0-67.5,21.9-144.4,21.9" style="fill:#fff"/><path d="M573.5,82.5s21.4,7.1,69.3-3.1c0,0-17.9,28.1-30.4,37.1,0,0,33.9,31.7,62.4,43.7,0,0-67.5,21.9-144.4,21.9" style="fill:#7ebc25"/><path d="M147.3,185.2c-76.4,0-144.6-21.8-145.3-22a2.88,2.88,0,0,1-2-2.7,2.83,2.83,0,0,1,1.8-2.8c23.3-9.9,50.7-33.4,59-40.9C46.7,104.3,18,67.3,16.7,65.7a3.05,3.05,0,0,1-.2-3.3,3,3,0,0,1,3-1.4c56,8.9,82.9,7.5,83.2,7.5a3,3,0,0,1,.3,5.9c-1.1.1-25.4,1.3-77-6.4,9.7,12.2,31.8,39.6,41.1,46.3a2.75,2.75,0,0,1,1.2,2.2,2.81,2.81,0,0,1-.9,2.3c-1.3,1.2-29.4,27.3-56.2,41,19.5,5.5,75.2,19.6,136.1,19.6a3,3,0,0,1,3,3A2.84,2.84,0,0,1,147.3,185.2Z" style="fill:#3e7c18"/><path d="M530.5,185.2a3,3,0,0,1-3-3,3,3,0,0,1,3-3c60.9,0,116.6-14.1,136.1-19.6-26.8-13.7-54.9-39.8-56.2-41a2.94,2.94,0,0,1-.9-2.3,3,3,0,0,1,1.2-2.2c9.3-6.7,31.5-34.1,41.1-46.3-51.6,7.7-76,6.5-77,6.4a3,3,0,0,1,.3-5.9c.3,0,27.2,1.4,83.2-7.5a3,3,0,0,1,3,1.4,3,3,0,0,1-.2,3.3c-1.3,1.7-30,38.7-44.2,51.1,8.3,7.4,35.7,31,59,40.9a2.92,2.92,0,0,1,1.8,2.8,3.18,3.18,0,0,1-2,2.7C675.1,163.4,606.9,185.2,530.5,185.2Z" style="fill:#3e7c18"/><polyline points="577.8 140.2 530.5 182.3 530.5 127.1" style="fill:#75ae21"/><path d="M530.5,185.2a2.66,2.66,0,0,1-1.2-.3,2.85,2.85,0,0,1-1.7-2.7V127a3,3,0,0,1,3-3,3,3,0,0,1,3,3v48.6L576,138a3,3,0,1,1,4,4.4l-47.3,42A3.52,3.52,0,0,1,530.5,185.2Z" style="fill:#3e7c18"/><path d="M577.8,36.4S489.2,3.1,343.6,3h-.9C197.1,3.1,100,36.4,100,36.4V140.3c21.2-6.8,46.2-12.3,71.8-16.9a956,956,0,0,1,334,0c25.7,4.6,50.6,10.2,71.8,16.9Z" style="fill:#fff"/><path d="M554.2,61.3S488.9,26.2,343.6,17.2h-.9c-145.6.1-230.4,26.7-230.4,26.7v92.8c21.2-6,33.9-7.8,59.6-11.9a1063,1063,0,0,1,334,0c25.7,4.1,27,5.8,48.2,11.9Z" style="fill:#7ebc25"/><path d="M100,143.2a2.72,2.72,0,0,1-1.7-.6,2.85,2.85,0,0,1-1.2-2.4V36.4a2.91,2.91,0,0,1,2-2.8c1-.3,99.2-33.5,243.6-33.6h.9C488,.1,577.9,33.3,578.8,33.6a2.83,2.83,0,0,1,1.9,2.8V140.3a3.3,3.3,0,0,1-1.2,2.4,2.72,2.72,0,0,1-2.6.4c-19.3-6.1-43.3-11.8-71.5-16.8a950.28,950.28,0,0,0-333,0c-28.1,5-52.2,10.7-71.5,16.8A2.77,2.77,0,0,1,100,143.2Zm238.9-37.6a954.19,954.19,0,0,1,167.5,14.8c26.5,4.7,49.5,10,68.4,15.8V38.4C561.1,33.8,475.3,6,343.6,5.9h-.9C210.6,6,117.6,33.9,103,38.5v97.7c18.9-5.8,41.8-11.1,68.4-15.8A963,963,0,0,1,338.9,105.6Z" style="fill:#3e7c18"/><polygon points="524.4 45.6 530.1 64.2 548.6 70.1 532.7 81.3 532.9 100.7 517.3 89 498.8 95.2 505.2 76.8 493.6 61.1 513 61.5 524.4 45.6" style="fill:#fff;stroke:#3e7c18;stroke-linecap:round;stroke-linejoin:round;stroke-width:4.449999809265137px"/><polygon points="520.9 57.3 524.6 69.3 536.6 73.1 526.3 80.4 526.4 93 516.3 85.4 504.4 89.4 508.5 77.5 501 67.3 513.6 67.5 520.9 57.3" style="fill:#ffe51b"/><polygon points="153.4 45.6 147.7 64.2 129.2 70.1 145.1 81.3 144.9 100.7 160.5 89 179 95.2 172.6 76.8 184.2 61.1 164.8 61.5 153.4 45.6" style="fill:#fff;stroke:#3e7c18;stroke-linecap:round;stroke-linejoin:round;stroke-width:4.449999809265137px"/><polygon points="156.9 57.3 153.2 69.3 141.2 73.1 151.5 80.4 151.4 93 161.5 85.4 173.4 89.4 169.3 77.5 176.8 67.3 164.2 67.5 156.9 57.3" style="fill:#ffe51b"/><path d="M255.1,50.9a4.47,4.47,0,0,1,.7,6.3,4.79,4.79,0,0,1-3,1.7l-15.2,1.7c-.1,0-.3.1-.3.2a.19.19,0,0,0,0,.3c4.7,9.3,11.2,15.7,19.3,19.2a3.49,3.49,0,0,1,2.2,2.5,2.35,2.35,0,0,1,.2.8,3.61,3.61,0,0,1-.6,2.5.37.37,0,0,0-.1.3,6.28,6.28,0,0,1-3.1,2.7,4.79,4.79,0,0,1-4,0,36.82,36.82,0,0,1-9.1-6A50.88,50.88,0,0,1,232,70.6a.37.37,0,0,0-.3-.1.1.1,0,0,0-.1.1,40.82,40.82,0,0,1-14.7,22.3,5.51,5.51,0,0,1-2.5,1,2.85,2.85,0,0,1-1.3,0,6.48,6.48,0,0,1-3.7-1.8,3.7,3.7,0,0,1-1.2-2.4.9.9,0,0,0-.1-.5,3.22,3.22,0,0,1,1.5-2.8,31.46,31.46,0,0,0,8.7-9.1,37.27,37.27,0,0,0,5.2-14.4.6.6,0,0,0-.1-.4c-.1-.1-.3-.2-.4-.1L208.3,64a4.58,4.58,0,0,1-5-4,4.36,4.36,0,0,1,1-3.3,4.79,4.79,0,0,1,3-1.7l16.1-1.8a.65.65,0,0,0,.6-.6v-.1c-.1-2-.4-5.3-.8-10.2a5.23,5.23,0,0,1,1-3.6A4.79,4.79,0,0,1,231,38a4.43,4.43,0,0,1,1.7,3.1c.3,3.1.6,6.5.7,10.3a.52.52,0,0,0,.2.4c.1.1.3.2.4.1l17.8-2A5.13,5.13,0,0,1,255.1,50.9Z" style="fill:#fff"/><path d="M303.7,69.6a5,5,0,0,1-5.2-4.9l-.2-5.6V59h-.1a1.84,1.84,0,0,1-1.2.5,1.43,1.43,0,0,1-1.2-.6c-.8-.9-1.6-1.8-2.4-2.6a.19.19,0,0,0-.3,0l-.1.1a67.4,67.4,0,0,1,.8,10c.3,10.7-.6,17.6-2.8,20.8a6.57,6.57,0,0,1-3.8,2.7,15.94,15.94,0,0,1-3,.6c-.1,0-.3.1-.4.1a3.94,3.94,0,0,1-2.7-1,6.25,6.25,0,0,1-1.9-3.1,2.2,2.2,0,0,1-.1-.8,3.45,3.45,0,0,1,.5-1.8,2.61,2.61,0,0,1,2.2-1.3,2.77,2.77,0,0,0,.9-.1,2.89,2.89,0,0,0,1.8-1.1c.8-1.1,1.1-4.6,1.1-10.4,0-.1-.1-.1-.1-.2s-.1,0-.2.1c-.6.8-1.3,1.6-1.9,2.3a3.41,3.41,0,0,1-2.5,1.1h-.4a4.21,4.21,0,0,1-2.8-1.4,3.63,3.63,0,0,1-1.1-2.6V70a3.72,3.72,0,0,1,1.3-2.8,40.67,40.67,0,0,0,6.7-8.3,2,2,0,0,0,.3-1.1c-.1-.9-.4-2-.7-3.4a.22.22,0,0,0-.2-.2.37.37,0,0,0-.3.1l-.4.4a4.09,4.09,0,0,1-2.6,1.1h-.4a4.34,4.34,0,0,1-3-1.3,3.51,3.51,0,0,1-1.2-2.5,3.86,3.86,0,0,1,1.1-2.7c1-1,2-2,2.9-3.1a.64.64,0,0,0,.1-.9,40.84,40.84,0,0,0-3.1-3.9,3.21,3.21,0,0,1-1-2.2,3.26,3.26,0,0,1,1.2-2.7,4.49,4.49,0,0,1,2.7-1h.3a4,4,0,0,1,2.8,1.2c.6.6,1.2,1.2,1.8,1.9.2.3.5.3.6,0a5.05,5.05,0,0,1,2.7-2.3,4,4,0,0,1,1.5-.3,4.48,4.48,0,0,1,2,.4l3,1.4v-.1c0-.2.1-.3.3-.4h.1l6-.2c.2,0,.4-.1.4-.3v-.1a3.17,3.17,0,0,1,1-2.5,3.25,3.25,0,0,1,2.5-1.1h.7a3.65,3.65,0,0,1,3.7,3.5c0,.2.1.4.3.4h.1l5.5-.2c.2,0,.4-.1.4-.3v-.1a3.59,3.59,0,0,1,3.4-3.8h.8a3.32,3.32,0,0,1,2.5,1,3.25,3.25,0,0,1,1.1,2.5c0,.2.1.4.3.4h.1l3.6-.1a3.2,3.2,0,0,1,.2,6.4l-3.7.1c-.2,0-.2.1-.2.2a1.75,1.75,0,0,1-.4,1.2,1.61,1.61,0,0,1-1.1.5l-3.2.1V45a.81.81,0,0,1,.8.9c0,.2-.1.3-.1.4l-.5,1c-.1.2-.1.2.1.2l7.2-.2a2.5,2.5,0,0,1,1.9,4.2h0a2.29,2.29,0,0,1-1.7.8l-7.6.2a.63.63,0,0,0-.6.5v.3a.68.68,0,0,0,.4.6h.2l6.7-.2a2.39,2.39,0,0,1,1.4.5,1.61,1.61,0,0,1,.6,1.3,1.9,1.9,0,0,1-.5,1.3,1.68,1.68,0,0,1-1.4.6l-6.7.2a.68.68,0,0,0-.6.4v.5a.63.63,0,0,0,.5.6h.1l6.7-.2a2.39,2.39,0,0,1,1.4.5,1.61,1.61,0,0,1,.6,1.3,1.9,1.9,0,0,1-.5,1.3,2.11,2.11,0,0,1-1.3.5l-6.7.2a.63.63,0,0,0-.6.5v.4a.63.63,0,0,0,.5.6h.1l9.2-.3a2.5,2.5,0,1,1,.2,5h0Zm-4.4-26.2a4.23,4.23,0,0,1-3-1.2,4.94,4.94,0,0,1-1.4-3,.1.1,0,0,0-.1-.1h-.2a48.89,48.89,0,0,1-4.2,6.9.92.92,0,0,0-.1,1,40.39,40.39,0,0,1,2.2,6.7.22.22,0,0,0,.2.2.37.37,0,0,0,.3-.1,26.08,26.08,0,0,0,5.9-8.4,2.54,2.54,0,0,1,1.1-1.2,2.26,2.26,0,0,1,1.6-.2c.1,0,.2,0,.2-.2v-.2c0-.2-.1-.4-.3-.4h-.1Zm24,27a9.58,9.58,0,0,1,5,1,2.73,2.73,0,0,1,1.3,1.5,1.27,1.27,0,0,1,.1.6,2.3,2.3,0,0,1-.4,1.4,25.83,25.83,0,0,1-5.7,6.2.37.37,0,0,0-.1.3.22.22,0,0,0,.2.2,55.38,55.38,0,0,0,6,.6,2,2,0,0,1,1.8,1.2,1.93,1.93,0,0,1,.3,1,2.84,2.84,0,0,1-.4,1.3,5.93,5.93,0,0,1-2.7,2.5,4.84,4.84,0,0,1-2.6.7h-.9a53.53,53.53,0,0,1-10.5-2.5,2.05,2.05,0,0,0-1.1,0,65.72,65.72,0,0,1-12.3,3.3c-.2,0-.5.1-.7.1a5.33,5.33,0,0,1-2.4-.6,5.12,5.12,0,0,1-2.3-2.3,2.14,2.14,0,0,1-.4-1.2,2.28,2.28,0,0,1,.3-1.1,1.92,1.92,0,0,1,1.8-1.3c2.8-.4,5.4-.8,7.8-1.3.1,0,.2-.2.2-.3s0-.1-.1-.1l-.5-.4a2.23,2.23,0,0,1-.9-1.7v-.6a2.59,2.59,0,0,1,1.6-1.9v-.2l-5.6.2a3,3,0,0,1-.2-6ZM310.4,53.9a.63.63,0,0,0,.6-.5V53a.63.63,0,0,0-.5-.6h-.1l-4.2.1a.63.63,0,0,0-.6.5v.3a.63.63,0,0,0,.5.6h4.3Zm5.5-10.4a.63.63,0,0,0-.5-.6h-.1l-5.6.2a.35.35,0,0,0-.2.1h0a1.75,1.75,0,0,1-.4,1.2,1.66,1.66,0,0,1-1.2.5l-2.3.1-.1.1a.55.55,0,0,1,.5.3.64.64,0,0,1,0,.6,5.78,5.78,0,0,0-.5,1.4c-.1.2,0,.2.1.2l5-.2a.51.51,0,0,0,.5-.4,4,4,0,0,1,1.6-2.2,3.72,3.72,0,0,1,2-.7h.6c.3,0,.4-.1.4-.4Zm-5.4,15.6a.63.63,0,0,0,.6-.5v-.4a.68.68,0,0,0-.4-.6h-.2l-4.2.1a.63.63,0,0,0-.6.5v.4a.63.63,0,0,0,.5.6h.1Zm.2,5.3a.63.63,0,0,0,.6-.5v-.5a.63.63,0,0,0-.5-.6h-.2l-4.2.1a.63.63,0,0,0-.6.5v.4a.63.63,0,0,0,.5.6h4.4ZM318.2,77v-.2a.1.1,0,0,0-.1-.1l-7.9.2a.22.22,0,0,0-.2.2c0,.1,0,.2.1.2a23.13,23.13,0,0,0,3.5,1.8.91.91,0,0,0,1,0,21.22,21.22,0,0,0,3.6-2.1Z" style="fill:#fff"/><path d="M381.2,75.8c-.3-.1-.5.1-.6.4v.2l-.2,4.6c0,.3.2.6.4.6h.1l17,.7a3.8,3.8,0,0,1,3.7,3.9v.1a4,4,0,0,1-1.2,2.7,3.74,3.74,0,0,1-2.8,1L354,88.3a4,4,0,0,1-2.7-1.2,3.74,3.74,0,0,1-1-2.8,4,4,0,0,1,1.2-2.7,3.48,3.48,0,0,1,2.8-1l16.2.6c.3.1.5-.1.6-.4v-.2l.2-4.6c0-.3-.2-.6-.4-.6h-.1L359.3,75a3.76,3.76,0,0,1-3.6-3.8h0a3.76,3.76,0,0,1,3.9-3.6l11.5.4a.44.44,0,0,0,.6-.4v-.1l.2-4.4a.44.44,0,0,0-.4-.6h-.1l-7.6-.3a4.38,4.38,0,0,1-4.2-4.6h0a.35.35,0,0,0-.1-.2h-.3l-2.1,1.2a4.65,4.65,0,0,1-2.3.6,5,5,0,0,1-1.2-.2,5.13,5.13,0,0,1-2.9-2.1,3.31,3.31,0,0,1-.7-2.3,1.7,1.7,0,0,1,.1-.7,3.37,3.37,0,0,1,1.8-2.4,67.11,67.11,0,0,0,10-6.7,62,62,0,0,0,8.2-8,8.65,8.65,0,0,1,7.3-3.5,9.05,9.05,0,0,1,7.2,4,55.62,55.62,0,0,0,17.8,15.6,3.64,3.64,0,0,1,1.9,2.6,3.4,3.4,0,0,1,.1,1,3.1,3.1,0,0,1-.9,2.2,5.5,5.5,0,0,1-3.2,2,4.87,4.87,0,0,1-1.2.1,4.63,4.63,0,0,1-2.5-.8L395,58.9a.19.19,0,0,0-.3,0c-.1.1-.2.2-.1.3a4.25,4.25,0,0,1-4.4,4.1l-8.1-.3c-.3-.1-.5.1-.6.4v.2l-.2,4.4a.44.44,0,0,0,.4.6h.1l11.6.5a3.55,3.55,0,0,1,2.6,1.2,3.78,3.78,0,0,1,1,2.7,3.83,3.83,0,0,1-3.8,3.6h0ZM363.8,54.1c-.1.1-.1.1-.1.2s.1.1.2.1l25.9,1c.1,0,.2,0,.2-.1s0-.2-.1-.2a65.88,65.88,0,0,1-12.4-12.9.38.38,0,0,0-.7,0A58.85,58.85,0,0,1,363.8,54.1Z" style="fill:#fff"/><path d="M476.8,62.5l.9,1.1-.1,1.4a3.47,3.47,0,0,1-3.8,3.1h-.3c-.1,0-.1,0-.2.1v.2a29.76,29.76,0,0,0,2,2.9,4.53,4.53,0,0,1,1,3v.4a4,4,0,0,1-1.2,2.5,19.47,19.47,0,0,0-2.4,2.6c-.4.4-.7.5-1.1.1h-.1a95.25,95.25,0,0,1-2,10.4,11.34,11.34,0,0,1-2.1,4.6,6.6,6.6,0,0,1-4.6,1.9,27.15,27.15,0,0,1-2.9-.1h-.2a4.35,4.35,0,0,1-2.5-1.3,5.17,5.17,0,0,1-1.3-2.8v-.8a3.51,3.51,0,0,1,.6-1.4,2.17,2.17,0,0,1,2-.8h0l.8.1a3.13,3.13,0,0,0,1.9-.4c.7-.7,1.3-3.1,2-7.2.1-.1,0-.3-.1-.4a.52.52,0,0,0-.4-.2l-2.8-.3a.69.69,0,0,0-.8.5,24.74,24.74,0,0,1-4.2,7.2,19.41,19.41,0,0,1-6.8,4.9,3.4,3.4,0,0,1-2,.3,2,2,0,0,1-1.1-.3,6.14,6.14,0,0,1-2.5-2.3,3.44,3.44,0,0,1-.4-2,2.35,2.35,0,0,1,.2-.8,3,3,0,0,1,1.8-2,13.72,13.72,0,0,0,6.7-6.1.19.19,0,0,0,0-.3c-.1-.1-.2-.2-.3-.2l-1.8-.2a3.26,3.26,0,0,1-2.9-3.6h0c0-.1,0-.1-.1-.2h-.1a1.88,1.88,0,0,1-1.5.3h-.4a2.29,2.29,0,0,1-1.5-1.2,10.93,10.93,0,0,0-.8-1.5c0-.1-.1-.1-.2-.1a.1.1,0,0,0-.1.1l-1.3,12.2a16.54,16.54,0,0,1-1,4.4,4.94,4.94,0,0,1-2.1,2.4,7.4,7.4,0,0,1-3.6.9h-.6a4,4,0,0,1-2.4-1.2,6.33,6.33,0,0,1-1.5-3.2h0v-.5c.1-1.1,1.2-2.1,3.2-3,.2-.1.3-.3.4-.8l1.1-10.1a.44.44,0,0,0-.4-.6h-.1l-2.4-.4a.44.44,0,0,0-.6.4v.1c-.5,2.8-1.1,5.5-1.7,8a56.82,56.82,0,0,1-2.2,7,2.4,2.4,0,0,1-1.9,1.6,4.1,4.1,0,0,1-1.1.1,4,4,0,0,1-1.5-.6,4.3,4.3,0,0,1-1.8-2.4,4.42,4.42,0,0,1-.2-2,4.25,4.25,0,0,1,.2-1.1c2-5.4,3.5-13.8,4.8-25.1L426.2,43a5.07,5.07,0,0,1,5.6-4.5h0l7.8.8a5.07,5.07,0,0,1,4.5,5.6l-2.5,23.2c0,.1,0,.2.1.2h.3a41.58,41.58,0,0,0,3.9-3.2c0-.1.1-.1,0-.2a.1.1,0,0,0-.1-.1,3,3,0,0,1-1.9-1,2.63,2.63,0,0,1-.6-2.1l.1-.6a3.47,3.47,0,0,1,3.8-3.1h0l3.2.3a.81.81,0,0,0,.9-.4,4.67,4.67,0,0,0,.5-1,5.43,5.43,0,0,0,.4-.8.3.3,0,0,0,0-.4c-.1-.1-.2-.2-.3-.2l-3.6-.4a3.55,3.55,0,0,1-3.1-3.8h0l.1-1a2.6,2.6,0,0,1,.9-1.6,2.27,2.27,0,0,1,1.8-.5c.2,0,.3,0,.2-.2a25.72,25.72,0,0,0-.8-3.8,4.87,4.87,0,0,1-.1-1.2,2.84,2.84,0,0,1,.4-1.3,2.89,2.89,0,0,1,2-1.4,2.46,2.46,0,0,1,1.2-.1,3.81,3.81,0,0,1,1.5.5,3.26,3.26,0,0,1,1.7,2.1l.2.5a3.81,3.81,0,0,1,.1,1.5,4,4,0,0,1-.6,1.5,3.84,3.84,0,0,1-2.5,1.8l-.8.2v.1a.1.1,0,0,0,.1.1l3.7.4a.66.66,0,0,0,.8-.5q.75-2.55,1.5-5.4a4.09,4.09,0,0,1,1.8-2.5,3.61,3.61,0,0,1,2.5-.6h.4a3.94,3.94,0,0,1,2.5,1.7,3.22,3.22,0,0,1,.6,2.3c0,.2-.1.4-.1.6-.5,1.7-.9,3.2-1.3,4.6v.3a.52.52,0,0,0,.4.2l5.8.6h.1v-.1a3.49,3.49,0,0,1-1.9-2.2,3.89,3.89,0,0,1-.2-1.5,3.36,3.36,0,0,1,.5-1.4,4.35,4.35,0,0,0,.4-.7,4.52,4.52,0,0,1,2.5-2.2,3.4,3.4,0,0,1,2-.3,5.27,5.27,0,0,1,1.2.3,2.89,2.89,0,0,1,1.9,2.1,4.87,4.87,0,0,1,.1,1.2,4.42,4.42,0,0,1-.6,1.6q-1.5,1.8-2.4,3a.37.37,0,0,0-.1.3.22.22,0,0,0,.2.2l1.6.2a3.62,3.62,0,0,1,3.1,3.9,3.16,3.16,0,0,1-1.3,2.2,3.22,3.22,0,0,1-2.5.7l-3.6-.4a.4.4,0,0,0-.5.5c.1.7.3,1.3.4,1.9a.86.86,0,0,0,.7.6l3.6.4A13.27,13.27,0,0,1,476.8,62.5Zm-46,3c0,.2,0,.3.1.4a.52.52,0,0,0,.4.2l2,.2a.44.44,0,0,0,.6-.4v-.1l.5-4.7a.44.44,0,0,0-.4-.6h-.1l-1.9-.2a.44.44,0,0,0-.6.4v.1c-.2,2.1-.4,3.6-.6,4.7Zm5.1-17.8a.44.44,0,0,0-.4-.6h-.2l-1.9-.2a.44.44,0,0,0-.6.4v.1l-.5,4.5a.44.44,0,0,0,.4.6h.1l1.9.2a.44.44,0,0,0,.6-.4v-.1ZM461,73.9c-.1.3.1.5.4.5l5.6.6a.37.37,0,0,0,.3-.1.19.19,0,0,0,0-.3,36.58,36.58,0,0,1-2.9-6.8.87.87,0,0,0-.8-.6l-7.9-.8a.81.81,0,0,0-.9.4,37.35,37.35,0,0,1-5.2,6,.37.37,0,0,0-.1.3.22.22,0,0,0,.2.2l2.7.3c.4,0,.5-.1.6-.4a.9.9,0,0,0,.1-.5,4.16,4.16,0,0,1,1.6-2.6,3.57,3.57,0,0,1,3-.8,3.58,3.58,0,0,1,3.2,4v.3c0,.1.1.1.1.3Zm1.4-16.4a.75.75,0,0,0-.6-.7l-.9-.1a.69.69,0,0,0-.8.5l-.8,1.8a.37.37,0,0,0,.2.5h.1l2.6.3a.6.6,0,0,0,.4-.1.37.37,0,0,0,.1-.3c-.1-.5-.2-1.1-.3-1.9Z" style="fill:#fff"/></svg>