<?xml version="1.0" encoding="utf-8"?>
<!-- Generator: Adobe Illustrator 21.1.0, SVG Export Plug-In . SVG Version: 6.00 Build 0)  -->
<svg version="1.1" id="圖層_1" xmlns="http://www.w3.org/2000/svg" xmlns:xlink="http://www.w3.org/1999/xlink" x="0px" y="0px"
	 viewBox="0 0 264 180" style="enable-background:new 0 0 264 180;" xml:space="preserve">
<style type="text/css">
	.st0{fill:#FFFFFF;stroke:#FFFFFF;stroke-width:22.03;stroke-linecap:round;stroke-linejoin:round;}
	.st1{fill:#EF854E;}
</style>
<path class="st0" d="M117.2,80.5l1.3,2.9l-1.1,3c-1.5,3.9-5.8,6-9.8,4.5l-24-8.9c-0.2-0.1-0.4,0-0.5,0.1c-0.2,0.1-0.3,0.3-0.3,0.6
	c2.5,11.5,9.1,21.4,19.7,29.6c1.5,1.1,2.4,2.9,2.4,4.8c0,0.7-0.2,1.4-0.4,2c-0.4,1.1-1.2,2-2.2,2.7v0.1c-2.1,1.5-4.7,2.3-7.3,2.4
	c-1.2,0-2.5-0.2-3.7-0.6c-1.1-0.4-2.1-1-2.9-1.7c-10.8-9-18-21.7-20.2-35.6c0-0.3-0.3-0.6-0.6-0.5c-0.2,0-0.3,0.1-0.4,0.2
	c-10,8.8-23,13.3-39.2,13.4c-1.1,0-2.2-0.2-3.2-0.6c-1.1-0.4-2.1-1-2.9-1.7c-1.8-1.6-3.1-3.7-3.7-6c-0.4-1.2-0.3-2.4,0.1-3.5
	c0.2-0.5,0.5-1.1,0.8-1.6c1-1.5,2.7-2.3,4.5-2.2c13.9,0,25-3.6,33.2-10.7c0.2-0.1,0.3-0.4,0.2-0.6c0-0.2-0.2-0.4-0.4-0.5l-23.3-8.6
	c-4-1.3-6.2-5.6-4.9-9.6c1.3-4,5.6-6.2,9.6-4.9c0.2,0.1,0.4,0.1,0.5,0.2l27.7,10.2c0.5,0.3,1.1,0.1,1.3-0.4c0,0,0-0.1,0.1-0.1
	c1.6-3.1,3-6.4,4.2-9.7l0.5-1.4c0.2-0.4,0.1-1-0.4-1.2c-0.1,0-0.1-0.1-0.2-0.1l-15.1-5.6c-0.6-0.2-1.3-0.1-1.7,0.3
	c-1.3,1.1-2.5,2.1-3.6,3.1c-1.7,1.4-4,2-6.2,1.6c-0.6-0.1-1.3-0.2-1.9-0.4c-1.5-0.6-2.8-1.5-3.8-2.8c-1.4-1.4-2-3.5-1.7-5.5
	c0.3-2,1.3-3.9,3-5.1c5.6-4.3,10.6-9.3,14.9-15c2.7-3.8,7.9-4.8,11.8-2.3c1.9,1.1,3.1,3,3.5,5.1c0.2,1.3,0.1,2.6-0.3,3.8
	c-0.3,0.7-0.7,1.4-1.2,2c-0.4,0.6-0.9,1.2-1.4,1.8c-0.1,0.2-0.2,0.4-0.1,0.6c0,0.2,0.2,0.4,0.4,0.5l8.9,3.3c0.4,0.2,1,0.1,1.2-0.4
	c0-0.1,0.1-0.2,0.1-0.2l2.2-6c1.3-4.2,5.8-6.6,10-5.3c4.2,1.3,6.6,5.8,5.3,10c-0.1,0.3-0.2,0.5-0.3,0.8l-2.2,6.1
	c-0.2,0.4-0.1,1,0.4,1.2c0.1,0,0.1,0.1,0.2,0.1l20.6,7.6c1.9,0.7,3.5,2.1,4.3,4c0.9,1.8,1,4,0.3,5.9c-1.5,4-5.9,6-9.9,4.6l-20.7-7.7
	c-0.4-0.2-1-0.1-1.2,0.4c0,0.1-0.1,0.1-0.1,0.2l-0.6,1.5c-1.4,3.7-2.7,7-4,9.7c-0.1,0.2-0.1,0.5,0,0.7c0.1,0.2,0.3,0.4,0.6,0.5
	l29.7,11C114.9,77.2,116.4,78.6,117.2,80.5z"/>
<path class="st0" d="M245.4,105.3c-0.6,1.6-1.7,2.8-3.2,3.5c-1.5,0.7-3.3,0.8-4.8,0.2c-0.4-0.2-0.8,0-1,0.4c0,0,0,0,0,0
	c-7.1,12.5-14.5,22.4-22.3,29.6c-0.5,0.3-0.7,1-0.5,1.6c1.7,5,4.2,9.7,7.4,14c1.2,1.6,1.7,3.7,1.3,5.6c0,0.4-0.1,0.9-0.3,1.3
	c-0.5,1.5-1.6,2.7-2.9,3.5c-2,1.3-4.4,1.9-6.8,1.6c-0.7,0-1.4-0.2-2-0.4c-1.5-0.6-2.8-1.6-3.7-2.9c-2.8-4.1-5-8.5-6.7-13.1
	c-0.2-0.6-0.6-0.7-1.2-0.4c-5.1,2.6-10.5,4.5-16.1,5.7c-1.3,0.2-2.7,0.1-4-0.4c-2.9-1-5-3.6-5.4-6.6c0-0.5-0.4-0.8-0.9-0.8
	c-0.1,0-0.2,0-0.2,0.1h-0.1c-1.2,0.1-2.5,0-3.6-0.5c-0.9-0.3-1.7-0.8-2.4-1.4c-1.7-1.4-2.9-3.4-3.4-5.6c-0.7-3.9-1.6-7.7-2.9-11.4
	c-0.1-0.3-0.4-0.5-0.7-0.4c-0.1,0-0.2,0.1-0.3,0.2c-4.2,4.3-9,8.1-14.2,11.2c-1.7,1.1-3.8,1.3-5.7,0.6c-0.2,0-0.3,0-0.5-0.1
	c-1.8-0.6-3.3-1.8-4.4-3.4c-0.9-1.5-1.2-3.3-0.8-4.9l0.2-0.6c0.5-1.5,1.6-2.7,3-3.3c2.3-1.3,4.5-2.8,6.6-4.5
	c1.6-1.4,3.6-2.2,5.7-2.4c1.3-0.2,2.6,0,3.8,0.4c0.7,0.2,1.3,0.6,1.9,1l5,3.5c0.3,0.2,0.5,0.5,0.5,0.8c0.1,0.3,0,0.7-0.3,0.9
	l0.1,0.1l11.4-0.8c0.1,0,0.2-0.1,0.2-0.2c0-0.1-0.1-0.2-0.2-0.2l-20-7.4c-4.6-1.7-6.9-6.8-5.2-11.3l17.4-47.3
	c1.7-4.6,6.8-6.9,11.3-5.2l20.9,7.8c4.6,1.7,6.9,6.8,5.2,11.3l-7.1,19.3c-0.1,0.1,0,0.3,0.1,0.3c0.1,0.1,0.2,0.1,0.3,0c0,0,0,0,0,0
	c6.2-5.3,12-12.3,17.6-21.1c1.1-1.8,2.9-3.1,4.9-3.7c1.6-0.5,3.3-0.4,4.8,0.2c0.4,0.2,0.9,0.4,1.3,0.6c1.8,1.1,3.2,2.8,3.7,4.8
	c0.4,1.4,0.3,3-0.2,4.4c-0.2,0.5-0.5,1.1-0.8,1.6c-1.3,1.9-2.6,3.8-4.1,5.8c-0.1,0.2-0.2,0.5-0.1,0.7c0.1,0.2,0.3,0.4,0.5,0.5
	l19.8,7.2c3.7,1.4,5.6,5.4,4.2,9.1L245.4,105.3z M169.5,113.6c0.4,0.2,1,0.1,1.2-0.4c0-0.1,0.1-0.2,0.1-0.2l1.9-5.1
	c0.2-0.4,0.1-1-0.4-1.2c-0.1,0-0.2-0.1-0.2-0.1l-8.5-3.1c-0.4-0.2-1-0.1-1.2,0.4c0,0.1-0.1,0.1-0.1,0.2l-1.9,5.1
	c-0.2,0.4-0.1,1,0.4,1.2c0.1,0,0.2,0.1,0.2,0.1L169.5,113.6z M175.9,96.3c0.4,0.2,1,0.1,1.2-0.4c0-0.1,0.1-0.1,0.1-0.2l1.9-5.1
	c0.2-0.4,0.1-1-0.4-1.2c-0.1,0-0.1-0.1-0.2-0.1l-8.5-3.1c-0.4-0.2-1-0.1-1.2,0.4c0,0.1-0.1,0.2-0.1,0.2l-1.9,5.1
	c-0.2,0.4-0.1,1,0.4,1.2c0.1,0,0.1,0.1,0.2,0.1L175.9,96.3z M182.8,123.3c-0.6,1.8-2,3.3-3.8,4.1c-1.7,0.8-3.7,0.9-5.5,0.2
	c-0.1,0-0.3,0-0.4,0.1c-0.1,0.1-0.2,0.2-0.1,0.3c1.4,3.5,2.5,7.1,3.3,10.7c0,0.5,0.4,0.9,0.9,0.9c0.1,0,0.2,0,0.3,0
	c6.2-1,12.2-3,17.7-6.1c0.6-0.3,0.9-0.9,0.8-1.5c-0.5-6.2-0.6-12.5-0.1-18.7c0-0.2-0.1-0.2-0.2-0.3c-0.1,0-0.2,0-0.3,0
	c-0.9,0.6-2,0.8-3,0.4c-1.1-0.3-1.9-1-2.4-2c-0.4-0.7-0.9-1.5-1.4-2.4c0-0.2-0.2-0.2-0.4-0.2c-0.1,0-0.3,0.1-0.3,0.3L182.8,123.3z
	 M182.3,78.9c0.4,0.2,1,0.1,1.2-0.4c0-0.1,0.1-0.2,0.1-0.2l1.9-5c0.2-0.4,0.1-1-0.4-1.2c-0.1,0-0.1-0.1-0.2-0.1l-8.5-3.1
	c-0.4-0.2-1-0.1-1.2,0.4c0,0.1-0.1,0.1-0.1,0.2l-1.9,5c-0.2,0.4-0.1,1,0.4,1.2c0.1,0,0.2,0.1,0.2,0.1L182.3,78.9z M221.3,104.1
	c0.1-0.2,0.1-0.5,0-0.8c-0.1-0.2-0.3-0.4-0.5-0.5l-8.1-3c-0.2-0.1-0.5-0.1-0.7,0c-0.2,0.1-0.4,0.4-0.4,0.6c-1,6.3-1.5,12.6-1.4,19
	c0,0.2,0.1,0.4,0.3,0.4c0.2,0,0.3,0,0.4-0.2C214.8,114.9,218.3,109.6,221.3,104.1L221.3,104.1z"/>
<path class="st1" d="M117.2,80.5l1.3,2.9l-1.1,3c-1.5,3.9-5.8,6-9.8,4.5l-24-8.9c-0.2-0.1-0.4,0-0.5,0.1c-0.2,0.1-0.3,0.3-0.3,0.6
	c2.5,11.5,9.1,21.4,19.7,29.6c1.5,1.1,2.4,2.9,2.4,4.8c0,0.7-0.2,1.4-0.4,2c-0.4,1.1-1.2,2-2.2,2.7v0.1c-2.1,1.5-4.7,2.3-7.3,2.4
	c-1.2,0-2.5-0.2-3.7-0.6c-1.1-0.4-2.1-1-2.9-1.7c-10.8-9-18-21.7-20.2-35.6c0-0.3-0.3-0.6-0.6-0.5c-0.2,0-0.3,0.1-0.4,0.2
	c-10,8.8-23,13.3-39.2,13.4c-1.1,0-2.2-0.2-3.2-0.6c-1.1-0.4-2.1-1-2.9-1.7c-1.8-1.6-3.1-3.7-3.7-6c-0.4-1.2-0.3-2.4,0.1-3.5
	c0.2-0.5,0.5-1.1,0.8-1.6c1-1.5,2.7-2.3,4.5-2.2c13.9,0,25-3.6,33.2-10.7c0.2-0.1,0.3-0.4,0.2-0.6c0-0.2-0.2-0.4-0.4-0.5l-23.3-8.6
	c-4-1.3-6.2-5.6-4.9-9.6c1.3-4,5.6-6.2,9.6-4.9c0.2,0.1,0.4,0.1,0.5,0.2l27.7,10.2c0.5,0.3,1.1,0.1,1.3-0.4c0,0,0-0.1,0.1-0.1
	c1.6-3.1,3-6.4,4.2-9.7l0.5-1.4c0.2-0.4,0.1-1-0.4-1.2c-0.1,0-0.1-0.1-0.2-0.1l-15.1-5.6c-0.6-0.2-1.3-0.1-1.7,0.3
	c-1.3,1.1-2.5,2.1-3.6,3.1c-1.7,1.4-4,2-6.2,1.6c-0.6-0.1-1.3-0.2-1.9-0.4c-1.5-0.6-2.8-1.5-3.8-2.8c-1.4-1.4-2-3.5-1.7-5.5
	c0.3-2,1.3-3.9,3-5.1c5.6-4.3,10.6-9.3,14.9-15c2.7-3.8,7.9-4.8,11.8-2.3c1.9,1.1,3.1,3,3.5,5.1c0.2,1.3,0.1,2.6-0.3,3.8
	c-0.3,0.7-0.7,1.4-1.2,2c-0.4,0.6-0.9,1.2-1.4,1.8c-0.1,0.2-0.2,0.4-0.1,0.6c0,0.2,0.2,0.4,0.4,0.5l8.9,3.3c0.4,0.2,1,0.1,1.2-0.4
	c0-0.1,0.1-0.2,0.1-0.2l2.2-6c1.3-4.2,5.8-6.6,10-5.3c4.2,1.3,6.6,5.8,5.3,10c-0.1,0.3-0.2,0.5-0.3,0.8l-2.2,6.1
	c-0.2,0.4-0.1,1,0.4,1.2c0.1,0,0.1,0.1,0.2,0.1l20.6,7.6c1.9,0.7,3.5,2.1,4.3,4c0.9,1.8,1,4,0.3,5.9c-1.5,4-5.9,6-9.9,4.6l-20.7-7.7
	c-0.4-0.2-1-0.1-1.2,0.4c0,0.1-0.1,0.1-0.1,0.2l-0.6,1.5c-1.4,3.7-2.7,7-4,9.7c-0.1,0.2-0.1,0.5,0,0.7c0.1,0.2,0.3,0.4,0.6,0.5
	l29.7,11C114.9,77.2,116.4,78.6,117.2,80.5z"/>
<path class="st1" d="M245.4,105.3c-0.6,1.6-1.7,2.8-3.2,3.5c-1.5,0.7-3.3,0.8-4.8,0.2c-0.4-0.2-0.8,0-1,0.4c0,0,0,0,0,0
	c-7.1,12.5-14.5,22.4-22.3,29.6c-0.5,0.3-0.7,1-0.5,1.6c1.7,5,4.2,9.7,7.4,14c1.2,1.6,1.7,3.7,1.3,5.6c0,0.4-0.1,0.9-0.3,1.3
	c-0.5,1.5-1.6,2.7-2.9,3.5c-2,1.3-4.4,1.9-6.8,1.6c-0.7,0-1.4-0.2-2-0.4c-1.5-0.6-2.8-1.6-3.7-2.9c-2.8-4.1-5-8.5-6.7-13.1
	c-0.2-0.6-0.6-0.7-1.2-0.4c-5.1,2.6-10.5,4.5-16.1,5.7c-1.3,0.2-2.7,0.1-4-0.4c-2.9-1-5-3.6-5.4-6.6c0-0.5-0.4-0.8-0.9-0.8
	c-0.1,0-0.2,0-0.2,0.1h-0.1c-1.2,0.1-2.5,0-3.6-0.5c-0.9-0.3-1.7-0.8-2.4-1.4c-1.7-1.4-2.9-3.4-3.4-5.6c-0.7-3.9-1.6-7.7-2.9-11.4
	c-0.1-0.3-0.4-0.5-0.7-0.4c-0.1,0-0.2,0.1-0.3,0.2c-4.2,4.3-9,8.1-14.2,11.2c-1.7,1.1-3.8,1.3-5.7,0.6c-0.2,0-0.3,0-0.5-0.1
	c-1.8-0.6-3.3-1.8-4.4-3.4c-0.9-1.5-1.2-3.3-0.8-4.9l0.2-0.6c0.5-1.5,1.6-2.7,3-3.3c2.3-1.3,4.5-2.8,6.6-4.5
	c1.6-1.4,3.6-2.2,5.7-2.4c1.3-0.2,2.6,0,3.8,0.4c0.7,0.2,1.3,0.6,1.9,1l5,3.5c0.3,0.2,0.5,0.5,0.5,0.8c0.1,0.3,0,0.7-0.3,0.9
	l0.1,0.1l11.4-0.8c0.1,0,0.2-0.1,0.2-0.2c0-0.1-0.1-0.2-0.2-0.2l-20-7.4c-4.6-1.7-6.9-6.8-5.2-11.3l17.4-47.3
	c1.7-4.6,6.8-6.9,11.3-5.2l20.9,7.8c4.6,1.7,6.9,6.8,5.2,11.3l-7.1,19.3c-0.1,0.1,0,0.3,0.1,0.3c0.1,0.1,0.2,0.1,0.3,0c0,0,0,0,0,0
	c6.2-5.3,12-12.3,17.6-21.1c1.1-1.8,2.9-3.1,4.9-3.7c1.6-0.5,3.3-0.4,4.8,0.2c0.4,0.2,0.9,0.4,1.3,0.6c1.8,1.1,3.2,2.8,3.7,4.8
	c0.4,1.4,0.3,3-0.2,4.4c-0.2,0.5-0.5,1.1-0.8,1.6c-1.3,1.9-2.6,3.8-4.1,5.8c-0.1,0.2-0.2,0.5-0.1,0.7c0.1,0.2,0.3,0.4,0.5,0.5
	l19.8,7.2c3.7,1.4,5.6,5.4,4.2,9.1L245.4,105.3z M169.5,113.6c0.4,0.2,1,0.1,1.2-0.4c0-0.1,0.1-0.2,0.1-0.2l1.9-5.1
	c0.2-0.4,0.1-1-0.4-1.2c-0.1,0-0.2-0.1-0.2-0.1l-8.5-3.1c-0.4-0.2-1-0.1-1.2,0.4c0,0.1-0.1,0.1-0.1,0.2l-1.9,5.1
	c-0.2,0.4-0.1,1,0.4,1.2c0.1,0,0.2,0.1,0.2,0.1L169.5,113.6z M175.9,96.3c0.4,0.2,1,0.1,1.2-0.4c0-0.1,0.1-0.1,0.1-0.2l1.9-5.1
	c0.2-0.4,0.1-1-0.4-1.2c-0.1,0-0.1-0.1-0.2-0.1l-8.5-3.1c-0.4-0.2-1-0.1-1.2,0.4c0,0.1-0.1,0.2-0.1,0.2l-1.9,5.1
	c-0.2,0.4-0.1,1,0.4,1.2c0.1,0,0.1,0.1,0.2,0.1L175.9,96.3z M182.8,123.3c-0.6,1.8-2,3.3-3.8,4.1c-1.7,0.8-3.7,0.9-5.5,0.2
	c-0.1,0-0.3,0-0.4,0.1c-0.1,0.1-0.2,0.2-0.1,0.3c1.4,3.5,2.5,7.1,3.3,10.7c0,0.5,0.4,0.9,0.9,0.9c0.1,0,0.2,0,0.3,0
	c6.2-1,12.2-3,17.7-6.1c0.6-0.3,0.9-0.9,0.8-1.5c-0.5-6.2-0.6-12.5-0.1-18.7c0-0.2-0.1-0.2-0.2-0.3c-0.1,0-0.2,0-0.3,0
	c-0.9,0.6-2,0.8-3,0.4c-1.1-0.3-1.9-1-2.4-2c-0.4-0.7-0.9-1.5-1.4-2.4c0-0.2-0.2-0.2-0.4-0.2c-0.1,0-0.3,0.1-0.3,0.3L182.8,123.3z
	 M182.3,78.9c0.4,0.2,1,0.1,1.2-0.4c0-0.1,0.1-0.2,0.1-0.2l1.9-5c0.2-0.4,0.1-1-0.4-1.2c-0.1,0-0.1-0.1-0.2-0.1l-8.5-3.1
	c-0.4-0.2-1-0.1-1.2,0.4c0,0.1-0.1,0.1-0.1,0.2l-1.9,5c-0.2,0.4-0.1,1,0.4,1.2c0.1,0,0.2,0.1,0.2,0.1L182.3,78.9z M221.3,104.1
	c0.1-0.2,0.1-0.5,0-0.8c-0.1-0.2-0.3-0.4-0.5-0.5l-8.1-3c-0.2-0.1-0.5-0.1-0.7,0c-0.2,0.1-0.4,0.4-0.4,0.6c-1,6.3-1.5,12.6-1.4,19
	c0,0.2,0.1,0.4,0.3,0.4c0.2,0,0.3,0,0.4-0.2C214.8,114.9,218.3,109.6,221.3,104.1L221.3,104.1z"/>
</svg>
