<?xml version="1.0" encoding="utf-8"?>
<!-- Generator: Adobe Illustrator 21.1.0, SVG Export Plug-In . SVG Version: 6.00 Build 0)  -->
<svg version="1.1" id="圖層_1" xmlns="http://www.w3.org/2000/svg" xmlns:xlink="http://www.w3.org/1999/xlink" x="0px" y="0px"
	 viewBox="0 0 264 180" style="enable-background:new 0 0 264 180;" xml:space="preserve">
<style type="text/css">
	.st0{fill:#FFFFFF;stroke:#FFFFFF;stroke-width:22.03;stroke-linecap:round;stroke-linejoin:round;}
	.st1{fill:#7EBC25;}
	.st2{fill:none;}
</style>
<path class="st0" d="M104.3,63.9c1.4-1.6,3.3-2.7,5.4-3.1c1.4-0.3,2.9-0.1,4.2,0.3c0.6,0.2,1.2,0.5,1.8,0.9c1.7,1.1,2.8,2.9,3,4.9
	c0.4,2-0.2,4-1.6,5.5c-6.9,8-14.7,15.2-23.3,21.3c-0.6,0.4-0.9,1-0.8,1.6c0.2,6.1,1.4,9.5,3.6,10.3c1.5,0.5,3.7-2.3,6.6-8.4
	c0.6-1.3,1.9-2.2,3.3-2.2c0.6-0.1,1.2,0,1.8,0.2c0.8,0.3,1.5,0.9,1.9,1.6c1.4,1.9,2.3,4.1,2.6,6.4c0.3,1.6,0.1,3.2-0.4,4.7
	c-0.2,0.5-0.5,1.1-0.8,1.6c-3.5,5.8-6.8,9.3-10,10.6c-3.1,1.3-7,1.1-11.6-0.5c-5.9-2.2-9.7-7.5-11.5-16c-0.2-0.7-0.6-0.9-1.2-0.7
	c-3.2,1.5-6.4,2.7-9.7,3.8c-1.7,0.5-3.5,0.4-5.1-0.2c-0.4-0.2-0.9-0.4-1.3-0.6c-2-1.1-3.5-2.9-4.2-5c-0.6-1.5-0.7-3.2-0.1-4.8
	c0.1-0.2,0.2-0.5,0.3-0.8c0.9-1.8,2.6-3.2,4.6-3.6c5.2-1.3,10.2-3.3,14.9-5.8c0.6-0.2,1-0.8,1-1.5c0.7-10.7,3.2-23.7,7.3-38.8
	c0.2-0.5,0-1.1-0.6-1.3c0,0-0.1,0-0.1,0l-23.4-8.6c-0.4-0.2-1-0.1-1.2,0.4c0,0.1-0.1,0.1-0.1,0.2L57,43.7c-0.2,0.4-0.1,1,0.4,1.2
	c0.1,0,0.2,0.1,0.2,0.1l14.7,5.4c4.4,1.6,6.8,6.4,5.2,10.8c0,0.1-0.1,0.2-0.1,0.2c-2.9,7.7-5.6,14.4-8.4,20c-1.9,4-3.7,6.6-5.3,7.7
	c-2.7,1.7-5.9,2.3-8.9,1.7c-1-0.2-2-0.5-3-0.8c-0.2,0-0.5-0.1-0.7-0.2c-2-0.7-3.6-2.2-4.6-4.1c-1.2-2.2-1.8-4.7-1.7-7.2
	c0-1.5,0-3-0.2-4.5c0-0.1-0.1-0.3-0.2-0.3c-0.1-0.1-0.3,0-0.4,0.2c-3.4,6.7-7.7,12.9-12.7,18.4C30,93.9,28,94.5,26.1,94
	c-0.4-0.1-0.8-0.2-1.2-0.3c-1.6-0.6-2.9-1.7-3.7-3.1c-1.2-1.9-1.6-4.2-1.4-6.5c0.1-0.9,0.4-1.8,0.7-2.7c0.4-1.2,1.1-2.4,2-3.4
	c5.7-6.7,11.4-17.7,17-33l7.7-20.9c1.7-4.6,6.8-6.9,11.3-5.2l30.2,11.2c0.2,0.1,0.5,0.1,0.8,0c0.2-0.1,0.4-0.3,0.5-0.6
	c0.9-2.8,1.5-4.5,1.7-5.3c0.7-1.9,2.1-3.5,4-4.4c1.9-0.9,4.1-0.9,6-0.2c2,0.7,3.6,2.2,4.4,4.1c0.9,1.9,1,4.1,0.2,6.1
	c-0.6,1.7-1.2,3.4-1.8,5.1c-0.2,0.5,0.1,1.1,0.6,1.3c0,0,0.1,0,0.1,0l9,3.3c0.1,0.1,0.3,0,0.4-0.1c0.1-0.1,0.1-0.3,0-0.4
	c-0.9-1.4-1.8-2.9-2.9-4.3c-0.9-1.3-1.2-2.9-0.9-4.4l0.2-0.6c0.5-1.3,1.4-2.3,2.7-2.8c1.7-0.8,3.6-1,5.4-0.6
	c0.4,0.1,0.8,0.2,1.2,0.3c1.3,0.5,2.5,1.3,3.4,2.5c1.4,1.8,2.7,3.5,3.8,5.2c1.1,1.5,1.3,3.5,0.6,5.2c-0.5,1.5-1.6,2.7-3.1,3.4
	c-0.1,0-0.1,0.2-0.1,0.3s0,0.3,0.1,0.3l2.7,1c3.8,1.4,5.8,5.7,4.4,9.5c-1.4,3.8-5.7,5.8-9.5,4.4l0,0l-21.8-8c-0.2-0.1-0.5-0.1-0.8,0
	c-0.2,0.1-0.4,0.3-0.4,0.6c-2,7.1-3.5,14.3-4.7,21.6c0,0.1,0,0.2,0.1,0.3c0.1,0.1,0.3,0.1,0.4,0C98.7,70.2,101.6,67.1,104.3,63.9z
	 M61.4,62.1c0.1-0.2,0.1-0.5,0-0.8c-0.1-0.3-0.3-0.5-0.6-0.5l-8.1-3c-0.4-0.2-1-0.1-1.2,0.4c0,0.1-0.1,0.2-0.1,0.2
	c-2,4.7-4.1,9.2-6.3,13.5c-0.3,0.4-0.2,1,0.2,1.2c0.1,0,0.1,0.1,0.2,0.1c2.1,1,4.1,1.8,5.9,2.5c1.1,0.5,2.4,0.4,3.4-0.2
	C56,74.7,58.2,70.3,61.4,62.1z"/>
<path class="st0" d="M177.4,109.1c0.6,0,1.2,0.1,1.7,0.3c1.2,0.4,2.2,1.2,2.9,2.2c1.1,1.5,1.5,3.4,1.1,5.2c-0.1,0.4-0.2,0.8-0.3,1.2
	c-1.3,3.5-4.8,5.7-8.5,5.4c-7.7-0.5-16.5-1.2-26.6-2c-0.7-0.1-1.4-0.2-2.1-0.4c-3.3-1.3-5.3-4.7-4.9-8.2c0.1-0.6,0.2-1.2,0.4-1.8
	c0.5-1.4,1.5-2.7,2.7-3.5c1.7-1.3,3.8-1.9,5.9-1.6c3.4,0.4,5.1,0.7,5.1,0.7c0.6,0.2,1.2-0.2,1.4-0.8l12.5-34c0.2-0.4,0.1-1-0.4-1.2
	c-0.1,0-0.1-0.1-0.2-0.1l-4.1-1.5c-3.7-1.4-5.6-5.5-4.2-9.1c1.4-3.7,5.5-5.6,9.1-4.2l24,8.8c3.7,1.3,5.7,5.3,4.4,9
	c-1.3,3.7-5.3,5.7-9,4.4c-0.1,0-0.2-0.1-0.3-0.1l-4-1.5c-0.4-0.2-1-0.1-1.2,0.4c0,0.1-0.1,0.2-0.1,0.2l-11.3,30.5
	c-0.1,0.2-0.1,0.5,0.1,0.7c0.1,0.2,0.4,0.4,0.6,0.4l1.6,0.1c0.6,0,1.2,0.1,2,0.2L177.4,109.1z M224.5,86.2c-0.1,0.3-0.1,0.6,0,0.8
	c0.1,0.2,0.3,0.4,0.6,0.5l14,5.2c2.2,0.8,4,2.5,4.9,4.6c0.9,2,1,4.4,0.2,6.4c-5.3,14.5-11,28.2-17,40.9c-3.6,7.7-6.6,12.4-9,14
	c-1.6,1.3-3.5,2.2-5.5,2.7c-2,0.3-4,0.3-5.9-0.1c-2.3-0.4-4.5-1-6.7-1.8l-0.2-0.1c-1.9-0.7-3.5-2.1-4.5-3.9c-1.1-2-1.6-4.2-1.4-6.5
	c0-0.6,0.1-1.2,0.3-1.7c0.4-1,1-1.8,1.9-2.4c1.3-1,3-1.2,4.4-0.6h0.1c1,0.4,2.2,0.9,3.8,1.5c1.5,0.6,3.1,0.5,4.5-0.4
	c1.5-0.9,3.6-4.4,6.4-10.4s7-16,12.5-29.8c0.2-0.5-0.1-1.1-0.6-1.3c0,0,0,0,0,0l-7.6-2.8c-0.5-0.3-1.1-0.1-1.3,0.4
	c0,0,0,0.1-0.1,0.1c-5.5,12.3-11.4,22.1-17.8,29.6c-6.4,7.5-14.7,13.1-24,16.2c-1.5,0.5-3.2,0.4-4.7-0.1c-0.5-0.2-0.9-0.4-1.4-0.7
	c-1.9-1.1-3.3-2.9-4-4.9c-0.6-1.6-0.6-3.4,0-5c0.1-0.2,0.2-0.5,0.2-0.7c0.8-1.8,2.3-3.1,4.2-3.8c7.4-2.4,14.1-6.7,19.2-12.6
	c5.1-5.8,9.8-13.6,14.1-23.3c0.2-0.5-0.1-1.1-0.6-1.3c0,0,0,0,0,0l-3.8-1.4c-3.8-1.3-5.7-5.5-4.4-9.3c1.3-3.8,5.5-5.7,9.3-4.4
	c0,0,0.1,0,0.1,0l4.1,1.6c0.5,0.3,1.1,0.1,1.3-0.4c0,0,0-0.1,0.1-0.1l3.7-10.1c0.7-1.9,2.1-3.5,4-4.3c1.9-0.9,4-0.9,5.9-0.2
	c1.9,0.7,3.5,2.1,4.3,4c0.9,1.8,1,3.9,0.2,5.8C228.1,77.2,226.8,80.6,224.5,86.2z"/>
<path class="st1" d="M104.3,63.9c1.4-1.6,3.3-2.7,5.4-3.1c1.4-0.3,2.9-0.1,4.2,0.3c0.6,0.2,1.2,0.5,1.8,0.9c1.7,1.1,2.8,2.9,3,4.9
	c0.4,2-0.2,4-1.6,5.5c-6.9,8-14.7,15.2-23.3,21.3c-0.6,0.4-0.9,1-0.8,1.6c0.2,6.1,1.4,9.5,3.6,10.3c1.5,0.5,3.7-2.3,6.6-8.4
	c0.6-1.3,1.9-2.2,3.3-2.2c0.6-0.1,1.2,0,1.8,0.2c0.8,0.3,1.5,0.9,1.9,1.6c1.4,1.9,2.3,4.1,2.6,6.4c0.3,1.6,0.1,3.2-0.4,4.7
	c-0.2,0.5-0.5,1.1-0.8,1.6c-3.5,5.8-6.8,9.3-10,10.6c-3.1,1.3-7,1.1-11.6-0.5c-5.9-2.2-9.7-7.5-11.5-16c-0.2-0.7-0.6-0.9-1.2-0.7
	c-3.2,1.5-6.4,2.7-9.7,3.8c-1.7,0.5-3.5,0.4-5.1-0.2c-0.4-0.2-0.9-0.4-1.3-0.6c-2-1.1-3.5-2.9-4.2-5c-0.6-1.5-0.7-3.2-0.1-4.8
	c0.1-0.2,0.2-0.5,0.3-0.8c0.9-1.8,2.6-3.2,4.6-3.6c5.2-1.3,10.2-3.3,14.9-5.8c0.6-0.2,1-0.8,1-1.5c0.7-10.7,3.2-23.7,7.3-38.8
	c0.2-0.5,0-1.1-0.6-1.3c0,0-0.1,0-0.1,0l-23.4-8.6c-0.4-0.2-1-0.1-1.2,0.4c0,0.1-0.1,0.1-0.1,0.2L57,43.7c-0.2,0.4-0.1,1,0.4,1.2
	c0.1,0,0.2,0.1,0.2,0.1l14.7,5.4c4.4,1.6,6.8,6.4,5.2,10.8c0,0.1-0.1,0.2-0.1,0.2c-2.9,7.7-5.6,14.4-8.4,20c-1.9,4-3.7,6.6-5.3,7.7
	c-2.7,1.7-5.9,2.3-8.9,1.7c-1-0.2-2-0.5-3-0.8c-0.2,0-0.5-0.1-0.7-0.2c-2-0.7-3.6-2.2-4.6-4.1c-1.2-2.2-1.8-4.7-1.7-7.2
	c0-1.5,0-3-0.2-4.5c0-0.1-0.1-0.3-0.2-0.3c-0.1-0.1-0.3,0-0.4,0.2c-3.4,6.7-7.7,12.9-12.7,18.4C30,93.9,28,94.5,26.1,94
	c-0.4-0.1-0.8-0.2-1.2-0.3c-1.6-0.6-2.9-1.7-3.7-3.1c-1.2-1.9-1.6-4.2-1.4-6.5c0.1-0.9,0.4-1.8,0.7-2.7c0.4-1.2,1.1-2.4,2-3.4
	c5.7-6.7,11.4-17.7,17-33l7.7-20.9c1.7-4.6,6.8-6.9,11.3-5.2l30.2,11.2c0.2,0.1,0.5,0.1,0.8,0c0.2-0.1,0.4-0.3,0.5-0.6
	c0.9-2.8,1.5-4.5,1.7-5.3c0.7-1.9,2.1-3.5,4-4.4c1.9-0.9,4.1-0.9,6-0.2c2,0.7,3.6,2.2,4.4,4.1c0.9,1.9,1,4.1,0.2,6.1
	c-0.6,1.7-1.2,3.4-1.8,5.1c-0.2,0.5,0.1,1.1,0.6,1.3c0,0,0.1,0,0.1,0l9,3.3c0.1,0.1,0.3,0,0.4-0.1c0.1-0.1,0.1-0.3,0-0.4
	c-0.9-1.4-1.8-2.9-2.9-4.3c-0.9-1.3-1.2-2.9-0.9-4.4l0.2-0.6c0.5-1.3,1.4-2.3,2.7-2.8c1.7-0.8,3.6-1,5.4-0.6
	c0.4,0.1,0.8,0.2,1.2,0.3c1.3,0.5,2.5,1.3,3.4,2.5c1.4,1.8,2.7,3.5,3.8,5.2c1.1,1.5,1.3,3.5,0.6,5.2c-0.5,1.5-1.6,2.7-3.1,3.4
	c-0.1,0-0.1,0.2-0.1,0.3s0,0.3,0.1,0.3l2.7,1c3.8,1.4,5.8,5.7,4.4,9.5c-1.4,3.8-5.7,5.8-9.5,4.4l0,0l-21.8-8c-0.2-0.1-0.5-0.1-0.8,0
	c-0.2,0.1-0.4,0.3-0.4,0.6c-2,7.1-3.5,14.3-4.7,21.6c0,0.1,0,0.2,0.1,0.3c0.1,0.1,0.3,0.1,0.4,0C98.7,70.2,101.6,67.1,104.3,63.9z
	 M61.4,62.1c0.1-0.2,0.1-0.5,0-0.8c-0.1-0.3-0.3-0.5-0.6-0.5l-8.1-3c-0.4-0.2-1-0.1-1.2,0.4c0,0.1-0.1,0.2-0.1,0.2
	c-2,4.7-4.1,9.2-6.3,13.5c-0.3,0.4-0.2,1,0.2,1.2c0.1,0,0.1,0.1,0.2,0.1c2.1,1,4.1,1.8,5.9,2.5c1.1,0.5,2.4,0.4,3.4-0.2
	C56,74.7,58.2,70.3,61.4,62.1z"/>
<path class="st1" d="M177.4,109.1c0.6,0,1.2,0.1,1.7,0.3c1.2,0.4,2.2,1.2,2.9,2.2c1.1,1.5,1.5,3.4,1.1,5.2c-0.1,0.4-0.2,0.8-0.3,1.2
	c-1.3,3.5-4.8,5.7-8.5,5.4c-7.7-0.5-16.5-1.2-26.6-2c-0.7-0.1-1.4-0.2-2.1-0.4c-3.3-1.3-5.3-4.7-4.9-8.2c0.1-0.6,0.2-1.2,0.4-1.8
	c0.5-1.4,1.5-2.7,2.7-3.5c1.7-1.3,3.8-1.9,5.9-1.6c3.4,0.4,5.1,0.7,5.1,0.7c0.6,0.2,1.2-0.2,1.4-0.8l12.5-34c0.2-0.4,0.1-1-0.4-1.2
	c-0.1,0-0.1-0.1-0.2-0.1l-4.1-1.5c-3.7-1.4-5.6-5.5-4.2-9.1c1.4-3.7,5.5-5.6,9.1-4.2l24,8.8c3.7,1.3,5.7,5.3,4.4,9
	c-1.3,3.7-5.3,5.7-9,4.4c-0.1,0-0.2-0.1-0.3-0.1l-4-1.5c-0.4-0.2-1-0.1-1.2,0.4c0,0.1-0.1,0.2-0.1,0.2l-11.3,30.5
	c-0.1,0.2-0.1,0.5,0.1,0.7c0.1,0.2,0.4,0.4,0.6,0.4l1.6,0.1c0.6,0,1.2,0.1,2,0.2L177.4,109.1z M224.5,86.2c-0.1,0.3-0.1,0.6,0,0.8
	c0.1,0.2,0.3,0.4,0.6,0.5l14,5.2c2.2,0.8,4,2.5,4.9,4.6c0.9,2,1,4.4,0.2,6.4c-5.3,14.5-11,28.2-17,40.9c-3.6,7.7-6.6,12.4-9,14
	c-1.6,1.3-3.5,2.2-5.5,2.7c-2,0.3-4,0.3-5.9-0.1c-2.3-0.4-4.5-1-6.7-1.8l-0.2-0.1c-1.9-0.7-3.5-2.1-4.5-3.9c-1.1-2-1.6-4.2-1.4-6.5
	c0-0.6,0.1-1.2,0.3-1.7c0.4-1,1-1.8,1.9-2.4c1.3-1,3-1.2,4.4-0.6h0.1c1,0.4,2.2,0.9,3.8,1.5c1.5,0.6,3.1,0.5,4.5-0.4
	c1.5-0.9,3.6-4.4,6.4-10.4s7-16,12.5-29.8c0.2-0.5-0.1-1.1-0.6-1.3c0,0,0,0,0,0l-7.6-2.8c-0.5-0.3-1.1-0.1-1.3,0.4
	c0,0,0,0.1-0.1,0.1c-5.5,12.3-11.4,22.1-17.8,29.6c-6.4,7.5-14.7,13.1-24,16.2c-1.5,0.5-3.2,0.4-4.7-0.1c-0.5-0.2-0.9-0.4-1.4-0.7
	c-1.9-1.1-3.3-2.9-4-4.9c-0.6-1.6-0.6-3.4,0-5c0.1-0.2,0.2-0.5,0.2-0.7c0.8-1.8,2.3-3.1,4.2-3.8c7.4-2.4,14.1-6.7,19.2-12.6
	c5.1-5.8,9.8-13.6,14.1-23.3c0.2-0.5-0.1-1.1-0.6-1.3c0,0,0,0,0,0l-3.8-1.4c-3.8-1.3-5.7-5.5-4.4-9.3c1.3-3.8,5.5-5.7,9.3-4.4
	c0,0,0.1,0,0.1,0l4.1,1.6c0.5,0.3,1.1,0.1,1.3-0.4c0,0,0-0.1,0.1-0.1l3.7-10.1c0.7-1.9,2.1-3.5,4-4.3c1.9-0.9,4-0.9,5.9-0.2
	c1.9,0.7,3.5,2.1,4.3,4c0.9,1.8,1,3.9,0.2,5.8C228.1,77.2,226.8,80.6,224.5,86.2z"/>
<rect x="8.5" y="7.2" class="st2" width="247.7" height="165.9"/>
</svg>
