<svg id="圖層_1" data-name="圖層 1" xmlns="http://www.w3.org/2000/svg" viewBox="0 0 150.1 150.1"><title>2</title><circle cx="75.1" cy="75.1" r="73" style="fill:#fff"/><path d="M57,146.3l5.4-9.1L48.7,142l-.7,2.5A46.3,46.3,0,0,0,57,146.3Z" style="fill:#d6d6d6"/><path d="M55.4,78.7c-6.7,3.6-27,15.7-42.1,36.2a5.94,5.94,0,0,0,.4.8c.4,1,.9,2,1.4,3a21.31,21.31,0,0,1,5.2,4.2c2.4,2.4,5.1,4.5,7.8,6.8,3.8,3.2,7.8,9.4,12.8,10.3a6.12,6.12,0,0,1,4.9,3.7,42.38,42.38,0,0,0,6.1,1.7,117.21,117.21,0,0,0,10.8-5.9s18.9-8.6,29.6-25.8C77.6,107.4,66.4,94.4,55.4,78.7Z" style="fill:#d6a17f"/><path d="M97.3,48.7a15.82,15.82,0,0,0-7-4.7c-10.6,2-20.6,7.4-29.1,13.3-2.3,5-3.8,11.5-3.5,20.3,0,0-.9.4-2.3,1.2,11,15.7,22.2,28.7,36.9,35.2,5.6-9.1,1.7-20-1.4-33.9a21.81,21.81,0,0,0-1.6-4.5c-1.4-2.8-.7-10.3,6.2-12a38.11,38.11,0,0,1-5.3-6.7c-2.3,2.3-5.5,3.9-10.6,2.5,5.1,1.4,8.2-.2,10.6-2.5-.5-.8-1.1-1.7-1.6-2.7.6.9,1.1,1.8,1.6,2.7C92.8,54,94.6,50.1,97.3,48.7Z" style="fill:#e4bfa4"/><path d="M79.1,42.6S67.3,44.3,61.2,57.3C69.7,51.4,79.7,46,90.4,44A25.75,25.75,0,0,0,79.1,42.6Z" style="fill:#2c88c9"/><path d="M119.4,60.6s-6.2-8.7-21.1-10.5a14.31,14.31,0,0,0-1.1-1.5c-2.7,1.4-4.4,5.3-7.2,8.1a42.18,42.18,0,0,0,5.3,6.7,6.43,6.43,0,0,1,3.3-2.3A69.13,69.13,0,0,1,119.4,60.6Z" style="fill:#b3b3b3"/><path d="M95.2,51.1a6.79,6.79,0,0,1-5.9.1s-3.3-5.1-8.9-4.5c0,0-6.1.5-7.4,8.2,0,0,0,3.6,10.6,4.4,0,0,5.1.2,7.5-2.1" style="fill:#c2ddec"/><path d="M68.2,47.2S57.6,58.7,41,59.9c0,0,8.4,5.5,19.8-1.1" style="fill:#2c88c9"/><path d="M49.4,63.4A18.58,18.58,0,0,1,40.2,61a1.58,1.58,0,0,1-.6-1.6,1.63,1.63,0,0,1,1.3-1.1c15.8-1,26.1-12,26.3-12.1a1.34,1.34,0,0,1,2,0,1.42,1.42,0,0,1,0,2A46.19,46.19,0,0,1,46.8,60.4,19.75,19.75,0,0,0,60,57.5a1.39,1.39,0,0,1,1.4,2.4A22.37,22.37,0,0,1,49.4,63.4Z" style="fill:#1a1a1a"/><path d="M121.1,59.5c-.3-.4-6.6-9.1-21.5-11.2-1.8-2.5-7.5-8.8-20.6-7.7h-.1a25.51,25.51,0,0,0-12.2,6c-5.2,4.5-11.3,13.3-11,29.7C50.2,79,28.3,91.2,12,113a7.2,7.2,0,0,1,1.5,2.7c.2.4.4.9.6,1.3,18-24.8,44.1-37.6,44.4-37.7a2.12,2.12,0,0,0,1.2-1.9c-1.2-29,18.2-32.6,19.6-32.8,13-1,17.1,6.2,17.2,6.5a2.09,2.09,0,0,0,1.6,1.1,33.5,33.5,0,0,1,15.7,5.9,67,67,0,0,0-15.5,1l-.2.1A7.51,7.51,0,0,0,93,63.6c-1.7,3.8,0,8.7,1.6,12.1a15.57,15.57,0,0,1,1.5,4.1c8.5,38.1-33.8,57.8-34.2,58l-.2.1a121.86,121.86,0,0,1-12.9,6.8c2.1.6,4.3,1.1,6.5,1.5,2.7-1.4,5.5-2.9,8.4-4.7,2.6-1.2,45.4-22.3,36.4-62.6a23,23,0,0,0-1.8-5c-1.8-3.7-2.4-6.9-1.6-8.8A4,4,0,0,1,99.2,63a67.08,67.08,0,0,1,20-.4,2,2,0,0,0,2.3-1.6,2,2,0,0,0-.4-1.5Z" style="fill:#1a1a1a"/><path d="M91.7,61.2a1.43,1.43,0,0,1-1.2-.6l-1.7-2.3a1.53,1.53,0,0,1-.2-1.3,14.54,14.54,0,0,1,4.2-5.6,1.42,1.42,0,0,1,1.9,2.1c-.1,0-.1.1-.2.1a11.93,11.93,0,0,0-3,3.7L92.7,59a1.44,1.44,0,0,1-.3,2h0A1.17,1.17,0,0,1,91.7,61.2Z" style="fill:#1a1a1a"/><circle cx="81.3" cy="52.9" r="3.7" style="fill:#1a1a1a"/><path d="M64.6,87.2s-1.8,2.7,1.3,11.7" style="fill:#fff"/><path d="M65.9,100.3a1.3,1.3,0,0,1-1.3-1c-3.1-9.2-1.5-12.4-1.2-12.9a1.43,1.43,0,0,1,2-.3,1.3,1.3,0,0,1,.4,1.8c-.1.2-1.2,2.8,1.4,10.5a1.38,1.38,0,0,1-.9,1.8h0A.6.6,0,0,1,65.9,100.3Z" style="fill:#1a1a1a"/><path d="M73.2,96.8s-.4,9.6,3,13.2" style="fill:#fff"/><path d="M76.2,111.4a1.78,1.78,0,0,1-1-.4c-3.7-3.9-3.4-13.2-3.4-14.2a1.45,1.45,0,0,1,2.9.1c-.1,2.5.2,9.5,2.6,12.1a1.42,1.42,0,0,1-.1,2A1.53,1.53,0,0,1,76.2,111.4Z" style="fill:#1a1a1a"/><path d="M61.2,127.3a1.55,1.55,0,0,0-2-.3h0c-8.4,6.5-14.8,10.4-19.5,12.7.3.1.7.2,1.1.3a8.25,8.25,0,0,1,2.6,1,137.49,137.49,0,0,0,17.5-11.8A1.22,1.22,0,0,0,61.2,127.3Z" style="fill:#1a1a1a"/><path d="M57.2,146.4l.1-.3a1.43,1.43,0,0,0-2.6-1.2l-.5,1.1C55.2,146.2,56.2,146.3,57.2,146.4Z" style="fill:#1a1a1a"/><line x1="43.5" y1="101.3" x2="33.7" y2="109.9" style="fill:none"/><path d="M33.7,111.3a1.37,1.37,0,0,1-1.4-1.4,1.61,1.61,0,0,1,.5-1.1l9.8-8.6a1.41,1.41,0,0,1,2,2l-.1.1-9.8,8.6A1.28,1.28,0,0,1,33.7,111.3Z" style="fill:#a77858"/><line x1="57.1" y1="102" x2="47" y2="109.8" style="fill:none"/><path d="M47,111.2a1.25,1.25,0,0,1-1.1-.6,1.36,1.36,0,0,1,.3-2l10.1-7.7a1.43,1.43,0,0,1,1.7,2.3h0l-10.1,7.7A1.61,1.61,0,0,1,47,111.2Z" style="fill:#a77858"/><circle cx="75.1" cy="75.1" r="73" style="fill:none"/><path d="M75.1,150.1a75.05,75.05,0,1,1,75.1-75A75.18,75.18,0,0,1,75.1,150.1Zm0-146a71,71,0,1,0,71,71A71.14,71.14,0,0,0,75.1,4.1Z" style="fill:#c8c9ca"/></svg>