<svg id="圖層_1" data-name="圖層 1" xmlns="http://www.w3.org/2000/svg" xmlns:xlink="http://www.w3.org/1999/xlink" viewBox="0 0 150.1 150.1"><defs><clipPath id="clip-path"><circle cx="75.1" cy="75.1" r="73" style="fill:none"/></clipPath></defs><title>3</title><g style="clip-path:url(#clip-path)"><circle cx="75.1" cy="75.1" r="73" style="fill:#fff"/></g><path d="M95.6,58.6l-19.1-8S52.3,46.5,50.6,61.3A28.43,28.43,0,0,1,25.9,76.7S12.5,82.5,9.1,107.1c1.2,1.9,2.4,3.7,3.5,5.5A76.58,76.58,0,0,0,27,129.8c2.9,2.6,5.9,5,8.5,7.8a2.77,2.77,0,0,1,1.3.3h.1c1.1-3.7,3.2-8.4,7.5-10.7,0,0,23.6-14.5,29.4-13.8l13.4-1.1L78.6,95.6s21.9-17.7,42.1-25.4C120.6,70.2,132,66,95.6,58.6Z" style="fill:#fff"/><path d="M95.6,58.6l-19.1-8s-20,2.2-21.7,17c0,0-1.5,16.9-19.5,17.6,0,0-20.3-.2-25.7,22.8,1,1.6,2,3.1,3,4.7A79.38,79.38,0,0,0,27,130c2.9,2.6,5.9,5,8.5,7.8a2.77,2.77,0,0,1,1.3.3h.1c1.1-3.7,3.2-8.4,7.5-10.7,0,0,23.6-14.5,29.4-13.8l18.4,11.7,9.7-2.1L108,116l-9.9.8-10.9-4.3L78.6,95.8s21.9-17.7,42.1-25.4C120.6,70.2,132,66,95.6,58.6Z" style="fill:#ae9378"/><path d="M123.8,67.5c-.4-3-3.8-4.9-4.5-5.3a1.49,1.49,0,0,0-.9-.2h-.2c-5.5,0-22.4-6.2-28.6-8.7-10.7-5.8-20.3-7.1-28.5-3.9C49.9,53.9,45.3,65.2,44.7,67c-.6,1-4.7,7.3-11.7,6.2h-.2c-.6,0-15.3-.4-25.9,10.2a39.81,39.81,0,0,0-4.1,5.1,7.25,7.25,0,0,1,.7,3.3,18.41,18.41,0,0,0,.3,3.3,27.78,27.78,0,0,1,5.9-8.8c8.9-9,21.6-9.1,22.8-9.1,10.2,1.5,15.6-8,15.8-8.4.1-.1.1-.2.2-.3s4-11.3,14.2-15.3c7.1-2.8,15.5-1.5,25.2,3.8l.2.1c2.3.9,22.2,8.7,29.8,9,.9.6,1.9,1.4,1.9,1.9a.91.91,0,0,1-.3.5c-3.2,1.4-27.7,12.3-38.4,20.3l-.3.3c-2.7,2.9-5.9,10.6.9,19.3a34.15,34.15,0,0,0,15.1,10.2,1.69,1.69,0,0,0,1.4-.1s4.7-2.1,7.5-.6A19.92,19.92,0,0,1,92.8,123c-1.6-.4-12.2-3.1-17.4-10.7a2,2,0,0,0-3.3,2.3c6.4,9.5,19.5,12.3,20.1,12.4h.4a24.2,24.2,0,0,0,17.6-8,2,2,0,0,0,.1-2.4c-3.5-5.2-10.6-3.1-13-2.2a29.9,29.9,0,0,1-12.4-8.6c-5.9-7.6-1.9-13.1-1.2-14,10.9-8,37.4-19.7,37.7-19.8a2.19,2.19,0,0,0,.5-.3A4.94,4.94,0,0,0,123.8,67.5Z" style="fill:#1a1a1a"/><path d="M72.9,87.9C62,87.9,58.2,80,58,79.6a.6.6,0,0,1-.1-.4c-1.8-8.3,7-12.6,11.9-13.7a2,2,0,0,1,.9,3.9h0c-.1,0-9.9,2.4-8.9,8.7.6,1.2,4.4,7,14.3,5.5a2,2,0,1,1,.6,4A23.4,23.4,0,0,1,72.9,87.9Z" style="fill:#1a1a1a"/><path d="M74.9,79.6a8.5,8.5,0,0,1-9.1-1.9s-1.4-5,6.9-5.8" style="fill:#f9d1bf"/><path d="M71.8,81.7a10,10,0,0,1-7.1-3,.86.86,0,0,1-.3-.6,5.1,5.1,0,0,1,.8-4.3c1.3-1.9,3.8-3.1,7.5-3.5a1.56,1.56,0,0,1,1.5,1.6A1.4,1.4,0,0,1,73,73.3c-2.7.3-4.5,1-5.3,2.1a2.3,2.3,0,0,0-.4,1.4A7,7,0,0,0,74.5,78a1.52,1.52,0,0,1,1.2,2.8h0A8.47,8.47,0,0,1,71.8,81.7Z" style="fill:#1a1a1a"/><path d="M92.8,96h-.2a1.55,1.55,0,0,1-1.3-1.7h0c2.2-15.8,7.5-22.5,7.7-22.8a1.45,1.45,0,0,1,2.1-.1,1.43,1.43,0,0,1,.2,2h0c0,.1-5,6.4-7,21.3A1.51,1.51,0,0,1,92.8,96Z" style="fill:#1a1a1a"/><path d="M107.7,86a1.34,1.34,0,0,1-1.3-.8,27.52,27.52,0,0,1-2.7-14.4,1.49,1.49,0,0,1,1.8-1.1,1.59,1.59,0,0,1,1.2,1.5,25,25,0,0,0,2.4,12.6,1.44,1.44,0,0,1-.7,2A1.08,1.08,0,0,1,107.7,86Z" style="fill:#1a1a1a"/><path d="M102.2,62H102a1.55,1.55,0,0,1-1.3-1.7c.2-1.4,2-13.7,5.4-17.7a1.68,1.68,0,0,1,2.2-.2,1.57,1.57,0,0,1,.2,2.2c-2.4,2.8-4.2,12.5-4.7,16.1A1.69,1.69,0,0,1,102.2,62Z" style="fill:#1a1a1a"/><path d="M107.7,62.9a.6.6,0,0,1-.4-.1,1.49,1.49,0,0,1-1.1-1.8c.1-.3,2.2-8.5,6.8-11.3a1.53,1.53,0,1,1,1.6,2.6c-2.9,1.8-4.9,7.5-5.4,9.5A1.63,1.63,0,0,1,107.7,62.9Z" style="fill:#1a1a1a"/><ellipse cx="85.3" cy="65.41" rx="4.2" ry="4.3" transform="translate(-22.18 63.74) rotate(-36.59)" style="fill:#1a1a1a"/><path d="M27,129.9c2.9,2.6,5.9,5,8.5,7.8a2.77,2.77,0,0,1,1.3.3l.7.2c.2-.8.5-1.8.7-2.8,1.3-5.7,2.2-13.3-1.1-17.7L26.5,129.4Z" style="fill:#ac9177"/><path d="M36.2,135c-.2,1-.5,1.9-.7,2.7a3.45,3.45,0,0,1,1.3.3c.9.3,1.8.6,2.6.9.3-.9.5-1.9.8-3,2.1-8.8,1.6-15.3-1.5-19.4a2,2,0,1,0-3.2,2.4C37.7,122,38,127.7,36.2,135Z" style="fill:#1a1a1a"/><path d="M73.3,113.9c1.8-1.3-23.7,5.5-32.7,16.2" style="fill:#fff"/><path d="M40.6,132.2a2.08,2.08,0,0,1-2.1-1.9,2.39,2.39,0,0,1,.5-1.4c8.6-10.1,32.1-17.7,34.8-17a1.91,1.91,0,0,1,1.5,1.6,2.15,2.15,0,0,1-2.7,2.4c-4.1.7-23.3,7-30.6,15.5A1.49,1.49,0,0,1,40.6,132.2Z" style="fill:#1a1a1a"/><path d="M53.8,97.4s8.6,11.4,16.4,11.8" style="fill:#fff"/><path d="M70.2,111.2h0c-8.6-.4-17.6-12.1-18-12.6a2,2,0,1,1,3.2-2.4c2.2,3,9.3,10.7,14.9,11a2.09,2.09,0,0,1,2,2.1,2,2,0,0,1-2.1,1.9Z" style="fill:#1a1a1a"/><path d="M115.5,65s-2.1,2.2,1.1,7.2l4.1-2.1,1.3-4.5" style="fill:#1a1a1a"/><circle cx="75.1" cy="75.1" r="73" style="fill:none"/><path d="M75.1,150.1a75.05,75.05,0,1,1,75.1-75A75.18,75.18,0,0,1,75.1,150.1Zm0-146a71,71,0,1,0,71,71A71.14,71.14,0,0,0,75.1,4.1Z" style="fill:#c8c9ca"/></svg>