<svg id="圖層_1" data-name="圖層 1" xmlns="http://www.w3.org/2000/svg" viewBox="0 0 1080 616.71"><defs><style>.cls-1,.cls-21{fill:#fff;}.cls-10,.cls-11,.cls-16,.cls-18,.cls-2,.cls-5,.cls-9{fill:none;}.cls-2{stroke:#e5efd0;}.cls-14,.cls-2{stroke-miterlimit:10;}.cls-2,.cls-5{stroke-width:5.91px;}.cls-3{fill:#f2ebe3;}.cls-4{fill:#ede4da;}.cls-10,.cls-12,.cls-16,.cls-17,.cls-18,.cls-20,.cls-21,.cls-5,.cls-8,.cls-9{stroke:#1a1a1a;}.cls-10,.cls-11,.cls-12,.cls-14,.cls-16,.cls-17,.cls-18,.cls-20,.cls-21,.cls-5,.cls-8,.cls-9{stroke-linecap:round;}.cls-10,.cls-11,.cls-12,.cls-16,.cls-17,.cls-18,.cls-20,.cls-21,.cls-5,.cls-8,.cls-9{stroke-linejoin:round;}.cls-6{fill:#ada082;opacity:0.42;}.cls-7{fill:#dfe0e0;}.cls-8{fill:#a0a1a1;}.cls-10,.cls-11,.cls-14,.cls-8,.cls-9{stroke-width:4.43px;}.cls-10{stroke-dasharray:16.95 16.95;}.cls-11{stroke:#77ab30;}.cls-12{fill:#cddc4c;stroke-width:3.84px;}.cls-13{opacity:0.56;}.cls-14{fill:#ccb399;stroke:#ccb399;}.cls-15{fill:#ae9378;}.cls-16,.cls-20,.cls-21{stroke-width:5.51px;}.cls-17{fill:#f9d1bf;stroke-width:3.44px;}.cls-18{stroke-width:4.13px;}.cls-19{fill:#1a1a1a;}.cls-20{fill:#ac9177;}</style></defs><title>互動設計UI</title><rect class="cls-1" width="1080" height="616.71"/><ellipse class="cls-2" cx="540" cy="300.48" rx="291.69" ry="226.72"/><path class="cls-3" d="M270.59,273.86l2.32-.37c.66-.25,1.32-.5,2-.73C272.61,273.33,270.3,273.91,270.59,273.86Z"/><path class="cls-4" d="M841.75,287.75c-.61-.34,2-37.3-20.48-38.74-122-11.95-183.68-18.82-264.83-15.95C510,234.7,454.18,231.88,407.75,235c-38.4,2.56-85.78,5.8-123.32,11.83-2.9,1.07-32.19,4.46-35.77,4.79C226.17,261.36,234.55,277.46,233,278c-34.28,11.17-46.83,57.22-15.7,70.76a33.32,33.32,0,0,0,4.67,1.32c.13,1.95,3.86,1.44,4.15,3.29-3.55,4-5.41,10.78-5.41,15.21a39.71,39.71,0,0,0,9.93,26.92c16,16.34,37.66,16.81,40.17,17.94-5.6,20.74,6.22,49.08,27.63,51.35l25.24,2.66c2.59,9.69,17.53,21.37,28.08,26,20.31,8.92,32.66,8.27,50.92,10.36,19.81,30.1,141.25,27.86,169.16,24.54C610.89,523.7,682,518.22,713,485.44c16.81-17.76,25.75-20.23,47.39-24.5,19.27-3.81,35.07-1.7,48.92-19.26,5.88-7.46,3-24.1,0-30.28,28.05-8.65,30.72-24.23,30.13-40.91,0-.6-.09-1.19-.13-1.79,9.83-8,19.8-20.4,24.27-32.88C870.64,316,860.31,297.82,841.75,287.75Z"/><path class="cls-3" d="M274.92,272.76l4.33-1.07A26.36,26.36,0,0,0,274.92,272.76Z"/><path class="cls-5" d="M242.56,251.36s348.68-42.15,595.82,0"/><path class="cls-6" d="M683.71,258.15l87.49,2a4,4,0,0,1,2.63,6.9L607.74,399.82a36.32,36.32,0,0,1-24.2,9.24l-171.65-2.69a4,4,0,0,1-2.41-7.08l60.25-46.58"/><path class="cls-1" d="M716.13,162.53s23.43-11.2,21.39,15.28c0,0,6.7,102.93-9.89,99.33L468.89,368.3l1-90.64,105.66-78.21Z"/><path class="cls-7" d="M638,178.61s-15.28-1.4-26.91,7.66L471,290.85l-.54,97s104.47,6.45,116.8-7.82L727.63,277.14l-1.76-100.78Z"/><polygon class="cls-1" points="724.31 170.7 578.43 283.15 729.32 184.05 724.31 170.7"/><polyline class="cls-5" points="627.68 161.38 737.02 161.38 737.02 270.72"/><rect class="cls-5" x="470.45" y="278.43" width="109.35" height="109.35"/><line class="cls-5" x1="579.79" y1="278.43" x2="737.02" y2="161.38"/><line class="cls-5" x1="470.45" y1="278.43" x2="627.68" y2="161.38"/><line class="cls-5" x1="737.02" y1="270.72" x2="579.79" y2="387.77"/><rect class="cls-8" x="483.51" y="292.54" width="80.8" height="80.8"/><line class="cls-9" x1="590.65" y1="364.05" x2="597.78" y2="358.79"/><line class="cls-10" x1="611.42" y1="348.73" x2="713.71" y2="273.29"/><line class="cls-9" x1="720.53" y1="268.26" x2="727.66" y2="263"/><line class="cls-9" x1="590.65" y1="289.64" x2="597.78" y2="284.38"/><line class="cls-10" x1="611.42" y1="274.32" x2="713.71" y2="198.89"/><line class="cls-9" x1="720.53" y1="193.86" x2="727.66" y2="188.6"/><line class="cls-8" x1="490.83" y1="365.66" x2="536.37" y2="332.46"/><path class="cls-11" d="M749.39,356.71s.31-8-6.57-15.72"/><path class="cls-11" d="M760.6,356.51s-.32-12.93,2.26-20.37"/><line class="cls-11" x1="772.56" y1="355.86" x2="776.76" y2="347.45"/><path class="cls-11" d="M421.75,277.77s.25-6.62-5.45-13"/><path class="cls-11" d="M431,277.6s-.27-10.72,1.87-16.88"/><line class="cls-11" x1="440.95" y1="277.06" x2="444.44" y2="270.09"/><path class="cls-11" d="M509.16,488.2s.31-8-6.57-15.72"/><path class="cls-11" d="M520.38,488s-.33-12.93,2.26-20.37"/><line class="cls-11" x1="532.34" y1="487.35" x2="536.54" y2="478.95"/><path class="cls-12" d="M668.5,428.3s2.83-19.37-6.62-43.94c0,0,15.12,13.7,16.07,29.76,0,0,4.25-16.06,12.28-25,0,0-1.42,20.79-.94,26.93,0,0,7.08-14.64,17-23.62,0,0-9.45,25.51-7.56,34.49"/><path class="cls-12" d="M331.74,323.49s2.84-19.37-6.61-43.94c0,0,15.12,13.7,16.06,29.77,0,0,4.25-16.07,12.28-25,0,0-1.41,20.78-.94,26.93,0,0,7.09-14.65,17-23.63,0,0-9.45,25.52-7.56,34.49"/><g class="cls-13"><line class="cls-14" x1="277.04" y1="293.74" x2="299.66" y2="292.84"/><line class="cls-14" x1="773.65" y1="292.39" x2="796.24" y2="293.64"/><line class="cls-14" x1="376.55" y1="341.18" x2="406.75" y2="340.17"/><line class="cls-14" x1="584.91" y1="451.5" x2="615.08" y2="449.6"/></g><ellipse class="cls-6" cx="358.78" cy="428.78" rx="71.45" ry="29.28"/><polygon class="cls-1" points="413.66 368.44 392.51 361.83 371.81 368 354.62 362.27 336.12 357.87 314.09 366.24 302.1 380.02 293.82 398.4 266.07 419.1 413.66 368.44"/><path class="cls-15" d="M273.65,416.14c19.46-3,33.27-24,33.27-24,23.54-35,48.94-16.24,48.94-16.24,16.83,11.19,29.24-3.24,29.24-3.24,11.22-12.3,30.81-1.26,30.81-1.26L428,391.18c28.19,30.58,15.1,26.9,15.1,26.9-23.39-6.22-54.74-5.92-54.74-5.92l-5.86,3.68-5.63,7.23c-4.8-4.42-40.32-3.05-40.32-3.05-9.74-1.24-18.09,8.75-18.09,8.75l16.41,5.79c8.48,4.09,1.32,10.17,1.32,10.17l-14.72-4.32c-9.66-.51-15.13-9.61-15.13-9.61l4.37-9.06-15.44-.17L244.06,430l-32.57-7.36,62.16-6.5"/><path class="cls-16" d="M310.7,421.74c-10.23-3.33-31.14,3.14-31.14,3.14-44.87,11.71-87.56-4.79-87.56-4.79,15.83,1.17,34.8.56,48.81.12a188.24,188.24,0,0,0,21.95-2.29c13-2.54,23.15-11.21,23.15-11.21,4.06-4.69,7.53-9.17,9.62-13.82A92.06,92.06,0,0,1,302.1,380c26.09-39.8,57.9-15,57.9-15,7.26,7.15,17.4,2.41,17.4,2.41s29-20.54,46.63,16.2c0,0,14.67,22.94,21.12,27.41,0,0,3.35,6.57-2.06,7,0,0-32.44-7-48-6.75,0,0-6.05,1.33-7.44,4.43"/><path class="cls-16" d="M399.21,382.59s-12.88-5.37-16.81,3.52c0,0-2,10.59,10.56,17"/><path class="cls-17" d="M395.5,396.68a9.58,9.58,0,0,1-7-7.74s1.93-5.45,10.1-.71"/><path class="cls-18" d="M423.12,406.73s-8.93,2.42-21.09,15.17"/><path class="cls-18" d="M428.52,408.7A29,29,0,0,0,422,422.62"/><path class="cls-18" d="M432.73,397.21s10.26-10.75,15.62-12"/><path class="cls-18" d="M437.15,401.64s7-5.81,12.36-5.48"/><ellipse class="cls-19" cx="414.22" cy="390.63" rx="4.68" ry="4.8" transform="translate(-5.42 5.82) rotate(-0.8)"/><path class="cls-20" d="M313.53,411.4s-.47,11.21-7.2,19.4c0,0-1.51,7.22,15.13,9.61,2.3.33,3.52.78,5.84.65,2.83-.17,6.59,1.94,8.88,3.67,0,0,9.71-6-1.32-10.17,0,0-9.34-4.32-16.41-5.79a64.42,64.42,0,0,0,7.11-5.35c5-4.29,10.69-10.61,10.61-16.84"/><path class="cls-21" d="M373.8,420.88c2.49,0-32.45,2.37-42.51-.81"/><path class="cls-19" d="M441.82,410s-3.35.7-3.76,7.28l5,.78,4.14-3.21"/><path class="cls-20" d="M383,405.82s1.09,16.11,10.39,23.67c0,0,5.72.95,7.06,5,0,0,5.59,6.33-13.35,3.16l-12.65-18.56c-6.77-5.39-8.72-14-8.72-14"/></svg>