<svg id="圖層_1" data-name="圖層 1" xmlns="http://www.w3.org/2000/svg" viewBox="0 0 1080 616.71"><defs><style>.cls-1,.cls-11,.cls-19,.cls-7{fill:#fff;}.cls-10,.cls-12,.cls-14,.cls-2,.cls-8,.cls-9{fill:none;}.cls-2{stroke:#e5efd0;stroke-width:5.91px;}.cls-16,.cls-2{stroke-miterlimit:10;}.cls-3{fill:#b0b0b0;}.cls-4{fill:#eeeeef;}.cls-5{fill:#dfe0e0;}.cls-6{fill:#ae9378;}.cls-10,.cls-11,.cls-12,.cls-13,.cls-14,.cls-18,.cls-19,.cls-20,.cls-22,.cls-7,.cls-8,.cls-9{stroke:#1a1a1a;stroke-linecap:round;stroke-linejoin:round;}.cls-22,.cls-7,.cls-8,.cls-9{stroke-width:5.97px;}.cls-9{stroke-dasharray:26.98 26.98;}.cls-10{stroke-width:4.59px;}.cls-11,.cls-14,.cls-20{stroke-width:4.13px;}.cls-12,.cls-18,.cls-19{stroke-width:5.51px;}.cls-13{fill:#f9d1bf;stroke-width:3.44px;}.cls-15{fill:#1a1a1a;}.cls-16,.cls-17{fill:#cddc4c;}.cls-16{stroke:#fff;stroke-width:13.77px;}.cls-18{fill:#ac9177;}.cls-20{fill:#ffe25c;}.cls-21{fill:#edca7f;}.cls-22{fill:#e7c57e;}</style></defs><title>互動設計UI</title><rect class="cls-1" width="1080" height="616.71"/><ellipse class="cls-2" cx="540" cy="300.48" rx="291.69" ry="226.72"/><rect class="cls-1" x="270.29" y="174.77" width="552.56" height="248.4"/><polygon class="cls-3" points="391.56 260.83 288.44 417.86 313.9 414.02 400 277.58 391.56 260.83"/><path class="cls-4" d="M786.85,159.52a12.84,12.84,0,0,1-7.42,1.06c-19-2.58-38.35,3.3-57.36,1.13-18.66-2.13-396.29.62-415-.38a10.25,10.25,0,0,1-1.13-.15c-3.1,3.12-16.76-.68-20.8-.22-5.19.59-6.74,0-11.81-.38-.39.17-5.24.25-5.62.38-2.69.88-5.1,1.79-7.46,1.12l1.06.6c-2,.34-9-1.52-11-2.1-18.78.09-34.1-2.22-52.86.75a20.92,20.92,0,0,0-1.06,1.92c1.1.67,2.26,1.25,3.4,1.86a16.52,16.52,0,0,1,14.45,3.94c7.63,6.58,17.26,9.14,26.2,13.31a80.44,80.44,0,0,1,9.4,5.37c.11,0,.22,0,.33.07,6.86,2.3,13.26,4.84,19.14,8.72.29.07.54.23.82.32,7.83-.91,15.89,5.58,17.78,12.83a15.62,15.62,0,0,1-.06,8.21,19.09,19.09,0,0,1-1.38,7.52c.3,4.91.52,9.81.59,14.73.48,0,.93,0,1.43-.09a78.93,78.93,0,0,1,11.22-.41c2.26-6.7,9.12-11.35,16.21-11.62a15.45,15.45,0,0,1,12.93,6.48,14.93,14.93,0,0,1,9.2,4.82c.55.24,1.08.51,1.6.8a16.24,16.24,0,0,1,6.32,1.75,17.67,17.67,0,0,1,7.87,3.62c79.31,5,286.88.58,356.47-4.21,11.46-.79,18.69-10.65,20.33-23,8.34-1.46,16.67-3,25-4.7,8.13-1.67,12.71-8.73,14.33-17.11C784.26,195.32,789.72,174,786.85,159.52Z"/><path class="cls-3" d="M210.48,187.24s-5.87,203.87,4.16,188.82c0,0,60.18-79.24,57.18-99.3l-.24-62Z"/><path class="cls-3" d="M787.71,160.39V369.28l94.82,48.58s7.38-216-6.18-216.7Z"/><path class="cls-5" d="M354.37,374.59s-14.59-3.24-21.07,8.92l-15.4,24.31s-11.35,6.49,5.67,8.11h546.3s14.59-1.62-5.67-6.49L784.77,367.3l-74.64,6.78Z"/><ellipse class="cls-3" cx="545.89" cy="395.19" rx="118.87" ry="11.59"/><path class="cls-6" d="M547.75,319.52S514.6,298.07,488,343.57c0,0-15.6,27.3-39.65,32.5l-20,4.71-11.46-3.95.39-9.09,13.05-11.86-7.91-2-13.05,10.77-4.34,11.75,5.93,10.68,19,5.53,45.85-11.46,19.27-1-4.75,11.64s7.54,10.93,19.63,10.81l18.7,4.25s8.46-8.14-2.43-12.58l-20.93-5.95s9.64-13.11,21.89-12.32c0,0,38.73.39,45,5.53l16.72,8.63,2.25-28s39.09-2.81,68.75,3.14c0,0,16.62,3.57-20.92-32.39l-16.6-23.71S597,297,584,313.2C584,313.2,569.62,332.17,547.75,319.52Z"/><polyline class="cls-7" points="270.13 410.8 210.27 383.9 270.3 290.14"/><polyline class="cls-8" points="288.31 262 311.96 225.06 391.56 260.83 400 277.58 305.09 426.52 289.68 419.59"/><line class="cls-8" x1="787.98" y1="374.16" x2="787.98" y2="215.44"/><line class="cls-8" x1="882.8" y1="416.79" x2="787.98" y2="374.16"/><line class="cls-8" x1="600.26" y1="416.79" x2="533" y2="386.37"/><polyline class="cls-8" points="787.98 189.76 787.98 160.39 882.8 203.02 882.8 416.79"/><polyline class="cls-8" points="882.53 203.02 882.53 439.06 288.44 439.06 193.62 396.44 193.62 160.39 288.44 203.02"/><line class="cls-8" x1="288.44" y1="203.02" x2="302.21" y2="203.02"/><line class="cls-9" x1="329.19" y1="203.02" x2="855.28" y2="203.02"/><line class="cls-8" x1="868.77" y1="203.02" x2="882.53" y2="203.02"/><polyline class="cls-8" points="193.62 160.39 787.71 160.39 882.53 203.02"/><polygon class="cls-8" points="288.44 439.06 193.62 396.44 193.62 160.39 288.44 203.02 288.44 439.06"/><line class="cls-7" x1="339.83" y1="374.17" x2="388.53" y2="374.17"/><polygon class="cls-10" points="271.58 410.99 210.48 383.53 210.48 187.24 271.58 214.71 271.58 410.99"/><line class="cls-11" x1="380.27" y1="279.18" x2="309.83" y2="388.21"/><path class="cls-12" d="M599.47,360.65c19.37-1.49,60.37,4.7,60.37,4.7,6.72-1,2-8.92,2-8.92-8.39-5.08-28.47-32.57-28.47-32.57C608.51,279.41,574,307.27,574,307.27s-12.27,6.71-21.9-1.65c0,0-41.6-28.5-71.07,23.18-2.93,5.14-5,10.87-7.19,16.56-2.25,6-6.23,11.83-10.94,18,0,0-11.77,12.88-28,15.78,0,0-20.31,4.71-18.49-6.78,0,0-.23-10,17.57-16.56,0,0-13.47-7.26-24.66,8.88a16.79,16.79,0,0,0-2.42,16.83,15.45,15.45,0,0,0,8.58,8.78c6.56,2.56,19.86,4.92,40.92-3.77,0,0,25.58-9.7,38.6-6.33"/><path class="cls-12" d="M602.34,324.47s-16.48-5.69-20.69,5.7c0,0-1.72,13.37,14.49,20.43"/><path class="cls-13" d="M598.81,342.34c-7.91-1.5-9.36-9.11-9.36-9.11s2-7,12.55-1.67"/><path class="cls-14" d="M634.05,352.74s-10.95,3.7-25.14,20.55"/><path class="cls-14" d="M640.94,354.77a36.31,36.31,0,0,0-7.06,17.88"/><path class="cls-14" d="M645.3,340.11s12-14.21,18.55-16.25"/><path class="cls-14" d="M651.17,345.29s8.25-7.79,15-7.79"/><ellipse class="cls-15" cx="621.7" cy="333.34" rx="5.85" ry="6" transform="translate(-23.54 48.23) rotate(-4.36)"/><rect class="cls-7" x="288.44" y="417.86" width="594.09" height="21.2"/><line class="cls-7" x1="270.59" y1="289.52" x2="210.48" y2="383.53"/><path class="cls-16" d="M403.27,331.18c-.21-.44-19.54-38.49-60.58-46.08l1.13-13.46-14.25,8L321.81,284l-.3,0a4.15,4.15,0,0,0-3.14,1.92l-3.05,1.71,2.63,2.12a4.1,4.1,0,0,0,3.19,2.58l6.9,5.57,12.71,10.27L342,293.53c36,6.92,52.88,39.78,53.69,41.41a4.24,4.24,0,0,0,7.59-3.76Z"/><path class="cls-17" d="M403.27,331.18c-.21-.44-19.54-38.49-60.58-46.08l1.13-13.46-14.25,8-14.25,8L328,297.93l12.71,10.27L342,293.53c36,6.92,52.88,39.78,53.69,41.41a4.24,4.24,0,0,0,7.59-3.76Z"/><path class="cls-18" d="M497.69,367.07s.29,14-7.48,24.76c0,0-1.32,9.13,19.63,10.81,2.89.23,4.45.7,7.33.36,3.52-.43,8.38,1.91,11.37,3.89,0,0,11.65-8.25-2.43-12.58,0,0-12-4.67-20.93-5.95a80.5,80.5,0,0,0,8.45-7.24c5.86-5.74,12.52-14.06,11.93-21.82"/><path class="cls-19" d="M555.67,377.72c3.11-.24-24.06-3-35.15-1.22"/><line class="cls-7" x1="671.08" y1="374.17" x2="787.98" y2="374.17"/><line class="cls-8" x1="677.61" y1="416.79" x2="627.87" y2="394.55"/><polyline class="cls-20" points="585.11 401.37 565.41 376.97 588.84 390.2 590.65 358.89 603.87 389.31 620 374.18 614.68 399.01"/><line class="cls-12" x1="589.47" y1="272.82" x2="593.16" y2="284.81"/><line class="cls-12" x1="606.53" y1="269.59" x2="605.61" y2="284.34"/><line class="cls-12" x1="624.05" y1="276.97" x2="617.13" y2="287.11"/><path class="cls-19" d="M562.35,355.11s3.1,10.64,12,16.85"/><path class="cls-15" d="M657.64,355.39s-4.13,1.12-4.13,9.38l6.33.58,4.92-4.33"/><ellipse class="cls-3" cx="767.19" cy="396.07" rx="63.49" ry="16.82"/><path class="cls-1" d="M804.63,362.4s8-18.17-32.94-25.57l-10.14,6.42-27.68,5.22-6.31,6.11.93,6.48-13.64,14.79,15.95,8.55Z"/><path class="cls-21" d="M805.07,358.88s-30.34-21.11-31.22-4.4l-13.63-2.63s-23.75-.44-22,12.75c0,0-13.19,7.47-11.87,17.15l16.71,15.83,24,5.64s38.86,4.47,58.65-14C825.74,389.22,802.43,380.87,805.07,358.88Z"/><path class="cls-8" d="M713.45,384.93s-1.58-17.59,16.17-21.8c0,0-5.8-10.76,4.25-14.66,0,0,19.56-6,28.35-2.87,0,0,1.33-8.49,9.47-8.77,0,0,25.42,3.66,32.86,15.63,0,0,4.69,7.71-3.22,11.73,0,0,18.72,8.87,20.25,27.21,0,0-12.36,14.57-35.35,13.27,0,0-7.58-1.92-7.22-8.23,0,0-5.51,6.77-11.92,6.78,0,0-20.08,0-28.49-9.8C738.6,393.42,718.62,406.82,713.45,384.93Z"/><path class="cls-22" d="M834.08,389.7a31.55,31.55,0,0,0-18.72-19.92c-4.19-1.72-9.78,1.11-11,5.19-1.37,4.61,1,8.72,5.48,10.55l.51.2.34.21c.45.28.91.54,1.35.83.09.06,1.05.83,1.19.9.35.33.7.66,1,1s.69.78,1,1.18c.12.16.38.52.54.78.34.55.6,1.14.93,1.7a3.15,3.15,0,0,0,.21.34c0,.11.07.26.14.5,1.35,4.15,5.54,7.6,10.35,6.4C831.68,398.52,835.52,394.16,834.08,389.7Z"/><path class="cls-22" d="M734.3,386.82a44.41,44.41,0,0,1-12.83-6.6c-3.76-2.7-9.56-1.27-12,2.31-2.72,3.93-1.3,8.82,2.47,11.53a62.44,62.44,0,0,0,16.88,8.51C739.4,406.06,744.89,390.31,734.3,386.82Z"/><path class="cls-1" d="M777.34,362.81a9.17,9.17,0,0,0-12.27-.69c-.92.71-1.85,1.41-2.81,2.08l-.47.31c-.59.36-1.18.72-1.79,1.07a60.56,60.56,0,0,1-6.72,3.29,8.17,8.17,0,0,0-3.75,11.18,9.13,9.13,0,0,0,11.7,3.64,68.39,68.39,0,0,0,15.45-9.14A8.12,8.12,0,0,0,777.34,362.81Z"/><path class="cls-21" d="M777.5,370.46a7.83,7.83,0,0,0-9.38-.53c-.7.48-1.41.93-2.13,1.37l-.36.21-1.36.7a49.33,49.33,0,0,1-5.12,2.15c-3.17,1.14-4.53,4.91-2.8,7.42a7.61,7.61,0,0,0,9,2.49,52.87,52.87,0,0,0,11.75-6A4.93,4.93,0,0,0,777.5,370.46Z"/><path class="cls-8" d="M777.34,362.81a9.17,9.17,0,0,0-12.27-.69c-.92.71-1.85,1.41-2.81,2.08l-.47.31c-.59.36-1.18.72-1.79,1.07a60.56,60.56,0,0,1-6.72,3.29,8.17,8.17,0,0,0-3.75,11.18,9.13,9.13,0,0,0,11.7,3.64,68.39,68.39,0,0,0,15.45-9.14A8.12,8.12,0,0,0,777.34,362.81Z"/><path class="cls-22" d="M790.5,390.15a50.44,50.44,0,0,1-17.94,1.51c-11.14-1-12.06,15.58-.94,16.6a65.32,65.32,0,0,0,22.59-1.84C804.92,403.59,801.31,387.3,790.5,390.15Z"/><path class="cls-7" d="M729.62,363.13s1.86,4.94,13.14,1.9"/><path class="cls-7" d="M801.33,364.19s-6.13,2.57-14.37-2.8"/><path class="cls-7" d="M776.68,374.55s9.41,2.32,11.35,5.7"/><path class="cls-7" d="M734.3,386.82s-2.56-8.11,6.45-8.83"/><path class="cls-7" d="M762.22,345.6s-1.11,4.53,3.86,7.26"/><polygon class="cls-1" points="587.55 401.32 612.45 399.39 610.03 393.1 599.88 397.94 596.25 389.72 594.56 397.7 587.3 396 587.55 401.32"/></svg>