<?xml version="1.0" encoding="utf-8"?>
<!-- Generator: Adobe Illustrator 21.1.0, SVG Export Plug-In . SVG Version: 6.00 Build 0)  -->
<svg version="1.1" id="圖層_1" xmlns="http://www.w3.org/2000/svg" xmlns:xlink="http://www.w3.org/1999/xlink" x="0px" y="0px"
	 viewBox="0 0 338.3 432.4" style="enable-background:new 0 0 338.3 432.4;" xml:space="preserve">
<style type="text/css">
	.st0{fill:#FDEEA4;}
	.st1{fill:#FFFFFF;}
	.st2{fill:#CDDC4C;}
	.st3{fill:#1A1A1A;}
	.st4{fill:#FCEDE1;}
	.st5{fill:#FBEBDF;}
	.st6{fill:#EED180;}
	.st7{fill:#E0BB52;}
	.st8{fill:#DDCBBA;}
	.st9{fill:#A18F7E;}
	.st10{fill:#EAB381;}
	.st11{fill:#EBB988;}
	.st12{fill:#AA806A;}
	.st13{fill:#F2ABB7;}
	.st14{fill:#BFBFBF;}
	.st15{fill:#FFF1D1;}
	.st16{fill:#9ED8F5;}
</style>
<title>互動設計UI</title>
<path class="st0" d="M121.7,249c0,0-10.3,14-10.8,28.9c0,0-3.5,38.5-9.7,48.2l-1,106.3L264,411.2l-13.6-55.1l-74.1-70.7
	c0,0,4.7-45.7,8.1-50.8l-45.5,45.4C138.8,279.9,121.3,261.5,121.7,249z"/>
<path class="st0" d="M219.9,245.7c0,0-10.2-19.1-23.6,10.6c0,0-7.5,30.5,5.8,34.4l6.3,11.7l14,11l26,6.2L260,328
	C260,328,251.5,265.4,219.9,245.7z"/>
<path class="st0" d="M101.8,257.4l-0.4,64.1c0,0-40,14.8-22.8-15.3C78.6,306.2,79.9,264.7,101.8,257.4z"/>
<path class="st1" d="M246.8,238.4c0,0,69.3,11.1,91.6,109.6c0,0,11.5,81.9-50.2,61.6l-38.7-86l11.7-5.6l0.8-15.7l15.9,4.7l10.9-8.3
	l-46.3-52.9L246.8,238.4z"/>
<path class="st2" d="M245.7,242.8c0,0,39.6,9.3,72.9,86.4c7,16.2,9.6,34.3,6.2,51.7c-3.7,19.2-14.6,37.8-44.3,27.5l-19.3-50.1
	l-3.7-38.4l0.9-15.2l-9.2-18.1l-28.4-46.2l21,9.8L245.7,242.8z"/>
<path class="st3" d="M328.3,418.7c-0.3,0-0.6,0-0.9-0.1c-1.7-0.5-2.6-2.3-2.1-4c8-26.3,9-51.9,2.9-75.8c-4.9-19.2-14.3-37.5-28-54.4
	c-23.4-28.9-51.4-43.8-51.7-44c-1.6-0.8-2.2-2.7-1.3-4.3c0.8-1.6,2.7-2.2,4.3-1.3c1.2,0.6,29.4,15.7,53.7,45.6
	c22.5,27.8,45.2,73.9,26.2,136.1C330.9,417.8,329.7,418.7,328.3,418.7z"/>
<path class="st3" d="M305.1,361c-1,0-2-0.7-2.3-1.8c-5.5-20.3-27.4-63.1-27.7-63.5c-0.6-1.2-0.1-2.6,1-3.2c1.2-0.6,2.6-0.1,3.2,1
	c0.9,1.8,22.3,43.7,28,64.5c0.3,1.3-0.4,2.6-1.7,2.9C305.5,361,305.3,361,305.1,361z"/>
<polyline class="st4" points="121,235.8 121.7,249 129.7,270.1 143,280.9 160.3,259.7 192.9,222.9 "/>
<path class="st5" d="M209.8,306.4l17.1,9.1l21.4,4.2c0,0,13,5.8,9.5,30.2l-13,5.8l-43.3-7.1C201.7,348.6,212.4,337.4,209.8,306.4z"
	/>
<path class="st5" d="M75.2,323.9c0,0,18.4,1.3,21.5,0.1l5,33.7c0,0-36.8,12.9-48.6,0.9"/>
<g>
	<path class="st1" d="M209.8,306.4c0,0,15.1,10.7,26.5,10.3"/>
	<path class="st3" d="M235.8,319.9c-12.2,0-27.1-10.4-27.8-10.9c-1.4-1-1.8-3-0.8-4.4c1-1.4,3-1.8,4.4-0.8c0.1,0.1,14.4,10,24.6,9.7
		c1.8-0.1,3.2,1.3,3.3,3.1c0.1,1.8-1.3,3.2-3.1,3.3C236.3,319.9,236,319.9,235.8,319.9z"/>
</g>
<path class="st3" d="M244.5,360.3c-19.5,0-42.9-8.4-43.9-8.8c-1.7-0.6-2.5-2.4-1.9-4.1c0.6-1.6,2.4-2.5,4.1-1.9
	c0.2,0.1,23.4,8.4,41.7,8.4c4.1,0.1,7.8-1.6,10.6-4.6c2.9-3.1,4.4-7.4,4.1-11.7c-2.3-32.7-17.9-64.9-46.4-95.7
	c-0.1-0.1-9.5-10.3-22.6-9.4c-1.8,0.1-3.3-1.2-3.4-2.9c-0.1-1.8,1.2-3.3,2.9-3.4c16.3-1.2,27.3,10.9,27.8,11.4
	c29.5,31.9,45.6,65.4,48,99.5c0.4,6.1-1.7,12.1-5.8,16.5c-4,4.3-9.4,6.7-15.2,6.7C244.6,360.3,244.5,360.3,244.5,360.3z"/>
<path class="st3" d="M99.2,422.8c-0.1,0-0.1,0-0.2,0c-1.8-0.1-3.1-1.6-3-3.4c3.7-53-0.8-130.8-0.8-131.6c-0.1-1.8,1.2-3.3,3-3.4
	c1.8-0.1,3.3,1.2,3.4,3c0,0.8,4.5,79,0.8,132.4C102.2,421.5,100.8,422.8,99.2,422.8z"/>
<path class="st3" d="M78.7,366.4c-15.2,0-28.8-5.2-29.6-5.6c-1.6-0.6-2.4-2.5-1.8-4.1c0.6-1.6,2.5-2.4,4.1-1.8
	c0.4,0.1,27.8,10.7,46.2,1.1c1.6-0.8,3.5-0.2,4.3,1.4c0.8,1.6,0.2,3.5-1.4,4.3C93.8,365.2,86.1,366.4,78.7,366.4z"/>
<path class="st3" d="M83.4,328.1c-6.3,0-11.3-2.2-11.6-2.3c-1.6-0.7-2.3-2.6-1.6-4.2c0.7-1.6,2.6-2.3,4.2-1.6l0,0
	c0.1,0,7,3,13.6,1.2c1.7-0.5,3.4,0.5,3.9,2.2s-0.5,3.4-2.2,3.9C87.6,327.9,85.4,328.1,83.4,328.1z"/>
<path class="st3" d="M135.5,255.4c-0.9,0-1.8-0.6-2.2-1.5l-5.4-13.3c-0.5-1.2,0.1-2.6,1.3-3.1c1.2-0.5,2.6,0.1,3.1,1.3l5.4,13.3
	c0.5,1.2-0.1,2.6-1.3,3.1C136.1,255.3,135.8,255.4,135.5,255.4z"/>
<path class="st3" d="M262,339.1c-1.1,0-2.2-0.6-2.8-1.6c-10.3-18.5-26.4-18.2-27-18.2c-1.7,0-3.2-1.3-3.3-3.1
	c-0.1-1.8,1.3-3.2,3-3.3c0.8,0,20.5-0.6,32.8,21.4c0.9,1.5,0.3,3.5-1.2,4.3C263.1,339,262.6,339.1,262,339.1z"/>
<g>
	<circle class="st1" cx="156.4" cy="383.5" r="7.9"/>
	<path class="st3" d="M156.4,393.8c-5.7,0-10.3-4.6-10.3-10.3s4.6-10.3,10.3-10.3c5.7,0,10.3,4.6,10.3,10.3S162,393.8,156.4,393.8z
		 M156.4,378c-3,0-5.5,2.5-5.5,5.5s2.5,5.5,5.5,5.5s5.5-2.5,5.5-5.5S159.4,378,156.4,378z"/>
</g>
<path class="st3" d="M274.7,406.2c-1.5,0-2.8-1-3.1-2.5c-6.8-30.7-14.3-50.3-14.4-50.5c-0.6-1.6,0.2-3.5,1.8-4.1
	c1.6-0.6,3.5,0.2,4.1,1.8c0.1,0.2,7.8,20.3,14.7,51.5c0.4,1.7-0.7,3.4-2.4,3.8C275.1,406.2,274.9,406.2,274.7,406.2z"/>
<path class="st3" d="M76,316.4c-0.2,0-0.4,0-0.5,0c-1.7-0.3-2.9-1.9-2.6-3.7c11-64.3,42.5-75.5,43.9-76c1.7-0.6,3.5,0.3,4,2
	c0.6,1.7-0.3,3.5-2,4c-0.4,0.1-29.4,11-39.7,71C78.9,315.3,77.5,316.4,76,316.4z"/>
<g>
	<path class="st6" d="M197,368.8l-18.8,2.9c-3.2,0.5-6.3-2.6-7-6.8l-5.6-37.2L196,323l5.6,37.2C202.3,364.5,200.2,368.3,197,368.8z"
		/>
	<path class="st3" d="M177.5,373.9c-4.1,0-7.7-3.6-8.5-8.7l-5.6-37.2c-0.2-1.2,0.6-2.3,1.9-2.5l30.4-4.6c0.6-0.1,1.2,0.1,1.6,0.4
		s0.8,0.9,0.9,1.5l5.6,37.2c0.5,3-0.2,6-1.8,8.1c-1.2,1.6-2.9,2.7-4.7,3l-18.8,2.9C178.2,373.9,177.9,373.9,177.5,373.9z
		 M168.1,329.5l5.3,35c0.5,3,2.5,5.3,4.5,5l18.8-2.9c0,0,0,0,0,0c0.9-0.1,1.4-0.7,1.8-1.2c0.9-1.2,1.2-3,1-4.8l-5.3-35L168.1,329.5z
		"/>
</g>
<path class="st3" d="M140.1,284.7c-0.5,0-1-0.1-1.5-0.4c-0.7-0.4-16.1-10-20.4-45.3c-0.2-1.6,0.9-3,2.5-3.2c1.6-0.2,3,0.9,3.2,2.5
	c2,16.8,6.7,27.1,10.3,32.8c2.1,3.4,4.2,5.6,5.5,6.8l44.8-48.5c1.1-1.2,2.9-1.2,4-0.2c1.2,1.1,1.2,2.9,0.2,4l-46.6,50.5
	C141.6,284.4,140.9,284.7,140.1,284.7z"/>
<path class="st3" d="M231.3,235.2c-0.4,0-0.9-0.1-1.3-0.3c-9.8-4.4-24-0.5-24.1-0.5c-1.7,0.5-3.4-0.5-3.9-2.2
	c-0.5-1.7,0.5-3.4,2.2-3.9c0.7-0.2,16.6-4.6,28.5,0.8c1.6,0.7,2.3,2.6,1.6,4.2C233.7,234.5,232.5,235.2,231.3,235.2z"/>
<path class="st3" d="M195,286.9c-1.2,0-2.3-0.9-2.4-2.2c-3.8-40.6,15.7-46.3,16.5-46.5c1.3-0.3,2.6,0.4,2.9,1.7
	c0.3,1.3-0.4,2.6-1.7,2.9c-0.3,0.1-16.4,5.3-13,41.4c0.1,1.3-0.8,2.5-2.2,2.6C195.1,286.9,195.1,286.9,195,286.9z"/>
<path class="st3" d="M177.7,284.6c-1.2,0-2.2-0.9-2.4-2.1c-2.3-19.3,4-35.9,4.3-36.6c0.5-1.2,1.9-1.8,3.1-1.4
	c1.2,0.5,1.8,1.9,1.4,3.1c-0.1,0.2-6.2,16.2-4,34.3c0.2,1.3-0.8,2.5-2.1,2.7C177.9,284.6,177.8,284.6,177.7,284.6z"/>
<path class="st7" d="M245.4,305.7c-0.6,0-1.2-0.2-1.7-0.7c-5.7-5.5-17.9-3.3-22.1-2c-1.3,0.4-2.6-0.3-3-1.6c-0.4-1.3,0.3-2.6,1.6-3
	c0.7-0.2,17.9-5.5,26.8,3.1c0.9,0.9,1,2.4,0.1,3.4C246.7,305.5,246.1,305.7,245.4,305.7z"/>
<path class="st3" d="M110.3,292.3c-1.2,0-2.3-0.9-2.4-2.2c-1.5-15.5,6-32,6.3-32.7c0.5-1.2,2-1.7,3.2-1.2c1.2,0.5,1.7,2,1.2,3.2
	c-0.1,0.2-7.2,16.1-5.9,30.2c0.1,1.3-0.8,2.5-2.2,2.6C110.5,292.3,110.4,292.3,110.3,292.3z"/>
<g>
	<path class="st1" d="M110.5,13.4c0.8-6.5,6.7-11.1,13.2-10.2c4.7,0.5,8.7,3.8,10.1,8.3"/>
	<path class="st3" d="M110.5,16.6c-0.1,0-0.3,0-0.4,0c-1.7-0.2-3-1.8-2.8-3.6c1-8.2,8.6-14,16.8-13c5.9,0.6,11,4.8,12.8,10.5
		c0.5,1.7-0.4,3.5-2.1,4s-3.5-0.4-4-2.1c-1.1-3.3-4-5.7-7.5-6.1c-4.8-0.6-9.1,2.8-9.7,7.5C113.5,15.4,112.1,16.6,110.5,16.6z"/>
</g>
<polyline class="st1" points="187.7,226.7 211.5,201.9 307.5,212.5 313.8,200.4 267.1,178.7 249.5,172.4 252.9,151.6 241.5,137 
	243.3,106.2 228,66.1 172.8,33.5 145.3,37.5 "/>
<path class="st1" d="M148.9,13.8c0,0-89.3-15.4-112.6,81.5c0,0-24,6.6-22.4,30.1c0,0,113.4-24.3,247.5-16.6c0,0-12.4-19.9-33.2-29.9
	C228.2,79,215,16.4,148.9,13.8z"/>
<path class="st8" d="M133.7,15.9c0,0-74.1-17.5-97.4,79.4c0,0-24,6.6-22.4,30.1c0,0,88.4-25.8,222.5-18c0,0-1.5-12.2-22.3-22.2
	C214.1,85.2,199.8,18.5,133.7,15.9z"/>
<path class="st9" d="M93.4,64.1l-48.7,9.6l-8.5,21.6l61.4-9.6C97.7,85.7,89.4,75.8,93.4,64.1z"/>
<path class="st9" d="M138.7,60.4l-2.1,21.9l45-1.3c0,0-6.8-14.8-7.4-19.8"/>
<path class="st10" d="M41.4,119.5c0,0-17.2,20.8-0.7,28.9l7.6-0.4l-0.5-30"/>
<polyline class="st4" points="60.2,147.1 33.8,149.4 23.7,166.2 28,192 40.6,202.5 69.4,199.8 "/>
<path class="st10" d="M49.4,201.1c0,0-45.3,31.8-46.9,41.9l8.7,9.9l15.4-4.3l-3.5,16.8l38.8,25.1c0,0,27.7-56.5,27.8-58.1l-0.1,1.5
	l-20.2-18l-6.9-14.1"/>
<path class="st3" d="M50.4,206.6c-7.4,0-13.8-3.5-14.2-3.7c-0.1-0.1-0.3-0.2-0.4-0.3c-22.1-17.2-12.1-45.5-12-45.7
	c0-0.1,0.1-0.3,0.2-0.4c2.1-4,10.2-16.6,25.3-11.4c1.7,0.6,2.5,2.4,2,4c-0.6,1.7-2.4,2.5-4,2c-5.1-1.7-12.2-1.7-17.5,8.2
	c-0.8,2.4-7.7,24.3,9.8,38.2c1.5,0.8,11.2,5.5,18.3,0.7c1.5-1,3.4-0.6,4.4,0.9c1,1.5,0.6,3.4-0.9,4.4
	C57.9,205.7,54,206.6,50.4,206.6z"/>
<g>
	<path class="st11" d="M50.2,162.6c-2.8-1.1-8.8-2.5-11.6,5.4c0,0-3.7,26.9,17.4,19.2"/>
	<path class="st3" d="M49.1,191c-2.9,0-5.5-0.8-7.5-2.5c-7.4-5.9-5.5-20.2-5.4-20.8c0-0.2,0.1-0.3,0.1-0.5c1.2-3.5,3.2-5.9,5.8-7.1
		c3.3-1.5,6.7-0.7,8.9,0.2c1.2,0.5,1.8,1.9,1.3,3.1c-0.5,1.2-1.9,1.8-3.1,1.3c-1.1-0.5-3.4-1.1-5.2-0.3c-1.4,0.6-2.4,2-3.2,4.1
		c-0.4,3.6-0.6,12.8,3.7,16.2c2.3,1.9,5.9,1.9,10.6,0.2c1.2-0.5,2.6,0.2,3.1,1.4c0.5,1.2-0.2,2.6-1.4,3.1
		C54,190.4,51.4,191,49.1,191z"/>
</g>
<path class="st3" d="M61.9,293.7c-0.3,0-0.6,0-0.9-0.1c-12.3-3.6-27-15.1-39.9-25.7c-1.7-1.4-1.6-2,0.6-11.7
	c0.2-1.1,0.5-2.1,0.7-3.1c-0.8,0.2-1.7,0.5-2.5,0.7c-1.9,0.5-3.9,1.1-5.3,1.5c-3.1,0.8-4.3,1.2-5.6-0.3c-5.5-5.7-8.7-9.9-8.9-10.1
	c-0.9-1.1-0.9-2.7-0.1-3.8c16.4-22.3,33.5-34.3,44.9-40.5c1.5-0.8,3.5-0.3,4.3,1.3c0.8,1.5,0.3,3.5-1.3,4.3
	c-10.5,5.7-26,16.6-41.3,36.7c1.2,1.5,3.2,3.7,5.7,6.4c2.9-0.8,9.1-2.5,13.5-3.8c1.1-0.3,2.3,0,3.1,0.8c0.8,0.8,1.2,1.9,0.9,3
	c-1.3,5.7-2.7,12-3.3,14.8c11.3,9.2,23.8,18.9,34.1,22.7c3.6-5.6,14.3-23.8,23.2-55.9c0.5-1.7,2.2-2.7,3.9-2.2
	c1.7,0.5,2.7,2.2,2.2,3.9C78.7,273,65,291.7,64.5,292.4C63.8,293.3,62.9,293.7,61.9,293.7z M13.4,250.6
	C13.5,250.6,13.5,250.6,13.4,250.6C13.5,250.6,13.5,250.6,13.4,250.6z"/>
<path class="st12" d="M35,241.8c-0.5,0-1-0.2-1.4-0.5c-1-0.8-1.2-2.3-0.4-3.3c6.4-8.3,17-14.7,17.4-14.9c1.1-0.7,2.6-0.3,3.3,0.8
	c0.7,1.1,0.3,2.6-0.8,3.3c-0.1,0.1-10.3,6.2-16.1,13.7C36.5,241.5,35.8,241.8,35,241.8z"/>
<path class="st12" d="M54.5,246.6c-0.4,0-0.9-0.1-1.3-0.4c-1.1-0.7-1.4-2.2-0.7-3.3l8.8-13.7c0.7-1.1,2.2-1.4,3.3-0.7
	c1.1,0.7,1.4,2.2,0.7,3.3l-8.8,13.7C56,246.2,55.2,246.6,54.5,246.6z"/>
<path class="st4" d="M50.7,115.2c0,0-9.1,94.1,43.1,119.4c0,0,60.9,33,102.3-21.2c0,0,15.9-21.8,13.2-72.8
	c-0.6-10.5-11.3-21.9-13.7-34.9"/>
<path class="st3" d="M36.2,97.7c-1,0-2-0.7-2.3-1.7c-0.4-1.3,0.4-2.6,1.6-3c0.7-0.2,69.4-19.8,199.5-11.3c1.3,0.1,2.3,1.2,2.2,2.5
	c-0.1,1.3-1.2,2.3-2.5,2.2C167.2,82,117,85.3,86.8,88.8c-32.7,3.8-49.8,8.7-49.9,8.8C36.7,97.6,36.4,97.7,36.2,97.7z"/>
<path class="st3" d="M44.7,76.1c-1,0-2-0.7-2.3-1.7c-0.4-1.3,0.3-2.6,1.6-3c0.6-0.2,57.8-17.6,183.4-9.9c1.3,0.1,2.3,1.2,2.2,2.5
	c-0.1,1.3-1.2,2.3-2.5,2.2C102.5,58.7,46,75.8,45.4,76C45.2,76,45,76.1,44.7,76.1z"/>
<path class="st3" d="M165.4,41.5c-0.8,0-1.6-0.4-2-1.1c-6.8-10.7-15.2-14.5-15.3-14.5c-1.2-0.5-1.8-1.9-1.2-3.1
	c0.5-1.2,1.9-1.8,3.1-1.2c0.4,0.2,9.8,4.3,17.5,16.4c0.7,1.1,0.4,2.6-0.7,3.3C166.3,41.4,165.8,41.5,165.4,41.5z"/>
<path class="st3" d="M81.4,153.4c-0.2,0-0.4,0-0.6-0.1c-0.4-0.1-9.7-2.2-12.2-11.5c-0.4-1.5,0.5-3.1,2-3.5c1.5-0.4,3.1,0.5,3.5,2
	c1.6,5.9,7.9,7.4,8,7.4c1.5,0.3,2.5,1.9,2.2,3.4C83.9,152.5,82.7,153.4,81.4,153.4z"/>
<ellipse transform="matrix(0.9972 -7.480469e-02 7.480469e-02 0.9972 -13.1669 14.048)" class="st13" cx="180.9" cy="182.8" rx="13.4" ry="11.8"/>
<ellipse transform="matrix(0.9972 -7.480469e-02 7.480469e-02 0.9972 -13.9899 6.7506)" class="st13" cx="83.1" cy="190.1" rx="13.4" ry="11.8"/>
<ellipse transform="matrix(0.9972 -7.480469e-02 7.480469e-02 0.9972 -10.8373 12.9667)" class="st3" cx="167.7" cy="151.2" rx="11.7" ry="14.1"/>
<path class="st3" d="M161.5,147.9c-0.2,0-0.4,0-0.6-0.1c-0.4-0.1-9.7-2.2-12.3-11.5c-0.4-1.5,0.5-3.1,2-3.5c1.5-0.4,3.1,0.5,3.5,2
	c1.6,5.9,7.9,7.4,8,7.4c1.5,0.3,2.5,1.9,2.2,3.4C164,147,162.9,147.9,161.5,147.9z"/>
<ellipse transform="matrix(0.9972 -7.480469e-02 7.480469e-02 0.9972 -11.4724 6.9883)" class="st3" cx="87.6" cy="156.6" rx="11.7" ry="14.1"/>
<path class="st3" d="M123.7,174c-0.1,0-0.3,0-0.4,0c-14.8-2-13.9-14.3-13.9-14.4c0.2-1.7,1.7-3,3.5-2.9c1.7,0.2,3,1.7,2.9,3.4
	c-0.1,1.1,0,6.4,8.4,7.6c1.7,0.2,3,1.8,2.7,3.6C126.6,172.8,125.3,174,123.7,174z"/>
<path class="st3" d="M181.9,126.3c-0.8,0-1.5-0.3-2.1-0.8c-4.7-4.2-14.3-2.7-17.6-1.8c-1.7,0.5-3.4-0.5-3.9-2.2
	c-0.5-1.7,0.5-3.4,2.2-3.9c0.6-0.2,15.2-4.3,23.5,3.1c1.3,1.2,1.4,3.2,0.3,4.5C183.6,125.9,182.7,126.3,181.9,126.3z"/>
<path class="st3" d="M66.2,133.1c-0.7,0-1.4-0.2-2-0.7c-1.3-1.1-1.5-3.1-0.4-4.5c7.1-8.5,22.2-6.7,22.9-6.6c1.7,0.2,3,1.8,2.7,3.6
	c-0.2,1.7-1.8,3-3.6,2.7c-3.4-0.4-13.1-0.5-17.2,4.4C68.1,132.7,67.2,133.1,66.2,133.1z"/>
<path class="st3" d="M241.6,135.5c-0.3,0-0.7-0.1-1-0.2c-1.7-0.5-2.6-2.3-2-4c1.7-5.3,0.9-15.6,0.4-19.1c-0.2-1.7,1-3.3,2.7-3.6
	c1.7-0.2,3.3,1,3.6,2.7c0.1,0.6,1.9,14.2-0.6,21.9C244.1,134.6,242.9,135.5,241.6,135.5z"/>
<path class="st3" d="M50.6,206.6c-7.4,0-13.8-3.5-14.2-3.7c-0.1-0.1-0.3-0.2-0.4-0.3c-22.1-17.2-12.1-45.5-12-45.8
	c0-0.1,0.1-0.3,0.2-0.4c5.6-10.7,15.1-14.9,25.3-11.4c1.7,0.6,2.5,2.4,2,4c-0.6,1.7-2.4,2.5-4,2c-5.1-1.7-12.2-1.7-17.5,8.2
	c-0.8,2.4-7.7,24.3,9.8,38.2c1.5,0.7,11.2,5.5,18.3,0.7c1.5-1,3.4-0.6,4.4,0.9c1,1.5,0.6,3.4-0.9,4.4
	C58,205.7,54.2,206.6,50.6,206.6z"/>
<path class="st3" d="M34.9,149.5c-1.5,0-2.9-1.1-3.1-2.6c-2.6-14.9,1-24.7,1.2-25.1c0.6-1.6,2.4-2.5,4.1-1.9
	c1.6,0.6,2.5,2.4,1.9,4.1c0,0.1-3.1,8.7-0.8,21.8c0.3,1.7-0.9,3.4-2.6,3.7C35.3,149.4,35.1,149.5,34.9,149.5z"/>
<g>
	<circle class="st14" cx="114.1" cy="67.9" r="24.3"/>
	<path class="st3" d="M114.1,95.4c-15.1,0-27.4-12.3-27.4-27.4S99,40.5,114.1,40.5s27.4,12.3,27.4,27.4S129.2,95.4,114.1,95.4z
		 M114.1,46.8c-11.6,0-21.1,9.5-21.1,21.1S102.5,89,114.1,89s21.1-9.5,21.1-21.1S125.7,46.8,114.1,46.8z"/>
</g>
<g>
	<circle class="st1" cx="113.2" cy="68.3" r="11.2"/>
	<path class="st3" d="M113.2,81.9c-7.5,0-13.6-6.1-13.6-13.6c0-7.5,6.1-13.6,13.6-13.6c7.5,0,13.6,6.1,13.6,13.6
		C126.7,75.8,120.6,81.9,113.2,81.9z M113.2,59.5c-4.8,0-8.8,3.9-8.8,8.8s3.9,8.8,8.8,8.8s8.8-3.9,8.8-8.8S118,59.5,113.2,59.5z"/>
</g>
<path class="st3" d="M109.5,37.8c-1.2,0-2.3-0.9-2.4-2.2c-0.5-5.4,1.7-12.8,1.8-13.1c0.4-1.3,1.7-2,3-1.6c1.3,0.4,2,1.7,1.6,3
	c0,0.1-2.1,6.8-1.6,11.3c0.1,1.3-0.8,2.5-2.1,2.6C109.6,37.8,109.5,37.8,109.5,37.8z"/>
<path class="st3" d="M209.7,134.7c-1.2,0-2.4-0.7-2.9-1.9c-3.8-8.6-9.8-16.2-17.3-22c-1.4-1.1-1.6-3.1-0.6-4.5
	c1.1-1.4,3.1-1.6,4.5-0.6c8.3,6.4,14.9,14.9,19.2,24.4c0.7,1.6,0,3.5-1.6,4.2C210.6,134.6,210.2,134.7,209.7,134.7z"/>
<path class="st10" d="M197,109.7c0,0,20.2,5.1,26,22.9l10.6-1.3c0,0-0.2-17-4.3-22.9L197,109.7z"/>
<path class="st3" d="M13.9,128.6c-0.7,0-1.4-0.2-1.9-0.7c-0.8-0.6-1.3-1.7-1.2-2.7c1.4-19.9,16.5-29.4,22.8-32.2
	c10.2-40.7,33.1-60.9,50.6-70.8c18.8-10.5,35.1-11.6,36.6-11.7c28.9-2.7,69,0.8,96.6,32.8c14.1,16.4,19.1,33.4,20.4,38.6
	c20.8,10.8,26.4,25.2,26.7,25.8c0.4,1,0.2,2.1-0.4,3c-0.6,0.9-1.6,1.4-2.7,1.3C87,105.2,15.6,128.2,14.9,128.4
	C14.5,128.5,14.2,128.6,13.9,128.6z M37.3,98.3c-1,0.4-16.1,6.1-19.6,22.7c18.4-5,89.8-20.9,238.1-15.5c-3.2-4.8-9.9-12.4-22.3-18.5
	c-0.9-0.4-1.5-1.3-1.7-2.2c0-0.2-4-19.5-19.5-37.4c-20.8-23.9-51.4-34.1-91.1-30.4c-0.1,0-0.1,0-0.2,0c-0.2,0-16.1,0.9-34.1,11.1
	C63,41.5,46.9,64.4,39.3,96C39.1,97.1,38.3,97.9,37.3,98.3z"/>
<path class="st1" d="M235,48.9c3.6-5.4,2.1-12.6-3.3-16.1c-5.4-3.6-12.6-2.1-16.1,3.3c-0.8,1.2-1.3,2.4-1.6,3.8
	c-6.9-0.6-13.8,0.8-20,3.9c-3.8-5.2-11-6.4-16.3-2.6c-5.2,3.8-6.4,11-2.6,16.3c0.8,1.1,1.7,2,2.8,2.8c-1.5,3.6-1.9,7.6-1.2,11.5
	c2.7,13.8,19.1,22.2,36.7,18.8s29.6-17.4,26.9-31.2C239.6,55.3,237.7,51.7,235,48.9z"/>
<path class="st2" d="M226.7,50.5c1.4-2.6,1.8-5.6,1.2-8.5c-1.2-6.3-5.3-9-10.8-7.9c-4,0.8-1.8,1-2.6,5.2c-2.9-0.3-12.2,1.3-15.2,1.9
	c-2.9,0.6-5.7,1.6-8.3,3c-2.3-3.6-6.3-5.7-10.2-4.9c-5.4,1.1-8.9,7.1-7.6,13.4c0.5,2.9,2.1,5.5,4.4,7.4c-1.2,3.7-1.4,7.6-0.7,11.4
	c2.7,13.8,17.1,22.6,32.3,19.6s25.2-16.5,22.5-30.3C230.8,57,229.2,53.5,226.7,50.5z"/>
<path class="st3" d="M205.6,93.4c-15.5,0-28.7-8.6-31.2-21.5c-0.7-3.7-0.4-7.5,0.7-11.1c-0.7-0.7-1.4-1.4-1.9-2.2
	c-4.5-6.3-3.1-15.1,3.2-19.6c5.7-4.1,13.5-3.3,18.3,1.6c5.5-2.5,11.6-3.7,17.6-3.4c0.4-0.9,0.8-1.8,1.4-2.6c4.3-6.4,13-8.2,19.5-3.9
	c5.9,3.9,7.9,11.6,4.9,17.8c2.4,2.9,4,6.4,4.8,10.1c1.4,7.4-0.8,15.1-6.4,21.5c-5.4,6.3-13.4,10.7-22.4,12.5
	C211.1,93.2,208.3,93.4,205.6,93.4z M184.5,41.2c-1.9,0-3.8,0.6-5.4,1.7c-4.1,3-5.1,8.8-2.1,12.9c0.6,0.9,1.4,1.6,2.2,2.2
	c0.9,0.6,1.3,1.8,0.9,2.8c-1.3,3.2-1.6,6.7-1,10.1c2.4,12.4,17.6,20,33.9,16.9c8-1.6,15-5.4,19.7-10.9c4.6-5.3,6.5-11.5,5.3-17.5
	c-0.7-3.4-2.3-6.5-4.7-9c-0.8-0.8-0.9-2-0.3-3c2.8-4.3,1.7-10-2.6-12.8c-4.3-2.8-10-1.7-12.8,2.6c-0.6,0.9-1,1.9-1.3,3
	c-0.3,1.2-1.4,1.9-2.5,1.8c-6.5-0.5-12.9,0.7-18.7,3.6c-1,0.5-2.3,0.2-3-0.7C190.2,42.5,187.4,41.2,184.5,41.2z"/>
<path class="st3" d="M207.6,74.8c-8.1,0-15.3-3.8-15.7-4c-1.2-0.6-1.6-2.1-1-3.2c0.6-1.2,2.1-1.6,3.2-1c0.1,0.1,10.3,5.4,18.6,2.7
	c3.6-1.2,6.3-3.6,8.3-7.5c0.6-1.2,2-1.7,3.2-1.1c1.2,0.6,1.7,2,1.1,3.2c-2.5,5.1-6.2,8.4-11.1,10C212,74.5,209.7,74.8,207.6,74.8z"
	/>
<circle class="st3" cx="185.3" cy="51" r="5.5"/>
<circle class="st3" cx="224.7" cy="43.3" r="5.5"/>
<circle class="st3" cx="190.8" cy="68.6" r="5"/>
<circle class="st3" cx="226" cy="61.7" r="5"/>
<path class="st4" d="M223.8,138.8c0,0,25-3.6,20.6,41.9l-14.9,10.1l-11.8-4.2L223.8,138.8z"/>
<path class="st10" d="M250.3,178.4c0,0,41,17.5,57.2,34.4l-17.9,0.8l8.9,14.9l-34.1,36.3l-44.9-49.3l-5.6-13.2l5.9-12.8l17.2-2.1"/>
<path class="st3" d="M227.5,193.2c-4,0-8.1-1.1-11.9-4.2c-1.4-1.1-1.6-3.1-0.5-4.5c1.1-1.4,3.1-1.6,4.5-0.5
	c3.6,2.9,8.1,3.6,13.3,1.9c3.7-1.2,6.5-3.1,7.3-3.7c15.2-16.2,5.1-37.1,4.1-39.2c-3.1-4.1-6.6-6.5-10.3-7c-5.3-0.7-9.6,2.4-9.7,2.4
	c-1.4,1.1-3.4,0.8-4.5-0.6c-1.1-1.4-0.8-3.4,0.6-4.5c0.3-0.2,6.4-4.8,14.4-3.7c5.5,0.8,10.5,4.1,14.7,9.7c0.1,0.1,0.2,0.2,0.2,0.4
	c0.1,0.3,14.2,26.7-5.1,47c-0.1,0.1-0.2,0.2-0.3,0.3C240.8,189.9,234.4,193.2,227.5,193.2z"/>
<g>
	<path class="st11" d="M223.1,150.5c0,0,8.5-7.2,13.7,2.7c0,0,7.7,26.1-14.4,21.6"/>
	<path class="st3" d="M227.2,177.6c-1.6,0-3.3-0.2-5.2-0.6c-1.3-0.3-2.1-1.5-1.9-2.8c0.3-1.3,1.5-2.1,2.8-1.9
		c4.9,1,8.4,0.4,10.4-1.8c3.7-4,2.2-13.1,1.2-16.6c-1.2-2.1-2.6-3.3-4.1-3.6c-2.9-0.6-5.8,1.9-5.9,1.9c-1,0.8-2.5,0.7-3.4-0.3
		c-0.8-1-0.7-2.5,0.3-3.3c0.2-0.2,4.7-3.9,9.8-2.9c3.1,0.6,5.7,2.7,7.6,6.3c0.1,0.1,0.1,0.3,0.2,0.4c0.2,0.6,4.2,14.4-2.2,21.4
		C234.5,176.3,231.3,177.6,227.2,177.6z"/>
</g>
<path class="st3" d="M264.4,268.1c-0.6,0-1.2-0.2-1.7-0.5c-1-0.7-25.4-16.5-53.9-63.8c-0.9-1.5-0.4-3.5,1.1-4.4
	c1.5-0.9,3.5-0.4,4.4,1.1c23.5,39,44.4,56.2,50.3,60.6c10.1-6.8,20.8-20.3,30.3-32.8c-1.5-2.6-4.8-8-7.8-12.9
	c-0.6-1-0.6-2.2-0.1-3.2c0.5-1,1.6-1.6,2.7-1.7c6.2-0.2,13.1-0.5,16-0.7c1.9-3.3,3.3-6,4.2-7.9c-33.2-18.9-58.4-24.4-58.6-24.5
	c-1.7-0.4-2.8-2.1-2.4-3.8c0.4-1.7,2-2.8,3.8-2.4c1.1,0.2,27.7,6,63,26.7c1.4,0.8,2,2.6,1.3,4c-0.1,0.2-2.3,5.2-6.5,12.5
	c-0.9,1.6-0.9,1.6-11.6,2.1c-1.2,0-2.3,0.1-3.4,0.1c0.5,0.9,1.1,1.8,1.7,2.7c1.3,2.2,2.4,3.9,3.1,5.2c1.5,2.6,2.4,4.2,1,6
	c-10.6,14.2-23,29.9-35,37.1C265.6,267.9,265,268.1,264.4,268.1z M295.9,226.7C295.9,226.7,295.9,226.7,295.9,226.7
	C295.9,226.7,295.9,226.7,295.9,226.7z M304.8,211.2C304.7,211.2,304.7,211.2,304.8,211.2C304.7,211.2,304.7,211.2,304.8,211.2z"/>
<path class="st1" d="M270.9,204.9c-0.4,0-0.9-0.1-1.3-0.4c-8.5-5.4-21.3-8-21.5-8c-1.3-0.3-2.1-1.5-1.9-2.8c0.3-1.3,1.5-2.1,2.8-1.9
	c0.6,0.1,13.8,2.8,23.1,8.7c1.1,0.7,1.4,2.2,0.7,3.3C272.5,204.5,271.7,204.9,270.9,204.9z"/>
<path class="st12" d="M251.5,215.6c-0.5,0-1-0.2-1.4-0.5l-13.6-10.3c-1-0.8-1.3-2.3-0.5-3.3c0.8-1,2.3-1.3,3.3-0.5l13.6,10.3
	c1,0.8,1.3,2.3,0.5,3.3C252.9,215.3,252.2,215.6,251.5,215.6z"/>
<path class="st3" d="M133.5,244.6c-22.4,0-38.9-6.3-39.5-6.5c-24.2-9.9-40.1-33.1-45.9-67c-4.4-25.2-1.8-47.2-1.6-48.1
	c0.2-1.7,1.8-3,3.5-2.8c1.7,0.2,3,1.8,2.8,3.5c-0.1,0.9-9.9,86.4,43.6,108.4c0.1,0,16.1,6.1,37.2,6.1c0.2,0,0.3,0,0.5,0
	c28.4-0.1,52.1-10.6,70.4-31.2c0-0.1,0.1-0.1,0.1-0.2c0,0,5.4-5.6,9.6-18.5c3.8-12,7.4-32.9,2.3-64.7c-0.3-1.7,0.9-3.4,2.6-3.6
	c1.7-0.3,3.4,0.9,3.6,2.6c10,62.9-11.8,86.7-13.6,88.6c-24.4,27.4-54.4,33.2-75.3,33.3C133.6,244.6,133.5,244.6,133.5,244.6z"/>
<path class="st3" d="M122,198.2c-6.2,0-10.5-4-12.2-6.8c-0.8-1.4-0.4-3.1,1-3.9c1.3-0.8,3.1-0.4,3.9,0.9c0.4,0.7,4.4,6.5,12.5,2.8
	c11.7-5.5,19.6-2.6,19.9-2.4c1.5,0.6,2.2,2.2,1.6,3.7c-0.6,1.5-2.2,2.2-3.7,1.6c-0.2-0.1-6.1-2.1-15.5,2.3
	C126.7,197.7,124.2,198.2,122,198.2z"/>
<path class="st15" d="M231.3,275.5c3.5-3.7,3.4-9.5-0.3-13c-3.7-3.5-9.5-3.4-13,0.3c-0.1,0.1-0.1,0.1-0.2,0.2l-4.5,4.8
	c5.3,3.5,10.4,6.9,14.1,11.8L231.3,275.5z"/>
<path class="st16" d="M159.9,351.8l67.5-72.2c-3.6-4.9-8.8-8.3-14.1-11.8l-66.9,71.5L159.9,351.8z"/>
<g>
	<polyline class="st1" points="146.5,339.5 141.4,351.6 136.3,363.7 148,357.8 159.7,351.8 	"/>
	<path class="st3" d="M136.3,366.3c-0.6,0-1.3-0.2-1.8-0.7c-0.8-0.7-1-1.9-0.6-2.9l10.2-24.2c0.6-1.3,2.1-1.9,3.4-1.4
		c1.3,0.6,1.9,2.1,1.4,3.4l-7.5,17.7l17.1-8.7c1.3-0.6,2.8-0.1,3.5,1.1c0.6,1.3,0.1,2.8-1.1,3.5L137.5,366
		C137.1,366.2,136.7,366.3,136.3,366.3z"/>
</g>
<path class="st3" d="M159.9,354.4c-0.6,0-1.3-0.2-1.8-0.7l-13.4-12.5c-0.5-0.5-0.8-1.1-0.8-1.8c0-0.7,0.2-1.4,0.7-1.9l71.3-76.3
	c4.4-4.7,11.8-5,16.6-0.6c0,0,0.1,0.1,0.1,0.1c2.3,2.1,3.6,5,3.7,8.2c0.1,3.1-1,6.1-3.1,8.4c0,0,0,0,0,0l-71.4,76.3
	C161.3,354.1,160.6,354.4,159.9,354.4z M150.2,339.2l9.6,9l69.6-74.4c0,0,0,0,0,0c2.5-2.7,2.3-6.8-0.3-9.3c-2.7-2.5-6.9-2.3-9.3,0.3
	L150.2,339.2z"/>
<path class="st3" d="M225.4,281.9c-0.5,0-1-0.2-1.4-0.6l-11.8-11c-0.8-0.8-0.9-2.1-0.1-2.9c0.8-0.8,2.1-0.9,2.9-0.1l11.8,11
	c0.8,0.8,0.9,2.1,0.1,2.9C226.6,281.7,226,281.9,225.4,281.9z"/>
<g>
	<path class="st5" d="M159.3,306.8c0,0-10.6-0.1-14.5,5.2c0,0-7.9,12.6,8.2,13.6"/>
	<path class="st3" d="M152.9,328.6c-6.1-0.4-10.1-2.4-11.9-6c-2.7-5.3,1-11.5,1.4-12.2l0.1-0.2c4.7-6.4,15.7-6.4,16.9-6.4l-0.1,5.9
		c-2.5-0.1-9.5,0.6-12,3.9c-0.6,1.1-2.1,4.3-1.1,6.3c0.8,1.5,3.3,2.5,7.1,2.8L152.9,328.6z"/>
</g>
<path class="st1" d="M214.8,294.5c0,0-24.4-20.5-49.5,6.1c0,0-16.1,17.6-10.8,28.3c0,0,4.7,7.9,12.9,4.7c0,0,2.5,4.3,5.4,10
	c0,0,3.6,5,9.7,4c0,0,7.2,6.8,15.4,3.6c0,0,13.8,8.7,28.4-16.8c2.1-3.5,3.1-7.5,3-11.6C228.9,316,226.2,305.1,214.8,294.5z"/>
<path class="st4" d="M206.9,302.2c0,0-21.3-17.7-43.1,5.3c0,0-14.1,15.2-9.4,24.6c0,0,4.1,6.8,11.2,4c0,0,2.2,3.7,4.7,8.7
	c3,1.4,6.3,1.9,9.6,1.4c0,0,9,6.4,16.2,3.6c0,0,10.5,12.8,23.2-9.3c1.7-3,0.4-10.3,0.2-13.8C219.2,320.8,216.9,311.4,206.9,302.2z"
	/>
<path class="st3" d="M204.9,354.4c-3.7,0-6.6-1.1-8.3-2c-7.3,2-13.3-2-15.8-4.1c-6,0.6-9.8-2.1-10.5-2.7c-3-2.2-4.5-5.6-5.3-8.1
	c-6.6,0.7-11.4-3.9-13.2-6.9c0-0.1-0.1-0.1-0.1-0.2c-2.7-5.5-1.6-12.6,3.5-21.2c3.5-6,7.6-10.5,7.8-10.7c14-14.8,27.9-15.8,37.1-14
	c9.9,1.9,16.5,7.4,16.8,7.6c0,0,0.1,0.1,0.1,0.1c12,11.1,15.1,22.7,15.5,30.4c0.1,4.8-1,9.4-3.4,13.4c-5.9,10.4-12.8,16.5-20.3,18.1
	C207.3,354.3,206.1,354.4,204.9,354.4z M196.9,345.8c0.7,0,1.3,0.2,1.9,0.6c0.1,0.1,3.6,2.5,8.7,1.4c5.6-1.2,11.1-6.4,16-15.1
	c1.8-3,2.7-6.4,2.6-9.9c-0.4-6.5-3-16.3-13.4-25.9c-1.5-1.2-22.8-17.7-45.1,5.9c-3.7,4.1-13.7,17.4-10.3,24.6c0.5,0.8,3.7,5.3,9,3.2
	c0.9-0.4,2-0.3,2.8,0.3c0.9,0.5,1.4,1.4,1.5,2.4c0.1,1.4,1,5.4,3.4,7.2c0.1,0,0.1,0.1,0.2,0.1c0.1,0,2.6,2,7,1.2
	c1.1-0.2,2.1,0.2,2.9,0.9c0.2,0.2,5.6,5.6,11.7,3.2C196.1,345.9,196.5,345.8,196.9,345.8z"/>
<path class="st3" d="M169.6,328.1c-0.5,0-1.1-0.2-1.5-0.6c-1-0.9-1.1-2.4-0.3-3.4c0.9-1,8.8-10.2,14.6-12.5c1.2-0.5,2.6,0.1,3.1,1.3
	c0.5,1.2-0.1,2.6-1.3,3.1c-4,1.6-10.5,8.6-12.7,11.2C170.9,327.8,170.2,328.1,169.6,328.1z"/>
<path class="st3" d="M184.6,338.3c-0.5,0-1-0.2-1.4-0.5c-1.1-0.8-1.3-2.3-0.5-3.3l6.6-9c0.8-1.1,2.3-1.3,3.3-0.5
	c1.1,0.8,1.3,2.3,0.5,3.3l-6.6,9C186,337.9,185.3,338.3,184.6,338.3z"/>
<path class="st3" d="M198.4,341.9c-0.5,0-1-0.2-1.5-0.5c-1-0.8-1.2-2.3-0.4-3.3l5.3-6.9c0.8-1,2.3-1.2,3.3-0.4
	c1,0.8,1.2,2.3,0.4,3.3l-5.3,6.9C199.8,341.6,199.1,341.9,198.4,341.9z"/>
</svg>
