<?xml version="1.0" encoding="utf-8"?>
<!-- Generator: Adobe Illustrator 21.1.0, SVG Export Plug-In . SVG Version: 6.00 Build 0)  -->
<svg version="1.1" id="圖層_1" xmlns="http://www.w3.org/2000/svg" xmlns:xlink="http://www.w3.org/1999/xlink" x="0px" y="0px"
	 viewBox="0 0 170.7 184.2" style="enable-background:new 0 0 170.7 184.2;" xml:space="preserve">
<style type="text/css">
	.st0{fill:#FFFFFF;}
	.st1{fill:#1A1A1A;}
	.st2{fill:#F1975F;}
	.st3{fill:#FCEDE1;}
</style>
<title>互動設計UI</title>
<g>
	<polyline class="st0" points="77.1,43.8 140.3,2.1 142.8,20.5 	"/>
	<path class="st1" d="M77.1,46.1c-0.8,0-1.5-0.4-2-1.1c-0.7-1.1-0.4-2.5,0.7-3.2L139,0.2c0.7-0.4,1.5-0.5,2.3-0.2
		c0.7,0.3,1.2,1,1.4,1.8l2.5,18.3c0.2,1.3-0.7,2.5-2,2.6c-1.3,0.2-2.5-0.7-2.6-2l-2-14.7L78.4,45.7C78,46,77.5,46.1,77.1,46.1z"/>
</g>
<g>
	<polyline class="st0" points="72.1,44.2 21.5,8.5 11.7,20.7 59.5,43.3 	"/>
	<path class="st1" d="M72.1,46.6c-0.5,0-0.9-0.1-1.3-0.4L21.9,11.7l-6.5,8.1l45.1,21.4c1.2,0.6,1.7,2,1.1,3.1s-2,1.7-3.1,1.1
		L10.7,22.8c-0.6-0.3-1.1-0.9-1.3-1.6c-0.2-0.7,0-1.4,0.5-2L19.6,7c0.8-1,2.2-1.2,3.2-0.4l50.7,35.7c1.1,0.7,1.3,2.2,0.6,3.3
		C73.6,46.2,72.9,46.6,72.1,46.6z"/>
</g>
<polygon class="st0" points="82.5,155.8 74.2,46.6 7.3,18.8 14.8,127.8 "/>
<polygon class="st0" points="74.2,46.6 160.4,13.8 167.9,126.2 82.5,155.8 "/>
<polygon class="st2" points="81.5,155.5 73.2,46.3 12.9,20.6 20.3,129.6 "/>
<polygon class="st2" points="73.2,46.3 145.4,22 159.5,129.3 81.5,155.5 "/>
<path class="st1" d="M81.3,158.5c-0.4,0-0.8-0.1-1.2-0.2l-67.8-28c-1.1-0.4-1.8-1.4-1.9-2.6L0,18.9c-0.1-1.1,0.4-2.1,1.2-2.8
	c0.9-0.7,2-0.8,3-0.4l69.8,27.6c1.1,0.4,1.9,1.5,2,2.7l8.4,109.2c0.1,1.1-0.4,2.1-1.3,2.8C82.6,158.3,81.9,158.5,81.3,158.5z
	 M16.5,125.2l61.3,25.3L70,48.4l-63.2-25L16.5,125.2z"/>
<path class="st1" d="M81.3,158.5c-0.6,0-1.2-0.2-1.7-0.5c-0.8-0.5-1.3-1.4-1.4-2.4L69.8,46.4c-0.1-1.4,0.7-2.7,2.1-3.2L159,12.4
	c0.9-0.3,1.9-0.2,2.8,0.3s1.3,1.4,1.4,2.4l7.5,112.4c0.1,1.4-0.8,2.7-2.2,3.2l-86.3,27.6C81.9,158.5,81.6,158.5,81.3,158.5z
	 M76.2,48.4l7.9,102.9l80.2-25.6l-7-105.9L76.2,48.4z"/>
<g>
	<path class="st0" d="M59.5,43.3c0,0,12.4,5.9,26.5-2.3l10.9,107.7c0,0-6.6,11.8-26.4,4.7L59.5,43.3z"/>
	<path class="st1" d="M82.3,158.2c-3.5,0-7.7-0.7-12.6-2.5c-0.9-0.3-1.5-1.1-1.6-2.1L57,43.5c-0.1-0.9,0.3-1.8,1-2.3
		c0.7-0.5,1.7-0.6,2.5-0.2c0.5,0.2,11.5,5.2,24.2-2.2c0.7-0.4,1.6-0.5,2.4-0.1c0.8,0.4,1.3,1.1,1.4,2l10.9,107.7
		c0.1,0.5-0.1,1-0.3,1.5C98.8,150.3,94.3,158.2,82.3,158.2z M72.9,151.5c14,4.5,20-1.5,21.5-3.5L83.9,44.9c-9,4-17,3.1-21.5,2
		L72.9,151.5z"/>
</g>
<g>
	<polygon class="st0" points="21.7,45.9 23,59.1 46.5,69.5 45,56.7 	"/>
	<path class="st1" d="M46.5,71.8c-0.3,0-0.6-0.1-0.9-0.2L22,61.2c-0.8-0.3-1.3-1.1-1.4-1.9l-1.3-13.2c-0.1-0.8,0.3-1.7,1-2.1
		c0.7-0.5,1.6-0.6,2.3-0.2L46,54.5c0.7,0.3,1.2,1,1.3,1.9l1.5,12.8c0.1,0.8-0.3,1.7-0.9,2.2C47.5,71.7,47,71.8,46.5,71.8z
		 M25.2,57.5l18.5,8.2l-0.9-7.4l-18.4-8.5L25.2,57.5z"/>
</g>
<path class="st0" d="M24.8,126.6c0,0,5.2-12,13.7-18.4c7.2-5.4,17.2-6.6,22.9,5c0,0,13.6,2.7,12,16.4c0,0,6.5,3.5,5.1,11
	c0,0.3,6.2,5.9-1.1,23.1c0,0-18.5,37.7-46.8,2.2C30.5,166,16.2,146.9,24.8,126.6z"/>
<path class="st3" d="M24.3,126.6c0,0,4.2-12,11.2-18.4c5.9-5.4,14.1-6.6,18.7,5c0,0,11.1,2.7,9.8,16.4c3.4,2.6,5,6.8,4.2,11
	c0,0.3,5.1,5.9-0.9,23.1c0,0-15.2,37.7-38.3,2.2C29,166,17.3,146.9,24.3,126.6z"/>
<path class="st1" d="M42.1,132.2c-0.3,0-0.6-0.1-0.9-0.2c-1.2-0.5-1.7-1.9-1.2-3c0.2-0.4,4.7-10.7,13.5-13.5
	c1.2-0.4,2.5,0.3,2.9,1.5c0.4,1.2-0.3,2.5-1.5,2.9c-6.8,2.2-10.6,10.8-10.6,10.9C43.8,131.6,43,132.2,42.1,132.2z"/>
<path class="st1" d="M51.3,141.7c-0.4,0-0.8-0.1-1.2-0.3c-1.1-0.7-1.5-2.1-0.8-3.2c0.2-0.4,5.4-8.9,13.7-11.6
	c1.2-0.4,2.5,0.3,2.9,1.5c0.4,1.2-0.3,2.5-1.5,2.9c-6.7,2.2-11.1,9.6-11.2,9.6C52.8,141.3,52,141.7,51.3,141.7z"/>
<path class="st1" d="M60.1,153.8c-0.4,0-0.9-0.1-1.2-0.4c-1.1-0.7-1.4-2.1-0.7-3.2c0.1-0.2,3.1-4.7,10.4-9.2
	c1.1-0.7,2.5-0.3,3.2,0.8c0.7,1.1,0.3,2.5-0.8,3.2c-6.3,3.9-8.9,7.7-8.9,7.7C61.6,153.4,60.9,153.8,60.1,153.8z"/>
<path class="st1" d="M54.4,184.2c-8.8,0-17.6-5.5-26.2-16.4l0,0c-0.9-1.2-15.2-21-6.2-42.4c0,0,0,0,0,0c0.2-0.5,5.6-12.8,14.6-19.6
	c5.1-3.9,11-5.4,16-4.2c3.1,0.8,7.5,2.9,10.8,9c5.5,1.6,13.4,6.8,13.1,17.5c2.6,2.1,5.7,6.2,5.1,11.8c3.5,5.7,3,14.5-1.5,25
	c0,0,0,0.1-0.1,0.1c-0.3,0.7-8.7,17.4-23.5,19C55.9,184.2,55.1,184.2,54.4,184.2z M32.9,164C32.9,164,32.9,164,32.9,164
	c8,10.1,15.8,14.8,23,14c11-1.2,18.1-14.5,18.6-15.6c3.8-8.8,4.3-16,1.6-19.7c-0.2-0.3-0.8-1-0.8-2.1c0-0.2,0-0.4,0.1-0.6
	c1-5.2-3.5-7.7-3.5-7.7c-1.1-0.6-1.8-1.8-1.6-3.1c1.2-10.5-8.4-12.8-9.5-13c-0.9-0.2-1.7-0.8-2.2-1.7c-1.9-3.9-4.4-6.3-7.4-7
	c-3.2-0.8-7.2,0.3-10.9,3.1c-7.6,5.8-12.5,16.8-12.7,17.2C20,145.9,32.4,163.3,32.9,164z"/>
</svg>
