<svg id="圖層_1" data-name="圖層 1" xmlns="http://www.w3.org/2000/svg" viewBox="0 0 170.7 184.2"><title>book</title><polyline points="77.1 43.8 140.3 2.1 142.8 20.5" style="fill:#fff"/><path d="M77.1,46.1a2.43,2.43,0,0,1-2-1.1,2.29,2.29,0,0,1,.7-3.2L139,.2a2.65,2.65,0,0,1,2.3-.2,2.6,2.6,0,0,1,1.4,1.8l2.5,18.3a2.32,2.32,0,0,1-4.6.6L138.6,6,78.4,45.7A2.2,2.2,0,0,1,77.1,46.1Z" style="fill:#1a1a1a"/><polyline points="72.1 44.2 21.5 8.5 11.7 20.7 59.5 43.3" style="fill:#fff"/><path d="M72.1,46.6a2,2,0,0,1-1.3-.4L21.9,11.7l-6.5,8.1L60.5,41.2a2.28,2.28,0,0,1,1.1,3.1,2.37,2.37,0,0,1-3.1,1.1L10.7,22.8a2.62,2.62,0,0,1-1.3-1.6,2.14,2.14,0,0,1,.5-2L19.6,7a2.25,2.25,0,0,1,3.2-.4L73.5,42.3a2.38,2.38,0,0,1,.6,3.3A2.61,2.61,0,0,1,72.1,46.6Z" style="fill:#1a1a1a"/><polygon points="82.5 155.8 74.2 46.6 7.3 18.8 14.8 127.8 82.5 155.8" style="fill:#fff"/><polygon points="74.2 46.6 160.4 13.8 167.9 126.2 82.5 155.8 74.2 46.6" style="fill:#fff"/><polygon points="81.5 155.5 73.2 46.3 12.9 20.6 20.3 129.6 81.5 155.5" style="fill:#f1975f"/><polygon points="73.2 46.3 145.4 22 159.5 129.3 81.5 155.5 73.2 46.3" style="fill:#f1975f"/><path d="M81.3,158.5a5,5,0,0,1-1.2-.2l-67.8-28a2.94,2.94,0,0,1-1.9-2.6L0,18.9a3.33,3.33,0,0,1,1.2-2.8,3,3,0,0,1,3-.4L74,43.3A3.18,3.18,0,0,1,76,46l8.4,109.2a3.15,3.15,0,0,1-1.3,2.8A3.74,3.74,0,0,1,81.3,158.5ZM16.5,125.2l61.3,25.3L70,48.4,6.8,23.4Z" style="fill:#1a1a1a"/><path d="M81.3,158.5a3.37,3.37,0,0,1-1.7-.5,3.16,3.16,0,0,1-1.4-2.4L69.8,46.4a3.12,3.12,0,0,1,2.1-3.2L159,12.4a3.47,3.47,0,0,1,2.8.3,2.91,2.91,0,0,1,1.4,2.4l7.5,112.4a3.21,3.21,0,0,1-2.2,3.2L82.2,158.3A1.49,1.49,0,0,1,81.3,158.5ZM76.2,48.4l7.9,102.9,80.2-25.6-7-105.9Z" style="fill:#1a1a1a"/><path d="M59.5,43.3S71.9,49.2,86,41L96.9,148.7s-6.6,11.8-26.4,4.7Z" style="fill:#fff"/><path d="M82.3,158.2a36.75,36.75,0,0,1-12.6-2.5,2.39,2.39,0,0,1-1.6-2.1L57,43.5a2.51,2.51,0,0,1,1-2.3,2.49,2.49,0,0,1,2.5-.2c.5.2,11.5,5.2,24.2-2.2a2.54,2.54,0,0,1,2.4-.1,2.47,2.47,0,0,1,1.4,2L99.4,148.4a2.7,2.7,0,0,1-.3,1.5C98.8,150.3,94.3,158.2,82.3,158.2Zm-9.4-6.7c14,4.5,20-1.5,21.5-3.5L83.9,44.9a33.28,33.28,0,0,1-21.5,2Z" style="fill:#1a1a1a"/><polygon points="21.7 45.9 23 59.1 46.5 69.5 45 56.7 21.7 45.9" style="fill:#fff"/><path d="M46.5,71.8a2.92,2.92,0,0,1-.9-.2L22,61.2a2.32,2.32,0,0,1-1.4-1.9L19.3,46.1a2.18,2.18,0,0,1,1-2.1,2.15,2.15,0,0,1,2.3-.2L46,54.5a2.27,2.27,0,0,1,1.3,1.9l1.5,12.8a2.62,2.62,0,0,1-.9,2.2A2.3,2.3,0,0,1,46.5,71.8ZM25.2,57.5l18.5,8.2-.9-7.4L24.4,49.8Z" style="fill:#1a1a1a"/><path d="M24.8,126.6s5.2-12,13.7-18.4c7.2-5.4,17.2-6.6,22.9,5,0,0,13.6,2.7,12,16.4,0,0,6.5,3.5,5.1,11,0,.3,6.2,5.9-1.1,23.1,0,0-18.5,37.7-46.8,2.2C30.5,166,16.2,146.9,24.8,126.6Z" style="fill:#fff"/><path d="M24.3,126.6s4.2-12,11.2-18.4c5.9-5.4,14.1-6.6,18.7,5,0,0,11.1,2.7,9.8,16.4a11.13,11.13,0,0,1,4.2,11c0,.3,5.1,5.9-.9,23.1,0,0-15.2,37.7-38.3,2.2C29,166,17.3,146.9,24.3,126.6Z" style="fill:#fcede1"/><path d="M42.1,132.2a2.92,2.92,0,0,1-.9-.2,2.27,2.27,0,0,1-1.2-3c.2-.4,4.7-10.7,13.5-13.5a2.31,2.31,0,1,1,1.4,4.4c-6.8,2.2-10.6,10.8-10.6,10.9A2.71,2.71,0,0,1,42.1,132.2Z" style="fill:#1a1a1a"/><path d="M51.3,141.7a2.66,2.66,0,0,1-1.2-.3,2.31,2.31,0,0,1-.8-3.2c.2-.4,5.4-8.9,13.7-11.6a2.31,2.31,0,0,1,1.4,4.4c-6.7,2.2-11.1,9.6-11.2,9.6A2.26,2.26,0,0,1,51.3,141.7Z" style="fill:#1a1a1a"/><path d="M60.1,153.8a1.75,1.75,0,0,1-1.2-.4,2.29,2.29,0,0,1-.7-3.2c.1-.2,3.1-4.7,10.4-9.2a2.33,2.33,0,0,1,2.4,4c-6.3,3.9-8.9,7.7-8.9,7.7A2.43,2.43,0,0,1,60.1,153.8Z" style="fill:#1a1a1a"/><path d="M54.4,184.2c-8.8,0-17.6-5.5-26.2-16.4h0c-.9-1.2-15.2-21-6.2-42.4h0c.2-.5,5.6-12.8,14.6-19.6,5.1-3.9,11-5.4,16-4.2,3.1.8,7.5,2.9,10.8,9,5.5,1.6,13.4,6.8,13.1,17.5a13.4,13.4,0,0,1,5.1,11.8c3.5,5.7,3,14.5-1.5,25a.1.1,0,0,1-.1.1c-.3.7-8.7,17.4-23.5,19A7.15,7.15,0,0,1,54.4,184.2ZM32.9,164h0c8,10.1,15.8,14.8,23,14,11-1.2,18.1-14.5,18.6-15.6,3.8-8.8,4.3-16,1.6-19.7a3.48,3.48,0,0,1-.8-2.1,1.27,1.27,0,0,1,.1-.6,7.4,7.4,0,0,0-3.5-7.7,3,3,0,0,1-1.6-3.1c1.2-10.5-8.4-12.8-9.5-13a3.37,3.37,0,0,1-2.2-1.7c-1.9-3.9-4.4-6.3-7.4-7-3.2-.8-7.2.3-10.9,3.1-7.6,5.8-12.5,16.8-12.7,17.2C20,145.9,32.4,163.3,32.9,164Z" style="fill:#1a1a1a"/></svg>