<svg id="圖層_1" data-name="圖層 1" xmlns="http://www.w3.org/2000/svg" xmlns:xlink="http://www.w3.org/1999/xlink" viewBox="0 0 1080 1920"><defs><style>.cls-1,.cls-11,.cls-12,.cls-13,.cls-15,.cls-22,.cls-25,.cls-37,.cls-45,.cls-48,.cls-49,.cls-56,.cls-57,.cls-6,.cls-62,.cls-65,.cls-69,.cls-74,.cls-79,.cls-81,.cls-82{fill:none;}.cls-2{fill:#a6a6a6;}.cls-3{fill:#cddc4c;}.cls-26,.cls-39,.cls-4,.cls-52,.cls-54,.cls-68,.cls-70,.cls-75,.cls-77,.cls-80{fill:#fff;}.cls-5{fill:#ef8519;}.cls-6{stroke:#ac5508;}.cls-15,.cls-28,.cls-45,.cls-6,.cls-71{stroke-miterlimit:10;}.cls-6,.cls-71,.cls-73,.cls-74{stroke-width:5.91px;}.cls-7{fill:#1a1a1a;}.cls-8{fill:#fffdf7;}.cls-9{fill:#c6a679;}.cls-10{fill:#927b59;}.cls-11,.cls-12,.cls-13,.cls-14,.cls-22,.cls-24,.cls-25,.cls-26,.cls-27,.cls-30,.cls-36,.cls-37,.cls-38,.cls-39,.cls-48,.cls-49,.cls-52,.cls-53,.cls-54,.cls-55,.cls-56,.cls-61,.cls-64,.cls-68,.cls-69,.cls-70,.cls-71,.cls-77,.cls-79,.cls-80,.cls-81,.cls-82{stroke:#1a1a1a;}.cls-11,.cls-12,.cls-13,.cls-14,.cls-22,.cls-24,.cls-25,.cls-26,.cls-27,.cls-28,.cls-30,.cls-36,.cls-37,.cls-38,.cls-39,.cls-45,.cls-48,.cls-49,.cls-52,.cls-53,.cls-54,.cls-55,.cls-56,.cls-57,.cls-61,.cls-62,.cls-64,.cls-65,.cls-68,.cls-69,.cls-70,.cls-73,.cls-74,.cls-75,.cls-77,.cls-79,.cls-80,.cls-81,.cls-82{stroke-linecap:round;}.cls-11,.cls-12,.cls-13,.cls-14,.cls-22,.cls-24,.cls-25,.cls-26,.cls-27,.cls-30,.cls-36,.cls-37,.cls-38,.cls-39,.cls-48,.cls-49,.cls-52,.cls-53,.cls-54,.cls-55,.cls-56,.cls-57,.cls-61,.cls-62,.cls-64,.cls-65,.cls-68,.cls-69,.cls-70,.cls-73,.cls-74,.cls-75,.cls-77,.cls-79,.cls-80,.cls-81,.cls-82{stroke-linejoin:round;}.cls-11{stroke-width:3.84px;}.cls-12{stroke-width:3.07px;}.cls-13{stroke-width:2.88px;}.cls-14{fill:#fae5ee;stroke-width:2.49px;}.cls-15{stroke:#c8c9ca;}.cls-15,.cls-25,.cls-30,.cls-38,.cls-39{stroke-width:4.06px;}.cls-16{clip-path:url(#clip-path);}.cls-17{fill:#d6d6d6;}.cls-18,.cls-28{fill:#d6a17f;}.cls-19{fill:#e4bfa4;}.cls-20,.cls-24{fill:#2c88c9;}.cls-21{fill:#b3b3b3;}.cls-22,.cls-24,.cls-26,.cls-27,.cls-28,.cls-45{stroke-width:2.84px;}.cls-23{fill:#c2ddec;}.cls-27{fill:#f29a4a;}.cls-28{stroke:#a77858;}.cls-29{clip-path:url(#clip-path-2);}.cls-30,.cls-31{fill:#939280;}.cls-32{fill:#6bc7f1;}.cls-33{fill:#f2f0db;}.cls-34{clip-path:url(#clip-path-4);}.cls-35{fill:#ae9378;}.cls-36{fill:#f9d1bf;}.cls-36,.cls-37{stroke-width:3.04px;}.cls-38{fill:#ac9177;}.cls-40{clip-path:url(#clip-path-6);}.cls-41{clip-path:url(#clip-path-7);}.cls-42{fill:#bcb2ae;}.cls-43{fill:#827975;}.cls-44{fill:#928985;}.cls-45{stroke:#8d827f;}.cls-46{fill:#7fbe26;}.cls-47{fill:#fdeea4;}.cls-48,.cls-52,.cls-53,.cls-64{stroke-width:6.36px;}.cls-49,.cls-54,.cls-57,.cls-61,.cls-62,.cls-65{stroke-width:4.77px;}.cls-50{fill:#fcede1;}.cls-51,.cls-53,.cls-71{fill:#fbebdf;}.cls-55{fill:#eed180;stroke-width:4.42px;}.cls-56{stroke-width:5.72px;}.cls-57{stroke:#e0bb52;}.cls-58{fill:#ddcbba;}.cls-59{fill:#a18f7e;}.cls-60{fill:#eab381;}.cls-61{fill:#ebb988;}.cls-62{stroke:#aa806a;}.cls-63{fill:#f2abb7;}.cls-64{fill:#bfbfbf;}.cls-65{stroke:#fff;}.cls-66{fill:#fff1d1;}.cls-67{fill:#9ed8f5;}.cls-68,.cls-69{stroke-width:5.16px;}.cls-70{stroke-width:4.13px;}.cls-72{fill:#7ebc25;}.cls-73{fill:#75ae21;}.cls-73,.cls-74,.cls-75{stroke:#3e7c18;}.cls-75{stroke-width:4.45px;}.cls-76{fill:#ffe51b;}.cls-77{stroke-width:4.69px;}.cls-78{fill:#f1975f;}.cls-79{stroke-width:6.25px;}.cls-80{stroke-width:5px;}.cls-81{stroke-width:4.62px;}.cls-82{stroke-width:6.16px;}</style><clipPath id="clip-path"><circle class="cls-1" cx="341.85" cy="490.76" r="73.03"/></clipPath><clipPath id="clip-path-2"><circle class="cls-1" cx="936.3" cy="490.76" r="73.03"/></clipPath><clipPath id="clip-path-4"><circle class="cls-1" cx="738.15" cy="490.76" r="73.03"/></clipPath><clipPath id="clip-path-6"><circle class="cls-1" cx="540" cy="490.76" r="73.03"/></clipPath><clipPath id="clip-path-7"><circle class="cls-2" cx="540" cy="490.76" r="73.03"/></clipPath></defs><title>互動設計UI</title><rect class="cls-3" width="1080" height="1920"/><circle class="cls-4" cx="539.67" cy="842.4" r="722.95"/><rect class="cls-4" x="394.23" y="1340.91" width="291.55" height="113.45" rx="47.57" ry="47.57"/><rect class="cls-5" x="399.84" y="1348.81" width="275.21" height="104.8" rx="43.94" ry="43.94"/><path class="cls-4" d="M431.62,1411.18a3.16,3.16,0,0,1-2.32-1,3.2,3.2,0,0,1-1-2.33v-22.21a3.16,3.16,0,0,1,1-2.32,3.13,3.13,0,0,1,2.32-1h6.8a20.24,20.24,0,0,1,4.52.47,11.39,11.39,0,0,1,3.64,1.54,7.08,7.08,0,0,1,2.53,2.92,11.13,11.13,0,0,1,0,8.86,8,8,0,0,1-2.51,3.1A11.34,11.34,0,0,1,443,1401a15.58,15.58,0,0,1-4.36.58h-3a.33.33,0,0,0-.38.38v5.89a3.29,3.29,0,0,1-3.29,3.29Zm3.63-15.38a.33.33,0,0,0,.38.38h2.64c3.32,0,5-1.47,5-4.42a3.37,3.37,0,0,0-1.29-3,6.88,6.88,0,0,0-3.89-.89h-2.45a.33.33,0,0,0-.38.38Z"/><path class="cls-4" d="M462.57,1411.71q-3.36,0-4.82-2a9.54,9.54,0,0,1-1.45-5.67v-20.48a3.28,3.28,0,0,1,3.28-3.28h.27a3.29,3.29,0,0,1,3.29,3.28v20.74a1.78,1.78,0,0,0,.71,1.7,2.35,2.35,0,0,0,.36.21,3,3,0,0,1,.42.25l.3.22a1,1,0,0,1,.3.32,1.25,1.25,0,0,1,.13.4l.19,1.21a3.15,3.15,0,0,1,0,.53,2.88,2.88,0,0,1-.45,1.55,2.11,2.11,0,0,1-1.66,1C463.17,1411.7,462.87,1411.71,462.57,1411.71Z"/><path class="cls-4" d="M476.59,1411.71a6.17,6.17,0,0,1-4.74-1.93,6.69,6.69,0,0,1-1.79-4.76,6.17,6.17,0,0,1,2.83-5.38q2.83-2,9-2.66a.31.31,0,0,0,.3-.42c-.25-1.64-1.33-2.46-3.25-2.46a9,9,0,0,0-3.47.8,2.78,2.78,0,0,1-1.14.26,2.84,2.84,0,0,1-.87-.15,2.42,2.42,0,0,1-1.51-1.21,2.76,2.76,0,0,1-.3-1.24,2.79,2.79,0,0,1,.11-.76,2.3,2.3,0,0,1,1.25-1.47,17,17,0,0,1,7.22-1.7q8.91,0,8.91,10v9.71a2.66,2.66,0,0,1-.83,2,2.71,2.71,0,0,1-2,.81h-.8a2.42,2.42,0,0,1-1.56-.55,2.34,2.34,0,0,1-.89-1.42l0-.15a.12.12,0,0,0-.11-.07.16.16,0,0,0-.12,0A9.52,9.52,0,0,1,476.59,1411.71Zm2.38-5.33a4.33,4.33,0,0,0,3.06-1.47.87.87,0,0,0,.27-.64v-2.76a.37.37,0,0,0-.12-.27.38.38,0,0,0-.22-.07h0q-5.32.8-5.33,3.32a1.67,1.67,0,0,0,.63,1.42A2.87,2.87,0,0,0,479,1406.38Z"/><path class="cls-4" d="M499.12,1419.75a6.08,6.08,0,0,1-.61,0,2,2,0,0,1-1.66-1,2.62,2.62,0,0,1-.42-1.4,3.07,3.07,0,0,1,.08-.67c.28-1.16,1.36-2,3.25-2.46a3.39,3.39,0,0,0,2.49-2.49l.23-.76a1,1,0,0,0,0-.72l-7.1-17.94a2.75,2.75,0,0,1-.15-.87,2.2,2.2,0,0,1,2.23-2.19h.37a4.35,4.35,0,0,1,2.63.87,4.43,4.43,0,0,1,1.64,2.26l1.93,6q.22.69,1.7,6.16a.13.13,0,0,0,.13.08c.06,0,.1,0,.1-.08q.38-1.82,1.43-6.16l1.66-6a4.08,4.08,0,0,1,1.53-2.26,4.26,4.26,0,0,1,2.63-.87,2.25,2.25,0,0,1,1.89,1,2.15,2.15,0,0,1,.45,1.32,2.39,2.39,0,0,1-.15.8l-6.5,18.92a17,17,0,0,1-3.83,6.48A8.38,8.38,0,0,1,499.12,1419.75Z"/><path class="cls-4" d="M538,1411.71a6.17,6.17,0,0,1-4.74-1.93,6.73,6.73,0,0,1-1.79-4.76,6.17,6.17,0,0,1,2.83-5.38q2.84-2,9-2.66a.31.31,0,0,0,.3-.42c-.25-1.64-1.33-2.46-3.25-2.46a9.05,9.05,0,0,0-3.47.8,2.78,2.78,0,0,1-1.14.26,2.73,2.73,0,0,1-.86-.15,2.39,2.39,0,0,1-1.51-1.21,2.65,2.65,0,0,1-.31-1.24,2.46,2.46,0,0,1,.12-.76,2.26,2.26,0,0,1,1.24-1.47,17,17,0,0,1,7.22-1.7q8.91,0,8.91,10v9.71a2.66,2.66,0,0,1-.83,2,2.71,2.71,0,0,1-2,.81H547a2.44,2.44,0,0,1-1.56-.55,2.39,2.39,0,0,1-.89-1.42l0-.15a.11.11,0,0,0-.11-.07.16.16,0,0,0-.12,0A9.52,9.52,0,0,1,538,1411.71Zm2.38-5.33a4.33,4.33,0,0,0,3.06-1.47.87.87,0,0,0,.27-.64v-2.76a.37.37,0,0,0-.12-.27.38.38,0,0,0-.22-.07h0q-5.33.8-5.33,3.32a1.67,1.67,0,0,0,.63,1.42A2.87,2.87,0,0,0,540.38,1406.38Z"/><path class="cls-4" d="M565.7,1420.55A18.06,18.06,0,0,1,561,1420a7.28,7.28,0,0,1-3.31-1.83,4.31,4.31,0,0,1-1.28-3.18c0-1.78,1-3.21,3.06-4.26a.23.23,0,0,0,.07-.17.14.14,0,0,0-.07-.14,4.43,4.43,0,0,1-1.29-6,6.29,6.29,0,0,1,1.7-1.83.22.22,0,0,0,.08-.15.12.12,0,0,0-.08-.11,7.53,7.53,0,0,1-2.08-2.38,6.55,6.55,0,0,1-.83-3.25,7.46,7.46,0,0,1,1.34-4.44,7.85,7.85,0,0,1,3.39-2.72,11.48,11.48,0,0,1,4.49-.85,11.19,11.19,0,0,1,3.14.42,2.67,2.67,0,0,0,.71.11h5.22a2.42,2.42,0,0,1,1.76.73,2.45,2.45,0,0,1,.73,1.78,2.37,2.37,0,0,1-.73,1.76,2.44,2.44,0,0,1-1.76.71h-.57a.19.19,0,0,0-.17.12.28.28,0,0,0,0,.22,5.8,5.8,0,0,1,.46,2.35,6.54,6.54,0,0,1-2.44,5.53,10.07,10.07,0,0,1-6.33,1.87,9,9,0,0,1-2.23-.3.59.59,0,0,0-.64.15,1.93,1.93,0,0,0-.42,1.29,1.18,1.18,0,0,0,.76,1.13,6.68,6.68,0,0,0,2.49.34h3.48q8.46,0,8.46,5.66a6.63,6.63,0,0,1-3.38,5.73Q571.38,1420.55,565.7,1420.55Zm1.06-4.31a7.45,7.45,0,0,0,3.46-.7,2,2,0,0,0,1.34-1.75,1.25,1.25,0,0,0-.78-1.25,6.33,6.33,0,0,0-2.43-.34h-2.08a18.48,18.48,0,0,1-2.76-.15.5.5,0,0,0-.19,0,.61.61,0,0,0-.45.19,2.37,2.37,0,0,0-.79,1.7,1.88,1.88,0,0,0,1.26,1.76A8.29,8.29,0,0,0,566.76,1416.24Zm-.53-16a2.55,2.55,0,0,0,2-.89,3.74,3.74,0,0,0,.78-2.55,3.67,3.67,0,0,0-.78-2.53,2.57,2.57,0,0,0-2-.87,2.54,2.54,0,0,0-2,.89,3.68,3.68,0,0,0-.77,2.51,3.74,3.74,0,0,0,.77,2.55A2.57,2.57,0,0,0,566.23,1400.19Z"/><path class="cls-4" d="M588.34,1411.71a6.14,6.14,0,0,1-4.74-1.93,6.7,6.7,0,0,1-1.8-4.76,6.18,6.18,0,0,1,2.84-5.38c1.89-1.3,4.89-2.19,9-2.66a.31.31,0,0,0,.3-.42c-.25-1.64-1.34-2.46-3.25-2.46a9.06,9.06,0,0,0-3.48.8,2.7,2.7,0,0,1-1.13.26,2.75,2.75,0,0,1-.87-.15,2.42,2.42,0,0,1-1.51-1.21,2.76,2.76,0,0,1-.3-1.24,2.79,2.79,0,0,1,.11-.76,2.27,2.27,0,0,1,1.25-1.47,17,17,0,0,1,7.21-1.7q8.93,0,8.92,10v9.71a2.7,2.7,0,0,1-.83,2,2.74,2.74,0,0,1-2,.81h-.79a2.46,2.46,0,0,1-1.57-.55,2.44,2.44,0,0,1-.89-1.42l0-.15a.13.13,0,0,0-.12-.07.12.12,0,0,0-.11,0A9.52,9.52,0,0,1,588.34,1411.71Zm2.38-5.33a4.33,4.33,0,0,0,3.06-1.47.9.9,0,0,0,.26-.64v-2.76a.36.36,0,0,0-.11-.27.41.41,0,0,0-.23-.07h0c-3.56.53-5.33,1.64-5.33,3.32a1.69,1.69,0,0,0,.62,1.42A2.9,2.9,0,0,0,590.72,1406.38Z"/><path class="cls-4" d="M611.58,1386.09a4.12,4.12,0,0,1-2.85-1,3.2,3.2,0,0,1-1.12-2.53,3.27,3.27,0,0,1,1.12-2.55,4.08,4.08,0,0,1,2.85-1,4,4,0,0,1,2.8,1,3.31,3.31,0,0,1,1.09,2.55,3.24,3.24,0,0,1-1.09,2.53A4,4,0,0,1,611.58,1386.09Zm-.15,25.09a3.29,3.29,0,0,1-3.29-3.29v-15.45a3.29,3.29,0,0,1,3.29-3.28h.26a3.19,3.19,0,0,1,2.33,1,3.16,3.16,0,0,1,1,2.32v15.45a3.28,3.28,0,0,1-3.29,3.29Z"/><path class="cls-4" d="M625.75,1411.18a3.28,3.28,0,0,1-3.28-3.29V1392a2.75,2.75,0,0,1,.81-2,2.64,2.64,0,0,1,2-.83h.3a2.84,2.84,0,0,1,1.91.69,3,3,0,0,1,1,1.8l0,.19c0,.05,0,.07.1.07a.17.17,0,0,0,.13,0,10,10,0,0,1,7-3.24,5.92,5.92,0,0,1,5.15,2.34,11.19,11.19,0,0,1,1.68,6.61v10.31a3.19,3.19,0,0,1-1,2.33,3.16,3.16,0,0,1-2.32,1H639a3.28,3.28,0,0,1-3.29-3.29v-9.48a5.57,5.57,0,0,0-.6-3,2.25,2.25,0,0,0-2-.85,3.78,3.78,0,0,0-1.79.4,7.76,7.76,0,0,0-1.76,1.3.86.86,0,0,0-.26.64v11a3.2,3.2,0,0,1-1,2.33,3.16,3.16,0,0,1-2.32,1Z"/><rect class="cls-6" x="394.23" y="1340.91" width="291.55" height="113.45" rx="47.57" ry="47.57"/><path class="cls-7" d="M266.42,1289.45a3.14,3.14,0,0,1-3.14-3.14V1265.2a3.14,3.14,0,0,1,3.14-3.14h5.93q9.9,0,9.9,6.76a6.82,6.82,0,0,1-1,3.58,5.38,5.38,0,0,1-2.61,2.31c-.08,0-.11,0-.11.11s0,.1.07.1a6.81,6.81,0,0,1,3.68,2.21,6.34,6.34,0,0,1,1.38,4.26,6.87,6.87,0,0,1-2.93,6,13.12,13.12,0,0,1-7.66,2Zm2.35-16.62a.32.32,0,0,0,.36.36H272a6.14,6.14,0,0,0,3.76-.94,3.14,3.14,0,0,0,1.23-2.64,2.85,2.85,0,0,0-1.21-2.56,6.86,6.86,0,0,0-3.71-.8h-2.89a.32.32,0,0,0-.36.36Zm0,12a.32.32,0,0,0,.36.36h3.43q5.79,0,5.79-4.15a3.16,3.16,0,0,0-1.45-2.89,8.23,8.23,0,0,0-4.34-.91h-3.43a.32.32,0,0,0-.36.36Z"/><path class="cls-7" d="M289.19,1297.87a5.44,5.44,0,0,1-.73,0,1.59,1.59,0,0,1-1.37-.79,2.12,2.12,0,0,1-.25-1.66c.24-1,1.12-1.67,2.64-1.88a4,4,0,0,0,3.17-3.11l.29-.87a.93.93,0,0,0,0-.68L286,1271.38a2,2,0,0,1-.14-.72,1.62,1.62,0,0,1,.36-1,1.69,1.69,0,0,1,1.51-.83,3.73,3.73,0,0,1,2.23.72,3.84,3.84,0,0,1,1.39,1.88l2.42,7q.11.28,1.7,5.78a.11.11,0,0,0,.12.07.13.13,0,0,0,.13-.07c.14-.63.39-1.58.72-2.87s.58-2.26.73-2.91l2.13-7.12a3.44,3.44,0,0,1,1.24-1.79,3.35,3.35,0,0,1,2.08-.7,1.73,1.73,0,0,1,1.52.79,1.71,1.71,0,0,1,.36,1.05,2.08,2.08,0,0,1-.11.62l-6.5,18.89a15.7,15.7,0,0,1-3.43,5.82A7.27,7.27,0,0,1,289.19,1297.87Z"/><path class="cls-7" d="M324.56,1290q-6.82,0-6.83-7.77v-8.86c0-.21-.09-.32-.29-.32h-.61a2,2,0,0,1-2-2,2.12,2.12,0,0,1,.58-1.5,2.08,2.08,0,0,1,1.41-.7l.83-.07a.35.35,0,0,0,.4-.33l.32-3a2.54,2.54,0,0,1,2.53-2.28,2.18,2.18,0,0,1,1.61.67,2.22,2.22,0,0,1,.67,1.61v2.92a.33.33,0,0,0,.36.37h2.6a2.07,2.07,0,0,1,1.5.61,2.15,2.15,0,0,1,0,3,2.11,2.11,0,0,1-1.5.61h-2.6a.32.32,0,0,0-.36.36v8.82q0,3.49,2.82,3.5h.1a3.22,3.22,0,0,1,1.52.36,1.62,1.62,0,0,1,.83,1.16,1.81,1.81,0,0,1,.08.51,2.19,2.19,0,0,1-.29,1.08,1.84,1.84,0,0,1-1.27.94A14.33,14.33,0,0,1,324.56,1290Z"/><path class="cls-7" d="M337.12,1288.66a2.69,2.69,0,0,1-3.81,0,2.58,2.58,0,0,1-.8-1.92v-24.1a2.71,2.71,0,0,1,2.71-2.71,2.55,2.55,0,0,1,1.9.79,2.63,2.63,0,0,1,.77,1.92v4.73l-.18,3.51a.13.13,0,0,0,.09.14.15.15,0,0,0,.17,0,9.27,9.27,0,0,1,6.21-2.79q6.44,0,6.43,8.35v10.19a2.7,2.7,0,0,1-2.72,2.71,2.64,2.64,0,0,1-1.94-.79,2.61,2.61,0,0,1-.79-1.92v-9.54a6.07,6.07,0,0,0-.69-3.34,2.53,2.53,0,0,0-2.24-1,4.09,4.09,0,0,0-2,.49,10,10,0,0,0-2.05,1.61.79.79,0,0,0-.29.61v11.17A2.63,2.63,0,0,1,337.12,1288.66Z"/><path class="cls-7" d="M365.18,1290a10,10,0,0,1-7.39-2.93,10.72,10.72,0,0,1-2.91-7.91,12.43,12.43,0,0,1,.81-4.52A9.79,9.79,0,0,1,361,1269a8.61,8.61,0,0,1,3.57-.78,7.88,7.88,0,0,1,6.26,2.57,9.89,9.89,0,0,1,2.42,6.83,2.63,2.63,0,0,1-1,2.09,3.47,3.47,0,0,1-2.42.91h-9.29a.27.27,0,0,0-.21.11.23.23,0,0,0-.07.25,5.63,5.63,0,0,0,1.91,3.59,5.72,5.72,0,0,0,3.76,1.25,7.8,7.8,0,0,0,3-.58,2.26,2.26,0,0,1,.87-.18,3,3,0,0,1,.61.07,1.79,1.79,0,0,1,1.16.91,2,2,0,0,1,.25,1,1.79,1.79,0,0,1-.07.51,1.54,1.54,0,0,1-.9,1.12A12.73,12.73,0,0,1,365.18,1290Zm-5-13.23a.25.25,0,0,0,.08.18.24.24,0,0,0,.21.11h7.73a.38.38,0,0,0,.26-.11.34.34,0,0,0,.11-.25,5.06,5.06,0,0,0-1.09-3.13,3.62,3.62,0,0,0-2.85-1.1,4.16,4.16,0,0,0-2.86,1.09A4.27,4.27,0,0,0,360.15,1276.73Z"/><path class="cls-7" d="M393.61,1290q-6.83,0-6.83-7.77v-8.86c0-.21-.09-.32-.29-.32h-.61a1.92,1.92,0,0,1-1.41-.58,1.89,1.89,0,0,1-.58-1.41,2.2,2.2,0,0,1,2-2.2l.83-.07a.35.35,0,0,0,.4-.33l.32-3a2.53,2.53,0,0,1,.83-1.63,2.49,2.49,0,0,1,1.7-.65,2.29,2.29,0,0,1,2.28,2.28v2.92a.33.33,0,0,0,.36.37h2.6a2.07,2.07,0,0,1,1.5.61,2.15,2.15,0,0,1,0,3,2.11,2.11,0,0,1-1.5.61h-2.6a.32.32,0,0,0-.36.36v8.82q0,3.49,2.82,3.5h.11a3.18,3.18,0,0,1,1.51.36,1.62,1.62,0,0,1,.83,1.16,1.81,1.81,0,0,1,.08.51,2.19,2.19,0,0,1-.29,1.08,1.84,1.84,0,0,1-1.27.94A14.33,14.33,0,0,1,393.61,1290Z"/><path class="cls-7" d="M406.17,1288.66a2.55,2.55,0,0,1-1.9.79,2.59,2.59,0,0,1-1.91-.79,2.62,2.62,0,0,1-.8-1.92v-24.1a2.62,2.62,0,0,1,.8-1.92,2.59,2.59,0,0,1,1.91-.79,2.55,2.55,0,0,1,1.9.79,2.64,2.64,0,0,1,.78,1.92v4.73l-.18,3.51c0,.07,0,.12.08.14a.15.15,0,0,0,.17,0,9.27,9.27,0,0,1,6.21-2.79q6.43,0,6.43,8.35v10.19a2.7,2.7,0,0,1-2.72,2.71,2.64,2.64,0,0,1-1.94-.79,2.61,2.61,0,0,1-.79-1.92v-9.54a6.07,6.07,0,0,0-.69-3.34,2.53,2.53,0,0,0-2.24-1,4.11,4.11,0,0,0-2,.49,10.53,10.53,0,0,0-2,1.61.78.78,0,0,0-.28.61v11.17A2.64,2.64,0,0,1,406.17,1288.66Z"/><path class="cls-7" d="M428,1265.38a3.35,3.35,0,0,1-2.34-.83,2.74,2.74,0,0,1-.92-2.13,2.68,2.68,0,0,1,.91-2.11,3.69,3.69,0,0,1,4.64,0,2.68,2.68,0,0,1,.92,2.11,2.74,2.74,0,0,1-.92,2.13A3.26,3.26,0,0,1,428,1265.38Zm1.86,23.28a2.55,2.55,0,0,1-1.9.79,2.7,2.7,0,0,1-2.71-2.71v-15.32a2.55,2.55,0,0,1,.79-1.9,2.63,2.63,0,0,1,1.92-.77,2.57,2.57,0,0,1,1.9.77,2.61,2.61,0,0,1,.77,1.9v15.32A2.67,2.67,0,0,1,429.84,1288.66Z"/><path class="cls-7" d="M441.07,1288.66a2.53,2.53,0,0,1-1.89.79,2.7,2.7,0,0,1-2.71-2.71V1271a2.22,2.22,0,0,1,2.2-2.2,2.36,2.36,0,0,1,1.64.63,2.4,2.4,0,0,1,.82,1.57l.14,1.37a.07.07,0,0,0,.07.08.12.12,0,0,0,.11-.08,9.16,9.16,0,0,1,2.68-3,5.5,5.5,0,0,1,3.18-1.09h.11a1.79,1.79,0,0,1,1.51.91,2.36,2.36,0,0,1,.4,1.33,2.54,2.54,0,0,1-.07.58,2.14,2.14,0,0,1-1,1.43,3.82,3.82,0,0,1-1.82.6,4.44,4.44,0,0,0-2.46,1,6.59,6.59,0,0,0-2,2.75,1.57,1.57,0,0,0-.15.68v9.29A2.64,2.64,0,0,1,441.07,1288.66Z"/><path class="cls-7" d="M459.52,1290a7.52,7.52,0,0,1-6.2-2.89q-2.29-2.89-2.29-8a11.72,11.72,0,0,1,2.58-7.9,7.85,7.85,0,0,1,6.13-3,6.55,6.55,0,0,1,2.69.51,9.09,9.09,0,0,1,2.29,1.52.12.12,0,0,0,.17,0,.08.08,0,0,0,.05-.12l-.18-2.89v-4.59a2.7,2.7,0,0,1,2.71-2.71,2.65,2.65,0,0,1,1.93.79,2.6,2.6,0,0,1,.82,1.92v24.61a2.1,2.1,0,0,1-.66,1.55,2.12,2.12,0,0,1-1.55.65h-.25a2.39,2.39,0,0,1-1.54-.54,2.24,2.24,0,0,1-.81-1.38l0-.18a.12.12,0,0,0-.09,0l-.09,0A8.14,8.14,0,0,1,459.52,1290Zm-1.79-6.11a3.63,3.63,0,0,0,3.18,1.63,4.62,4.62,0,0,0,3.63-1.85,1,1,0,0,0,.22-.65v-8.38a.71.71,0,0,0-.29-.58,5.38,5.38,0,0,0-3.54-1.34,3.68,3.68,0,0,0-3.07,1.7,7.81,7.81,0,0,0-1.23,4.66A8.64,8.64,0,0,0,457.73,1283.85Z"/><path class="cls-7" d="M491.72,1290a7.51,7.51,0,0,1-6.2-2.89q-2.29-2.89-2.3-8a11.68,11.68,0,0,1,2.59-7.9,7.83,7.83,0,0,1,6.12-3,6.52,6.52,0,0,1,2.69.51,9.14,9.14,0,0,1,2.3,1.52.11.11,0,0,0,.16,0q.09,0,.06-.12l-.19-2.89v-4.59a2.71,2.71,0,0,1,2.71-2.71,2.67,2.67,0,0,1,1.94.79,2.59,2.59,0,0,1,.81,1.92v24.61a2.22,2.22,0,0,1-2.2,2.2H500a2.36,2.36,0,0,1-1.53-.54,2.21,2.21,0,0,1-.82-1.38l0-.18-.09,0a.12.12,0,0,0-.09,0A8.16,8.16,0,0,1,491.72,1290Zm-1.79-6.11a3.61,3.61,0,0,0,3.18,1.63,4.65,4.65,0,0,0,3.63-1.85,1.07,1.07,0,0,0,.21-.65v-8.38a.7.7,0,0,0-.28-.58,5.4,5.4,0,0,0-3.55-1.34,3.69,3.69,0,0,0-3.07,1.7,7.81,7.81,0,0,0-1.23,4.66A8.55,8.55,0,0,0,489.93,1283.85Z"/><path class="cls-7" d="M513.32,1290a5.92,5.92,0,0,1-4.44-1.74,6,6,0,0,1-1.7-4.41,5.8,5.8,0,0,1,2.76-5.11c1.85-1.22,4.78-2,8.8-2.51a.33.33,0,0,0,.33-.4,3.13,3.13,0,0,0-3.47-3.21,9.11,9.11,0,0,0-3.9,1,2.32,2.32,0,0,1-.94.21,2.05,2.05,0,0,1-.65-.1,1.92,1.92,0,0,1-1.2-.94,2.07,2.07,0,0,1-.28-1,1.63,1.63,0,0,1,.1-.57,1.85,1.85,0,0,1,1-1.23,15.36,15.36,0,0,1,6.86-1.74,7.44,7.44,0,0,1,5.95,2.33c1.34,1.56,2,3.83,2,6.82v9.9a2.09,2.09,0,0,1-.65,1.55,2.12,2.12,0,0,1-1.55.65h-.18a2.38,2.38,0,0,1-1.57-.56,2.43,2.43,0,0,1-.85-1.43v-.18l-.09,0a.12.12,0,0,0-.09,0A9.74,9.74,0,0,1,513.32,1290Zm1.77-4.23a5.47,5.47,0,0,0,3.76-1.81.82.82,0,0,0,.25-.61v-3.44a.35.35,0,0,0-.1-.25.31.31,0,0,0-.22-.07h0a12.16,12.16,0,0,0-4.89,1.44,2.85,2.85,0,0,0-1.47,2.39,2.12,2.12,0,0,0,.74,1.77A3.1,3.1,0,0,0,515.09,1285.73Z"/><path class="cls-7" d="M531.9,1297.87a5.44,5.44,0,0,1-.73,0,1.59,1.59,0,0,1-1.37-.79,2,2,0,0,1-.25-1.66c.24-1,1.12-1.67,2.63-1.88a4,4,0,0,0,3.18-3.11l.29-.87a.93.93,0,0,0,0-.68l-6.94-17.46a2,2,0,0,1-.14-.72,1.62,1.62,0,0,1,.36-1,1.69,1.69,0,0,1,1.51-.83,3.73,3.73,0,0,1,2.23.72,3.84,3.84,0,0,1,1.39,1.88l2.42,7q.1.28,1.7,5.78a.11.11,0,0,0,.12.07.13.13,0,0,0,.13-.07c.14-.63.38-1.58.72-2.87s.58-2.26.73-2.91l2.13-7.12a3.44,3.44,0,0,1,1.24-1.79,3.35,3.35,0,0,1,2.08-.7,1.73,1.73,0,0,1,1.52.79,1.71,1.71,0,0,1,.36,1.05,2.08,2.08,0,0,1-.11.62l-6.5,18.89a15.7,15.7,0,0,1-3.43,5.82A7.27,7.27,0,0,1,531.9,1297.87Z"/><path class="cls-7" d="M550.76,1296.82a1.34,1.34,0,0,1-1.23,0,1.54,1.54,0,0,1-.83-.9,1.67,1.67,0,0,1-.11-.54,1.65,1.65,0,0,1,.14-.65,1.86,1.86,0,0,1,.83-.94,5.14,5.14,0,0,0,3-4,.33.33,0,0,0-.1-.25.34.34,0,0,0-.26-.11,3.44,3.44,0,0,1-2.38-.87,3.25,3.25,0,0,1,0-4.68,3.67,3.67,0,0,1,2.5-.88,3.4,3.4,0,0,1,2.91,1.41,6.58,6.58,0,0,1,1,3.93,9,9,0,0,1-1.45,5.08A9.79,9.79,0,0,1,550.76,1296.82Z"/><path class="cls-7" d="M574.1,1288.73a2.46,2.46,0,0,1-4.19-1.74V1265.1a3,3,0,0,1,3-3,4.23,4.23,0,0,1,2.5.8,4.4,4.4,0,0,1,1.59,2.05l3.61,10q.15.43,1.63,5.2a.11.11,0,0,0,.12.07.14.14,0,0,0,.13-.07c.17-.53.43-1.38.79-2.55s.64-2,.84-2.65l3.54-10a4.27,4.27,0,0,1,1.59-2.05,4.13,4.13,0,0,1,2.45-.8,3,3,0,0,1,3,3V1287a2.46,2.46,0,0,1-2.48,2.49,2.47,2.47,0,0,1-1.77-.72,2.39,2.39,0,0,1-.74-1.77V1278c0-1.56.22-4.54.65-8.92,0,0,0-.08,0-.08s-.09,0-.09.08l-2.21,6.36-3.68,10a2.26,2.26,0,0,1-.83,1,2.29,2.29,0,0,1-1.29.4,2.27,2.27,0,0,1-2.11-1.45l-3.72-10-2.13-6.36s-.06-.08-.11-.08-.07,0-.07.08q.68,6.9.68,8.92v9A2.37,2.37,0,0,1,574.1,1288.73Z"/><path class="cls-7" d="M610.05,1290a10,10,0,0,1-7.39-2.93,10.72,10.72,0,0,1-2.91-7.91,12.43,12.43,0,0,1,.82-4.52,9.92,9.92,0,0,1,2.17-3.47,10.07,10.07,0,0,1,3.08-2.15,8.65,8.65,0,0,1,3.58-.78,7.85,7.85,0,0,1,6.25,2.57,9.84,9.84,0,0,1,2.42,6.83,2.62,2.62,0,0,1-1,2.09,3.49,3.49,0,0,1-2.42.91h-9.29a.31.31,0,0,0-.22.11.25.25,0,0,0-.07.25,5.42,5.42,0,0,0,5.67,4.84,7.85,7.85,0,0,0,3-.58,2.25,2.25,0,0,1,.86-.18,3,3,0,0,1,.62.07,1.82,1.82,0,0,1,1.16.91,2.12,2.12,0,0,1,.25,1,2.24,2.24,0,0,1-.07.51,1.55,1.55,0,0,1-.91,1.12A12.66,12.66,0,0,1,610.05,1290Zm-5-13.23a.24.24,0,0,0,.07.18.25.25,0,0,0,.22.11h7.73a.34.34,0,0,0,.25-.11.31.31,0,0,0,.11-.25,5,5,0,0,0-1.08-3.13,3.63,3.63,0,0,0-2.86-1.1,4.15,4.15,0,0,0-2.85,1.09A4.27,4.27,0,0,0,605,1276.73Z"/><path class="cls-7" d="M631.34,1290a9.73,9.73,0,0,1-7.29-2.91,10.89,10.89,0,0,1-2.83-7.93,11.37,11.37,0,0,1,1.48-5.86,9.78,9.78,0,0,1,3.87-3.79,10.92,10.92,0,0,1,5.24-1.27,8.77,8.77,0,0,1,4.22,1,1.78,1.78,0,0,1,.94,1.37,1.35,1.35,0,0,1,0,.33,2,2,0,0,1-.47,1.3,2.06,2.06,0,0,1-1.41.83,3.44,3.44,0,0,1-.54,0,2.9,2.9,0,0,1-1.19-.26,4.36,4.36,0,0,0-1.34-.21,4.69,4.69,0,0,0-3.81,1.77,8.25,8.25,0,0,0,0,9.34,4.55,4.55,0,0,0,3.7,1.75,5.77,5.77,0,0,0,2.28-.5,2.33,2.33,0,0,1,1-.26,5.29,5.29,0,0,1,.54,0,1.8,1.8,0,0,1,1.23.87,2.2,2.2,0,0,1,.36,1.19,2.35,2.35,0,0,1,0,.47,1.89,1.89,0,0,1-.94,1.34A10.32,10.32,0,0,1,631.34,1290Z"/><path class="cls-7" d="M646.6,1288.66a2.55,2.55,0,0,1-1.9.79,2.71,2.71,0,0,1-2.71-2.71v-24.1a2.71,2.71,0,0,1,2.71-2.71,2.55,2.55,0,0,1,1.9.79,2.64,2.64,0,0,1,.78,1.92v4.73l-.18,3.51a.13.13,0,0,0,.09.14.14.14,0,0,0,.16,0,9.29,9.29,0,0,1,6.22-2.79q6.42,0,6.43,8.35v10.19a2.73,2.73,0,0,1-5.46,0v-9.54a6.07,6.07,0,0,0-.69-3.34,2.52,2.52,0,0,0-2.24-1,4.14,4.14,0,0,0-2,.49,10.22,10.22,0,0,0-2,1.61.76.76,0,0,0-.29.61v11.17A2.64,2.64,0,0,1,646.6,1288.66Z"/><path class="cls-7" d="M670.76,1290a5.94,5.94,0,0,1-4.45-1.74,6,6,0,0,1-1.7-4.41,5.8,5.8,0,0,1,2.77-5.11c1.84-1.22,4.77-2,8.8-2.51a.32.32,0,0,0,.32-.4,3.13,3.13,0,0,0-3.47-3.21,9.11,9.11,0,0,0-3.9,1,2.29,2.29,0,0,1-.94.21,2.1,2.1,0,0,1-.65-.1,1.88,1.88,0,0,1-1.19-.94,2.08,2.08,0,0,1-.29-1,1.65,1.65,0,0,1,.11-.57,1.83,1.83,0,0,1,1-1.23,15.4,15.4,0,0,1,6.87-1.74,7.41,7.41,0,0,1,5.94,2.33q2,2.34,2,6.82v9.9a2.12,2.12,0,0,1-.65,1.55,2.15,2.15,0,0,1-1.56.65h-.18a2.4,2.4,0,0,1-1.57-.56,2.48,2.48,0,0,1-.85-1.43v-.18a.12.12,0,0,0-.09,0l-.09,0A9.74,9.74,0,0,1,670.76,1290Zm1.77-4.23a5.5,5.5,0,0,0,3.76-1.81.86.86,0,0,0,.25-.61v-3.44a.36.36,0,0,0-.11-.25.29.29,0,0,0-.22-.07h0a12.27,12.27,0,0,0-4.9,1.44,2.86,2.86,0,0,0-1.46,2.39,2.09,2.09,0,0,0,.74,1.77A3.08,3.08,0,0,0,672.53,1285.73Z"/><path class="cls-7" d="M701.83,1290a12.44,12.44,0,0,1-6.18-1.74,1.67,1.67,0,0,1-.86-1.3,1.33,1.33,0,0,1,0-.32,2.14,2.14,0,0,1,1.81-2.1H697a2.37,2.37,0,0,1,1.2.32,7.76,7.76,0,0,0,3.83,1.09,3.58,3.58,0,0,0,2.24-.6,2,2,0,0,0,.76-1.61,1.42,1.42,0,0,0-.24-.77,2.57,2.57,0,0,0-.52-.63,4.44,4.44,0,0,0-.91-.56,10,10,0,0,0-1-.47l-1.19-.49a3.38,3.38,0,0,1-.47-.18,18,18,0,0,1-2-.89,10.79,10.79,0,0,1-1.77-1.17,4.9,4.9,0,0,1-1.4-1.74,5.14,5.14,0,0,1-.48-2.24,5.7,5.7,0,0,1,2.11-4.59,8.41,8.41,0,0,1,5.58-1.77,10.78,10.78,0,0,1,5.35,1.45,1.52,1.52,0,0,1,.87,1.23,2.19,2.19,0,0,1,0,.36,1.87,1.87,0,0,1-.39,1.16,2.12,2.12,0,0,1-1.38.83,3.38,3.38,0,0,1-.47,0,2.61,2.61,0,0,1-1.12-.25,6.16,6.16,0,0,0-2.74-.72,3.25,3.25,0,0,0-2,.54,1.75,1.75,0,0,0-.68,1.44,2.26,2.26,0,0,0,0,.47,1.06,1.06,0,0,0,.22.42l.31.36a1.45,1.45,0,0,0,.45.33l.5.27c.14.07.34.16.62.27l.63.25.7.27c.33.12.56.21.71.25l1.68.69a10.73,10.73,0,0,1,1.52.85,6.36,6.36,0,0,1,1.35,1.16,5.17,5.17,0,0,1,.87,1.51,5.62,5.62,0,0,1,.36,2.05,5.87,5.87,0,0,1-2.17,4.69A9.08,9.08,0,0,1,701.83,1290Z"/><path class="cls-7" d="M726.6,1289.21a9.78,9.78,0,0,1-7.51,0,9.77,9.77,0,0,1-3.17-2.09,9.94,9.94,0,0,1-2.2-3.43,13.05,13.05,0,0,1,0-9.16,10,10,0,0,1,2.2-3.47,9.77,9.77,0,0,1,13.84,0,10,10,0,0,1,2.21,3.47,13.05,13.05,0,0,1,0,9.16,10,10,0,0,1-2.21,3.43A9.73,9.73,0,0,1,726.6,1289.21Zm-7-5.42a3.9,3.9,0,0,0,6.47,0,8.25,8.25,0,0,0,1.15-4.67,8.48,8.48,0,0,0-1.15-4.72,3.87,3.87,0,0,0-6.47,0,8.47,8.47,0,0,0-1.16,4.72A8.25,8.25,0,0,0,719.61,1283.79Z"/><path class="cls-7" d="M742.45,1290a4.55,4.55,0,0,1-3.91-1.63,7.89,7.89,0,0,1-1.19-4.7v-21a2.62,2.62,0,0,1,.8-1.92,2.59,2.59,0,0,1,1.91-.79,2.55,2.55,0,0,1,1.9.79,2.63,2.63,0,0,1,.77,1.92v21.25a1.56,1.56,0,0,0,.66,1.51,1.26,1.26,0,0,0,.32.18c.19.1.33.17.4.22l.31.22a.83.83,0,0,1,.27.3,2,2,0,0,1,.1.35l.15.79a3.27,3.27,0,0,1,0,.44,2.26,2.26,0,0,1-.37,1.22,1.67,1.67,0,0,1-1.33.8C743,1289.94,742.73,1290,742.45,1290Z"/><path class="cls-7" d="M759.34,1288.62a4.25,4.25,0,0,1-2.55.83,4.35,4.35,0,0,1-2.56-.81,4.06,4.06,0,0,1-1.59-2.15l-5.17-15.18a2.11,2.11,0,0,1-.11-.65,2,2,0,0,1,.36-1.12,1.87,1.87,0,0,1,1.59-.79,3.65,3.65,0,0,1,2.21.72,3.46,3.46,0,0,1,1.3,1.88l2.27,7.69c.2.8.5,2,.91,3.45s.65,2.43.72,2.77c0,0,.06.07.13.07a.12.12,0,0,0,.12-.07q.43-1.85,1.63-6.22l2.31-7.8a3.43,3.43,0,0,1,3.32-2.49,1.85,1.85,0,0,1,1.92,1.84,2,2,0,0,1-.11.61L761,1286.45A4.48,4.48,0,0,1,759.34,1288.62Z"/><path class="cls-7" d="M779,1290a10,10,0,0,1-7.39-2.93,10.72,10.72,0,0,1-2.91-7.91,12.43,12.43,0,0,1,.81-4.52,9.79,9.79,0,0,1,5.26-5.62,8.65,8.65,0,0,1,3.58-.78,7.88,7.88,0,0,1,6.25,2.57,9.89,9.89,0,0,1,2.42,6.83,2.63,2.63,0,0,1-1,2.09,3.47,3.47,0,0,1-2.42.91h-9.28a.28.28,0,0,0-.22.11.23.23,0,0,0-.07.25,5.63,5.63,0,0,0,1.91,3.59,5.74,5.74,0,0,0,3.76,1.25,7.8,7.8,0,0,0,3-.58,2.26,2.26,0,0,1,.87-.18,2.92,2.92,0,0,1,.61.07,1.79,1.79,0,0,1,1.16.91,2,2,0,0,1,.25,1,1.79,1.79,0,0,1-.07.51,1.54,1.54,0,0,1-.9,1.12A12.69,12.69,0,0,1,779,1290Zm-5-13.23a.25.25,0,0,0,.08.18.24.24,0,0,0,.21.11H782a.36.36,0,0,0,.25-.11.34.34,0,0,0,.11-.25,5,5,0,0,0-1.09-3.13,3.62,3.62,0,0,0-2.85-1.1,4.16,4.16,0,0,0-2.86,1.09A4.27,4.27,0,0,0,774,1276.73Z"/><path class="cls-7" d="M798.74,1290a7.49,7.49,0,0,1-6.19-2.89q-2.29-2.89-2.3-8a11.72,11.72,0,0,1,2.58-7.9,7.86,7.86,0,0,1,6.13-3,6.55,6.55,0,0,1,2.69.51,9.32,9.32,0,0,1,2.3,1.52.11.11,0,0,0,.16,0c.06,0,.08-.07,0-.12l-.18-2.89v-4.59a2.62,2.62,0,0,1,.8-1.92,2.59,2.59,0,0,1,1.91-.79,2.65,2.65,0,0,1,1.93.79,2.56,2.56,0,0,1,.82,1.92v24.61a2.12,2.12,0,0,1-.65,1.55,2.15,2.15,0,0,1-1.56.65H807a2.39,2.39,0,0,1-1.54-.54,2.24,2.24,0,0,1-.81-1.38l0-.18-.09,0a.12.12,0,0,0-.09,0A8.16,8.16,0,0,1,798.74,1290Zm-1.79-6.11a3.63,3.63,0,0,0,3.18,1.63,4.62,4.62,0,0,0,3.63-1.85,1,1,0,0,0,.22-.65v-8.38a.68.68,0,0,0-.29-.58,5.38,5.38,0,0,0-3.54-1.34,3.68,3.68,0,0,0-3.07,1.7,7.81,7.81,0,0,0-1.23,4.66A8.64,8.64,0,0,0,797,1283.85Z"/><circle class="cls-4" cx="143.7" cy="490.76" r="73.03"/><path class="cls-8" d="M109.59,489.11s-8.13,20.65,8.57,33.39c.78.6,1.12,3.58,1.12,3.58l-9.73,28.26,8.46,4.51,7.75,2.53,16.87,1.42,2.93.73,10.28-1.43,12.54-4.38,7.22-12.42L171.16,521l7.66-12.32.66-11.42"/><path class="cls-9" d="M118.16,522.5s9.3.86,13.28,3.41a134.1,134.1,0,0,0-7.6,35.2l-13-6.39Z"/><path class="cls-9" d="M171.64,522.33s-9.33-.27-13.6,1.77a191.71,191.71,0,0,1,6,36.52l13.77-6.84Z"/><ellipse class="cls-10" cx="125.36" cy="539.91" rx="2.92" ry="8.51" transform="translate(-414.12 412.75) rotate(-63.66)"/><ellipse class="cls-10" cx="125.29" cy="552" rx="2.73" ry="4.79" transform="translate(-425.01 419.41) rotate(-63.66)"/><ellipse class="cls-10" cx="165.03" cy="551.12" rx="4.79" ry="2.73" transform="translate(-227.36 130.41) rotate(-26.34)"/><ellipse class="cls-10" cx="162.3" cy="539.06" rx="8.51" ry="2.92" transform="translate(-182.1 93.73) rotate(-20.96)"/><path class="cls-9" d="M105.27,459.68s-2.24,18.53,4.32,29.43L108.23,498s4.9,8.65,14.26,10.32c0,0,11.25-7.87,17.6-7.33l8.33-.24s10.31.35,16.37,6.65c0,0,9.89-.13,15.37-5.83l-2.33-14.4,4.77-16.41-2.11-13.22L158.25,469l-9.56-1.75-16.6-.16-4,2.76"/><path class="cls-8" d="M127.5,469.87s-1.7,4.86-1,13.94c0,0-8.62,1.25-6.47,11,0,0,1.6,7.23,10,6.37,0,0,9.57-1.46,7.56-10.57,0,0-4.84-19.31-.67-25"/><path class="cls-10" d="M134.76,467.83a59.33,59.33,0,0,0,.75,17s1.73,3.18,3-.67c0,0,.58-11.31,2.3-16.71"/><path class="cls-10" d="M107.58,508.34a49.35,49.35,0,0,1,12.52-6.26s3.62-.17,1,2.9c0,0-7,4.43-10.7,8.73"/><path class="cls-10" d="M112.49,516.33s-.81-.75,7-3.43c0,0,3.62-.18,1,2.9a35.8,35.8,0,0,0-5.62,5.6"/><path class="cls-10" d="M127.31,469.11A45.25,45.25,0,0,0,126,483.19s1.73,3.17,3-.67c0,0,1-9.46,2.71-14.86"/><path class="cls-8" d="M161.33,469.06s1.4,4.95.15,14c0,0,8.53,1.78,5.77,11.38,0,0-2,7.11-10.35,5.73,0,0-9.46-2.05-6.89-11,0,0,6-19,2.22-24.89"/><path class="cls-10" d="M154.21,466.56a59.55,59.55,0,0,1-1.8,16.91s-1.93,3.06-2.95-.85c0,0,.13-11.33-1.26-16.83"/><path class="cls-10" d="M178.82,508.69a49.39,49.39,0,0,0-12.11-7s-3.6-.4-1.17,2.84c0,0,6.7,4.85,10.13,9.37"/><path class="cls-10" d="M173.42,516.36s.86-.7-6.73-3.86c0,0-3.6-.4-1.17,2.84a35.55,35.55,0,0,1,5.25,5.93"/><path class="cls-10" d="M161.56,468.31a44.93,44.93,0,0,1,.45,14.13s-1.93,3.06-2.94-.85c0,0-.4-9.5-1.79-15"/><path class="cls-11" d="M178.22,552.11c-2-10.48-5.94-25.85-7.06-31.1,0,0,15.53-12.46,6.67-33.82,0,0,7.5-4,3.57-28.2,0,0-13.53,1.79-23.15,10a43.19,43.19,0,0,0-15.32-2.74"/><path class="cls-11" d="M143.26,466.24a43.33,43.33,0,0,0-15.15,3.6c-10.06-7.66-22.84-10.16-22.84-10.16-4.38,24.91,4.32,29.43,4.32,29.43-7.64,21.82,8.57,33.39,8.57,33.39-3,10.16-6.39,21.46-8.16,31"/><path class="cls-12" d="M128.73,523.82s14.73,14.64,32-.9"/><circle class="cls-7" cx="128.6" cy="493.01" r="5.57"/><path class="cls-13" d="M131.49,510.9s8,9,12.78-3.69c0,0,3.55,12.78,13.29,3.56"/><path class="cls-7" d="M145.39,507.22l4-4.7a1.65,1.65,0,0,0-1.3-2.72l-8.33.23a1.65,1.65,0,0,0-1.14,2.79l4.29,4.47A1.65,1.65,0,0,0,145.39,507.22Z"/><path class="cls-14" d="M123.43,473.59a86.51,86.51,0,0,0-12.92-6.34A21.91,21.91,0,0,0,114,484.2"/><circle class="cls-7" cx="159.37" cy="492.14" r="5.57"/><path class="cls-14" d="M163.61,472.47a107.41,107.41,0,0,1,12.55-5.29s2.63,6.95-2.68,15.34"/><circle class="cls-15" cx="143.7" cy="490.76" r="73.03"/><g class="cls-16"><circle class="cls-4" cx="341.85" cy="490.76" r="73.03"/><path class="cls-17" d="M316.32,574.79l4,23.22c17.8-3.53,18.78,9,18.78,9l-14.2-3.12-26.25,4.29c1.3-8.91,15.75-10.28,15.75-10.28l-3.28-23.49,4.35-16.58L329.17,553"/><path class="cls-18" d="M322.15,494.43C313.79,499,284.32,516.6,270,547.29c0,0-14.64,17-18.81,24.12,0,0-2.89,5.69,1.35,7.28,0,0-2.89,13.52,23.57-6,0,0,24.48.16,53.31-17.31,0,0,18.95-8.6,29.57-25.79C344.39,523.11,333.2,510.16,322.15,494.43Z"/><path class="cls-19" d="M364.08,464.39a16.74,16.74,0,0,0-7-4.73c-10.67,2-20.65,7.38-29.16,13.29-2.32,4.94-3.83,11.48-3.47,20.26,0,0-.89.44-2.33,1.22,11.05,15.73,22.24,28.68,36.87,35.17,5.62-9.1,1.68-20-1.42-33.88a20.45,20.45,0,0,0-1.67-4.54c-1.36-2.8-.68-10.34,6.2-12a38.5,38.5,0,0,1-5.3-6.65c-2.35,2.33-5.46,3.88-10.57,2.5,5.11,1.38,8.22-.17,10.57-2.5-.54-.85-1.08-1.71-1.62-2.65.54.94,1.08,1.8,1.62,2.65C359.65,469.72,361.37,465.8,364.08,464.39Z"/><path class="cls-20" d="M345.87,458.3S334,460,328,473c8.51-5.91,18.49-11.31,29.16-13.29A25.5,25.5,0,0,0,345.87,458.3Z"/><path class="cls-21" d="M386.23,476.35s-6.14-8.69-21.07-10.46a10.36,10.36,0,0,0-1.08-1.5c-2.71,1.41-4.43,5.33-7.25,8.12a38.5,38.5,0,0,0,5.3,6.65,6.14,6.14,0,0,1,3.33-2.35A67.84,67.84,0,0,1,386.23,476.35Z"/><line class="cls-22" x1="258.2" y1="572.84" x2="266.94" y2="564.96"/><path class="cls-23" d="M362,466.77a6.87,6.87,0,0,1-5.89.11s-3.33-5.08-8.92-4.49c0,0-6.13.49-7.42,8.22,0,0,0,3.59,10.62,4.42,0,0,5.14.25,7.51-2.09"/><path class="cls-24" d="M335,462.85s-10.65,11.49-27.26,12.71c0,0,8.38,5.5,19.78-1.11"/><path class="cls-25" d="M329.45,555.39s44.33-20.11,35.39-60.31a20.72,20.72,0,0,0-1.67-4.55c-1.77-3.64-4.64-11.51,2.29-13.72a67.84,67.84,0,0,1,20.77-.46s-6.14-8.69-21.07-10.46c0,0-4.54-8.77-19.29-7.6,0,0-22.68,3.16-21.39,34.92,0,0-37.71,18.12-54.45,54.08,0,0-14.64,17-18.81,24.12,0,0-2.89,5.69,1.35,7.28,0,0-2.88,13.52,23.57-6C276.14,572.7,300.62,572.86,329.45,555.39Z"/><path class="cls-22" d="M360.6,468.12a12.8,12.8,0,0,0-3.74,5l1.67,2.33"/><circle class="cls-7" cx="348.1" cy="468.65" r="3.69"/><path class="cls-26" d="M331.35,502.92s-1.75,2.65,1.33,11.68"/><path class="cls-26" d="M340,512.48s-.38,9.56,3,13.17"/><line class="cls-26" x1="285.86" y1="542.67" x2="278.67" y2="553.22"/><line class="cls-26" x1="292.52" y1="550.54" x2="290.72" y2="554.81"/><path class="cls-22" d="M280.93,560.45s4.59,7.55,13.33-.33c0,0,7.55,3.23,32.63-16.19"/><path class="cls-22" d="M312.47,564.56l-1.38,9.83,3.28,23.49s-12.49.74-14.16,8.28"/><path class="cls-22" d="M322.85,561.19l-6.53,13.6,4,23.22s17.1-2.67,17.41,6.53"/><rect class="cls-27" x="309" y="582.17" width="13.1" height="8.66" transform="translate(-59.82 36.36) rotate(-6.03)"/><line class="cls-28" x1="310.34" y1="517" x2="300.52" y2="525.61"/><line class="cls-28" x1="323.87" y1="517.76" x2="313.77" y2="525.47"/></g><circle class="cls-15" cx="341.85" cy="490.76" r="73.03"/><g class="cls-29"><g class="cls-29"><circle class="cls-4" cx="936.3" cy="490.76" r="73.03"/></g><path class="cls-30" d="M950.36,496.11l9.06-4.74s-1.73-6.58-2.81-8.56c0,0-6.89.93-6.33-6.12s.19-3.17,6.1-8.53c0,0,10.64.14,8,11.38,0,0,4.25,9.87,5,16.5,0,0-8,6.71-14,8.37"/><path class="cls-30" d="M916.47,509.21l-9.13,4.6s-3.39-5.69-4.37-7.72c0,0,4.77-5-1.28-8.7s-2.68-1.7-10.49,0c0,0-6.09,8.72,4.56,13.17,0,0,4.59,9.66,9.56,14.1,0,0,10.1-2.56,15-6.54"/><path class="cls-4" d="M1011.68,536.55c-.24,11.39-3.28,21.1-11.73,30.56-11.37,12.72-29.1,12-39.07,9.28a44.47,44.47,0,0,1-24.31-17.73c-18.2-26.13-17.39-55.14-17.39-55.14-5.07-.68-6.79-8.1-6.79-8.1C910,491.26,911,471,911,471c.49-6,3.38-8.59,3.38-8.59a9,9,0,0,1,5.29-2.11,11.27,11.27,0,0,1,9.22,4.09c6.7,7.72,13.56,17.6,13.56,17.6a13.84,13.84,0,0,1,2,12c19.91,15.19,28.32,57,28.32,57,4.47,10.95,19.17,1,19.17,1a35.56,35.56,0,0,0,7.64-20.69s.39-16.06-9-23.6c0,0-22.4-19.69-13.2-42,0,0,2,20.73,15.86,31.52C1000.81,503.15,1012.2,512.43,1011.68,536.55Z"/><path class="cls-31" d="M909.54,469.1a8.66,8.66,0,0,1,1.43-1C910.61,466.85,909.54,469.1,909.54,469.1Z"/><path class="cls-32" d="M993.17,497.21c-13.88-10.79-15.86-31.52-15.86-31.52-9.2,22.27,13.2,42,13.2,42,9.43,7.54,9,23.6,9,23.6a36.78,36.78,0,0,1-4.64,16.25c12,4.93,4.21,18.18-1.1,24.86a31.25,31.25,0,0,0,6.14-5.25c8.45-9.46,11.49-19.17,11.73-30.56C1012.2,512.43,1000.81,503.15,993.17,497.21Z"/><path class="cls-31" d="M994.91,547.5a32.67,32.67,0,0,1-3,4.44s-14.7,10-19.17-1c0,0-12.89-36.19-32.8-51.37a13.84,13.84,0,0,0-2-12s-7.22-8.79-13.91-16.51a11.26,11.26,0,0,0-9.23-4.09,9.27,9.27,0,0,0-3.86,1.13,9.81,9.81,0,0,1,0,2.89s-1,20.25,1.39,24.41c0,0,1.72,7.42,6.79,8.1,0,0-.81,29,17.39,55.14a44.47,44.47,0,0,0,24.31,17.73c8.31,2.3,22,3.12,32.93-4C999.12,565.68,1006.94,552.43,994.91,547.5Z"/><path class="cls-25" d="M1011.68,536.55c-.24,11.39-3.28,21.1-11.73,30.56-11.37,12.72-29.1,12-39.07,9.28a44.47,44.47,0,0,1-24.31-17.73c-18.2-26.13-17.39-55.14-17.39-55.14-5.07-.68-6.79-8.1-6.79-8.1C910,491.26,911,471,911,471c.49-6,3.38-8.59,3.38-8.59a9,9,0,0,1,5.29-2.11,11.27,11.27,0,0,1,9.22,4.09c6.7,7.72,13.56,17.6,13.56,17.6a13.84,13.84,0,0,1,2,12c19.91,15.19,28.32,57,28.32,57,4.47,10.95,19.17,1,19.17,1a35.56,35.56,0,0,0,7.64-20.69s.39-16.06-9-23.6c0,0-22.4-19.69-13.2-42,0,0,2,20.73,15.86,31.52C1000.81,503.15,1012.2,512.43,1011.68,536.55Z"/><path class="cls-33" d="M964.81,559.73c-7.57-6-11.84-13.5-15.86-22.16-4.73-10.15-10.19-20.13-11.18-31.47a2.08,2.08,0,0,0-1.35-1.81,122.76,122.76,0,0,1-10.82-25.15c-.78-2.57-4.82-1.47-4,1.12a128.05,128.05,0,0,0,11.68,26.95,2,2,0,0,0,.58.65c1.26,10.11,5.56,19,9.84,28.21,4.78,10.33,9.16,19.41,18.19,26.62C963.94,564.36,966.92,561.41,964.81,559.73Z"/><path class="cls-33" d="M940.32,546.55c-4.61-8.74-9.05-17.52-9.46-27.57-.11-2.69-4.29-2.7-4.18,0,.44,10.79,5.08,20.29,10,29.68C938,551,941.58,548.93,940.32,546.55Z"/><path class="cls-33" d="M957.77,529.05q-2.89-6.15-5.78-12.3c-1.15-2.43-4.76-.31-3.62,2.12q2.89,6.14,5.78,12.29C955.3,533.59,958.91,531.47,957.77,529.05Z"/><ellipse class="cls-7" cx="914.75" cy="484.75" rx="2.97" ry="4.33" transform="translate(-99.72 278.34) rotate(-16.42)"/><ellipse class="cls-7" cx="935.17" cy="477.3" rx="2.97" ry="4.33" transform="translate(-113.36 531.53) rotate(-30)"/></g><circle class="cls-15" cx="936.3" cy="490.76" r="73.03"/><g class="cls-34"><g class="cls-34"><circle class="cls-4" cx="738.15" cy="490.76" r="73.03"/></g><path class="cls-4" d="M689,492.44s-18.82,8.18-17.58,45.85c0,0,1,22.46-11.59,34.77l-10.32,10.49-8.44,2-3.23-5.65,3.37-12.14-5.53,1.82-3.79,11.49,1.86,8.76,7.65,4.2L655,590.12l23.36-24.41,11.28-8,1.56,8.85s8.72,3.74,16-.94l12.93-4.56s2-8.15-6.27-6.68l-14.92,4.38s.83-11.6,8.54-15.8c0,0,23.57-14.53,29.35-13.83l13.4-1.16-8.61-16.73s21.87-17.65,42.07-25.37c0,0,11.42-4.17-25-11.6l-19.08-8s-24.19-4.06-25.9,10.71A28.62,28.62,0,0,1,689,492.44Z"/><path class="cls-35" d="M698.43,501s-28.23-.33-27,37.34c0,0,1,22.46-11.59,34.77l-10.32,10.49-8.44,2-3.23-5.65,3.37-12.14-5.53,1.82-3.79,11.49,1.86,8.76,7.65,4.2L655,590.12l23.36-24.41,11.28-8,1.56,8.85s8.72,3.74,16-.94l12.93-4.56s-.53,0-8.81,1.46l-12.38-3.76s.83-11.6,8.54-15.8c0,0,23.57-14.53,29.35-13.83l18.4,11.67,9.7-2.09,6.08-7.22-9.88.76L750.22,528l-8.61-16.73s21.87-17.65,42.07-25.37c0,0,11.42-4.17-25-11.6l-19.08-8s-20,2.23-21.68,17C717.92,483.31,716.47,500.26,698.43,501Z"/><path class="cls-25" d="M689.64,557.76c-9.16,2.93-20.93,18.55-20.93,18.55-9.43,13.28-18.37,16.93-23.31,17.88a11.08,11.08,0,0,1-8.54-2,12,12,0,0,1-5-11.1c.61-14,11.52-14.77,11.52-14.77-8.25,10.77-4.3,16.71-4.3,16.71,3.28,7.65,13.76-3,13.76-3,8.71-7.94,10.92-20.22,10.92-20.22.49-5.52.67-10.58-.25-15.05a82.13,82.13,0,0,1-2-12.76c-1.89-42.48,34.13-41.11,34.13-41.11,9,1.39,13.87-7.35,13.87-7.35s10.27-30,42.27-12.63c0,0,22.63,9,29.64,8.84,0,0,5.86,3,2.17,6.16,0,0-27.15,11.89-38.3,20.18,0,0-6.52,7,1,16.72a32,32,0,0,0,14.09,9.5s8-3.61,11.23,1.2a22.31,22.31,0,0,1-16,7.22s-12.79-2.67-18.83-11.56"/><path class="cls-25" d="M733.33,483.13S721.19,486,723,494.47c0,0,4.07,8.74,16.56,6.82"/><path class="cls-36" d="M738,495.28a8.57,8.57,0,0,1-9.13-1.94s-1.44-5,7-5.79"/><path class="cls-37" d="M763.27,488.13s-5.2,6.42-7.36,22"/><path class="cls-37" d="M768.22,486.74a25.92,25.92,0,0,0,2.54,13.5"/><path class="cls-37" d="M765.26,476.21s1.82-13.16,5-16.9"/><path class="cls-37" d="M770.79,477.11s2-7.86,6.09-10.43"/><ellipse class="cls-7" cx="748.41" cy="481.11" rx="4.18" ry="4.29" transform="translate(-139.29 540.96) rotate(-36.59)"/><path class="cls-38" d="M686.28,548.79s5.52,8.37,4.92,17.82c0,0,2.69,6,16-.94a23,23,0,0,0,4.57-2.58c2-1.6,2.34,6.16,4.9,6.21,0,0,3.9-9.43-6.27-6.68,0,0-5.57-6.45-11.46-3.81a58.39,58.39,0,0,0,2.35-7.6c1.36-5.71,2.21-13.27-1.11-17.74"/><path class="cls-39" d="M736.41,529.64c1.79-1.33-23.67,5.49-32.72,16.15"/><path class="cls-39" d="M716.93,513.08s8.65,11.39,16.38,11.77"/><path class="cls-7" d="M778.55,480.74s-2.07,2.26,1.08,7.25l4-2.07,1.32-4.49"/></g><circle class="cls-15" cx="738.15" cy="490.76" r="73.03"/><g class="cls-40"><circle class="cls-2" cx="540" cy="490.76" r="73.03"/><g class="cls-41"><circle class="cls-4" cx="540" cy="490.76" r="73.03"/></g><path class="cls-42" d="M468.09,512.87s28.27-25.41,59.19-20.35c0,0,24.87,24.48,42.79,20.05,0,0-35.68,21.11-50.84,21.41C519.23,534,475.23,541.41,468.09,512.87Z"/><path class="cls-43" d="M530.49,509.7s3.44-7.79,8.89-8.62l-4.46-10.6-8.56-.83-2.64,6.13,6,12.87"/><polyline class="cls-43" points="552.28 489.65 559.84 482.1 562.18 486.4 560.36 497.99"/><path class="cls-44" d="M502.1,487.49s-23.66,6.2-40.59,23.55l-14,5.07s-.62-43.1-28.66-32.76c0,0,9.27-44-31.59-63.8,0,0-1-33.06-16.89-45.72,0,0,31.45,1.4,37.37,2.67,0,0,69.26,30.33,83.71,44.78l-2.9,47.45S496.6,490,502.1,487.49Z"/><path class="cls-44" d="M449.29,515.68s-.51,6.44-9,12.1c0,0-7.72.26,7.73,17l9.52,12.36L477.37,528l-13.91-19"/><path class="cls-44" d="M528.25,481.36l9.49-20.49,43.12-46,65-49.66L675.12,363s-15.94,26.94-12.53,41.36c0,0-53.4,12.07-74.27,63.3l-38.17,19.89.16,0Z"/><path class="cls-25" d="M449.88,521.32s-10.33,5.78-13.06,11.24c0,0,16.71,16.11,20.35,26.13l21.27-28.86"/><path class="cls-25" d="M563.43,506.47a21.06,21.06,0,0,0-5.77-11.36c-14-17.76-44.74-10-44.74-10s-13.82-6-16.86-24.58c0,0-3.34-28.56-1.52-38.28,0,0-44.54-43.6-88.59-52.41,0,0-18.53-1.21-35.54,3.95,0,0,23.27,24.15,16.89,45.72,0,0,42.83,19.45,31.59,63.8,0,0,22.18-4.56,25.22,15.19a80.42,80.42,0,0,0,1.23,9.45"/><path class="cls-25" d="M468.26,514.75c1.09,13.26,21.52,18.83,21.52,18.83,32.29,7.53,65.92-12.3,65.92-12.3"/><path class="cls-37" d="M462.64,524.36s-6.68,9.12-5.47,23.09"/><path class="cls-37" d="M502,488,483.31,468.7s10.14-28.46,8.18-47.42c0,0-34.66,4.9-64.42,50"/><path class="cls-37" d="M395.35,414.74c33-14.39,96.14,6.54,96.14,6.54s-52.32-43.5-99.09-40.23"/><path class="cls-25" d="M494.54,422.29s6.71-6.77,11.94.42"/><path class="cls-25" d="M465.65,507s-9.81,9.15-23.54,9.15c0,0-5.23-3.59-6.54,3.93"/><path class="cls-37" d="M540.22,500.09s-2-10.14-12.1-11.77c0,0-10.47,2.61.65,20.93"/><path class="cls-37" d="M552.31,490.61s.33-6.22,8.51-8.83c0,0,2.94,5.23-.33,15.37"/><path class="cls-37" d="M473.57,501.42A47.09,47.09,0,0,1,493.18,489"/><path class="cls-25" d="M523.38,483.14s6.12-1.72,10.52-18.35c0,0,35.22-36.68,47-49.89,0,0,47.44-41.09,69.45-51.36,0,0,12.72-4.4,33.26,2,0,0-13.69,16.63-11.74,40.11,0,0-65.05,24.94-77.28,69.94,0,0-21.23,4-30.52,9.87"/><path class="cls-25" d="M577.43,418.81s8.81-2.93,10.77,3.43"/><path class="cls-37" d="M568.49,438l-23,27.89c-1,3.42.1,19,.1,19"/><path class="cls-37" d="M594.31,412.69s20.79-12,33.5-13.44c0,0,23.35-1,33.62,2"/><path class="cls-37" d="M580.48,426.84s5.14,29.73,8.56,41.47"/><circle class="cls-7" cx="545.48" cy="506.9" r="3.6"/><path class="cls-25" d="M557.62,504.66s8.31,4.94,13.48,3.82c0,0,7.64,4.49-16.63,13.48"/><line class="cls-37" x1="560.27" y1="519.05" x2="549.58" y2="515.22"/><path class="cls-45" d="M520.39,521a33.85,33.85,0,0,1-10.77,2.64"/><path class="cls-45" d="M511.3,513a85.86,85.86,0,0,1-11.44,1.68"/></g><circle class="cls-15" cx="540" cy="490.76" r="73.03"/><path class="cls-7" d="M233.29,349.78a4.81,4.81,0,0,1-4.81-4.81V312.68a4.81,4.81,0,0,1,4.81-4.81h9.07q15.15,0,15.15,10.34a10.53,10.53,0,0,1-1.52,5.48,8.24,8.24,0,0,1-4,3.54c-.11,0-.17,0-.17.16s0,.17.11.17a10.45,10.45,0,0,1,5.64,3.37,9.77,9.77,0,0,1,2.1,6.52q0,6.09-4.48,9.21t-11.72,3.12Zm3.59-25.43a.49.49,0,0,0,.56.55h4.31q3.87,0,5.75-1.43a4.81,4.81,0,0,0,1.88-4,4.37,4.37,0,0,0-1.85-3.93,10.53,10.53,0,0,0-5.67-1.21h-4.42a.49.49,0,0,0-.56.55Zm0,18.41a.5.5,0,0,0,.56.56h5.25q8.85,0,8.85-6.36a4.84,4.84,0,0,0-2.22-4.43q-2.2-1.38-6.63-1.38h-5.25a.49.49,0,0,0-.56.55Z"/><path class="cls-7" d="M268.12,362.67a9.23,9.23,0,0,1-1.1-.06,2.42,2.42,0,0,1-2.1-1.22,3.2,3.2,0,0,1-.5-1.71,3.16,3.16,0,0,1,.11-.83q.56-2.37,4-2.87t4.87-4.76l.44-1.33a1.52,1.52,0,0,0-.05-1.05l-10.62-26.7A3.25,3.25,0,0,1,263,321a2.44,2.44,0,0,1,.55-1.54,2.64,2.64,0,0,1,2.32-1.28,5.66,5.66,0,0,1,3.41,1.11,5.83,5.83,0,0,1,2.12,2.87l3.71,10.73c.11.3,1,3.24,2.6,8.85a.22.22,0,0,0,.38,0c.22-1,.59-2.43,1.11-4.4s.88-3.45,1.11-4.45L283.55,322a5.28,5.28,0,0,1,1.91-2.74,5.07,5.07,0,0,1,3.17-1.08,2.67,2.67,0,0,1,2.33,1.22,2.61,2.61,0,0,1,.55,1.6,3,3,0,0,1-.17.94l-9.95,28.92q-2.26,6-5.25,8.9A11.06,11.06,0,0,1,268.12,362.67Z"/><path class="cls-7" d="M322.25,350.56q-10.46,0-10.45-11.89V325.12c0-.33-.15-.49-.44-.49h-.94a3,3,0,0,1-3-3,3.36,3.36,0,0,1,3-3.38l1.27-.11c.37,0,.57-.16.61-.49l.5-4.54a3.82,3.82,0,0,1,1.27-2.49,3.75,3.75,0,0,1,2.6-1,3.48,3.48,0,0,1,3.48,3.48v4.48a.48.48,0,0,0,.55.55h4a3.22,3.22,0,0,1,2.3.94,3.27,3.27,0,0,1,0,4.65,3.22,3.22,0,0,1-2.3.94h-4a.48.48,0,0,0-.55.55v13.49c0,3.58,1.44,5.36,4.31,5.36h.17a4.88,4.88,0,0,1,2.32.56,2.49,2.49,0,0,1,1.27,1.77,2.87,2.87,0,0,1,.11.77,3.35,3.35,0,0,1-.44,1.66,2.88,2.88,0,0,1-1.93,1.44A21.49,21.49,0,0,1,322.25,350.56Z"/><path class="cls-7" d="M341.46,348.57a3.9,3.9,0,0,1-2.9,1.21,4.15,4.15,0,0,1-4.15-4.14V308.76a4.17,4.17,0,0,1,4.15-4.15,3.9,3.9,0,0,1,2.9,1.22,4,4,0,0,1,1.19,2.93V316l-.27,5.36a.22.22,0,0,0,.13.23.21.21,0,0,0,.25-.06q4.71-4.26,9.51-4.26,9.84,0,9.84,12.78v15.59a4.17,4.17,0,0,1-8.34,0V331c0-2.39-.35-4.1-1-5.11a3.87,3.87,0,0,0-3.43-1.52,6.31,6.31,0,0,0-3.07.74,15.55,15.55,0,0,0-3.12,2.46,1.2,1.2,0,0,0-.45.94v17.09A4,4,0,0,1,341.46,348.57Z"/><path class="cls-7" d="M384.4,350.56a15.27,15.27,0,0,1-11.31-4.48q-4.45-4.49-4.45-12.11a18.93,18.93,0,0,1,1.24-6.91,15.36,15.36,0,0,1,3.32-5.31,15.6,15.6,0,0,1,4.73-3.29,13.28,13.28,0,0,1,5.47-1.19q6.14,0,9.57,3.93a15.09,15.09,0,0,1,3.7,10.45,4.06,4.06,0,0,1-1.49,3.21,5.38,5.38,0,0,1-3.71,1.38H377.26a.47.47,0,0,0-.33.16.38.38,0,0,0-.11.39,8.68,8.68,0,0,0,2.93,5.5,8.78,8.78,0,0,0,5.75,1.91,12.14,12.14,0,0,0,4.54-.88,3.3,3.3,0,0,1,1.32-.28,4,4,0,0,1,.94.11,2.71,2.71,0,0,1,1.77,1.38,3.1,3.1,0,0,1,.39,1.49,3,3,0,0,1-.11.78,2.37,2.37,0,0,1-1.38,1.71A19.34,19.34,0,0,1,384.4,350.56Zm-7.69-20.24a.39.39,0,0,0,.11.28.38.38,0,0,0,.33.16H389a.52.52,0,0,0,.38-.16.54.54,0,0,0,.17-.39,7.65,7.65,0,0,0-1.66-4.78,5.52,5.52,0,0,0-4.37-1.69,6.44,6.44,0,0,0-4.37,1.66A6.58,6.58,0,0,0,376.71,330.32Z"/><path class="cls-7" d="M427.91,350.56q-10.46,0-10.45-11.89V325.12c0-.33-.15-.49-.44-.49h-.94a3,3,0,0,1-3-3,3.36,3.36,0,0,1,3-3.38l1.27-.11c.37,0,.57-.16.61-.49l.49-4.54a3.83,3.83,0,0,1,1.28-2.49,3.75,3.75,0,0,1,2.59-1,3.39,3.39,0,0,1,2.47,1,3.35,3.35,0,0,1,1,2.46v4.48a.48.48,0,0,0,.55.55h4a3.22,3.22,0,0,1,2.3.94,3.3,3.3,0,0,1,0,4.65,3.22,3.22,0,0,1-2.3.94h-4a.48.48,0,0,0-.55.55v13.49c0,3.58,1.44,5.36,4.31,5.36h.17a4.91,4.91,0,0,1,2.32.56,2.49,2.49,0,0,1,1.27,1.77,2.87,2.87,0,0,1,.11.77,3.35,3.35,0,0,1-.44,1.66,2.87,2.87,0,0,1-1.94,1.44A21.29,21.29,0,0,1,427.91,350.56Z"/><path class="cls-7" d="M447.12,348.57a3.9,3.9,0,0,1-2.9,1.21,4.15,4.15,0,0,1-4.15-4.14V308.76a4.17,4.17,0,0,1,4.15-4.15,3.9,3.9,0,0,1,2.9,1.22,4,4,0,0,1,1.19,2.93V316l-.28,5.36a.23.23,0,0,0,.14.23.22.22,0,0,0,.25-.06c3.13-2.84,6.31-4.26,9.51-4.26q9.84,0,9.84,12.78v15.59a4.18,4.18,0,0,1-8.35,0V331c0-2.39-.35-4.1-1.05-5.11a3.84,3.84,0,0,0-3.42-1.52,6.31,6.31,0,0,0-3.07.74,15.57,15.57,0,0,0-3.13,2.46,1.22,1.22,0,0,0-.44.94v17.09A4,4,0,0,1,447.12,348.57Z"/><path class="cls-7" d="M480.49,313a5.12,5.12,0,0,1-3.57-1.27,4.2,4.2,0,0,1-1.41-3.26,4.14,4.14,0,0,1,1.39-3.24,5.7,5.7,0,0,1,7.1,0,4.12,4.12,0,0,1,1.41,3.24,4.2,4.2,0,0,1-1.41,3.26A5,5,0,0,1,480.49,313Zm2.85,35.61a3.92,3.92,0,0,1-2.91,1.21,4.13,4.13,0,0,1-4.14-4.14V322.19a3.9,3.9,0,0,1,1.21-2.9,4.05,4.05,0,0,1,2.93-1.19,4.06,4.06,0,0,1,4.1,4.09v23.45A4.05,4.05,0,0,1,483.34,348.57Z"/><path class="cls-7" d="M500.53,348.57a3.9,3.9,0,0,1-2.9,1.21,4.15,4.15,0,0,1-4.15-4.14V321.48a3.41,3.41,0,0,1,3.38-3.38,3.68,3.68,0,0,1,2.51,1,3.76,3.76,0,0,1,1.25,2.41l.22,2.1a.1.1,0,0,0,.11.11.17.17,0,0,0,.16-.11,14.17,14.17,0,0,1,4.09-4.65,8.48,8.48,0,0,1,4.87-1.66h.17a2.74,2.74,0,0,1,2.32,1.39,3.7,3.7,0,0,1,.61,2,4.48,4.48,0,0,1-.11.89,3.32,3.32,0,0,1-1.52,2.18,5.88,5.88,0,0,1-2.8.91,6.84,6.84,0,0,0-3.76,1.5,10.21,10.21,0,0,0-3,4.2,2.5,2.5,0,0,0-.22,1.05v14.21A4.05,4.05,0,0,1,500.53,348.57Z"/><path class="cls-7" d="M528.76,350.56a11.47,11.47,0,0,1-9.48-4.43q-3.53-4.41-3.52-12.16,0-7.47,4-12.08a12,12,0,0,1,9.37-4.62,10,10,0,0,1,4.12.78,14,14,0,0,1,3.51,2.32.2.2,0,0,0,.25,0c.09-.06.12-.12.08-.2l-.28-4.42v-7a4.17,4.17,0,0,1,4.15-4.15,4.1,4.1,0,0,1,3,1.22,4,4,0,0,1,1.24,2.93v37.65a3.38,3.38,0,0,1-3.37,3.37h-.39A3.61,3.61,0,0,1,539,349a3.37,3.37,0,0,1-1.24-2.1l-.06-.27a.16.16,0,0,0-.13-.06.17.17,0,0,0-.14.06Q533.28,350.56,528.76,350.56ZM526,341.21a5.53,5.53,0,0,0,4.87,2.49,7.07,7.07,0,0,0,5.55-2.82,1.6,1.6,0,0,0,.33-1V327.06a1,1,0,0,0-.44-.88,8.19,8.19,0,0,0-5.42-2.05,5.63,5.63,0,0,0-4.7,2.6,12,12,0,0,0-1.88,7.13C524.33,337.1,524.9,339.56,526,341.21Z"/><path class="cls-7" d="M578,350.56a11.47,11.47,0,0,1-9.48-4.43Q565,341.72,565,334q0-7.47,4-12.08a12,12,0,0,1,9.37-4.62,10,10,0,0,1,4.12.78,14,14,0,0,1,3.51,2.32.2.2,0,0,0,.25,0c.09-.06.12-.12.08-.2l-.27-4.42v-7a4.15,4.15,0,0,1,4.14-4.15,4.09,4.09,0,0,1,3,1.22,4,4,0,0,1,1.25,2.93v37.65a3.4,3.4,0,0,1-3.38,3.37h-.38a3.57,3.57,0,0,1-2.35-.83,3.34,3.34,0,0,1-1.25-2.1l0-.27a.2.2,0,0,0-.14-.06.18.18,0,0,0-.14.06Q582.56,350.56,578,350.56Zm-2.74-9.35a5.53,5.53,0,0,0,4.87,2.49,7.11,7.11,0,0,0,5.56-2.82,1.6,1.6,0,0,0,.33-1V327.06a1,1,0,0,0-.44-.88,8.21,8.21,0,0,0-5.42-2.05,5.62,5.62,0,0,0-4.7,2.6,11.9,11.9,0,0,0-1.88,7.13C573.6,337.1,574.16,339.56,575.28,341.21Z"/><path class="cls-46" d="M678.39,340.19q-7.87,11.1-21.11,11.09t-21.06-11.09q-7.83-11.08-7.83-31.67t7.77-31.24a26.16,26.16,0,0,1,42.23.1q7.88,10.78,7.88,31.14Q686.27,329.1,678.39,340.19Zm-25.29-5.25a7.53,7.53,0,0,0,8.25,0,11.52,11.52,0,0,0,3.32-4.18,27.16,27.16,0,0,0,2.36-8.52,99.43,99.43,0,0,0,.8-13.72A97.24,97.24,0,0,0,667,295a25,25,0,0,0-2.36-8.3,10.7,10.7,0,0,0-3.32-3.92,7.54,7.54,0,0,0-4.13-1.12,7.24,7.24,0,0,0-4.07,1.12,10.57,10.57,0,0,0-3.22,3.92,26.17,26.17,0,0,0-2.3,8.3,95.73,95.73,0,0,0-.8,13.56,97.88,97.88,0,0,0,.8,13.72,30,30,0,0,0,2.25,8.52A10.72,10.72,0,0,0,653.1,334.94Z"/><path class="cls-7" d="M728,350.56a9.08,9.08,0,0,1-6.8-2.66,9.2,9.2,0,0,1-2.6-6.74,8.86,8.86,0,0,1,4.23-7.82q4.23-2.8,13.46-3.85a.49.49,0,0,0,.5-.61q-.45-4.92-5.31-4.92a14.08,14.08,0,0,0-6,1.55,3.43,3.43,0,0,1-1.44.33,3.11,3.11,0,0,1-1-.16,2.85,2.85,0,0,1-1.83-1.44,3.15,3.15,0,0,1-.44-1.55,2.48,2.48,0,0,1,.16-.88,2.85,2.85,0,0,1,1.5-1.88,23.54,23.54,0,0,1,10.5-2.66q6,0,9.1,3.57t3.07,10.42v15.15a3.4,3.4,0,0,1-3.38,3.37h-.27a3.64,3.64,0,0,1-2.41-.85,3.81,3.81,0,0,1-1.3-2.19v-.27a.17.17,0,0,0-.14-.06.16.16,0,0,0-.13.06Q732.66,350.56,728,350.56Zm2.71-6.47q2.87,0,5.75-2.77a1.29,1.29,0,0,0,.38-.94v-5.25a.56.56,0,0,0-.16-.39.49.49,0,0,0-.33-.11h-.06q-5.25.72-7.49,2.22a4.32,4.32,0,0,0-2.24,3.64,3.23,3.23,0,0,0,1.13,2.71A4.78,4.78,0,0,0,730.73,344.09Z"/><path class="cls-7" d="M761.47,350.56q-4.15,0-6-2.49c-1.22-1.66-1.83-4.05-1.83-7.19V308.76a4.17,4.17,0,0,1,4.15-4.15,3.9,3.9,0,0,1,2.9,1.22,4.05,4.05,0,0,1,1.19,2.93v32.51a2.43,2.43,0,0,0,1,2.32,3.66,3.66,0,0,0,.5.28c.3.15.5.26.61.33l.47.33a1.25,1.25,0,0,1,.41.47,2.34,2.34,0,0,1,.17.53l.22,1.21a3.79,3.79,0,0,1,.06.67,3.49,3.49,0,0,1-.56,1.88,2.57,2.57,0,0,1-2,1.21C762.33,350.54,761.91,350.56,761.47,350.56Z"/><path class="cls-7" d="M779.27,350.56q-4.14,0-6-2.49c-1.22-1.66-1.83-4.05-1.83-7.19V308.76a4.17,4.17,0,0,1,4.15-4.15,3.9,3.9,0,0,1,2.9,1.22,4,4,0,0,1,1.19,2.93v32.51a2.41,2.41,0,0,0,1,2.32,2.62,2.62,0,0,0,.5.28l.6.33.47.33a1.29,1.29,0,0,1,.42.47,2.33,2.33,0,0,1,.16.53l.22,1.21a3.79,3.79,0,0,1,.06.67,3.48,3.48,0,0,1-.55,1.88,2.58,2.58,0,0,1-2.05,1.21C780.14,350.54,779.71,350.56,779.27,350.56Z"/><path class="cls-7" d="M803,350.56a15.23,15.23,0,0,1-11.3-4.48q-4.46-4.49-4.45-12.11a18.93,18.93,0,0,1,1.24-6.91,15.36,15.36,0,0,1,3.32-5.31,15.6,15.6,0,0,1,4.73-3.29,13.25,13.25,0,0,1,5.47-1.19q6.13,0,9.56,3.93a15.1,15.1,0,0,1,3.71,10.45,4.06,4.06,0,0,1-1.49,3.21,5.4,5.4,0,0,1-3.71,1.38H795.91a.47.47,0,0,0-.33.16.38.38,0,0,0-.11.39,8.64,8.64,0,0,0,2.93,5.5,8.77,8.77,0,0,0,5.75,1.91,12.05,12.05,0,0,0,4.53-.88A3.38,3.38,0,0,1,810,343a4,4,0,0,1,.94.11,2.71,2.71,0,0,1,1.77,1.38,3.1,3.1,0,0,1,.39,1.49,3,3,0,0,1-.11.78,2.36,2.36,0,0,1-1.39,1.71A19.28,19.28,0,0,1,803,350.56Zm-7.68-20.24a.39.39,0,0,0,.11.28.36.36,0,0,0,.33.16h11.83a.53.53,0,0,0,.39-.16.54.54,0,0,0,.17-.39,7.65,7.65,0,0,0-1.66-4.78,5.52,5.52,0,0,0-4.37-1.69,6.43,6.43,0,0,0-4.37,1.66A6.58,6.58,0,0,0,795.36,330.32Z"/><path class="cls-47" d="M492.09,887.23s-10.27,14-10.8,28.93c0,0-3.5,38.53-9.71,48.18l-1,106.29,163.77-21.24-13.6-55.06-74-70.73s4.67-45.68,8.06-50.85l-45.54,45.37S491.68,899.73,492.09,887.23Z"/><path class="cls-47" d="M590.27,883.89s-10.21-19.11-23.6,10.64c0,0-7.49,30.49,5.83,34.41l6.28,11.71,14,11,26,6.24,11.63,8.35S621.91,903.57,590.27,883.89Z"/><path class="cls-47" d="M472.24,895.64l-.44,64.15S431.75,974.57,449,944.45C449,944.45,450.25,902.89,472.24,895.64Z"/><path class="cls-4" d="M617.15,876.59s69.33,11,91.58,109.58c0,0,11.51,81.93-50.17,61.66l-38.7-86,11.67-5.59.83-15.7,15.93,4.75L659.22,937,612.91,884.1Z"/><path class="cls-3" d="M616.13,881.05s39.63,9.34,72.93,86.45c7,16.24,9.62,34.3,6.23,51.66-3.74,19.19-14.62,37.78-44.3,27.53L631.7,996.64,628,958.18l.93-15.24-9.24-18.1-28.4-46.19,21,9.74Z"/><path class="cls-48" d="M620.41,875.69s114.33,60.08,78.29,178"/><path class="cls-49" d="M647.68,932.83s22.17,43.18,27.83,63.94"/><polyline class="cls-50" points="491.43 874 492.09 887.23 500.09 908.28 513.4 919.14 530.69 897.88 563.28 861.08"/><path class="cls-51" d="M580.22,944.58l17.13,9,21.42,4.25s13,5.76,9.54,30.2l-12.95,5.8-43.3-7.08S582.77,975.62,580.22,944.58Z"/><path class="cls-51" d="M445.58,962.08s18.36,1.28,21.52.1l4.95,33.66s-36.76,12.93-48.59.85"/><path class="cls-52" d="M580.22,944.58s15.14,10.69,26.55,10.29"/><path class="cls-48" d="M572.06,986.8s23.79,8.62,43,8.57c10.5,0,18.56-9.3,17.82-19.77-1.4-20.13-8.29-55.55-47.22-97.62,0,0-10.24-11.46-25.17-10.38"/><path class="cls-48" d="M468.72,925.8s4.52,78.19.81,132"/><path class="cls-48" d="M420.65,996.13s28.89,11.34,48.88.92"/><path class="cls-48" d="M443.49,961.06s7.9,3.51,15.73,1.35"/><ellipse class="cls-53" cx="434.58" cy="960.1" rx="15.51" ry="11.18" transform="translate(-587.39 1217.44) rotate(-79.78)"/><line class="cls-54" x1="415.97" y1="987.13" x2="402.55" y2="987.52"/><line class="cls-54" x1="416.39" y1="970.61" x2="402.67" y2="970.8"/><line class="cls-54" x1="415.95" y1="953.12" x2="404.55" y2="953.69"/><line class="cls-49" x1="500.41" y1="877.91" x2="505.84" y2="891.18"/><path class="cls-48" d="M602.52,954.36s18.43-.73,29.9,19.81"/><circle class="cls-54" cx="526.74" cy="1021.72" r="7.91"/><path class="cls-48" d="M630.51,990.28s7.62,19.74,14.56,51"/><path class="cls-48" d="M488.13,877.92s-30.92,10.33-41.76,73.47"/><path class="cls-55" d="M567.4,1007l-18.79,2.87c-3.2.49-6.32-2.56-7-6.81L536,965.84l30.38-4.63L572,998.42C572.68,1002.66,570.6,1006.5,567.4,1007Z"/><path class="cls-56" d="M557.1,869.58l-46.62,50.48s-14.88-8.9-19-43.17"/><path class="cls-48" d="M575.39,869.62s15.33-4.36,26.33.62"/><path class="cls-49" d="M580.16,878.73s-18.46,4.89-14.78,44"/><path class="cls-49" d="M552.23,885s-6.44,16.53-4.18,35.45"/><path class="cls-57" d="M591.35,939s16.46-5.18,24.46,2.54"/><path class="cls-49" d="M486.85,896.71s-7.53,16.45-6.12,31.46"/><path class="cls-52" d="M480.92,651.61a11.82,11.82,0,0,1,13.21-10.24,12,12,0,0,1,10.15,8.32"/><polyline class="cls-4" points="558.12 864.9 581.89 840.08 677.85 850.74 684.22 838.57 637.48 816.96 619.85 810.63 623.32 789.84 611.91 775.18 613.7 744.39 598.38 704.34 543.17 671.71 515.66 675.67"/><path class="cls-4" d="M519.24,651.93s-89.31-15.38-112.63,81.57c0,0-24,6.61-22.37,30.11,0,0,113.37-24.27,247.49-16.55,0,0-12.4-19.88-33.18-29.9C598.55,717.16,585.34,654.56,519.24,651.93Z"/><path class="cls-58" d="M504.06,654.1s-74.13-17.55-97.45,79.4c0,0-24,6.61-22.37,30.11,0,0,88.39-25.75,222.51-18,0,0-1.47-12.18-22.26-22.2C584.49,723.38,570.16,656.73,504.06,654.1Z"/><path class="cls-59" d="M463.8,702.28l-48.7,9.62-8.49,21.6,61.44-9.63S459.8,714,463.8,702.28Z"/><path class="cls-59" d="M509.13,698.64,507,720.5,552,719.19s-6.79-14.79-7.39-19.76"/><path class="cls-60" d="M411.75,757.67s-17.24,20.81-.69,28.94l7.61-.38-.5-30"/><polyline class="cls-50" points="430.63 785.31 404.2 787.59 394.07 804.39 398.4 830.18 410.96 840.71 439.79 838.03"/><path class="cls-60" d="M419.79,839.31s-45.34,31.82-46.89,41.89l8.69,9.85L397,886.78l-3.53,16.84,38.79,25.12S460,872.2,460.12,870.66L460,872.2l-20.17-18-6.94-14.08"/><path class="cls-48" d="M418.67,786.23c-4.33-1.49-14.53-3.21-21.48,9.89,0,0-9.54,26.14,11,42.16,0,0,12.41,7,21.82.63"/><path class="cls-61" d="M420.57,800.77c-2.83-1.15-8.85-2.47-11.64,5.43,0,0-3.72,26.92,17.42,19.19"/><path class="cls-48" d="M416.73,841.67c-10,5.38-27.22,17-43.83,39.53,0,0,3.23,4.16,8.69,9.85.14.15,15.44-4.27,15.44-4.27s-3.87,16.56-3.53,16.84c12.67,10.4,27.14,21.74,38.79,25.12,0,0,13.77-18.49,25-58.83"/><path class="cls-62" d="M422.18,863.32s-10.59,6.3-16.76,14.33"/><line class="cls-62" x1="433.65" y1="868.66" x2="424.84" y2="882.39"/><path class="cls-50" d="M421.11,753.41s-9.06,94.13,43.09,119.36c0,0,60.88,33,102.32-21.22,0,0,15.91-21.75,13.21-72.77-.56-10.51-11.28-21.87-13.71-34.91"/><path class="cls-49" d="M406.61,733.5s67.47-19.77,198.67-11.23"/><path class="cls-49" d="M415.1,711.9s55.87-17.5,182.57-9.77"/><path class="cls-49" d="M519.4,661.85s9.06,3.88,16.38,15.45"/><path class="cls-56" d="M451.79,788.79s-8-1.75-10.1-9.42"/><ellipse class="cls-63" cx="551.33" cy="821.01" rx="13.39" ry="11.84" transform="translate(-59.87 43.54) rotate(-4.29)"/><ellipse class="cls-63" cx="453.5" cy="828.35" rx="13.39" ry="11.84" transform="matrix(1, -0.07, 0.07, 1, -60.69, 36.24)"/><ellipse class="cls-7" cx="538.06" cy="789.36" rx="11.71" ry="14.05" transform="matrix(1, -0.07, 0.07, 1, -57.54, 42.46)"/><path class="cls-56" d="M531.92,783.29s-8-1.75-10.1-9.41"/><ellipse class="cls-7" cx="457.94" cy="794.86" rx="11.71" ry="14.05" transform="matrix(1, -0.07, 0.07, 1, -58.18, 36.48)"/><path class="cls-48" d="M482.92,797.93s-.85,9.35,11.15,11"/><path class="cls-48" d="M531.69,758.86s13.46-3.88,20.55,2.43"/><path class="cls-48" d="M456.63,762.66s-13.88-1.83-20,5.47"/><path class="cls-48" d="M612.45,750s1.82,13.39-.51,20.53"/><path class="cls-48" d="M418.84,786.22c-4.33-1.48-14.53-3.2-21.47,9.9,0,0-9.54,26.14,11,42.15,0,0,12.41,7,21.82.63"/><path class="cls-48" d="M405.31,784.49c-2.45-14.27,1-23.48,1-23.48"/><circle class="cls-64" cx="484.48" cy="706.13" r="24.26"/><circle class="cls-54" cx="483.55" cy="706.52" r="11.17"/><path class="cls-49" d="M481.58,661.45s-2.23,7.18-1.73,12.19"/><path class="cls-48" d="M580.11,769.76a60.24,60.24,0,0,0-18.26-23.21"/><path class="cls-60" d="M567.37,747.9s20.16,5.08,26,22.92L604,769.51s-.17-17-4.34-22.89Z"/><path class="cls-48" d="M384.24,763.61s70.44-23.49,247.49-16.55c0,0-5.44-14.41-26.45-24.79,0,0-15.41-79.62-114-70.38,0,0-65.74,3-84.66,81.61C406.61,733.5,385.81,740.89,384.24,763.61Z"/><path class="cls-4" d="M605.41,687.09a11.65,11.65,0,1,0-21-9.15,40.16,40.16,0,0,0-10.25.57,40.64,40.64,0,0,0-9.7,3.32,11.65,11.65,0,1,0-16.08,16.39,20.9,20.9,0,0,0-1.16,11.47c2.69,13.79,19.12,22.19,36.69,18.76s29.62-17.38,26.93-31.17A20.81,20.81,0,0,0,605.41,687.09Z"/><path class="cls-3" d="M597.07,688.71a12.61,12.61,0,0,0,1.25-8.53c-1.23-6.32-5.31-9-10.76-7.91-4,.77-1.81.94-2.6,5.18-2.88-.29-12.22,1.33-15.24,1.92a30.13,30.13,0,0,0-8.33,3c-2.33-3.62-6.27-5.7-10.24-4.92-5.46,1.06-8.87,7-7.64,13.37a12.66,12.66,0,0,0,4.37,7.44,23.36,23.36,0,0,0-.71,11.38c2.69,13.79,17.15,22.57,32.29,19.62S604.69,712.78,602,699A23.39,23.39,0,0,0,597.07,688.71Z"/><path class="cls-49" d="M605.41,687.09a11.65,11.65,0,1,0-21-9.15,40.16,40.16,0,0,0-10.25.57,40.64,40.64,0,0,0-9.7,3.32,11.65,11.65,0,1,0-16.08,16.39,20.9,20.9,0,0,0-1.16,11.47c2.69,13.79,19.12,22.19,36.69,18.76s29.62-17.38,26.93-31.17A20.81,20.81,0,0,0,605.41,687.09Z"/><path class="cls-49" d="M563.4,706.88s21.48,11.5,30.1-5.88"/><circle class="cls-7" cx="555.65" cy="689.21" r="5.5"/><circle class="cls-7" cx="595.09" cy="681.52" r="5.5"/><circle class="cls-7" cx="561.16" cy="706.82" r="5.02"/><circle class="cls-7" cx="596.38" cy="699.95" r="5.02"/><path class="cls-50" d="M594.17,776.93s25-3.58,20.59,41.86L599.83,829,588,824.79Z"/><path class="cls-60" d="M620.68,816.6s41,17.53,57.18,34.43l-17.85.83,8.85,14.95L634.8,903.12l-44.86-49.34-5.64-13.16,5.86-12.8,17.18-2.12"/><path class="cls-48" d="M592.67,774.19s13.17-10.06,24.62,5.43c0,0,13.33,24.42-4.63,43.32,0,0-13.72,10.72-24.68,1.85"/><path class="cls-61" d="M593.46,788.66s8.48-7.19,13.72,2.67c0,0,7.69,26.06-14.37,21.56"/><path class="cls-48" d="M622.11,812.56s26.79,5.7,62.12,26.31c0,0-2.22,5-6.37,12.16-.1.18-17.85.83-17.85.83s9.13,14.58,8.85,14.95c-10.47,14-22.58,29.38-34.06,36.31,0,0-24.41-15.54-52.9-62.74"/><path class="cls-65" d="M619,832.41s13.26,2.65,22.29,8.36"/><line class="cls-62" x1="608.29" y1="841.15" x2="621.86" y2="851.46"/><path class="cls-48" d="M419.89,761.58S409,850.17,465.44,873.29c0,0,65.93,25.52,111.63-25.92,0,0,22.86-22.57,12.8-85.9"/><path class="cls-56" d="M482.55,828.19s5.38,8.89,16.11,3.86,17.69-2.35,17.69-2.35"/><path class="cls-66" d="M601.66,913.68a9.16,9.16,0,1,0-13.4-12.49L583.78,906c5.29,3.45,10.45,6.9,14.07,11.76Z"/><path class="cls-67" d="M530.33,990l67.52-72.23c-3.62-4.86-8.78-8.31-14.07-11.76l-66.85,71.51Z"/><polyline class="cls-68" points="516.91 977.72 511.8 989.82 506.7 1001.93 518.41 995.98 530.13 990.03"/><path class="cls-69" d="M530.33,990l-13.4-12.48,71.33-76.33a9.16,9.16,0,0,1,13-.45h0a9.15,9.15,0,0,1,.45,12.94Z"/><line class="cls-70" x1="584.04" y1="907.05" x2="595.83" y2="918.04"/><path class="cls-71" d="M529.7,945s-10.57-.15-14.52,5.23c0,0-7.89,12.56,8.25,13.63"/><path class="cls-4" d="M585.14,932.69s-24.39-20.45-49.51,6.1c0,0-16.14,17.58-10.76,28.34,0,0,4.66,7.9,12.91,4.67,0,0,2.52,4.3,5.39,10,0,0,3.58,5,9.68,3.95,0,0,7.18,6.82,15.43,3.59,0,0,13.81,8.67,28.37-16.85a21.37,21.37,0,0,0,3-11.57C599.27,954.16,596.62,943.29,585.14,932.69Z"/><path class="cls-50" d="M577.25,940.45s-21.26-17.72-43.14,5.28c0,0-14.07,15.24-9.38,24.56,0,0,4.06,6.84,11.25,4,0,0,2.19,3.73,4.69,8.71a16.12,16.12,0,0,0,9.6,1.4s9,6.42,16.17,3.63c0,0,10.54,12.82,23.23-9.29,1.75-3,.36-10.34.19-13.84C589.56,959.05,587.26,949.63,577.25,940.45Z"/><path class="cls-48" d="M585.14,932.69s-24.39-20.45-49.51,6.1c0,0-16.14,17.58-10.76,28.34,0,0,4.66,7.9,12.91,4.67,0,0,.52,6.43,4.74,9.5,0,0,3.54,3,9.64,1.88,0,0,6.9,7.24,15.16,4,0,0,14.77,10.86,29.33-14.66a21.37,21.37,0,0,0,3-11.57C599.27,954.16,596.62,943.29,585.14,932.69Z"/><path class="cls-49" d="M539.94,963.9s8.25-9.68,13.63-11.83"/><line class="cls-49" x1="554.98" y1="974.09" x2="561.63" y2="965.13"/><line class="cls-49" x1="568.75" y1="977.74" x2="574.05" y2="970.87"/><path class="cls-4" d="M303.94,1105s-26.75,1.51-83.83-7.54c0,0,33.89,43.73,46.38,52.77,0,0-33.89,31.67-62.43,43.73,0,0,67.55,21.92,144.36,21.92"/><path class="cls-72" d="M328.88,1115.12s-36.75,8-93.83-1c0,0,18.95,27.08,31.44,36.12,0,0-33.89,31.67-62.43,43.73,0,0,67.55,21.92,144.36,21.92"/><polyline class="cls-73" points="301.15 1173.87 348.42 1215.87 348.42 1160.7"/><path class="cls-4" d="M776.06,1105s26.75,1.51,83.83-7.54c0,0-33.89,43.73-46.38,52.77,0,0,33.89,31.67,62.43,43.73,0,0-67.55,21.92-144.36,21.92"/><path class="cls-72" d="M774.55,1116.14s21.42,7.14,69.35-3.06c0,0-17.9,28.1-30.39,37.14,0,0,33.89,31.67,62.43,43.73,0,0-67.55,21.92-144.36,21.92"/><path class="cls-74" d="M303.94,1105s-26.75,1.51-83.83-7.54c0,0,33.89,43.73,46.38,52.77,0,0-33.89,31.67-62.43,43.73,0,0,67.55,21.92,144.36,21.92"/><path class="cls-74" d="M776.06,1105s26.75,1.51,83.83-7.54c0,0-33.89,43.73-46.38,52.77,0,0,33.89,31.67,62.43,43.73,0,0-67.55,21.92-144.36,21.92"/><polyline class="cls-73" points="778.85 1173.87 731.58 1215.87 731.58 1160.7"/><path class="cls-4" d="M778.85,1070s-88.56-33.31-234.15-33.47h-.92c-145.59.16-242.63,33.47-242.63,33.47v103.83c21.21-6.75,46.18-12.32,71.84-16.9a954.15,954.15,0,0,1,334,0c25.66,4.58,50.63,10.15,71.84,16.9Z"/><path class="cls-72" d="M755.26,1094.92s-65.33-35.07-210.56-44.15h-.92c-145.59.14-230.37,26.68-230.37,26.68v92.8c21.21-6,33.92-7.78,59.58-11.87a1065.52,1065.52,0,0,1,334,0c25.66,4.09,27,5.85,48.25,11.87Z"/><path class="cls-74" d="M778.85,1070s-88.56-33.31-234.15-33.47h-.92c-145.59.16-242.63,33.47-242.63,33.47v103.83c21.21-6.75,46.18-12.32,71.84-16.9a954.15,954.15,0,0,1,334,0c25.66,4.58,50.63,10.15,71.84,16.9Z"/><polygon class="cls-75" points="725.46 1079.21 731.16 1097.84 749.75 1103.7 733.79 1114.88 733.97 1134.36 718.4 1122.65 699.92 1128.83 706.25 1110.41 694.67 1094.75 714.14 1095.08 725.46 1079.21"/><polygon class="cls-76" points="722.01 1090.89 725.7 1102.95 737.74 1106.75 727.41 1113.99 727.52 1126.6 717.44 1119.02 705.48 1123.02 709.58 1111.09 702.07 1100.95 714.68 1101.16 722.01 1090.89"/><polygon class="cls-75" points="354.54 1079.21 348.83 1097.84 330.25 1103.7 346.21 1114.88 346.03 1134.36 361.6 1122.65 380.07 1128.83 373.75 1110.41 385.33 1094.75 365.86 1095.08 354.54 1079.21"/><polygon class="cls-76" points="357.99 1090.89 354.3 1102.95 342.26 1106.75 352.59 1113.99 352.48 1126.6 362.56 1119.02 374.52 1123.02 370.43 1111.09 377.93 1100.95 365.32 1101.16 357.99 1090.89"/><path class="cls-4" d="M457.23,1104.68a3.79,3.79,0,0,1,2.95.85,4,4,0,0,1,.62,5.59,3.83,3.83,0,0,1-2.7,1.48l-2,.22a.52.52,0,0,0-.52.65l.41,3.73a12.22,12.22,0,0,1-.27,5,5.77,5.77,0,0,1-2.55,3.08,18.31,18.31,0,0,1-6.9,2.12l-.23,0a5,5,0,0,1-3.2-.7,6.75,6.75,0,0,1-2.55-2.79,3.18,3.18,0,0,1-.29-1,3,3,0,0,1,.29-1.62,2.59,2.59,0,0,1,2.14-1.47l1.51-.17,1.22-.14.82-.09a2,2,0,0,0,1.11-.38,1.23,1.23,0,0,0,.21-1l-.4-3.61a.52.52,0,0,0-.65-.52l-24.92,2.76a.52.52,0,0,0-.52.65l.94,8.5a4.14,4.14,0,0,1-.92,3.14,4.24,4.24,0,0,1-2.92,1.59,4.19,4.19,0,0,1-3.19-.92,4.1,4.1,0,0,1-1.59-2.86l-.94-8.5a.52.52,0,0,0-.65-.52l-2.09.23a3.81,3.81,0,0,1-3-.85,4,4,0,0,1-.61-5.59,3.81,3.81,0,0,1,2.69-1.48l2.1-.23a.52.52,0,0,0,.52-.65l-1.78-16a5.1,5.1,0,0,1,4.51-5.63l11.41-1.26a.52.52,0,0,0,.52-.65l-.18-1.69a.52.52,0,0,0-.65-.52l-16.6,1.84a4,4,0,0,1-4.4-3.52,4,4,0,0,1,3.53-4.4l43.62-4.83a3.8,3.8,0,0,1,2.95.86,4,4,0,0,1,.62,5.59,3.78,3.78,0,0,1-2.7,1.47l-17.12,1.9a.52.52,0,0,0-.52.65l.19,1.68a.52.52,0,0,0,.65.52l11.93-1.32a5.1,5.1,0,0,1,5.63,4.51l1.77,16a.52.52,0,0,0,.65.52Zm-30.42-10.14a.52.52,0,0,0-.65-.52l-7.28.81a.52.52,0,0,0-.52.65l.23,2a.52.52,0,0,0,.65.52l7.28-.8a.52.52,0,0,0,.51-.65ZM420,1105.31a.52.52,0,0,0-.52.65l.25,2.27a.52.52,0,0,0,.65.52l7.28-.81a.52.52,0,0,0,.52-.64L428,1105a.51.51,0,0,0-.65-.51Zm24.42-12.72a.52.52,0,0,0-.65-.52l-7.75.86a.52.52,0,0,0-.52.64l.23,2a.52.52,0,0,0,.65.52l7.74-.86a.51.51,0,0,0,.52-.64Zm-7.5,13.74a.51.51,0,0,0,.64.52l7.75-.86a.52.52,0,0,0,.52-.65l-.26-2.27a.51.51,0,0,0-.64-.52l-7.75.86a.52.52,0,0,0-.52.65Z"/><path class="cls-4" d="M531.66,1085.82a3.68,3.68,0,0,1,.16,5.15,3.47,3.47,0,0,1-2.55,1.16l-12.35.38a.94.94,0,0,0-.87.55l-1,2.32a.44.44,0,0,0,0,.35.32.32,0,0,0,.33.16l14-.42a3.42,3.42,0,0,1,2.61,1,3.55,3.55,0,0,1,1.14,2.54,3.47,3.47,0,0,1-1,2.58,3.52,3.52,0,0,1-2.55,1.13l-1.93.06a.73.73,0,0,0-.74.61,28.63,28.63,0,0,1-2.87,7.82c-.23.36-.16.61.2.76,1.93.8,3.7,1.59,5.28,2.36a3.22,3.22,0,0,1,1.84,2.47,2.87,2.87,0,0,1,.07.58,3.43,3.43,0,0,1-.86,2.37,4.44,4.44,0,0,1-2.94,1.67,3.34,3.34,0,0,1-.7.08,4.92,4.92,0,0,1-2.66-.68c-1.67-.93-3.57-1.88-5.72-2.87a1.1,1.1,0,0,0-1,.09q-5.34,3.5-15.83,5.52a5.78,5.78,0,0,1-.7.08,4.06,4.06,0,0,1-2.31-.64,5.38,5.38,0,0,1-2.18-2.39,3.26,3.26,0,0,1-.23-1.61,2.33,2.33,0,0,1,.69-1.4,2.55,2.55,0,0,1,1.42-.74,43.39,43.39,0,0,0,10.36-2.43.22.22,0,0,0,.17-.21.24.24,0,0,0-.18-.2,19.39,19.39,0,0,0-2-.7q-.12,0-.12,0a.91.91,0,0,1-1.15.51l-3-.85a3.17,3.17,0,0,1-2.11-1.81,3.67,3.67,0,0,1-.27-1.28,3.57,3.57,0,0,1,.31-1.54q.93-2,2-4.28a.41.41,0,0,0-.07-.35.33.33,0,0,0-.3-.16l-3.05.09a2.69,2.69,0,0,1-1.95-.73,2.58,2.58,0,0,1-.88-1.94c0-.2-.11-.27-.3-.23l-3.14,1a.63.63,0,0,0-.5.72l.36,12.12a15.78,15.78,0,0,1-.46,5,5.5,5.5,0,0,1-2.11,2.87,12.13,12.13,0,0,1-5.05,1.68,2.85,2.85,0,0,1-.53.08,4.39,4.39,0,0,1-2.84-1,6.53,6.53,0,0,1-2.15-3.1,4.45,4.45,0,0,1-.14-.94,3.27,3.27,0,0,1,.53-1.89,2.93,2.93,0,0,1,2.42-1.3l.94,0a1.16,1.16,0,0,0,.84-.29,1.24,1.24,0,0,0,.23-.92l-.29-9.9a.4.4,0,0,0-.19-.34.49.49,0,0,0-.41,0l-1.28.33a3.27,3.27,0,0,1-1.05.21,3.85,3.85,0,0,1-2.13-.58,3.92,3.92,0,0,1-1.95-2.58,7.32,7.32,0,0,1-.09-.93,4.34,4.34,0,0,1,.63-2.31,4.26,4.26,0,0,1,2.7-1.9l2.91-.73a.64.64,0,0,0,.56-.72l-.25-8.32a.51.51,0,0,0-.6-.56l-1.87,0a3.82,3.82,0,0,1-2.85-1.08,4,4,0,0,1,2.6-6.88l1.88-.06a.52.52,0,0,0,.57-.6l-.19-6.15a4.09,4.09,0,0,1,1.11-3,4,4,0,0,1,2.89-1.29,4.12,4.12,0,0,1,3,1.12,4,4,0,0,1,1.32,2.92l.19,6.32a.36.36,0,0,0,.42.4,3.31,3.31,0,0,1,2.46.95,3.36,3.36,0,0,1,1.1,2.46l.11,3.69a.53.53,0,0,0,.61.57l6.73-.21a.47.47,0,0,0,.38-.19.43.43,0,0,0,.07-.41,34.32,34.32,0,0,0-1.26-5.06.69.69,0,0,0-.72-.45l-1.17,0a3.42,3.42,0,0,1-2.61-1,3.54,3.54,0,0,1-1.13-2.54,3.59,3.59,0,0,1,3.52-3.71l8.78-.27q.52,0,.51-.6V1071a4.31,4.31,0,0,1,1.19-3.17,4.17,4.17,0,0,1,3.07-1.41,4.49,4.49,0,0,1,4.58,4.31l0,.41q0,.58.54.57l8.67-.26a3.56,3.56,0,0,1,2.58,1,3.44,3.44,0,0,1,1.16,2.51,3.52,3.52,0,0,1-1,2.61,3.47,3.47,0,0,1-2.51,1.16l-.65,0a.64.64,0,0,0-.63.43q-1.34,4.14-1.71,5.27a.29.29,0,0,0,0,.35.39.39,0,0,0,.35.17l4.16-.13A3.42,3.42,0,0,1,531.66,1085.82Zm-39.38.28a.52.52,0,0,0-.57.6l.19,6.44a.49.49,0,0,0,.19.38.46.46,0,0,0,.41.08l2.33-.66a.63.63,0,0,0,.5-.72l-.16-5.62a.53.53,0,0,0-.61-.57Zm3.87,9.79a.65.65,0,0,0,.72.56l8.2-.25a.81.81,0,0,0,.8-.55l.87-2.31a.26.26,0,0,0,0-.35.45.45,0,0,0-.33-.17l-10.07.31a.47.47,0,0,0-.38.19.45.45,0,0,0-.07.41Zm21.72-16.37a.35.35,0,0,0-.1-.35.46.46,0,0,0-.38-.16l-7,.21a.39.39,0,0,0-.35.19.4.4,0,0,0-.05.35,28.8,28.8,0,0,1,1.33,5,.58.58,0,0,0,.66.57l3.92-.12a.74.74,0,0,0,.75-.55C517.17,1082.85,517.57,1081.13,517.87,1079.52Zm.5,24.14a.36.36,0,0,0,0-.41.5.5,0,0,0-.39-.17l-5.8.18a.94.94,0,0,0-.86.55c-.48,1.07-.88,1.93-1.21,2.56a.45.45,0,0,0,.31.7c1.54.42,3.25.93,5.15,1.54a.7.7,0,0,0,.87-.32A16.86,16.86,0,0,0,518.37,1103.66Z"/><path class="cls-4" d="M601.93,1103.73a3.81,3.81,0,0,1,2.8,1.28,3.91,3.91,0,0,1,1,2.86,3.87,3.87,0,0,1-1.25,2.76,3.8,3.8,0,0,1-2.89,1.06l-2-.08a.52.52,0,0,0-.61.56l-.15,3.75a12,12,0,0,1-1,4.92,5.73,5.73,0,0,1-3,2.66,18.19,18.19,0,0,1-7.13,1.07h-.24a5,5,0,0,1-3.06-1.17,6.73,6.73,0,0,1-2.1-3.13,3.26,3.26,0,0,1-.14-1.06,3,3,0,0,1,.53-1.57,2.6,2.6,0,0,1,2.33-1.14l1.53.06,1.22,0,.82,0a1.81,1.81,0,0,0,1.16-.22,1.19,1.19,0,0,0,.36-1l.14-3.63a.52.52,0,0,0-.56-.61l-25.06-1a.51.51,0,0,0-.61.56l-.34,8.55a4.11,4.11,0,0,1-1.37,3,4.22,4.22,0,0,1-3.13,1.13A4.3,4.3,0,0,1,555,1119l.33-8.55a.52.52,0,0,0-.56-.61l-2.11-.08a3.79,3.79,0,0,1-2.79-1.28,4,4,0,0,1,.22-5.62,3.79,3.79,0,0,1,2.89-1.06l2.1.08a.51.51,0,0,0,.61-.56l.64-16.1a5.09,5.09,0,0,1,5.29-4.9l11.47.45a.51.51,0,0,0,.61-.56l.07-1.7a.52.52,0,0,0-.56-.61l-16.69-.65a4,4,0,0,1,.31-8L600.7,1071a3.79,3.79,0,0,1,2.79,1.28,4,4,0,0,1-.22,5.62,3.79,3.79,0,0,1-2.89,1.06l-17.21-.67a.52.52,0,0,0-.61.56l-.06,1.7a.51.51,0,0,0,.56.6l12,.48a5.09,5.09,0,0,1,4.89,5.29l-.63,16.1a.52.52,0,0,0,.56.61Zm-36.86-4.91a.52.52,0,0,0-.61.56l-.09,2.29a.52.52,0,0,0,.56.61l7.32.28a.52.52,0,0,0,.61-.56l.09-2.28a.52.52,0,0,0-.57-.61Zm8.29-9.64a.52.52,0,0,0-.56-.61l-7.32-.29a.53.53,0,0,0-.61.57l-.08,2.05a.51.51,0,0,0,.56.6l7.32.29a.51.51,0,0,0,.61-.56Zm8.28,13.17a.51.51,0,0,0,.56.6l7.79.31a.52.52,0,0,0,.61-.56l.09-2.29a.52.52,0,0,0-.56-.6l-7.79-.31a.52.52,0,0,0-.61.56Zm9.46-12.47a.51.51,0,0,0-.56-.61l-7.79-.31a.52.52,0,0,0-.61.56l-.08,2a.52.52,0,0,0,.57.61l7.78.31a.52.52,0,0,0,.61-.56Z"/><path class="cls-4" d="M673.84,1088.42a5.06,5.06,0,0,1,3.45,1.85,4.9,4.9,0,0,1,1,3.64q-.37,3.43-2,15.11-.75,5.46-1.5,9.89a55.7,55.7,0,0,1-1.36,6.45,9,9,0,0,1-1.38,3,6.52,6.52,0,0,1-2.12,1.92,7.59,7.59,0,0,1-2.65.75,6.78,6.78,0,0,1-1.42.09,3.88,3.88,0,0,1-.59,0,4.64,4.64,0,0,1-3-1.55,8.64,8.64,0,0,1-2-3.93,1.07,1.07,0,0,1-.06-.27.18.18,0,0,0-.19-.17.24.24,0,0,0-.24.09c-.2.41-.4.8-.6,1.18a2.6,2.6,0,0,1-2.39,1.39l-.41,0a3.35,3.35,0,0,1-2.23-1.18.21.21,0,0,0-.25-.09.42.42,0,0,0-.23.15,3.52,3.52,0,0,1-2,2.2,8.74,8.74,0,0,1-3.52.39.37.37,0,0,1-.18,0,2.74,2.74,0,0,1-1.79-.9,3.66,3.66,0,0,1-1-2,1.81,1.81,0,0,1,.41-1.64,1.69,1.69,0,0,1,1.54-.63l.23,0a.53.53,0,0,0,.65-.52l0-.41c0-.16-.06-.22-.21-.2l-.95.07a.94.94,0,0,1-.83-.26,1.12,1.12,0,0,1-.36-.8c0-.12,0-.16-.1-.13l-8,.08-.35,0a2.56,2.56,0,0,1-1.57-.76,2.52,2.52,0,0,1-.86-1.85c0-.16,0-.3,0-.41a2.49,2.49,0,0,1,.69-1.46,2.45,2.45,0,0,1,1.84-.75l.94,0a.36.36,0,0,0,.45-.36l.25-2.33a.51.51,0,0,0-.52-.64l-3.09-.34a.52.52,0,0,0-.64.52l-1.19,11.13a2.91,2.91,0,0,1-1.11,2.06,2.86,2.86,0,0,1-2.22.65,3,3,0,0,1-2.06-1.1,2.91,2.91,0,0,1-.67-2.26l1.33-12.41a.08.08,0,0,0,0-.06s0,0,0,.06a80.53,80.53,0,0,1-3.22,10.85,2.18,2.18,0,0,1-1.75,1.4,2.33,2.33,0,0,1-.89.08,2.56,2.56,0,0,1-1.4-.62A4.37,4.37,0,0,1,620,1121a4.42,4.42,0,0,1-.17-1.73,4,4,0,0,1,.3-1.09q3.28-8.71,5.24-27l1.6-15a5.1,5.1,0,0,1,5.61-4.52l24.07,2.57a3.24,3.24,0,0,1,2.2,1.18,3.11,3.11,0,0,1,.72,2.38,3.32,3.32,0,0,1-3.62,2.91l-21.9-2.35a.53.53,0,0,0-.65.52L632,1092q-.83,7.68-2,14.39a.64.64,0,0,0,.1.43.44.44,0,0,0,.36.21l8.86,1a.52.52,0,0,0,.64-.52l.06-.52a.52.52,0,0,0-.52-.65l-3-.32a4.94,4.94,0,0,1-3.43-1.84,4.87,4.87,0,0,1-1.1-3.77l.67-6.29a5.12,5.12,0,0,1,5.61-4.53l13.41,1.44a5.1,5.1,0,0,1,4.52,5.61l-.67,6.29a5.06,5.06,0,0,1-5.61,4.53l-3.15-.34a.52.52,0,0,0-.65.52l-.05.53a.52.52,0,0,0,.52.64l4.19.45a5.1,5.1,0,0,1,4.53,5.61l-.24,2.27c0,.08,0,.12,0,.13a.07.07,0,0,0,.07-.06q3.15-7.48,5.12-22a.26.26,0,0,0-.26-.32,2.22,2.22,0,0,1-1.59-.88,2.25,2.25,0,0,1-.49-1.7l.32-3a2.42,2.42,0,0,1,.88-1.64,2.31,2.31,0,0,1,1.83-.54.26.26,0,0,0,.32-.27q.44-3.48,1-8.84a3.79,3.79,0,0,1,4.19-3.39,3.8,3.8,0,0,1,2.59,1.4,3.62,3.62,0,0,1,.85,2.8c-.35,3.31-.7,6.16-1,8.56a.52.52,0,0,0,.13.42.56.56,0,0,0,.39.22Zm-21.05.11a1.94,1.94,0,0,1-.7,1.28,1.81,1.81,0,0,1-1.43.43l-2-.21a1.86,1.86,0,0,1-1.31-.73,1.92,1.92,0,0,1-.41-1.4c0-.16,0-.24-.21-.26l-3.72-.4c-.16,0-.24,0-.26.21a1.94,1.94,0,0,1-.7,1.28,1.81,1.81,0,0,1-1.43.43l-2-.21a1.82,1.82,0,0,1-1.31-.73,1.89,1.89,0,0,1-.41-1.4.2.2,0,0,0-.21-.25l-1.39-.15a2.33,2.33,0,0,1-1.64-.92,2.37,2.37,0,0,1-.55-1.82A2.31,2.31,0,0,1,634,1082a2.38,2.38,0,0,1,1.79-.52l1.4.15a.21.21,0,0,0,.26-.21,2,2,0,0,1,.8-1.47,2.15,2.15,0,0,1,1.58-.45l1.58.17a2,2,0,0,1,1.42.77,2.11,2.11,0,0,1,.44,1.61c0,.15.07.24.27.26l3.67.4a.22.22,0,0,0,.26-.21,2,2,0,0,1,.8-1.48,2.15,2.15,0,0,1,1.58-.45l1.63.18a2,2,0,0,1,1.42.77,2.07,2.07,0,0,1,.45,1.61c0,.15.07.24.27.26l2.27.24a2.41,2.41,0,0,1,1.67.89,2.37,2.37,0,0,1,.52,1.8,2.46,2.46,0,0,1-.89,1.67,2.38,2.38,0,0,1-1.82.54l-2.33-.25A.2.2,0,0,0,652.79,1088.53Zm-15.3,12.38a.53.53,0,0,0,.53.65l1.92.21a.52.52,0,0,0,.64-.52l0-.47a.52.52,0,0,0-.52-.65l-1.92-.2a.52.52,0,0,0-.65.52Zm1.32-6.75a.52.52,0,0,0-.65.52l0,.35a.53.53,0,0,0,.53.65l1.92.2a.51.51,0,0,0,.64-.52l0-.35a.51.51,0,0,0-.52-.64Zm9.46,21.17a.6.6,0,0,1,.65.48l.08-.7a.52.52,0,0,0-.52-.64l-3.38-.37a.53.53,0,0,0-.65.52l-.18,1.75a.45.45,0,0,0,.13.4.66.66,0,0,0,.39.19h.59c.12,0,.17-.08.14-.16a1.1,1.1,0,0,1,.21-.86.86.86,0,0,1,.75-.39Zm.81-12.59a.51.51,0,0,0,.65-.51l0-.47a.52.52,0,0,0-.52-.65l-1.86-.2a.53.53,0,0,0-.65.52l0,.47a.52.52,0,0,0,.52.65Zm.63-5.88a.52.52,0,0,0,.65-.52l0-.35a.52.52,0,0,0-.52-.64l-1.87-.2a.51.51,0,0,0-.64.52l0,.35a.51.51,0,0,0,.52.64Zm20.72-.31a.52.52,0,0,0-.52-.65l-1.51-.16a.59.59,0,0,0-.71.51q-1.19,8.31-2.76,14.82a70.29,70.29,0,0,1-3.84,11.64.45.45,0,0,0,0,.39.39.39,0,0,0,.33.24l2.5.27a2.16,2.16,0,0,0,2-.85c.55-.73,1.15-3,1.82-6.85S669.3,1105.62,670.43,1096.55Z"/><polyline class="cls-77" points="409.66 941.57 472.85 899.94 475.38 918.28"/><polyline class="cls-77" points="404.72 942.01 354.07 906.29 344.29 918.45 392.11 941.09"/><polygon class="cls-4" points="415.12 1053.57 406.76 944.39 339.91 916.62 347.36 1025.6 415.12 1053.57"/><polygon class="cls-4" points="406.76 944.39 493.02 911.59 500.5 1024.03 415.12 1053.57 406.76 944.39"/><polygon class="cls-78" points="414.11 1053.26 405.75 944.07 345.49 918.42 352.94 1027.4 414.11 1053.26"/><polygon class="cls-78" points="405.75 944.07 478.02 919.82 492.07 1027.13 414.11 1053.26 405.75 944.07"/><polygon class="cls-79" points="413.89 1053.19 405.53 944 335.72 916.42 346.13 1025.22 413.89 1053.19"/><polygon class="cls-79" points="405.53 944 492.68 913.16 500.16 1025.6 413.89 1053.19 405.53 944"/><path class="cls-80" d="M392.11,941.08s12.4,5.89,26.5-2.3l10.87,107.69s-6.59,11.81-26.36,4.69Z"/><polygon class="cls-77" points="354.29 943.67 355.58 956.87 379.12 967.29 377.6 954.48 354.29 943.67"/><path class="cls-4" d="M357.39,1024.44s5.19-12,13.67-18.41c7.16-5.41,17.24-6.63,22.86,5,0,0,13.6,2.67,12,16.4,0,0,6.54,3.48,5.08,11-.05.28,6.23,5.93-1.1,23.1,0,0-18.52,37.73-46.78,2.2C363.11,1063.77,348.83,1044.7,357.39,1024.44Z"/><path class="cls-50" d="M356.89,1024.44s4.24-12,11.18-18.41c5.86-5.41,14.1-6.63,18.69,5,0,0,11.13,2.67,9.81,16.4,0,0,5.35,3.48,4.16,11-.05.28,5.09,5.93-.9,23.1,0,0-15.15,37.73-38.26,2.2C361.57,1063.77,349.89,1044.7,356.89,1024.44Z"/><path class="cls-81" d="M374.66,1027.66s4.15-9.73,12.08-12.23"/><path class="cls-81" d="M383.86,1037.21s4.87-8.11,12.44-10.63"/><path class="cls-81" d="M392.72,1049.27s2.7-4.24,9.64-8.48"/><path class="cls-82" d="M357.39,1024.44s5.19-12,13.67-18.41c7.16-5.41,17.24-6.63,22.86,5,0,0,13.6,2.67,12,16.4,0,0,6.54,3.48,5.08,11-.05.28,6.23,5.93-1.1,23.1,0,0-18.52,37.73-46.78,2.2C363.11,1063.77,348.83,1044.7,357.39,1024.44Z"/></svg>