<svg id="圖層_1" data-name="圖層 1" xmlns="http://www.w3.org/2000/svg" viewBox="0 0 1080 616.71"><title>illustration-failure</title><rect width="1080" height="616.71" style="fill:#fff"/><ellipse cx="540" cy="300.48" rx="291.69" ry="226.72" style="fill:none;stroke:#e5efd0;stroke-miterlimit:10;stroke-width:5.909999847412109px"/><rect x="561.37" y="222.53" width="302.17" height="111.96" style="fill:#fff"/><polyline points="309.49 329.28 349.96 207.59 362.27 211.94 312.94 357.93" style="fill:#e5cec0;stroke:#1a1a1a;stroke-linecap:round;stroke-linejoin:round;stroke-width:5.909999847412109px"/><polyline points="559.61 329.28 519.14 207.59 506.83 211.94 556.16 357.93" style="fill:#e5cec0;stroke:#1a1a1a;stroke-linecap:round;stroke-linejoin:round;stroke-width:5.909999847412109px"/><path d="M271.52,222.42l33.8,86.15s5.27,20.5-2.34,22.26L277.35,327l-57.58,3.37-1.72-110.79Z" style="fill:#f9efc3"/><path d="M245.78,331.09s3.84-26.24-9-59.53c0,0,20.49,18.57,21.77,40.33,0,0,5.76-21.76,16.64-33.93,0,0-1.92,28.17-1.28,36.49,0,0,9.6-19.84,23-32,0,0-12.8,34.57-10.24,46.73" style="fill:#cddc4c;stroke:#1a1a1a;stroke-linecap:round;stroke-linejoin:round;stroke-width:4.429999828338623px"/><path d="M523,496c3.49-8.57,129-14.49,117-14.4q-6.59,0-13.15.19c-11,0-21.92-.3-32.87-1.17-8.12-.65-11.33-.72-21.81-2.16,1.58-5.83-4.54-18.32-9.7-21.87,9.17-4.42-30.88-19.42-40.55-25.44.8-.72,164.54-2.18,13.67-2.18-5.78,0-5.3-9.32-6.22-15.26a18.28,18.28,0,0,0-1.47-5c6.18-2.72,10.91-5.79,15-11.73,6.38-9.26-2.16-21.77-12.5-21.78-16.11,0-171.62,0-187.73-.06-18.11,0-18.59,27.25-1.47,28.8a14.85,14.85,0,0,0-1.84,11.53,14.34,14.34,0,0,0-2.25,7.33,105.91,105.91,0,0,0,8.81,46.38,15.83,15.83,0,0,0,2.16,6.73,25.58,25.58,0,0,0-.65,4c-.41,4.88,3,10.2,7.17,12.5.88.49,1.84.87,2.77,1.31-2.5,1.21,10.58,5,8.13,6.42-12.6,7.1-6.91,26.94,7.3,27,21,0,26.4-2.46,47.38-2.42l31.48.06c2.41,0,19.12,1.68,23.72-1.14,6.11,7.29,21.54,7.57,26.49-4.49C509.25,501,538.59,496.83,523,496Z" style="fill:#fce7d2"/><path d="M340.5,449.75c-10.78-41.9-24.28-74.66-31.71-117.31H242.57c-30.85,0-32.06,42.39-6.49,50.64-2,13.06,3.25,26.8,18.44,30.17,3.12.69,6.29,1.22,9.49,1.69-3.72,11.23-.52,25.45,8,33.74-20,10.39-23.4,47.09,2.92,53.56a62.76,62.76,0,0,0,29.2,0c.17,13.89,8.61,27.13,25.26,27,13.67-.07,13.51.1,27.17.37C341,506,347.52,477,340.5,449.75Z" style="fill:#f2ebe3"/><path d="M867.73,341.94c-32.5-6.43-63-11-95.41-8.7-23.91-1.49-51.22.13-75.16-.62a14.72,14.72,0,0,1-1.8.39c-10.39.94-18,5.3-28.75,3.67-12.44-1.88-23.33-4.61-35.73-5.84a3.78,3.78,0,0,1-.46-.1l-.65.13c-.44.12-.92.17-1.38.25a33.75,33.75,0,0,1-12.56.32h-4a15.2,15.2,0,0,1-3.58-.43c-15.13.89-28.9.43-43.94,2.36-2.53.33-5.74,9.59-7.79,10.69-3.49,23.79-10.63,46.37-17,69.45a9.81,9.81,0,0,1-.14,2c-.28,1.76-.6,3.52-.88,5.29a11.52,11.52,0,0,0,1,1.11,13.7,13.7,0,0,0-1.32.94C532.67,456,525,489,517.91,522c2.67,1.59-6.76,18.32-3.07,18.45,127.76,4.54,103.15-19.07,112-19,39.19.41,78.34-2.31,117.52-3.47,13.76-.41,20.17-12.09,19.91-24.13L797.59,492c20-1.1,27.69-35.13,11.74-46.55q17.68-.58,35.37-.89c21.8-.37,28.52-40.58,7.82-48.69,3.2.17,6.4.35,9.59.5C885,397.46,891.07,346.57,867.73,341.94Z" style="fill:#f2ebe3"/><polyline points="221.15 332.4 238.45 332.4 277.2 327.15 313.42 332.4" style="fill:none;stroke:#1a1a1a;stroke-linecap:round;stroke-linejoin:round;stroke-width:5.909999847412109px"/><polyline points="872.02 222.8 561.64 222.8 561.64 333.14" style="fill:none;stroke:#1a1a1a;stroke-linecap:round;stroke-linejoin:round;stroke-width:5.909999847412109px"/><polyline points="307.63 331.35 307.63 221.01 213.13 221.01" style="fill:none;stroke:#1a1a1a;stroke-linecap:round;stroke-linejoin:round;stroke-width:5.909999847412109px"/><ellipse cx="431.47" cy="201.57" rx="110.8" ry="21.24" style="fill:#f6c1b4"/><path d="M522.23,185.15c0,8.93-39.46,16.17-88.14,16.17S346,194.08,346,185.15" style="fill:none;stroke:#1a1a1a;stroke-linecap:round;stroke-linejoin:round;stroke-width:4.730000019073486px"/><polyline points="555.56 334.35 589.74 328.76 615.78 334.35 643.6 332.01 677.18 334.35 701.18 330.48 727.78 334.35 778.07 329.97 801.33 334.35 830.23 332.01 865.04 334.35" style="fill:none;stroke:#1a1a1a;stroke-linecap:round;stroke-linejoin:round;stroke-width:5.909999847412109px"/><ellipse cx="434.09" cy="195.35" rx="120.79" ry="26.24" style="fill:none;stroke:#1a1a1a;stroke-linecap:round;stroke-linejoin:round;stroke-width:5.909999847412109px"/><line x1="517.37" y1="198.03" x2="523.84" y2="203.06" style="fill:none;stroke:#fff;stroke-linecap:round;stroke-linejoin:round;stroke-width:4.730000019073486px"/><line x1="500.36" y1="201.72" x2="504.1" y2="208.42" style="fill:none;stroke:#fff;stroke-linecap:round;stroke-linejoin:round;stroke-width:4.730000019073486px"/><line x1="582.81" y1="369.22" x2="616.73" y2="369.22" style="fill:none;stroke:#ccb399;stroke-linecap:round;stroke-miterlimit:10;stroke-width:4.730000019073486px"/><line x1="781.34" y1="375.24" x2="815.26" y2="375.24" style="fill:none;stroke:#ccb399;stroke-linecap:round;stroke-miterlimit:10;stroke-width:4.730000019073486px"/><line x1="665.15" y1="388.78" x2="690.46" y2="388.78" style="fill:none;stroke:#ccb399;stroke-linecap:round;stroke-miterlimit:10;stroke-width:4.730000019073486px"/><line x1="249.52" y1="365.48" x2="283.44" y2="365.48" style="fill:none;stroke:#ccb399;stroke-linecap:round;stroke-miterlimit:10;stroke-width:4.730000019073486px"/><line x1="575.85" y1="478.44" x2="609.77" y2="478.44" style="fill:none;stroke:#ccb399;stroke-linecap:round;stroke-miterlimit:10;stroke-width:4.730000019073486px"/><line x1="698.55" y1="446.64" x2="732.47" y2="446.64" style="fill:none;stroke:#ccb399;stroke-linecap:round;stroke-miterlimit:10;stroke-width:4.730000019073486px"/><line x1="283.41" y1="467.28" x2="305.49" y2="467.28" style="fill:none;stroke:#ccb399;stroke-linecap:round;stroke-miterlimit:10;stroke-width:4.730000019073486px"/><path d="M305.55,338.78s15-12.51,18.1-2.19L365.14,526.3H503.25l44-195.65s14.12,1.84,14.67,9L515.8,542.74H352.59Z" style="fill:#f5ae6e"/><polyline points="306.73 335.04 352.59 542.74 515.8 542.74 561.79 334.69" style="fill:none;stroke:#1a1a1a;stroke-linecap:round;stroke-linejoin:round;stroke-width:5.909999847412109px"/><polyline points="306.71 334.55 321.18 330.65 365.14 526.3 503.25 526.3 547.21 330.65 561.63 334.75" style="fill:none;stroke:#1a1a1a;stroke-linecap:round;stroke-linejoin:round;stroke-width:5.909999847412109px"/><rect x="387.51" y="526.3" width="11.74" height="16.43" style="fill:#fff;stroke:#1a1a1a;stroke-linecap:round;stroke-linejoin:round;stroke-width:5.909999847412109px"/><rect x="427.84" y="526.3" width="11.74" height="16.43" style="fill:#fff;stroke:#1a1a1a;stroke-linecap:round;stroke-linejoin:round;stroke-width:5.909999847412109px"/><rect x="468.18" y="526.3" width="11.74" height="16.43" style="fill:#fff;stroke:#1a1a1a;stroke-linecap:round;stroke-linejoin:round;stroke-width:5.909999847412109px"/><polygon points="561.64 222.8 867.62 293.03 865.52 223.08 561.64 222.8" style="fill:#f9efc3"/><polyline points="872.02 222.8 561.64 222.8 561.64 333.14" style="fill:none;stroke:#1a1a1a;stroke-linecap:round;stroke-linejoin:round;stroke-width:5.909999847412109px"/><path d="M903.76,291.88s-46.85,20.33-116.91.11c0,0,49.22,29.81,111.12,18.71" style="fill:#6bc7f1;stroke:#1a1a1a;stroke-linecap:round;stroke-linejoin:round;stroke-width:5.909999847412109px"/><path d="M770.11,289a13.63,13.63,0,0,0-18.68-12.67,14.34,14.34,0,0,0-25.74,6.94,12.66,12.66,0,0,0,1.55,25,16.25,16.25,0,0,0,28.55,5.12,10.39,10.39,0,0,0,3.79.72,10.53,10.53,0,0,0,8.06-17.31A13.62,13.62,0,0,0,770.11,289Z" style="fill:#fff;stroke:#888;stroke-linecap:round;stroke-linejoin:round;stroke-width:4.429999828338623px"/><path d="M732.67,294.76s-1.89,8.21,7,10.74" style="fill:#fff;stroke:#888;stroke-linecap:round;stroke-linejoin:round;stroke-width:4.429999828338623px"/><path d="M681.66,266.14a17,17,0,0,0-21.1-11.53l-.06,0a16.79,16.79,0,0,0-5.68,2.95A17.91,17.91,0,0,0,626.46,275a15.8,15.8,0,0,0,10.72,29.41,20.29,20.29,0,0,0,36-4A12.91,12.91,0,0,0,678,300a13.14,13.14,0,0,0,8.89-16.32v0a13,13,0,0,0-5.36-7.23A16.85,16.85,0,0,0,681.66,266.14Z" style="fill:#fff;stroke:#888;stroke-linecap:round;stroke-linejoin:round;stroke-width:4.429999828338623px"/><path d="M638.88,286.25s.63,10.51,12.12,10.4" style="fill:#fff;stroke:#888;stroke-linecap:round;stroke-linejoin:round;stroke-width:4.429999828338623px"/></svg>