<svg id="圖層_1" data-name="圖層 1" xmlns="http://www.w3.org/2000/svg" viewBox="0 0 1080 616.71"><title>illustration-</title><rect width="1080" height="616.71" style="fill:#fff"/><ellipse cx="540" cy="300.48" rx="291.69" ry="226.72" style="fill:none;stroke:#e5efd0;stroke-miterlimit:10;stroke-width:5.909999847412109px"/><rect x="561.37" y="222.53" width="302.17" height="111.96" style="fill:#fff"/><polyline points="309.49 329.28 349.96 207.59 362.27 211.94 312.94 357.93" style="fill:#e5cec0;stroke:#1a1a1a;stroke-linecap:round;stroke-linejoin:round;stroke-width:5.909999847412109px"/><polyline points="559.61 329.28 519.14 207.59 506.83 211.94 556.16 357.93" style="fill:#e5cec0;stroke:#1a1a1a;stroke-linecap:round;stroke-linejoin:round;stroke-width:5.909999847412109px"/><path d="M271.52,222.42l33.8,86.15s5.27,20.5-2.34,22.26L277.35,327l-57.58,3.37-1.72-110.79Z" style="fill:#f9efc3"/><path d="M245.78,331.09s3.84-26.24-9-59.53c0,0,20.49,18.57,21.77,40.33,0,0,5.76-21.76,16.64-33.93,0,0-1.92,28.17-1.28,36.49,0,0,9.6-19.84,23-32,0,0-12.8,34.57-10.24,46.73" style="fill:#cddc4c;stroke:#1a1a1a;stroke-linecap:round;stroke-linejoin:round;stroke-width:4.429999828338623px"/><path d="M523,496c3.49-8.57,129-14.49,117-14.4q-6.59,0-13.15.19c-11,0-21.92-.3-32.87-1.17-8.12-.65-11.33-.72-21.81-2.16,1.58-5.83-4.54-18.32-9.7-21.87,9.17-4.42-30.88-19.42-40.55-25.44.8-.72,164.54-2.18,13.67-2.18-5.78,0-5.3-9.32-6.22-15.26a18.28,18.28,0,0,0-1.47-5c6.18-2.72,10.91-5.79,15-11.73,6.38-9.26-2.16-21.77-12.5-21.78-16.11,0-171.62,0-187.73-.06-18.11,0-18.59,27.25-1.47,28.8a14.85,14.85,0,0,0-1.84,11.53,14.34,14.34,0,0,0-2.25,7.33,105.91,105.91,0,0,0,8.81,46.38,15.83,15.83,0,0,0,2.16,6.73,25.58,25.58,0,0,0-.65,4c-.41,4.88,3,10.2,7.17,12.5.88.49,1.84.87,2.77,1.31-2.5,1.21,10.58,5,8.13,6.42-12.6,7.1-6.91,26.94,7.3,27,21,0,26.4-2.46,47.38-2.42l31.48.06c2.41,0,19.12,1.68,23.72-1.14,6.11,7.29,21.54,7.57,26.49-4.49C509.25,501,538.59,496.83,523,496Z" style="fill:#fce7d2"/><path d="M340.5,449.75c-10.78-41.9-26.93-76.1-34.36-118.74-18.42,0-44.75-1.18-63.16-1.18-30.85,0-32.47,45-6.9,53.25-2,13.06,3.25,26.8,18.44,30.17,3.12.69,6.29,1.22,9.49,1.69-3.72,11.23-.52,25.45,8,33.74-20,10.39-23.4,47.09,2.92,53.56a62.76,62.76,0,0,0,29.2,0c.17,13.89,8.61,27.13,25.26,27,13.67-.07,13.51.1,27.17.37C341,506,347.52,477,340.5,449.75Z" style="fill:#f2ebe3"/><path d="M867.73,341.94c-32.5-6.43-63-11-95.41-8.7-23.91-1.49-51.22.13-75.16-.62a14.72,14.72,0,0,1-1.8.39c-10.39.94-18,5.3-28.75,3.67-12.44-1.88-23.33-4.61-35.73-5.84a3.78,3.78,0,0,1-.46-.1l-.65.13c-.44.12-.92.17-1.38.25a33.75,33.75,0,0,1-12.56.32h-4a15.2,15.2,0,0,1-3.58-.43c-15.13.89-28.9.43-43.94,2.36-2.53.33-5.74,9.59-7.79,10.69-3.49,23.79-10.63,46.37-17,69.45a9.81,9.81,0,0,1-.14,2c-.28,1.76-.6,3.52-.88,5.29a11.52,11.52,0,0,0,1,1.11,13.7,13.7,0,0,0-1.32.94C532.67,456,525,489,517.91,522c2.67,1.59-6.76,18.32-3.07,18.45,127.76,4.54,103.15-19.07,112-19,39.19.41,78.34-2.31,117.52-3.47,13.76-.41,20.17-12.09,19.91-24.13L797.59,492c20-1.1,27.69-35.13,11.74-46.55q17.68-.58,35.37-.89c21.8-.37,28.52-40.58,7.82-48.69,3.2.17,6.4.35,9.59.5C885,397.46,891.07,346.57,867.73,341.94Z" style="fill:#f2ebe3"/><polyline points="221.15 332.4 238.45 332.4 277.2 327.15 313.42 332.4" style="fill:none;stroke:#1a1a1a;stroke-linecap:round;stroke-linejoin:round;stroke-width:5.909999847412109px"/><polyline points="872.02 222.8 561.64 222.8 561.64 333.14" style="fill:none;stroke:#1a1a1a;stroke-linecap:round;stroke-linejoin:round;stroke-width:5.909999847412109px"/><polyline points="307.63 331.35 307.63 221.01 213.13 221.01" style="fill:none;stroke:#1a1a1a;stroke-linecap:round;stroke-linejoin:round;stroke-width:5.909999847412109px"/><ellipse cx="431.47" cy="201.57" rx="110.8" ry="21.24" style="fill:#f6c1b4"/><path d="M522.23,185.15c0,8.93-39.46,16.17-88.14,16.17S346,194.08,346,185.15" style="fill:none;stroke:#1a1a1a;stroke-linecap:round;stroke-linejoin:round;stroke-width:4.730000019073486px"/><polyline points="555.56 334.35 589.74 328.76 615.78 334.35 643.6 332.01 677.18 334.35 701.18 330.48 727.78 334.35 778.07 329.97 801.33 334.35 830.23 332.01 865.04 334.35" style="fill:none;stroke:#1a1a1a;stroke-linecap:round;stroke-linejoin:round;stroke-width:5.909999847412109px"/><ellipse cx="434.09" cy="195.35" rx="120.79" ry="26.24" style="fill:none;stroke:#1a1a1a;stroke-linecap:round;stroke-linejoin:round;stroke-width:5.909999847412109px"/><line x1="517.37" y1="198.03" x2="523.84" y2="203.06" style="fill:none;stroke:#fff;stroke-linecap:round;stroke-linejoin:round;stroke-width:4.730000019073486px"/><line x1="500.36" y1="201.72" x2="504.1" y2="208.42" style="fill:none;stroke:#fff;stroke-linecap:round;stroke-linejoin:round;stroke-width:4.730000019073486px"/><line x1="582.81" y1="369.22" x2="616.73" y2="369.22" style="fill:none;stroke:#ccb399;stroke-linecap:round;stroke-miterlimit:10;stroke-width:4.730000019073486px"/><line x1="781.34" y1="375.24" x2="815.26" y2="375.24" style="fill:none;stroke:#ccb399;stroke-linecap:round;stroke-miterlimit:10;stroke-width:4.730000019073486px"/><line x1="665.15" y1="388.78" x2="690.46" y2="388.78" style="fill:none;stroke:#ccb399;stroke-linecap:round;stroke-miterlimit:10;stroke-width:4.730000019073486px"/><line x1="249.52" y1="365.48" x2="283.44" y2="365.48" style="fill:none;stroke:#ccb399;stroke-linecap:round;stroke-miterlimit:10;stroke-width:4.730000019073486px"/><line x1="575.85" y1="478.44" x2="609.77" y2="478.44" style="fill:none;stroke:#ccb399;stroke-linecap:round;stroke-miterlimit:10;stroke-width:4.730000019073486px"/><line x1="698.55" y1="446.64" x2="732.47" y2="446.64" style="fill:none;stroke:#ccb399;stroke-linecap:round;stroke-miterlimit:10;stroke-width:4.730000019073486px"/><line x1="283.41" y1="467.28" x2="305.49" y2="467.28" style="fill:none;stroke:#ccb399;stroke-linecap:round;stroke-miterlimit:10;stroke-width:4.730000019073486px"/><path d="M774.68,347.69c57,1.84,60.07-29.11,60.07-29.11,1.33-18.57-28.64-16.17-28.64-16.17-26.07,2.22-36.74-7.14-36.74-7.14S723.21,266,685.88,276.81a47,47,0,0,1-18.51,1.86c-8-.91-17-2.11-27.87,7.4-3.71,3.24-13.76,9.5-12.86,16.48,0,0,3.73,13.63,45.27,5.71,0,0,50.48,15.21,82.66,2.47,0,0,14.58,5.78,24.57,6.34a180,180,0,0,0,33.6-1.67s7.65-1.73,7.38,5.41c0,0,3.29,12.35-44.49,26.9" style="fill:#fff"/><path d="M626.65,302.55s3.72,13.63,45.26,5.71c0,0,48.17,14.45,80.39,3.22-40.39-12.12-83.36-.42-122.86-16.47C627.55,297.33,626.3,299.89,626.65,302.55Z" style="fill:#f2f0db"/><path d="M783.21,314.75c3-3,2.49-7.91.49-13.49-10-2.18-14.33-6-14.33-6s-50.52-20.5-87.85-9.67c-6,1.74-7.94-6.21-14.15-6.93-8-.91-17-2.11-27.87,7.4-2.3,2-7,5.17-10.06,8.94,39.5,16,82.47,4.35,122.86,16.47.75-.26,1.54-.46,2.27-.75a130.43,130.43,0,0,0,14.52,4.64C775.13,316,780.54,317.43,783.21,314.75Z" style="fill:#939280"/><path d="M806.11,302.41a74.84,74.84,0,0,1-22.41-1.15c2,5.58,2.56,10.44-.49,13.49-2.67,2.68-8.08,1.26-14.12.62a56,56,0,0,0,10,1.7,180,180,0,0,0,33.6-1.67s7.65-1.73,7.38,5.41c0,0,3.29,12.34-44.44,26.89,56,1.44,59.07-29.12,59.07-29.12C836.08,300,806.11,302.41,806.11,302.41Z" style="fill:#6bc7f1"/><path d="M774.68,347.69c57,1.84,60.07-29.11,60.07-29.11,1.33-18.57-28.64-16.17-28.64-16.17-26.07,2.22-36.74-7.14-36.74-7.14S723.21,266,685.88,276.81a47,47,0,0,1-18.51,1.86c-8-.91-17-2.11-27.87,7.4-3.71,3.24-13.76,9.5-12.86,16.48,0,0,3.73,13.63,45.27,5.71,0,0,50.48,15.21,82.66,2.47,0,0,14.58,5.78,24.57,6.34a180,180,0,0,0,33.6-1.67s7.65-1.73,7.38,5.41c0,0,3.29,12.35-44.49,26.9" style="fill:none;stroke:#1a1a1a;stroke-linecap:round;stroke-linejoin:round;stroke-width:5.909999847412109px"/><circle cx="652.81" cy="288.6" r="5.43" style="fill:#1a1a1a"/><path d="M626.83,301.45s15.34,3.42,28.82-1.85" style="fill:none;stroke:#1a1a1a;stroke-linecap:round;stroke-linejoin:round;stroke-width:4.429999828338623px"/><path d="M676.25,302,684,312.44l-6.67,13.74s-2.73-1.64-7.4,0c0,0-5.06,1.32-2.59,4.88a45.61,45.61,0,0,0,22.06,0s2-4.48-3.14-5.43c-.11,0,7.75-12.48,7.75-12.48l-7.5-14.28" style="fill:#929080;stroke:#1a1a1a;stroke-linecap:round;stroke-linejoin:round;stroke-width:4.429999828338623px"/><path d="M740.87,302.7,736,313.63l10.18,12.71s-2.8-1.5-7.38.38c0,0-5,1.58-2.35,5a45.65,45.65,0,0,0,22-1.08s1.8-4.57-3.41-5.25c-.11,0-8.72-12.6-8.72-12.6L755,301.08" style="fill:#929080;stroke:#1a1a1a;stroke-linecap:round;stroke-linejoin:round;stroke-width:4.429999828338623px"/><path d="M739.24,296c-13.88-9.56-30.59-4.76-46.26-6.47-3.34-.37-3.32,4.86,0,5.22,14.64,1.6,30.65-3.17,43.62,5.76C739.38,302.48,742,298,739.24,296Z" style="fill:#f2f0db"/><path d="M305.55,338.78s15-12.51,18.1-2.19L365.14,526.3H503.25l44-195.65s14.12,1.84,14.67,9L515.8,542.74H352.59Z" style="fill:#f5ae6e"/><polyline points="306.73 335.04 352.59 542.74 515.8 542.74 561.79 334.69" style="fill:none;stroke:#1a1a1a;stroke-linecap:round;stroke-linejoin:round;stroke-width:5.909999847412109px"/><polyline points="306.71 334.55 321.18 330.65 365.14 526.3 503.25 526.3 547.21 330.65 561.63 334.75" style="fill:none;stroke:#1a1a1a;stroke-linecap:round;stroke-linejoin:round;stroke-width:5.909999847412109px"/><rect x="387.51" y="526.3" width="11.74" height="16.43" style="fill:#fff;stroke:#1a1a1a;stroke-linecap:round;stroke-linejoin:round;stroke-width:5.909999847412109px"/><rect x="427.84" y="526.3" width="11.74" height="16.43" style="fill:#fff;stroke:#1a1a1a;stroke-linecap:round;stroke-linejoin:round;stroke-width:5.909999847412109px"/><rect x="468.18" y="526.3" width="11.74" height="16.43" style="fill:#fff;stroke:#1a1a1a;stroke-linecap:round;stroke-linejoin:round;stroke-width:5.909999847412109px"/><polygon points="561.64 222.8 867.62 293.03 865.52 223.08 561.64 222.8" style="fill:#f9efc3"/><polyline points="872.02 222.8 561.64 222.8 561.64 333.14" style="fill:none;stroke:#1a1a1a;stroke-linecap:round;stroke-linejoin:round;stroke-width:5.909999847412109px"/></svg>