<svg id="圖層_1" data-name="圖層 1" xmlns="http://www.w3.org/2000/svg" viewBox="0 0 1080 616.71"><title>illustration-success</title><rect width="1080" height="616.71" style="fill:#fff"/><path d="M475.23,366.67,457.78,362l-11.18,4.1,7.36,5.72A37.13,37.13,0,0,0,482,377.55" style="fill:#928985"/><path d="M478.84,372.67s11.45,24,35.05,24.3c0,0,17-6.25,24.3-1.74l18.51-1.4s-15.39-5.54-23-17.68c0,0-8.33-10.76-25.69-9.72S478.84,372.67,478.84,372.67Z" style="fill:#bcb2ae"/><path d="M578.44,253.51S578,307,556.63,326.77L535.8,344s.66,33.79-20.74,19.8l-30,7.41s-23.87.41-7.41-11.12c0,0,38.29-34.29,40.55-70,0,0,25.6-1.51,34.91-26.64Z" style="fill:#928985"/><ellipse cx="540" cy="300.48" rx="291.69" ry="226.72" style="fill:none;stroke:#e5efd0;stroke-miterlimit:10;stroke-width:5.909999847412109px"/><polygon points="412.48 517.13 397.22 512.47 397.22 162.85 412.48 162.85 412.48 517.13" style="fill:#e5e5e6"/><polygon points="689.29 511.34 674.03 523 674.03 162.85 689.29 162.85 689.29 511.34" style="fill:#e5e5e6"/><polygon points="694.54 164.72 389.8 164.72 389.8 150.52 674.03 150.52 694.54 164.72" style="fill:#e5e5e6"/><path d="M711.31,134.8s29.11,4.2,41.14,4.2c0,0,5,231.21,7,348.53,0,0-8.45,22.8-50.72,38.09" style="fill:#ccb399"/><path d="M767.92,170.45V487.73" style="fill:none;stroke:#1a1a1a;stroke-linecap:round;stroke-linejoin:round;stroke-width:5.909999847412109px"/><path d="M767.92,140.47v41.76" style="fill:none;stroke:#1a1a1a;stroke-linecap:round;stroke-linejoin:round;stroke-width:5.880000114440918px"/><path d="M708.75,525.61c2.25-153.34-.33-390.68-.33-390.68" style="fill:none;stroke:#1a1a1a;stroke-linecap:round;stroke-linejoin:round;stroke-width:5.909999847412109px"/><line x1="688.73" y1="165.42" x2="688.73" y2="514.88" style="fill:none;stroke:#1a1a1a;stroke-linecap:round;stroke-linejoin:round;stroke-width:4.900000095367432px"/><line x1="673.24" y1="165.42" x2="673.24" y2="521.45" style="fill:none;stroke:#1a1a1a;stroke-linecap:round;stroke-linejoin:round;stroke-width:4.900000095367432px"/><line x1="412.48" y1="165.42" x2="412.48" y2="520.23" style="fill:none;stroke:#1a1a1a;stroke-linecap:round;stroke-linejoin:round;stroke-width:4.900000095367432px"/><line x1="396.99" y1="165.42" x2="396.99" y2="514.54" style="fill:none;stroke:#1a1a1a;stroke-linecap:round;stroke-linejoin:round;stroke-width:4.900000095367432px"/><path d="M697.27,150.52H389.8c-9.23,8.91-1,14.2-1,14.2H697.9C698.38,165.19,703.75,157.34,697.27,150.52Z" style="fill:none;stroke:#1a1a1a;stroke-linejoin:round;stroke-width:4.900000095367432px"/><line x1="640.65" y1="165.71" x2="640.65" y2="491.77" style="fill:none;stroke:#1a1a1a;stroke-linecap:round;stroke-linejoin:round;stroke-width:4.429999828338623px"/><line x1="599.89" y1="422.18" x2="599.89" y2="497.04" style="fill:none;stroke:#1a1a1a;stroke-linecap:round;stroke-linejoin:round;stroke-width:4.429999828338623px"/><line x1="599.89" y1="165.71" x2="599.89" y2="358.81" style="fill:none;stroke:#1a1a1a;stroke-linecap:round;stroke-linejoin:round;stroke-width:4.429999828338623px"/><line x1="559.13" y1="404.79" x2="559.13" y2="502.31" style="fill:none;stroke:#1a1a1a;stroke-linecap:round;stroke-linejoin:round;stroke-width:4.429999828338623px"/><line x1="559.13" y1="165.71" x2="559.13" y2="248.87" style="fill:none;stroke:#1a1a1a;stroke-linecap:round;stroke-linejoin:round;stroke-width:4.429999828338623px"/><line x1="518.37" y1="408.23" x2="518.37" y2="503.63" style="fill:none;stroke:#1a1a1a;stroke-linecap:round;stroke-linejoin:round;stroke-width:4.429999828338623px"/><line x1="518.37" y1="165.71" x2="518.37" y2="276.39" style="fill:none;stroke:#1a1a1a;stroke-linecap:round;stroke-linejoin:round;stroke-width:4.429999828338623px"/><line x1="477.61" y1="393.33" x2="477.61" y2="499.67" style="fill:none;stroke:#1a1a1a;stroke-linecap:round;stroke-linejoin:round;stroke-width:4.429999828338623px"/><line x1="477.61" y1="165.71" x2="477.61" y2="323.39" style="fill:none;stroke:#1a1a1a;stroke-linecap:round;stroke-linejoin:round;stroke-width:4.429999828338623px"/><line x1="436.84" y1="165.71" x2="436.84" y2="491.77" style="fill:none;stroke:#1a1a1a;stroke-linecap:round;stroke-linejoin:round;stroke-width:4.429999828338623px"/><line x1="726.81" y1="277.1" x2="726.81" y2="297.97" style="fill:none;stroke:#927654;stroke-linecap:round;stroke-linejoin:round;stroke-width:3.680000066757202px"/><line x1="743.78" y1="152.76" x2="743.78" y2="172.94" style="fill:none;stroke:#927654;stroke-linecap:round;stroke-linejoin:round;stroke-width:3.680000066757202px"/><line x1="725.28" y1="404.62" x2="725.28" y2="437.06" style="fill:none;stroke:#927654;stroke-linecap:round;stroke-linejoin:round;stroke-width:3.680000066757202px"/><line x1="741.57" y1="329.92" x2="741.57" y2="366.13" style="fill:none;stroke:#927654;stroke-linecap:round;stroke-linejoin:round;stroke-width:3.680000066757202px"/><path d="M318.76,152.39s27.29,5.06,34.33,10.34c0,0-2.75,292.43,2.53,351.44,0,0-23-8.16-34.19-19.47C316.16,489.36,327,157.64,318.76,152.39Z" style="fill:#ccb399"/><path d="M364.81,166.22s-4.14,265,0,348" style="fill:none;stroke:#1a1a1a;stroke-linecap:round;stroke-linejoin:round;stroke-width:5.909999847412109px"/><path d="M319.3,151.26s6.89,136.93,0,343.73" style="fill:none;stroke:#1a1a1a;stroke-linecap:round;stroke-linejoin:round;stroke-width:5.909999847412109px"/><line x1="343.44" y1="244.15" x2="343.44" y2="265.02" style="fill:none;stroke:#927654;stroke-linecap:round;stroke-linejoin:round;stroke-width:3.680000066757202px"/><line x1="335.69" y1="289.98" x2="335.69" y2="310.16" style="fill:none;stroke:#927654;stroke-linecap:round;stroke-linejoin:round;stroke-width:3.680000066757202px"/><line x1="345.11" y1="434.6" x2="345.11" y2="463.52" style="fill:none;stroke:#927654;stroke-linecap:round;stroke-linejoin:round;stroke-width:3.680000066757202px"/><path d="M693.89,150.8a7.42,7.42,0,0,0-3.3,8.68" style="fill:none;stroke:#1a1a1a;stroke-linecap:round;stroke-linejoin:round;stroke-width:3.430000066757202px"/><path d="M472.67,363.58c38.83-21.47,45.49-73.51,45.49-73.51,29.4-2.75,34.91-26.64,34.91-26.64,25.73-1.38,28.49-19.76,28.49-19.76s17,35.38-11,84.08c0,0-22.51,14.7-30.78,44.56,0,0,9.44.21,10,11.44,0,0,3,10.08,7,10.08,0,0-13.69,5.1-24.93-1.65" style="fill:none;stroke:#1a1a1a;stroke-linecap:round;stroke-linejoin:round;stroke-width:5.019999980926514px"/><path d="M531.93,391.74C497.47,405.4,483.24,381,483.24,381" style="fill:none;stroke:#1a1a1a;stroke-linecap:round;stroke-linejoin:round;stroke-width:5.019999980926514px"/><path d="M488.42,371.63s-16.34.51-22-6.12c0,0-2.67-.7-6.23,2.86" style="fill:none;stroke:#1a1a1a;stroke-linecap:round;stroke-linejoin:round;stroke-width:3.8399999141693115px"/><path d="M483,380.44s-5.4.41-17.66-2.65a32.57,32.57,0,0,0-6.36,2.65" style="fill:none;stroke:#1a1a1a;stroke-linecap:round;stroke-linejoin:round;stroke-width:3.8399999141693115px"/><path d="M493.53,369.08s9.19-7.15,26.54-3.06" style="fill:none;stroke:#1a1a1a;stroke-linecap:round;stroke-linejoin:round;stroke-width:3.8399999141693115px"/><path d="M529.68,366.48s5.1-7.15,6.12-22.47c0,0,11.6-5.92,25.39-20.21" style="fill:none;stroke:#1a1a1a;stroke-linecap:round;stroke-linejoin:round;stroke-width:3.8399999141693115px"/><path d="M527.27,297.21s19.67,10.68,29.79,21.35" style="fill:none;stroke:#1a1a1a;stroke-linecap:round;stroke-linejoin:round;stroke-width:3.8399999141693115px"/><path d="M558.74,276.42c5.06,19.67,5.38,40.87,5.38,40.87S576.72,300,579,286" style="fill:none;stroke:#1a1a1a;stroke-linecap:round;stroke-linejoin:round;stroke-width:3.8399999141693115px"/><polyline points="460.44 362.3 446.6 366.13 455.79 372.82" style="fill:none;stroke:#1a1a1a;stroke-linecap:round;stroke-linejoin:round;stroke-width:3.8399999141693115px"/><path d="M472.13,362.06s.21-7.86-5.55-13c0,0,6.34-5.18-2.88-14.4,0,0,15.55,1.73,21.31,12.67" style="fill:none;stroke:#1a1a1a;stroke-linecap:round;stroke-linejoin:round;stroke-width:5.019999980926514px"/><line x1="541.4" y1="380.62" x2="543.72" y2="384.34" style="fill:none;stroke:#1a1a1a;stroke-linecap:round;stroke-linejoin:round;stroke-width:3.8399999141693115px"/><polygon points="565.11 358.65 575.01 357.51 565.68 375.41 588.15 377.31 568.35 388.74 581.48 401.3 570.44 405.87 605.91 412.23 580.13 391.05 623.48 371.35 576.88 368.91 593.19 340.88 565.11 358.65" style="fill:#fcd56c"/><polyline points="564.16 357.23 593.19 340.88 576.88 368.91 623.48 371.35 580.13 391.05 605.91 412.23 570.91 407.44" style="fill:none;stroke:#1a1a1a;stroke-linecap:round;stroke-linejoin:round;stroke-width:3.8399999141693115px"/></svg>