<svg id="圖層_1" data-name="圖層 1" xmlns="http://www.w3.org/2000/svg" viewBox="0 0 1080 616.71"><title>illustration-</title><rect width="1080" height="616.71" style="fill:#fff"/><ellipse cx="540" cy="300.48" rx="291.69" ry="226.72" style="fill:none;stroke:#e5efd0;stroke-miterlimit:10;stroke-width:5.909999847412109px"/><path d="M825.59,405.3a73.51,73.51,0,0,0,7.38-5.71c-288.91-22.34-534.35-3.26-599.75,2.78a14.86,14.86,0,0,0-.32,2.82,28.74,28.74,0,0,0,9.52,21.44c15.33,13,36.08,13.39,38.49,14.28-5.37,16.52,6,39.09,26.47,40.9l24.18,2.12c2.48,7.72,16.8,17,26.91,20.71,19.46,7.11,42.81,4.43,60.31,6.09,20.43,30.46,123.81,24.35,150.55,21.71,37.43-3.69,105.52-8.06,135.24-34.16,16.1-14.14,24.67-16.11,45.4-19.52,18.47-3,33.61-1.34,46.88-15.33,5.63-5.94,2.83-19.19,0-24.11,26.87-6.9,29.43-19.3,28.86-32.58C825.69,406.26,825.63,405.78,825.59,405.3Z" style="fill:#ede4da"/><polygon points="787.22 127.92 787.22 433.32 774.36 439.99 765.92 116.78 787.22 127.92" style="fill:#fff"/><polygon points="550.1 49.49 550.1 438.66 528.81 443.33 528.81 49.49 550.1 49.49" style="fill:#fff"/><ellipse cx="652.95" cy="445.36" rx="97.7" ry="10.46" style="fill:#ada082;opacity:0.41999998688697815;isolation:isolate"/><rect x="705.77" y="194.23" width="12.06" height="249.75" style="fill:#a3a3a3;stroke:#1a1a1a;stroke-linecap:round;stroke-linejoin:round;stroke-width:5.840000152587891px"/><rect x="571.35" y="194.23" width="12.06" height="249.75" style="fill:#a3a3a3;stroke:#1a1a1a;stroke-linecap:round;stroke-linejoin:round;stroke-width:5.840000152587891px"/><path d="M573.77,177.49H677.5a7.57,7.57,0,0,1,7.57,7.57h0a7.57,7.57,0,0,1-7.57,7.57H573.77a7.57,7.57,0,0,1-7.57-7.57h0A7.57,7.57,0,0,1,573.77,177.49Z" style="fill:#e0e0e0"/><path d="M739.14,96.61l.3,343.56,5.69,2.92c13.47,1.11,18.91,2.16,25.31-1.1l5.51-2.2-2.7-333.67" style="fill:#ccb399"/><line x1="739.74" y1="97.82" x2="737.52" y2="440.15" style="fill:none;stroke:#1a1a1a;stroke-linecap:round;stroke-linejoin:round;stroke-width:5.909999847412109px"/><line x1="787.21" y1="108.63" x2="787.21" y2="433.26" style="fill:none;stroke:#1a1a1a;stroke-linecap:round;stroke-linejoin:round;stroke-width:5.909999847412109px"/><polyline points="536.36 43.17 539.46 434.48 506.57 460.68 506.02 449.33 503.79 168.92 501.34 136.59 501.78 50.52" style="fill:#ccb399"/><line x1="551.16" y1="40.21" x2="551.16" y2="427.62" style="fill:none;stroke:#1a1a1a;stroke-linecap:round;stroke-linejoin:round;stroke-width:5.909999847412109px"/><path d="M573.77,177.49H718.44a7.57,7.57,0,0,1,7.57,7.57h0a7.57,7.57,0,0,1-7.57,7.57H573.77a7.57,7.57,0,0,1-7.57-7.57h0A7.57,7.57,0,0,1,573.77,177.49Z" style="fill:none;stroke:#1a1a1a;stroke-linecap:round;stroke-linejoin:round;stroke-width:5.909999847412109px"/><rect x="571.38" y="373.25" width="145.87" height="46.21" style="fill:#fff"/><polygon points="571.38 373.25 571.38 419.46 691.19 419.46 642.16 373.25 571.38 373.25" style="fill:#e0e0e0"/><polygon points="571.38 373.25 571.38 385.69 567.79 419.46 721.52 419.46 717.24 385.69 717.24 373.25 571.38 373.25" style="fill:none;stroke:#1a1a1a;stroke-linecap:round;stroke-linejoin:round;stroke-width:5.909999847412109px"/><line x1="580.44" y1="385.69" x2="708.23" y2="385.69" style="fill:none;stroke:#1a1a1a;stroke-linecap:round;stroke-linejoin:round;stroke-width:4.429999828338623px"/><line x1="602.43" y1="192.63" x2="602.43" y2="373.25" style="fill:none;stroke:#1a1a1a;stroke-linecap:round;stroke-linejoin:round;stroke-width:4.829999923706055px"/><line x1="623.47" y1="192.63" x2="623.47" y2="373.25" style="fill:none;stroke:#1a1a1a;stroke-linecap:round;stroke-linejoin:round;stroke-width:4.829999923706055px"/><line x1="644.51" y1="192.63" x2="644.51" y2="373.25" style="fill:none;stroke:#1a1a1a;stroke-linecap:round;stroke-linejoin:round;stroke-width:4.829999923706055px"/><line x1="665.55" y1="192.63" x2="665.55" y2="373.25" style="fill:none;stroke:#1a1a1a;stroke-linecap:round;stroke-linejoin:round;stroke-width:4.829999923706055px"/><line x1="686.59" y1="192.63" x2="686.59" y2="373.25" style="fill:none;stroke:#1a1a1a;stroke-linecap:round;stroke-linejoin:round;stroke-width:4.829999923706055px"/><path d="M344.39,481.46l225.61,5,48.93-5.24c-6.84-32.55-30.6-36.14-30.6-36.14C556.83,430.24,529,432.93,529,432.93c-14.69-5.41-19.63-22-19.63-22l-16.51-23.87-18.6-26.23-21-8.16c-104.79-37.23-162.65,67.16-162.65,67.16L286,440.39l-.4,10.87-6,8.86L286,469l58.38,12.48" style="fill:#fff"/><path d="M616.46,486c-2.15-2.44-3.84-5-6.13-7.17s-3.45-5.91-6-7.79-5.69-3.16-8.39-4.79-4.52-5.45-7.36-6.81-7.37.68-10.32-.42-5.3-4.6-8.32-5.45-6.9,1-10,.41-6.42-.16-9.51-.55c-3.26-.41-6.27-1.65-9.34-1.84-3.33-.2-6.47-2.42-9.51-2.42-3.41,0-6.44,4.36-9.39,4.53-3.6.21-6.78-.77-9.49-.45a69.69,69.69,0,0,1-11.34.36c-1.07-3-2.06-6-3.2-8.81s1-7.36-.3-10.16-2.41-6-3.83-8.77-4.65-4.82-6.23-7.45-2.82-5.84-4.57-8.36-2.46-6.33-4.39-8.71-6-3.46-8.07-5.69-4.57-4.52-6.86-6.57-6.41-2.13-8.87-4-3.3-6.49-5.93-8.08-7.51.68-10.29-.64-5.26-3.29-8.17-4.32-5.11-5-8.11-5.72-6.78,1.87-9.83,1.46-6-4.45-9.1-4.54-6.63-.85-9.69-.62-6.47.27-9.49.8-5.52,4.23-8.47,5-6.68-.2-9.54.92-4.77,4.65-7.51,6-7.06.27-9.66,1.91-5.07,3.9-7.52,5.77-4.37,4.64-6.64,6.73-1.44,7.16-3.52,9.44-5.6,3.16-7.46,5.61-5.5,3.74-7.14,6.35-1.16,6.41-2.57,9.16c-1.69,4.16-1.91,4.06-3.47,8.27s.51,5-1,9.18-.86,4.48-2.42,8.69-6.11,2.52-7.67,6.72-.54,4.6-2.1,8.81-6.23,5.52-3.93,9.38,5.49,2.11,10,2.92,5.08-2.13,9.63-1.32,4.23,2.61,8.79,3.42,4.34,2,8.89,2.83,4.55.88,9.1,1.69,4.42,1.55,9,2.36,5.15-2.49,9.7-1.68,4.31,2.25,8.86,3.06" style="fill:#cddc4c"/><polyline points="623.98 483.25 565.85 485.03 548.19 484.02 531.01 485.57 512.61 486.42 484.68 487.99 466.94 488.25 454.02 481.81 381.72 484.65 338.21 448.63" style="fill:#cddc4c"/><path d="M622,484.11a83.3,83.3,0,0,0-4-8.37c-1.65-2.83-2.66-5.74-4.53-8.2s-2.9-5.91-5.08-8.12-5.68-3.18-8.13-5.11-3.13-6.83-5.81-8.45-7.72.88-10.57-.44-4.13-6.9-7.09-7.92-6.12-2.89-9.14-3.63-6.72-.54-9.76-1c-3.27-.52-6.59-1.26-9.61-1.52-3.38-.29-6.82,2.41-9.77,2.36-3.59-.06-6.76.79-9.48.93-5.9.3-5.32,2.22-9.56,0-1-2.93-.87-6.31-2-9.07s-5.62-4.29-6.83-7,1.25-7.41-.08-10.06-2.16-6-3.64-8.55-4.52-4.6-6.15-7.08-6.39-3-8.18-5.36-.43-7.58-2.39-9.81-7.2-1.65-9.33-3.72-5.06-3.21-7.36-5.1-1.42-8.31-3.88-10-8.07,1.51-10.69.07-4.12-5.12-6.87-6.31-4.87-4.59-7.73-5.51-5.78-2.88-8.71-3.54-6.58,1.17-9.56.76-6-2.82-9-3-6.26,2.18-9.27,2.24-5.83,3.69-8.81,4-6.29-1.85-9.24-1.39-6.54-1.29-9.44-.66c-3.07.67-6.11,1.46-8.94,2.24-3.07.84-6.31,1-9,2-3.1,1-5.23,4.32-7.84,5.34-3.22,1.26-5.15,4.44-7.51,5.51-5.21,2.36-3.94,1.63-7.77,4.1-4,2.56-4.56-.47-9,3.64-1.94,1.82-2.65,5.57-5.11,8.22-2,2.11-5.77,3-7.93,5.61-1.88,2.29-5.29,3.78-7.25,6.48-1.78,2.43,1.41,8.41-.37,11.18-1.64,2.56-8.14,2.28-9.75,5.12-1.51,2.66-2.31,5.93-3.75,8.84-1.37,2.75.4,7-.88,10s-3.83,5.12-4.94,8.15-3.06,5.56-4,8.65-3.9,5.49-4.68,8.61.08,6.53-.54,9.69-1,6.23-1.48,9.41" style="fill:none;stroke:#1a1a1a;stroke-linecap:round;stroke-linejoin:round;stroke-width:5.909999847412109px"/><path d="M442.32,484.91c3,0,6.07.57,9.09.54s6.07.16,9.08.13,6.08.29,9.09.25,6.08-.21,9.09-.25,6.11,2,9.11,2,6-2.88,9-2.93,6.11,1.42,9.1,1.37,6.07-1.56,9.06-1.61,6.15,2.79,9.13,2.74,6.07-2.25,9-2.31,6.1-.6,9.07-.65,6.12-.35,9.08-.41,6.12-.44,9.07-.5c3.12-.06,6.16.29,9.09.23,3.14-.07,6.2,1.17,9.11,1.1,3.16-.07,6.17-1.39,9-1.46,3.21-.07,6.24-.56,9.08-.63,3.29-.08,6.34.52,9.09.45,3.5-.08,6.52-.71,9.06-.77,5.87-.15,4.54-.06,9.07-.18" style="fill:none;stroke:#1a1a1a;stroke-linecap:round;stroke-linejoin:round;stroke-width:5.909999847412109px"/><path d="M280.82,467.91c4.65,1,3.32,1.44,9.18,2.65,2.66.55,6,.32,9.53,1,2.88.57,6,1.29,9.34,1.91,3,.55,5.82,2.81,9.09,3.37,3,.53,6.33.28,9.55.8s6.39,0,9.58.46,6,2.81,9.19,3.24,6.61-1.54,9.76-1.17,6.33.74,9.47,1,6.25,2.29,9.36,2.5,6.53-1.36,9.62-1.26c3.31.1,6.49,2.55,9.52,2.49s6.31-1.91,9.7-1.71c3.14.18,6.33,1.23,9.62,1.52s6.6-1.1,9.81-.81,6.48.7,9.61.89c3.39.21,6.57,1.83,9.59,1.79" style="fill:none;stroke:#1a1a1a;stroke-linecap:round;stroke-linejoin:round;stroke-width:5.909999847412109px"/><line x1="502.79" y1="50.43" x2="502.79" y2="393.76" style="fill:none;stroke:#1a1a1a;stroke-linecap:round;stroke-linejoin:round;stroke-width:5.909999847412109px"/><path d="M574.56,103S558.82,128,560,152.8c0,0-79.86,32.41-95.87,86.76L419.06,255.8l-.65-46.51L552.78,106.58S555,91.76,574.56,103Z" style="fill:#fff"/><path d="M307.26,285.86s35.07-31.52,73.42-25.25c0,0,30.86,30.37,53.09,24.88,0,0-44.26,26.19-63.07,26.56C370.7,312,316.11,321.27,307.26,285.86Z" style="fill:#bcb2ae"/><path d="M384.67,281.92s4.26-9.65,11-10.69l-5.54-13.14-10.6-1-3.29,7.6,7.51,16" style="fill:#827975"/><polyline points="411.7 257.06 421.07 247.69 423.98 253.02 421.71 267.4" style="fill:#827975"/><path d="M349.44,254.37s-29.35,7.7-50.34,29.21l-17.32,6.3s-.77-53.47-35.55-40.64c0,0,11.5-54.59-39.19-79.14,0,0-1.21-41-21-56.72,0,0,39,1.73,46.36,3.31,0,0,85.92,37.62,103.84,55.55l-3.59,58.86S342.62,257.52,349.44,254.37Z" style="fill:#928985"/><path d="M283.94,289.34s-.64,8-11.18,15c0,0-9.58.32,9.58,21.08l11.82,15.33L322.91,304l-21.4-23" style="fill:#928985"/><path d="M381.89,246.77l11.77-25.42,53.49-57,80.67-61.61,36.25-2.82s-19.77,33.42-15.53,51.31c0,0-68.73,21.18-94.62,84.74l-31.64,11.34-13,7.13Z" style="fill:#928985"/><path d="M284.67,296.35s-12.82,7.16-16.21,13.94c0,0,20.73,20,25.25,32.41l26.38-35.8" style="fill:none;stroke:#1a1a1a;stroke-linecap:round;stroke-linejoin:round;stroke-width:5.909999847412109px"/><path d="M425.52,277.92a26.07,26.07,0,0,0-7.16-14.09c-17.35-22-55.49-12.36-55.49-12.36S345.72,244,342,221c0,0-4.15-35.43-1.88-47.49,0,0-55.25-54.08-109.89-65,0,0-23-1.5-44.1,4.9,0,0,28.87,30,21,56.72,0,0,53.13,24.12,39.19,79.14,0,0,27.51-5.65,31.28,18.84a101.44,101.44,0,0,0,1.4,11.7" style="fill:none;stroke:#1a1a1a;stroke-linecap:round;stroke-linejoin:round;stroke-width:5.909999847412109px"/><path d="M307.46,288.19c4.67,14,26.7,23.36,26.7,23.36,40,9.35,81.78-15.25,81.78-15.25" style="fill:none;stroke:#1a1a1a;stroke-linecap:round;stroke-linejoin:round;stroke-width:5.909999847412109px"/><path d="M300.5,300.12s-8.3,11.3-6.79,28.64" style="fill:none;stroke:#1a1a1a;stroke-linecap:round;stroke-linejoin:round;stroke-width:4.429999828338623px"/><path d="M349.26,255l-23.12-23.94s12.58-35.29,10.14-58.82c0,0-43,6.08-79.91,62.07" style="fill:none;stroke:#1a1a1a;stroke-linecap:round;stroke-linejoin:round;stroke-width:4.429999828338623px"/><path d="M217,164.13c41-17.85,119.26,8.11,119.26,8.11s-64.9-53.95-122.91-49.9" style="fill:none;stroke:#1a1a1a;stroke-linecap:round;stroke-linejoin:round;stroke-width:4.429999828338623px"/><path d="M340.07,173.49s8.38-8.15,14.87.78" style="fill:none;stroke:#1a1a1a;stroke-linecap:round;stroke-linejoin:round;stroke-width:5.909999847412109px"/><path d="M304.24,278.52S292.07,289.88,275,289.88c0,0-6.49-4.46-8.12,4.87" style="fill:none;stroke:#1a1a1a;stroke-linecap:round;stroke-linejoin:round;stroke-width:5.909999847412109px"/><path d="M396.73,270s-2.44-12.57-15-14.6c0,0-13,3.25.81,26" style="fill:none;stroke:#1a1a1a;stroke-linecap:round;stroke-linejoin:round;stroke-width:4.429999828338623px"/><path d="M411.74,258.24s.4-7.71,10.54-11c0,0,3.66,6.49-.4,19.06" style="fill:none;stroke:#1a1a1a;stroke-linecap:round;stroke-linejoin:round;stroke-width:4.429999828338623px"/><path d="M314.06,271.66a58.4,58.4,0,0,1,24.32-15.44" style="fill:none;stroke:#1a1a1a;stroke-linecap:round;stroke-linejoin:round;stroke-width:4.429999828338623px"/><path d="M375.84,249s7.6-2.13,13.06-22.76c0,0,43.68-45.51,58.25-61.89,0,0,58.85-51,86.15-63.71,0,0,15.78-5.46,41.26,2.43,0,0-17,20.62-14.56,49.75,0,0-80.7,30.94-95.87,86.76,0,0-26.33,5-37.86,12.25" style="fill:none;stroke:#1a1a1a;stroke-linecap:round;stroke-linejoin:round;stroke-width:5.909999847412109px"/><path d="M442.9,169.18s10.92-3.64,13.35,4.25" style="fill:none;stroke:#1a1a1a;stroke-linecap:round;stroke-linejoin:round;stroke-width:5.909999847412109px"/><path d="M431.8,192.94l-28.46,34.6c-1.22,4.25.12,23.55.12,23.55" style="fill:none;stroke:#1a1a1a;stroke-linecap:round;stroke-linejoin:round;stroke-width:4.429999828338623px"/><path d="M463.83,161.59s25.79-14.86,41.56-16.68c0,0,29-1.19,41.7,2.45" style="fill:none;stroke:#1a1a1a;stroke-linecap:round;stroke-linejoin:round;stroke-width:4.429999828338623px"/><path d="M446.68,179.14S453,216,457.3,230.58" style="fill:none;stroke:#1a1a1a;stroke-linecap:round;stroke-linejoin:round;stroke-width:4.429999828338623px"/><circle cx="403.26" cy="278.46" r="4.46" style="fill:#1a1a1a"/><path d="M418.31,275.67s10.32,6.13,16.73,4.74c0,0,9.48,5.57-20.63,16.73" style="fill:none;stroke:#1a1a1a;stroke-linecap:round;stroke-linejoin:round;stroke-width:5.909999847412109px"/><line x1="421.61" y1="293.53" x2="408.34" y2="288.77" style="fill:none;stroke:#1a1a1a;stroke-linecap:round;stroke-linejoin:round;stroke-width:4.429999828338623px"/><path d="M372.14,295.92a42.3,42.3,0,0,1-13.36,3.28" style="fill:none;stroke:#8d827f;stroke-linecap:round;stroke-miterlimit:10;stroke-width:4.139999866485596px"/><path d="M360.86,286a106.44,106.44,0,0,1-14.19,2.08" style="fill:none;stroke:#8d827f;stroke-linecap:round;stroke-miterlimit:10;stroke-width:4.139999866485596px"/><ellipse cx="453.17" cy="446.45" rx="7.17" ry="4.15" transform="translate(-176.8 358) rotate(-36.58)" style="fill:#7ebc25"/><ellipse cx="331.27" cy="446.6" rx="4.15" ry="7.17" transform="translate(-221.13 510.19) rotate(-60)" style="fill:#7ebc25"/><ellipse cx="405.16" cy="445.43" rx="8.99" ry="5.21" transform="translate(-189.48 540.14) rotate(-56.76)" style="fill:#7ebc25"/><ellipse cx="369.11" cy="406.97" rx="5.21" ry="8.99" transform="translate(-154.03 239.08) rotate(-30)" style="fill:#7ebc25"/><ellipse cx="417.69" cy="403.55" rx="4.15" ry="7.17" transform="translate(-39.21 44.99) rotate(-5.89)" style="fill:#7ebc25"/><ellipse cx="545.32" cy="467.84" rx="2.94" ry="5.07" transform="translate(5.73 942.28) rotate(-81.95)" style="fill:#7ebc25"/><path d="M233.22,402.37s34.69-3.86,62.41-5.65" style="fill:none;stroke:#1a1a1a;stroke-linecap:round;stroke-linejoin:round;stroke-width:5.909999847412109px"/><line x1="797.26" y1="395.82" x2="832.97" y2="399.59" style="fill:none;stroke:#1a1a1a;stroke-linecap:round;stroke-linejoin:round;stroke-width:5.909999847412109px"/></svg>