<svg id="圖層_1" data-name="圖層 1" xmlns="http://www.w3.org/2000/svg" viewBox="0 0 1080 616.71"><title>illustration-failure</title><rect width="1080" height="616.71" style="fill:#fff"/><ellipse cx="540" cy="300.48" rx="291.69" ry="226.72" style="fill:none;stroke:#e5efd0;stroke-miterlimit:10;stroke-width:5.909999847412109px"/><path d="M825.59,405.3a73.51,73.51,0,0,0,7.38-5.71c-288.91-22.34-534.35-3.26-599.75,2.78a14.86,14.86,0,0,0-.32,2.82,28.74,28.74,0,0,0,9.52,21.44c15.33,13,36.08,13.39,38.49,14.28-5.37,16.52,6,39.09,26.47,40.9l24.18,2.12c2.48,7.72,16.8,17,26.91,20.71,19.46,7.11,42.81,4.43,60.31,6.09,20.43,30.46,123.81,24.35,150.55,21.71,37.43-3.69,105.52-8.06,135.24-34.16,16.1-14.14,24.67-16.11,45.4-19.52,18.47-3,33.61-1.34,46.88-15.33,5.63-5.94,2.83-19.19,0-24.11,26.87-6.9,29.43-19.3,28.86-32.58C825.69,406.26,825.63,405.78,825.59,405.3Z" style="fill:#ede4da"/><polygon points="787.22 127.92 787.22 433.32 774.36 439.99 765.92 116.78 787.22 127.92" style="fill:#fff"/><polygon points="550.1 49.49 550.1 438.66 528.81 443.33 528.81 49.49 550.1 49.49" style="fill:#fff"/><ellipse cx="652.95" cy="445.36" rx="97.7" ry="10.46" style="fill:#ada082;opacity:0.41999998688697815;isolation:isolate"/><rect x="705.77" y="194.23" width="12.06" height="249.75" style="fill:#a3a3a3;stroke:#1a1a1a;stroke-linecap:round;stroke-linejoin:round;stroke-width:5.840000152587891px"/><rect x="571.35" y="194.23" width="12.06" height="249.75" style="fill:#a3a3a3;stroke:#1a1a1a;stroke-linecap:round;stroke-linejoin:round;stroke-width:5.840000152587891px"/><path d="M573.77,177.49H677.5a7.57,7.57,0,0,1,7.57,7.57h0a7.57,7.57,0,0,1-7.57,7.57H573.77a7.57,7.57,0,0,1-7.57-7.57h0A7.57,7.57,0,0,1,573.77,177.49Z" style="fill:#e0e0e0"/><path d="M739.14,96.61l.3,343.56,5.69,2.92c13.47,1.11,18.91,2.16,25.31-1.1l5.51-2.2-2.7-333.67" style="fill:#ccb399"/><line x1="739.74" y1="97.82" x2="737.52" y2="440.15" style="fill:none;stroke:#1a1a1a;stroke-linecap:round;stroke-linejoin:round;stroke-width:5.909999847412109px"/><line x1="787.21" y1="108.63" x2="787.21" y2="433.26" style="fill:none;stroke:#1a1a1a;stroke-linecap:round;stroke-linejoin:round;stroke-width:5.909999847412109px"/><polyline points="536.36 43.17 539.46 434.48 506.57 460.68 506.02 449.33 503.79 168.92 501.34 136.59 501.78 50.52" style="fill:#ccb399"/><line x1="551.16" y1="40.21" x2="551.16" y2="427.62" style="fill:none;stroke:#1a1a1a;stroke-linecap:round;stroke-linejoin:round;stroke-width:5.909999847412109px"/><path d="M573.77,177.49H718.44a7.57,7.57,0,0,1,7.57,7.57h0a7.57,7.57,0,0,1-7.57,7.57H573.77a7.57,7.57,0,0,1-7.57-7.57h0A7.57,7.57,0,0,1,573.77,177.49Z" style="fill:none;stroke:#1a1a1a;stroke-linecap:round;stroke-linejoin:round;stroke-width:5.909999847412109px"/><rect x="571.38" y="373.25" width="145.87" height="46.21" style="fill:#fff"/><polygon points="571.38 373.25 571.38 419.46 691.19 419.46 642.16 373.25 571.38 373.25" style="fill:#e0e0e0"/><polygon points="571.38 373.25 571.38 385.69 567.79 419.46 721.52 419.46 717.24 385.69 717.24 373.25 571.38 373.25" style="fill:none;stroke:#1a1a1a;stroke-linecap:round;stroke-linejoin:round;stroke-width:5.909999847412109px"/><line x1="580.44" y1="385.69" x2="708.23" y2="385.69" style="fill:none;stroke:#1a1a1a;stroke-linecap:round;stroke-linejoin:round;stroke-width:4.429999828338623px"/><line x1="602.43" y1="192.63" x2="602.43" y2="373.25" style="fill:none;stroke:#1a1a1a;stroke-linecap:round;stroke-linejoin:round;stroke-width:4.829999923706055px"/><line x1="623.47" y1="192.63" x2="623.47" y2="373.25" style="fill:none;stroke:#1a1a1a;stroke-linecap:round;stroke-linejoin:round;stroke-width:4.829999923706055px"/><line x1="644.51" y1="192.63" x2="644.51" y2="373.25" style="fill:none;stroke:#1a1a1a;stroke-linecap:round;stroke-linejoin:round;stroke-width:4.829999923706055px"/><line x1="665.55" y1="192.63" x2="665.55" y2="373.25" style="fill:none;stroke:#1a1a1a;stroke-linecap:round;stroke-linejoin:round;stroke-width:4.829999923706055px"/><line x1="686.59" y1="192.63" x2="686.59" y2="373.25" style="fill:none;stroke:#1a1a1a;stroke-linecap:round;stroke-linejoin:round;stroke-width:4.829999923706055px"/><path d="M344.39,481.46l225.61,5,48.93-5.24c-6.84-32.55-30.6-36.14-30.6-36.14C556.83,430.24,529,432.93,529,432.93c-14.69-5.41-19.63-22-19.63-22l-16.51-23.87-18.6-26.23-21-8.16c-104.79-37.23-162.65,67.16-162.65,67.16L286,440.39l-.4,10.87-6,8.86L286,469l58.38,12.48" style="fill:#fff"/><path d="M618,484.63c-2.16-2.45-3.34-5.9-5.63-8s-5.62-3.52-8.13-5.4-6.67-1.51-9.36-3.13-4.53-5-7.37-6.32-5.42-3.87-8.37-5-6.48-1.12-9.51-2-6.37-1.1-9.44-1.71-6.71,1.67-9.8,1.28c-3.26-.41-6-4.26-9.12-4.45-3.32-.21-6.56.55-9.6.55-3.41,0-6.52,1.72-9.46,1.89-3.61.21-7.16-3.24-9.86-2.92-5.93.71-5.3,6.41-9.59,4.29-1.07-3-4-5.87-5.19-8.73s-.47-6.66-1.74-9.46-2-6.11-3.45-8.83-2.86-5.75-4.45-8.38-6.32-3.43-8.06-6,.61-8.41-1.31-10.8-8.09-1.41-10.19-3.64-2.82-6-5.11-8.09-5.45-3.25-7.92-5.08-4.41-4.7-7-6.29a89.1,89.1,0,0,0-8.09-4.89c-2.79-1.32-6.59-.46-9.49-1.49s-5.1-5.06-8.1-5.78-6.43-.68-9.49-1.09-6.44,1.14-9.52,1-6.45-2.77-9.51-2.54-5.84,3.21-8.86,3.74-6.76-1.72-9.71-.89-4.36,6.27-7.22,7.39-7.26-1.34-10,0-4.86,4-7.47,5.66-6.33,1.84-8.78,3.71-1.92,7.25-4.19,9.33-5.35,3.13-7.43,5.41-2.65,5.58-4.52,8-5.27,3.65-6.92,6.26-1.07,6-2.48,8.76c-1.69,4.16-6.06,2.45-7.62,6.66s.1,4.82-1.46,9-3,3.66-4.61,7.87-1.11,4.38-2.67,8.58,2.32,5.66.76,9.87-6.43,2.62-4.13,6.48,3.33-.49,7.88.32,4.6.57,9.15,1.39,4.31,2.2,8.86,3,4,4.06,8.53,4.87,5-1.42,9.51-.6,4.2,2.8,8.75,3.61,4.92-1.17,9.47-.36,4.16,3.09,8.71,3.9" style="fill:#cddc4c"/><polyline points="623.98 483.25 565.85 485.03 548.19 484.02 531.01 485.57 512.61 486.42 484.68 487.99 466.94 488.25 454.02 481.81 381.72 484.65 338.21 448.63" style="fill:#cddc4c"/><path d="M625.59,482.55c-1.32-3-7-3.59-8.58-6.26-1.65-2.83-1.61-6.36-3.48-8.82s-2.06-6.76-4.24-9S603,455.88,600.5,454s-4.17-5.21-6.85-6.84a89.3,89.3,0,0,0-8.35-4.84c-2.93-1.35-6.79-.29-9.74-1.31s-6.53.15-9.55-.59-5.13-7-8.18-7.46c-3.26-.52-6.67-.18-9.69-.45-3.38-.29-6.75,3-9.7,3-3.59-.07-6.92-4.65-9.64-4.51-5.9.3-5.9,7.41-10.15,5.24-1-2.94,1.66-8.52.57-11.28s-4.43-4.92-5.64-7.63-2.45-5.71-3.78-8.36-1.59-6.26-3.07-8.83-2.71-5.77-4.34-8.25-4.93-4.26-6.72-6.62-5.43-3.57-7.38-5.8-6-2.63-8.09-4.7-3.73-4.72-6-6.6-3.49-5.42-6-7.09-4.2-5-6.82-6.48-7.56,1.63-10.3.44-3.86-7-6.71-7.91-6.09-1.56-9-2.23-6.47,1.13-9.45.72-5.85-3.85-8.86-4-6.19,4.9-9.2,5-6,0-8.94.29-6.37-2-9.32-1.54-6.66-1.6-9.56-1c-3.07.67-5.69,3.27-8.52,4-3.07.85-6.62,0-9.36,1-3.09,1-3.93,7.69-6.54,8.71-3.22,1.26-6,2.27-8.32,3.35-5.2,2.36-6.93-3.25-10.77-.78s-.55,5.1-4.93,9.21c-2,1.83-3.57,4.53-6,7.18-2,2.12-6.94,2-9.11,4.59-1.88,2.3-1.23,6.81-3.19,9.51-1.77,2.43-5.44,3.72-7.22,6.49-1.65,2.56-.31,7-1.92,9.84-1.51,2.66-6.32,3.63-7.76,6.54-1.37,2.75-2.69,5.69-4,8.67-1.21,2.82-.62,6.46-1.74,9.49s-4.42,5.12-5.37,8.2-1.77,6.08-2.55,9.21-2.65,5.93-3.28,9.09,5,7.18,4.54,10.37" style="fill:none;stroke:#1a1a1a;stroke-linecap:round;stroke-linejoin:round;stroke-width:5.909999847412109px"/><path d="M442.34,487.07c3,0,6-2.37,9.06-2.41s6.08,1,9.1,1l9.08-.1c3,0,6.07-.44,9.08-.48s6.11,2,9.11,1.9,6-2.62,9-2.67,6.09.46,9.09.41S512,486.08,515,486s6.06-2,9-2,6.14,2.17,9.12,2.12,6.1-1.07,9.07-1.12,6.11-.27,9.08-.33,6.17,1.79,9.12,1.73c3.11-.06,6.13-1,9.06-1,3.14-.06,6.13-2,9-2.1,3.17-.07,6.22.85,9.1.79,3.22-.07,6.22-1.55,9.06-1.62,3.29-.07,6.32-.34,9.07-.4,3.49-.08,6.59,2.2,9.13,2.13,5.87-.14,4.53-.33,9.07-.45" style="fill:none;stroke:#1a1a1a;stroke-linecap:round;stroke-linejoin:round;stroke-width:5.909999847412109px"/><path d="M280.58,469c4.66,1,3.35,1.44,9.21,2.64,2.66.55,6.28-1.17,9.83-.48,2.88.56,5.87,1.93,9.22,2.55,3,.55,6,1.47,9.32,2,3,.53,6.22.86,9.44,1.38s6.26.79,9.46,1.26,6.39,0,9.57.39,6.19,1.7,9.34,2.06,6.4.17,9.54.46,6.37.47,9.49.68,6.36,1.73,9.44,1.83c3.31.11,6.54,1.51,9.58,1.45s6.2-.58,9.6-.38c3.13.18,6.56-1.9,9.84-1.61s6.46.5,9.67.79,6.44,1.42,9.57,1.61c3.4.21,6.63,2.07,9.65,2" style="fill:none;stroke:#1a1a1a;stroke-linecap:round;stroke-linejoin:round;stroke-width:5.909999847412109px"/><line x1="502.79" y1="50.43" x2="502.79" y2="393.76" style="fill:none;stroke:#1a1a1a;stroke-linecap:round;stroke-linejoin:round;stroke-width:5.909999847412109px"/><ellipse cx="453.17" cy="446.45" rx="7.17" ry="4.15" transform="translate(-176.8 358) rotate(-36.58)" style="fill:#7ebc25"/><ellipse cx="331.27" cy="446.6" rx="4.15" ry="7.17" transform="translate(-221.13 510.19) rotate(-60)" style="fill:#7ebc25"/><ellipse cx="405.16" cy="445.43" rx="8.99" ry="5.21" transform="translate(-189.48 540.14) rotate(-56.76)" style="fill:#7ebc25"/><ellipse cx="369.11" cy="406.97" rx="5.21" ry="8.99" transform="translate(-154.03 239.08) rotate(-30)" style="fill:#7ebc25"/><ellipse cx="417.69" cy="403.55" rx="4.15" ry="7.17" transform="translate(-39.21 44.99) rotate(-5.89)" style="fill:#7ebc25"/><ellipse cx="544.33" cy="466.56" rx="2.94" ry="5.07" transform="translate(7.22 941.41) rotate(-82.08)" style="fill:#7ebc25"/><path d="M233.22,402.37s34.69-3.86,62.41-5.65" style="fill:none;stroke:#1a1a1a;stroke-linecap:round;stroke-linejoin:round;stroke-width:5.909999847412109px"/><line x1="797.26" y1="395.82" x2="832.97" y2="399.59" style="fill:none;stroke:#1a1a1a;stroke-linecap:round;stroke-linejoin:round;stroke-width:5.909999847412109px"/><path d="M294.67,139.69s6,9.42,5.5,18.81c0,0,30.2,12.25,36.25,32.8l17,6.14.25-17.58L302.9,141S302.06,135.42,294.67,139.69Z" style="fill:#fff"/><path d="M398.87,205.52S385.61,193.6,371.11,196c0,0-14.8,14.78-23.21,12.7,0,0,16.74,9.9,23.85,10C371.75,218.71,395.53,218.91,398.87,205.52Z" style="fill:#bcb2ae"/><path d="M366.47,207.32s-1.62-3.65-4.17-4l2.09-5,4-.39,1.25,2.87-2.84,6" style="fill:#827975"/><polyline points="356.25 197.92 352.7 194.38 351.6 196.39 352.46 201.83" style="fill:#827975"/><path d="M373.54,197.86s17.34,1.95,25.28,10.09l6.55,2.38s.29-20.22,13.44-15.37c0,0-4.35-20.64,14.82-29.92,0,0,.46-15.51,7.92-21.45,0,0-14.75.66-17.53,1.25,0,0-32.48,14.23-39.26,21L381.1,188.4S376.12,199.06,373.54,197.86Z" style="fill:#928985"/><path d="M404.55,210.13s.24,3,4.23,5.67c0,0,3.62.12-3.62,8l-4.47,5.8-10.87-13.89,8.09-8.69" style="fill:#928985"/><path d="M367.52,194l-4.45-9.61-20.23-21.56-30.5-23.3-13.71-1.06s7.48,12.63,5.88,19.4c0,0,26,8,35.77,32l12,4.28,4.93,2.7Z" style="fill:#928985"/><path d="M405.13,207.32s6,6.07,7.3,8.64c0,0-9.86,9.64-11.57,14.34l-10-13.54" style="fill:none;stroke:#1a1a1a;stroke-linecap:round;stroke-linejoin:round;stroke-width:5.909999847412109px"/><path d="M406.41,206.52a40.51,40.51,0,0,0,.58-4.43c1.42-9.26,11.82-7.13,11.82-7.13-5.27-20.8,14.82-29.92,14.82-29.92-3-10.12,7.92-21.45,7.92-21.45a53.6,53.6,0,0,0-16.67-1.85c-20.66,4.13-41.55,24.58-41.55,24.58.86,4.56-.71,18-.71,18-1.43,8.69-7.91,11.53-7.91,11.53s-14.42-3.66-21,4.67a9.85,9.85,0,0,0-2.71,5.33l-5.14,1.5,8.76,5.45s15.78,9.3,30.92,5.76c0,0,8.33-3.53,10.1-8.83" style="fill:none;stroke:#1a1a1a;stroke-linecap:round;stroke-linejoin:round;stroke-width:5.909999847412109px"/><path d="M398.29,214.2a17,17,0,0,1,2.57,10.8" style="fill:none;stroke:#1a1a1a;stroke-linecap:round;stroke-linejoin:round;stroke-width:3.5399999618530273px"/><path d="M391.63,170.86s9.45,4.86,17.29,16.74" style="fill:none;stroke:#1a1a1a;stroke-linecap:round;stroke-linejoin:round;stroke-width:3.5399999618530273px"/><path d="M415.94,166.81A112.54,112.54,0,0,0,400,162.76c-1.59.46,13.24-8.91,24.31-10" style="fill:none;stroke:#1a1a1a;stroke-linecap:round;stroke-linejoin:round;stroke-width:3.5399999618530273px"/><path d="M383.33,166.32s-3.17-3.08-5.62.3" style="fill:none;stroke:#1a1a1a;stroke-linecap:round;stroke-linejoin:round;stroke-width:3.5399999618530273px"/><path d="M361.91,202.81s.92-4.75,5.67-5.52c0,0,4.91,1.23-.3,9.82" style="fill:none;stroke:#1a1a1a;stroke-linecap:round;stroke-linejoin:round;stroke-width:3.5399999618530273px"/><path d="M393.17,203.44a22.12,22.12,0,0,0-9.2-5.84" style="fill:none;stroke:#1a1a1a;stroke-linecap:round;stroke-linejoin:round;stroke-width:3.5399999618530273px"/><path d="M369.81,194.87s-2.88-.81-4.94-8.61c0,0-16.52-17.21-22-23.4,0,0-22.25-19.27-32.57-24.09,0,0-6-2.07-15.6.92a28.22,28.22,0,0,1,5.5,18.81s30.51,11.7,36.25,32.8c0,0,10,1.88,14.32,4.63" style="fill:none;stroke:#1a1a1a;stroke-linecap:round;stroke-linejoin:round;stroke-width:5.909999847412109px"/><path d="M332.11,162.07s-6.46-4.71-12.43-5.39a14.1,14.1,0,0,0-8.91-.47" style="fill:none;stroke:#1a1a1a;stroke-linecap:round;stroke-linejoin:round;stroke-width:3.5399999618530273px"/><path d="M342.65,172.62s-.73,3.63-2.34,9.14" style="fill:none;stroke:#1a1a1a;stroke-linecap:round;stroke-linejoin:round;stroke-width:3.5399999618530273px"/><path d="M294.06,333.35s27.27-43.93,90.89-54.54c0,0,92.4,3,84.83-28.78,0,0,0-33.32-53-48.47" style="fill:none;stroke:#adadad;stroke-linecap:round;stroke-linejoin:round;stroke-width:5.909999847412109px;stroke-dasharray:17.719999313354492"/></svg>