<?xml version="1.0" encoding="utf-8"?>
<!-- Generator: Adobe Illustrator 21.1.0, SVG Export Plug-In . SVG Version: 6.00 Build 0)  -->
<svg version="1.1" id="圖層_1" xmlns="http://www.w3.org/2000/svg" xmlns:xlink="http://www.w3.org/1999/xlink" x="0px" y="0px"
	 viewBox="0 0 156 156" style="enable-background:new 0 0 156 156;" xml:space="preserve">
<style type="text/css">
	.st0{clip-path:url(#SVGID_2_);}
	.st1{fill:#FFFFFF;}
	.st2{fill:#D6D6D6;}
	.st3{fill:#D6A17F;}
	.st4{fill:#E4BFA4;}
	.st5{fill:#2C88C9;}
	.st6{fill:#B3B3B3;}
	.st7{fill:none;stroke:#1A1A1A;stroke-width:2.84;stroke-linecap:round;stroke-linejoin:round;}
	.st8{fill:#C2DDEC;}
	.st9{fill:#2C88C9;stroke:#1A1A1A;stroke-width:2.84;stroke-linecap:round;stroke-linejoin:round;}
	.st10{fill:none;stroke:#1A1A1A;stroke-width:4.06;stroke-linecap:round;stroke-linejoin:round;}
	.st11{fill:#1A1A1A;}
	.st12{fill:#FFFFFF;stroke:#1A1A1A;stroke-width:2.84;stroke-linecap:round;stroke-linejoin:round;}
	.st13{fill:none;stroke:#A77858;stroke-width:2.84;stroke-linecap:round;stroke-miterlimit:10;}
	.st14{fill:none;stroke:#C8C9CA;stroke-width:4.06;stroke-miterlimit:10;}
</style>
<title>互動設計UI</title>
<g>
	<defs>
		<circle id="SVGID_1_" cx="78" cy="78" r="73"/>
	</defs>
	<clipPath id="SVGID_2_">
		<use xlink:href="#SVGID_1_"  style="overflow:visible;"/>
	</clipPath>
	<g class="st0">
		<circle class="st1" cx="78" cy="78" r="73"/>
		<path class="st2" d="M52.5,162l4,23.2c17.8-3.5,18.8,9,18.8,9L61,191.1l-26.2,4.3c1.3-8.9,15.8-10.3,15.8-10.3l-3.3-23.5l4.3-16.6
			l13.7-4.8"/>
		<path class="st3" d="M58.3,81.7c-8.4,4.5-37.8,22.2-52.1,52.9c0,0-14.6,17-18.8,24.1c0,0-2.9,5.7,1.4,7.3c0,0-2.9,13.5,23.6-6
			c0,0,24.5,0.2,53.3-17.3c0,0,18.9-8.6,29.6-25.8C80.5,110.3,69.3,97.4,58.3,81.7z"/>
		<path class="st4" d="M100.2,51.6c-1.9-2.2-4.3-3.8-7-4.7c-10.6,2-20.6,7.4-29.1,13.3c-2.3,5-3.8,11.5-3.5,20.3
			c0,0-0.9,0.4-2.3,1.2c11,15.7,22.2,28.7,36.9,35.2c5.6-9.1,1.7-20-1.4-33.9c-0.4-1.6-0.9-3.1-1.6-4.5c-1.4-2.8-0.7-10.3,6.2-12
			c-2-2-3.8-4.3-5.3-6.7c-2.3,2.3-5.5,3.9-10.6,2.5c5.1,1.4,8.2-0.2,10.6-2.5c-0.5-0.8-1.1-1.7-1.6-2.7c0.6,0.9,1.1,1.8,1.6,2.7
			C95.8,57,97.5,53,100.2,51.6z"/>
		<path class="st5" d="M82,45.5c0,0-11.8,1.7-17.9,14.7c8.5-5.9,18.5-11.3,29.2-13.3C89.7,45.6,85.8,45.1,82,45.5z"/>
		<path class="st6" d="M122.4,63.6c0,0-6.2-8.7-21.1-10.5c-0.3-0.5-0.7-1-1.1-1.5c-2.7,1.4-4.4,5.3-7.2,8.1c1.5,2.4,3.3,4.6,5.3,6.7
			c0.8-1.1,2-1.9,3.3-2.3C108.5,62.9,115.5,62.7,122.4,63.6z"/>
		<line class="st7" x1="-5.6" y1="160.1" x2="3.1" y2="152.2"/>
		<path class="st8" d="M98.2,54c-1.9,0.9-4,1-5.9,0.1c0,0-3.3-5.1-8.9-4.5c0,0-6.1,0.5-7.4,8.2c0,0,0,3.6,10.6,4.4
			c0,0,5.1,0.2,7.5-2.1"/>
		<path class="st9" d="M71.1,50.1c0,0-10.6,11.5-27.2,12.7c0,0,8.4,5.5,19.8-1.1"/>
		<path class="st10" d="M65.6,142.6c0,0,44.3-20.1,35.4-60.3c-0.4-1.6-0.9-3.1-1.7-4.6c-1.8-3.7-4.6-11.5,2.3-13.7
			c6.9-1.2,13.9-1.4,20.8-0.5c0,0-6.1-8.7-21.1-10.5c0,0-4.5-8.8-19.3-7.6c0,0-22.7,3.2-21.4,34.9c0,0-37.7,18.1-54.4,54.1
			c0,0-14.6,17-18.8,24.1c0,0-2.9,5.7,1.4,7.3c0,0-2.9,13.5,23.6-6C12.3,159.9,36.8,160.1,65.6,142.6z"/>
		<path class="st7" d="M96.8,55.4c-1.6,1.3-2.9,3-3.7,5l1.7,2.3"/>
		<circle class="st11" cx="84.2" cy="55.9" r="3.7"/>
		<path class="st12" d="M67.5,90.2c0,0-1.8,2.7,1.3,11.7"/>
		<path class="st12" d="M76.2,99.7c0,0-0.4,9.6,3,13.2"/>
		<line class="st7" x1="22" y1="129.9" x2="14.8" y2="140.5"/>
		<line class="st7" x1="28.7" y1="137.8" x2="26.9" y2="142"/>
		<path class="st7" d="M17.1,147.7c0,0,4.6,7.6,13.3-0.3c0,0,7.6,3.2,32.6-16.2"/>
		<path class="st7" d="M48.6,151.8l-1.4,9.8l3.3,23.5c0,0-12.5,0.7-14.2,8.3"/>
		<path class="st7" d="M59,148.4L52.5,162l4,23.2c0,0,17.1-2.7,17.4,6.5"/>
		<line class="st13" x1="46.5" y1="104.2" x2="36.7" y2="112.8"/>
		<line class="st13" x1="60" y1="105" x2="49.9" y2="112.7"/>
	</g>
</g>
<circle class="st14" cx="78" cy="78" r="73"/>
</svg>
