<?xml version="1.0" encoding="utf-8"?>
<!-- Generator: Adobe Illustrator 21.1.0, SVG Export Plug-In . SVG Version: 6.00 Build 0)  -->
<svg version="1.1" id="圖層_1" xmlns="http://www.w3.org/2000/svg" xmlns:xlink="http://www.w3.org/1999/xlink" x="0px" y="0px"
	 viewBox="0 0 150.1 150.1" style="enable-background:new 0 0 150.1 150.1;" xml:space="preserve">
<style type="text/css">
	.st0{clip-path:url(#SVGID_2_);}
	.st1{fill:#FFFFFF;}
	.st2{fill:#AE9378;}
	.st3{fill:#1A1A1A;}
	.st4{fill:#F9D1BF;}
	.st5{fill:#AC9177;}
	.st6{fill:none;}
	.st7{fill:#C8C9CA;}
</style>
<g>
	<defs>
		<circle id="SVGID_1_" cx="75.1" cy="75.1" r="73"/>
	</defs>
	<clipPath id="SVGID_2_">
		<use xlink:href="#SVGID_1_"  style="overflow:visible;"/>
	</clipPath>
	<g class="st0">
		<circle class="st1" cx="75.1" cy="75.1" r="73"/>
	</g>
</g>
<path class="st1" d="M95.6,58.6l-19.1-8c0,0-24.2-4.1-25.9,10.7c-4.8,9.3-14.3,15.2-24.7,15.4c0,0-13.4,5.8-16.8,30.4
	c1.2,1.9,2.4,3.7,3.5,5.5c3.9,6.4,8.8,12.2,14.4,17.2c2.9,2.6,5.9,5,8.5,7.8c0.5,0,0.9,0.1,1.3,0.3h0.1c1.1-3.7,3.2-8.4,7.5-10.7
	c0,0,23.6-14.5,29.4-13.8l13.4-1.1l-8.6-16.7c0,0,21.9-17.7,42.1-25.4C120.6,70.2,132,66,95.6,58.6z"/>
<path class="st2" d="M95.6,58.6l-19.1-8c0,0-20,2.2-21.7,17c0,0-1.5,16.9-19.5,17.6c0,0-20.3-0.2-25.7,22.8c1,1.6,2,3.1,3,4.7
	c3.9,6.4,8.8,12.2,14.4,17.3c2.9,2.6,5.9,5,8.5,7.8c0.5,0,0.9,0.1,1.3,0.3h0.1c1.1-3.7,3.2-8.4,7.5-10.7c0,0,23.6-14.5,29.4-13.8
	l18.4,11.7l9.7-2.1l6.1-7.2l-9.9,0.8l-10.9-4.3l-8.6-16.7c0,0,21.9-17.7,42.1-25.4C120.6,70.2,132,66,95.6,58.6z"/>
<path class="st3" d="M123.8,67.5c-0.4-3-3.8-4.9-4.5-5.3c-0.3-0.2-0.6-0.2-0.9-0.2h-0.2c-5.5,0-22.4-6.2-28.6-8.7
	c-10.7-5.8-20.3-7.1-28.5-3.9C49.9,53.9,45.3,65.2,44.7,67c-0.6,1-4.7,7.3-11.7,6.2h-0.2c-0.6,0-15.3-0.4-25.9,10.2
	c-1.5,1.6-2.9,3.3-4.1,5.1c0.5,1,0.7,2.1,0.7,3.3c0,1.1,0.1,2.2,0.3,3.3c1.4-3.3,3.4-6.3,5.9-8.8c8.9-9,21.6-9.1,22.8-9.1
	c10.2,1.5,15.6-8,15.8-8.4c0.1-0.1,0.1-0.2,0.2-0.3c0-0.1,4-11.3,14.2-15.3c7.1-2.8,15.5-1.5,25.2,3.8l0.2,0.1
	c2.3,0.9,22.2,8.7,29.8,9c0.9,0.6,1.9,1.4,1.9,1.9c0,0.1-0.1,0.3-0.3,0.5c-3.2,1.4-27.7,12.3-38.4,20.3c-0.1,0.1-0.2,0.2-0.3,0.3
	c-2.7,2.9-5.9,10.6,0.9,19.3c4,4.7,9.2,8.2,15.1,10.2c0.5,0.2,1,0.1,1.4-0.1c0,0,4.7-2.1,7.5-0.6c-3.6,3.2-8.1,5-12.9,5.1
	c-1.6-0.4-12.2-3.1-17.4-10.7c-0.6-0.9-1.9-1.2-2.8-0.5s-1.2,1.9-0.5,2.8c6.4,9.5,19.5,12.3,20.1,12.4c0.1,0,0.3,0,0.4,0
	c6.7-0.1,13.1-3,17.6-8c0.6-0.7,0.6-1.7,0.1-2.4c-3.5-5.2-10.6-3.1-13-2.2c-4.8-1.8-9.1-4.7-12.4-8.6c-5.9-7.6-1.9-13.1-1.2-14
	c10.9-8,37.4-19.7,37.7-19.8c0.2-0.1,0.4-0.2,0.5-0.3C123.2,70.7,123.9,69.1,123.8,67.5z"/>
<path class="st3" d="M72.9,87.9C62,87.9,58.2,80,58,79.6c-0.1-0.1-0.1-0.3-0.1-0.4c-1.8-8.3,7-12.6,11.9-13.7
	c1.1-0.3,2.2,0.4,2.4,1.5c0.3,1.1-0.4,2.2-1.5,2.4l0,0l0,0c-0.1,0-9.9,2.4-8.9,8.7c0.6,1.2,4.4,7,14.3,5.5c1.1-0.2,2.1,0.6,2.3,1.7
	s-0.6,2.1-1.7,2.3C75.5,87.8,74.2,87.9,72.9,87.9z"/>
<path class="st4" d="M74.9,79.6c-3.2,1.2-6.7,0.5-9.1-1.9c0,0-1.4-5,6.9-5.8"/>
<path class="st3" d="M71.8,81.7c-2.7,0-5.2-1.1-7.1-3c-0.2-0.2-0.3-0.4-0.3-0.6c-0.4-1.5-0.1-3,0.8-4.3c1.3-1.9,3.8-3.1,7.5-3.5
	c0.8,0,1.5,0.7,1.5,1.6c0,0.7-0.5,1.3-1.2,1.4c-2.7,0.3-4.5,1-5.3,2.1c-0.3,0.4-0.4,0.9-0.4,1.4c2,1.7,4.7,2.2,7.2,1.2
	c0.8-0.3,1.7,0.1,2,0.8c0.3,0.8-0.1,1.7-0.8,2c0,0,0,0,0,0C74.3,81.5,73,81.7,71.8,81.7z"/>
<path class="st3" d="M92.8,96h-0.2c-0.8-0.1-1.4-0.9-1.3-1.7c0,0,0,0,0,0c2.2-15.8,7.5-22.5,7.7-22.8c0.6-0.6,1.5-0.7,2.1-0.1
	c0.6,0.5,0.7,1.4,0.2,2l0,0c0,0.1-5,6.4-7,21.3C94.2,95.4,93.6,96,92.8,96z"/>
<path class="st3" d="M107.7,86c-0.6,0-1.1-0.3-1.3-0.8c-2.2-4.5-3.1-9.4-2.7-14.4c0.2-0.8,1-1.3,1.8-1.1c0.7,0.2,1.2,0.8,1.2,1.5
	c-0.3,4.3,0.5,8.7,2.4,12.6c0.4,0.7,0.1,1.6-0.7,2C108.1,86,107.9,86,107.7,86z"/>
<path class="st3" d="M102.2,62h-0.2c-0.8-0.1-1.4-0.9-1.3-1.7c0.2-1.4,2-13.7,5.4-17.7c0.6-0.6,1.5-0.7,2.2-0.2s0.7,1.5,0.2,2.2
	c-2.4,2.8-4.2,12.5-4.7,16.1C103.6,61.5,102.9,62,102.2,62z"/>
<path class="st3" d="M107.7,62.9c-0.1,0-0.3,0-0.4-0.1c-0.8-0.2-1.3-1-1.1-1.8c0.1-0.3,2.2-8.5,6.8-11.3c0.7-0.5,1.6-0.2,2.1,0.5
	s0.2,1.6-0.5,2.1c-2.9,1.8-4.9,7.5-5.4,9.5C109,62.4,108.4,62.9,107.7,62.9z"/>
<ellipse transform="matrix(0.8029 -0.5961 0.5961 0.8029 -22.1692 63.7436)" class="st3" cx="85.3" cy="65.4" rx="4.2" ry="4.3"/>
<path class="st5" d="M27,129.9c2.9,2.6,5.9,5,8.5,7.8c0.5,0,0.9,0.1,1.3,0.3l0.7,0.2c0.2-0.8,0.5-1.8,0.7-2.8
	c1.3-5.7,2.2-13.3-1.1-17.7l-10.6,11.7L27,129.9z"/>
<path class="st3" d="M36.2,135c-0.2,1-0.5,1.9-0.7,2.7c0.4,0,0.8,0.1,1.3,0.3c0.9,0.3,1.8,0.6,2.6,0.9c0.3-0.9,0.5-1.9,0.8-3
	c2.1-8.8,1.6-15.3-1.5-19.4c-0.7-0.9-1.9-1.1-2.8-0.4c-0.9,0.7-1.1,1.9-0.4,2.8C37.7,122,38,127.7,36.2,135z"/>
<path class="st1" d="M73.3,113.9c1.8-1.3-23.7,5.5-32.7,16.2"/>
<path class="st3" d="M40.6,132.2c-1.1,0-2-0.8-2.1-1.9c0-0.5,0.2-1,0.5-1.4c8.6-10.1,32.1-17.7,34.8-17c0.8,0.2,1.4,0.8,1.5,1.6
	c0.2,0.8-0.2,1.7-0.9,2.1c-0.5,0.4-1.2,0.5-1.8,0.3c-4.1,0.7-23.3,7-30.6,15.5C41.8,131.9,41.2,132.2,40.6,132.2z"/>
<path class="st1" d="M53.8,97.4c0,0,8.6,11.4,16.4,11.8"/>
<path class="st3" d="M70.2,111.2L70.2,111.2c-8.6-0.4-17.6-12.1-18-12.6c-0.7-0.9-0.5-2.1,0.4-2.8s2.1-0.5,2.8,0.4
	c2.2,3,9.3,10.7,14.9,11c1.1,0,2,1,2,2.1S71.3,111.2,70.2,111.2L70.2,111.2z"/>
<path class="st3" d="M115.5,65c0,0-2.1,2.2,1.1,7.2l4.1-2.1l1.3-4.5"/>
<circle class="st6" cx="75.1" cy="75.1" r="73"/>
<path class="st7" d="M75.1,150.1C33.7,150.1,0,116.4,0,75.1C0,33.7,33.7,0,75.1,0s75.1,33.7,75.1,75.1
	C150.1,116.4,116.4,150.1,75.1,150.1z M75.1,4.1c-39.1,0-71,31.9-71,71c0,39.1,31.9,71,71,71c39.1,0,71-31.9,71-71
	C146.1,35.9,114.2,4.1,75.1,4.1z"/>
</svg>
