<?xml version="1.0" encoding="utf-8"?>
<!-- Generator: Adobe Illustrator 21.1.0, SVG Export Plug-In . SVG Version: 6.00 Build 0)  -->
<svg version="1.1" id="圖層_1" xmlns="http://www.w3.org/2000/svg" xmlns:xlink="http://www.w3.org/1999/xlink" x="0px" y="0px"
	 viewBox="0 0 156 156" style="enable-background:new 0 0 156 156;" xml:space="preserve">
<style type="text/css">
	.st0{clip-path:url(#SVGID_2_);}
	.st1{clip-path:url(#SVGID_4_);}
	.st2{fill:#FFFFFF;}
	.st3{clip-path:url(#SVGID_4_);fill:#939280;stroke:#1A1A1A;stroke-width:4.06;stroke-linecap:round;stroke-linejoin:round;}
	.st4{clip-path:url(#SVGID_4_);fill:#FFFFFF;}
	.st5{clip-path:url(#SVGID_4_);fill:#939280;}
	.st6{clip-path:url(#SVGID_4_);fill:#6BC7F1;}
	.st7{clip-path:url(#SVGID_4_);fill:none;stroke:#1A1A1A;stroke-width:4.06;stroke-linecap:round;stroke-linejoin:round;}
	.st8{clip-path:url(#SVGID_4_);fill:#F2F0DB;}
	.st9{clip-path:url(#SVGID_4_);fill:#1A1A1A;}
	.st10{fill:none;stroke:#C8C9CA;stroke-width:4.06;stroke-miterlimit:10;}
</style>
<title>互動設計UI</title>
<g>
	<defs>
		<circle id="SVGID_1_" cx="78" cy="78" r="73"/>
	</defs>
	<clipPath id="SVGID_2_">
		<use xlink:href="#SVGID_1_"  style="overflow:visible;"/>
	</clipPath>
	<g class="st0">
		<g>
			<defs>
				<circle id="SVGID_3_" cx="78" cy="78" r="73"/>
			</defs>
			<clipPath id="SVGID_4_">
				<use xlink:href="#SVGID_3_"  style="overflow:visible;"/>
			</clipPath>
			<g class="st1">
				<circle class="st2" cx="78" cy="78" r="73"/>
			</g>
			<path class="st3" d="M92.1,83.3l9-4.7c0,0-1.7-6.6-2.8-8.6c0,0-6.9,0.9-6.3-6.1s0.2-3.2,6.1-8.5c0,0,10.6,0.1,8,11.4
				c0,0,4.2,9.9,5,16.5c0,0-8,6.7-14,8.4"/>
			<path class="st3" d="M58.2,96.5L49,101c0,0-3.4-5.7-4.4-7.7c0,0,4.8-5-1.3-8.7s-2.7-1.7-10.5,0c0,0-6.1,8.7,4.6,13.2
				c0,0,4.6,9.7,9.5,14.1c0,0,10.1-2.6,15-6.5"/>
			<path class="st4" d="M153.4,123.8c-0.2,11.4-3.3,21.1-11.7,30.6c-11.4,12.7-29.1,12-39.1,9.3c-9.9-2.9-18.5-9.2-24.3-17.7
				c-18.2-26.1-17.4-55.1-17.4-55.1c-5.1-0.7-6.8-8.1-6.8-8.1c-2.4-4.2-1.4-24.4-1.4-24.4c0.5-6,3.4-8.6,3.4-8.6
				c1.5-1.2,3.4-2,5.3-2.1c3.5-0.2,7,1.4,9.2,4.1c6.7,7.7,13.6,17.6,13.6,17.6c2.5,3.5,3.2,7.9,2,12c19.9,15.2,28.3,57,28.3,57
				c4.5,11,19.2,1,19.2,1c4.7-5.9,7.4-13.2,7.6-20.7c0,0,0.4-16.1-9.1-23.6c0,0-22.4-19.7-13.2-42c0,0,2,20.7,15.9,31.5
				C142.5,90.4,153.9,99.7,153.4,123.8z"/>
			<path class="st5" d="M51.2,56.3c0.4-0.4,0.9-0.7,1.4-1C52.3,54.1,51.2,56.3,51.2,56.3z"/>
			<path class="st6" d="M134.9,84.5C121,73.7,119,52.9,119,52.9c-9.2,22.3,13.2,42,13.2,42c9.4,7.5,9,23.6,9,23.6
				c-0.3,5.7-1.9,11.3-4.6,16.3c12,4.9,4.2,18.2-1.1,24.9c2.3-1.5,4.3-3.2,6.1-5.2c8.5-9.5,11.5-19.2,11.7-30.6
				C153.9,99.7,142.5,90.4,134.9,84.5z"/>
			<path class="st5" d="M136.6,134.7c-0.9,1.6-1.9,3-3,4.4c0,0-14.7,10-19.2-1c0,0-12.9-36.2-32.8-51.4c1.2-4.1,0.5-8.5-2-12
				c0,0-7.2-8.8-13.9-16.5c-2.3-2.7-5.7-4.3-9.2-4.1c-1.4,0.1-2.7,0.5-3.9,1.1c0.2,1,0.2,1.9,0,2.9c0,0-1,20.3,1.5,24.4
				c0,0,1.7,7.4,6.8,8.1c0,0-0.8,29,17.4,55.1c5.8,8.6,14.4,14.8,24.3,17.7c8.3,2.3,22,3.1,32.9-4
				C140.8,152.9,148.6,139.7,136.6,134.7z"/>
			<path class="st7" d="M153.4,123.8c-0.2,11.4-3.3,21.1-11.7,30.6c-11.4,12.7-29.1,12-39.1,9.3c-9.9-2.9-18.5-9.2-24.3-17.7
				c-18.2-26.1-17.4-55.1-17.4-55.1c-5.1-0.7-6.8-8.1-6.8-8.1c-2.4-4.2-1.4-24.4-1.4-24.4c0.5-6,3.4-8.6,3.4-8.6
				c1.5-1.2,3.4-2,5.3-2.1c3.5-0.2,7,1.4,9.2,4.1c6.7,7.7,13.6,17.6,13.6,17.6c2.5,3.5,3.2,7.9,2,12c19.9,15.2,28.3,57,28.3,57
				c4.5,11,19.2,1,19.2,1c4.7-5.9,7.4-13.2,7.6-20.7c0,0,0.4-16.1-9.1-23.6c0,0-22.4-19.7-13.2-42c0,0,2,20.7,15.9,31.5
				C142.5,90.4,153.9,99.7,153.4,123.8z"/>
			<path class="st8" d="M106.5,147c-7.6-6.1-11.8-13.5-15.9-22.2c-4.7-10.2-10.2-20.1-11.2-31.5c-0.1-0.8-0.6-1.5-1.4-1.8
				c-4.5-8-8.2-16.4-10.8-25.2c-0.8-2.6-4.8-1.5-4,1.1c2.8,9.4,6.8,18.5,11.7,27c0.2,0.3,0.3,0.5,0.6,0.7c1.3,10.1,5.6,19,9.8,28.2
				c4.8,10.3,9.2,19.4,18.2,26.6C105.6,151.6,108.6,148.7,106.5,147z"/>
			<path class="st8" d="M82,133.8c-4.6-8.7-9-17.5-9.5-27.6c-0.1-2.7-4.3-2.7-4.2,0c0.4,10.8,5.1,20.3,10,29.7
				C79.7,138.3,83.3,136.2,82,133.8z"/>
			<path class="st8" d="M99.5,116.3c-1.9-4.1-3.8-8.2-5.8-12.3c-1.1-2.4-4.8-0.3-3.6,2.1l5.8,12.3C97,120.8,100.6,118.7,99.5,116.3z
				"/>
			<ellipse transform="matrix(0.9592 -0.2827 0.2827 0.9592 -18.0445 18.8953)" class="st9" cx="56.5" cy="72" rx="3" ry="4.3"/>
			<ellipse transform="matrix(0.866 -0.5 0.5 0.866 -21.9692 47.0802)" class="st9" cx="76.9" cy="64.5" rx="3" ry="4.3"/>
		</g>
		<circle class="st10" cx="78" cy="78" r="73"/>
	</g>
</g>
</svg>
