<?xml version="1.0" encoding="utf-8"?>
<!-- Generator: Adobe Illustrator 21.1.0, SVG Export Plug-In . SVG Version: 6.00 Build 0)  -->
<svg version="1.1" id="圖層_1" xmlns="http://www.w3.org/2000/svg" xmlns:xlink="http://www.w3.org/1999/xlink" x="0px" y="0px"
	 viewBox="0 0 150.1 150.1" style="enable-background:new 0 0 150.1 150.1;" xml:space="preserve">
<style type="text/css">
	.st0{fill:#A6A6A6;}
	.st1{clip-path:url(#SVGID_2_);}
	.st2{fill:#FFFFFF;}
	.st3{fill:#BCB2AE;}
	.st4{fill:#827975;}
	.st5{fill:#928985;}
	.st6{fill:#1A1A1A;}
	.st7{fill:#8D827F;}
	.st8{fill:none;}
	.st9{fill:#C8C9CA;}
</style>
<circle class="st0" cx="75.1" cy="75.1" r="73"/>
<g>
	<defs>
		<circle id="SVGID_1_" cx="75.1" cy="75.1" r="73"/>
	</defs>
	<clipPath id="SVGID_2_">
		<use xlink:href="#SVGID_1_"  style="overflow:visible;"/>
	</clipPath>
	<g class="st1">
		<circle class="st2" cx="75.1" cy="75.1" r="73"/>
	</g>
</g>
<path class="st3" d="M62.3,76.8C34.5,72.3,8.8,92.4,4,96.5c1.4,3.1,3.1,6.4,4.1,8.4c0.9,1.8,1.9,3.5,2.9,5.3
	c14.9,13,43.4,8.2,43.4,8.2c15.2-0.3,50.8-21.4,50.8-21.4C87.2,101.3,62.3,76.8,62.3,76.8z"/>
<path class="st4" d="M65.5,94c0,0,3.4-7.8,8.9-8.6L70,74.8l-8.6-0.8l-2.7,6.1l6.1,12.9"/>
<polyline class="st4" points="87.3,73.9 94.9,66.4 97.2,70.7 95.4,82.3 "/>
<path class="st5" d="M2.2,90c0,0,0,0.1,0,0.2c14.4-12,31-17.2,34.4-18.2C31.1,72.7,23.6,53,23.6,53l1.9-30.9
	c-3.1,3.4-6,6.9-9.3,10.1c-1,1-2.3,1.7-3.6,2c-0.5,0.7-1,1.3-1.5,2c0.1,1.1-0.1,2.3-0.5,3.3c-6.2,15.2-7.7,31-7.7,47.3
	C2.9,87.9,2.6,89,2.2,90L2.2,90z"/>
<path class="st5" d="M132.8,34.2c-6.6-10.9-13.8-21.5-25.6-25.7L72.8,45.2l-9.5,20.5l21.9,6.1l38.1-19.9
	C125.9,45.7,129.1,39.7,132.8,34.2z"/>
<path class="st6" d="M14.5,116.2l0.6-0.9c0.8-0.8,0.8-2,0-2.8c-0.8-0.8-2-0.8-2.8,0C13.1,113.7,13.8,114.9,14.5,116.2z"/>
<path class="st6" d="M100.5,90.5c-0.8-4.7-3-9-6.3-12.4c-6.1-7.7-16.2-11.9-29.1-12.3c-5.7-0.1-11.4,0.4-16.9,1.6
	c-2.3-1.3-4.4-2.9-6.2-4.8c-4.8-4.9-7.9-11.2-8.8-17.9c0-0.2-1.9-16.5-2-28.4c-1,1-2,2-3,3l-1,1.1c0.4,11.3,1.9,24,2,24.8
	c3.1,19.4,17.4,25.9,18,26.2c0.4,0.2,0.9,0.2,1.3,0.1c0.3-0.1,29.6-7.3,42.7,9.2c0.1,0.1,0.1,0.2,0.2,0.2c2.7,2.8,4.5,6.3,5.2,10.2
	c0.2,1.1,1.2,1.9,2.3,1.7S100.6,91.6,100.5,90.5L100.5,90.5z"/>
<path class="st6" d="M92.5,104.5c-0.5-1-1.8-1.3-2.7-0.7c0,0,0,0,0,0c-0.3,0.2-33.3,19.3-64.4,12.1c-0.1,0-10.6-3-16.4-9.3
	c1.6,3,3.5,6,5.1,8.9c3.2,1.8,6.7,3.2,10.2,4.3c5.2,1.2,10.6,1.8,16,1.8c26.8,0,50.2-13.6,51.4-14.3
	C92.7,106.8,93.1,105.6,92.5,104.5C92.5,104.6,92.5,104.6,92.5,104.5z"/>
<path class="st6" d="M20.2,52.6c1.3-3.8,6.1-18.5,7.7-33c-1.2,1.3-2.4,2.6-3.6,4c-1.6,9.8-4,19.4-7.2,28.9c-0.2,0.5-0.1,1.2,0.3,1.6
	L36,73.3c0.3,0.3,0.7,0.5,1.1,0.5c0.4,0,0.8-0.2,1.1-0.4c0.6-0.6,0.6-1.6,0-2.1c0,0,0,0,0,0L20.2,52.6z"/>
<path class="st6" d="M63.8,95.1c-0.5,0-1-0.3-1.3-0.7c-4.9-8-6.4-14.3-4.6-18.7c0.9-2.2,2.7-3.8,4.9-4.5c0.2,0,0.4,0,0.6,0
	c11.1,1.8,13.3,12.9,13.3,13c0.2,0.8-0.4,1.6-1.2,1.8s-1.6-0.4-1.8-1.2c-0.1-0.4-1.9-8.9-10.5-10.5c-1.2,0.5-2.1,1.5-2.6,2.7
	c-0.9,2.4-0.9,7,4.4,15.9c0.4,0.7,0.2,1.7-0.5,2.1C64.4,95,64.1,95.1,63.8,95.1z"/>
<path class="st6" d="M95.5,83c-0.2,0-0.3,0-0.5-0.1c-0.8-0.3-1.3-1.1-1-1.9c0,0,0,0,0,0c2.1-6.6,1.5-11,0.9-13
	c-5.8,2.4-6.1,6.9-6.1,7c-0.2,0.8-1,1.3-1.8,1.2c-0.6-0.1-1.1-0.7-1.2-1.3c0-0.3,0.5-7.3,9.6-10.2c0.7-0.2,1.4,0.1,1.8,0.7
	c0.1,0.2,3.2,5.9-0.2,16.6C96.8,82.5,96.2,83,95.5,83z"/>
<path class="st6" d="M8.6,87.2c-0.4,0-0.7-0.1-1-0.4c-0.6-0.6-0.7-1.5-0.1-2.2c5.6-5.9,12.6-10.4,20.3-12.9c0.8-0.3,1.7,0.2,1.9,1
	c0.3,0.8-0.2,1.7-1,1.9c0,0,0,0-0.1,0c-7.2,2.4-13.7,6.5-18.9,12C9.5,87,9.1,87.2,8.6,87.2z"/>
<path class="st6" d="M105.3,7.8c-14.9,16-37.5,39.6-37.8,39.9c-0.2,0.2-0.4,0.5-0.5,0.9c-3.8,14.6-9,16.8-9.2,16.9
	c-1.1,0.3-1.7,1.5-1.4,2.5s1.5,1.7,2.5,1.4c0.7-0.2,7.2-2.5,11.8-19.3c3.1-3.2,24.7-25.8,38.6-40.8C108.1,8.7,106.7,8.2,105.3,7.8z"
	/>
<path class="st6" d="M136.4,40.2c-3.7,5.6-6.5,11.6-8.4,18c-4.8,1-21.7,4.7-30,9.9c-0.9,0.6-1.1,1.9-0.5,2.8
	c0.6,0.8,1.7,1.1,2.6,0.6c8.9-5.6,29.6-9.6,29.8-9.6c0.8-0.2,1.4-0.7,1.6-1.5c1.6-5.8,4.1-11.3,7.2-16.4
	C138,42.7,137.2,41.4,136.4,40.2z"/>
<path class="st6" d="M80.7,70.7c-0.8,0-1.5-0.6-1.5-1.4c-0.1-1.6-1.1-15.9,0-19.5c0.1-0.2,0.1-0.4,0.3-0.5l22.9-27.9
	c0.5-0.6,1.5-0.7,2.1-0.2s0.7,1.5,0.2,2.1L82,50.8c-0.6,2.8-0.2,12.5,0.2,18.2c0.1,0.8-0.6,1.6-1.4,1.6
	C80.8,70.6,80.8,70.6,80.7,70.7L80.7,70.7z"/>
<path class="st6" d="M117.7,14.6c-1.1-1-2.3-1.9-3.6-2.7c0.7,4.2,5.3,30.1,8.5,41.1c0.3,0.8,1.2,1.2,2,0.8c0.7-0.3,1.1-1,0.9-1.7
	C122.9,43.2,119.2,23,117.7,14.6z"/>
<circle class="st6" cx="80.5" cy="91.2" r="3.6"/>
<path class="st6" d="M89.5,108.3c-1.1,0.1-2.1-0.6-2.2-1.7c-0.1-1,0.5-2,1.5-2.2c14.6-5.4,16.2-8.7,16.4-9.4
	c-5.6,0.4-12.8-3.7-13.6-4.2c-1-0.6-1.3-1.8-0.7-2.8c0.6-1,1.8-1.3,2.8-0.7c2.1,1.3,8.4,4.4,12,3.6c0.5-0.1,1,0,1.5,0.2
	c1.4,0.9,2.3,2.5,2.1,4.2c-0.2,2.6-2.5,6.8-19.1,13C90,108.2,89.8,108.3,89.5,108.3z"/>
<path class="st6" d="M95.3,104.9c-0.2,0-0.4,0-0.5-0.1l-10.7-3.8c-0.8-0.3-1.2-1.2-0.9-1.9c0,0,0,0,0-0.1c0.3-0.8,1.1-1.2,1.9-0.9
	c0,0,0,0,0,0l10.7,3.8c0.8,0.1,1.4,0.9,1.2,1.8C97,104.4,96.2,105,95.3,104.9L95.3,104.9L95.3,104.9z"/>
<path class="st7" d="M44.7,109.3c-0.8,0-1.4-0.6-1.5-1.4c0-0.8,0.6-1.4,1.4-1.5c3.5-0.3,7-1.1,10.3-2.5c0.7-0.3,1.6,0,1.9,0.7
	c0.3,0.7,0,1.6-0.7,1.9l0,0c-3.6,1.5-7.4,2.5-11.3,2.8L44.7,109.3z"/>
<path class="st7" d="M34.9,100.4c-0.8,0-1.4-0.7-1.4-1.5c0-0.7,0.6-1.3,1.3-1.3c3.8-0.3,7.5-0.9,11.2-1.7c0.8-0.2,1.5,0.3,1.7,1.1
	c0.2,0.8-0.3,1.5-1.1,1.7c-3.8,0.8-7.7,1.4-11.7,1.7L34.9,100.4z"/>
<circle class="st8" cx="75.1" cy="75.1" r="73"/>
<path class="st9" d="M75.1,150.1C33.7,150.1,0,116.4,0,75.1C0,33.7,33.7,0,75.1,0s75.1,33.7,75.1,75.1
	C150.1,116.4,116.4,150.1,75.1,150.1z M75.1,4.1c-39.1,0-71,31.9-71,71c0,39.1,31.9,71,71,71c39.1,0,71-31.9,71-71
	C146.1,35.9,114.2,4.1,75.1,4.1z"/>
</svg>
