<?xml version="1.0" encoding="utf-8"?>
<!-- Generator: Adobe Illustrator 21.1.0, SVG Export Plug-In . SVG Version: 6.00 Build 0)  -->
<svg version="1.1" id="圖層_1" xmlns="http://www.w3.org/2000/svg" xmlns:xlink="http://www.w3.org/1999/xlink" x="0px" y="0px"
	 viewBox="0 0 156 156" style="enable-background:new 0 0 156 156;" xml:space="preserve">
<style type="text/css">
	.st0{clip-path:url(#SVGID_2_);}
	.st1{fill:#A6A6A6;}
	.st2{clip-path:url(#SVGID_4_);}
	.st3{fill:#FFFFFF;}
	.st4{clip-path:url(#SVGID_4_);fill:#BCB2AE;}
	.st5{clip-path:url(#SVGID_4_);fill:#827975;}
	.st6{clip-path:url(#SVGID_4_);fill:#928985;}
	.st7{clip-path:url(#SVGID_4_);fill:none;stroke:#1A1A1A;stroke-width:4.06;stroke-linecap:round;stroke-linejoin:round;}
	.st8{clip-path:url(#SVGID_4_);fill:none;stroke:#1A1A1A;stroke-width:3.04;stroke-linecap:round;stroke-linejoin:round;}
	.st9{clip-path:url(#SVGID_4_);fill:#1A1A1A;}
	.st10{clip-path:url(#SVGID_4_);fill:none;stroke:#8D827F;stroke-width:2.84;stroke-linecap:round;stroke-miterlimit:10;}
	.st11{fill:none;stroke:#C8C9CA;stroke-width:4.06;stroke-miterlimit:10;}
</style>
<title>互動設計UI</title>
<g>
	<defs>
		<circle id="SVGID_1_" cx="78" cy="78" r="73"/>
	</defs>
	<clipPath id="SVGID_2_">
		<use xlink:href="#SVGID_1_"  style="overflow:visible;"/>
	</clipPath>
	<g class="st0">
		<circle class="st1" cx="78" cy="78" r="73"/>
		<g>
			<defs>
				<circle id="SVGID_3_" cx="78" cy="78" r="73"/>
			</defs>
			<clipPath id="SVGID_4_">
				<use xlink:href="#SVGID_3_"  style="overflow:visible;"/>
			</clipPath>
			<g class="st2">
				<circle class="st3" cx="78" cy="78" r="73"/>
			</g>
			<path class="st4" d="M6.1,100.1c0,0,28.3-25.4,59.2-20.3c0,0,24.9,24.5,42.8,20.1c0,0-35.7,21.1-50.8,21.4
				C57.2,121.2,13.2,128.7,6.1,100.1z"/>
			<path class="st5" d="M68.5,96.9c0,0,3.4-7.8,8.9-8.6l-4.5-10.6l-8.6-0.8L61.7,83l6.1,12.9"/>
			<polyline class="st5" points="90.3,76.9 97.8,69.3 100.2,73.6 98.4,85.2 			"/>
			<path class="st6" d="M40.1,74.7c0,0-23.7,6.2-40.6,23.5l-14,5.1c0,0-0.6-43.1-28.7-32.8c0,0,9.3-44-31.6-63.8
				c0,0-1-33.1-16.9-45.7c0,0,31.4,1.4,37.4,2.7c0,0,69.3,30.3,83.7,44.8L26.6,56C26.6,56,34.6,77.3,40.1,74.7z"/>
			<path class="st6" d="M-12.7,102.9c0,0-0.5,6.4-9,12.1c0,0-7.7,0.3,7.7,17l9.5,12.4l19.8-29.2l-13.9-19"/>
			<path class="st6" d="M66.3,68.6l9.5-20.5l43.1-46l65-49.7l29.2-2.2c0,0-15.9,26.9-12.5,41.4c0,0-53.4,12.1-74.3,63.3L88.2,74.7
				h0.2L66.3,68.6z"/>
			<path class="st7" d="M-12.1,108.6c0,0-10.3,5.8-13.1,11.2c0,0,16.7,16.1,20.4,26.1l21.3-28.8"/>
			<path class="st7" d="M101.4,93.7c-0.7-4.3-2.7-8.3-5.8-11.4c-14-17.8-44.7-10-44.7-10s-13.8-6-16.8-24.5c0,0-3.3-28.6-1.5-38.3
				c0,0-44.5-43.6-88.6-52.4c0,0-18.5-1.2-35.5,4c0,0,23.3,24.2,16.9,45.7c0,0,42.8,19.4,31.6,63.8c0,0,22.2-4.6,25.2,15.2
				c0.2,3.2,0.6,6.3,1.2,9.5"/>
			<path class="st7" d="M6.3,102c1.1,13.3,21.5,18.8,21.5,18.8c32.3,7.5,65.9-12.3,65.9-12.3"/>
			<path class="st8" d="M0.6,111.6c0,0-6.7,9.1-5.5,23.1"/>
			<path class="st8" d="M40,75.2L21.3,55.9c0,0,10.1-28.4,8.2-47.4c0,0-34.7,4.9-64.4,50"/>
			<path class="st8" d="M-66.7,2c33-14.4,96.2,6.5,96.2,6.5S-22.8-35-69.6-31.7"/>
			<path class="st7" d="M32.5,9.5c0,0,6.7-6.8,11.9,0.4"/>
			<path class="st7" d="M3.7,94.2c0,0-9.8,9.2-23.5,9.2c0,0-5.2-3.6-6.5,3.9"/>
			<path class="st8" d="M78.2,87.3c0,0-2-10.1-12.1-11.8c0,0-10.5,2.6,0.7,20.9"/>
			<path class="st8" d="M90.3,77.8c0,0,0.3-6.2,8.5-8.8c0,0,3,5.2-0.3,15.4"/>
			<path class="st8" d="M11.6,88.7c5.4-5.7,12.1-10,19.6-12.4"/>
			<path class="st7" d="M61.4,70.4c0,0,6.1-1.7,10.5-18.3c0,0,35.2-36.7,47-49.9c0,0,47.5-41.1,69.5-51.4c0,0,12.7-4.4,33.3,2
				c0,0-13.7,16.6-11.7,40.1c0,0-65,24.9-77.3,69.9c0,0-21.2,4-30.5,9.9"/>
			<path class="st7" d="M115.4,6c0,0,8.8-2.9,10.8,3.4"/>
			<path class="st8" d="M106.5,25.2L83.5,53.1c-1,3.4,0.1,19,0.1,19"/>
			<path class="st8" d="M132.3-0.1c0,0,20.8-12,33.5-13.4c0,0,23.3-1,33.6,2"/>
			<path class="st8" d="M118.5,14.1c0,0,5.1,29.7,8.6,41.5"/>
			<circle class="st9" cx="83.5" cy="94.1" r="3.6"/>
			<path class="st7" d="M95.6,91.9c0,0,8.3,4.9,13.5,3.8c0,0,7.6,4.5-16.6,13.5"/>
			<line class="st8" x1="98.3" y1="106.3" x2="87.6" y2="102.5"/>
			<path class="st10" d="M58.4,108.2c-3.4,1.5-7.1,2.4-10.8,2.7"/>
			<path class="st10" d="M49.3,100.3c-3.8,0.8-7.6,1.4-11.4,1.7"/>
		</g>
		<circle class="st11" cx="78" cy="78" r="73"/>
	</g>
</g>
</svg>
