<svg id="圖層_1" data-name="圖層 1" xmlns="http://www.w3.org/2000/svg" viewBox="0 0 150.1 150.1"><title>1</title><circle cx="75.1" cy="75.1" r="73" style="fill:#fff"/><path d="M40.9,73.4s-8.1,20.7,8.6,33.4c.8.6,1.1,3.6,1.1,3.6l-9.7,28.2,8.5,4.5,7.8,2.5L74.1,147l2.9.7,10.2-1.4,12.6-4.4,7.2-12.4-4.4-24.3,7.7-12.3.7-11.4" style="fill:#fffdf7"/><path d="M49.5,106.8s9.3.8,13.3,3.4a132.58,132.58,0,0,0-7.6,35.2l-13-6.4Z" style="fill:#c6a679"/><path d="M103,106.6s-9.3-.3-13.6,1.8a189.16,189.16,0,0,1,6,36.5l13.8-6.8Z" style="fill:#c6a679"/><ellipse cx="56.7" cy="124.22" rx="2.9" ry="8.5" transform="translate(-79.78 119.92) rotate(-63.66)" style="fill:#927b59"/><ellipse cx="56.63" cy="136.35" rx="2.7" ry="4.8" transform="translate(-90.69 126.6) rotate(-63.66)" style="fill:#927b59"/><ellipse cx="96.4" cy="135.4" rx="4.8" ry="2.7" transform="translate(-50.07 56.83) rotate(-26.34)" style="fill:#927b59"/><ellipse cx="93.61" cy="123.41" rx="8.5" ry="2.9" transform="translate(-37.95 41.65) rotate(-20.96)" style="fill:#927b59"/><path d="M36.6,44s-2.2,18.5,4.3,29.4l-1.4,8.9S44.4,91,53.8,92.6c0,0,11.2-7.9,17.6-7.3l8.3-.2s10.3.3,16.4,6.7c0,0,9.9-.1,15.4-5.8l-2.4-14.4,4.8-16.4L111.8,42,89.6,53.3,80,51.5l-16.6-.2-4,2.8" style="fill:#c6a679"/><path d="M58.9,54.2s-1.7,4.8-1,13.9c0,0-8.6,1.2-6.5,11,0,0,1.6,7.2,10,6.4,0,0,9.6-1.4,7.6-10.6,0,0-4.8-19.3-.7-25" style="fill:#fffdf7"/><path d="M66.2,52.2a60.51,60.51,0,0,0,.7,17s1.7,3.2,3-.7c0,0,.6-11.3,2.3-16.7" style="fill:#927b59"/><path d="M38.9,92.6a50.61,50.61,0,0,1,12.5-6.3s3.6-.2,1,2.9c0,0-7,4.4-10.7,8.7" style="fill:#927b59"/><path d="M43.8,100.6s-.8-.8,7-3.4c0,0,3.6-.2,1,2.9a33,33,0,0,0-5.6,5.6" style="fill:#927b59"/><path d="M58.7,53.4a44.48,44.48,0,0,0-1.3,14.1s1.7,3.2,3-.7c0,0,1-9.4,2.7-14.9" style="fill:#927b59"/><path d="M92.7,53.3s1.4,5,.1,14c0,0,8.5,1.8,5.8,11.4,0,0-2,7.1-10.4,5.7,0,0-9.5-2-6.9-11,0,0,6-19,2.2-24.9" style="fill:#fffdf7"/><path d="M85.6,50.9a60,60,0,0,1-1.8,16.9s-1.9,3.1-3-.8c0,0,.1-11.3-1.3-16.8" style="fill:#927b59"/><path d="M110.2,93a48.89,48.89,0,0,0-12.1-7s-3.6-.4-1.2,2.8c0,0,6.7,4.9,10.1,9.4" style="fill:#927b59"/><path d="M104.8,100.6s.9-.7-6.7-3.9c0,0-3.6-.4-1.2,2.8a36.73,36.73,0,0,1,5.3,5.9" style="fill:#927b59"/><path d="M92.9,52.6a44.51,44.51,0,0,1,.4,14.1s-1.9,3.1-2.9-.8c0,0-.4-9.5-1.8-15" style="fill:#927b59"/><path d="M109.6,136.4c-2-10.5-5.9-25.8-7.1-31.1,0,0,15.5-12.5,6.7-33.8,0,0,7.5-4,3.6-28.2,0,0-13.5,1.8-23.2,10a44.54,44.54,0,0,0-15.3-2.8" style="fill:none;stroke:#1a1a1a;stroke-linecap:round;stroke-linejoin:round;stroke-width:3.8399999141693115px"/><path d="M74.6,50.5a44.46,44.46,0,0,0-15.2,3.6C49.4,46.5,36.6,44,36.6,44c-4.4,24.9,4.3,29.4,4.3,29.4-7.7,21.8,8.6,33.4,8.6,33.4-3,10.2-6.4,21.5-8.2,31" style="fill:none;stroke:#1a1a1a;stroke-linecap:round;stroke-linejoin:round;stroke-width:3.8399999141693115px"/><path d="M60.1,108.2s14.7,14.6,32-.9" style="fill:none;stroke:#1a1a1a;stroke-linecap:round;stroke-linejoin:round;stroke-width:3.069999933242798px"/><circle cx="59.9" cy="77.3" r="5.6" style="fill:#1a1a1a"/><path d="M62.8,95.2s8,9,12.8-3.7c0,0,3.5,12.8,13.3,3.6" style="fill:none;stroke:#1a1a1a;stroke-linecap:round;stroke-linejoin:round;stroke-width:2.880000114440918px"/><path d="M76.7,91.5l4-4.7a1.61,1.61,0,0,0-.2-2.3,1.5,1.5,0,0,0-1.1-.4l-8.3.2A1.61,1.61,0,0,0,69.5,86a1.84,1.84,0,0,0,.5,1.2l4.3,4.5a1.69,1.69,0,0,0,2.3,0C76.7,91.6,76.7,91.6,76.7,91.5Z" style="fill:#1a1a1a"/><path d="M54.8,57.9a86,86,0,0,0-12.9-6.4,21.88,21.88,0,0,0,3.5,17" style="fill:#fae5ee;stroke:#1a1a1a;stroke-linecap:round;stroke-linejoin:round;stroke-width:2.490000009536743px"/><circle cx="90.7" cy="76.4" r="5.6" style="fill:#1a1a1a"/><path d="M95,56.8a115.78,115.78,0,0,1,12.6-5.3s2.6,7-2.7,15.3" style="fill:#fae5ee;stroke:#1a1a1a;stroke-linecap:round;stroke-linejoin:round;stroke-width:2.490000009536743px"/><path d="M75.1,150.1a75.05,75.05,0,1,1,75.1-75A75.18,75.18,0,0,1,75.1,150.1Zm0-146a71,71,0,1,0,71,71A71.14,71.14,0,0,0,75.1,4.1Z" style="fill:#c8c9ca"/></svg>