<?xml version="1.0" encoding="utf-8"?>
<!-- Generator: Adobe Illustrator 21.1.0, SVG Export Plug-In . SVG Version: 6.00 Build 0)  -->
<svg version="1.1" id="圖層_1" xmlns="http://www.w3.org/2000/svg" xmlns:xlink="http://www.w3.org/1999/xlink" x="0px" y="0px"
	 viewBox="0 0 150.1 150.1" style="enable-background:new 0 0 150.1 150.1;" xml:space="preserve">
<style type="text/css">
	.st0{fill:#FFFFFF;}
	.st1{fill:#FFFDF7;}
	.st2{fill:#C6A679;}
	.st3{fill:#927B59;}
	.st4{fill:none;stroke:#1A1A1A;stroke-width:3.84;stroke-linecap:round;stroke-linejoin:round;}
	.st5{fill:none;stroke:#1A1A1A;stroke-width:3.07;stroke-linecap:round;stroke-linejoin:round;}
	.st6{fill:#1A1A1A;}
	.st7{fill:none;stroke:#1A1A1A;stroke-width:2.88;stroke-linecap:round;stroke-linejoin:round;}
	.st8{fill:#FAE5EE;stroke:#1A1A1A;stroke-width:2.49;stroke-linecap:round;stroke-linejoin:round;}
	.st9{fill:#C8C9CA;}
</style>
<circle class="st0" cx="75.1" cy="75.1" r="73"/>
<path class="st1" d="M40.9,73.4c0,0-8.1,20.7,8.6,33.4c0.8,0.6,1.1,3.6,1.1,3.6l-9.7,28.2l8.5,4.5l7.8,2.5l16.9,1.4l2.9,0.7
	l10.2-1.4l12.6-4.4l7.2-12.4l-4.4-24.3l7.7-12.3l0.7-11.4"/>
<path class="st2" d="M49.5,106.8c0,0,9.3,0.8,13.3,3.4c-4.1,11.3-6.7,23.2-7.6,35.2l-13-6.4L49.5,106.8z"/>
<path class="st2" d="M103,106.6c0,0-9.3-0.3-13.6,1.8c3.2,12,5.2,24.2,6,36.5l13.8-6.8L103,106.6z"/>
<ellipse transform="matrix(0.4437 -0.8962 0.8962 0.4437 -79.7662 119.9276)" class="st3" cx="56.7" cy="124.2" rx="2.9" ry="8.5"/>
<ellipse transform="matrix(0.4437 -0.8962 0.8962 0.4437 -90.6397 126.5938)" class="st3" cx="56.6" cy="136.3" rx="2.7" ry="4.8"/>
<ellipse transform="matrix(0.8962 -0.4437 0.4437 0.8962 -50.0699 56.8314)" class="st3" cx="96.4" cy="135.4" rx="4.8" ry="2.7"/>
<ellipse transform="matrix(0.9338 -0.3577 0.3577 0.9338 -37.9333 41.663)" class="st3" cx="93.6" cy="123.4" rx="8.5" ry="2.9"/>
<path class="st2" d="M36.6,44c0,0-2.2,18.5,4.3,29.4l-1.4,8.9c0,0,4.9,8.7,14.3,10.3c0,0,11.2-7.9,17.6-7.3l8.3-0.2
	c0,0,10.3,0.3,16.4,6.7c0,0,9.9-0.1,15.4-5.8l-2.4-14.4l4.8-16.4l-2.1-13.2L89.6,53.3L80,51.5l-16.6-0.2l-4,2.8"/>
<path class="st1" d="M58.9,54.2c0,0-1.7,4.8-1,13.9c0,0-8.6,1.2-6.5,11c0,0,1.6,7.2,10,6.4c0,0,9.6-1.4,7.6-10.6
	c0,0-4.8-19.3-0.7-25"/>
<path class="st3" d="M66.2,52.2c-0.6,5.7-0.3,11.4,0.7,17c0,0,1.7,3.2,3-0.7c0,0,0.6-11.3,2.3-16.7"/>
<path class="st3" d="M38.9,92.6c3.9-2.7,8.1-4.8,12.5-6.3c0,0,3.6-0.2,1,2.9c0,0-7,4.4-10.7,8.7"/>
<path class="st3" d="M43.8,100.6c0,0-0.8-0.8,7-3.4c0,0,3.6-0.2,1,2.9c-2.1,1.7-4,3.5-5.6,5.6"/>
<path class="st3" d="M58.7,53.4c-1.2,4.6-1.6,9.3-1.3,14.1c0,0,1.7,3.2,3-0.7c0,0,1-9.4,2.7-14.9"/>
<path class="st1" d="M92.7,53.3c0,0,1.4,5,0.1,14c0,0,8.5,1.8,5.8,11.4c0,0-2,7.1-10.4,5.7c0,0-9.5-2-6.9-11c0,0,6-19,2.2-24.9"/>
<path class="st3" d="M85.6,50.9c0.2,5.7-0.4,11.4-1.8,16.9c0,0-1.9,3.1-3-0.8c0,0,0.1-11.3-1.3-16.8"/>
<path class="st3" d="M110.2,93c-3.7-2.9-7.8-5.3-12.1-7c0,0-3.6-0.4-1.2,2.8c0,0,6.7,4.9,10.1,9.4"/>
<path class="st3" d="M104.8,100.6c0,0,0.9-0.7-6.7-3.9c0,0-3.6-0.4-1.2,2.8c2,1.8,3.8,3.8,5.3,5.9"/>
<path class="st3" d="M92.9,52.6c0.9,4.7,1,9.4,0.4,14.1c0,0-1.9,3.1-2.9-0.8c0,0-0.4-9.5-1.8-15"/>
<path class="st4" d="M109.6,136.4c-2-10.5-5.9-25.8-7.1-31.1c0,0,15.5-12.5,6.7-33.8c0,0,7.5-4,3.6-28.2c0,0-13.5,1.8-23.2,10
	c-4.9-1.8-10.1-2.8-15.3-2.8"/>
<path class="st4" d="M74.6,50.5c-5.2,0.3-10.4,1.5-15.2,3.6C49.4,46.5,36.6,44,36.6,44c-4.4,24.9,4.3,29.4,4.3,29.4
	c-7.7,21.8,8.6,33.4,8.6,33.4c-3,10.2-6.4,21.5-8.2,31"/>
<path class="st5" d="M60.1,108.2c0,0,14.7,14.6,32-0.9"/>
<circle class="st6" cx="59.9" cy="77.3" r="5.6"/>
<path class="st7" d="M62.8,95.2c0,0,8,9,12.8-3.7c0,0,3.5,12.8,13.3,3.6"/>
<path class="st6" d="M76.7,91.5l4-4.7c0.6-0.7,0.5-1.7-0.2-2.3c-0.3-0.3-0.7-0.4-1.1-0.4l-8.3,0.2c-0.9,0-1.6,0.7-1.6,1.7
	c0,0.4,0.2,0.9,0.5,1.2l4.3,4.5c0.6,0.6,1.7,0.6,2.3,0C76.7,91.6,76.7,91.6,76.7,91.5z"/>
<path class="st8" d="M54.8,57.9c-4.1-2.5-8.4-4.6-12.9-6.4c-1.2,5.9,0,12,3.5,17"/>
<circle class="st6" cx="90.7" cy="76.4" r="5.6"/>
<path class="st8" d="M95,56.8c4.1-2,8.3-3.8,12.6-5.3c0,0,2.6,7-2.7,15.3"/>
<path class="st9" d="M75.1,150.1C33.7,150.1,0,116.4,0,75.1C0,33.7,33.7,0,75.1,0s75.1,33.7,75.1,75.1
	C150.1,116.4,116.4,150.1,75.1,150.1z M75.1,4.1c-39.1,0-71,31.9-71,71c0,39.1,31.9,71,71,71c39.1,0,71-31.9,71-71
	C146.1,35.9,114.2,4.1,75.1,4.1z"/>
</svg>
