<?xml version="1.0" encoding="utf-8"?>
<!-- Generator: Adobe Illustrator 21.1.0, SVG Export Plug-In . SVG Version: 6.00 Build 0)  -->
<svg version="1.1" id="圖層_1" xmlns="http://www.w3.org/2000/svg" xmlns:xlink="http://www.w3.org/1999/xlink" x="0px" y="0px"
	 viewBox="0 0 150.1 150.1" style="enable-background:new 0 0 150.1 150.1;" xml:space="preserve">
<style type="text/css">
	.st0{fill:#FFFFFF;}
	.st1{fill:#D6D6D6;}
	.st2{fill:#D6A17F;}
	.st3{fill:#E4BFA4;}
	.st4{fill:#2C88C9;}
	.st5{fill:#B3B3B3;}
	.st6{fill:#C2DDEC;}
	.st7{fill:#1A1A1A;}
	.st8{fill:none;}
	.st9{fill:#A77858;}
	.st10{fill:#C8C9CA;}
</style>
<circle class="st0" cx="75.1" cy="75.1" r="73"/>
<path class="st1" d="M57,146.3l5.4-9.1l-13.7,4.8l-0.7,2.5C50.9,145.4,54,146,57,146.3z"/>
<path class="st2" d="M55.4,78.7c-6.7,3.6-27,15.7-42.1,36.2c0.1,0.3,0.3,0.6,0.4,0.8c0.4,1,0.9,2,1.4,3c2,1.1,3.7,2.6,5.2,4.2
	c2.4,2.4,5.1,4.5,7.8,6.8c3.8,3.2,7.8,9.4,12.8,10.3c2.2,0.3,4.1,1.7,4.9,3.7c2,0.7,4,1.3,6.1,1.7c3.5-1.7,7.1-3.6,10.8-5.9
	c0,0,18.9-8.6,29.6-25.8C77.6,107.4,66.4,94.4,55.4,78.7z"/>
<path class="st3" d="M97.3,48.7c-1.9-2.2-4.3-3.8-7-4.7c-10.6,2-20.6,7.4-29.1,13.3c-2.3,5-3.8,11.5-3.5,20.3c0,0-0.9,0.4-2.3,1.2
	c11,15.7,22.2,28.7,36.9,35.2c5.6-9.1,1.7-20-1.4-33.9c-0.4-1.6-0.9-3.1-1.6-4.5c-1.4-2.8-0.7-10.3,6.2-12c-2-2-3.8-4.3-5.3-6.7
	c-2.3,2.3-5.5,3.9-10.6,2.5c5.1,1.4,8.2-0.2,10.6-2.5c-0.5-0.8-1.1-1.7-1.6-2.7c0.6,0.9,1.1,1.8,1.6,2.7
	C92.8,54,94.6,50.1,97.3,48.7z"/>
<path class="st4" d="M79.1,42.6c0,0-11.8,1.7-17.9,14.7c8.5-5.9,18.5-11.3,29.2-13.3C86.7,42.7,82.9,42.2,79.1,42.6z"/>
<path class="st5" d="M119.4,60.6c0,0-6.2-8.7-21.1-10.5c-0.3-0.5-0.7-1-1.1-1.5c-2.7,1.4-4.4,5.3-7.2,8.1c1.5,2.4,3.3,4.6,5.3,6.7
	c0.8-1.1,2-1.9,3.3-2.3C105.5,59.9,112.5,59.7,119.4,60.6z"/>
<path class="st6" d="M95.2,51.1c-1.9,0.9-4,1-5.9,0.1c0,0-3.3-5.1-8.9-4.5c0,0-6.1,0.5-7.4,8.2c0,0,0,3.6,10.6,4.4
	c0,0,5.1,0.2,7.5-2.1"/>
<path class="st4" d="M68.2,47.2c0,0-10.6,11.5-27.2,12.7c0,0,8.4,5.5,19.8-1.1"/>
<path class="st7" d="M49.4,63.4c-3.2,0-6.4-0.8-9.2-2.4c-0.5-0.3-0.7-1-0.6-1.6c0.2-0.6,0.7-1,1.3-1.1C56.7,57.3,67,46.3,67.2,46.2
	c0.6-0.6,1.5-0.6,2,0s0.6,1.5,0,2c-6.2,6.1-13.9,10.3-22.4,12.2C51.4,61,56.1,60,60,57.5c0.7-0.4,1.5-0.2,1.9,0.5
	c0.4,0.7,0.2,1.5-0.5,1.9C57.8,62.2,53.6,63.4,49.4,63.4z"/>
<path class="st7" d="M121.1,59.5c-0.3-0.4-6.6-9.1-21.5-11.2c-1.8-2.5-7.5-8.8-20.6-7.7h-0.1c-4.5,0.9-8.8,2.9-12.2,6
	c-5.2,4.5-11.3,13.3-11,29.7C50.2,79,28.3,91.2,12,113c0.7,0.8,1.2,1.7,1.5,2.7c0.2,0.4,0.4,0.9,0.6,1.3
	c18-24.8,44.1-37.6,44.4-37.7c0.7-0.3,1.2-1.1,1.2-1.9c-1.2-29,18.2-32.6,19.6-32.8c13-1,17.1,6.2,17.2,6.5c0.3,0.6,0.9,1,1.6,1.1
	c5.6,0.6,11,2.6,15.7,5.9c-5.2-0.3-10.4,0.1-15.5,1l-0.2,0.1c-2.3,0.6-4.2,2.2-5.1,4.4c-1.7,3.8,0,8.7,1.6,12.1
	c0.7,1.3,1.2,2.7,1.5,4.1c8.5,38.1-33.8,57.8-34.2,58l-0.2,0.1c-4.2,2.5-8.4,4.8-12.9,6.8c2.1,0.6,4.3,1.1,6.5,1.5
	c2.7-1.4,5.5-2.9,8.4-4.7c2.6-1.2,45.4-22.3,36.4-62.6c-0.4-1.7-1-3.4-1.8-5c-1.8-3.7-2.4-6.9-1.6-8.8c0.5-1,1.4-1.8,2.5-2.1
	c6.6-1.1,13.4-1.3,20-0.4c1.1,0.2,2.1-0.5,2.3-1.6C121.6,60.5,121.4,59.9,121.1,59.5L121.1,59.5z"/>
<path class="st7" d="M91.7,61.2c-0.5,0-0.9-0.2-1.2-0.6l-1.7-2.3c-0.3-0.4-0.3-0.9-0.2-1.3c0.9-2.2,2.4-4.1,4.2-5.6
	c0.6-0.5,1.5-0.5,2,0.1s0.5,1.5-0.1,2c-0.1,0-0.1,0.1-0.2,0.1c-1.2,1-2.3,2.3-3,3.7l1.2,1.7c0.5,0.6,0.3,1.5-0.3,2c0,0,0,0,0,0
	C92.3,61.1,92,61.2,91.7,61.2z"/>
<circle class="st7" cx="81.3" cy="52.9" r="3.7"/>
<path class="st0" d="M64.6,87.2c0,0-1.8,2.7,1.3,11.7"/>
<path class="st7" d="M65.9,100.3c-0.6,0-1.2-0.4-1.3-1c-3.1-9.2-1.5-12.4-1.2-12.9c0.5-0.6,1.3-0.8,2-0.3c0.6,0.4,0.8,1.2,0.4,1.8
	c-0.1,0.2-1.2,2.8,1.4,10.5c0.3,0.7-0.1,1.5-0.9,1.8c0,0,0,0,0,0C66.2,100.3,66,100.3,65.9,100.3z"/>
<path class="st0" d="M73.2,96.8c0,0-0.4,9.6,3,13.2"/>
<path class="st7" d="M76.2,111.4c-0.4,0-0.7-0.2-1-0.4c-3.7-3.9-3.4-13.2-3.4-14.2c0-0.8,0.7-1.4,1.5-1.4s1.4,0.7,1.4,1.5
	c-0.1,2.5,0.2,9.5,2.6,12.1c0.5,0.6,0.5,1.5-0.1,2C77,111.2,76.6,111.4,76.2,111.4z"/>
<path class="st7" d="M61.2,127.3c-0.5-0.6-1.4-0.7-2-0.3c0,0,0,0,0,0c-8.4,6.5-14.8,10.4-19.5,12.7c0.3,0.1,0.7,0.2,1.1,0.3
	c0.9,0.2,1.8,0.5,2.6,1c6.1-3.5,12-7.4,17.5-11.8C61.6,128.9,61.7,128,61.2,127.3z"/>
<path class="st7" d="M57.2,146.4l0.1-0.3c0.3-0.7,0-1.6-0.7-1.9c-0.7-0.3-1.6,0-1.9,0.7l-0.5,1.1C55.2,146.2,56.2,146.3,57.2,146.4z
	"/>
<line class="st8" x1="43.5" y1="101.3" x2="33.7" y2="109.9"/>
<path class="st9" d="M33.7,111.3c-0.8,0-1.4-0.6-1.4-1.4c0-0.4,0.2-0.8,0.5-1.1l9.8-8.6c0.6-0.6,1.5-0.6,2,0c0.6,0.6,0.6,1.5,0,2
	c0,0-0.1,0.1-0.1,0.1l-9.8,8.6C34.4,111.2,34.1,111.3,33.7,111.3z"/>
<line class="st8" x1="57.1" y1="102" x2="47" y2="109.8"/>
<path class="st9" d="M47,111.2c-0.4,0-0.9-0.2-1.1-0.6c-0.5-0.6-0.4-1.5,0.3-2l10.1-7.7c0.6-0.5,1.5-0.4,2,0.3
	c0.5,0.6,0.4,1.5-0.3,2l0,0l-10.1,7.7C47.6,111.1,47.3,111.2,47,111.2z"/>
<circle class="st8" cx="75.1" cy="75.1" r="73"/>
<path class="st10" d="M75.1,150.1C33.7,150.1,0,116.4,0,75.1C0,33.7,33.7,0,75.1,0s75.1,33.7,75.1,75.1
	C150.1,116.4,116.4,150.1,75.1,150.1z M75.1,4.1c-39.1,0-71,31.9-71,71c0,39.1,31.9,71,71,71c39.1,0,71-31.9,71-71
	C146.1,35.9,114.2,4.1,75.1,4.1z"/>
</svg>
