<?xml version="1.0" encoding="utf-8"?>
<!-- Generator: Adobe Illustrator 21.1.0, SVG Export Plug-In . SVG Version: 6.00 Build 0)  -->
<svg version="1.1" id="圖層_1" xmlns="http://www.w3.org/2000/svg" xmlns:xlink="http://www.w3.org/1999/xlink" x="0px" y="0px"
	 viewBox="0 0 156 156" style="enable-background:new 0 0 156 156;" xml:space="preserve">
<style type="text/css">
	.st0{clip-path:url(#SVGID_2_);}
	.st1{clip-path:url(#SVGID_4_);}
	.st2{fill:#FFFFFF;}
	.st3{clip-path:url(#SVGID_4_);fill:#FFFFFF;}
	.st4{clip-path:url(#SVGID_4_);fill:#AE9378;}
	.st5{clip-path:url(#SVGID_4_);fill:none;stroke:#1A1A1A;stroke-width:4.06;stroke-linecap:round;stroke-linejoin:round;}
	.st6{clip-path:url(#SVGID_4_);fill:#F9D1BF;stroke:#1A1A1A;stroke-width:3.04;stroke-linecap:round;stroke-linejoin:round;}
	.st7{clip-path:url(#SVGID_4_);fill:none;stroke:#1A1A1A;stroke-width:3.04;stroke-linecap:round;stroke-linejoin:round;}
	.st8{clip-path:url(#SVGID_4_);fill:#1A1A1A;}
	.st9{clip-path:url(#SVGID_4_);fill:#AC9177;stroke:#1A1A1A;stroke-width:4.06;stroke-linecap:round;stroke-linejoin:round;}
	.st10{clip-path:url(#SVGID_4_);fill:#FFFFFF;stroke:#1A1A1A;stroke-width:4.06;stroke-linecap:round;stroke-linejoin:round;}
	.st11{fill:none;stroke:#C8C9CA;stroke-width:4.06;stroke-miterlimit:10;}
	.st12{clip-path:url(#SVGID_6_);}
	.st13{fill:#928985;}
	.st14{fill:none;stroke:#1A1A1A;stroke-width:4.06;stroke-linecap:round;stroke-linejoin:round;}
	.st15{fill:none;stroke:#1A1A1A;stroke-width:3.04;stroke-linecap:round;stroke-linejoin:round;}
</style>
<title>互動設計UI</title>
<g>
	<defs>
		<circle id="SVGID_1_" cx="78" cy="78" r="73"/>
	</defs>
	<clipPath id="SVGID_2_">
		<use xlink:href="#SVGID_1_"  style="overflow:visible;"/>
	</clipPath>
	<g class="st0">
		<g>
			<defs>
				<circle id="SVGID_3_" cx="78" cy="78" r="73"/>
			</defs>
			<clipPath id="SVGID_4_">
				<use xlink:href="#SVGID_3_"  style="overflow:visible;"/>
			</clipPath>
			<g class="st1">
				<circle class="st2" cx="78" cy="78" r="73"/>
			</g>
			<path class="st3" d="M28.9,79.7c0,0-18.8,8.2-17.6,45.8c0,0,1,22.5-11.6,34.8l-10.3,10.5l-8.4,2l-3.2-5.7l3.4-12.1l-5.5,1.8
				l-3.8,11.5l1.9,8.8l7.6,4.2l13.6-3.9l23.3-24.4l11.3-7.9l1.6,8.8c0,0,8.7,3.7,16-0.9l12.9-4.6c0,0,2-8.1-6.3-6.7L38.8,146
				c0,0,0.8-11.6,8.5-15.8c0,0,23.6-14.5,29.4-13.8l13.4-1.2l-8.6-16.7c0,0,21.9-17.7,42.1-25.4c0,0,11.4-4.2-25-11.6l-19.1-8
				c0,0-24.2-4.1-25.9,10.7C48.7,73.5,39.3,79.4,28.9,79.7z"/>
			<path class="st4" d="M38.3,88.2c0,0-28.2-0.3-27,37.3c0,0,1,22.5-11.6,34.8l-10.3,10.5l-8.4,2l-3.2-5.7l3.4-12.1l-5.5,1.8
				l-3.8,11.5l1.9,8.8l7.6,4.2l13.6-3.9l23.3-24.4l11.3-7.9l1.6,8.8c0,0,8.7,3.7,16-0.9l12.9-4.6c0,0-0.5,0-8.8,1.5L38.8,146
				c0,0,0.8-11.6,8.5-15.8c0,0,23.6-14.5,29.4-13.8l18.4,11.7l9.7-2.1l6.1-7.2l-9.9,0.8l-10.9-4.3l-8.6-16.7
				c0,0,21.9-17.7,42.1-25.4c0,0,11.4-4.2-25-11.6l-19.1-8c0,0-20,2.2-21.7,17C57.8,70.6,56.3,87.5,38.3,88.2z"/>
			<path class="st5" d="M29.5,145c-9.1,2.9-20.9,18.5-20.9,18.5c-9.5,13.3-18.4,16.9-23.3,17.9c-3,0.5-6.1-0.2-8.5-2
				c-3.5-2.5-5.4-6.8-5-11.1c0.6-14,11.5-14.8,11.5-14.8c-8.2,10.8-4.3,16.7-4.3,16.7c3.3,7.6,13.8-3,13.8-3
				c8.7-7.9,10.9-20.1,10.9-20.1c0.5-5.5,0.7-10.6-0.2-15c-1-4.2-1.7-8.5-2-12.8c-1.9-42.6,34.2-41.2,34.2-41.2
				c9,1.4,13.9-7.3,13.9-7.3s10.3-30,42.3-12.6c0,0,22.6,9,29.6,8.8c0,0,5.9,3,2.2,6.2c0,0-27.2,11.9-38.3,20.2c0,0-6.5,7,1,16.7
				c3.8,4.4,8.6,7.7,14.1,9.5c0,0,8-3.6,11.2,1.2c-4.1,4.5-9.9,7.1-16,7.2c0,0-12.8-2.7-18.8-11.6"/>
			<path class="st5" d="M73.2,70.4c0,0-12.1,2.8-10.3,11.3c0,0,4.1,8.7,16.5,6.8"/>
			<path class="st6" d="M77.9,82.5c-3.2,1.2-6.7,0.5-9.1-1.9c0,0-1.4-5,6.9-5.8"/>
			<path class="st7" d="M103.1,75.4c0,0-5.2,6.4-7.4,22"/>
			<path class="st7" d="M108.1,74c-0.4,4.6,0.5,9.3,2.6,13.5"/>
			<path class="st7" d="M105.1,63.4c0,0,1.8-13.2,5-16.9"/>
			<path class="st7" d="M110.6,64.3c0,0,2-7.9,6.1-10.4"/>
			
				<ellipse transform="matrix(0.8029 -0.5961 0.5961 0.8029 -23.3442 66.0797)" class="st8" cx="88.3" cy="68.3" rx="4.2" ry="4.3"/>
			<path class="st9" d="M26.1,136c0,0,5.5,8.4,4.9,17.8c0,0,2.7,6,16-0.9c1.6-0.7,3.2-1.5,4.6-2.6c2-1.6,2.3,6.2,4.9,6.2
				c0,0,3.9-9.4-6.3-6.7c0,0-5.6-6.4-11.5-3.8c1-2.5,1.8-5,2.4-7.6c1.3-5.7,2.2-13.3-1.1-17.7"/>
			<path class="st10" d="M76.3,116.9c1.8-1.3-23.7,5.5-32.7,16.2"/>
			<path class="st10" d="M56.8,100.3c0,0,8.6,11.4,16.4,11.8"/>
			<path class="st8" d="M118.4,68c0,0-2.1,2.2,1.1,7.2l4.1-2.1l1.3-4.5"/>
		</g>
		<circle class="st11" cx="78" cy="78" r="73"/>
		<g>
			<defs>
				<circle id="SVGID_5_" cx="-120.1" cy="78" r="73"/>
			</defs>
			<clipPath id="SVGID_6_">
				<use xlink:href="#SVGID_5_"  style="overflow:visible;"/>
			</clipPath>
			<g class="st12">
				<path class="st13" d="M-131.9,68.6l9.5-20.5l43.1-46l65-49.7l29.2-2.3c0,0-15.9,26.9-12.5,41.4c0,0-53.4,12.1-74.3,63.3
					L-110,74.7h0.2L-131.9,68.6z"/>
				<path class="st14" d="M-136.8,70.4c0,0,6.1-1.7,10.5-18.3c0,0,35.2-36.7,46.9-49.9c0,0,47.5-41,69.5-51.4c0,0,12.7-4.4,33.3,2
					c0,0-13.7,16.6-11.7,40.1c0,0-65,24.9-77.3,69.9c0,0-21.2,4-30.5,9.9"/>
				<path class="st15" d="M-65.8-0.1c0,0,20.8-12,33.5-13.4c0,0,23.3-1,33.6,2"/>
			</g>
		</g>
	</g>
</g>
</svg>
