<?xml version="1.0" encoding="utf-8"?>
<!-- Generator: Adobe Illustrator 21.1.0, SVG Export Plug-In . SVG Version: 6.00 Build 0)  -->
<svg version="1.1" id="圖層_1" xmlns="http://www.w3.org/2000/svg" xmlns:xlink="http://www.w3.org/1999/xlink" x="0px" y="0px"
	 viewBox="0 0 150.1 150.1" style="enable-background:new 0 0 150.1 150.1;" xml:space="preserve">
<style type="text/css">
	.st0{clip-path:url(#SVGID_2_);}
	.st1{fill:#FFFFFF;}
	.st2{fill:#939280;}
	.st3{fill:#1A1A1A;}
	.st4{fill:#6BC7F1;}
	.st5{fill:#F2F0DB;}
	.st6{fill:none;}
	.st7{fill:#C8C9CA;}
</style>
<g>
	<defs>
		<circle id="SVGID_1_" cx="75.1" cy="75.1" r="73"/>
	</defs>
	<clipPath id="SVGID_2_">
		<use xlink:href="#SVGID_1_"  style="overflow:visible;"/>
	</clipPath>
	<g class="st0">
		<circle class="st1" cx="75.1" cy="75.1" r="73"/>
	</g>
</g>
<path class="st2" d="M89.2,80.4l9-4.7c0,0-1.7-6.6-2.8-8.6c0,0-6.9,0.9-6.3-6.1s0.2-3.2,6.1-8.5c0,0,10.6,0.1,8,11.4
	c0,0,4.2,9.9,5,16.5c0,0-8,6.7-14,8.4"/>
<path class="st3" d="M94.1,90.7C93,90.9,92,90.1,91.8,89s0.6-2.1,1.7-2.3c4.5-1.2,10.3-5.6,12.4-7.3c-1-6.2-4.6-14.7-4.7-14.8
	c-0.2-0.4-0.2-0.8-0.1-1.3c0.7-2.8,0.4-5-0.8-6.5c-1.2-1.3-2.8-2.1-4.6-2.3c-1.2,1.1-2.5,2-3.9,2.8l-0.5,0.3
	c-0.2,1.1-0.3,2.2-0.3,3.3v0.3c-0.2,1.1,0.1,2.2,0.8,3.1c0.9,0.7,2.1,1,3.3,0.8c0.8-0.1,1.6,0.3,2,1c1.2,2.1,2.8,8.3,3,9
	c0.3,0.9-0.2,1.9-1,2.3l-9.1,4.9c-1,0.5-2.2,0.1-2.8-0.9s-0.1-2.2,0.9-2.8l7.6-4c-0.5-1.8-1.2-4-1.7-5.5c-1.9-0.1-3.6-0.8-5-2
	c-1.1-1-2.3-3-2-6.4v-0.3c0.4-4.4,0.4-5.4,2.9-6.8c1.4-0.8,2.7-1.7,3.9-2.8c0.4-0.3,0.9-0.5,1.4-0.5c0.2,0,5.5,0.1,8.5,3.9
	c1.8,2.3,2.4,5.5,1.7,9.3c1,2.3,4.2,10.5,4.9,16.5c0.1,0.7-0.2,1.3-0.7,1.8c-0.3,0.3-8.4,7-14.8,8.8C94.5,90.7,94.3,90.7,94.1,90.7z
	"/>
<path class="st2" d="M55.2,93.5l-9.1,4.6c0,0-3.4-5.7-4.4-7.7c0,0,4.8-5.1-1.3-8.7s-2.7-1.7-10.5,0c0,0-6.1,8.7,4.6,13.2
	c0,0,4.6,9.7,9.5,14.1c0,0,10.1-2.6,15-6.5"/>
<path class="st3" d="M44.1,111c-0.5,0-1-0.2-1.3-0.5c-4.5-4-8.5-11.7-9.7-14.1c-3.5-1.6-5.6-3.9-6.5-6.7c-1.3-4.7,1.6-9,1.8-9.2
	c0.3-0.4,0.7-0.7,1.2-0.8c1.6-0.3,3.1-0.8,4.6-1.5c2.5-1.2,3.3-0.7,7.2,1.6l0.2,0.1c2.9,1.8,3.8,3.9,4,5.4c0.2,1.8-0.3,3.7-1.3,5.2
	c0.8,1.4,1.9,3.4,2.8,4.8l7.4-3.7c1-0.5,2.2-0.1,2.7,0.9c0.5,1,0.1,2.2-0.9,2.7L47,99.9c-0.9,0.5-2.1,0.2-2.7-0.8
	c-0.1-0.2-3.5-5.8-4.5-7.9c-0.4-0.8-0.2-1.7,0.3-2.3c0.8-0.8,1.2-2,1.2-3.1c-0.3-1.1-1-2-2.1-2.4l-0.3-0.1c-0.9-0.6-1.9-1.1-2.8-1.6
	l-0.5,0.2c-1.5,0.7-3,1.2-4.5,1.6c-0.9,1.6-1.2,3.4-0.8,5.1c0.5,1.8,2.2,3.3,4.8,4.4c0.4,0.2,0.8,0.6,1,1c0,0.1,4,8.3,8.3,12.7
	c2.6-0.8,9.5-2.9,13.1-5.8c0.9-0.7,2.1-0.6,2.9,0.3c0.7,0.9,0.6,2.1-0.3,2.9c-5.1,4.2-15.3,6.8-15.7,6.9
	C44.4,110.9,44.2,111,44.1,111z"/>
<path class="st1" d="M129.3,91.9c5.4,4.3,7.6,11.3,8.4,16.6c2.3-4.4,4.7-8.8,7.1-13.2c-3.8-6.7-8.9-10.7-12.9-13.9
	C118,70.7,116.1,50,116.1,50C106.9,72.2,129.3,91.9,129.3,91.9z"/>
<path class="st1" d="M75.3,143c1.1,1.6,2.4,3.2,3.7,4.6c2.9-0.5,5.8-0.7,8.7-0.6c3.4-1.1,6.9-2.8,9.6-3.5c5.3-1.5,10.4-3.6,15.3-6.1
	c-0.5-0.7-0.9-1.4-1.2-2.1c0,0-8.4-41.8-28.3-56.9c1.2-4.1,0.5-8.5-2-12c0,0-6.9-9.9-13.6-17.6c-2.3-2.7-5.7-4.3-9.2-4.1
	c-1.9,0.1-3.7,0.9-5.2,2.1c0,0-2.9,2.6-3.4,8.6c0,0-1,20.3,1.4,24.4c0,0,1.7,7.4,6.8,8.1C57.9,87.8,57.2,116.8,75.3,143z"/>
<path class="st2" d="M48.3,53.4c0.4-0.4,0.9-0.7,1.4-1C49.4,51.1,48.3,53.4,48.3,53.4z"/>
<path class="st4" d="M129.3,91.9c5.4,4.3,7.6,11.3,8.4,16.6c2.3-4.4,4.7-8.8,7.1-13.2c-3.8-6.7-8.9-10.7-12.9-13.9
	C118,70.7,116.1,50,116.1,50C106.9,72.2,129.3,91.9,129.3,91.9z"/>
<path class="st2" d="M75.3,143c1.1,1.6,2.4,3.2,3.7,4.6c2.9-0.5,5.8-0.7,8.7-0.6c3.4-1.1,6.9-2.8,9.6-3.5c5.3-1.5,10.4-3.6,15.3-6.1
	c-0.5-0.7-0.9-1.4-1.2-2.1c0,0-12.9-36.2-32.8-51.4c1.2-4.1,0.5-8.5-2-12c0,0-7.2-8.8-13.9-16.5c-2.3-2.7-5.7-4.3-9.2-4.1
	c-1.4,0.1-2.7,0.5-3.9,1.1c0.1,1,0.1,1.9,0,2.9c0,0-1,20.3,1.4,24.4c0,0,1.7,7.4,6.8,8.1C57.9,87.8,57.2,116.8,75.3,143z"/>
<path class="st3" d="M128,93.5c5.9,4.7,7.6,13.2,8.1,18.2c1-2,2.1-4,3.1-6c-1.2-5.2-3.6-11.3-8.6-15.3c-0.2-0.2-15.6-14-14.7-31
	c2.1,7.2,6.3,17.1,14.7,23.7c4.1,3.2,9.3,7.2,13,14.3c0.8-1.4,1.5-2.8,2.3-4.1c-4-6.5-9.1-10.5-12.8-13.4
	c-13-10.1-15.1-29.9-15.1-30.1c0-1.1-1-2-2.1-1.9c-0.8,0-1.6,0.6-1.8,1.4c-4,9.7-2.9,20.5,3.3,31.1C120.3,85.2,123.8,89.7,128,93.5z
	"/>
<path class="st3" d="M76.8,148.2c0.4-0.2,0.8-0.3,1.3-0.4c1.1-0.2,2.2-0.4,3.3-0.5c-1.6-1.7-3.1-3.5-4.4-5.4
	c-17.6-25.2-17-53.6-17-53.9c0-1.1-0.8-2-1.8-2.1c-3.5-0.5-5-6.5-5-6.6c-0.1-0.2-0.1-0.4-0.2-0.6c-1.5-2.5-1.5-15.1-1.1-23.2
	c0.4-5,2.6-7.2,2.7-7.2c1.2-1,2.6-1.5,4.1-1.6h0.6c2.7,0.1,5.3,1.3,7,3.4c6.5,7.5,13.3,17.3,13.4,17.4c2.1,2.9,2.7,6.7,1.7,10.1
	c-0.3,0.8,0,1.8,0.7,2.3c19.1,14.5,27.5,55.3,27.6,55.7c0,0.1,0.1,0.3,0.1,0.4c0.3,0.8,0.7,1.6,1.2,2.3c1.2-0.6,2.5-1.2,3.7-1.8
	c-0.5-0.6-0.8-1.2-1.1-1.8c-1.7-7.8-4-15.4-6.7-22.9c-6-16-13.1-27.6-21.2-34.2c0.9-4.3-0.1-8.8-2.6-12.4c-0.1-0.1-7-10.1-13.7-17.8
	c-2.7-3.2-6.7-5-10.9-4.8c-2.4,0.1-4.7,1.1-6.5,2.7c-0.4,0.3-3.5,3.3-4.1,10c-0.2,3.4-0.9,20.4,1.5,25.2c0.4,1.4,2.2,7.1,6.7,8.9
	C56,96,57.5,121,73.7,144.1C74.6,145.5,75.7,146.9,76.8,148.2z"/>
<path class="st5" d="M96.8,143.6l0.5-0.1c1.4-0.4,2.8-0.8,4.1-1.3c-6.3-5.7-10.1-12.5-13.7-20.3c-4.7-10.2-10.2-20.1-11.2-31.5
	c-0.1-0.8-0.6-1.5-1.4-1.8c-4.5-8-8.2-16.4-10.8-25.2c-0.8-2.6-4.8-1.5-4,1.1C63.2,74,67.1,83,72,91.5c0.2,0.3,0.3,0.5,0.6,0.7
	c1.3,10.1,5.6,19,9.8,28.2C86.5,129.1,90.3,137,96.8,143.6z"/>
<path class="st5" d="M79.1,130.8c-4.6-8.7-9-17.5-9.5-27.6c-0.1-2.7-4.3-2.7-4.2,0c0.4,10.8,5.1,20.3,10,29.7
	C76.7,135.3,80.3,133.2,79.1,130.8z"/>
<path class="st5" d="M96.5,113.3c-1.9-4.1-3.8-8.2-5.8-12.3c-1.1-2.4-4.8-0.3-3.6,2.1l5.8,12.3C94.1,117.9,97.7,115.8,96.5,113.3z"
	/>
<ellipse transform="matrix(0.9592 -0.2827 0.2827 0.9592 -17.3329 17.9427)" class="st3" cx="53.5" cy="69" rx="3" ry="4.3"/>
<ellipse transform="matrix(0.866 -0.5 0.5 0.866 -20.8915 45.2104)" class="st3" cx="73.9" cy="61.6" rx="3" ry="4.3"/>
<circle class="st6" cx="75.1" cy="75.1" r="73"/>
<path class="st7" d="M75.1,150.1C33.7,150.1,0,116.4,0,75.1C0,33.7,33.7,0,75.1,0s75.1,33.7,75.1,75.1
	C150.1,116.4,116.4,150.1,75.1,150.1z M75.1,4.1c-39.1,0-71,31.9-71,71s31.9,71,71,71c39.1,0,71-31.9,71-71S114.2,4.1,75.1,4.1z"/>
</svg>
