<svg id="圖層_1" data-name="圖層 1" xmlns="http://www.w3.org/2000/svg" xmlns:xlink="http://www.w3.org/1999/xlink" viewBox="0 0 150.1 150.1"><defs><clipPath id="clip-path"><circle cx="75.1" cy="75.1" r="73" style="fill:none"/></clipPath></defs><title>4</title><g style="clip-path:url(#clip-path)"><circle cx="75.1" cy="75.1" r="73" style="fill:#fff"/></g><path d="M89.2,80.4l9-4.7s-1.7-6.6-2.8-8.6c0,0-6.9.9-6.3-6.1s.2-3.2,6.1-8.5c0,0,10.6.1,8,11.4,0,0,4.2,9.9,5,16.5,0,0-8,6.7-14,8.4" style="fill:#939280"/><path d="M94.1,90.7a2,2,0,0,1-.6-4c4.5-1.2,10.3-5.6,12.4-7.3-1-6.2-4.6-14.7-4.7-14.8a1.9,1.9,0,0,1-.1-1.3c.7-2.8.4-5-.8-6.5a7.28,7.28,0,0,0-4.6-2.3,21.39,21.39,0,0,1-3.9,2.8l-.5.3a18.41,18.41,0,0,0-.3,3.3v.3a3.88,3.88,0,0,0,.8,3.1,4.24,4.24,0,0,0,3.3.8,2,2,0,0,1,2,1c1.2,2.1,2.8,8.3,3,9a2,2,0,0,1-1,2.3L90,82.3a2.15,2.15,0,0,1-2.8-.9,2.06,2.06,0,0,1,.9-2.8l7.6-4c-.5-1.8-1.2-4-1.7-5.5a8.23,8.23,0,0,1-5-2c-1.1-1-2.3-3-2-6.4v-.3c.4-4.4.4-5.4,2.9-6.8a21.39,21.39,0,0,0,3.9-2.8,2.39,2.39,0,0,1,1.4-.5c.2,0,5.5.1,8.5,3.9,1.8,2.3,2.4,5.5,1.7,9.3,1,2.3,4.2,10.5,4.9,16.5a2.09,2.09,0,0,1-.7,1.8c-.3.3-8.4,7-14.8,8.8A2,2,0,0,1,94.1,90.7Z" style="fill:#1a1a1a"/><path d="M55.2,93.5l-9.1,4.6s-3.4-5.7-4.4-7.7c0,0,4.8-5.1-1.3-8.7s-2.7-1.7-10.5,0c0,0-6.1,8.7,4.6,13.2,0,0,4.6,9.7,9.5,14.1,0,0,10.1-2.6,15-6.5" style="fill:#939280"/><path d="M44.1,111a1.9,1.9,0,0,1-1.3-.5c-4.5-4-8.5-11.7-9.7-14.1-3.5-1.6-5.6-3.9-6.5-6.7-1.3-4.7,1.6-9,1.8-9.2a2,2,0,0,1,1.2-.8,19,19,0,0,0,4.6-1.5c2.5-1.2,3.3-.7,7.2,1.6l.2.1c2.9,1.8,3.8,3.9,4,5.4a8,8,0,0,1-1.3,5.2c.8,1.4,1.9,3.4,2.8,4.8l7.4-3.7a2,2,0,1,1,1.8,3.6L47,99.9a2,2,0,0,1-2.7-.8c-.1-.2-3.5-5.8-4.5-7.9a2.12,2.12,0,0,1,.3-2.3,4.47,4.47,0,0,0,1.2-3.1,3.39,3.39,0,0,0-2.1-2.4l-.3-.1c-.9-.6-1.9-1.1-2.8-1.6l-.5.2a27,27,0,0,1-4.5,1.6,7.08,7.08,0,0,0-.8,5.1c.5,1.8,2.2,3.3,4.8,4.4a2.41,2.41,0,0,1,1,1c0,.1,4,8.3,8.3,12.7,2.6-.8,9.5-2.9,13.1-5.8a2.06,2.06,0,0,1,2.6,3.2c-5.1,4.2-15.3,6.8-15.7,6.9C44.4,110.9,44.2,111,44.1,111Z" style="fill:#1a1a1a"/><path d="M129.3,91.9c5.4,4.3,7.6,11.3,8.4,16.6,2.3-4.4,4.7-8.8,7.1-13.2-3.8-6.7-8.9-10.7-12.9-13.9C118,70.7,116.1,50,116.1,50,106.9,72.2,129.3,91.9,129.3,91.9Z" style="fill:#fff"/><path d="M75.3,143a41.36,41.36,0,0,0,3.7,4.6,42.46,42.46,0,0,1,8.7-.6c3.4-1.1,6.9-2.8,9.6-3.5a84.17,84.17,0,0,0,15.3-6.1,11.25,11.25,0,0,1-1.2-2.1S103,93.5,83.1,78.4a13.86,13.86,0,0,0-2-12s-6.9-9.9-13.6-17.6a11.37,11.37,0,0,0-9.2-4.1,9.18,9.18,0,0,0-5.2,2.1s-2.9,2.6-3.4,8.6c0,0-1,20.3,1.4,24.4,0,0,1.7,7.4,6.8,8.1C57.9,87.8,57.2,116.8,75.3,143Z" style="fill:#fff"/><path d="M48.3,53.4a7.1,7.1,0,0,1,1.4-1C49.4,51.1,48.3,53.4,48.3,53.4Z" style="fill:#939280"/><path d="M129.3,91.9c5.4,4.3,7.6,11.3,8.4,16.6,2.3-4.4,4.7-8.8,7.1-13.2-3.8-6.7-8.9-10.7-12.9-13.9C118,70.7,116.1,50,116.1,50,106.9,72.2,129.3,91.9,129.3,91.9Z" style="fill:#6bc7f1"/><path d="M75.3,143a41.36,41.36,0,0,0,3.7,4.6,42.46,42.46,0,0,1,8.7-.6c3.4-1.1,6.9-2.8,9.6-3.5a84.17,84.17,0,0,0,15.3-6.1,11.25,11.25,0,0,1-1.2-2.1S98.5,99.1,78.6,83.9a13.86,13.86,0,0,0-2-12s-7.2-8.8-13.9-16.5a11.37,11.37,0,0,0-9.2-4.1,10.32,10.32,0,0,0-3.9,1.1,14.05,14.05,0,0,1,0,2.9s-1,20.3,1.4,24.4c0,0,1.7,7.4,6.8,8.1C57.9,87.8,57.2,116.8,75.3,143Z" style="fill:#939280"/><path d="M128,93.5c5.9,4.7,7.6,13.2,8.1,18.2,1-2,2.1-4,3.1-6-1.2-5.2-3.6-11.3-8.6-15.3-.2-.2-15.6-14-14.7-31,2.1,7.2,6.3,17.1,14.7,23.7,4.1,3.2,9.3,7.2,13,14.3.8-1.4,1.5-2.8,2.3-4.1-4-6.5-9.1-10.5-12.8-13.4C120.1,69.8,118,50,118,49.8a2,2,0,0,0-2.1-1.9,1.92,1.92,0,0,0-1.8,1.4c-4,9.7-2.9,20.5,3.3,31.1A58,58,0,0,0,128,93.5Z" style="fill:#1a1a1a"/><path d="M76.8,148.2a5,5,0,0,1,1.3-.4c1.1-.2,2.2-.4,3.3-.5a45.13,45.13,0,0,1-4.4-5.4C59.4,116.7,60,88.3,60,88a2.07,2.07,0,0,0-1.8-2.1c-3.5-.5-5-6.5-5-6.6s-.1-.4-.2-.6c-1.5-2.5-1.5-15.1-1.1-23.2.4-5,2.6-7.2,2.7-7.2a7,7,0,0,1,4.1-1.6h.6a9.45,9.45,0,0,1,7,3.4c6.5,7.5,13.3,17.3,13.4,17.4a11.72,11.72,0,0,1,1.7,10.1,2,2,0,0,0,.7,2.3c19.1,14.5,27.5,55.3,27.6,55.7,0,.1.1.3.1.4a10.08,10.08,0,0,0,1.2,2.3c1.2-.6,2.5-1.2,3.7-1.8a8.71,8.71,0,0,1-1.1-1.8,182,182,0,0,0-6.7-22.9c-6-16-13.1-27.6-21.2-34.2a16.06,16.06,0,0,0-2.6-12.4c-.1-.1-7-10.1-13.7-17.8a13.42,13.42,0,0,0-10.9-4.8A10.53,10.53,0,0,0,52,45.3c-.4.3-3.5,3.3-4.1,10-.2,3.4-.9,20.4,1.5,25.2.4,1.4,2.2,7.1,6.7,8.9C56,96,57.5,121,73.7,144.1A40.1,40.1,0,0,0,76.8,148.2Z" style="fill:#1a1a1a"/><path d="M96.8,143.6l.5-.1c1.4-.4,2.8-.8,4.1-1.3-6.3-5.7-10.1-12.5-13.7-20.3C83,111.7,77.5,101.8,76.5,90.4a2.18,2.18,0,0,0-1.4-1.8A121.93,121.93,0,0,1,64.3,63.4c-.8-2.6-4.8-1.5-4,1.1A129.69,129.69,0,0,0,72,91.5a2,2,0,0,0,.6.7c1.3,10.1,5.6,19,9.8,28.2C86.5,129.1,90.3,137,96.8,143.6Z" style="fill:#f2f0db"/><path d="M79.1,130.8c-4.6-8.7-9-17.5-9.5-27.6-.1-2.7-4.3-2.7-4.2,0,.4,10.8,5.1,20.3,10,29.7C76.7,135.3,80.3,133.2,79.1,130.8Z" style="fill:#f2f0db"/><path d="M96.5,113.3c-1.9-4.1-3.8-8.2-5.8-12.3-1.1-2.4-4.8-.3-3.6,2.1l5.8,12.3C94.1,117.9,97.7,115.8,96.5,113.3Z" style="fill:#f2f0db"/><ellipse cx="53.49" cy="69" rx="3" ry="4.3" transform="translate(-17.33 17.94) rotate(-16.42)" style="fill:#1a1a1a"/><ellipse cx="73.91" cy="61.61" rx="3" ry="4.3" transform="translate(-20.9 45.21) rotate(-30)" style="fill:#1a1a1a"/><circle cx="75.1" cy="75.1" r="73" style="fill:none"/><path d="M75.1,150.1a75.05,75.05,0,1,1,75.1-75A75.18,75.18,0,0,1,75.1,150.1Zm0-146a71,71,0,1,0,71,71A71.14,71.14,0,0,0,75.1,4.1Z" style="fill:#c8c9ca"/></svg>