<svg id="圖層_1" data-name="圖層 1" xmlns="http://www.w3.org/2000/svg" xmlns:xlink="http://www.w3.org/1999/xlink" viewBox="0 0 150.1 150.1"><defs><clipPath id="clip-path"><circle cx="75.1" cy="75.1" r="73" style="fill:none"/></clipPath></defs><title>5</title><circle cx="75.1" cy="75.1" r="73" style="fill:#a6a6a6"/><g style="clip-path:url(#clip-path)"><circle cx="75.1" cy="75.1" r="73" style="fill:#fff"/></g><path d="M62.3,76.8C34.5,72.3,8.8,92.4,4,96.5c1.4,3.1,3.1,6.4,4.1,8.4.9,1.8,1.9,3.5,2.9,5.3,14.9,13,43.4,8.2,43.4,8.2,15.2-.3,50.8-21.4,50.8-21.4C87.2,101.3,62.3,76.8,62.3,76.8Z" style="fill:#bcb2ae"/><path d="M65.5,94s3.4-7.8,8.9-8.6L70,74.8,61.4,74l-2.7,6.1L64.8,93" style="fill:#827975"/><polyline points="87.3 73.9 94.9 66.4 97.2 70.7 95.4 82.3" style="fill:#827975"/><path d="M2.2,90v.2C16.6,78.2,33.2,73,36.6,72c-5.5.7-13-19-13-19l1.9-30.9c-3.1,3.4-6,6.9-9.3,10.1a7.6,7.6,0,0,1-3.6,2c-.5.7-1,1.3-1.5,2a7.39,7.39,0,0,1-.5,3.3c-6.2,15.2-7.7,31-7.7,47.3A8.76,8.76,0,0,1,2.2,90Z" style="fill:#928985"/><path d="M132.8,34.2C126.2,23.3,119,12.7,107.2,8.5L72.8,45.2,63.3,65.7l21.9,6.1,38.1-19.9A103.69,103.69,0,0,1,132.8,34.2Z" style="fill:#928985"/><path d="M14.5,116.2l.6-.9a2,2,0,1,0-2.8-2.8C13.1,113.7,13.8,114.9,14.5,116.2Z" style="fill:#1a1a1a"/><path d="M100.5,90.5a23.41,23.41,0,0,0-6.3-12.4C88.1,70.4,78,66.2,65.1,65.8a73.4,73.4,0,0,0-16.9,1.6A26.4,26.4,0,0,1,42,62.6a31.69,31.69,0,0,1-8.8-17.9c0-.2-1.9-16.5-2-28.4l-3,3-1,1.1c.4,11.3,1.9,24,2,24.8,3.1,19.4,17.4,25.9,18,26.2a2,2,0,0,0,1.3.1c.3-.1,29.6-7.3,42.7,9.2.1.1.1.2.2.2a19.58,19.58,0,0,1,5.2,10.2,2,2,0,1,0,3.9-.6Z" style="fill:#1a1a1a"/><path d="M92.5,104.5a1.88,1.88,0,0,0-2.7-.7h0c-.3.2-33.3,19.3-64.4,12.1-.1,0-10.6-3-16.4-9.3,1.6,3,3.5,6,5.1,8.9a53.77,53.77,0,0,0,10.2,4.3,71.36,71.36,0,0,0,16,1.8c26.8,0,50.2-13.6,51.4-14.3a2,2,0,0,0,.8-2.8Z" style="fill:#1a1a1a"/><path d="M20.2,52.6c1.3-3.8,6.1-18.5,7.7-33-1.2,1.3-2.4,2.6-3.6,4a182.26,182.26,0,0,1-7.2,28.9,1.57,1.57,0,0,0,.3,1.6L36,73.3a1.61,1.61,0,0,0,1.1.5,2.1,2.1,0,0,0,1.1-.4,1.45,1.45,0,0,0,0-2.1h0Z" style="fill:#1a1a1a"/><path d="M63.8,95.1a1.71,1.71,0,0,1-1.3-.7c-4.9-8-6.4-14.3-4.6-18.7a7.81,7.81,0,0,1,4.9-4.5h.6c11.1,1.8,13.3,12.9,13.3,13a1.53,1.53,0,0,1-3,.6c-.1-.4-1.9-8.9-10.5-10.5A4.92,4.92,0,0,0,60.6,77c-.9,2.4-.9,7,4.4,15.9a1.58,1.58,0,0,1-.5,2.1A5.64,5.64,0,0,1,63.8,95.1Z" style="fill:#1a1a1a"/><path d="M95.5,83a.9.9,0,0,1-.5-.1A1.5,1.5,0,0,1,94,81h0c2.1-6.6,1.5-11,.9-13-5.8,2.4-6.1,6.9-6.1,7A1.65,1.65,0,0,1,87,76.2a1.61,1.61,0,0,1-1.2-1.3c0-.3.5-7.3,9.6-10.2a1.62,1.62,0,0,1,1.8.7c.1.2,3.2,5.9-.2,16.6A1.69,1.69,0,0,1,95.5,83Z" style="fill:#1a1a1a"/><path d="M8.6,87.2a1.28,1.28,0,0,1-1-.4,1.57,1.57,0,0,1-.1-2.2A49,49,0,0,1,27.8,71.7a1.52,1.52,0,0,1,.9,2.9h-.1a46,46,0,0,0-18.9,12A1.15,1.15,0,0,1,8.6,87.2Z" style="fill:#1a1a1a"/><path d="M105.3,7.8c-14.9,16-37.5,39.6-37.8,39.9a1.93,1.93,0,0,0-.5.9c-3.8,14.6-9,16.8-9.2,16.9A2,2,0,0,0,56.4,68a2.13,2.13,0,0,0,2.5,1.4c.7-.2,7.2-2.5,11.8-19.3,3.1-3.2,24.7-25.8,38.6-40.8A23.66,23.66,0,0,0,105.3,7.8Z" style="fill:#1a1a1a"/><path d="M136.4,40.2a67.15,67.15,0,0,0-8.4,18c-4.8,1-21.7,4.7-30,9.9a2,2,0,0,0-.5,2.8,2,2,0,0,0,2.6.6c8.9-5.6,29.6-9.6,29.8-9.6a2,2,0,0,0,1.6-1.5A64.93,64.93,0,0,1,138.7,44C138,42.7,137.2,41.4,136.4,40.2Z" style="fill:#1a1a1a"/><path d="M80.7,70.7a1.45,1.45,0,0,1-1.5-1.4c-.1-1.6-1.1-15.9,0-19.5.1-.2.1-.4.3-.5l22.9-27.9a1.49,1.49,0,1,1,2.3,1.9L82,50.8c-.6,2.8-.2,12.5.2,18.2a1.48,1.48,0,0,1-1.4,1.6l-.1.1Z" style="fill:#1a1a1a"/><path d="M117.7,14.6a24.16,24.16,0,0,0-3.6-2.7c.7,4.2,5.3,30.1,8.5,41.1a1.53,1.53,0,0,0,2.9-.9C122.9,43.2,119.2,23,117.7,14.6Z" style="fill:#1a1a1a"/><circle cx="80.5" cy="91.2" r="3.6" style="fill:#1a1a1a"/><path d="M89.5,108.3a1.94,1.94,0,0,1-2.2-1.7,2,2,0,0,1,1.5-2.2C103.4,99,105,95.7,105.2,95c-5.6.4-12.8-3.7-13.6-4.2a2,2,0,0,1,2.1-3.5c2.1,1.3,8.4,4.4,12,3.6a2.62,2.62,0,0,1,1.5.2,4.44,4.44,0,0,1,2.1,4.2c-.2,2.6-2.5,6.8-19.1,13C90,108.2,89.8,108.3,89.5,108.3Z" style="fill:#1a1a1a"/><path d="M95.3,104.9a.75.75,0,0,1-.5-.1L84.1,101a1.48,1.48,0,0,1-.9-1.9V99a1.45,1.45,0,0,1,1.9-.9h0l10.7,3.8a1.46,1.46,0,0,1,1.2,1.8,1.44,1.44,0,0,1-1.7,1.2Z" style="fill:#1a1a1a"/><path d="M44.7,109.3a1.45,1.45,0,1,1-.1-2.9,33.76,33.76,0,0,0,10.3-2.5,1.43,1.43,0,1,1,1.2,2.6h0a36.76,36.76,0,0,1-11.3,2.8Z" style="fill:#8d827f"/><path d="M34.9,100.4a1.45,1.45,0,0,1-1.4-1.5,1.32,1.32,0,0,1,1.3-1.3A84.08,84.08,0,0,0,46,95.9a1.43,1.43,0,1,1,.6,2.8,89.08,89.08,0,0,1-11.7,1.7Z" style="fill:#8d827f"/><circle cx="75.1" cy="75.1" r="73" style="fill:none"/><path d="M75.1,150.1a75.05,75.05,0,1,1,75.1-75A75.18,75.18,0,0,1,75.1,150.1Zm0-146a71,71,0,1,0,71,71A71.14,71.14,0,0,0,75.1,4.1Z" style="fill:#c8c9ca"/></svg>