<svg id="圖層_1" data-name="圖層 1" xmlns="http://www.w3.org/2000/svg" viewBox="0 0 325.9 370"><title>avatar</title><path d="M206,162.1l-7.9,16.8,17.7,30.3,23.8,23.9,30.1-28-6.5-12.8,14.8.3s-17.2-18.4-51.8-33.5C226.2,159,211.9,166.4,206,162.1Z" style="fill:#eab381"/><path d="M239.5,235.7a2.3,2.3,0,0,1-1.4-.4c-.8-.5-19.4-12.2-40.3-52.9a2.66,2.66,0,1,1,4.7-2.5v.1c17.3,33.6,32.8,46.8,37.2,50,8.8-5,18.4-15.6,26.9-25.5-1.1-2.2-3.5-6.9-5.8-11.1a2.68,2.68,0,0,1,.1-2.6,2.47,2.47,0,0,1,2.3-1.2c5.1.2,10.8.3,13.3.3,1.8-2.7,3.1-4.9,3.9-6.4C252.3,162.8,228,161,227.7,161a2.65,2.65,0,1,1,.3-5.3c1.1.1,27.2,2,57.4,24.9a2.64,2.64,0,0,1,.7,3.3,105,105,0,0,1-6.1,9.9c-.9,1.3-.9,1.3-9.7,1.1l-2.8-.1,1.2,2.3c3.8,7.3,4.1,7.9,2.8,9.4-9.6,11.1-20.6,23.4-30.9,28.7C240.4,235.6,240,235.7,239.5,235.7Z" style="fill:#1a1a1a"/><path d="M256.8,203.4a1.5,1.5,0,0,1-1.1-.4,85.17,85.17,0,0,1-11.2-9.5,2,2,0,0,1,.6-2.8,2,2,0,0,1,2.3.1,83.58,83.58,0,0,0,10.7,9,1.94,1.94,0,0,1,.3,2.8,2.09,2.09,0,0,1-1.6.8Z" style="fill:#fff"/><path d="M231.8,191.7a2.11,2.11,0,0,1-1.3-.5l-10.6-9.3a1.94,1.94,0,0,1,.2-2.8,2,2,0,0,1,2.4-.2l10.6,9.3a2,2,0,0,1,.1,2.8,2.1,2.1,0,0,1-1.4.7Z" style="fill:#aa806a"/><polygon points="56.4 184.3 16.9 216.2 23.7 224.7 36.6 221.9 33 235.6 63.9 258 91.2 199.3 77.2 184.4 56.4 184.3" style="fill:#eab381"/><path d="M63.9,260.6a2.77,2.77,0,0,1-.9-.1c-10-3.5-21.7-13.7-31.8-23-1.3-1.2-1.5-1.3,1.6-12.1l-2.1.5c-8,1.8-8,1.8-9.1.5-4.3-5-6.8-8.6-6.9-8.7a2.7,2.7,0,0,1,.1-3.2c15.5-18.8,30.8-27.8,38.6-31.4a2.65,2.65,0,0,1,2.2,4.8c-7.1,3.4-21,11.5-35.4,28.5,1,1.3,2.5,3.2,4.4,5.5,2.4-.5,7.6-1.7,11.3-2.6a2.78,2.78,0,0,1,3.2,2,2.85,2.85,0,0,1,0,1.3c-1.3,4.6-2.8,9.8-3.3,12,8.8,8,18.7,16.5,27.1,20.1a268.51,268.51,0,0,0,25.3-54,2.62,2.62,0,1,1,5,1.6,263.56,263.56,0,0,1-27.1,57A2.31,2.31,0,0,1,63.9,260.6ZM25.7,223Z" style="fill:#1a1a1a"/><path d="M48.1,211.2a1.89,1.89,0,0,1-1.9-2.1,2.45,2.45,0,0,1,.4-1.2c5.6-6.6,14.7-11.4,15-11.6a2,2,0,0,1,2.5,1.3,1.9,1.9,0,0,1-.7,2.2c-.1,0-8.8,4.6-13.9,10.6A1.72,1.72,0,0,1,48.1,211.2Z" style="fill:#aa806a"/><path d="M63.9,216a2,2,0,0,1-1.9-2.1,2.28,2.28,0,0,1,.3-1.1l7.9-11a1.93,1.93,0,0,1,2.8,0,2.14,2.14,0,0,1,.4,2.3l-7.9,11A1.92,1.92,0,0,1,63.9,216Z" style="fill:#aa806a"/><path d="M75.6,239.8s-5.4-9.2-7.1,7.7l-11,63.1,7.1,34s18.2,27,18.2,7.4C82.8,351.9,86,224.4,75.6,239.8Z" style="fill:#cddc4c"/><path d="M75.7,360a2.77,2.77,0,0,1-.9-.1c-39.4-13.7-7.3-122-5.9-126.6a2.64,2.64,0,0,1,3.1-2.1,2.57,2.57,0,0,1,2.1,3.1,1.42,1.42,0,0,1-.2.6,387,387,0,0,0-11.8,56.4C58.9,317,58.9,348.9,76.5,355a2.63,2.63,0,0,1,1.6,3.4,2.45,2.45,0,0,1-2.4,1.6Z" style="fill:#1a1a1a"/><polyline points="203.4 273.3 214.6 350.2 228.2 344.8 220.4 298.5" style="fill:#fff"/><path d="M178.7,201.4s19.5,31.3,40.4,94.1c4.1,12.3,6.1,31.9,10.4,46.1h0a80.18,80.18,0,0,0,12.2-56C236.1,248.2,220.6,192.9,178.7,201.4Z" style="fill:#cddc4c"/><polyline points="110.4 207.4 137.2 248.6 169.7 206.8" style="fill:#fcede1"/><path d="M101.5,200l-15.6,5.5s-2.5,42.9-10.1,70.4l-1,26.4s27.7-27.4,24-99.5" style="fill:#fff"/><path d="M191.6,183.6l6.5,23.4s4.2,31.1,15.1,45.7l7.2,45.8s-32-30.7-38.3-102.7" style="fill:#fff"/><path d="M209.7,310.8l-5.9-33.6s-19.1-51.3-21.1-79.8l-16,12-29.6,39.2s-29.6-46.4-32.3-44.1c0,0-9.8-10.1-6.8,8.8,0,0-2.7,62.7-23.5,91.9,0,0-1,50.1,5.3,64.9h140Z" style="fill:#fdeea4"/><path d="M232.8,355.1c-1.6-10.3-4-24.5-7.2-42.4-5.4-30.3-11.1-60.9-11.2-61.2a2.65,2.65,0,0,0-5.2,1c7.6,40.6,18.4,100,20.4,117.4h5.3C234.6,366.8,233.9,362.1,232.8,355.1Z" style="fill:#1a1a1a"/><path d="M81.4,274.5a2.61,2.61,0,0,0-5.2-.4c0,.4-3,37.2-.3,95.9h5.3C78.4,311.6,81.4,274.9,81.4,274.5Z" style="fill:#1a1a1a"/><path d="M134.1,249.6H134a2.37,2.37,0,0,1-1.9-1.1l-23.7-39.8a2.29,2.29,0,0,1,.8-3.2,2.38,2.38,0,0,1,3.2.8l22,36.9,32.4-41a2.37,2.37,0,0,1,3.9,2.7c0,.1-.1.1-.2.2L136,248.7A2.46,2.46,0,0,1,134.1,249.6Z" style="fill:#1a1a1a"/><line x1="125.6" y1="212.2" x2="128.5" y2="220.2" style="fill:none"/><path d="M128.5,222.2a2.05,2.05,0,0,1-1.9-1.3l-2.9-8a2,2,0,0,1,1.6-2.3,1.88,1.88,0,0,1,2.1,1l2.9,8a1.93,1.93,0,0,1-1.2,2.5c-.1,0-.4.1-.6.1Z" style="fill:#1a1a1a"/><path d="M184.1,295.5l-19.8,1.7c-3.4.3-6.4-2.5-6.7-6.2l-3-32.8,32-2.8,3,32.8C189.9,291.9,187.5,295.2,184.1,295.5Z" style="fill:#eed180"/><path d="M163.8,299.2c-4.2,0-7.8-3.5-8.2-8.1l-3-32.8a1.93,1.93,0,0,1,1.8-2.1l32-2.8a1.93,1.93,0,0,1,2.1,1.8l3,32.8a9.53,9.53,0,0,1-2,6.7,7.72,7.72,0,0,1-5.2,2.8l-19.8,1.7Zm-7-39.3,2.8,30.9c.2,2.7,2.3,4.7,4.6,4.5l19.8-1.7h0a4,4,0,0,0,2.6-1.4,4.79,4.79,0,0,0,1.1-3.8l-2.8-30.9Z" style="fill:#1a1a1a"/><polyline points="155.9 270.3 172.4 276.6 187.1 267.5" style="fill:#eed180"/><path d="M172.4,278.5a1.7,1.7,0,0,1-.7-.1l-16.5-6.3a2,2,0,1,1,.7-3.9,1.42,1.42,0,0,1,.6.2l15.6,6,13.8-8.6a2,2,0,0,1,2.6,3c-.2.1-.4.3-.6.4l-14.7,9.1C173.1,278.5,172.8,278.5,172.4,278.5Z" style="fill:#1a1a1a"/><path d="M121.8,258.3s1.3,62.7,7.2,95.1" style="fill:#f5bba8"/><path d="M128.9,355.4a1.93,1.93,0,0,1-1.9-1.6c-5.9-32.2-7.2-94.8-7.2-95.4a2,2,0,0,1,3.9-.7v.6c0,.6,1.4,62.9,7.2,94.8a2,2,0,0,1-1.6,2.3Z" style="fill:#1a1a1a"/><path d="M78.5,304.6a1.88,1.88,0,0,1-.8-.2,2,2,0,0,1-1-2.6c20.7-45.5,20.3-84,20.3-84.4a2,2,0,1,1,3.9-.7v.7c0,.4.4,39.8-20.7,86.1A1.66,1.66,0,0,1,78.5,304.6Z" style="fill:#1a1a1a"/><path d="M220.9,299.9a1.92,1.92,0,0,1-1.2-.4c-10.8-7.8-20.5-26.4-28.9-55.2a376.91,376.91,0,0,1-9.4-40.8,2,2,0,0,1,2-2,1.92,1.92,0,0,1,1.9,1.4c.1.8,12.6,76,36.8,93.4a1.94,1.94,0,0,1,.3,2.8A1.76,1.76,0,0,1,220.9,299.9Z" style="fill:#1a1a1a"/><circle cx="136.8" cy="277.2" r="6.4" style="fill:#fff"/><path d="M136.8,285.6a8.4,8.4,0,1,1,8.4-8.4,8.56,8.56,0,0,1-1.2,4.4,8.1,8.1,0,0,1-5.2,3.8A15,15,0,0,1,136.8,285.6Zm0-12.8a3.4,3.4,0,0,0-1,.1,4.5,4.5,0,0,0-3.3,5.3h0a4.35,4.35,0,0,0,5.3,3.2,4.43,4.43,0,0,0,3.2-5.3h0a4.3,4.3,0,0,0-4.2-3.3Z" style="fill:#1a1a1a"/><circle cx="139.1" cy="305.2" r="6.4" style="fill:#fff"/><path d="M139.1,313.6a8.4,8.4,0,1,1,8.4-8.4,8.25,8.25,0,0,1-6.4,8.1A6.45,6.45,0,0,1,139.1,313.6Zm0-12.8a4.1,4.1,0,0,0-1.1.1,4.38,4.38,0,1,0,5.3,3.2A4.21,4.21,0,0,0,139.1,300.8Z" style="fill:#1a1a1a"/><circle cx="142.4" cy="336.8" r="6.4" style="fill:#fff"/><path d="M142.4,345.2a8.37,8.37,0,1,1,8.1-10.4h0a8.39,8.39,0,0,1-6.1,10.1A7.47,7.47,0,0,1,142.4,345.2Zm0-12.8a3.4,3.4,0,0,0-1,.1,4.38,4.38,0,1,0,5.3,3.2h0a4.5,4.5,0,0,0-4.3-3.3Z" style="fill:#1a1a1a"/><path d="M231.8,352.8a2.58,2.58,0,0,1-2.6-2.6,2.66,2.66,0,0,1,1.1-2.2c43.9-30.2,7.2-112.3,6.8-113.1a2.59,2.59,0,1,1,4.6-2.4.35.35,0,0,0,.1.2,197.15,197.15,0,0,1,13.7,46.9c5.2,33.9-2.5,59-22.3,72.6A1.41,1.41,0,0,1,231.8,352.8Z" style="fill:#1a1a1a"/><ellipse cx="120.01" cy="13" rx="11.7" ry="10.4" transform="translate(-0.7 12.58) rotate(-5.98)" style="fill:#fff"/><path d="M119.7,26a15.16,15.16,0,0,1-8.7-2.7,12.61,12.61,0,0,1-5.3-8.8c-.8-7.2,5-13.6,12.9-14.5s14.9,4.3,15.6,11.5a12.33,12.33,0,0,1-3.3,9.7,14.7,14.7,0,0,1-9.6,4.7A8.6,8.6,0,0,1,119.7,26Zm.6-20.8h-1.1c-5,.5-8.7,4.4-8.2,8.7a7.12,7.12,0,0,0,3.1,5.1,10.06,10.06,0,0,0,13-1.4,7,7,0,0,0,2-5.6c-.4-3.9-4.2-6.8-8.8-6.8Z" style="fill:#1a1a1a"/><path d="M145,39.4s50.1-2.4,72.2,58.4l2.4,20.2,7.6,4.9,6.8,17.5-5.2,16.9,12.1,7.5-17.6,2.1-5.9,9.7-17.9-2-13.1,16.6-22.1,14.7Z" style="fill:#fff"/><path d="M205.9,121.8l-.4,38.9,11,3.7,9.7-5.5C226.2,159,231.4,116.1,205.9,121.8Z" style="fill:#fcede1"/><polyline points="68 142.3 51.5 142.2 39.7 151.1 42.3 174.1 58.4 186.4 71.6 186.8 78.4 181.3" style="fill:#fcede1"/><path d="M49.9,143.3l11.7-3.4-.1-13.5,6.9-12.5,12.1-25s9.3-6.1,11.9-6.4l2.4,6.3,66.4-8.5,2.6-4.5,7.7,3.5,13.8,20.6,16.9.3,4.2,18.1,13.3-4-6.5-27.8S189,67.4,181.4,59.2c-9.6-10.3-29.6-17-29.6-17l-14-3.2-34,5-27,13.7L54.4,84.1l-8.6,34Z" style="fill:#eab381"/><path d="M58.7,121s.6,72.7,46.3,86.4c0,0,48.1,22.8,80-22.2,0,0,20.3-24.6,4-82.8L172.1,76.3l-9.2.5-26.6,8-29.4,3.7-12.3.3-2.4-6.3S69.9,90,67.4,117.3C67.5,117.3,60.6,115.7,58.7,121Z" style="fill:#fcede1"/><ellipse cx="178.01" cy="151.21" rx="11.1" ry="9.8" transform="matrix(0.99, -0.15, 0.15, 0.99, -21.01, 28.97)" style="fill:#f2abb7"/><ellipse cx="96.3" cy="163.81" rx="11.1" ry="9.8" transform="translate(-23.9 16.64) rotate(-8.79)" style="fill:#f2abb7"/><path d="M135.7,148.9h-.2c-9.9-.6-12.4-7.5-12.4-11a2.65,2.65,0,0,1,2.6-2.6h0a2.65,2.65,0,0,1,2.6,2.6c0,.9.4,5.3,7.4,5.7a2.52,2.52,0,0,1,2.5,2.7,2.39,2.39,0,0,1-2.5,2.6Z" style="fill:#1a1a1a"/><path d="M213.3,167a15.58,15.58,0,0,1-8.8-2.8,2.66,2.66,0,0,1,3-4.4c7.3,5,15.6-1.7,16.8-2.8,11.4-14.3,1.8-30.9.8-32.6-2.8-3.2-5.9-4.9-9-5.1a11.68,11.68,0,0,0-7.8,2.6,2.62,2.62,0,1,1-3.5-3.9,16.94,16.94,0,0,1,11.6-4c4.6.3,8.9,2.7,12.8,7.1.1.1.1.2.2.3s13.5,21.1-1.1,39.1l-.3.3a26.16,26.16,0,0,1-7.3,4.5A17.42,17.42,0,0,1,213.3,167Z" style="fill:#1a1a1a"/><path d="M48.3,143.4a2.59,2.59,0,0,1-2.6-2.2c-.2-1.4-.5-2.9-.7-4.4-2.1-15.4-1.5-28.4,2-39.8,8.9-29.5,30.2-49.2,61.5-57a127.4,127.4,0,0,1,44.8-2.9C181,41,197.6,57.1,206.7,70a89.39,89.39,0,0,1,13.1,27.3v.1c.1.5,2.3,11.3,1.8,19.3a2.65,2.65,0,1,1-5.3-.3v-.1c.4-7-1.5-17.1-1.7-17.9-.4-1.7-13.3-49.4-62.1-56a126.25,126.25,0,0,0-42.9,2.8C79.9,52.7,60.5,70.6,52,98.6c-3.2,10.7-3.8,22.9-1.8,37.5.2,1.4.4,2.9.7,4.2a2.61,2.61,0,0,1-2.2,3C48.6,143.4,48.5,143.4,48.3,143.4Z" style="fill:#1a1a1a"/><path d="M208.1,132s6.5-6.5,11.5,1.3c0,0,8,21-10.4,18.7" style="fill:#ebb988"/><path d="M211.8,154.1a28.25,28.25,0,0,1-2.9-.2,2,2,0,0,1-.2-4,1.7,1.7,0,0,1,.7.1c4.1.5,7-.2,8.5-2.1,2.8-3.6,1-10.9,0-13.7q-1.65-2.55-3.6-2.7c-2-.2-4.1,1.4-4.7,1.9a2.07,2.07,0,0,1-2.8-.5,2,2,0,0,1,0-2.3c.1-.1,3.6-3.5,7.9-3.1,2.6.3,4.8,1.9,6.6,4.7.1.1.1.2.2.4.2.5,4.4,11.6-.4,17.8C219,152.9,215.9,154.1,211.8,154.1Z" style="fill:#1a1a1a"/><path d="M64.1,189.4a30.83,30.83,0,0,1-10.8-2c-.1,0-.2-.1-.3-.2-21.4-12.4-13.8-36.4-13.7-36.7,0-.1.1-.2.2-.4,6.5-13,17.6-12.2,22-11.2a2.59,2.59,0,0,1-.9,5.1h-.2c-4-.9-11.5-.9-16.2,8.2-.6,2.1-5.6,20.3,11.2,30.2,1.3.5,10.9,3.7,17.4-1a2.64,2.64,0,0,1,3.2,4.2.1.1,0,0,0-.1.1A18.63,18.63,0,0,1,64.1,189.4Z" style="fill:#1a1a1a"/><path d="M63.6,153.4c-2.7-.7-8.3-1.3-10.4,5.4,0,0-1.9,22.3,17.1,14.3" style="fill:#ebb988"/><path d="M62.9,176.8a10.56,10.56,0,0,1-6.2-1.9c-6.4-4.6-5.5-15.8-5.5-16.2a.6.6,0,0,1,.1-.4c1.8-5.8,6.6-8.3,12.8-6.7a2,2,0,1,1-1,3.8c-4-1.1-6.7.2-7.9,3.9-.2,2.8.2,9.8,3.9,12.5,2.3,1.7,5.9,1.5,10.5-.4a1.92,1.92,0,0,1,2.4,1.5,2,2,0,0,1-.9,2.2A28.53,28.53,0,0,1,62.9,176.8Z" style="fill:#1a1a1a"/><path d="M195.2,112.7a2.6,2.6,0,0,1-2.4-1.6c-9.6-21.3-17.5-25.9-17.6-25.9a2.64,2.64,0,0,1,2.2-4.8c.1,0,.1.1.2.1,1,.5,9.6,5.5,20,28.4a2.67,2.67,0,0,1-1.3,3.5A2,2,0,0,1,195.2,112.7Z" style="fill:#1a1a1a"/><path d="M132.8,215.1a90.51,90.51,0,0,1-24.3-3.1c-20.8-5.8-36.2-23.8-44.8-52.2a164.05,164.05,0,0,1-6.6-41.1,2.73,2.73,0,0,1,2.6-2.7h.1a2.65,2.65,0,0,1,2.6,2.6c0,.8,1.5,75.6,47.5,88.2h.1c.4.1,42.7,13.1,74.9-16.6a2.57,2.57,0,0,1,3.7.3,2.63,2.63,0,0,1-.1,3.6C170.2,211.1,148.8,215.1,132.8,215.1Z" style="fill:#1a1a1a"/><path d="M67.7,118.8h-.3a2.66,2.66,0,0,1-2.3-2.9v-.1a47.77,47.77,0,0,1,16.5-30A2.64,2.64,0,0,1,84.8,90h0a43.07,43.07,0,0,0-14.5,26.5A2.59,2.59,0,0,1,67.7,118.8Z" style="fill:#1a1a1a"/><ellipse cx="164.7" cy="125.09" rx="9.7" ry="11.6" transform="translate(-14.89 22.51) rotate(-7.48)" style="fill:#1a1a1a"/><path d="M159.4,123.3H159c-.3-.1-8.1-1.4-10.6-8.9a2.35,2.35,0,0,1,1.5-3,2.31,2.31,0,0,1,3,1.5c1.6,4.8,6.7,5.7,6.9,5.8a2.4,2.4,0,0,1,1.9,2.8,2.37,2.37,0,0,1-2.3,1.8Z" style="fill:#1a1a1a"/><ellipse cx="98.91" cy="133.8" rx="9.7" ry="11.6" transform="translate(-16.41 13.85) rotate(-7.4)" style="fill:#1a1a1a"/><path d="M93.5,131.4h-.4c-.3,0-8.1-1.4-10.6-8.9A2.37,2.37,0,0,1,87,121c1.6,4.8,6.7,5.7,6.9,5.8a2.4,2.4,0,0,1,1.9,2.8,2.37,2.37,0,0,1-2.3,1.8Z" style="fill:#1a1a1a"/><path d="M134.8,11.6S60.1,5.2,47.7,86.7c0,0-19.3,7.1-16.3,26.4,0,0,91.7-27.9,202.8-31,0,0-11.6-15.5-29.4-22.3C204.7,59.8,189.5,9.1,134.8,11.6Z" style="fill:#fff"/><path d="M122.5,14.4S60.2,5.1,47.8,86.6c0,0-19.3,7.1-16.3,26.4,0,0,71-27.4,182.1-30.5,0,0-2.1-9.9-19.9-16.7C193.6,65.9,177.1,12,122.5,14.4Z" style="fill:#ddcbba"/><path d="M154.8,45.7a1.92,1.92,0,0,1-1.8-1.3c-7.6-19.9-16.5-23.7-16.6-23.7a2,2,0,1,1,1.5-3.7c.4.2,10.6,4.5,18.8,26a2.08,2.08,0,0,1-1.2,2.6c-.2,0-.4.1-.7.1Z" style="fill:#1a1a1a"/><path d="M91.6,52.1a1.92,1.92,0,0,1-2-1.9c-.4-15.6,9.3-27.2,9.7-27.6a2,2,0,1,1,3.4,2,1.21,1.21,0,0,1-.5.5h0c-.1.1-9.1,11-8.7,25a1.92,1.92,0,0,1-1.9,2Z" style="fill:#1a1a1a"/><path d="M105.8,55.4s-35,6.7-54.6,12.8L45.7,86.6s47.6-16.5,66.4-16.2" style="fill:#a18f7e"/><path d="M136.6,51.4s35.4-3.9,55.9-3.8l10.6,16s-50.3-1.8-68.2,4.1" style="fill:#a18f7e"/><path d="M51.2,70.2a2.08,2.08,0,0,1-1.9-2.1,2,2,0,0,1,1.1-1.7c.4-.2,46.3-18.6,150.4-21.2a1.92,1.92,0,0,1,2,1.9,2,2,0,0,1-1.9,2C97.6,51.7,52.4,69.8,51.9,70A1.85,1.85,0,0,1,51.2,70.2Z" style="fill:#1a1a1a"/><path d="M45.7,88.5a2.08,2.08,0,0,1-1.9-2.1A2,2,0,0,1,45,84.7c.5-.2,55.8-21.2,163.5-23.5a2,2,0,1,1,.7,3.9h-.7c-107,2.3-161.6,23-162.2,23.3A.61.61,0,0,1,45.7,88.5Z" style="fill:#1a1a1a"/><circle cx="124.3" cy="56.3" r="20.1" style="fill:#bfbfbf"/><path d="M124.3,79a22.68,22.68,0,1,1,3.7-.3A22.18,22.18,0,0,1,124.3,79Zm0-40.1a26.35,26.35,0,0,0-2.8.2,17.43,17.43,0,1,0,20,14.4h0a17.33,17.33,0,0,0-17.2-14.6Z" style="fill:#1a1a1a"/><circle cx="124.1" cy="55.9" r="9.2" style="fill:#fff"/><path d="M124.1,67.1A11.15,11.15,0,1,1,135.3,56a11.59,11.59,0,0,1-11.2,11.1Zm0-18.5a4.87,4.87,0,0,0-1.2.1,7.24,7.24,0,0,0-6,8.3,7.31,7.31,0,0,0,8.3,6,7.24,7.24,0,0,0,6-8.3h0a7.2,7.2,0,0,0-7.1-6.1Z" style="fill:#1a1a1a"/><path d="M29.4,115.6a2.58,2.58,0,0,1-2.6-2.6v-.3A39.22,39.22,0,0,1,43.3,85.1c5.5-34.5,23.7-52.7,38.1-62,15.3-9.9,29.3-11.9,30.6-12,23.6-4.3,56.7-4.2,80.6,20a76.41,76.41,0,0,1,18.2,30.1c17.8,7.4,23.5,18.9,23.7,19.4a2.63,2.63,0,0,1-1.2,3.5,3.81,3.81,0,0,1-1,.3C156.9,88,106,96.2,76.5,102.5c-31.8,6.8-45.8,12.8-46,12.9A4.25,4.25,0,0,1,29.4,115.6Zm106-101.5a120.85,120.85,0,0,0-22.5,2.2h-.2A75.23,75.23,0,0,0,84,27.7C64.3,40.5,52.3,60.4,48.3,87A2.59,2.59,0,0,1,47,88.9a34.88,34.88,0,0,0-14.2,20c15.7-5.7,73.5-23.4,194.5-29.5-3-3.7-9-9.5-19.7-13.7a2.62,2.62,0,0,1-1.6-1.8,69.52,69.52,0,0,0-17.3-29.2C175.2,21,157.3,14.1,135.4,14.1Z" style="fill:#1a1a1a"/><path d="M209,30a10.68,10.68,0,0,0-1.3-7c-2.6-4.7-7.8-6.7-11.6-4.6-2.8,1.5-4,4.9-3.5,8.4a20.42,20.42,0,0,0-12,6.7c-2.7-2.3-6.2-3-9-1.4-3.8,2.1-4.8,7.6-2.2,12.2a11,11,0,0,0,5.3,4.7,20.66,20.66,0,0,0,2.5,9.1c5.7,10.2,18.8,13.6,29.3,7.7s14.5-18.9,8.8-29A18.59,18.59,0,0,0,209,30Z" style="fill:#fff"/><path d="M195.7,70.7a22.9,22.9,0,0,1-20.1-11.6,20.89,20.89,0,0,1-2.6-8.7,13.86,13.86,0,0,1-5.1-5.1,12.28,12.28,0,0,1-1.5-8.4,8.9,8.9,0,0,1,4.5-6.6,9.41,9.41,0,0,1,9.7.6,22,22,0,0,1,10.1-5.6,9.63,9.63,0,0,1,4.6-8.6c4.7-2.6,11.1-.2,14.2,5.4a13.22,13.22,0,0,1,1.7,7,21.67,21.67,0,0,1,6,6.8A22.15,22.15,0,0,1,219,53.5a23.7,23.7,0,0,1-11.4,14A24.14,24.14,0,0,1,195.7,70.7ZM175,33.2a4.65,4.65,0,0,0-2.3.6,5.05,5.05,0,0,0-2.5,3.8,9.14,9.14,0,0,0,5.4,9.7,2,2,0,0,1,1.2,1.8,19.26,19.26,0,0,0,2.2,8.2c5.1,9.2,17.1,12.3,26.6,7a20.18,20.18,0,0,0,9.6-11.8,18.57,18.57,0,0,0-1.5-14.6,18.11,18.11,0,0,0-5.8-6.2,1.9,1.9,0,0,1-.8-2,8.51,8.51,0,0,0-1.1-5.6c-2.1-3.7-6.1-5.4-8.9-3.8-1.9,1.1-2.9,3.6-2.5,6.4a2,2,0,0,1-1.6,2.2,21.42,21.42,0,0,0-6,2.1,21,21,0,0,0-4.9,4,2,2,0,0,1-2.7.2,6.42,6.42,0,0,0-4.4-2Z" style="fill:#1a1a1a"/><path d="M204.4,33.3a11.24,11.24,0,0,0-1.5-6.7c-2.5-4.6-6.8-5.3-10-3.5-2.4,1.3-.8,1.2-.2,4.5-2,.3-6.9,2.7-8.7,3.7s-3,1.4-4.3,2.9a7.23,7.23,0,0,0-8.4-.8c-3.3,1.8-3.9,7-1.3,11.6a11.36,11.36,0,0,0,4.9,4.8,22.11,22.11,0,0,0,2.7,8.7c5.5,9.9,17.4,13.9,26.5,8.8s12-17.2,6.4-27.2A20.93,20.93,0,0,0,204.4,33.3Z" style="fill:#cddc4c"/><path d="M195.7,70.7a22.9,22.9,0,0,1-20.1-11.6,20.89,20.89,0,0,1-2.6-8.7,13.86,13.86,0,0,1-5.1-5.1,12.28,12.28,0,0,1-1.5-8.4,8.9,8.9,0,0,1,4.5-6.6,9.41,9.41,0,0,1,9.7.6,22,22,0,0,1,10.1-5.6,9.63,9.63,0,0,1,4.6-8.6c4.7-2.6,11.1-.2,14.2,5.4a13.22,13.22,0,0,1,1.7,7,21.67,21.67,0,0,1,6,6.8A22.15,22.15,0,0,1,219,53.5a23.7,23.7,0,0,1-11.4,14A24.14,24.14,0,0,1,195.7,70.7ZM175,33.2a4.65,4.65,0,0,0-2.3.6,5.05,5.05,0,0,0-2.5,3.8,9.14,9.14,0,0,0,5.4,9.7,2,2,0,0,1,1.2,1.8,19.26,19.26,0,0,0,2.2,8.2c5.1,9.2,17.1,12.3,26.6,7a20.18,20.18,0,0,0,9.6-11.8,18.57,18.57,0,0,0-1.5-14.6,18.11,18.11,0,0,0-5.8-6.2,1.9,1.9,0,0,1-.8-2,8.51,8.51,0,0,0-1.1-5.6c-2.1-3.7-6.1-5.4-8.9-3.8-1.9,1.1-2.9,3.6-2.5,6.4a2,2,0,0,1-1.6,2.2,21.42,21.42,0,0,0-6,2.1,21,21,0,0,0-4.9,4,2,2,0,0,1-2.7.2,6.42,6.42,0,0,0-4.4-2Z" style="fill:#1a1a1a"/><path d="M193.2,55.7a29.77,29.77,0,0,1-6.6-.8,1.88,1.88,0,0,1-1.7-2.2,1.93,1.93,0,0,1,2.2-1.7,1.42,1.42,0,0,1,.6.2c.2,0,7.8,2.1,12.3-1.1,2-1.5,3.1-3.8,3.3-7.2a1.92,1.92,0,0,1,2-1.9h.1a2.08,2.08,0,0,1,1.9,2.1c-.2,4.6-1.9,8-4.9,10.2A16.92,16.92,0,0,1,193.2,55.7Z" style="fill:#1a1a1a"/><ellipse cx="177.02" cy="40.82" rx="3.7" ry="4.6" transform="translate(2.54 91.4) rotate(-29.15)" style="fill:#1a1a1a"/><ellipse cx="200.71" cy="27.6" rx="3.7" ry="4.5" transform="translate(11.98 101.26) rotate(-29.15)" style="fill:#1a1a1a"/><ellipse cx="185.58" cy="53.32" rx="3.4" ry="4.2" transform="translate(-2.46 97.15) rotate(-29.15)" style="fill:#1a1a1a"/><ellipse cx="206.72" cy="41.62" rx="3.4" ry="4.2" transform="translate(5.91 105.97) rotate(-29.15)" style="fill:#1a1a1a"/><path d="M148.9,154.5s5.9,30-4.6,35c0,0-12.1,4.7-15.4-14.5,0,0-1.3-13.4-4.7-17.1" style="fill:#ef8b6e"/><path d="M141.1,192.4a12,12,0,0,1-5.9-1.5c-4.4-2.5-7.3-7.7-8.7-15.4v-.2c-.5-5.2-2.1-13.6-4-15.7a2.4,2.4,0,1,1,3.4-3.4c.1.1.1.1.1.2,3.7,4,5,15.8,5.3,18.4,1.1,6.2,3.3,10.3,6.3,12.1a7.38,7.38,0,0,0,5.8.6c3.3-1.7,5-7.7,4.8-17.1a99.29,99.29,0,0,0-1.6-15.3,2.35,2.35,0,1,1,4.6-1v.1c.6,3.2,5.9,31.9-5.9,37.6l-.2.1A16.84,16.84,0,0,1,141.1,192.4Zm3.2-2.9Z" style="fill:#1a1a1a"/><path d="M129.7,160.7c-9,0-13.5-3.5-13.8-3.8a2.34,2.34,0,1,1,3-3.6h0c.1.1,2.6,2,7.7,2.6,4.8.6,13,0,24.6-5.7a2.35,2.35,0,1,1,2.3,4.1c-.1,0-.2.1-.3.1C143.4,159.2,135.6,160.7,129.7,160.7Z" style="fill:#1a1a1a"/><path d="M145.7,104.5a2.58,2.58,0,0,1-2.6-2.6,2.54,2.54,0,0,1,1.4-2.3l14.8-7.9a2.64,2.64,0,1,1,2.6,4.6c-.1,0-.1.1-.2.1l-14.8,7.9A4.3,4.3,0,0,1,145.7,104.5Z" style="fill:#1a1a1a"/><path d="M105.7,111.8a2,2,0,0,1-.8-.1l-15.2-5a2.62,2.62,0,0,1,1.6-5l15.2,5a2.66,2.66,0,0,1,1.7,3.3A2.82,2.82,0,0,1,105.7,111.8Z" style="fill:#1a1a1a"/><path d="M43.4,266.5,13.5,306.3c1.9,22.7,29.8,24,29.8,24l17.5-11L73,292.9C63.3,283,57.1,269.6,43.4,266.5Z" style="fill:#fbebdf"/><path d="M86.2,209c-14.9,2-39.6,53.2-39.6,53.2l-3.2,4.2c13.7,3.1,19.9,16.5,29.6,26.4l2.8-6C77.8,275.2,86.2,209,86.2,209Z" style="fill:#fdeea4"/><path d="M3.3,288.3c3.6,17.6,11.4,31.3,26.3,30.2,9.5-.7,20.2-7.9,23.1-14.6a8.51,8.51,0,0,0-1.5-9c-1.1-1.2,3.1-3.9,3.7-8.3,1.9-15.2-11-36.2-29.7-30.9C10.7,259.9-.2,271.3,3.3,288.3Z" style="fill:#fbebdf"/><path d="M28,321.3c-9.8,0-21.9-6-27.3-32.4-3.4-16.5,5.9-30.5,23.7-35.6A22.71,22.71,0,0,1,46,258.2c8,6.8,12.7,18.7,11.4,28.9a14.92,14.92,0,0,1-3.1,6.9l-.3.4A10.87,10.87,0,0,1,55.1,305c-3.3,7.9-15.2,15.5-25.3,16.2C29.2,321.2,28.6,321.3,28,321.3Zm3-63.8a22.36,22.36,0,0,0-5.1.7c-11.9,3.4-23.4,13-20,29.5h0c4,19.5,11.9,29,23.5,28.1,8.9-.6,18.5-7.5,20.9-13a5.86,5.86,0,0,0-1-6.2c-1.9-2.1-.2-4.5.8-5.9a10.55,10.55,0,0,0,2.2-4.5c1-8.4-3-18.6-9.6-24.3A19.22,19.22,0,0,0,31,257.5Z" style="fill:#1a1a1a"/><ellipse cx="49.8" cy="269.49" rx="10.1" ry="14" transform="translate(-52.5 15.25) rotate(-11.45)" style="fill:#fbebdf"/><path d="M51.1,286c-6.2,0-12.2-5.8-13.8-14h0a19.39,19.39,0,0,1,1.1-11.9,11.34,11.34,0,0,1,8.1-6.9c6.9-1.4,14,4.8,15.8,13.8a19.39,19.39,0,0,1-1.1,11.9,11.34,11.34,0,0,1-8.1,6.9A13.55,13.55,0,0,1,51.1,286Zm-2.6-27.8a3.4,3.4,0,0,0-1,.1,6.17,6.17,0,0,0-4.3,4,15.27,15.27,0,0,0-.8,8.7h0c1.2,6,5.6,10.5,9.6,9.7a6.17,6.17,0,0,0,4.3-4,15.27,15.27,0,0,0,.8-8.7C56,262.4,52.2,258.2,48.5,258.2Z" style="fill:#1a1a1a"/><line x1="43.2" y1="298.4" x2="32" y2="303.2" style="fill:none"/><path d="M32,305.2a2.08,2.08,0,0,1-1.9-2.1,2.17,2.17,0,0,1,1.1-1.7l11.1-4.8a1.92,1.92,0,0,1,2.4,1.5,1.82,1.82,0,0,1-.9,2.1l-11,4.8A1.88,1.88,0,0,1,32,305.2Z" style="fill:#1a1a1a"/><line x1="38" y1="284.4" x2="26.5" y2="289.1" style="fill:none"/><path d="M26.5,291.1a2.08,2.08,0,0,1-1.9-2.1,2,2,0,0,1,1.1-1.7l11.5-4.8a1.92,1.92,0,0,1,2.4,1.5,2.17,2.17,0,0,1-.9,2.2l-11.5,4.7A1.17,1.17,0,0,1,26.5,291.1Z" style="fill:#1a1a1a"/><line x1="31.8" y1="269.8" x2="22.4" y2="274.1" style="fill:none"/><path d="M22.4,276.1a2.08,2.08,0,0,1-1.9-2.1,2,2,0,0,1,1.1-1.7L31,268a2,2,0,1,1,2.3,3.3l-.6.3-9.4,4.3A2.92,2.92,0,0,1,22.4,276.1Z" style="fill:#1a1a1a"/><path d="M50.5,257.7a2.68,2.68,0,0,1-2.4-3.8h0c18.4-36.3,41.3-54,42.3-54.7a2.63,2.63,0,1,1,3.3,4.1l-.1.1c-.2.2-22.9,17.8-40.8,52.9A2.44,2.44,0,0,1,50.5,257.7Z" style="fill:#1a1a1a"/><path d="M38.7,333c-12.6,0-22.2-10.2-23.6-15.4a2.6,2.6,0,0,1,5-1.4c.8,3,8.4,11.5,18.6,11.5h.1c15.2-.1,28.4-19.6,37.4-54.9a2.65,2.65,0,1,1,5.2,1,.37.37,0,0,1-.1.3C69,322.7,51.4,332.9,38.8,333Z" style="fill:#1a1a1a"/><path d="M80.1,258.6a1.89,1.89,0,0,1-1.9-2.1,1.27,1.27,0,0,1,.1-.6c5.2-14.3,5.2-37.1,5.2-37.4a2,2,0,0,1,4,0c0,1,.1,23.8-5.4,38.7A2,2,0,0,1,80.1,258.6Z" style="fill:#1a1a1a"/><path d="M71.1,296a2.5,2.5,0,0,1-2.4-1.6A38.37,38.37,0,0,0,62.3,284a2.62,2.62,0,1,1,3.7-3.7.35.35,0,0,1,.1.2,46.57,46.57,0,0,1,7.5,12,2.66,2.66,0,0,1-1.4,3.4h0A4.91,4.91,0,0,1,71.1,296Z" style="fill:#1a1a1a"/><path d="M72.1,275.3a2.09,2.09,0,0,1-1.6-.8,31.85,31.85,0,0,0-5.8-5.8,2,2,0,0,1,1.7-3.7,1,1,0,0,1,.5.4,34.38,34.38,0,0,1,6.6,6.6,2,2,0,0,1-.4,2.8A1,1,0,0,1,72.1,275.3Z" style="fill:#e0bb52"/><path d="M259.4,75.5s-45.8,67.6-35.9,75.5c0,0,15.9,20.5,31.2,7.5l43.8-69" style="fill:#fcede1"/><path d="M217.9,141.7s8.4,25.6,35.4,21.5l-40.5,64.2-1.5,23.4-1.9-.4-17.8-60.1Z" style="fill:#fdeea4"/><path d="M307.8,46.4c13.5,14.1,20.9,29.6,10.7,42.3-6.5,8.1-19.6,13.2-27.4,11.5a9.27,9.27,0,0,1-7.1-6.9c-.4-1.7-5.4.4-9.7-1.9-14.7-7.7-25.5-32.4-9.2-45.7C277.8,35.4,294.7,32.7,307.8,46.4Z" style="fill:#fff"/><path d="M294.3,103.2a16.37,16.37,0,0,1-3.8-.4,11.75,11.75,0,0,1-8.7-7.6H281a15.89,15.89,0,0,1-8-1.5c-9.8-5.2-17.5-16.7-18.6-28a24.66,24.66,0,0,1,9-22.1c15.5-12.7,33.6-12.3,46.2.9h0c21.4,22.4,17.7,37.2,10.9,45.8C314.6,97.8,303.2,103.2,294.3,103.2ZM281.7,89.9c1.9,0,4.3.2,4.9,2.8a6.56,6.56,0,0,0,5.1,4.9c6.4,1.4,18.7-3,24.8-10.6,8-10,4.5-23.1-10.6-38.8-12.8-13.4-28.6-9-39.1-.5a19,19,0,0,0-7.1,17.5c1,9.5,7.6,19.5,15.9,23.8a12.75,12.75,0,0,0,5.5.9Z" style="fill:#1a1a1a"/><path d="M299.5,52.1c13.8,13.7,25.3,30.4,17,40.8-5.3,6.6-17,10-24.4,7.8a11.08,11.08,0,0,1-7.2-6.8c-.5-1.6-4.9-.2-9.2-2.6-14.3-8.2-26.6-31-12.6-41.5C273.9,42,286.2,38.8,299.5,52.1Z" style="fill:#fcede1"/><path d="M294.3,103.2a16.37,16.37,0,0,1-3.8-.4,11.75,11.75,0,0,1-8.7-7.6H281a15.89,15.89,0,0,1-8-1.5c-9.8-5.2-17.5-16.7-18.6-28a24.66,24.66,0,0,1,9-22.1c15.5-12.7,33.6-12.3,46.2.9h0c21.4,22.4,17.7,37.2,10.9,45.8C314.6,97.8,303.2,103.2,294.3,103.2ZM281.7,89.9c1.9,0,4.3.2,4.9,2.8a6.56,6.56,0,0,0,5.1,4.9c6.4,1.4,18.7-3,24.8-10.6,8-10,4.5-23.1-10.6-38.8-12.8-13.4-28.6-9-39.1-.5a19,19,0,0,0-7.1,17.5c1,9.5,7.6,19.5,15.9,23.8a12.75,12.75,0,0,0,5.5.9Z" style="fill:#1a1a1a"/><ellipse cx="262.11" cy="76.32" rx="11" ry="15.3" transform="translate(20.07 202.57) rotate(-43.78)" style="fill:#fbebdf"/><path d="M266.3,92.3a12.65,12.65,0,0,1-2.8-.3,21.33,21.33,0,0,1-11.2-6.3c-6.8-7.1-8-17.1-2.5-22.3s15.4-3.6,22.2,3.5h0a21.59,21.59,0,0,1,5.9,11.5,12.51,12.51,0,0,1-3.3,10.9A12,12,0,0,1,266.3,92.3Zm-8.4-26.8a6.1,6.1,0,0,0-4.5,1.6c-3.3,3.1-2,10,2.7,14.9a16.19,16.19,0,0,0,8.4,4.8c2.6.5,4.9,0,6.4-1.5a7.06,7.06,0,0,0,1.7-6.3,16.92,16.92,0,0,0-4.4-8.6c-3.1-3.1-7-4.9-10.3-4.9Z" style="fill:#1a1a1a"/><line x1="292.1" y1="88.3" x2="303.3" y2="81.3" style="fill:none"/><path d="M292.1,90.3a2.08,2.08,0,0,1-1.9-2.1,1.86,1.86,0,0,1,.9-1.5l11.2-7a2,2,0,0,1,2.6,1.1,2.18,2.18,0,0,1-.5,2.3l-11.2,7A4.25,4.25,0,0,1,292.1,90.3Z" style="fill:#1a1a1a"/><line x1="282.8" y1="75" x2="294.1" y2="67.7" style="fill:none"/><path d="M282.8,77a2,2,0,0,1-1.9-2.1,1.76,1.76,0,0,1,.8-1.5l11.4-7.3a2,2,0,1,1,2.7,2.9,2.09,2.09,0,0,1-.6.4l-11.4,7.3A1.93,1.93,0,0,1,282.8,77Z" style="fill:#1a1a1a"/><line x1="273.6" y1="60.4" x2="283.3" y2="54.7" style="fill:none"/><path d="M273.6,62.4a2,2,0,0,1-1.9-2.1,2.2,2.2,0,0,1,.9-1.6l9.6-5.7a2,2,0,1,1,2.6,3,2.09,2.09,0,0,1-.6.4l-9.6,5.7A1.69,1.69,0,0,1,273.6,62.4Z" style="fill:#1a1a1a"/><path d="M211.8,254.9a2.59,2.59,0,0,1-2.6-2.2c-2.9-16.9,4.6-33.6,4.9-34.3,0-.1.1-.2.2-.3L288.9,98.7a2.64,2.64,0,0,1,4.6,2.6c0,.1-.1.1-.1.2L218.9,220.7c-.7,1.6-6.9,16.6-4.4,31a2.61,2.61,0,0,1-2.1,3A.85.85,0,0,1,211.8,254.9Z" style="fill:#1a1a1a"/><line x1="253.8" y1="86.3" x2="203.5" y2="168.3" style="fill:none"/><path d="M203.5,170.9a2.3,2.3,0,0,1-1.4-.4,2.73,2.73,0,0,1-.9-3.6h0l50.3-82a2.62,2.62,0,0,1,4.5,2.7l-50.3,82A2.41,2.41,0,0,1,203.5,170.9Z" style="fill:#1a1a1a"/><path d="M247.4,166.9c-7.7,0-15.3-3.3-21.9-9.6a48.2,48.2,0,0,1-8.2-10.4,2.31,2.31,0,0,1,1.1-3.1,2.37,2.37,0,0,1,3,.9h0a44.44,44.44,0,0,0,7.4,9.4c6.2,5.9,12.9,8.6,20,8.2a2.35,2.35,0,1,1,.3,4.7A9.15,9.15,0,0,0,247.4,166.9Z" style="fill:#1a1a1a"/><path d="M186.7,194.9a2.58,2.58,0,0,1-2.6-2.6,2.73,2.73,0,0,1,.8-1.9,83.8,83.8,0,0,0,9.8-10.8c.1-.1.1-.2.2-.2.2-.2,19.6-22,3.6-77.7a2.54,2.54,0,0,1,1.7-3.3,2.62,2.62,0,0,1,3.3,1.7c0,.1,0,.1.1.2,16.5,57.4-2.8,80.6-4.7,82.6a85.55,85.55,0,0,1-10.3,11.4A3.29,3.29,0,0,1,186.7,194.9Z" style="fill:#1a1a1a"/><path d="M205.2,239.4a2,2,0,0,1-1.9-1.6c-3.6-17.8-10.8-40.7-10.8-40.9a2,2,0,1,1,3.6-1.8,1.45,1.45,0,0,1,.2.7c.1.2,7.3,23.3,10.9,41.3a2,2,0,0,1-1.5,2.3Z" style="fill:#1a1a1a"/><path d="M235.2,174.6c-13.4,0-19.7-11.5-19.9-12a2,2,0,0,1,3.5-1.8h0c.2.5,6.1,10.9,18.2,9.9a1.93,1.93,0,0,1,1.8,2.1,2,2,0,0,1-1.5,1.8A14.72,14.72,0,0,0,235.2,174.6Z" style="fill:#e0bb52"/></svg>