<svg id="圖層_1" data-name="圖層 1" xmlns="http://www.w3.org/2000/svg" viewBox="0 0 356.5 443.3"><title>avatar</title><path d="M274.4,270.3,294,357.8s0,51.5-16.5,69l-37.1.9-17.5-212,30.3-3.2Z" style="fill:#fff"/><polyline points="138.8 246.9 168.7 296.9 209.1 248.8" style="fill:#fcede1"/><path d="M111.1,250.1l-7,9s4.6,12-6.4,30.6l-5.3,68.2s30.2-24.4,29-110.2" style="fill:#fff"/><path d="M241.6,220.8l7.5,8.6s-2.6,37.4,9.6,55.2l9.6,67.7S234.2,318.6,230,233" style="fill:#fff"/><path d="M90.6,282.8s-6-11.2-8.8,8.8L66,365.9l7,40.6s20.3,32.8,21.3,9.5C94.3,416.1,103.6,265.1,90.6,282.8Z" style="fill:#cddc4c"/><path d="M259,276.4s-1.6-34.2-4.4-14.3l8.7,77.8,14.2,86.9s13.2-13.4,14.1-36.7C291.6,390.1,272,258.7,259,276.4Z" style="fill:#cddc4c"/><path d="M132.3,243.2s-11.2-12.4-8.5,10.1c0,0-6,74.2-31.8,107.9,0,0-2.8,64.3,9,67.4,0,0,80.2,22.1,139.4-.8,0,0,3.2,2.8,17.3-5.6l-.8-8.2L252,374l-5.2-53.5s-19.2-62.2-17.9-82.2l-23.4,13.6-35.3,41.2C170.2,292.9,135.7,240.7,132.3,243.2Z" style="fill:#fdeea4"/><path d="M170.4,443.3a217,217,0,0,1-24.3-1.4c-32.2-3.8-51.9-13.8-52.7-14.2a3.13,3.13,0,1,1,2.8-5.6c.3.2,19.8,9.9,50.9,13.6,28.7,3.4,73.6,2.1,123.9-23.4a3.13,3.13,0,1,1,2.8,5.6C234.5,437.7,198.4,443.3,170.4,443.3Z" style="fill:#1a1a1a"/><path d="M170.4,294.8h-.2a2.57,2.57,0,0,1-2.1-1.2l-31.6-45.1a2.8,2.8,0,0,1,4.6-3.2l29.6,42.2L207,246.9a2.83,2.83,0,0,1,4.2,3.8l-38.7,43.2A2.72,2.72,0,0,1,170.4,294.8Z" style="fill:#1a1a1a"/><path d="M160.1,265.2a2.25,2.25,0,0,1-2.2-1.6l-3.1-9.7a2.31,2.31,0,1,1,4.4-1.4l3.1,9.7a2.32,2.32,0,0,1-1.5,2.9A1.7,1.7,0,0,1,160.1,265.2Z" style="fill:#1a1a1a"/><circle cx="169.6" cy="325.8" r="7.6" style="fill:#fff"/><path d="M169.6,335.7a9.9,9.9,0,0,1,0-19.8,9.9,9.9,0,0,1,0,19.8Zm0-15.2a5.2,5.2,0,0,0,0,10.4,5.29,5.29,0,0,0,5.2-5.2A5.23,5.23,0,0,0,169.6,320.5Z" style="fill:#1a1a1a"/><circle cx="171.1" cy="364" r="7.6" style="fill:#fff"/><path d="M171.1,373.9A9.9,9.9,0,1,1,181,364,9.92,9.92,0,0,1,171.1,373.9Zm0-15.1a5.23,5.23,0,0,0-5.2,5.2,5.2,5.2,0,1,0,10.4,0A5.23,5.23,0,0,0,171.1,358.8Z" style="fill:#1a1a1a"/><path d="M151.1,315.1s.3,66.9,5.9,105.6" style="fill:#f5bba8"/><path d="M156.9,423.1a2.35,2.35,0,0,1-2.3-2c-5.5-38.5-5.9-105.3-5.9-105.9a2.26,2.26,0,0,1,2.3-2.3h0a2.26,2.26,0,0,1,2.3,2.3c0,.7.4,67.1,5.8,105.3a2.23,2.23,0,0,1-2,2.6Z" style="fill:#1a1a1a"/><path d="M95,358.6a2,2,0,0,1-1.1-.3,2.41,2.41,0,0,1-.9-3.2c33.3-59.1,26.8-107.8,26.7-108.2a2.32,2.32,0,1,1,4.6-.6c.3,2,6.8,50.6-27.3,111.2A2.55,2.55,0,0,1,95,358.6Z" style="fill:#1a1a1a"/><path d="M262.5,343.3a2.39,2.39,0,0,1-1.4-.5c-12.5-9.7-22-29.9-28.2-59.9a313.38,313.38,0,0,1-5.7-41.9,2.35,2.35,0,0,1,4.7-.3c0,.8,4.3,76.7,32.1,98.4a2.37,2.37,0,0,1,.4,3.3A2.46,2.46,0,0,1,262.5,343.3Z" style="fill:#1a1a1a"/><path d="M94.7,428a2,2,0,0,1-.8-.1c-9.9-2.8-17.5-9.1-22.6-18.7-8.9-17-9.9-44.3-3-81a391.4,391.4,0,0,1,12.9-49.7,3.13,3.13,0,0,1,5.9,2.1c-.3.9-30.1,87.9-10.2,125.8,4.3,8.2,10.4,13.3,18.7,15.6a3.16,3.16,0,0,1,2.2,3.8A3.25,3.25,0,0,1,94.7,428Z" style="fill:#1a1a1a"/><path d="M285.7,423.9a2.3,2.3,0,0,1-1.4-.4,3.13,3.13,0,0,1-1.3-4.2c21.4-40.9-3.2-115.9-3.4-116.7a3.1,3.1,0,1,1,5.9-1.9,281.54,281.54,0,0,1,10.1,44.1c4.9,33.1,2.5,59.2-7.1,77.4A3.42,3.42,0,0,1,285.7,423.9Z" style="fill:#1a1a1a"/><polygon points="203 336.4 187.8 331.3 219 236.5 234.2 241.5 203 336.4" style="fill:#ef8519"/><path d="M204.4,339.2,185,332.8l32.6-99.1,19.4,6.4Zm-13.8-9.3,11,3.6,29.8-90.7-11-3.6Z" style="fill:#1a1a1a"/><polygon points="146.4 336.4 161.6 331.3 131.8 242 117.4 248.7 146.4 336.4" style="fill:#ef8519"/><path d="M145,339.2l-30.4-91.6L133,239l31.3,93.8Zm-24.9-89.3,27.7,83.7,11-3.6-28.3-84.9Z" style="fill:#1a1a1a"/><path d="M60.7,324s29.7,30.5,23.6,41.1L69.8,385.7,55.3,397.1l-15.2,3S18.8,389.5,18.8,375,60.7,324,60.7,324Z" style="fill:#fbebdf"/><path d="M104,258.5c-17.7,2.3-48.7,60.8-48.7,60.8l-3.8,5c16.2,3.7,23.6,19.5,35.1,31.3l3.3-7.1C92.2,334.7,104,258.5,104,258.5Z" style="fill:#fdeea4"/><path d="M3.8,350.2C8.1,371,17.3,387.3,35,386.1c11.2-.8,24-9.3,27.4-17.4a10,10,0,0,0-1.8-10.6c-1.3-1.5,3.7-4.6,4.3-9.9,2.2-18-13.1-43-35.2-36.6C12.7,316.5-.2,330,3.8,350.2Z" style="fill:#fbebdf"/><path d="M33.2,389.3c-11.7,0-26-7.1-32.4-38.4h0c-3.9-19.6,7.1-36.2,28.1-42.2a27,27,0,0,1,25.6,5.7c9.5,8.1,15,22.2,13.5,34.3-.4,3.6-2.4,6.4-3.7,8.2a1.76,1.76,0,0,1-.4.5A13.19,13.19,0,0,1,65.2,370c-3.9,9.4-18,18.4-30,19.2C34.6,389.2,33.9,389.3,33.2,389.3ZM6.9,349.6C11.6,372.7,21,383.9,34.8,383c10.6-.8,22-8.9,24.7-15.5a6.75,6.75,0,0,0-1.2-7.3c-2.3-2.6-.2-5.4,1-7a12,12,0,0,0,2.6-5.3c1.2-10-3.6-22.1-11.4-28.8-4.1-3.5-10.8-7.1-19.8-4.5C16.6,318.6,3,329.9,6.9,349.6Z" style="fill:#1a1a1a"/><ellipse cx="59" cy="327.89" rx="12" ry="16.6" transform="translate(-63.91 18.24) rotate(-11.45)" style="fill:#fbebdf"/><path d="M60.6,347.4c-7.4,0-14.4-6.9-16.4-16.6a23.79,23.79,0,0,1,1.3-14.1c2-4.5,5.4-7.4,9.6-8.2,8.2-1.7,16.6,5.7,18.7,16.3s-2.7,20.7-10.9,22.3A6.34,6.34,0,0,1,60.6,347.4Zm-3.2-32.9a3.75,3.75,0,0,0-1.1.1c-2.1.4-3.9,2.1-5.1,4.7a17.63,17.63,0,0,0-.9,10.3c1.5,7.2,6.7,12.4,11.4,11.5s7.5-7.8,6-15C66.3,319.5,61.8,314.5,57.4,314.5Z" style="fill:#1a1a1a"/><path d="M37.9,370.2a2.17,2.17,0,0,1-2.1-1.4,2.35,2.35,0,0,1,1.2-3.1L50.2,360a2.35,2.35,0,0,1,1.9,4.3L38.9,370A3,3,0,0,1,37.9,370.2Z" style="fill:#1a1a1a"/><path d="M31.4,353.5a2.33,2.33,0,0,1-.9-4.5l13.6-5.6a2.38,2.38,0,1,1,1.8,4.4l-13.6,5.6C32,353.4,31.7,353.5,31.4,353.5Z" style="fill:#1a1a1a"/><path d="M26.6,335.7a2.26,2.26,0,0,1-2.1-1.4,2.35,2.35,0,0,1,1.2-3.1l11.1-5.1a2.35,2.35,0,0,1,1.9,4.3l-11.1,5.1A4.4,4.4,0,0,1,26.6,335.7Z" style="fill:#1a1a1a"/><path d="M59.9,313.9a3.17,3.17,0,0,1-1.6-.4,3.12,3.12,0,0,1-1.1-4.3c31-53.3,69-69.3,70.6-70a3.21,3.21,0,0,1,4.1,1.7,3.12,3.12,0,0,1-1.7,4.1h0c-.4.2-37.7,16-67.5,67.4A3.47,3.47,0,0,1,59.9,313.9Z" style="fill:#1a1a1a"/><path d="M45.5,401.4A33.13,33.13,0,0,1,27,395.6c-4.8-3.2-8.3-7.3-9.2-10.7a3.07,3.07,0,0,1,2.2-3.8,3,3,0,0,1,3.8,2.2c.8,3.1,9.6,11.9,21.7,11.9h.2c27-.2,41.7-42.3,48.1-67.3a3,3,0,0,1,3.8-2.2,3.13,3.13,0,0,1,2.3,3.8c-15.1,59.3-37.7,71.9-54.1,72A.37.37,0,0,0,45.5,401.4Z" style="fill:#1a1a1a"/><path d="M84.2,359.3a3.15,3.15,0,0,1-2.9-1.9h0c0-.1-3.1-7.5-7.6-12.3a3.11,3.11,0,1,1,4.5-4.3A50,50,0,0,1,87,355a3.21,3.21,0,0,1-1.7,4.1A3.6,3.6,0,0,1,84.2,359.3Z" style="fill:#1a1a1a"/><path d="M85.4,334.8a2.46,2.46,0,0,1-1.9-.9,37.56,37.56,0,0,0-6.9-6.9,2.35,2.35,0,1,1,2.9-3.7,44.3,44.3,0,0,1,7.8,7.8,2.37,2.37,0,0,1-.4,3.3A4.19,4.19,0,0,1,85.4,334.8Z" style="fill:#e0bb52"/><path d="M295.8,324s-29.7,30.5-23.6,41.1l14.5,20.6,14.5,11.4,15.2,3s21.4-10.6,21.4-25.1S295.8,324,295.8,324Z" style="fill:#fbebdf"/><path d="M250.9,253.3c17.7,2.3,50.4,66,50.4,66l3.8,5c-16.2,3.7-23.6,19.5-35.1,31.3l-3.3-7C264.4,334.7,250.9,253.3,250.9,253.3Z" style="fill:#fdeea4"/><path d="M352.7,350.2c-4.2,20.8-13.5,37.1-31.2,35.9-11.2-.8-24-9.3-27.4-17.4a10,10,0,0,1,1.8-10.6c1.3-1.5-3.7-4.6-4.3-9.9-2.2-18,13.1-43,35.2-36.6C343.8,316.5,356.8,330,352.7,350.2Z" style="fill:#fff"/><path d="M323.4,389.3a14.77,14.77,0,0,1-2.1-.1c-12.1-.9-26.1-9.9-30-19.3a13.17,13.17,0,0,1,1.3-12.6,2.18,2.18,0,0,0-.4-.5c-1.3-1.8-3.3-4.5-3.7-8.2-1.5-12.1,4.1-26.2,13.5-34.3a27,27,0,0,1,25.6-5.7c21,6,32.1,22.6,28.1,42.2h0C349.4,382.2,335.1,389.3,323.4,389.3Zm-3.6-75.6a21,21,0,0,0-13.8,5.4c-7.8,6.7-12.6,18.8-11.4,28.8a12,12,0,0,0,2.6,5.3c1.2,1.7,3.2,4.5,1,7a6.78,6.78,0,0,0-1.2,7.3c2.7,6.5,14.1,14.7,24.7,15.5,13.8,1,23.2-10.3,27.9-33.4,4-19.7-9.6-31-23.7-35A22.54,22.54,0,0,0,319.8,313.7Zm32.9,36.5Z" style="fill:#1a1a1a"/><path d="M341.5,356.3c-4.2,20.8-2.3,31-20,29.8-11.2-.8-24-9.3-27.4-17.4a10,10,0,0,1,1.8-10.6c1.3-1.5-3.7-4.6-4.3-9.9-2.2-18,1.9-36.9,24-30.6C332.7,322.5,345.6,336.1,341.5,356.3Z" style="fill:#fbebdf"/><path d="M323.4,389.3a14.77,14.77,0,0,1-2.1-.1c-12.1-.9-26.1-9.9-30-19.3a13.17,13.17,0,0,1,1.3-12.6,2.18,2.18,0,0,0-.4-.5c-1.3-1.8-3.3-4.5-3.7-8.2-1.5-12.1,4.1-26.2,13.5-34.3a27,27,0,0,1,25.6-5.7c21,6,32.1,22.6,28.1,42.2h0C349.4,382.2,335.1,389.3,323.4,389.3Zm-3.6-75.6a21,21,0,0,0-13.8,5.4c-7.8,6.7-12.6,18.8-11.4,28.8a12,12,0,0,0,2.6,5.3c1.2,1.7,3.2,4.5,1,7a6.78,6.78,0,0,0-1.2,7.3c2.7,6.5,14.1,14.7,24.7,15.5,13.8,1,23.2-10.3,27.9-33.4,4-19.7-9.6-31-23.7-35A22.54,22.54,0,0,0,319.8,313.7Zm32.9,36.5Z" style="fill:#1a1a1a"/><ellipse cx="297.49" cy="327.84" rx="16.6" ry="12" transform="translate(-82.88 554.33) rotate(-78.55)" style="fill:#fbebdf"/><path d="M295.9,347.4a17.85,17.85,0,0,1-2.3-.2c-8.2-1.7-13-11.7-10.9-22.3h0c2.2-10.7,10.6-18,18.7-16.3,4.1.8,7.5,3.8,9.6,8.2a23,23,0,0,1,1.3,14.1C310.4,340.5,303.3,347.4,295.9,347.4Zm-7.1-21.3c-1.5,7.2,1.3,14,6,15s9.9-4.3,11.4-11.5a16.86,16.86,0,0,0-.9-10.3c-1.2-2.6-3-4.3-5.1-4.7-4.7-1-9.9,4.3-11.4,11.5Z" style="fill:#1a1a1a"/><path d="M318.6,370.2a2.92,2.92,0,0,1-.9-.2l-13.2-5.7a2.35,2.35,0,0,1,1.9-4.3l13.2,5.7a2.35,2.35,0,0,1,1.2,3.1A2.4,2.4,0,0,1,318.6,370.2Z" style="fill:#1a1a1a"/><path d="M325.1,353.5a2.92,2.92,0,0,1-.9-.2l-13.6-5.6a2.38,2.38,0,1,1,1.8-4.4L326,349a2.39,2.39,0,0,1,1.3,3.1A2.58,2.58,0,0,1,325.1,353.5Z" style="fill:#1a1a1a"/><path d="M330,335.7a3.55,3.55,0,0,1-1-.2l-11.1-5.1a2.35,2.35,0,0,1,1.9-4.3l11.1,5.1a2.35,2.35,0,0,1,1.2,3.1A2.26,2.26,0,0,1,330,335.7Z" style="fill:#1a1a1a"/><path d="M296.7,313.9a3.2,3.2,0,0,1-2.8-1.7c-31.8-60.9-63.3-69-63.6-69.1a3.14,3.14,0,0,1,1.5-6.1c1.4.3,34.5,8.9,67.7,72.3a3.13,3.13,0,0,1-1.3,4.2A2.82,2.82,0,0,1,296.7,313.9Z" style="fill:#1a1a1a"/><path d="M310.7,403.2h-.3c-14.9-.2-35.7-12.4-50.2-69.7a3.14,3.14,0,1,1,6.1-1.5c10.6,41.8,26.3,64.8,44.3,65h.2c12,0,21.1-10.2,22.1-13.7a3.1,3.1,0,0,1,6,1.6C337.1,391.2,325.6,403.2,310.7,403.2Z" style="fill:#1a1a1a"/><path d="M272.3,359.3a5,5,0,0,1-1.2-.2,3.12,3.12,0,0,1-1.7-4.1c.1-.3,3.5-8.5,8.9-14.2a3.11,3.11,0,0,1,4.5,4.3c-4.5,4.8-7.6,12.2-7.6,12.2A3.09,3.09,0,0,1,272.3,359.3Z" style="fill:#1a1a1a"/><path d="M271.1,334.8a2.35,2.35,0,0,1-1.8-3.8,41.16,41.16,0,0,1,7.8-7.8,2.35,2.35,0,1,1,2.9,3.7,37.56,37.56,0,0,0-6.9,6.9A2.33,2.33,0,0,1,271.1,334.8Z" style="fill:#e0bb52"/><path d="M94.8,428a3.1,3.1,0,0,1-3.1-3c-1.7-39.1-.3-68.9,1.3-87,1.7-19.7,3.7-29.9,3.8-30.4a3.12,3.12,0,1,1,6.1,1.3c-.1.4-8.2,41.7-4.9,115.8a3.2,3.2,0,0,1-3,3.3Z" style="fill:#1a1a1a"/><path d="M99.7,298.1h-.4a2.3,2.3,0,0,1-1.9-2.7c2.1-12.5,5.2-37.3,5.2-37.6a2.32,2.32,0,1,1,4.6.6c0,.2-3.2,25.2-5.3,37.7A2.06,2.06,0,0,1,99.7,298.1Z" style="fill:#1a1a1a"/><path d="M272.4,418.2a3.2,3.2,0,0,1-2.8-1.7,2.87,2.87,0,0,1,0-2.7c.7-7.3-7.9-71.7-13.6-111.3a3.08,3.08,0,1,1,6.1-.9c0,.3,4.1,28.3,7.7,56,2.1,16.3,3.7,29.4,4.7,38.9.6,5.7,1,10.1,1.2,13.1.3,4.6.3,7.1-1.9,8.2A2.5,2.5,0,0,1,272.4,418.2Zm-1.4-5.9Z" style="fill:#1a1a1a"/><ellipse cx="195.33" cy="15.28" rx="12.4" ry="13.9" transform="translate(154.84 206.97) rotate(-82.55)" style="fill:#fff"/><path d="M195.8,30.8a22.86,22.86,0,0,1-2.5-.2,18.11,18.11,0,0,1-11.2-5.9,14.4,14.4,0,0,1-3.6-11.6h0A14.55,14.55,0,0,1,185,2.8,17.7,17.7,0,0,1,197.4,0a18.11,18.11,0,0,1,11.2,5.9,14.4,14.4,0,0,1,3.6,11.6,14.67,14.67,0,0,1-6.5,10.3A17.25,17.25,0,0,1,195.8,30.8Zm-.9-24.7A11.73,11.73,0,0,0,188.5,8a8.44,8.44,0,0,0-3.8,6h0a8.45,8.45,0,0,0,2.2,6.7,11.57,11.57,0,0,0,7.3,3.8,11.93,11.93,0,0,0,8.1-1.8A8.29,8.29,0,0,0,203.9,10a11.57,11.57,0,0,0-7.3-3.8A10.28,10.28,0,0,0,194.9,6.1Zm-13.3,7.4Z" style="fill:#1a1a1a"/><path d="M216.9,52.7s58.6,11,67.2,87.3l-2.8,24,7.4,7.8,3,22.1L281,212l30.5,18.3,26.2,26.3-9.5,9.5-85.6-42.3-19.7,15.5L193.3,250Z" style="fill:#fff"/><path d="M264.4,164.6l-11.2,44.8,11.7,7.3,12.7-3.6S295.4,165.1,264.4,164.6Z" style="fill:#fcede1"/><polyline points="99.7 150.2 80.6 145.6 64.6 152.6 61.2 179.8 76.4 198.4 91.5 202.6 100.9 198.1" style="fill:#fcede1"/><path d="M78.4,146.4l14.4-.7,3.6-15.6,11.4-12.5,21-25.6s12.4-4.5,15.5-4.1l1,8,79,8.5,4.3-4.5,7.9,6.2,10.2,27.5,19.4,5-.1,22.1,16.4-.9.2-33.9S260,97.2,253.4,85.7C245.2,71.1,224,57.8,224,57.8l-15.3-7.5-40.6-3.6L133.2,55,100,79.3,80.7,116.2Z" style="fill:#eab381"/><path d="M253.4,211.1l-13.7,17.2,12,39.9,20.9,34.1,42.5-24-3.9-16.6,17,4.4s-14.7-26-50.5-53C277.6,213.1,259.1,217.7,253.4,211.1Z" style="fill:#eab381"/><polygon points="74.7 195.5 20.4 221.4 25.8 233.1 41.5 233.4 33.5 248.3 63.1 282.6 110.8 222.4 98.6 201.4 74.7 195.5" style="fill:#eab381"/><path d="M94.8,123.1s-19.3,84,29.6,112.5c0,0,49.3,39.5,98.4-3.6,0,0,30.1-22.8,27.4-94.4L238,102.8l-10.7-2-32.9,1.9-34.9-3.9-14.3-3-1-8s-27.8,2.5-38.2,33.4C106,121.2,98.5,117.5,94.8,123.1Z" style="fill:#fcede1"/><ellipse cx="224.18" cy="190.75" rx="11.6" ry="13.1" transform="translate(15.93 398.77) rotate(-85.36)" style="fill:#f2abb7"/><ellipse cx="126.35" cy="182.85" rx="11.6" ry="13.1" transform="translate(-66.11 293.99) rotate(-85.36)" style="fill:#f2abb7"/><path d="M176.7,176.6a2.77,2.77,0,0,1-.9-.1c-14.1-4.3-11.3-16-11.2-16.1a3.14,3.14,0,0,1,6.1,1.5c-1.3,6,6.1,8.4,7,8.7a3.16,3.16,0,0,1,2.1,3.9A3.51,3.51,0,0,1,176.7,176.6Z" style="fill:#1a1a1a"/><path d="M265.5,219.3a18.37,18.37,0,0,1-14.4-6.2,3.11,3.11,0,0,1,4.6-4.2q4.65,5.1,12.6,3.9a27.62,27.62,0,0,0,7.6-2.4c17.3-13.5,10.7-35,9.9-37.4-2.4-4.5-5.4-7.3-8.9-8.4a14.41,14.41,0,0,0-9.7.9,3.11,3.11,0,0,1-2.9-5.5,20.18,20.18,0,0,1,14.5-1.4c5.3,1.6,9.5,5.5,12.7,11.7.1.1.1.3.2.4.1.3,9.7,28-12.1,44.8-.1.1-.3.2-.4.3A30.58,30.58,0,0,1,265.5,219.3Z" style="fill:#1a1a1a"/><path d="M281,165.2a2.77,2.77,0,0,1-.9-.1,3.16,3.16,0,0,1-2.1-3.9c2.4-8,2.9-20.1,3-21.1a100.25,100.25,0,0,0-7.3-32.9c-9.4-23.4-25.9-39.9-49-48.8a148,148,0,0,0-50.3-8.6c-36.4.4-63.7,15.8-81.1,45.7-6.7,11.4-10.7,25.4-12.4,42.8-.2,2-.3,3.6-.4,5.1a3.11,3.11,0,0,1-6.2-.4c.1-1.5.2-3.2.4-5.3,1.8-18.3,6.1-33.2,13.2-45.4,18.4-31.5,48.4-48.4,86.6-48.8a152.31,152.31,0,0,1,52.5,9c30.9,12,45.7,35.2,52.6,52.5a106.37,106.37,0,0,1,7.6,35.1v.1c0,.6-.5,13.7-3.3,22.8A3.09,3.09,0,0,1,281,165.2Z" style="fill:#1a1a1a"/><path d="M264.2,177s9.3-5.7,12.9,4.7c0,0,3.5,26.4-17.2,18.7" style="fill:#ebb988"/><path d="M266.7,204.1a20.74,20.74,0,0,1-7.6-1.6,2.34,2.34,0,0,1,1.6-4.4c4.6,1.7,8.1,1.7,10.4-.1,4.2-3.4,4.1-12.4,3.7-15.9a6.8,6.8,0,0,0-3.4-4.2c-2.7-1-5.9.9-6,.9a2.33,2.33,0,0,1-2.4-4c.2-.1,5.1-3.1,10-1.4,2.9,1.1,5.1,3.5,6.4,7.3a.75.75,0,0,1,.1.5c.1.6,1.8,14.6-5.4,20.4A11.43,11.43,0,0,1,266.7,204.1Z" style="fill:#1a1a1a"/><path d="M88.6,204.3c-9.6,0-17.8-5.7-18.3-6L70,198c-21.3-20.2-5.8-45.8-5.7-46.1.1-.1.2-.3.3-.4,11.1-13.1,23.6-9.1,28.5-6.8a3.15,3.15,0,1,1-2.7,5.7c-4.4-2.1-13-4.2-20.9,5-1.3,2.3-12,21.9,4.6,37.9,1.4.9,11.5,7.3,20.4,3.7a3.14,3.14,0,0,1,2.4,5.8A22.82,22.82,0,0,1,88.6,204.3Z" style="fill:#1a1a1a"/><path d="M91.5,161.8c-2.9-1.6-9.2-3.8-13.5,3.3,0,0-8.3,25.2,15.8,21.2" style="fill:#ebb988"/><path d="M89,189.1q-7.5,0-11.4-4.5c-6.1-7.1-2-19.7-1.8-20.2.1-.2.1-.3.2-.5,3.7-6.2,9.9-7.8,16.6-4.2a2.35,2.35,0,1,1-2.3,4.1c-4.3-2.4-7.8-1.6-10.2,2.3-1,3.2-2.5,11.4,1,15.5,2.2,2.6,6.3,3.4,12.2,2.4a2.33,2.33,0,1,1,.8,4.6A23.16,23.16,0,0,1,89,189.1Z" style="fill:#1a1a1a"/><path d="M272.5,305.3a3.1,3.1,0,0,1-2.2-.9c-.8-.8-19-19.4-31.9-72.2a3.14,3.14,0,1,1,6.1-1.5c10.6,43.3,25,63,29.2,68,11.4-3.4,25.5-12.9,38.1-21.9-.6-2.8-2.1-8.9-3.6-14.4a3.1,3.1,0,0,1,3.8-3.8c5.9,1.6,12.4,3.3,15.3,4,2.8-2.6,4.9-4.8,6.3-6.2-26.7-31.6-54.3-40.4-54.6-40.5a3.2,3.2,0,0,1-2.1-3.9,3.16,3.16,0,0,1,3.9-2.1c1.2.4,30.9,9.8,59.3,44.6a3,3,0,0,1-.1,4,130.42,130.42,0,0,1-9.7,9.8c-1.4,1.3-1.3,1.3-11.5-1.4l-3.3-.9c.2,1,.5,2,.8,3,.6,2.4,1.1,4.4,1.4,5.8.6,2.9,1,4.6-.8,5.9-14.1,10.2-30.3,21.3-43.6,24.5A2.49,2.49,0,0,1,272.5,305.3Zm40.7-29.6ZM326,263.8Z" style="fill:#1a1a1a"/><path d="M296.9,248.1a2.5,2.5,0,0,1-1.8-.8c-6.4-7.6-17.7-13.7-17.8-13.8a2.3,2.3,0,0,1-.9-3.2,2.24,2.24,0,0,1,3.2-.9c.5.3,12.1,6.7,19.1,14.9a2.36,2.36,0,0,1-.3,3.3A3,3,0,0,1,296.9,248.1Z" style="fill:#fff"/><path d="M275.6,252.4a2.17,2.17,0,0,1-1.9-1L264,237.8a2.36,2.36,0,1,1,3.8-2.8l9.7,13.6a2.48,2.48,0,0,1-.5,3.3A2.18,2.18,0,0,1,275.6,252.4Z" style="fill:#aa806a"/><path d="M63.1,285.8a3.37,3.37,0,0,1-1.7-.5C50.7,278.5,40.1,263.5,31,250c-1.2-1.8-1-2.2,3.8-10.8l1.5-2.7H33.7c-2,0-3.9-.1-5.4-.1-3.1-.1-4.3-.1-5.2-1.8-3.6-6.9-5.5-11.7-5.6-11.9a3.09,3.09,0,0,1,1-3.6c23.1-17.5,43.2-23.6,53.2-25.7a3.12,3.12,0,1,1,1.3,6.1c-9.2,1.9-27.4,7.5-48.7,23.1.8,1.7,2,4.4,3.6,7.6,2.9.1,9.2.1,13.8.2a3.15,3.15,0,0,1,2.7,1.6,2.89,2.89,0,0,1,0,3.1c-2.8,5-5.9,10.5-7.2,13,8.4,12.4,17.3,24.5,25.6,30.7a301.83,301.83,0,0,0,44.1-55.3,3.12,3.12,0,0,1,5.3,3.3A309.26,309.26,0,0,1,65.3,285,3.72,3.72,0,0,1,63.1,285.8ZM28.5,231.6c.1,0,.1.1,0,0C28.6,231.7,28.6,231.6,28.5,231.6Z" style="fill:#1a1a1a"/><path d="M58.2,224.3a2.28,2.28,0,0,1-1.9-1,2.39,2.39,0,0,1,.5-3.3c8.3-6,20-9.1,20.5-9.2a2.32,2.32,0,0,1,1.1,4.5c-.1,0-11.4,3-18.9,8.5A1.54,1.54,0,0,1,58.2,224.3Z" style="fill:#aa806a"/><path d="M75.2,234.2a2.5,2.5,0,0,1-1.8-.8,2.45,2.45,0,0,1,.2-3.3l12.1-10.5a2.34,2.34,0,1,1,3.1,3.5L76.7,233.6A2.4,2.4,0,0,1,75.2,234.2Z" style="fill:#aa806a"/><path d="M255.3,151.2a3.11,3.11,0,0,1-3.1-2.5c-5.2-27.3-13.1-34.7-13.1-34.8a3.12,3.12,0,0,1,4.1-4.7c1,.8,9.6,9,15.2,38.3a3.08,3.08,0,0,1-2.5,3.6A1.27,1.27,0,0,1,255.3,151.2Z" style="fill:#1a1a1a"/><path d="M178.6,255.2A105.27,105.27,0,0,1,163,254c-20.6-3.2-34.8-11.5-35.9-12.2-22.4-12.3-35.3-37.4-37.2-72.5A191.07,191.07,0,0,1,93.6,120a3.22,3.22,0,0,1,3.7-2.4,3.17,3.17,0,0,1,2.4,3.7c-.2.9-19.1,87.6,30.6,114.9a.1.1,0,0,1,.1.1,101.34,101.34,0,0,0,34,11.4c26.5,4.1,50.4-2.6,71.3-19.7.1-.1.2-.1.3-.2.3-.2,28.7-20,25.5-88.7a3.2,3.2,0,0,1,3-3.3,3.14,3.14,0,0,1,3.3,3c3.3,70.7-25.5,92.2-28.2,94.1C218.3,250.3,196.5,255.2,178.6,255.2Z" style="fill:#1a1a1a"/><path d="M106.4,123.2a3.59,3.59,0,0,1-1.1-.2,3.11,3.11,0,0,1-1.8-4,56.63,56.63,0,0,1,27.2-30,3.13,3.13,0,0,1,2.8,5.6,50.2,50.2,0,0,0-24.2,26.7A3.1,3.1,0,0,1,106.4,123.2Z" style="fill:#1a1a1a"/><ellipse cx="215.92" cy="157.64" rx="13.8" ry="11.5" transform="translate(36.48 355.82) rotate(-83.97)" style="fill:#1a1a1a"/><path d="M211,153.6a4.25,4.25,0,0,1-1.1-.2c-.4-.2-8.9-3.8-9.8-13.2a3,3,0,0,1,2.5-3.1,2.81,2.81,0,0,1,3.1,2.5c.6,5.9,6.2,8.4,6.4,8.5a2.87,2.87,0,0,1,1.5,3.7A2.8,2.8,0,0,1,211,153.6Z" style="fill:#1a1a1a"/><ellipse cx="137.62" cy="148.86" rx="13.8" ry="11.5" transform="translate(-24.87 270.09) rotate(-83.97)" style="fill:#1a1a1a"/><path d="M132.8,144.8a4.25,4.25,0,0,1-1.1-.2c-.4-.2-8.9-3.8-9.8-13.2a3,3,0,0,1,2.5-3.1,2.89,2.89,0,0,1,3.1,2.5c.6,6,6.3,8.5,6.4,8.5a2.83,2.83,0,0,1,1.5,3.7A2.91,2.91,0,0,1,132.8,144.8Z" style="fill:#1a1a1a"/><path d="M212.8,17.8s-84.4-28-121.2,62.7c0,0-24.2,2.9-26.1,25.9,0,0,113.5-7,242.5,20.1,0,0-9.1-21.1-27.8-33.9C280.2,92.7,276.5,30,212.8,17.8Z" style="fill:#fff"/><path d="M197.8,17.7S128.5-10.2,91.7,80.5c0,0-24.2,2.9-26.1,25.9,0,0,89.5-12.1,218.5,15,0,0,.4-12-18.3-24.8C265.6,96.7,261.5,29.9,197.8,17.7Z" style="fill:#ddcbba"/><path d="M227,62.8a2.29,2.29,0,0,1-2.3-2c-3.3-25.1-12.5-31.9-12.6-32a2.37,2.37,0,1,1,2.7-3.9c.4.3,11,8.1,14.6,35.2a2.23,2.23,0,0,1-2,2.6A.76.76,0,0,1,227,62.8Z" style="fill:#1a1a1a"/><path d="M152.3,52.7a.9.9,0,0,1-.5-.1,2.31,2.31,0,0,1-1.8-2.8c3.8-18.1,18.2-28.8,18.8-29.2a2.36,2.36,0,1,1,2.8,3.8c-.2.2-13.6,10.2-17,26.4A2.33,2.33,0,0,1,152.3,52.7Z" style="fill:#1a1a1a"/><path d="M167.2,60.4s-42.2-1.9-66.5-.3L89.3,79.8s59.4-5.9,81.1-.4" style="fill:#a18f7e"/><path d="M203.8,64.3s41.9,5.3,65.6,11l7.9,21.3s-57.6-15.9-79.9-14.1" style="fill:#a18f7e"/><path d="M279.2,79.4a.9.9,0,0,1-.5-.1C158.9,53.9,101.6,62.3,101,62.4a2.38,2.38,0,0,1-.8-4.7c.6-.1,58.6-8.7,179.4,17a2.31,2.31,0,0,1,1.8,2.8A2.16,2.16,0,0,1,279.2,79.4Z" style="fill:#1a1a1a"/><path d="M283.7,100a.9.9,0,0,1-.5-.1c-64.8-14.1-114-18.2-143.9-19.1C107,79.7,89.8,82,89.6,82.1a2.32,2.32,0,0,1-.6-4.6c.7-.1,70.2-9.2,195.2,17.9a2.31,2.31,0,0,1,1.8,2.8A2.43,2.43,0,0,1,283.7,100Z" style="fill:#1a1a1a"/><circle cx="188.4" cy="66.5" r="23.8" style="fill:#bfbfbf"/><path d="M188.4,93.5a26.9,26.9,0,1,1,26.9-26.9A27,27,0,0,1,188.4,93.5Zm0-47.6A20.7,20.7,0,1,0,209,66.5,20.74,20.74,0,0,0,188.4,45.9Z" style="fill:#1a1a1a"/><circle cx="188.2" cy="66" r="11" style="fill:#fff"/><path d="M188.2,79.3A13.3,13.3,0,1,1,201.5,66,13.36,13.36,0,0,1,188.2,79.3Zm0-21.9a8.6,8.6,0,1,0,8.6,8.6A8.6,8.6,0,0,0,188.2,57.4Z" style="fill:#1a1a1a"/><path d="M305.7,128.7a1.27,1.27,0,0,1-.6-.1c-168-31.8-240.7-19.9-241.4-19.8a3,3,0,0,1-2.9-1.1,3.15,3.15,0,0,1-.5-3.1A47.24,47.24,0,0,1,86.9,77.2c15.9-38.2,41.9-54.2,61-61,20.4-7.2,37.1-5.6,38.7-5.4,28.4,1.6,66.6,10.7,87.5,45.3a90.29,90.29,0,0,1,12.7,39.8c18.5,13.4,21.9,28.2,22,28.9a3.16,3.16,0,0,1-.8,2.8A3,3,0,0,1,305.7,128.7ZM106.9,100.2c37.6,0,100.5,3.9,194,21.3-2.4-5.1-7.8-13.5-19-21.2a3.17,3.17,0,0,1-1.3-2.6,84.11,84.11,0,0,0-12-38.5c-15.7-25.8-43.4-39.9-82.4-42.1H186a89.66,89.66,0,0,0-36.2,5.2c-26.3,9.3-45.6,29-57.6,58.6a3.19,3.19,0,0,1-1.8,1.8,41.09,41.09,0,0,0-22,19.2A369.45,369.45,0,0,1,106.9,100.2Z" style="fill:#1a1a1a"/><path d="M293.4,59.5a12.75,12.75,0,0,0,.4-8.4c-1.7-6.1-7.1-9.9-12.1-8.5-3.6,1-6,4.5-6.3,8.7a24.57,24.57,0,0,0-15.6,4.4c-2.5-3.4-6.3-5.2-9.9-4.2-5,1.4-7.6,7.5-5.9,13.6a12.57,12.57,0,0,0,4.7,7,23.15,23.15,0,0,0,.4,11.1c3.7,13.3,17.9,20.9,31.7,17s21.9-17.8,18.2-31A27.69,27.69,0,0,0,293.4,59.5Z" style="fill:#fff"/><path d="M273.4,103.6a27.25,27.25,0,0,1-13.4-3.4A26.55,26.55,0,0,1,246.1,73a16,16,0,0,1-3.9-17.4,10.66,10.66,0,0,1,7-6.3c3.8-1.1,7.9.3,11,3.4A27.9,27.9,0,0,1,273.4,49a11.3,11.3,0,0,1,7.7-8.6c6.2-1.7,12.9,2.8,15,10.1a15.35,15.35,0,0,1,0,8.5,27,27,0,0,1,5.1,9.6,26.28,26.28,0,0,1-2.8,20.8,28.74,28.74,0,0,1-17,13.1A32.09,32.09,0,0,1,273.4,103.6Zm-21.6-50a6.75,6.75,0,0,0-1.4.2,6.19,6.19,0,0,0-3.9,3.7,10.42,10.42,0,0,0-.3,7,11,11,0,0,0,3.9,5.8,2.32,2.32,0,0,1,.9,2.3,21.12,21.12,0,0,0,.3,10,21.9,21.9,0,0,0,10.9,13.5,24.34,24.34,0,0,0,32.2-9,22.13,22.13,0,0,0,2.3-17.2,21.12,21.12,0,0,0-5-8.7,2.52,2.52,0,0,1-.5-2.5,10.22,10.22,0,0,0,.3-6.9c-1.4-4.9-5.5-7.9-9.2-6.9-2.6.7-4.4,3.3-4.6,6.6a2.42,2.42,0,0,1-2.5,2.2,22.62,22.62,0,0,0-14.2,4,2.35,2.35,0,0,1-3.2-.5A7.7,7.7,0,0,0,251.8,53.6Z" style="fill:#1a1a1a"/><path d="M287.1,62a13.19,13.19,0,0,0,.1-8.1c-1.7-6-6.3-8-10.6-6.8-3.1.9-1.3,1.1-1.5,5.2-2.4-.2-8.7,1.2-11.1,1.9s-3.8.8-5.7,2.2a8.69,8.69,0,0,0-9.5-3.3c-4.3,1.2-6.4,7-4.7,13a13.55,13.55,0,0,0,4.3,6.9,26.25,26.25,0,0,0,.7,10.8c3.6,13,16.3,20.8,28.2,17.5s18.6-16.6,14.9-29.6A25.14,25.14,0,0,0,287.1,62Z" style="fill:#cddc4c"/><path d="M273.4,103.6a27.25,27.25,0,0,1-13.4-3.4A26.55,26.55,0,0,1,246.1,73a16,16,0,0,1-3.9-17.4,10.66,10.66,0,0,1,7-6.3c3.8-1.1,7.9.3,11,3.4A27.9,27.9,0,0,1,273.4,49a11.3,11.3,0,0,1,7.7-8.6c6.2-1.7,12.9,2.8,15,10.1a15.35,15.35,0,0,1,0,8.5,27,27,0,0,1,5.1,9.6,26.28,26.28,0,0,1-2.8,20.8,28.74,28.74,0,0,1-17,13.1A32.09,32.09,0,0,1,273.4,103.6Zm-21.6-50a6.75,6.75,0,0,0-1.4.2,6.19,6.19,0,0,0-3.9,3.7,10.42,10.42,0,0,0-.3,7,11,11,0,0,0,3.9,5.8,2.32,2.32,0,0,1,.9,2.3,21.12,21.12,0,0,0,.3,10,21.9,21.9,0,0,0,10.9,13.5,24.34,24.34,0,0,0,32.2-9,22.13,22.13,0,0,0,2.3-17.2,21.12,21.12,0,0,0-5-8.7,2.52,2.52,0,0,1-.5-2.5,10.22,10.22,0,0,0,.3-6.9c-1.4-4.9-5.5-7.9-9.2-6.9-2.6.7-4.4,3.3-4.6,6.6a2.42,2.42,0,0,1-2.5,2.2,22.62,22.62,0,0,0-14.2,4,2.35,2.35,0,0,1-3.2-.5A7.7,7.7,0,0,0,251.8,53.6Z" style="fill:#1a1a1a"/><path d="M273.3,85.5A28.81,28.81,0,0,1,260.6,82a2.35,2.35,0,0,1,2.3-4.1h0c.1,0,8.4,4.6,14.5,2.1,2.7-1.1,4.6-3.5,5.8-7.4a2.34,2.34,0,0,1,4.5,1.3c-1.5,5.2-4.4,8.7-8.5,10.4A14.16,14.16,0,0,1,273.3,85.5Z" style="fill:#1a1a1a"/><ellipse cx="253.5" cy="63.18" rx="4.4" ry="5.4" transform="translate(-7.64 71.01) rotate(-15.71)" style="fill:#1a1a1a"/><ellipse cx="283.52" cy="54.52" rx="4.4" ry="5.4" transform="matrix(0.96, -0.27, 0.27, 0.96, -4.17, 78.78)" style="fill:#1a1a1a"/><ellipse cx="259.88" cy="79.99" rx="4" ry="4.9" transform="translate(-11.95 73.37) rotate(-15.71)" style="fill:#1a1a1a"/><ellipse cx="287.5" cy="72.3" rx="4" ry="4.9" transform="translate(-8.84 80.56) rotate(-15.71)" style="fill:#1a1a1a"/><ellipse cx="172.89" cy="206.18" rx="20.4" ry="11.8" transform="translate(-50.58 356.06) rotate(-83.87)" style="fill:#ef8b6e"/><path d="M171.5,229.3a4.1,4.1,0,0,1-1.1-.1c-8.1-.9-13.4-11.7-12-24.6a31.85,31.85,0,0,1,5.5-15.3c3.2-4.4,7.3-6.6,11.5-6.2s7.7,3.5,9.9,8.5a32.29,32.29,0,0,1,2.1,16.1,31.85,31.85,0,0,1-5.5,15.3C178.9,227.1,175.3,229.3,171.5,229.3Zm2.8-40.6c-2,0-4.1,1.4-5.9,3.9a26.61,26.61,0,0,0-4.4,12.6h0c-1.1,10.3,2.8,18,7,18.4,2.1.2,4.4-1.2,6.4-3.9a26.61,26.61,0,0,0,4.4-12.6,27.16,27.16,0,0,0-1.7-13.3c-1.4-3.1-3.3-5-5.4-5.2C174.6,188.7,174.5,188.7,174.3,188.7Zm-13.1,16.2Z" style="fill:#1a1a1a"/><path d="M204.4,133.1a3.14,3.14,0,0,1-2.9-2,3.11,3.11,0,0,1,1.8-4l15.8-6a3.1,3.1,0,1,1,2.2,5.8l-15.8,6A3.6,3.6,0,0,1,204.4,133.1Z" style="fill:#1a1a1a"/><path d="M153.2,129.7a3,3,0,0,1-1.8-.6l-14.3-10.5a3.15,3.15,0,0,1,3.7-5.1L155.1,124a3.18,3.18,0,0,1,.7,4.4A3.31,3.31,0,0,1,153.2,129.7Z" style="fill:#1a1a1a"/></svg>