<?xml version="1.0" encoding="utf-8"?>
<!-- Generator: Adobe Illustrator 21.1.0, SVG Export Plug-In . SVG Version: 6.00 Build 0)  -->
<svg version="1.1" id="圖層_1" xmlns="http://www.w3.org/2000/svg" xmlns:xlink="http://www.w3.org/1999/xlink" x="0px" y="0px"
	 viewBox="0 0 385.5 449.8" style="enable-background:new 0 0 385.5 449.8;" xml:space="preserve">
<style type="text/css">
	.st0{fill:#EAB381;}
	.st1{fill:#1A1A1A;}
	.st2{fill:#FFFFFF;}
	.st3{fill:#AA806A;}
	.st4{fill:#CDDC4C;}
	.st5{fill:#FCEDE1;}
	.st6{fill:#FDEEA4;}
	.st7{fill:#F5BBA8;}
	.st8{fill:#F2ABB7;}
	.st9{fill:#EBB988;}
	.st10{fill:#DDCBBA;}
	.st11{fill:#A18F7E;}
	.st12{fill:#BFBFBF;}
	.st13{fill:#EF8B6E;}
	.st14{fill:#FBEBDF;}
	.st15{fill:#E0BB52;}
	.st16{fill:#EF8519;}
</style>
<title>互動設計UI</title>
<path class="st0" d="M243.3,192.1L234,212l21,36l28.2,28.3l35.6-33.3l-7.6-15.2l17.5,0.4c0,0-20.4-21.8-61.4-39.7
	C267.3,188.4,250.4,197.2,243.3,192.1z"/>
<path class="st1" d="M283.2,279.4c-0.6,0-1.1-0.2-1.6-0.5c-0.9-0.6-23-14.5-47.8-62.7c-0.8-1.5-0.2-3.4,1.3-4.2
	c1.5-0.8,3.4-0.2,4.2,1.3c20.4,39.6,38.9,55.4,44.1,59.3c10-5.8,21.2-17.8,31.9-30.2c-1.2-2.6-4.1-8.2-6.8-13.1
	c-0.5-1-0.5-2.2,0.1-3.1s1.6-1.5,2.7-1.5c6.1,0.2,12.8,0.4,15.7,0.4c2.1-3.2,3.6-5.8,4.6-7.5c-33.3-24.5-62.1-26.7-62.4-26.7
	c-1.7-0.1-3-1.6-2.9-3.3c0.1-1.7,1.6-3,3.3-2.9c1.3,0.1,32.2,2.4,68,29.5c1.2,0.9,1.6,2.6,0.9,3.9c-0.1,0.2-2.6,5-7.2,11.7
	c-1,1.5-1,1.5-11.5,1.3c-1.1,0-2.3-0.1-3.4-0.1c0.5,0.9,1,1.8,1.4,2.8c1.1,2.2,2.1,4,2.7,5.3c1.3,2.6,2.1,4.3,0.6,6
	c-11.3,13.1-24.3,27.6-36.6,33.9C284.1,279.3,283.6,279.4,283.2,279.4z M316.7,240.9c-0.1,0.1-0.1,0.1-0.2,0.2c0,0,0,0,0,0
	C316.6,241,316.6,240.9,316.7,240.9z M316.7,240.9C316.7,240.9,316.7,240.9,316.7,240.9C316.7,240.9,316.7,240.9,316.7,240.9z
	 M326.2,226.5C326.2,226.5,326.1,226.5,326.2,226.5C326.1,226.5,326.2,226.5,326.2,226.5z"/>
<path class="st2" d="M303.6,241.1c-0.5,0-0.9-0.1-1.4-0.4c-4.7-3.4-9.2-7.2-13.3-11.2c-0.9-0.9-0.9-2.4,0-3.3s2.4-0.9,3.3,0
	c3.9,3.9,8.2,7.5,12.7,10.8c1.1,0.8,1.3,2.2,0.5,3.3C305,240.7,304.3,241.1,303.6,241.1z"/>
<path class="st3" d="M273.9,227.2c-0.5,0-1.1-0.2-1.5-0.6l-12.6-11c-1-0.8-1.1-2.3-0.2-3.3c0.8-1,2.3-1.1,3.3-0.2l12.6,11
	c1,0.8,1.1,2.3,0.2,3.3C275.2,226.9,274.6,227.2,273.9,227.2z"/>
<polygon class="st0" points="66.1,218.4 19.3,256.3 27.3,266.3 42.6,263 38.3,279.3 75,305.8 107.3,236.2 90.6,218.6 "/>
<path class="st1" d="M75,308.9c-0.3,0-0.7-0.1-1-0.2c-11.8-4.1-25.7-16.2-37.8-27.2c-1.5-1.5-1.7-1.6,2-14.4
	c-0.8,0.2-1.6,0.4-2.5,0.6c-9.4,2.1-9.4,2.1-10.7,0.7c0,0-0.1-0.1-0.1-0.1c-5.1-5.9-8.1-10.2-8.2-10.4c-0.8-1.1-0.7-2.7,0.2-3.8
	c18.4-22.4,36.5-33,45.7-37.3c1.6-0.7,3.4-0.1,4.1,1.5c0.7,1.6,0.1,3.4-1.5,4.1c-8.4,4-24.9,13.5-42,33.7c1.1,1.5,2.9,3.8,5.3,6.6
	c2.9-0.6,9-2,13.4-3c1.1-0.3,2.2,0.1,3,0.9c0.8,0.8,1,1.9,0.7,3c-1.6,5.5-3.3,11.6-4,14.3c10.5,9.5,22.2,19.6,32,23.9
	c12.4-20.1,22.5-41.6,30.1-63.9c0.5-1.6,2.3-2.5,3.9-2c1.6,0.5,2.5,2.3,2,3.9c-7.9,23.7-18.7,46.4-32.1,67.5
	C77,308.4,76,308.9,75,308.9z"/>
<path class="st3" d="M56.2,250.3c-0.5,0-1.1-0.2-1.5-0.6c-1-0.8-1.1-2.3-0.3-3.3c6.7-7.8,17.4-13.5,17.8-13.7c1.1-0.6,2.6-0.2,3.2,1
	c0.6,1.1,0.2,2.6-1,3.2c-0.1,0.1-10.4,5.5-16.5,12.6C57.5,250.1,56.8,250.3,56.2,250.3z"/>
<path class="st3" d="M74.9,256c-0.5,0-0.9-0.1-1.4-0.4c-1.1-0.8-1.3-2.2-0.5-3.3l9.3-13c0.8-1.1,2.2-1.3,3.3-0.5
	c1.1,0.8,1.3,2.2,0.5,3.3l-9.3,13C76.4,255.6,75.7,256,74.9,256z"/>
<path class="st4" d="M88.8,284.4c0,0-6.4-10.9-8.5,9.1l-13,74.8l8.5,40.3c0,0,21.5,32,21.6,8.7C97.4,417.3,101.1,266.2,88.8,284.4z"
	/>
<path class="st1" d="M92.6,428.5c-0.3,0-0.7-0.1-1-0.2c-19.9-6.9-27.7-34.8-23-82.9c3.4-34.9,12.3-68.3,12.4-68.6
	c0.4-1.7,2.2-2.6,3.8-2.2c1.7,0.4,2.6,2.2,2.2,3.8c-0.1,0.3-8.9,33.3-12.2,67.7c-3,30.8-2.1,69.1,18.9,76.4c1.6,0.6,2.5,2.3,1.9,4
	C95.1,427.7,93.9,428.5,92.6,428.5z"/>
<polyline class="st2" points="240.3,324.1 253.5,415.3 269.6,409 260.5,354.1 "/>
<path class="st4" d="M211,238.9c0,0,23.1,37,47.9,111.6c4.9,14.6,7.3,37.8,12.4,54.7l0,0c12.8-19.6,18-43.2,14.5-66.4
	C279.1,294.5,260.7,228.8,211,238.9z"/>
<polyline class="st5" points="130,246.1 161.8,294.9 200.3,245.3 "/>
<path class="st2" d="M119.5,237.3l-18.5,6.5c0,0-2.9,50.8-11.9,83.5l-1.3,31.2c0,0,32.9-32.4,28.5-118"/>
<path class="st2" d="M226.3,217.8l7.7,27.7c0,0,5,36.9,17.9,54.2l8.6,54.3c0,0-38-36.4-45.4-121.7"/>
<path class="st6" d="M123.4,242.6c0,0-11.6-12-8.1,10.4c0,0-3.2,74.3-27.8,108.9c0,0-0.5,64.3,11.5,66.9c0,0,80.9,19.1,139.2-6
	c0,0,1.6,1.5,15.3-7.4l0.7,0l-6.5-46.6l-7-39.8c0,0-22.7-60.8-25-94.6l-19,14.2l-35,46.4C161.8,294.8,126.7,239.9,123.4,242.6z"/>
<path class="st1" d="M177.7,449.8c-12.3,0-23.4-1.2-32.9-2.9c-32.6-5.9-53-18.3-53.8-18.8c-0.9-0.5-1.4-1.5-1.5-2.5
	c-3.8-73.4-0.1-99.5,0-100.6c0.3-1.7,1.8-2.9,3.5-2.6c1.7,0.3,2.9,1.8,2.6,3.5l0,0c0,0.3-3.7,26.4-0.1,97.7
	c5.1,2.8,23.7,12.4,50.5,17.2c28.8,5.1,73.1,5.6,121.9-20.8c-0.4-10.8-12.7-78.3-20.8-120.3c-0.3-1.7,0.8-3.3,2.5-3.6
	c1.7-0.3,3.3,0.8,3.6,2.5c0.1,0.3,5.9,30.7,11.3,60.9c3.2,17.7,5.6,32,7.2,42.2c1,6.1,1.6,10.9,2,14.3c0.6,5.1,0.7,7.6-1.5,8.8
	C237.5,444,204.6,449.8,177.7,449.8z"/>
<path class="st1" d="M158.1,296.1c-0.1,0-0.1,0-0.2,0c-0.9-0.1-1.7-0.6-2.2-1.4l-28.1-47.2c-0.8-1.3-0.4-3.1,1-3.8
	c1.3-0.8,3.1-0.4,3.8,1l26.1,43.8l40.5-48.8c1-1.2,2.8-1.4,4-0.4c1.2,1,1.4,2.8,0.4,4l-43.1,51.9C159.8,295.7,159,296.1,158.1,296.1
	z"/>
<path class="st1" d="M151.6,263.6c-1,0-1.9-0.6-2.2-1.5l-3.4-9.5c-0.4-1.2,0.2-2.6,1.4-3c1.2-0.4,2.6,0.2,3,1.4l3.4,9.5
	c0.4,1.2-0.2,2.6-1.4,3C152.1,263.5,151.8,263.6,151.6,263.6z"/>
<g>
	<path class="st7" d="M143.5,306.5c0,0,1.6,74.3,8.5,112.7"/>
	<path class="st1" d="M152,421.5c-1.1,0-2.1-0.8-2.3-1.9c-6.9-38.2-8.6-112.4-8.6-113.1c0-1.3,1-2.4,2.3-2.4c1.3,0,2.4,1,2.4,2.3
		c0,0.7,1.6,74.5,8.5,112.4c0.2,1.3-0.6,2.5-1.9,2.7C152.3,421.5,152.2,421.5,152,421.5z"/>
</g>
<path class="st1" d="M92.3,361.3c-0.3,0-0.7-0.1-1-0.2c-1.2-0.5-1.7-1.9-1.2-3.1c24.5-53.8,24.1-99.6,24.1-100.1
	c0-1.3,1-2.4,2.3-2.4c0,0,0,0,0,0c1.3,0,2.3,1,2.3,2.3c0,0.5,0.5,47.2-24.5,102.1C94,360.8,93.2,361.3,92.3,361.3z"/>
<path class="st1" d="M261.1,355.8c-0.5,0-1-0.1-1.4-0.4c-12.8-9.2-24.3-31.2-34.3-65.4c-7.4-25.2-11.1-48.1-11.2-48.4
	c-0.2-1.3,0.7-2.5,1.9-2.7c1.3-0.2,2.5,0.7,2.7,1.9c0.1,0.9,15,90.1,43.6,110.8c1,0.8,1.3,2.2,0.5,3.3
	C262.5,355.4,261.8,355.8,261.1,355.8z"/>
<g>
	<circle class="st2" cx="161.3" cy="328.8" r="7.6"/>
	<path class="st1" d="M161.3,338.8c-5.5,0-9.9-4.4-9.9-9.9s4.5-9.9,9.9-9.9s9.9,4.5,9.9,9.9S166.8,338.8,161.3,338.8z M161.3,323.6
		c-2.9,0-5.2,2.4-5.2,5.2c0,2.9,2.4,5.2,5.2,5.2s5.2-2.4,5.2-5.2C166.6,326,164.2,323.6,161.3,323.6z"/>
</g>
<g>
	<circle class="st2" cx="164.1" cy="362" r="7.6"/>
	<path class="st1" d="M164.1,372c-5.5,0-9.9-4.5-9.9-9.9s4.4-9.9,9.9-9.9s9.9,4.5,9.9,9.9S169.6,372,164.1,372z M164.1,356.8
		c-2.9,0-5.2,2.4-5.2,5.2s2.4,5.2,5.2,5.2s5.2-2.4,5.2-5.2S167,356.8,164.1,356.8z"/>
</g>
<g>
	<circle class="st2" cx="167.9" cy="399.5" r="7.6"/>
	<path class="st1" d="M167.9,409.4c-5.5,0-9.9-4.5-9.9-9.9s4.5-9.9,9.9-9.9s9.9,4.5,9.9,9.9S173.4,409.4,167.9,409.4z M167.9,394.2
		c-2.9,0-5.2,2.4-5.2,5.2s2.4,5.2,5.2,5.2s5.2-2.4,5.2-5.2S170.8,394.2,167.9,394.2z"/>
</g>
<path class="st1" d="M278.2,419.3c-0.7,0-1.4-0.2-1.9-0.7c-1.3-1.1-1.6-3-0.5-4.4c37.2-46.4,4.7-134.8,4.4-135.7
	c-0.6-1.6,0.2-3.4,1.8-4c1.6-0.6,3.4,0.2,4,1.8c0.4,0.9,8.7,23.3,12.3,51.9c4.9,38.3-1.2,69.4-17.6,89.9
	C280,418.9,279.1,419.3,278.2,419.3z"/>
<g>
	
		<ellipse transform="matrix(0.9946 -0.1042 0.1042 0.9946 -0.8304 14.8244)" class="st2" cx="141.5" cy="15.4" rx="13.9" ry="12.3"/>
	<path class="st1" d="M141.1,30.8c-3.7,0-7.3-1.1-10.3-3.2c-3.6-2.6-5.8-6.3-6.2-10.5c-0.9-8.5,6-16.2,15.3-17.1c0,0,0,0,0,0
		c9.3-1,17.6,5.1,18.5,13.6c0.9,8.5-6,16.2-15.3,17.1C142.4,30.8,141.8,30.8,141.1,30.8z M140.5,6.2c-5.9,0.6-10.3,5.2-9.7,10.3
		c0.2,2.4,1.6,4.5,3.7,6c2.2,1.6,5.1,2.3,8,2c5.9-0.6,10.3-5.2,9.7-10.3S146.4,5.6,140.5,6.2L140.5,6.2z"/>
</g>
<path class="st2" d="M171.1,46.7c0,0,59.4-2.9,85.6,69.3l2.9,23.9l9,5.9l8.1,20.8l-6.2,20l14.3,8.9l-20.9,2.4l-7,11.5l-21.2-2.4
	l-15.5,19.6L194,243.9L171.1,46.7z"/>
<path class="st5" d="M243.2,144.4l-0.5,46.1l13.1,4.4l11.5-6.5C267.3,188.4,273.4,137.6,243.2,144.4z"/>
<polyline class="st5" points="79.8,168.6 60.2,168.5 46.3,179 49.3,206.3 68.4,220.9 84,221.4 92.1,214.9 "/>
<path class="st0" d="M58.3,169.8l13.9-4l-0.1-16l8.2-14.8l14.3-29.7c0,0,11-7.2,14.1-7.6l2.8,7.5l78.8-10.1l3.1-5.4l9.1,4.2
	l16.3,24.4l20,0.4l5,21.5l15.7-4.7l-7.7-32.9c0,0-28.7-22.6-37.7-32.3C202.8,58,179.1,50,179.1,50l-16.6-3.8l-40.3,5.9l-32,16.2
	L63.7,99.7L53.5,140L58.3,169.8z"/>
<path class="st5" d="M68.8,143.4c0,0,0.7,86.1,54.9,102.5c0,0,57.1,27,94.8-26.3c0,0,24-29.1,4.7-98.1l-20-31L192.4,91l-31.5,9.4
	l-34.8,4.4l-14.6,0.4l-2.8-7.5c0,0-26.4,8.9-29.4,41.3C79.2,139,71,137.1,68.8,143.4z"/>
<ellipse transform="matrix(0.9883 -0.1528 0.1528 0.9883 -24.9095 34.2269)" class="st8" cx="210.2" cy="179.2" rx="13.1" ry="11.6"/>
<ellipse transform="matrix(0.9883 -0.1528 0.1528 0.9883 -28.3349 19.6038)" class="st8" cx="113.4" cy="194.1" rx="13.1" ry="11.6"/>
<path class="st1" d="M160.1,176.5c-0.1,0-0.1,0-0.2,0c-14.7-0.9-14.7-12.9-14.7-13.1c0-1.7,1.4-3.1,3.2-3.1c1.7,0,3.1,1.4,3.1,3.1
	c0.1,6.1,7.9,6.8,8.8,6.8c1.7,0.1,3,1.6,2.9,3.3C163.1,175.2,161.7,176.5,160.1,176.5z"/>
<path class="st1" d="M251.9,197.9c-3.4,0-7-0.9-10.4-3.2c-1.4-1-1.8-2.9-0.8-4.3c1-1.4,2.9-1.8,4.3-0.8c8.7,5.9,18.6-2.1,20-3.3
	c13.6-17,2.2-36.7,0.9-38.7c-3.4-3.8-6.9-5.9-10.6-6.1c-5.3-0.3-9.2,3.1-9.3,3.1c-1.3,1.1-3.2,1-4.4-0.2s-1-3.2,0.2-4.4
	c0.2-0.2,5.9-5.2,13.8-4.7c5.5,0.3,10.6,3.2,15.1,8.4c0.1,0.1,0.2,0.2,0.3,0.3c0.2,0.2,16,25-1.4,46.4c-0.1,0.1-0.2,0.2-0.3,0.3
	C266,193.8,259.3,197.9,251.9,197.9z"/>
<path class="st1" d="M56.5,170c-1.5,0-2.8-1.1-3.1-2.6c-0.3-1.7-0.6-3.4-0.8-5.2c-2.5-18.2-1.7-33.6,2.3-47.1
	c10.6-34.9,35.8-58.3,72.9-67.5c27.8-6.9,52-3.6,53.1-3.4c32.9,4.5,52.6,23.6,63.3,38.9c11.6,16.4,15.4,31.7,15.5,32.3
	c0,0,0,0.1,0,0.1c0.1,0.5,2.7,13.4,2.1,22.9c-0.1,1.7-1.6,3-3.3,2.9c-1.7-0.1-3-1.6-2.9-3.3c0.5-8.4-1.8-20.2-2-21.2
	c-0.2-1-4.1-15.3-14.7-30.3c-14.6-20.6-34.4-32.7-58.9-36.1c-0.3,0-24.3-3.3-50.9,3.4c-35.2,8.9-58.2,30.1-68.2,63.3
	c-3.8,12.6-4.5,27.2-2.1,44.5c0.2,1.8,0.5,3.4,0.8,5c0.3,1.7-0.8,3.3-2.5,3.6C56.8,170,56.6,170,56.5,170z"/>
<g>
	<path class="st9" d="M245.9,156.4c0,0,7.7-7.7,13.6,1.5c0,0,9.5,24.9-12.4,22.2"/>
	<path class="st1" d="M250.3,182.7c-1.1,0-2.2-0.1-3.4-0.2c-1.3-0.2-2.2-1.3-2-2.6c0.2-1.3,1.3-2.2,2.6-2c4.9,0.6,8.3-0.2,10.1-2.5
		c3.3-4.2,1.2-13-0.1-16.3c-1.3-2-2.8-3.1-4.3-3.2c-2.4-0.3-4.9,1.6-5.5,2.3c-0.9,0.9-2.4,0.9-3.3,0c-0.9-0.9-0.9-2.4,0-3.3
		c0.2-0.2,4.3-4.2,9.4-3.6c3.1,0.3,5.7,2.2,7.9,5.6c0.1,0.1,0.2,0.3,0.2,0.4c0.2,0.6,5.2,13.8-0.5,21.1
		C258.8,181.2,255.2,182.7,250.3,182.7z"/>
</g>
<path class="st1" d="M75.2,224.5c-6.8,0-12.4-2.2-12.7-2.3c-0.1-0.1-0.3-0.1-0.4-0.2c-25.4-14.7-16.3-43.2-16.2-43.5
	c0-0.1,0.1-0.3,0.2-0.4c7.7-15.3,20.8-14.4,26.1-13.3c1.7,0.4,2.8,2,2.4,3.7c-0.4,1.7-2,2.8-3.7,2.4c-4.8-1-13.6-1-19.2,9.8
	c-0.8,2.5-6.6,24.1,13.3,35.8c1.6,0.6,12.9,4.4,20.6-1.2c1.4-1,3.3-0.7,4.3,0.7c1,1.4,0.7,3.3-0.7,4.3
	C84.8,223.6,79.7,224.5,75.2,224.5z"/>
<g>
	<path class="st9" d="M74.5,181.8c-3.2-0.9-9.8-1.6-12.3,6.4c0,0-2.2,26.4,20.2,16.9"/>
	<path class="st1" d="M73.8,209.5c-2.9,0-5.3-0.8-7.4-2.3c-7.5-5.5-6.5-18.7-6.5-19.2c0-0.2,0-0.3,0.1-0.5c2.2-6.9,7.8-9.9,15.1-7.9
		c1.2,0.3,2,1.6,1.7,2.9s-1.6,2-2.9,1.7c-4.8-1.3-7.9,0.3-9.4,4.6c-0.2,3.3,0.2,11.6,4.6,14.8c2.8,2,6.9,1.8,12.4-0.5
		c1.2-0.5,2.6,0.1,3.1,1.2c0.5,1.2-0.1,2.6-1.2,3.1C79.8,208.8,76.6,209.5,73.8,209.5z"/>
</g>
<path class="st1" d="M230.6,133.5c-1.2,0-2.3-0.7-2.8-1.8c-11.4-25.2-20.8-30.7-20.9-30.8c-1.5-0.8-2.1-2.7-1.3-4.2
	c0.8-1.5,2.6-2.1,4.2-1.3c1.1,0.6,11.4,6.5,23.7,33.7c0.7,1.6,0,3.4-1.6,4.1C231.4,133.4,231,133.5,230.6,133.5z"/>
<path class="st1" d="M79.4,140.9c-0.1,0-0.3,0-0.4,0c-1.7-0.2-2.9-1.8-2.7-3.5c1.9-13.8,8.8-26.5,19.5-35.5c1.3-1.1,3.3-1,4.4,0.4
	c1.1,1.3,1,3.3-0.4,4.4c-9.5,8-15.6,19.3-17.3,31.6C82.2,139.7,80.9,140.9,79.4,140.9z"/>
<ellipse transform="matrix(0.9917 -0.1288 0.1288 0.9917 -17.558 26.291)" class="st1" cx="194.5" cy="148.9" rx="11.5" ry="13.8"/>
<path class="st1" d="M188.2,146.1c-0.2,0-0.3,0-0.5,0c-0.4-0.1-9.6-1.7-12.6-10.6c-0.5-1.5,0.3-3.1,1.8-3.6c1.5-0.5,3.1,0.3,3.6,1.8
	c1.9,5.7,7.9,6.8,8.2,6.8c1.5,0.3,2.5,1.7,2.3,3.2C190.7,145.1,189.5,146.1,188.2,146.1z"/>
<ellipse transform="matrix(0.9917 -0.1288 0.1288 0.9917 -19.4492 16.3086)" class="st1" cx="116.4" cy="158.5" rx="11.5" ry="13.8"/>
<path class="st1" d="M110,155.7c-0.1,0-0.3,0-0.5,0c-0.4-0.1-9.6-1.7-12.6-10.5c-0.5-1.5,0.3-3.1,1.8-3.6c1.5-0.5,3.1,0.3,3.6,1.8
	c1.9,5.7,7.9,6.8,8.2,6.8c1.5,0.3,2.5,1.7,2.3,3.2C112.6,154.8,111.4,155.7,110,155.7z"/>
<path class="st2" d="M159,13.7c0,0-88.5-7.6-103.2,89c0,0-22.8,8.4-19.3,31.3c0,0,108.7-33.1,240.3-36.7c0,0-13.8-18.4-34.9-26.4
	C241.9,70.8,223.8,10.8,159,13.7z"/>
<path class="st10" d="M144.4,17.1c0,0-73.9-11-88.6,85.6c0,0-22.8,8.4-19.3,31.3c0,0,84.2-32.5,215.8-36.1c0,0-2.5-11.8-23.6-19.8
	C228.7,78.1,209.1,14.2,144.4,17.1z"/>
<path class="st1" d="M182.7,54.1c-0.9,0-1.8-0.6-2.2-1.5c-8.9-23.3-19.6-28.1-19.7-28.1c-1.2-0.5-1.7-1.9-1.3-3.1
	c0.5-1.2,1.8-1.8,3-1.3c0.5,0.2,12.6,5.3,22.3,30.8c0.5,1.2-0.1,2.6-1.4,3C183.3,54.1,183,54.1,182.7,54.1z"/>
<path class="st1" d="M107.8,61.8c-1.3,0-2.3-1-2.3-2.3c-0.5-18.4,10.9-32.2,11.4-32.8c0.8-1,2.3-1.1,3.3-0.3c1,0.8,1.1,2.3,0.3,3.3
	c-0.1,0.1-10.8,13-10.3,29.6C110.2,60.6,109.2,61.7,107.8,61.8C107.9,61.8,107.8,61.8,107.8,61.8z"/>
<path class="st11" d="M124.6,65.6c0,0-41.4,7.9-64.7,15.2l-6.5,21.8c0,0,56.4-19.5,78.7-19.2"/>
<path class="st11" d="M161.1,60.9c0,0,41.9-4.6,66.3-4.6L240,75.3c0,0-59.6-2.1-80.9,4.8"/>
<path class="st1" d="M59.8,83.2c-0.9,0-1.8-0.5-2.2-1.5c-0.5-1.2,0.1-2.6,1.3-3.1c0.5-0.2,54.9-22,178.3-25.2c0,0,0,0,0.1,0
	c1.3,0,2.3,1,2.3,2.3c0,1.3-1,2.4-2.3,2.4C115,61.3,61.2,82.8,60.7,83C60.4,83.1,60.1,83.2,59.8,83.2z"/>
<path class="st1" d="M53.4,105c-0.9,0-1.8-0.6-2.2-1.5c-0.5-1.2,0.1-2.6,1.3-3c0.6-0.3,66.1-25.2,193.8-27.9c1.3-0.1,2.4,1,2.4,2.3
	c0,1.3-1,2.4-2.3,2.4c-66.3,1.4-115,8.8-144.2,14.8c-31.7,6.5-47.8,12.7-48,12.8C53.9,104.9,53.7,105,53.4,105z"/>
<g>
	<circle class="st12" cx="146.6" cy="66.7" r="23.8"/>
	<path class="st1" d="M146.6,93.6c-14.8,0-26.9-12.1-26.9-26.9c0-14.8,12.1-26.9,26.9-26.9s26.9,12.1,26.9,26.9
		C173.5,81.5,161.4,93.6,146.6,93.6z M146.6,46.1c-11.4,0-20.7,9.3-20.7,20.7c0,11.4,9.3,20.7,20.7,20.7s20.7-9.3,20.7-20.7
		C167.2,55.3,158,46.1,146.6,46.1z"/>
</g>
<g>
	<circle class="st2" cx="146.3" cy="66.2" r="10.9"/>
	<path class="st1" d="M146.3,79.5c-7.3,0-13.3-6-13.3-13.3s6-13.3,13.3-13.3s13.3,6,13.3,13.3S153.6,79.5,146.3,79.5z M146.3,57.6
		c-4.7,0-8.6,3.9-8.6,8.6s3.9,8.6,8.6,8.6s8.6-3.9,8.6-8.6S151.1,57.6,146.3,57.6z"/>
</g>
<path class="st1" d="M34.1,137c-0.7,0-1.3-0.2-1.9-0.6c-0.9-0.7-1.4-1.8-1.2-2.9c1.6-13.2,8.7-25,19.5-32.7
	C57,60.1,78.6,38.4,95.6,27.4c18.1-11.7,34.7-14.1,36.3-14.3c28-5.1,67.2-5,95.5,23.7c14.4,14.6,20,30.7,21.5,35.7
	c21.1,8.8,27.9,22.4,28.1,23c0.5,0.9,0.4,2-0.1,2.9c-0.5,0.9-1.5,1.5-2.5,1.5C103.8,108,36,136.5,35.3,136.8
	C34.9,136.9,34.5,137,34.1,137z M159.7,16.8c-8.4,0-17.3,0.9-26.7,2.6c-0.1,0-0.1,0-0.2,0c-0.2,0-16.5,2.1-34,13.5
	C75.4,48,61.2,71.6,56.4,103.1c-0.1,0.9-0.6,1.6-1.4,2.1c-8.4,5.6-14.4,14.1-16.9,23.8c18.7-6.7,87.1-27.8,230.5-34.9
	c-3.5-4.4-10.7-11.3-23.4-16.3c-0.9-0.4-1.7-1.2-1.9-2.2c0-0.2-4.7-18.6-20.6-34.6C206.8,24.9,185.6,16.8,159.7,16.8z"/>
<g>
	<path class="st2" d="M247,35.5c0.4-2.9-0.1-5.8-1.6-8.3c-3.1-5.5-9.2-8-13.7-5.5c-3.3,1.8-4.8,5.8-4.1,9.9
		c-5.5,1-10.5,3.8-14.2,7.9c-3.2-2.7-7.3-3.5-10.6-1.7c-4.5,2.5-5.6,9-2.6,14.5c1.4,2.5,3.6,4.5,6.2,5.7c0.1,3.8,1.1,7.4,2.9,10.7
		c6.7,12,22.3,16.1,34.8,9.2s17.2-22.4,10.5-34.4C252.7,40.4,250.1,37.6,247,35.5z"/>
	<path class="st1" d="M231.2,83.8c-9.7,0-19-4.9-23.9-13.7c-1.8-3.2-2.8-6.8-3.2-10.4c-2.5-1.4-4.6-3.5-6-6
		c-3.7-6.6-2.1-14.6,3.5-17.7c3.4-1.9,7.8-1.6,11.5,0.7c3.3-3.2,7.5-5.5,12-6.7c0-4.4,2-8.2,5.5-10.1c2.4-1.3,5.3-1.7,8.1-0.9
		c3.6,1,6.8,3.6,8.8,7.2c1.4,2.5,2.1,5.4,2,8.3c2.9,2.2,5.4,5,7.2,8.1c3.6,6.4,4.3,13.8,2.2,20.9c-2.2,7.1-7,13-13.5,16.7
		C240.8,82.6,235.9,83.8,231.2,83.8z M206.6,39.3c-1,0-1.9,0.2-2.7,0.7c-3.4,1.9-4.1,7-1.7,11.3c1.1,2.1,2.9,3.7,5.1,4.7
		c0.8,0.4,1.4,1.2,1.4,2.1c0.1,3.4,1,6.7,2.7,9.7c6.1,10.9,20.2,14.6,31.6,8.2c5.5-3.1,9.5-8,11.3-13.9c1.8-5.9,1.2-12-1.8-17.3
		c-1.7-2.9-4-5.5-6.8-7.3c-0.8-0.5-1.2-1.4-1-2.3c0.3-2.3-0.1-4.7-1.3-6.8c-1.4-2.5-3.6-4.3-6-5c-1.2-0.3-2.9-0.5-4.5,0.4
		c-2.3,1.3-3.5,4.2-3,7.5c0.2,1.3-0.7,2.4-1.9,2.7c-4.9,0.9-9.5,3.4-12.8,7.2c-0.8,0.9-2.3,1.1-3.3,0.2
		C210.2,40,208.3,39.3,206.6,39.3z"/>
</g>
<path class="st4" d="M241.5,39.4c0.2-2.8-0.4-5.5-1.8-7.9c-3-5.4-8-6.3-11.9-4.2c-2.8,1.6-1,1.4-0.2,5.4c-2.3,0.4-8.2,3.2-10.3,4.4
	s-3.5,1.7-5.1,3.5c-2.8-2.4-6.8-2.8-10-1c-3.9,2.2-4.6,8.3-1.6,13.7c1.3,2.4,3.3,4.4,5.8,5.7c0.3,3.6,1.4,7.2,3.1,10.4
	c6.6,11.8,20.6,16.4,31.4,10.4s14.2-20.4,7.7-32.2C246.9,44.4,244.4,41.6,241.5,39.4z"/>
<path class="st1" d="M231.2,83.8c-9.7,0-19-4.9-23.9-13.7c-1.8-3.2-2.8-6.8-3.2-10.4c-2.5-1.4-4.6-3.5-6-6
	c-3.7-6.6-2.1-14.6,3.5-17.7c3.4-1.9,7.8-1.6,11.5,0.7c3.3-3.2,7.5-5.5,12-6.7c0-4.4,2-8.2,5.5-10.1c2.4-1.3,5.3-1.7,8.1-0.9
	c3.6,1,6.8,3.6,8.8,7.2c1.4,2.5,2.1,5.4,2,8.3c2.9,2.2,5.4,5,7.2,8.1c3.6,6.4,4.3,13.8,2.2,20.9c-2.2,7.1-7,13-13.5,16.7
	C240.8,82.6,235.9,83.8,231.2,83.8z M206.6,39.3c-1,0-1.9,0.2-2.7,0.7c-3.4,1.9-4.1,7-1.7,11.3c1.1,2.1,2.9,3.7,5.1,4.7
	c0.8,0.4,1.4,1.2,1.4,2.1c0.1,3.4,1,6.7,2.7,9.7c6.1,10.9,20.2,14.6,31.6,8.2c5.5-3.1,9.5-8,11.3-13.9c1.8-5.9,1.2-12-1.8-17.3
	c-1.7-2.9-4-5.5-6.8-7.3c-0.8-0.5-1.2-1.4-1-2.3c0.3-2.3-0.1-4.7-1.3-6.8c-1.4-2.5-3.6-4.3-6-5c-1.2-0.3-2.9-0.5-4.5,0.4
	c-2.3,1.3-3.5,4.2-3,7.5c0.2,1.3-0.7,2.4-1.9,2.7c-4.9,0.9-9.5,3.4-12.8,7.2c-0.8,0.9-2.3,1.1-3.3,0.2
	C210.2,40,208.3,39.3,206.6,39.3z"/>
<path class="st1" d="M228.1,66c-4.2,0-7.5-0.9-7.8-1c-1.2-0.4-2-1.6-1.6-2.9c0.4-1.2,1.6-2,2.9-1.6l0,0c0.1,0,9.2,2.5,14.6-1.3
	c2.4-1.7,3.7-4.5,3.9-8.5c0.1-1.3,1.2-2.3,2.5-2.2c1.3,0.1,2.3,1.2,2.2,2.5c-0.3,5.4-2.2,9.5-5.8,12.1C235.6,65.4,231.6,66,228.1,66
	z"/>
<ellipse transform="matrix(0.8733 -0.4871 0.4871 0.8733 2.953 107.943)" class="st1" cx="209" cy="48.3" rx="4.4" ry="5.4"/>
<ellipse transform="matrix(0.8733 -0.4871 0.4871 0.8733 14.1177 119.6244)" class="st1" cx="237.1" cy="32.7" rx="4.4" ry="5.4"/>
<ellipse transform="matrix(0.8733 -0.4871 0.4871 0.8733 -3.0177 114.7886)" class="st1" cx="219.2" cy="63.2" rx="4" ry="4.9"/>
<ellipse transform="matrix(0.8733 -0.4871 0.4871 0.8733 6.9577 125.2157)" class="st1" cx="244.3" cy="49.2" rx="4" ry="4.9"/>
<g>
	<path class="st13" d="M175.7,183.1c0,0,7,35.6-5.5,41.5c0,0-14.3,5.6-18.3-17.2c0,0-1.6-15.9-5.5-20.2"/>
	<path class="st1" d="M166.5,228c-2,0-4.5-0.4-7-1.8c-5.2-2.9-8.7-9.1-10.3-18.3c0-0.1,0-0.1,0-0.2c-0.6-6.2-2.5-16.1-4.8-18.6
		c-1-1.1-1-2.9,0.2-4c1.1-1,2.9-1,4,0.2c4.3,4.8,5.9,18.7,6.2,21.8c1.3,7.3,3.9,12.2,7.4,14.3c3.2,1.9,6.4,1,7,0.8
		c3.9-2,5.9-9.2,5.7-20.3c-0.2-9.3-1.9-17.9-1.9-18c-0.3-1.5,0.7-3,2.2-3.3c1.5-0.3,3,0.7,3.3,2.2c0.8,3.9,7,37.9-7,44.6
		c-0.1,0-0.1,0.1-0.2,0.1C171.1,227.3,169.2,228,166.5,228z M170.3,224.6L170.3,224.6L170.3,224.6z"/>
</g>
<path class="st1" d="M153,190.4c-10.7,0-16-4.2-16.4-4.5c-1.2-1-1.4-2.8-0.4-3.9c1-1.2,2.7-1.4,3.9-0.4c0.2,0.2,12.3,9.1,38.2-3.7
	c1.4-0.7,3.1-0.1,3.8,1.3c0.7,1.4,0.1,3.1-1.3,3.8C169.2,188.7,159.9,190.4,153,190.4z"/>
<path class="st1" d="M171.9,123.9c-1.1,0-2.2-0.6-2.7-1.6c-0.8-1.5-0.2-3.4,1.3-4.2l17.5-9.4c1.5-0.8,3.4-0.2,4.2,1.3
	c0.8,1.5,0.2,3.4-1.3,4.2l-17.5,9.4C172.9,123.8,172.4,123.9,171.9,123.9z"/>
<path class="st1" d="M124.5,132.5c-0.3,0-0.7-0.1-1-0.2l-18.1-6c-1.6-0.5-2.5-2.3-2-3.9c0.5-1.6,2.3-2.5,3.9-2l18.1,6
	c1.6,0.5,2.5,2.3,2,3.9C127,131.6,125.8,132.5,124.5,132.5z"/>
<path class="st14" d="M50.7,315.8l-35.4,47.3c2.3,26.9,35.4,28.5,35.4,28.5l20.8-13.1l14.4-31.3C74.3,335.4,66.9,319.6,50.7,315.8z"
	/>
<path class="st6" d="M101.4,247.8c-17.7,2.3-46.9,63-46.9,63l-3.8,5c16.2,3.7,23.6,19.5,35.1,31.3l3.3-7.1
	C91.4,326.2,101.4,247.8,101.4,247.8z"/>
<g>
	<path class="st14" d="M3.1,341.8c4.2,20.8,13.5,37.1,31.2,35.9c11.2-0.8,24-9.3,27.4-17.4c1.5-3.6,0.8-7.7-1.8-10.6
		c-1.3-1.4,3.7-4.6,4.3-9.9c2.2-18-13.1-43-35.2-36.6C11.9,308-1.1,321.5,3.1,341.8z"/>
	<path class="st1" d="M32.4,380.8c-11.7,0-26-7.1-32.4-38.4v0c-4-19.6,7-36.2,28.1-42.2c9.1-2.6,18.2-0.6,25.6,5.7
		c9.5,8.1,15,22.2,13.5,34.3c-0.5,3.6-2.4,6.4-3.7,8.2c-0.1,0.2-0.2,0.3-0.4,0.5c2.5,3.6,3.1,8.4,1.3,12.6c-3.9,9.4-18,18.4-30,19.3
		C33.8,380.8,33.1,380.8,32.4,380.8z M35.9,305.2c-1.9,0-3.9,0.3-6.1,0.9c-14.1,4-27.7,15.4-23.7,35c0,0,0,0,0,0
		c4.7,23.1,14.1,34.4,27.9,33.4c10.6-0.8,22-8.9,24.7-15.5c1-2.5,0.6-5.3-1.2-7.3c-2.3-2.5-0.3-5.4,1-7c1.1-1.5,2.3-3.2,2.6-5.3
		c1.2-10-3.6-22.1-11.4-28.8C46.5,308,41.9,305.2,35.9,305.2z"/>
</g>
<g>
	
		<ellipse transform="matrix(0.9801 -0.1985 0.1985 0.9801 -62.2527 17.9068)" class="st14" cx="58.2" cy="319.4" rx="12" ry="16.6"/>
	<path class="st1" d="M59.7,339c-3.4,0-6.7-1.4-9.6-4.1c-3.3-3.1-5.7-7.5-6.7-12.5c-1-5-0.5-10,1.3-14.1c2-4.5,5.4-7.4,9.6-8.2
		c8.2-1.7,16.6,5.7,18.7,16.3c2.2,10.7-2.7,20.7-10.9,22.3C61.3,338.9,60.5,339,59.7,339z M56.6,306.1c-0.4,0-0.8,0-1.1,0.1
		c-2.1,0.4-3.9,2.1-5.1,4.7c-1.3,2.9-1.6,6.6-0.9,10.3c0.8,3.7,2.5,7,4.8,9.2c2.1,1.9,4.4,2.8,6.5,2.3c4.7-1,7.5-7.8,6-15
		C65.5,311.1,61,306.1,56.6,306.1z"/>
</g>
<path class="st1" d="M37.2,361.7c-0.9,0-1.8-0.5-2.1-1.4c-0.5-1.2,0-2.6,1.2-3.1l13.2-5.7c1.2-0.5,2.6,0,3.1,1.2
	c0.5,1.2,0,2.6-1.2,3.1l-13.2,5.7C37.8,361.7,37.5,361.7,37.2,361.7z"/>
<path class="st1" d="M30.7,345c-0.9,0-1.8-0.5-2.2-1.4c-0.5-1.2,0.1-2.6,1.3-3.1l13.6-5.6c1.2-0.5,2.6,0.1,3.1,1.3s-0.1,2.6-1.3,3.1
	l-13.6,5.6C31.3,345,31,345,30.7,345z"/>
<path class="st1" d="M25.8,327.3c-0.9,0-1.7-0.5-2.1-1.4c-0.5-1.2,0-2.6,1.2-3.1l11.1-5.1c1.2-0.5,2.6,0,3.1,1.2
	c0.5,1.2,0,2.6-1.2,3.1l-11.1,5.1C26.4,327.2,26.1,327.3,25.8,327.3z"/>
<path class="st1" d="M59.1,305.5c-0.5,0-1-0.1-1.4-0.3c-1.5-0.8-2.1-2.7-1.4-4.2c21.8-43.1,49-64,50.1-64.9c1.4-1,3.3-0.8,4.4,0.6
	c1,1.4,0.8,3.3-0.6,4.4l0,0c-0.3,0.2-27.2,21-48.3,62.7C61.3,304.9,60.2,305.5,59.1,305.5z"/>
<path class="st1" d="M45,394.8c-14.9,0-26.3-12-28-18.3c-0.4-1.7,0.5-3.4,2.2-3.8c1.7-0.4,3.4,0.5,3.8,2.2c1,3.5,10,13.7,22,13.7
	c0.1,0,0.1,0,0.2,0c18-0.1,33.7-23.2,44.3-65c0.4-1.7,2.1-2.7,3.8-2.3c1.7,0.4,2.7,2.1,2.3,3.8c-14.6,57.4-35.4,69.6-50.3,69.7
	C45.1,394.8,45.1,394.8,45,394.8z"/>
<path class="st1" d="M94.1,306.6c-0.3,0-0.5,0-0.8-0.1c-1.2-0.4-1.8-1.8-1.4-3c6.2-16.9,6.1-44,6.1-44.3c0-1.3,1-2.3,2.3-2.4
	c0,0,0,0,0,0c1.3,0,2.3,1,2.3,2.3c0,1.1,0.1,28.2-6.4,45.9C96,306,95.1,306.6,94.1,306.6z"/>
<path class="st1" d="M83.4,350.9c-1.2,0-2.4-0.7-2.9-1.9c-0.1-0.2-3.1-7.5-7.6-12.3c-1.2-1.3-1.1-3.2,0.1-4.4
	c1.3-1.2,3.2-1.1,4.4,0.1c5.3,5.6,8.7,13.8,8.8,14.2c0.6,1.6-0.1,3.4-1.7,4.1C84.2,350.8,83.8,350.9,83.4,350.9z"/>
<path class="st15" d="M84.6,326.3c-0.7,0-1.4-0.3-1.9-0.9c-2-2.6-4.3-4.9-6.9-6.9c-1-0.8-1.2-2.3-0.4-3.3c0.8-1,2.2-1.2,3.3-0.4
	c2.9,2.2,5.6,4.9,7.8,7.8c0.8,1,0.6,2.5-0.4,3.3C85.6,326.2,85.1,326.3,84.6,326.3z"/>
<path class="st5" d="M306.7,89.5c0,0-54.2,80.2-42.6,89.5c0,0,18.8,24.3,37,8.9l52-81.8"/>
<path class="st6" d="M257.5,168c0,0,10,30.4,42,25.4l-48,76.1l-1.8,27.8l-2.3-0.5l-21.1-71.3L257.5,168z"/>
<g>
	<path class="st2" d="M364.1,55c16,16.7,24.8,35.1,12.7,50.1c-7.7,9.6-23.2,15.7-32.5,13.7c-4.1-0.9-7.4-4-8.4-8.2
		c-0.5-2.1-6.4,0.4-11.5-2.3C307,99.2,294.1,70,313.5,54.2C328.4,42,348.6,38.8,364.1,55z"/>
	<path class="st1" d="M348.1,122.3c-1.6,0-3.1-0.1-4.4-0.4c-4.8-1-8.7-4.5-10.3-9c-0.3,0-0.6,0-0.9,0c-2.4,0-6,0.1-9.5-1.7
		c-11.7-6.1-20.7-19.7-22.1-33.1c-1.1-10.4,2.7-19.7,10.6-26.2c18.3-15,39.8-14.6,54.8,1.1l0,0c25.4,26.5,21,44.1,12.9,54.2
		C372.1,115.9,358.6,122.3,348.1,122.3z M333.1,106.6c2.2,0,5.1,0.3,5.8,3.3c0.7,2.9,3,5.2,6,5.8c7.6,1.6,22.1-3.5,29.4-12.6
		c9.6-11.9,5.3-27.4-12.5-46l0,0c-15.2-15.9-33.9-10.7-46.4-0.5c-8,6.5-9,14.9-8.4,20.8c1.1,11.2,9,23.1,18.8,28.2
		c2.1,1.1,4.4,1.1,6.5,1C332.6,106.6,332.9,106.6,333.1,106.6z"/>
</g>
<path class="st5" d="M354.2,61.8c16.3,16.3,30,36.1,20.1,48.4c-6.3,7.8-20.1,11.9-28.9,9.3c-3.9-1.2-7.1-4.1-8.5-8
	c-0.6-1.9-5.9-0.2-10.9-3c-17-9.7-31.5-36.8-15-49.1C323.8,49.7,338.4,46,354.2,61.8z"/>
<path class="st1" d="M348.1,122.3c-1.6,0-3.1-0.1-4.4-0.4c-4.8-1-8.7-4.5-10.3-9c-0.3,0-0.6,0-0.9,0c-2.4,0-6,0.1-9.5-1.7
	c-11.7-6.1-20.7-19.7-22.1-33.1c-1.1-10.4,2.7-19.7,10.6-26.2c18.3-15,39.8-14.6,54.8,1.1l0,0c25.4,26.5,21,44.1,12.9,54.2
	C372.1,115.9,358.6,122.3,348.1,122.3z M333.1,106.6c2.2,0,5.1,0.3,5.8,3.3c0.7,2.9,3,5.2,6,5.8c7.6,1.6,22.1-3.5,29.4-12.6
	c9.6-11.9,5.3-27.4-12.5-46l0,0c-15.2-15.9-33.9-10.7-46.4-0.5c-8,6.5-9,14.9-8.4,20.8c1.1,11.2,9,23.1,18.8,28.2
	c2.1,1.1,4.4,1.1,6.5,1C332.6,106.6,332.9,106.6,333.1,106.6z"/>
<g>
	<ellipse transform="matrix(0.722 -0.6919 0.6919 0.722 23.5993 239.554)" class="st14" cx="309.9" cy="90.4" rx="13" ry="18.1"/>
	<path class="st1" d="M314.9,109.4c-1.1,0-2.2-0.1-3.4-0.3c-4.8-0.9-9.5-3.5-13.3-7.5c-3.8-4-6.3-8.8-6.9-13.6
		c-0.7-5.2,0.7-9.8,3.9-12.9c6.4-6.2,18.2-4.3,26.3,4.1c8.1,8.4,9.4,20.3,3,26.5C322.1,108.1,318.7,109.4,314.9,109.4z M304.9,77.7
		c-2.1,0-4,0.6-5.4,1.9l0,0c-1.8,1.7-2.5,4.4-2.1,7.5c0.5,3.5,2.4,7.1,5.3,10.2c2.9,3,6.4,5,9.9,5.7c3.1,0.6,5.8,0,7.6-1.7
		c3.9-3.7,2.4-11.8-3.2-17.7C313.4,79.8,308.8,77.7,304.9,77.7z M297.4,77.3L297.4,77.3L297.4,77.3z"/>
</g>
<path class="st1" d="M345.4,107c-0.8,0-1.5-0.4-2-1.1c-0.7-1.1-0.3-2.5,0.8-3.2l13.3-8.3c1.1-0.7,2.5-0.3,3.2,0.8
	c0.7,1.1,0.3,2.5-0.8,3.2l-13.3,8.3C346.3,106.9,345.8,107,345.4,107z"/>
<path class="st1" d="M334.4,91.2c-0.8,0-1.5-0.4-2-1.1c-0.7-1.1-0.4-2.5,0.7-3.2l13.5-8.7c1.1-0.7,2.5-0.4,3.2,0.7s0.4,2.5-0.7,3.2
	l-13.5,8.7C335.2,91.1,334.8,91.2,334.4,91.2z"/>
<path class="st1" d="M323.5,74c-0.8,0-1.6-0.4-2-1.1c-0.7-1.1-0.3-2.5,0.8-3.2l11.4-6.8c1.1-0.7,2.5-0.3,3.2,0.8
	c0.7,1.1,0.3,2.5-0.8,3.2l-11.4,6.8C324.3,73.9,323.9,74,323.5,74z"/>
<path class="st1" d="M250.3,302.2c-1.5,0-2.8-1.1-3.1-2.6c-3.5-20,5.4-39.8,5.8-40.6c0.1-0.1,0.1-0.2,0.2-0.4l88.4-141.5
	c0.9-1.5,2.8-1.9,4.3-1c1.5,0.9,1.9,2.8,1,4.3l-88.3,141.3c-0.8,1.9-8.2,19.7-5.3,36.8c0.3,1.7-0.8,3.3-2.5,3.6
	C250.6,302.2,250.5,302.2,250.3,302.2z"/>
<path class="st1" d="M240.4,202.6c-0.6,0-1.1-0.1-1.6-0.5c-1.5-0.9-1.9-2.8-1-4.3l59.6-97.2c0.9-1.5,2.8-1.9,4.3-1
	c1.5,0.9,1.9,2.8,1,4.3L243,201.1C242.5,202.1,241.4,202.6,240.4,202.6z"/>
<path class="st1" d="M292.5,197.8c-9.2,0-18.1-3.9-25.9-11.4c-6.3-6-9.6-12.1-9.8-12.3c-0.7-1.4-0.2-3.1,1.1-3.8
	c1.4-0.7,3.1-0.2,3.8,1.1l0,0c0.1,0.2,12.3,22.1,32.5,20.8c1.6-0.1,2.9,1.1,3,2.6s-1.1,2.9-2.6,3
	C293.9,197.8,293.2,197.8,292.5,197.8z"/>
<path class="st1" d="M242.5,283.8c-1.1,0-2.1-0.8-2.3-1.9c-4.3-21.1-12.8-48.2-12.8-48.5c-0.4-1.2,0.3-2.5,1.5-2.9
	c1.2-0.4,2.5,0.3,2.9,1.5c0.1,0.3,8.7,27.7,13,49c0.3,1.3-0.6,2.5-1.8,2.8C242.8,283.8,242.6,283.8,242.5,283.8z"/>
<path class="st15" d="M278,206.9c-15.9,0-23.3-13.6-23.6-14.2c-0.6-1.1-0.2-2.6,1-3.2c1.1-0.6,2.6-0.2,3.2,1
	c0.3,0.5,7.2,12.9,21.6,11.7c1.3-0.1,2.4,0.8,2.5,2.1c0.1,1.3-0.8,2.4-2.1,2.5C279.7,206.9,278.8,206.9,278,206.9z"/>
<g>
	<polygon class="st16" points="196.2,332.5 181,327.5 208.4,237.4 228.4,220.5 	"/>
	<path class="st1" d="M197.7,335.4l-19.4-6.4l28.2-92.8l26-22L197.7,335.4z M183.8,326.1l10.9,3.6l29.5-102.8l-13.9,11.7
		L183.8,326.1z"/>
</g>
<g>
	<polygon class="st16" points="139.6,332.5 154.8,327.5 127.9,248.2 109,239.9 	"/>
	<path class="st1" d="M138.2,335.3l-32.9-99.5l24.4,10.7l27.9,82.3L138.2,335.3z M112.7,243.9l28.4,85.8l11-3.6l-25.9-76.3
		L112.7,243.9z"/>
</g>
<path class="st1" d="M220.5,231c-0.8,0-1.7-0.3-2.3-1c-1.2-1.3-1.1-3.2,0.2-4.4c4.2-3.9,8.1-8.2,11.5-12.8c0.1-0.1,0.1-0.2,0.2-0.3
	c0.2-0.2,23.2-26.1,4.2-92.1c-0.5-1.7,0.5-3.4,2.1-3.9c1.6-0.5,3.4,0.5,3.9,2.1c19.6,68-3.3,95.5-5.5,97.9
	c-3.6,4.8-7.7,9.4-12.2,13.5C222,230.7,221.3,231,220.5,231z"/>
<path class="st1" d="M156.7,255.1c-16.3,0-27.9-3.5-29-3.9c-24.6-6.8-42.9-28.1-53-61.8c-7.5-25-7.9-47.8-7.9-48.7
	c0-1.7,1.4-3.1,3.1-3.2c0,0,0,0,0,0c1.7,0,3.1,1.4,3.1,3.1c0,0.9,1.8,89.6,56.4,104.6c0,0,0.1,0,0.1,0c0.5,0.2,50.7,15.6,88.8-19.7
	c1.3-1.2,3.2-1.1,4.4,0.2c1.2,1.3,1.1,3.2-0.2,4.4c-21.4,19.8-46,24.4-63,24.9C158.6,255.1,157.7,255.1,156.7,255.1z"/>
</svg>
