<?xml version="1.0" encoding="utf-8"?>
<!-- Generator: Adobe Illustrator 21.1.0, SVG Export Plug-In . SVG Version: 6.00 Build 0)  -->
<svg version="1.1" id="圖層_1" xmlns="http://www.w3.org/2000/svg" xmlns:xlink="http://www.w3.org/1999/xlink" x="0px" y="0px"
	 viewBox="0 0 576.3 440.3" style="enable-background:new 0 0 576.3 440.3;" xml:space="preserve">
<style type="text/css">
	.st0{fill:#FFFFFF;}
	.st1{fill:#FCEDE1;}
	.st2{fill:#CDDC4C;}
	.st3{fill:#FDEEA4;}
	.st4{fill:#1A1A1A;}
	.st5{fill:#F5BBA8;}
	.st6{fill:#EF8519;}
	.st7{fill:#EAB381;}
	.st8{fill:#F2ABB7;}
	.st9{fill:#EBB988;}
	.st10{fill:#AA806A;}
	.st11{fill:#EF8B6E;}
	.st12{fill:#DDCBBA;}
	.st13{fill:#A18F7E;}
	.st14{fill:#BFBFBF;}
</style>
<title>互動設計UI</title>
<path class="st0" d="M137.7,236.5c-31.4-23.5-74.9-40.2-74.9-40.2c-28.6,2.8-41-1.7-46.4-5.6c-1.8-1.3-2.2-3.9-0.9-5.7
	c0.5-0.7,1.1-1.2,1.9-1.4c9.2-3.3,22.9-1.4,22.9-1.4c-21-6.1-30.4-12.8-34.6-17.6c-1.7-1.8-1.6-4.6,0.2-6.2c0.9-0.8,2-1.2,3.2-1.2
	c11.9,0.3,27.5,7.8,27.5,7.8c-14.9-11-23.6-20.1-25.7-24.8c-1-2.5,0.2-5.3,2.6-6.4c1-0.4,2.1-0.5,3.2-0.2c10.6,3,29.9,18,29.9,18
	c-12-13.6-16.1-21.9-16.9-26.9c-0.5-2.7,1.3-5.3,4.1-5.8c1.4-0.2,2.8,0.1,3.9,1c11.5,8.8,28.3,31,28.3,31c-3.5-8.2-4.5-13.6-4.5-17
	c0.1-2.6,2.3-4.6,4.9-4.4c0.9,0,1.8,0.4,2.6,0.9c13.8,11.1,21.1,36.7,21.1,36.7s55,28.3,62,32.8"/>
<polyline class="st1" points="245.8,244 275.7,294 316.1,245.8 "/>
<path class="st0" d="M217.8,222l-7,9c0,0,5,37.1-6,55.7l-5.3,68.2c0,0,31.8-35.8,30.6-121.5"/>
<path class="st0" d="M348.6,217.8l7.5,8.6c0,0-2.6,37.4,9.6,55.2l7.7,61.6c0,0-32.1-27.6-36.4-113.3"/>
<path class="st2" d="M197.6,279.9c0,0-6-11.2-8.8,8.8l-15.9,74.2l7,40.6c0,0,20.3,32.8,21.3,9.5
	C201.2,413.1,210.6,262.1,197.6,279.9z"/>
<path class="st2" d="M366,273.5c0,0-1.6-34.3-4.4-14.3l8.7,77.8l14.2,86.9c0,0,13.2-13.4,14.1-36.7C398.6,387.1,379,255.7,366,273.5
	z"/>
<path class="st3" d="M213.2,231.6c0,0,1.2,48.2-8.5,55.1l-19.2-21.2"/>
<path class="st3" d="M239.3,240.3c0,0-11.2-12.4-8.5,10.1c0,0-6,74.2-31.9,107.9c0,0-2.9,64.3,9,67.4c0,0,80.2,22.1,139.4-0.8
	c0,0-5.3,6,8.7-2.3l7.7-3.1l-4.8-48.3l-5.2-53.5c0,0-19.2-62.3-17.9-82.2l-23.4,13.6l-35.3,41.2C277.2,290,242.7,237.7,239.3,240.3z
	"/>
<path class="st1" d="M430.5,254.6c31.8-23,75.5-39.2,75.5-39.2c28.5,3.2,41.1-1.1,46.5-4.9c1.9-1.3,2.3-3.9,1-5.7
	c-0.5-0.7-1.1-1.2-1.9-1.5c-9.2-3.4-22.9-1.8-22.9-1.8c21.1-5.8,30.5-12.4,34.8-17.1c1.7-1.8,1.6-4.6-0.1-6.2
	c-0.9-0.8-2-1.3-3.2-1.2c-11.9,0.1-27.6,7.4-27.6,7.4c15-10.8,23.9-19.8,26-24.4c1.1-2.5-0.1-5.3-2.5-6.4c-1-0.4-2.1-0.5-3.2-0.2
	c-10.6,2.8-30.2,17.5-30.2,17.5c12.2-13.3,16.4-21.5,17.3-26.6c0.5-2.7-1.3-5.3-4-5.8c-1.4-0.2-2.8,0.1-3.9,0.9
	c-11.6,8.6-28.7,30.6-28.7,30.6c3.6-8.2,4.7-13.5,4.7-16.9c0-2.6-2.1-4.6-4.7-4.6c-1,0-2,0.3-2.8,1c-14,10.9-21.7,36.4-21.7,36.4
	s-75.8,36.8-82.9,41.2"/>
<path class="st1" d="M506.6,178.8c0,0,7,7.5,1.7,15.5"/>
<path class="st4" d="M424.4,263c-1,0-1.9-0.4-2.5-1.3c-1-1.4-0.7-3.3,0.7-4.4c33.3-24.1,87.3-45.1,87.8-45.3c0.5-0.2,1-0.2,1.5-0.2
	c30,3.5,42.2-1.2,46.8-4.3c0.3-0.2,0.4-0.5,0.5-0.8c0-0.2,0-0.5-0.2-0.8c-0.1-0.2-0.3-0.3-0.6-0.4c-8.9-3.3-22.6-1.8-22.8-1.8
	c-1.6,0.2-3.1-0.9-3.4-2.5c-0.3-1.6,0.7-3.2,2.3-3.6c22.9-6.2,31.8-13.2,35.1-16.9c0.4-0.5,0.5-0.9,0.5-1.2c0-0.4-0.2-0.8-0.5-1.1
	c-0.4-0.4-0.8-0.4-1.2-0.4c-11.8,0.1-27.6,7.2-27.8,7.3c-1.5,0.7-3.2,0.1-4-1.3c-0.8-1.4-0.4-3.2,0.9-4.1
	c15.6-11.2,24.4-20.3,26.3-24.3c0.4-0.9,0-1.6-0.3-2c-0.4-0.5-1.2-1-2.2-0.7c-10.5,2.7-30.5,17.6-30.7,17.8c-1.3,1-3.1,0.8-4.2-0.4
	c-1.1-1.2-1.1-3,0-4.2c13-14.3,16.6-22.2,17.3-26.4c0.1-0.6,0-1.2-0.4-1.7c-0.2-0.3-0.6-0.7-1.4-0.8c-0.7-0.1-1.3,0-1.8,0.4
	c-11.7,8.7-29.3,31.2-29.5,31.5c-1,1.2-2.7,1.6-4,0.8c-1.4-0.8-1.9-2.5-1.3-3.9c3.8-8.9,4.6-13.9,4.6-16.5c-0.1-1-0.9-1.8-2-1.7
	c-0.2,0-0.4,0-1,0.4c-13.7,10.7-21.4,36.3-21.5,36.5c-0.2,0.8-0.8,1.5-1.6,1.9c-27.4,13.4-80.7,39.6-86.5,43.2
	c-1.5,0.9-3.4,0.5-4.3-1c-0.9-1.5-0.5-3.4,1-4.3c7.1-4.5,75.5-37.9,85.9-43c1.9-5.7,9.8-27.9,23.4-38.4c0.1-0.1,0.2-0.1,0.3-0.2
	c1.5-0.9,2.9-1.4,4.3-1.4c4.5-0.1,8.2,3.3,8.4,7.8c0,0,0,0.1,0,0.1c0,1.1-0.1,2.3-0.3,3.6c6.2-7.1,14.1-15.6,20.6-20.4
	c0,0,0.1-0.1,0.1-0.1c1.8-1.2,4-1.7,6.2-1.4c2.2,0.3,4.2,1.5,5.5,3.3c1.3,1.8,1.9,4.2,1.5,6.4c-0.7,3.8-2.7,8.4-6.2,13.7
	c5.5-3.3,11.5-6.4,16-7.5c3.1-0.8,6.4,0.2,8.5,2.7c2.1,2.4,2.5,5.7,1.2,8.6c-1.7,3.8-6.5,9.2-13.6,15.3c4.1-1,8.5-1.7,12.6-1.8
	c2.1,0,4.1,0.8,5.5,2.2c1.5,1.4,2.3,3.3,2.4,5.4c0.1,2.1-0.7,4.1-2.1,5.6c-3.2,3.5-9.3,8.3-20.7,12.9c2.5,0.4,4.9,1,7.2,1.8
	c1.4,0.5,2.6,1.4,3.5,2.6c1.2,1.6,1.6,3.5,1.3,5.5c-0.3,1.9-1.4,3.6-3,4.8c0,0-0.1,0-0.1,0.1c-6.4,4.4-20.4,8.9-50.3,5.5
	c-6.4,2.6-55.1,22.1-85.7,44.2C425.7,262.8,425.1,263,424.4,263z"/>
<path class="st4" d="M513.9,195.1c-0.5,0-0.9-0.1-1.3-0.4c-1.1-0.7-1.4-2.2-0.6-3.2c4.5-6.6-1.4-13.1-1.7-13.4
	c-0.9-0.9-0.8-2.4,0.1-3.3c0.9-0.9,2.4-0.8,3.3,0.1c3,3.2,7.4,11.4,2.1,19.2C515.4,194.7,514.7,195.1,513.9,195.1z"/>
<path class="st1" d="M144.9,239.5c-31.5-23.5-75-40.2-75-40.2c-28.6,2.8-41-1.7-46.4-5.5c-1.8-1.3-2.2-3.9-0.9-5.7
	c0.5-0.7,1.1-1.2,1.9-1.4c9.2-3.3,22.9-1.4,22.9-1.4c-21-6.1-30.4-12.8-34.5-17.6c-1.7-1.8-1.6-4.6,0.2-6.2c0.9-0.8,2-1.2,3.2-1.2
	c11.9,0.3,27.5,7.8,27.5,7.8c-14.9-11-23.6-20.1-25.7-24.8c-1-2.5,0.2-5.3,2.6-6.4c1-0.4,2.1-0.5,3.2-0.2
	c10.6,3,29.9,17.9,29.9,17.9c-12-13.5-16.1-21.8-16.9-26.9c-0.5-2.7,1.4-5.3,4.1-5.8c1.4-0.2,2.8,0.1,3.9,1
	c11.5,8.7,28.3,31,28.3,31c-3.5-8.2-4.5-13.5-4.5-17c0.1-2.6,2.2-4.6,4.8-4.5c1,0,1.9,0.4,2.7,1c13.8,11,21.2,36.7,21.2,36.7
	s55,28.2,62.1,32.7"/>
<path class="st1" d="M69.8,162.7c0,0-7.1,7.4-1.9,15.5"/>
<path class="st4" d="M150.8,248c-0.6,0-1.3-0.2-1.9-0.6c-30.4-22.5-78.6-42.8-85-45.4c-30.1,3-43.9-1.7-50.2-6.2
	c-1.6-1.2-2.7-2.9-3-4.8c-0.3-2,0.1-4,1.3-5.6c0.8-1.1,2-2,3.4-2.6c2.2-0.8,4.7-1.3,7.1-1.7c-11.3-4.8-17.4-9.6-20.5-13.2
	c-1.4-1.5-2.1-3.5-2-5.6c0.1-2.1,1-4,2.5-5.4c1.6-1.4,3.6-2.1,5.6-2c4,0.1,8.3,0.9,12.4,2c-6.9-6.1-11.6-11.6-13.4-15.5
	c-1.3-2.9-0.7-6.2,1.4-8.7c2.2-2.5,5.4-3.4,8.5-2.5c4.6,1.3,10.4,4.4,15.9,7.8c-3.5-5.4-5.5-10-6.2-13.9c-0.6-4.7,2.5-8.9,7-9.7
	c2.4-0.3,4.6,0.2,6.4,1.6c6.4,4.8,14.2,13.4,20.3,20.6c-0.2-1.3-0.2-2.5-0.2-3.6c0.1-2.2,1-4.2,2.6-5.6c1.6-1.5,3.7-2.3,5.8-2.2
	c1.6,0,3.2,0.6,4.6,1.6c13.5,10.8,21.2,33.2,22.9,38.9c10.3,5.2,78.1,39.6,85.3,44c1.5,0.9,1.9,2.8,1,4.3c-0.9,1.5-2.8,1.9-4.3,1
	c-7.3-4.6-85.2-44-86-44.4c-0.8-0.4-1.4-1.1-1.6-1.9c-0.1-0.3-7.5-26.2-21.1-37c-0.3-0.2-0.7-0.3-1-0.3c-0.5,0-1,0.2-1.4,0.5
	c-0.3,0.2-0.6,0.7-0.6,1.3c-0.1,3.8,1.4,9.4,4.4,16.6c0.6,1.5,0,3.1-1.3,3.9c-1.4,0.8-3.1,0.4-4-0.8c-0.2-0.2-17.5-23.2-29.1-31.9
	c0,0-0.1-0.1-0.1-0.1c-0.5-0.4-1.1-0.4-1.5-0.3c-1.1,0.2-2,1.4-1.8,2.6c0.7,4.1,4.2,12.1,17,26.7c1.1,1.2,1,3-0.1,4.2
	c-1.1,1.2-2.9,1.3-4.2,0.3c-0.2-0.2-19.9-15.3-30.4-18.2c-1.2-0.3-1.9,0.4-2.1,0.6c-0.2,0.3-0.8,1-0.4,2c1.9,4.2,10.7,13.5,26,24.7
	c1.3,1,1.7,2.7,0.8,4.1c-0.8,1.4-2.6,1.9-4,1.2c-0.2-0.1-16-7.5-27.7-7.8c-0.1,0-0.1,0-0.2,0c-0.5,0-0.9,0.2-1.1,0.4
	c-0.4,0.3-0.4,0.8-0.5,1c0,0.4,0.1,0.9,0.4,1.2c4,4.5,13.3,11.2,34.9,17.4c1.6,0.4,2.5,2,2.2,3.6c-0.3,1.6-1.8,2.7-3.5,2.5
	c-0.1,0-13.8-1.8-22.7,1.4c-0.2,0.1-0.4,0.2-0.5,0.4c-0.2,0.3-0.2,0.6-0.2,0.8c0.1,0.3,0.2,0.6,0.5,0.8c4.5,3.2,16.5,8.1,46.7,5
	c0.5-0.1,1,0,1.5,0.2c0.5,0.2,54,22,87.1,46.5c1.4,1,1.7,3,0.7,4.4C152.7,247.5,151.8,248,150.8,248z"/>
<path class="st4" d="M62.3,178.9c-0.8,0-1.5-0.4-2-1.1c-5.2-7.9-0.7-16,2.4-19.2c0.9-0.9,2.4-1,3.3-0.1c0.9,0.9,1,2.4,0.1,3.3
	c-0.3,0.3-6.2,6.7-1.8,13.4c0.7,1.1,0.4,2.5-0.7,3.2C63.2,178.8,62.8,178.9,62.3,178.9z"/>
<path class="st4" d="M277.4,440.3c-9,0-17.2-0.6-24.4-1.4c-32.2-3.8-51.9-13.8-52.7-14.2c-1-0.5-1.6-1.5-1.7-2.6
	c-2-45.8-0.8-92.3,3.5-138.3c0.2-1.7,1.7-3,3.4-2.8c1.7,0.2,3,1.7,2.8,3.4c-4.2,45.1-5.4,90.7-3.6,135.6c5.3,2.4,23.2,9.8,49.3,12.8
	c28.5,3.3,72.7,2.1,122.6-22.7c0.2-11.3-9.4-86-15.7-132.5c-0.2-1.7,1-3.3,2.7-3.5c1.7-0.2,3.3,1,3.5,2.7c0,0.3,4.6,33.8,8.8,67
	c2.4,19.5,4.3,35.1,5.4,46.4c0.7,6.7,1.2,12,1.4,15.6c0.3,5.7,0.4,8.1-1.9,9.2C341.5,434.7,305.5,440.3,277.4,440.3z M378,409.3
	C378,409.3,378,409.3,378,409.3C378,409.3,378,409.3,378,409.3z"/>
<path class="st4" d="M277.4,291.9c-0.1,0-0.1,0-0.2,0c-0.9,0-1.6-0.5-2.1-1.2l-31.6-45.1c-0.9-1.3-0.6-3,0.7-3.9
	c1.3-0.9,3-0.6,3.9,0.7l29.6,42.2l36.3-40.7c1-1.2,2.8-1.3,4-0.2c1.2,1,1.3,2.8,0.2,4l-38.7,43.3C279,291.5,278.2,291.9,277.4,291.9
	z"/>
<path class="st4" d="M267.1,262.2c-1,0-1.9-0.6-2.2-1.6l-3.1-9.6c-0.4-1.2,0.3-2.5,1.5-2.9c1.2-0.4,2.5,0.3,2.9,1.5l3.1,9.6
	c0.4,1.2-0.3,2.5-1.5,2.9C267.6,262.2,267.4,262.2,267.1,262.2z"/>
<g>
	<circle class="st0" cx="276.6" cy="322.8" r="7.6"/>
	<path class="st4" d="M276.6,332.7c-5.5,0-9.9-4.5-9.9-9.9c0-5.5,4.5-9.9,9.9-9.9s9.9,4.5,9.9,9.9
		C286.6,328.2,282.1,332.7,276.6,332.7z M276.6,317.5c-2.9,0-5.3,2.4-5.3,5.3s2.4,5.3,5.3,5.3s5.3-2.4,5.3-5.3
		S279.5,317.5,276.6,317.5z"/>
</g>
<g>
	<circle class="st0" cx="278.1" cy="361" r="7.6"/>
	<path class="st4" d="M278.1,370.9c-5.5,0-9.9-4.5-9.9-9.9c0-5.5,4.5-9.9,9.9-9.9s9.9,4.5,9.9,9.9
		C288.1,366.4,283.6,370.9,278.1,370.9z M278.1,355.7c-2.9,0-5.3,2.4-5.3,5.3s2.4,5.3,5.3,5.3s5.3-2.4,5.3-5.3
		S281,355.7,278.1,355.7z"/>
</g>
<g>
	<path class="st5" d="M258,312.2c0,0,0.3,66.9,5.9,105.6"/>
	<path class="st4" d="M263.9,420.1c-1.1,0-2.1-0.8-2.3-2c-5.6-38.4-5.9-105.3-5.9-105.9c0-1.3,1-2.3,2.3-2.4c0,0,0,0,0,0
		c1.3,0,2.3,1,2.3,2.3c0,0.7,0.4,67.2,5.9,105.3c0.2,1.3-0.7,2.5-2,2.7C264.1,420.1,264,420.1,263.9,420.1z"/>
</g>
<path class="st4" d="M205.5,286.8c-0.6,0-1.3-0.2-1.9-0.6l-20.3-15c-1.4-1-1.7-3-0.7-4.4s3-1.7,4.4-0.7l20.3,15c1.4,1,1.7,3,0.7,4.4
	C207.4,286.3,206.5,286.8,205.5,286.8z"/>
<path class="st4" d="M202,355.6c-0.4,0-0.8-0.1-1.1-0.3c-1.1-0.6-1.5-2.1-0.9-3.2c33.3-59.2,27.1-115.4,27-116
	c-0.2-1.3,0.8-2.4,2-2.6c1.3-0.2,2.4,0.8,2.6,2c0.1,0.6,6.5,58.3-27.6,118.8C203.6,355.2,202.8,355.6,202,355.6z"/>
<path class="st4" d="M209.5,278.2c-0.1,0-0.3,0-0.4,0c-1.3-0.2-2.1-1.4-1.9-2.7c2-12.3,2.4-40.6,2.4-40.8c0-1.3,1.1-2.3,2.4-2.3
	c1.3,0,2.3,1.1,2.3,2.4c0,1.2-0.3,28.9-2.4,41.6C211.6,277.4,210.6,278.2,209.5,278.2z"/>
<path class="st4" d="M369.5,340.3c-0.5,0-1-0.2-1.4-0.5c-12.5-9.7-22-29.9-28.2-59.9c-4.6-22.1-5.7-41.7-5.7-41.9
	c-0.1-1.3,0.9-2.4,2.2-2.5c1.3-0.1,2.4,0.9,2.5,2.2c0,0.8,4.3,76.7,32.1,98.4c1,0.8,1.2,2.3,0.4,3.3
	C370.9,340,370.2,340.3,369.5,340.3z"/>
<path class="st4" d="M201.7,425c-0.3,0-0.6,0-0.8-0.1c-9.9-2.8-17.5-9.1-22.6-18.7c-8.9-17-10-44.3-3-81c5.1-27,12.8-49.5,12.9-49.7
	c0.6-1.6,2.3-2.5,4-1.9c1.6,0.6,2.5,2.3,1.9,4c-0.3,0.9-30.1,87.9-10.2,125.8c4.3,8.2,10.4,13.3,18.7,15.6c1.7,0.5,2.6,2.2,2.2,3.8
	C204.3,424.1,203.1,425,201.7,425z"/>
<path class="st4" d="M392.7,420.9c-0.5,0-1-0.1-1.4-0.4c-1.5-0.8-2.1-2.7-1.3-4.2c21.4-41-3.1-115.9-3.4-116.7
	c-0.5-1.6,0.3-3.4,2-3.9c1.6-0.5,3.4,0.3,3.9,2c0.3,0.8,6.5,19.7,10.1,44.1c4.9,33.1,2.5,59.2-7.1,77.4
	C394.9,420.3,393.8,420.9,392.7,420.9z"/>
<g>
	
		<rect x="263.7" y="269.3" transform="matrix(0.3145 -0.9493 0.9493 0.3145 -43.7269 493.9896)" class="st6" width="112.9" height="16"/>
	<path class="st4" d="M311.4,336.2l-19.4-6.4l36.9-111.4l19.4,6.4L311.4,336.2z M297.6,326.9l11,3.6l34.1-103l-11-3.6L297.6,326.9z"
		/>
</g>
<g>
	
		<rect x="235.3" y="220.8" transform="matrix(0.9493 -0.3145 0.3145 0.9493 -74.859 90.5961)" class="st6" width="16" height="112.9"/>
	<path class="st4" d="M252.1,336.2l-36.9-111.4l19.4-6.4l36.9,111.4L252.1,336.2z M220.8,227.6l34.1,103l11-3.6l-34.1-103
		L220.8,227.6z"/>
</g>
<g>
	
		<ellipse transform="matrix(0.1297 -0.9916 0.9916 0.1297 247.8943 313.2094)" class="st0" cx="302.4" cy="15.4" rx="12.4" ry="13.9"/>
	<path class="st4" d="M302.8,30.9c-0.8,0-1.6-0.1-2.4-0.2c-4.4-0.6-8.4-2.7-11.2-5.9c-2.9-3.3-4.2-7.5-3.6-11.7
		C286,9,288.4,5.3,292,2.8c3.5-2.4,7.9-3.4,12.4-2.8c9.3,1.2,16,9.1,14.9,17.6C318.2,25.3,311.1,30.9,302.8,30.9z M301.9,6.1
		c-2.3,0-4.6,0.7-6.4,1.9c-2.2,1.5-3.5,3.6-3.8,6c0,0,0,0,0,0c-0.3,2.4,0.5,4.8,2.2,6.8c1.8,2.1,4.4,3.4,7.3,3.8
		c5.9,0.8,11.2-2.7,11.9-7.8c0.7-5.1-3.6-9.8-9.5-10.6C303,6.1,302.5,6.1,301.9,6.1z M288.6,13.6L288.6,13.6L288.6,13.6z"/>
</g>
<path class="st0" d="M323.9,52.8c0,0,58.5,11,67.2,87.3l-2.8,24l7.4,7.8l3,22.1L388,212l30.4,18.3l26.1,26.3l-9.5,9.5l-85.6-42.3
	l-19.7,15.5l-29.6,10.8L323.9,52.8z"/>
<path class="st1" d="M371.4,164.7l-11.2,44.8l11.7,7.3l12.7-3.6C384.6,213.2,402.3,165.1,371.4,164.7z"/>
<polyline class="st1" points="206.7,150.3 187.6,145.6 171.6,152.6 168.2,179.9 183.4,198.5 198.5,202.6 207.9,198.1 "/>
<path class="st7" d="M185.4,146.5l14.4-0.7l3.6-15.6l11.5-12.5l20.8-25.6c0,0,12.4-4.5,15.5-4.1l1,7.9l79,8.5l4.3-4.5l7.9,6.2
	l10.2,27.6l19.4,5l-0.1,22.1l16.4-0.9l0.2-33.9c0,0-22.7-28.7-29.2-40.2C352.2,71.2,331,57.9,331,57.9l-15.3-7.5l-40.6-3.6
	l-34.9,8.4L207,79.5l-19.3,36.8L185.4,146.5z"/>
<path class="st7" d="M360.4,211.2l-13.7,17.2l12,39.9l20.9,34.1l42.5-24l-3.9-16.6l17,4.4c0,0-14.7-26-50.5-53
	C384.6,213.2,366.1,217.8,360.4,211.2z"/>
<polygon class="st7" points="181.7,195.6 127.4,221.5 132.8,233.2 148.5,233.5 140.5,248.3 170.1,282.7 217.8,222.4 205.6,201.4 "/>
<path class="st1" d="M201.8,123.2c0,0-19.4,84,29.6,112.5c0,0,49.3,39.6,98.4-3.6c0,0,30.1-22.8,27.4-94.4l-12.3-34.8l-10.7-2
	l-32.9,1.9l-34.9-3.9l-14.3-3l-1-7.9c0,0-27.8,2.6-38.3,33.4C212.9,121.3,205.4,117.6,201.8,123.2z"/>
<ellipse transform="matrix(7.974643e-02 -0.9968 0.9968 7.974643e-02 116.3693 504.8985)" class="st8" cx="331.6" cy="189.4" rx="11.7" ry="13.2"/>
<ellipse transform="matrix(8.089661e-02 -0.9967 0.9967 8.089661e-02 32.2902 400.6986)" class="st8" cx="233.4" cy="182.8" rx="11.6" ry="13.1"/>
<path class="st4" d="M283.7,176.6c-0.3,0-0.6,0-0.9-0.1c-14-4.3-11.2-16-11.2-16.1c0.4-1.7,2.1-2.7,3.8-2.3c1.7,0.4,2.7,2.1,2.3,3.7
	c-0.1,0.7-1.1,6.2,7,8.7c1.6,0.5,2.6,2.3,2.1,3.9C286.3,175.7,285,176.6,283.7,176.6z"/>
<path class="st4" d="M372.4,219.4c-5,0-10.3-1.5-14.4-6.2c-1.2-1.3-1.1-3.3,0.2-4.4c1.3-1.2,3.3-1.1,4.4,0.2
	c3.1,3.4,7.3,4.7,12.6,3.9c3.7-0.6,6.8-2,7.6-2.4c17.3-13.5,10.7-35,9.9-37.4c-2.4-4.5-5.3-7.3-8.8-8.4c-5-1.6-9.8,0.9-9.8,0.9
	c-1.5,0.8-3.4,0.2-4.2-1.3c-0.8-1.5-0.3-3.4,1.2-4.2c0.3-0.2,7-3.7,14.5-1.4c5.3,1.6,9.5,5.5,12.7,11.7c0.1,0.1,0.1,0.3,0.2,0.4
	c0.1,0.3,9.7,28-12.1,44.8c-0.1,0.1-0.2,0.2-0.4,0.3C383,217.6,377.9,219.4,372.4,219.4z"/>
<path class="st4" d="M387.9,165.2c-0.3,0-0.6,0-0.9-0.1c-1.6-0.5-2.6-2.3-2.1-3.9c2.5-8,2.9-20.1,3-21.1c0-1-0.4-15.8-7.2-32.9
	c-9.4-23.4-25.9-39.8-49-48.8c-0.2-0.1-22.9-8.9-50.3-8.5c-36.4,0.4-63.7,15.8-81.1,45.7c-6.6,11.4-10.7,25.4-12.4,42.8
	c-0.2,1.6-0.3,3.2-0.4,5.1c-0.1,1.7-1.6,3-3.3,2.9c-1.7-0.1-3-1.6-2.9-3.3c0.1-1.9,0.2-3.6,0.4-5.4c1.8-18.3,6.1-33.1,13.2-45.3
	c18.4-31.5,48.4-48.4,86.7-48.8c28.7-0.3,51.5,8.6,52.5,9c30.9,12,45.7,35.2,52.6,52.5c7.4,18.7,7.6,34.4,7.6,35.1c0,0,0,0.1,0,0.1
	c0,0.6-0.4,13.7-3.2,22.8C390.5,164.3,389.3,165.2,387.9,165.2z"/>
<g>
	<path class="st9" d="M371.2,177c0,0,9.3-5.7,12.9,4.7c0,0,3.5,26.4-17.2,18.7"/>
	<path class="st4" d="M373.7,204.1c-2.3,0-4.8-0.5-7.6-1.6c-1.2-0.5-1.8-1.8-1.4-3c0.5-1.2,1.8-1.8,3-1.4c4.6,1.7,8.1,1.7,10.4-0.1
		c4.2-3.4,4.1-12.3,3.7-15.8c-0.8-2.3-2-3.7-3.5-4.2c-2.6-0.9-5.9,0.9-5.9,0.9c-1.1,0.7-2.5,0.3-3.2-0.8c-0.7-1.1-0.3-2.5,0.8-3.2
		c0.2-0.1,5.1-3.1,9.9-1.4c2.9,1.1,5.1,3.5,6.4,7.3c0.1,0.1,0.1,0.3,0.1,0.5c0.1,0.6,1.8,14.6-5.4,20.3
		C379,203.3,376.6,204.1,373.7,204.1z"/>
</g>
<path class="st4" d="M195.6,204.3c-9.6,0-17.8-5.7-18.3-6c-0.1-0.1-0.2-0.2-0.3-0.3c-21.3-20.2-5.9-45.8-5.7-46.1
	c0.1-0.1,0.2-0.3,0.3-0.4c11.4-13.5,24.7-8.6,28.5-6.8c1.6,0.7,2.2,2.6,1.5,4.2c-0.7,1.6-2.6,2.2-4.2,1.5c-4.4-2.1-13-4.2-20.9,5
	c-1.3,2.2-12,21.9,4.6,37.9c1.4,0.9,11.5,7.3,20.3,3.6c1.6-0.7,3.4,0.1,4.1,1.7c0.7,1.6-0.1,3.4-1.7,4.1
	C201,203.9,198.2,204.3,195.6,204.3z"/>
<g>
	<path class="st9" d="M198.5,161.9c-2.9-1.6-9.2-3.8-13.4,3.3c0,0-8.3,25.2,15.8,21.2"/>
	<path class="st4" d="M196.1,189.1c-5,0-8.8-1.5-11.4-4.5c-6.1-7.1-2-19.7-1.8-20.2c0.1-0.2,0.1-0.3,0.2-0.5
		c4.4-7.4,11.4-7,16.5-4.2c1.1,0.6,1.5,2,0.9,3.2c-0.6,1.1-2,1.5-3.2,0.9c-4.3-2.4-7.7-1.6-10.1,2.2c-1,3.1-2.5,11.4,1,15.5
		c2.2,2.6,6.3,3.4,12.2,2.4c1.3-0.2,2.5,0.7,2.7,1.9c0.2,1.3-0.7,2.5-1.9,2.7C199.4,189,197.7,189.1,196.1,189.1z"/>
</g>
<path class="st4" d="M379.5,305.4c-0.8,0-1.6-0.3-2.2-0.9c-0.8-0.8-19-19.4-31.9-72.2c-0.4-1.7,0.6-3.4,2.3-3.8
	c1.7-0.4,3.4,0.6,3.8,2.3c10.7,43.5,25,63,29.1,67.9c11.4-3.4,25.5-12.9,38.1-21.9c-0.6-2.8-2.1-8.9-3.6-14.4c-0.3-1.1,0-2.2,0.8-3
	c0.8-0.8,1.9-1.1,3-0.8c4.8,1.3,12.2,3.2,15.3,4c2.8-2.6,4.9-4.7,6.3-6.2c-26.7-31.6-54.3-40.4-54.6-40.5c-1.6-0.5-2.6-2.3-2.1-3.9
	c0.5-1.6,2.2-2.6,3.9-2.1c1.2,0.4,30.8,9.8,59.3,44.6c1,1.2,0.9,2.9-0.1,4c-0.1,0.2-3.7,4.2-9.7,9.7c-1.3,1.3-1.4,1.2-11.5-1.4
	c-1.1-0.3-2.2-0.6-3.3-0.9c3.3,12.6,3.2,13.3,1.4,14.7c-14.8,10.7-30.4,21.3-43.6,24.5C380,305.3,379.8,305.4,379.5,305.4z
	 M432.9,263.8C432.9,263.8,432.9,263.8,432.9,263.8C432.9,263.8,432.9,263.8,432.9,263.8z M432.9,263.8
	C432.9,263.8,432.9,263.8,432.9,263.8C432.9,263.8,432.9,263.8,432.9,263.8z M433,263.7C433,263.8,433,263.8,433,263.7
	C433,263.8,433,263.8,433,263.7C433,263.7,433,263.7,433,263.7z"/>
<path class="st0" d="M403.8,248.1c-0.7,0-1.3-0.3-1.8-0.8c-6.4-7.5-17.6-13.7-17.8-13.8c-1.1-0.6-1.5-2-0.9-3.2
	c0.6-1.1,2.1-1.5,3.2-0.9c0.5,0.3,12,6.7,19,14.8c0.8,1,0.7,2.5-0.2,3.3C404.9,247.9,404.4,248.1,403.8,248.1z"/>
<path class="st10" d="M382.5,252.5c-0.7,0-1.5-0.3-1.9-1l-9.7-13.7c-0.7-1.1-0.5-2.5,0.6-3.3c1.1-0.7,2.5-0.5,3.3,0.6l9.7,13.7
	c0.7,1.1,0.5,2.5-0.6,3.3C383.5,252.4,383,252.5,382.5,252.5z"/>
<path class="st4" d="M170,285.9c-0.6,0-1.2-0.2-1.7-0.5c-10.6-6.8-21.3-21.8-30.4-35.3c-0.1-0.1-0.1-0.2-0.2-0.4
	c-0.8-1.7-0.7-2.3,5.5-13.2c-0.8,0-1.7,0-2.5,0c-2,0-3.9-0.1-5.4-0.1c-3.1-0.1-4.3-0.1-5.2-1.9c-3.5-6.9-5.4-11.7-5.5-11.9
	c-0.5-1.3-0.1-2.8,1-3.6c21.8-16.6,41-23.1,53.1-25.7c1.7-0.4,3.3,0.7,3.7,2.4c0.4,1.7-0.7,3.3-2.4,3.7c-9.2,1.9-27.5,7.5-48.7,23.1
	c0.8,1.7,2,4.4,3.6,7.7c2.7,0.1,8.5,0.1,13.7,0.2c1.1,0,2.1,0.6,2.7,1.6s0.6,2.1,0,3.1c-2.8,5-5.9,10.5-7.2,13
	c8.5,12.4,17.3,24.5,25.6,30.7c16.9-16.8,31.7-35.4,44.1-55.3c0.9-1.5,2.8-1.9,4.3-1c1.5,0.9,1.9,2.8,1,4.3
	c-13.1,21.1-28.8,40.7-46.9,58.3C171.6,285.6,170.8,285.9,170,285.9z M135.6,231.7C135.6,231.7,135.6,231.7,135.6,231.7
	C135.6,231.7,135.6,231.7,135.6,231.7z"/>
<path class="st10" d="M165.2,224.3c-0.7,0-1.4-0.3-1.9-1c-0.8-1-0.5-2.5,0.5-3.3c8.3-6,20-9,20.5-9.2c1.2-0.3,2.5,0.4,2.8,1.7
	c0.3,1.3-0.4,2.5-1.7,2.8c-0.1,0-11.4,3-18.9,8.4C166.2,224.1,165.7,224.3,165.2,224.3z"/>
<path class="st10" d="M182.1,234.2c-0.7,0-1.3-0.3-1.8-0.8c-0.8-1-0.7-2.5,0.2-3.3l12.1-10.5c1-0.8,2.5-0.7,3.3,0.2
	c0.8,1,0.7,2.5-0.2,3.3l-12.1,10.5C183.2,234,182.7,234.2,182.1,234.2z"/>
<path class="st4" d="M362.3,151.2c-1.5,0-2.8-1-3.1-2.5c-5.2-27.3-13.1-34.7-13.2-34.7c-1.3-1.1-1.5-3.1-0.3-4.4s3.1-1.5,4.4-0.3
	c1,0.8,9.6,9,15.2,38.3c0.3,1.7-0.8,3.3-2.5,3.7C362.7,151.2,362.5,151.2,362.3,151.2z"/>
<path class="st4" d="M285.7,255.2c-5.7,0-10.9-0.5-15.6-1.2c-20.6-3.2-34.8-11.5-35.9-12.2c-22.4-12.3-35.3-37.4-37.3-72.5
	c-1.5-26.1,3.5-48.3,3.7-49.3c0.4-1.7,2.1-2.7,3.7-2.4c1.7,0.4,2.7,2.1,2.4,3.7c-0.2,0.9-19.2,87.7,30.6,115c0,0,0.1,0,0.1,0.1
	c0.1,0.1,14.1,8.4,34,11.5c26.4,4.1,50.4-2.6,71.2-19.7c0.1-0.1,0.2-0.1,0.3-0.2c0.3-0.2,28.7-20,25.5-88.6c-0.1-1.7,1.3-3.2,3-3.3
	c1.7-0.1,3.2,1.3,3.3,3c3.3,70.7-25.4,92.2-28.1,94C325.3,250.4,303.5,255.2,285.7,255.2z"/>
<path class="st4" d="M213.4,123.2c-0.4,0-0.8-0.1-1.1-0.2c-1.6-0.6-2.4-2.4-1.8-4c5.1-13,14.7-23.7,27.2-30c1.5-0.8,3.4-0.2,4.2,1.4
	c0.8,1.5,0.2,3.4-1.4,4.2c-11.1,5.6-19.7,15.1-24.2,26.8C215.8,122.4,214.7,123.2,213.4,123.2z"/>
<g>
	<path class="st11" d="M266.1,187.5c0,0-6.5,33,6.6,37.1c0,0,16.4,8.8,20-36.5"/>
	<path class="st4" d="M275.9,228c-1.8,0-3.3-0.4-4.3-0.9c-14.8-5-9-36.6-8.3-40.3c0.3-1.5,1.8-2.5,3.3-2.2c1.5,0.3,2.5,1.8,2.2,3.3
		c-1.6,7.9-4,31.1,4.7,33.9c0.2,0.1,0.3,0.1,0.5,0.2c0,0,2.2,1,4.8-0.4c3.3-1.9,9.1-8.8,11.1-33.8c0.1-1.5,1.5-2.7,3-2.6
		c1.5,0.1,2.7,1.5,2.6,3c-1.7,21.2-6.4,34.2-14.1,38.4C279.4,227.7,277.6,228,275.9,228z"/>
</g>
<path class="st4" d="M282.1,190.4c-15.6,0-22.5-6.7-23.7-7.9c-0.7-0.7-3.2-3.2-2.7-6.6c0.4-2.8,2.6-5.1,6.6-6.7
	c1.4-0.6,3.1,0.1,3.7,1.5c0.6,1.4-0.1,3.1-1.5,3.7c-2.2,1-3.1,1.9-3.2,2.4c-0.1,0.6,0.7,1.5,0.9,1.7c0.1,0.1,0.2,0.2,0.3,0.3
	c0.1,0.1,10.3,11.2,38.3,3.2c1.5-0.4,3,0.4,3.5,1.9c0.4,1.5-0.4,3-1.9,3.5C294.4,189.5,287.7,190.4,282.1,190.4z"/>
<path class="st4" d="M334.7,130.3c-0.7,0-1.5-0.3-2-0.8c-7.3-6.4-16.4-2.5-16.8-2.3c-1.6,0.7-3.4,0-4.1-1.6c-0.7-1.6,0-3.4,1.6-4.1
	c0.5-0.2,13-5.7,23.4,3.3c1.3,1.1,1.4,3.1,0.3,4.4C336.5,129.9,335.6,130.3,334.7,130.3z"/>
<path class="st4" d="M235.1,121.6c-1,0-1.9-0.4-2.5-1.3c-1-1.4-0.7-3.3,0.7-4.4c11.1-8.2,23.1-1.8,23.6-1.5c1.5,0.8,2.1,2.7,1.3,4.2
	c-0.8,1.5-2.7,2.1-4.2,1.3c-0.4-0.2-9.1-4.7-17,1.1C236.4,121.4,235.8,121.6,235.1,121.6z"/>
<ellipse transform="matrix(0.105 -0.9945 0.9945 0.105 132.2207 462.1469)" class="st4" cx="322.9" cy="157.6" rx="13.8" ry="11.5"/>
<path class="st4" d="M318,153.6c-0.4,0-0.7-0.1-1.1-0.2c-0.4-0.2-9-3.9-9.8-13.2c-0.1-1.5,1-2.9,2.5-3.1c1.5-0.1,2.9,1,3,2.5
	c0.5,6,6.3,8.5,6.4,8.6c1.4,0.6,2.1,2.2,1.5,3.7C320.2,152.9,319.1,153.6,318,153.6z"/>
<ellipse transform="matrix(0.1104 -0.9939 0.9939 0.1104 67.8593 377.825)" class="st4" cx="245" cy="151" rx="13.7" ry="11.4"/>
<path class="st4" d="M239.7,144.8c-0.4,0-0.7-0.1-1.1-0.2c-0.4-0.2-9-3.9-9.8-13.2c-0.1-1.5,1-2.9,2.5-3c1.5-0.1,2.9,1,3,2.5
	c0.5,6,6.2,8.5,6.4,8.6c1.4,0.6,2.1,2.3,1.5,3.7C241.8,144.1,240.8,144.8,239.7,144.8z"/>
<path class="st0" d="M319.8,17.9c0,0-84.4-28-121.2,62.7c0,0-24.2,2.9-26.1,25.9c0,0,113.5-7,242.5,20.1c0,0-9.1-21.1-27.8-33.9
	C387.2,92.8,383.5,30.1,319.8,17.9z"/>
<path class="st12" d="M304.7,17.8c0,0-69.4-27.9-106.1,62.8c0,0-24.2,2.9-26.1,25.9c0,0,89.5-12.1,218.5,15c0,0,0.4-12-18.4-24.8
	C372.6,96.7,368.5,30,304.7,17.8z"/>
<path class="st4" d="M334,62.8c-1.2,0-2.2-0.9-2.3-2c-3.2-25.1-12.5-31.9-12.6-32c-1.1-0.7-1.3-2.2-0.6-3.3c0.7-1.1,2.2-1.3,3.3-0.6
	c0.5,0.3,11.1,8.1,14.6,35.2c0.2,1.3-0.7,2.5-2,2.6C334.2,62.8,334.1,62.8,334,62.8z"/>
<path class="st4" d="M259.2,52.7c-0.2,0-0.3,0-0.5-0.1c-1.3-0.3-2.1-1.5-1.8-2.8c3.8-18.1,18.2-28.8,18.8-29.2
	c1-0.8,2.5-0.5,3.3,0.5c0.8,1,0.5,2.5-0.5,3.3l0,0c-0.1,0.1-13.5,10.1-17,26.4C261.3,51.9,260.3,52.7,259.2,52.7z"/>
<path class="st13" d="M274.2,60.4c0,0-42.2-1.9-66.5-0.3l-11.4,19.8c0,0,59.5-5.9,81.1-0.4"/>
<path class="st13" d="M310.8,64.4c0,0,41.9,5.3,65.6,11l7.9,21.4c0,0-57.6-15.9-79.9-14.1"/>
<path class="st4" d="M386.1,79.4c-0.2,0-0.3,0-0.5-0.1c-120-25.5-177.1-17.1-177.7-17c-1.3,0.2-2.5-0.7-2.7-1.9s0.7-2.5,1.9-2.7
	c0.6-0.1,58.5-8.7,179.3,17c1.3,0.3,2.1,1.5,1.8,2.8C388.2,78.6,387.2,79.4,386.1,79.4z"/>
<path class="st4" d="M390.7,100.1c-0.2,0-0.3,0-0.5-0.1c-64.9-14-114.1-18.2-143.9-19.1c-32.3-1.1-49.5,1.2-49.7,1.3
	c-1.3,0.2-2.5-0.7-2.6-2c-0.2-1.3,0.7-2.5,2-2.6c0.7-0.1,70.2-9.1,195.2,17.9c1.3,0.3,2.1,1.5,1.8,2.8
	C392.8,99.3,391.8,100.1,390.7,100.1z"/>
<g>
	<circle class="st14" cx="295.4" cy="66.6" r="23.8"/>
	<path class="st4" d="M295.4,93.5c-14.8,0-26.9-12.1-26.9-26.9s12.1-26.9,26.9-26.9s26.9,12.1,26.9,26.9S310.3,93.5,295.4,93.5z
		 M295.4,45.9c-11.4,0-20.7,9.3-20.7,20.7s9.3,20.7,20.7,20.7c11.4,0,20.7-9.3,20.7-20.7S306.8,45.9,295.4,45.9z"/>
</g>
<g>
	<circle class="st0" cx="295.2" cy="66" r="11"/>
	<path class="st4" d="M295.2,79.3c-7.4,0-13.3-6-13.3-13.3s6-13.3,13.3-13.3s13.3,6,13.3,13.3S302.6,79.3,295.2,79.3z M295.2,57.3
		c-4.8,0-8.7,3.9-8.7,8.7s3.9,8.7,8.7,8.7s8.7-3.9,8.7-8.7S300,57.3,295.2,57.3z"/>
</g>
<path class="st4" d="M412.7,128.7c-0.2,0-0.4,0-0.6-0.1c-168.3-31.9-240.7-19.9-241.4-19.8c-1.1,0.2-2.2-0.2-2.9-1.1
	c-0.7-0.9-0.9-2-0.5-3.1c4.7-12.4,14.3-22.3,26.5-27.3c15.9-38.2,41.9-54.2,61.1-61c20.4-7.2,37.1-5.6,38.7-5.4
	c28.4,1.6,66.6,10.7,87.4,45.3c10.6,17.6,12.4,34.5,12.7,39.8c18.6,13.4,22,28.3,22.1,28.9c0.2,1-0.1,2.1-0.8,2.8
	C414.4,128.3,413.6,128.7,412.7,128.7z M213.9,100.1c37.6,0,100.5,3.9,194,21.3c-2.4-5.1-7.8-13.5-19-21.2c-0.8-0.6-1.3-1.5-1.3-2.6
	c0-0.2-0.3-19.2-12-38.5c-15.7-25.8-43.4-39.9-82.4-42c-0.1,0-0.1,0-0.2,0c-0.2,0-16.6-1.8-36.2,5.2c-26.3,9.3-45.6,29-57.6,58.6
	c-0.3,0.8-1,1.4-1.8,1.8c-9.5,3.6-17.2,10.4-21.9,19.2C182.1,101.2,194.7,100.1,213.9,100.1z"/>
<g>
	<path class="st0" d="M400.3,59.6c1.1-2.7,1.2-5.6,0.4-8.4c-1.7-6.1-7.1-9.9-12.1-8.5c-3.6,1-6,4.5-6.3,8.7
		c-5.6-0.3-11.1,1.2-15.6,4.4c-2.5-3.4-6.3-5.2-9.9-4.1c-5,1.4-7.6,7.5-5.9,13.6c0.7,2.8,2.4,5.3,4.7,7c-0.8,3.7-0.6,7.5,0.4,11.1
		c3.7,13.3,17.9,20.9,31.7,17s21.9-17.8,18.2-31C404.8,65.7,402.9,62.3,400.3,59.6z"/>
	<path class="st4" d="M380.3,103.7c-4.8,0-9.6-1.2-13.9-3.6c-6.3-3.5-10.8-9.3-12.7-16.1c-1-3.6-1.2-7.3-0.7-10.8
		c-2.2-2-3.7-4.5-4.4-7.4c-2-7.3,1.3-14.7,7.5-16.4c3.7-1.1,7.9,0.1,11,3.3c3.9-2.3,8.5-3.6,13.2-3.7c1-4.3,3.8-7.5,7.7-8.6
		c2.7-0.8,5.6-0.4,8.2,1.1c3.2,1.8,5.7,5.1,6.8,9c0.8,2.8,0.8,5.8,0,8.5c2.3,2.7,4.1,6,5.2,9.7c4.1,14.5-4.8,29.7-19.8,33.9
		C385.7,103.4,383,103.7,380.3,103.7z M359,53.7c-0.5,0-1,0.1-1.5,0.2c-3.8,1.1-5.7,5.9-4.3,10.7c0.6,2.3,1.9,4.3,3.8,5.7
		c0.7,0.5,1.1,1.5,0.9,2.4c-0.7,3.2-0.6,6.6,0.4,10c1.6,5.6,5.3,10.4,10.5,13.3c5.5,3.1,12,3.9,18.3,2.1C399.6,94.6,407,82,403.7,70
		c-1-3.4-2.7-6.4-5-8.8c-0.6-0.7-0.8-1.6-0.5-2.5c0.9-2.2,1-4.5,0.3-6.9c-0.8-2.7-2.4-5-4.6-6.2c-1.1-0.6-2.7-1.2-4.6-0.7
		c-2.6,0.7-4.4,3.3-4.6,6.6c-0.1,1.3-1.2,2.2-2.5,2.2c-5.1-0.3-10.1,1.1-14.1,4c-1,0.7-2.5,0.5-3.2-0.5
		C363.2,54.9,361.1,53.7,359,53.7z"/>
</g>
<path class="st2" d="M394.1,62.1c0.9-2.6,0.9-5.5,0.1-8.1c-1.7-6-6.3-8-10.6-6.8c-3.1,0.9-1.3,1.1-1.5,5.2
	c-2.4-0.2-8.7,1.2-11.1,1.9s-3.8,0.8-5.7,2.2c-2.1-3-5.9-4.3-9.5-3.3c-4.3,1.2-6.4,7-4.7,13c0.7,2.7,2.2,5.1,4.3,6.9
	c-0.5,3.6-0.3,7.3,0.7,10.8c3.6,13,16.3,20.8,28.2,17.5s18.6-16.6,14.9-29.6C398.2,68.2,396.5,64.9,394.1,62.1z"/>
<path class="st4" d="M380.3,103.7c-4.8,0-9.6-1.2-13.9-3.6c-6.3-3.5-10.8-9.3-12.7-16.1c-1-3.6-1.2-7.3-0.7-10.8
	c-2.2-2-3.7-4.5-4.4-7.4c-2-7.3,1.3-14.7,7.5-16.4c3.7-1.1,7.9,0.1,11,3.3c3.9-2.3,8.5-3.6,13.2-3.7c1-4.3,3.8-7.5,7.7-8.6
	c2.7-0.8,5.6-0.4,8.2,1.1c3.2,1.8,5.7,5.1,6.8,9c0.8,2.8,0.8,5.8,0,8.5c2.3,2.7,4.1,6,5.2,9.7c4.1,14.5-4.8,29.7-19.8,33.9
	C385.7,103.4,383,103.7,380.3,103.7z M359,53.7c-0.5,0-1,0.1-1.5,0.2c-3.8,1.1-5.7,5.9-4.3,10.7c0.6,2.3,1.9,4.3,3.8,5.7
	c0.7,0.5,1.1,1.5,0.9,2.4c-0.7,3.2-0.6,6.6,0.4,10c1.6,5.6,5.3,10.4,10.5,13.3c5.5,3.1,12,3.9,18.3,2.1C399.6,94.6,407,82,403.7,70
	c-1-3.4-2.7-6.4-5-8.8c-0.6-0.7-0.8-1.6-0.5-2.5c0.9-2.2,1-4.5,0.3-6.9c-0.8-2.7-2.4-5-4.6-6.2c-1.1-0.6-2.7-1.2-4.6-0.7
	c-2.6,0.7-4.4,3.3-4.6,6.6c-0.1,1.3-1.2,2.2-2.5,2.2c-5.1-0.3-10.1,1.1-14.1,4c-1,0.7-2.5,0.5-3.2-0.5
	C363.2,54.9,361.1,53.7,359,53.7z"/>
<path class="st4" d="M380.3,85.6c-6.4,0-12.4-3.3-12.7-3.5c-1.1-0.6-1.5-2.1-0.9-3.2c0.6-1.1,2.1-1.5,3.2-0.9l0,0
	c0.1,0,8.4,4.6,14.5,2.2c2.7-1.1,4.6-3.5,5.8-7.4c0.4-1.2,1.7-2,2.9-1.6c1.2,0.4,2,1.7,1.6,2.9c-1.5,5.2-4.4,8.7-8.5,10.4
	C384.2,85.3,382.2,85.6,380.3,85.6z"/>
<ellipse transform="matrix(0.9626 -0.2708 0.2708 0.9626 -3.6357 99.9591)" class="st4" cx="360.4" cy="63.2" rx="4.4" ry="5.4"/>
<ellipse transform="matrix(0.9626 -0.2708 0.2708 0.9626 -0.1174 108.0278)" class="st4" cx="391.4" cy="54.4" rx="4.4" ry="5.4"/>
<ellipse transform="matrix(0.9626 -0.2708 0.2708 0.9626 -7.9651 102.3517)" class="st4" cx="366.9" cy="80" rx="4" ry="4.9"/>
<ellipse transform="matrix(0.9626 -0.2708 0.2708 0.9626 -4.8233 109.5332)" class="st4" cx="394.5" cy="72.2" rx="4" ry="4.9"/>
</svg>
