<svg id="圖層_1" data-name="圖層 1" xmlns="http://www.w3.org/2000/svg" viewBox="0 0 338.3 432.4"><title>avatar</title><path d="M121.7,249s-10.3,14-10.8,28.9c0,0-3.5,38.5-9.7,48.2l-1,106.3L264,411.2l-13.6-55.1-74.1-70.7s4.7-45.7,8.1-50.8L138.9,280C138.8,279.9,121.3,261.5,121.7,249Z" style="fill:#fdeea4"/><path d="M219.9,245.7s-10.2-19.1-23.6,10.6c0,0-7.5,30.5,5.8,34.4l6.3,11.7,14,11,26,6.2L260,328S251.5,265.4,219.9,245.7Z" style="fill:#fdeea4"/><path d="M101.8,257.4l-.4,64.1s-40,14.8-22.8-15.3C78.6,306.2,79.9,264.7,101.8,257.4Z" style="fill:#fdeea4"/><path d="M246.8,238.4s69.3,11.1,91.6,109.6c0,0,11.5,81.9-50.2,61.6l-38.7-86,11.7-5.6.8-15.7,15.9,4.7,10.9-8.3-46.3-52.9Z" style="fill:#fff"/><path d="M245.7,242.8s39.6,9.3,72.9,86.4c7,16.2,9.6,34.3,6.2,51.7-3.7,19.2-14.6,37.8-44.3,27.5l-19.3-50.1-3.7-38.4.9-15.2-9.2-18.1-28.4-46.2,21,9.8Z" style="fill:#cddc4c"/><path d="M328.3,418.7a2.77,2.77,0,0,1-.9-.1,3.18,3.18,0,0,1-2.1-4c8-26.3,9-51.9,2.9-75.8-4.9-19.2-14.3-37.5-28-54.4a189.25,189.25,0,0,0-51.7-44,3.18,3.18,0,0,1,3-5.6c1.2.6,29.4,15.7,53.7,45.6,22.5,27.8,45.2,73.9,26.2,136.1A3.34,3.34,0,0,1,328.3,418.7Z" style="fill:#1a1a1a"/><path d="M305.1,361a2.43,2.43,0,0,1-2.3-1.8c-5.5-20.3-27.4-63.1-27.7-63.5a2.37,2.37,0,0,1,4.2-2.2c.9,1.8,22.3,43.7,28,64.5a2.35,2.35,0,0,1-1.7,2.9A.75.75,0,0,1,305.1,361Z" style="fill:#1a1a1a"/><polyline points="121 235.8 121.7 249 129.7 270.1 143 280.9 160.3 259.7 192.9 222.9" style="fill:#fcede1"/><path d="M209.8,306.4l17.1,9.1,21.4,4.2s13,5.8,9.5,30.2l-13,5.8-43.3-7.1C201.7,348.6,212.4,337.4,209.8,306.4Z" style="fill:#fbebdf"/><path d="M75.2,323.9s18.4,1.3,21.5.1l5,33.7s-36.8,12.9-48.6.9" style="fill:#fbebdf"/><path d="M209.8,306.4s15.1,10.7,26.5,10.3" style="fill:#fff"/><path d="M235.8,319.9c-12.2,0-27.1-10.4-27.8-10.9a3.16,3.16,0,1,1,3.6-5.2c.1.1,14.4,10,24.6,9.7a3.2,3.2,0,1,1,.2,6.4Z" style="fill:#1a1a1a"/><path d="M244.5,360.3c-19.5,0-42.9-8.4-43.9-8.8a3.15,3.15,0,0,1-1.9-4.1,3.23,3.23,0,0,1,4.1-1.9c.2.1,23.4,8.4,41.7,8.4a13.87,13.87,0,0,0,10.6-4.6,15.63,15.63,0,0,0,4.1-11.7c-2.3-32.7-17.9-64.9-46.4-95.7-.1-.1-9.5-10.3-22.6-9.4a3.16,3.16,0,0,1-.5-6.3c16.3-1.2,27.3,10.9,27.8,11.4,29.5,31.9,45.6,65.4,48,99.5a22.1,22.1,0,0,1-5.8,16.5,20.61,20.61,0,0,1-15.2,6.7Z" style="fill:#1a1a1a"/><path d="M99.2,422.8H99a3.17,3.17,0,0,1-3-3.4c3.7-53-.8-130.8-.8-131.6a3.21,3.21,0,0,1,6.4-.4c0,.8,4.5,79,.8,132.4A3.33,3.33,0,0,1,99.2,422.8Z" style="fill:#1a1a1a"/><path d="M78.7,366.4a87.18,87.18,0,0,1-29.6-5.6,3.17,3.17,0,1,1,2.3-5.9c.4.1,27.8,10.7,46.2,1.1a3.2,3.2,0,1,1,2.9,5.7C93.8,365.2,86.1,366.4,78.7,366.4Z" style="fill:#1a1a1a"/><path d="M83.4,328.1a32.06,32.06,0,0,1-11.6-2.3,3.18,3.18,0,0,1,2.6-5.8h0c.1,0,7,3,13.6,1.2a3.17,3.17,0,0,1,1.7,6.1A23.17,23.17,0,0,1,83.4,328.1Z" style="fill:#1a1a1a"/><path d="M135.5,255.4a2.5,2.5,0,0,1-2.2-1.5l-5.4-13.3a2.38,2.38,0,1,1,4.4-1.8l5.4,13.3a2.39,2.39,0,0,1-1.3,3.1A2.92,2.92,0,0,1,135.5,255.4Z" style="fill:#1a1a1a"/><path d="M262,339.1a3.31,3.31,0,0,1-2.8-1.6c-10.3-18.5-26.4-18.2-27-18.2a3.29,3.29,0,0,1-3.3-3.1,3.14,3.14,0,0,1,3-3.3c.8,0,20.5-.6,32.8,21.4a3.13,3.13,0,0,1-1.2,4.3A2,2,0,0,1,262,339.1Z" style="fill:#1a1a1a"/><circle cx="156.4" cy="383.5" r="7.9" style="fill:#fff"/><path d="M156.4,393.8a10.3,10.3,0,1,1,10.3-10.3A10.29,10.29,0,0,1,156.4,393.8Zm0-15.8a5.5,5.5,0,1,0,5.5,5.5A5.55,5.55,0,0,0,156.4,378Z" style="fill:#1a1a1a"/><path d="M274.7,406.2a3.11,3.11,0,0,1-3.1-2.5c-6.8-30.7-14.3-50.3-14.4-50.5a3.17,3.17,0,0,1,5.9-2.3c.1.2,7.8,20.3,14.7,51.5a3.19,3.19,0,0,1-2.4,3.8Z" style="fill:#1a1a1a"/><path d="M76,316.4h-.5a3.2,3.2,0,0,1-2.6-3.7c11-64.3,42.5-75.5,43.9-76a3.16,3.16,0,0,1,2,6c-.4.1-29.4,11-39.7,71A3.12,3.12,0,0,1,76,316.4Z" style="fill:#1a1a1a"/><path d="M197,368.8l-18.8,2.9c-3.2.5-6.3-2.6-7-6.8l-5.6-37.2L196,323l5.6,37.2C202.3,364.5,200.2,368.3,197,368.8Z" style="fill:#eed180"/><path d="M177.5,373.9c-4.1,0-7.7-3.6-8.5-8.7L163.4,328a2.16,2.16,0,0,1,1.9-2.5l30.4-4.6a2.15,2.15,0,0,1,1.6.4,2.55,2.55,0,0,1,.9,1.5l5.6,37.2a10.63,10.63,0,0,1-1.8,8.1,7.57,7.57,0,0,1-4.7,3L178.5,374A3.08,3.08,0,0,0,177.5,373.9Zm-9.4-44.4,5.3,35c.5,3,2.5,5.3,4.5,5l18.8-2.9h0a2.66,2.66,0,0,0,1.8-1.2,6.89,6.89,0,0,0,1-4.8l-5.3-35Z" style="fill:#1a1a1a"/><path d="M140.1,284.7a2.82,2.82,0,0,1-1.5-.4c-.7-.4-16.1-10-20.4-45.3a2.87,2.87,0,1,1,5.7-.7c2,16.8,6.7,27.1,10.3,32.8a32.43,32.43,0,0,0,5.5,6.8l44.8-48.5a2.83,2.83,0,0,1,4.2,3.8l-46.6,50.5A2.33,2.33,0,0,1,140.1,284.7Z" style="fill:#1a1a1a"/><path d="M231.3,235.2a3.08,3.08,0,0,1-1.3-.3c-9.8-4.4-24-.5-24.1-.5a3.17,3.17,0,1,1-1.7-6.1c.7-.2,16.6-4.6,28.5.8a3.19,3.19,0,0,1,1.6,4.2A3.4,3.4,0,0,1,231.3,235.2Z" style="fill:#1a1a1a"/><path d="M195,286.9a2.4,2.4,0,0,1-2.4-2.2c-3.8-40.6,15.7-46.3,16.5-46.5a2.38,2.38,0,0,1,1.2,4.6c-.3.1-16.4,5.3-13,41.4a2.37,2.37,0,0,1-2.2,2.6C195.1,286.9,195.1,286.9,195,286.9Z" style="fill:#1a1a1a"/><path d="M177.7,284.6a2.46,2.46,0,0,1-2.4-2.1,83.4,83.4,0,0,1,4.3-36.6,2.41,2.41,0,0,1,4.5,1.7,79.11,79.11,0,0,0-4,34.3,2.45,2.45,0,0,1-2.1,2.7Z" style="fill:#1a1a1a"/><path d="M245.4,305.7a2.34,2.34,0,0,1-1.7-.7c-5.7-5.5-17.9-3.3-22.1-2a2.4,2.4,0,0,1-1.4-4.6c.7-.2,17.9-5.5,26.8,3.1a2.48,2.48,0,0,1,.1,3.4A1.88,1.88,0,0,1,245.4,305.7Z" style="fill:#e0bb52"/><path d="M110.3,292.3a2.4,2.4,0,0,1-2.4-2.2c-1.5-15.5,6-32,6.3-32.7a2.42,2.42,0,1,1,4.4,2c-.1.2-7.2,16.1-5.9,30.2a2.37,2.37,0,0,1-2.2,2.6C110.5,292.3,110.4,292.3,110.3,292.3Z" style="fill:#1a1a1a"/><path d="M110.5,13.4A11.68,11.68,0,0,1,123.7,3.2a12,12,0,0,1,10.1,8.3" style="fill:#fff"/><path d="M110.5,16.6h-.4a3.26,3.26,0,0,1-2.8-3.6,15.24,15.24,0,0,1,29.6-2.5,3.19,3.19,0,0,1-6.1,1.9,9,9,0,0,0-7.5-6.1,8.68,8.68,0,0,0-9.7,7.5A3.06,3.06,0,0,1,110.5,16.6Z" style="fill:#1a1a1a"/><polyline points="187.7 226.7 211.5 201.9 307.5 212.5 313.8 200.4 267.1 178.7 249.5 172.4 252.9 151.6 241.5 137 243.3 106.2 228 66.1 172.8 33.5 145.3 37.5" style="fill:#fff"/><path d="M148.9,13.8S59.6-1.6,36.3,95.3c0,0-24,6.6-22.4,30.1,0,0,113.4-24.3,247.5-16.6,0,0-12.4-19.9-33.2-29.9C228.2,79,215,16.4,148.9,13.8Z" style="fill:#fff"/><path d="M133.7,15.9S59.6-1.6,36.3,95.3c0,0-24,6.6-22.4,30.1,0,0,88.4-25.8,222.5-18,0,0-1.5-12.2-22.3-22.2C214.1,85.2,199.8,18.5,133.7,15.9Z" style="fill:#ddcbba"/><path d="M93.4,64.1,44.7,73.7,36.2,95.3l61.4-9.6C97.7,85.7,89.4,75.8,93.4,64.1Z" style="fill:#a18f7e"/><path d="M138.7,60.4l-2.1,21.9,45-1.3s-6.8-14.8-7.4-19.8" style="fill:#a18f7e"/><path d="M41.4,119.5s-17.2,20.8-.7,28.9l7.6-.4-.5-30" style="fill:#eab381"/><polyline points="60.2 147.1 33.8 149.4 23.7 166.2 28 192 40.6 202.5 69.4 199.8" style="fill:#fcede1"/><path d="M49.4,201.1S4.1,232.9,2.5,243l8.7,9.9,15.4-4.3-3.5,16.8,38.8,25.1S89.6,234,89.7,232.4l-.1,1.5-20.2-18-6.9-14.1" style="fill:#eab381"/><path d="M50.4,206.6a32.78,32.78,0,0,1-14.2-3.7c-.1-.1-.3-.2-.4-.3-22.1-17.2-12.1-45.5-12-45.7a.76.76,0,0,1,.2-.4c2.1-4,10.2-16.6,25.3-11.4a3.16,3.16,0,0,1-2,6c-5.1-1.7-12.2-1.7-17.5,8.2-.8,2.4-7.7,24.3,9.8,38.2,1.5.8,11.2,5.5,18.3.7a3.18,3.18,0,1,1,3.5,5.3A20.68,20.68,0,0,1,50.4,206.6Z" style="fill:#1a1a1a"/><path d="M50.2,162.6c-2.8-1.1-8.8-2.5-11.6,5.4,0,0-3.7,26.9,17.4,19.2" style="fill:#ebb988"/><path d="M49.1,191a11.33,11.33,0,0,1-7.5-2.5c-7.4-5.9-5.5-20.2-5.4-20.8,0-.2.1-.3.1-.5,1.2-3.5,3.2-5.9,5.8-7.1a11.27,11.27,0,0,1,8.9.2,2.38,2.38,0,0,1-1.8,4.4,7,7,0,0,0-5.2-.3c-1.4.6-2.4,2-3.2,4.1-.4,3.6-.6,12.8,3.7,16.2,2.3,1.9,5.9,1.9,10.6.2a2.41,2.41,0,1,1,1.7,4.5A23.56,23.56,0,0,1,49.1,191Z" style="fill:#1a1a1a"/><path d="M61.9,293.7a2.77,2.77,0,0,1-.9-.1c-12.3-3.6-27-15.1-39.9-25.7-1.7-1.4-1.6-2,.6-11.7.2-1.1.5-2.1.7-3.1-.8.2-1.7.5-2.5.7-1.9.5-3.9,1.1-5.3,1.5-3.1.8-4.3,1.2-5.6-.3C3.5,249.3.3,245.1.1,244.9a3.15,3.15,0,0,1-.1-3.8c16.4-22.3,33.5-34.3,44.9-40.5a3.18,3.18,0,0,1,3,5.6c-10.5,5.7-26,16.6-41.3,36.7,1.2,1.5,3.2,3.7,5.7,6.4,2.9-.8,9.1-2.5,13.5-3.8a3.21,3.21,0,0,1,3.1.8,3.08,3.08,0,0,1,.9,3c-1.3,5.7-2.7,12-3.3,14.8,11.3,9.2,23.8,18.9,34.1,22.7,3.6-5.6,14.3-23.8,23.2-55.9a3.17,3.17,0,0,1,6.1,1.7C78.7,273,65,291.7,64.5,292.4A3.17,3.17,0,0,1,61.9,293.7ZM13.4,250.6Z" style="fill:#1a1a1a"/><path d="M35,241.8a2.35,2.35,0,0,1-1.8-3.8c6.4-8.3,17-14.7,17.4-14.9a2.4,2.4,0,0,1,2.5,4.1c-.1.1-10.3,6.2-16.1,13.7A2.52,2.52,0,0,1,35,241.8Z" style="fill:#aa806a"/><path d="M54.5,246.6a2.2,2.2,0,0,1-1.3-.4,2.4,2.4,0,0,1-.7-3.3l8.8-13.7a2.39,2.39,0,1,1,4,2.6l-8.8,13.7A2.57,2.57,0,0,1,54.5,246.6Z" style="fill:#aa806a"/><path d="M50.7,115.2s-9.1,94.1,43.1,119.4c0,0,60.9,33,102.3-21.2,0,0,15.9-21.8,13.2-72.8-.6-10.5-11.3-21.9-13.7-34.9" style="fill:#fcede1"/><path d="M36.2,97.7a2.4,2.4,0,0,1-.7-4.7c.7-.2,69.4-19.8,199.5-11.3a2.35,2.35,0,0,1-.3,4.7C167.2,82,117,85.3,86.8,88.8,54.1,92.6,37,97.5,36.9,97.6S36.4,97.7,36.2,97.7Z" style="fill:#1a1a1a"/><path d="M44.7,76.1a2.46,2.46,0,0,1-2.3-1.7,2.36,2.36,0,0,1,1.6-3c.6-.2,57.8-17.6,183.4-9.9a2.35,2.35,0,0,1-.3,4.7C102.5,58.7,46,75.8,45.4,76,45.2,76,45,76.1,44.7,76.1Z" style="fill:#1a1a1a"/><path d="M165.4,41.5a2.31,2.31,0,0,1-2-1.1c-6.8-10.7-15.2-14.5-15.3-14.5a2.35,2.35,0,0,1,1.9-4.3c.4.2,9.8,4.3,17.5,16.4a2.4,2.4,0,0,1-.7,3.3A7.84,7.84,0,0,1,165.4,41.5Z" style="fill:#1a1a1a"/><path d="M81.4,153.4a1.27,1.27,0,0,1-.6-.1c-.4-.1-9.7-2.2-12.2-11.5a2.85,2.85,0,1,1,5.5-1.5c1.6,5.9,7.9,7.4,8,7.4a2.93,2.93,0,0,1,2.2,3.4A3.07,3.07,0,0,1,81.4,153.4Z" style="fill:#1a1a1a"/><ellipse cx="180.9" cy="182.8" rx="13.4" ry="11.8" transform="translate(-13.17 14.04) rotate(-4.29)" style="fill:#f2abb7"/><ellipse cx="83.1" cy="190.1" rx="13.4" ry="11.8" transform="translate(-13.99 6.75) rotate(-4.29)" style="fill:#f2abb7"/><ellipse cx="167.7" cy="151.2" rx="11.7" ry="14.1" transform="translate(-10.84 12.97) rotate(-4.29)" style="fill:#1a1a1a"/><path d="M161.5,147.9a1.27,1.27,0,0,1-.6-.1c-.4-.1-9.7-2.2-12.3-11.5a2.85,2.85,0,1,1,5.5-1.5c1.6,5.9,7.9,7.4,8,7.4a2.93,2.93,0,0,1,2.2,3.4A2.79,2.79,0,0,1,161.5,147.9Z" style="fill:#1a1a1a"/><ellipse cx="87.6" cy="156.6" rx="11.7" ry="14.1" transform="translate(-11.47 6.99) rotate(-4.29)" style="fill:#1a1a1a"/><path d="M123.7,174h-.4c-14.8-2-13.9-14.3-13.9-14.4a3.21,3.21,0,0,1,6.4.5c-.1,1.1,0,6.4,8.4,7.6a3.12,3.12,0,0,1,2.7,3.6A3.32,3.32,0,0,1,123.7,174Z" style="fill:#1a1a1a"/><path d="M181.9,126.3a3.23,3.23,0,0,1-2.1-.8c-4.7-4.2-14.3-2.7-17.6-1.8a3.17,3.17,0,0,1-1.7-6.1c.6-.2,15.2-4.3,23.5,3.1a3.27,3.27,0,0,1,.3,4.5A3.54,3.54,0,0,1,181.9,126.3Z" style="fill:#1a1a1a"/><path d="M66.2,133.1a3.06,3.06,0,0,1-2-.7,3.27,3.27,0,0,1-.4-4.5c7.1-8.5,22.2-6.7,22.9-6.6a3.18,3.18,0,0,1-.9,6.3c-3.4-.4-13.1-.5-17.2,4.4A2.9,2.9,0,0,1,66.2,133.1Z" style="fill:#1a1a1a"/><path d="M241.6,135.5a3.55,3.55,0,0,1-1-.2,3.06,3.06,0,0,1-2-4c1.7-5.3.9-15.6.4-19.1a3.18,3.18,0,0,1,6.3-.9c.1.6,1.9,14.2-.6,21.9A3.5,3.5,0,0,1,241.6,135.5Z" style="fill:#1a1a1a"/><path d="M50.6,206.6a32.78,32.78,0,0,1-14.2-3.7c-.1-.1-.3-.2-.4-.3-22.1-17.2-12.1-45.5-12-45.8a.76.76,0,0,1,.2-.4c5.6-10.7,15.1-14.9,25.3-11.4a3.16,3.16,0,0,1-2,6c-5.1-1.7-12.2-1.7-17.5,8.2-.8,2.4-7.7,24.3,9.8,38.2,1.5.7,11.2,5.5,18.3.7a3.18,3.18,0,1,1,3.5,5.3A20.19,20.19,0,0,1,50.6,206.6Z" style="fill:#1a1a1a"/><path d="M34.9,149.5a3.12,3.12,0,0,1-3.1-2.6c-2.6-14.9,1-24.7,1.2-25.1a3.2,3.2,0,1,1,6,2.2c0,.1-3.1,8.7-.8,21.8a3.25,3.25,0,0,1-2.6,3.7A1.63,1.63,0,0,0,34.9,149.5Z" style="fill:#1a1a1a"/><circle cx="114.1" cy="67.9" r="24.3" style="fill:#bfbfbf"/><path d="M114.1,95.4a27.45,27.45,0,1,1,27.4-27.5A27.44,27.44,0,0,1,114.1,95.4Zm0-48.6a21.1,21.1,0,1,0,21.1,21.1A21.17,21.17,0,0,0,114.1,46.8Z" style="fill:#1a1a1a"/><circle cx="113.2" cy="68.3" r="11.2" style="fill:#fff"/><path d="M113.2,81.9a13.6,13.6,0,1,1,13.6-13.6A13.61,13.61,0,0,1,113.2,81.9Zm0-22.4a8.8,8.8,0,1,0,8.8,8.8A8.81,8.81,0,0,0,113.2,59.5Z" style="fill:#1a1a1a"/><path d="M109.5,37.8a2.4,2.4,0,0,1-2.4-2.2c-.5-5.4,1.7-12.8,1.8-13.1a2.4,2.4,0,1,1,4.6,1.4c0,.1-2.1,6.8-1.6,11.3a2.37,2.37,0,0,1-2.1,2.6Z" style="fill:#1a1a1a"/><path d="M209.7,134.7a3.15,3.15,0,0,1-2.9-1.9,57.15,57.15,0,0,0-17.3-22,3.21,3.21,0,1,1,3.9-5.1,64.45,64.45,0,0,1,19.2,24.4,3.19,3.19,0,0,1-1.6,4.2A2,2,0,0,1,209.7,134.7Z" style="fill:#1a1a1a"/><path d="M197,109.7s20.2,5.1,26,22.9l10.6-1.3s-.2-17-4.3-22.9Z" style="fill:#eab381"/><path d="M13.9,128.6a2.64,2.64,0,0,1-1.9-.7,3.14,3.14,0,0,1-1.2-2.7C12.2,105.3,27.3,95.8,33.6,93,43.8,52.3,66.7,32.1,84.2,22.2c18.8-10.5,35.1-11.6,36.6-11.7,28.9-2.7,69,.8,96.6,32.8a98,98,0,0,1,20.4,38.6c20.8,10.8,26.4,25.2,26.7,25.8a3.23,3.23,0,0,1-.4,3,2.89,2.89,0,0,1-2.7,1.3C87,105.2,15.6,128.2,14.9,128.4A4.4,4.4,0,0,1,13.9,128.6ZM37.3,98.3c-1,.4-16.1,6.1-19.6,22.7,18.4-5,89.8-20.9,238.1-15.5-3.2-4.8-9.9-12.4-22.3-18.5a3.16,3.16,0,0,1-1.7-2.2c0-.2-4-19.5-19.5-37.4C191.5,23.5,160.9,13.3,121.2,17H121c-.2,0-16.1.9-34.1,11.1C63,41.5,46.9,64.4,39.3,96A3.11,3.11,0,0,1,37.3,98.3Z" style="fill:#1a1a1a"/><path d="M235,48.9a11.62,11.62,0,0,0-19.4-12.8,10.63,10.63,0,0,0-1.6,3.8,37.46,37.46,0,0,0-20,3.9,11.67,11.67,0,0,0-18.9,13.7,12.4,12.4,0,0,0,2.8,2.8,20.5,20.5,0,0,0-1.2,11.5c2.7,13.8,19.1,22.2,36.7,18.8S243,73.2,240.3,59.4A19.89,19.89,0,0,0,235,48.9Z" style="fill:#fff"/><path d="M226.7,50.5a12.53,12.53,0,0,0,1.2-8.5c-1.2-6.3-5.3-9-10.8-7.9-4,.8-1.8,1-2.6,5.2-2.9-.3-12.2,1.3-15.2,1.9a30.55,30.55,0,0,0-8.3,3c-2.3-3.6-6.3-5.7-10.2-4.9-5.4,1.1-8.9,7.1-7.6,13.4a12.39,12.39,0,0,0,4.4,7.4,23.21,23.21,0,0,0-.7,11.4c2.7,13.8,17.1,22.6,32.3,19.6s25.2-16.5,22.5-30.3A24.76,24.76,0,0,0,226.7,50.5Z" style="fill:#cddc4c"/><path d="M205.6,93.4c-15.5,0-28.7-8.6-31.2-21.5a23.21,23.21,0,0,1,.7-11.1,13,13,0,0,1-1.9-2.2,14.06,14.06,0,0,1,21.5-18,38.19,38.19,0,0,1,17.6-3.4,13,13,0,0,1,1.4-2.6,14.08,14.08,0,0,1,24.4,13.9,23.64,23.64,0,0,1,4.8,10.1c1.4,7.4-.8,15.1-6.4,21.5-5.4,6.3-13.4,10.7-22.4,12.5A42.75,42.75,0,0,1,205.6,93.4ZM184.5,41.2a9.59,9.59,0,0,0-5.4,1.7,9.3,9.3,0,0,0,.1,15.1,2.38,2.38,0,0,1,.9,2.8,18.33,18.33,0,0,0-1,10.1c2.4,12.4,17.6,20,33.9,16.9,8-1.6,15-5.4,19.7-10.9,4.6-5.3,6.5-11.5,5.3-17.5a18.23,18.23,0,0,0-4.7-9,2.41,2.41,0,0,1-.3-3,9.24,9.24,0,0,0-15.4-10.2,10.11,10.11,0,0,0-1.3,3,2.36,2.36,0,0,1-2.5,1.8,35.48,35.48,0,0,0-18.7,3.6,2.48,2.48,0,0,1-3-.7A9.66,9.66,0,0,0,184.5,41.2Z" style="fill:#1a1a1a"/><path d="M207.6,74.8a37.35,37.35,0,0,1-15.7-4,2.37,2.37,0,0,1,2.2-4.2c.1.1,10.3,5.4,18.6,2.7a14.12,14.12,0,0,0,8.3-7.5,2.39,2.39,0,0,1,4.3,2.1,18.46,18.46,0,0,1-11.1,10A25.56,25.56,0,0,1,207.6,74.8Z" style="fill:#1a1a1a"/><circle cx="185.3" cy="51" r="5.5" style="fill:#1a1a1a"/><circle cx="224.7" cy="43.3" r="5.5" style="fill:#1a1a1a"/><circle cx="190.8" cy="68.6" r="5" style="fill:#1a1a1a"/><circle cx="226" cy="61.7" r="5" style="fill:#1a1a1a"/><path d="M223.8,138.8s25-3.6,20.6,41.9l-14.9,10.1-11.8-4.2Z" style="fill:#fcede1"/><path d="M250.3,178.4s41,17.5,57.2,34.4l-17.9.8,8.9,14.9-34.1,36.3-44.9-49.3-5.6-13.2,5.9-12.8,17.2-2.1" style="fill:#eab381"/><path d="M227.5,193.2a18.27,18.27,0,0,1-11.9-4.2,3.2,3.2,0,1,1,4-5c3.6,2.9,8.1,3.6,13.3,1.9a27,27,0,0,0,7.3-3.7c15.2-16.2,5.1-37.1,4.1-39.2-3.1-4.1-6.6-6.5-10.3-7-5.3-.7-9.6,2.4-9.7,2.4a3.21,3.21,0,1,1-3.9-5.1,21,21,0,0,1,14.4-3.7c5.5.8,10.5,4.1,14.7,9.7a.52.52,0,0,1,.2.4c.1.3,14.2,26.7-5.1,47l-.3.3A27.94,27.94,0,0,1,227.5,193.2Z" style="fill:#1a1a1a"/><path d="M223.1,150.5s8.5-7.2,13.7,2.7c0,0,7.7,26.1-14.4,21.6" style="fill:#ebb988"/><path d="M227.2,177.6a25.17,25.17,0,0,1-5.2-.6,2.39,2.39,0,0,1,.9-4.7c4.9,1,8.4.4,10.4-1.8,3.7-4,2.2-13.1,1.2-16.6-1.2-2.1-2.6-3.3-4.1-3.6-2.9-.6-5.8,1.9-5.9,1.9a2.49,2.49,0,0,1-3.4-.3,2.36,2.36,0,0,1,.3-3.3c.2-.2,4.7-3.9,9.8-2.9,3.1.6,5.7,2.7,7.6,6.3.1.1.1.3.2.4.2.6,4.2,14.4-2.2,21.4C234.5,176.3,231.3,177.6,227.2,177.6Z" style="fill:#1a1a1a"/><path d="M264.4,268.1a3.37,3.37,0,0,1-1.7-.5c-1-.7-25.4-16.5-53.9-63.8a3.21,3.21,0,0,1,5.5-3.3c23.5,39,44.4,56.2,50.3,60.6,10.1-6.8,20.8-20.3,30.3-32.8-1.5-2.6-4.8-8-7.8-12.9a3.22,3.22,0,0,1,2.6-4.9c6.2-.2,13.1-.5,16-.7,1.9-3.3,3.3-6,4.2-7.9-33.2-18.9-58.4-24.4-58.6-24.5a3.19,3.19,0,0,1-2.4-3.8,3.14,3.14,0,0,1,3.8-2.4c1.1.2,27.7,6,63,26.7a3.11,3.11,0,0,1,1.3,4c-.1.2-2.3,5.2-6.5,12.5-.9,1.6-.9,1.6-11.6,2.1-1.2,0-2.3.1-3.4.1.5.9,1.1,1.8,1.7,2.7,1.3,2.2,2.4,3.9,3.1,5.2,1.5,2.6,2.4,4.2,1,6-10.6,14.2-23,29.9-35,37.1A4.89,4.89,0,0,1,264.4,268.1Zm31.5-41.4Zm8.9-15.5Z" style="fill:#1a1a1a"/><path d="M270.9,204.9a2.2,2.2,0,0,1-1.3-.4c-8.5-5.4-21.3-8-21.5-8a2.39,2.39,0,0,1,.9-4.7c.6.1,13.8,2.8,23.1,8.7a2.4,2.4,0,0,1,.7,3.3A2,2,0,0,1,270.9,204.9Z" style="fill:#fff"/><path d="M251.5,215.6a2.39,2.39,0,0,1-1.4-.5l-13.6-10.3a2.36,2.36,0,1,1,2.8-3.8l13.6,10.3a2.39,2.39,0,0,1,.5,3.3A2.28,2.28,0,0,1,251.5,215.6Z" style="fill:#aa806a"/><path d="M133.5,244.6A120.76,120.76,0,0,1,94,238.1c-24.2-9.9-40.1-33.1-45.9-67-4.4-25.2-1.8-47.2-1.6-48.1a3.17,3.17,0,1,1,6.3.7c-.1.9-9.9,86.4,43.6,108.4a116.59,116.59,0,0,0,37.2,6.1h.5c28.4-.1,52.1-10.6,70.4-31.2,0-.1.1-.1.1-.2s5.4-5.6,9.6-18.5c3.8-12,7.4-32.9,2.3-64.7a3.14,3.14,0,0,1,6.2-1c10,62.9-11.8,86.7-13.6,88.6-24.4,27.4-54.4,33.2-75.3,33.3A.77.77,0,0,1,133.5,244.6Z" style="fill:#1a1a1a"/><path d="M122,198.2a14.66,14.66,0,0,1-12.2-6.8,2.8,2.8,0,0,1,1-3.9,2.88,2.88,0,0,1,3.9.9c.4.7,4.4,6.5,12.5,2.8,11.7-5.5,19.6-2.6,19.9-2.4a2.85,2.85,0,0,1-2.1,5.3c-.2-.1-6.1-2.1-15.5,2.3A17.72,17.72,0,0,1,122,198.2Z" style="fill:#1a1a1a"/><path d="M231.3,275.5A9.19,9.19,0,0,0,218,262.8l-.2.2-4.5,4.8c5.3,3.5,10.4,6.9,14.1,11.8Z" style="fill:#fff1d1"/><path d="M159.9,351.8l67.5-72.2c-3.6-4.9-8.8-8.3-14.1-11.8l-66.9,71.5Z" style="fill:#9ed8f5"/><polyline points="146.5 339.5 141.4 351.6 136.3 363.7 148 357.8 159.7 351.8" style="fill:#fff"/><path d="M136.3,366.3a2.57,2.57,0,0,1-1.8-.7,2.6,2.6,0,0,1-.6-2.9l10.2-24.2a2.6,2.6,0,0,1,4.8,2l-7.5,17.7,17.1-8.7a2.59,2.59,0,0,1,2.4,4.6L137.5,366A2.66,2.66,0,0,1,136.3,366.3Z" style="fill:#1a1a1a"/><path d="M159.9,354.4a2.57,2.57,0,0,1-1.8-.7l-13.4-12.5a2.5,2.5,0,0,1-.8-1.8,2.64,2.64,0,0,1,.7-1.9l71.3-76.3a11.81,11.81,0,0,1,16.6-.6l.1.1a11.44,11.44,0,0,1,3.7,8.2,11.85,11.85,0,0,1-3.1,8.4h0l-71.4,76.3A2.73,2.73,0,0,1,159.9,354.4Zm-9.7-15.2,9.6,9,69.6-74.4h0a6.58,6.58,0,0,0-9.6-9Z" style="fill:#1a1a1a"/><path d="M225.4,281.9a2,2,0,0,1-1.4-.6l-11.8-11a2.05,2.05,0,1,1,2.8-3l11.8,11a2.05,2.05,0,0,1,.1,2.9A1.68,1.68,0,0,1,225.4,281.9Z" style="fill:#1a1a1a"/><path d="M159.3,306.8s-10.6-.1-14.5,5.2c0,0-7.9,12.6,8.2,13.6" style="fill:#fbebdf"/><path d="M152.9,328.6c-6.1-.4-10.1-2.4-11.9-6-2.7-5.3,1-11.5,1.4-12.2l.1-.2c4.7-6.4,15.7-6.4,16.9-6.4l-.1,5.9c-2.5-.1-9.5.6-12,3.9-.6,1.1-2.1,4.3-1.1,6.3.8,1.5,3.3,2.5,7.1,2.8Z" style="fill:#1a1a1a"/><path d="M214.8,294.5s-24.4-20.5-49.5,6.1c0,0-16.1,17.6-10.8,28.3,0,0,4.7,7.9,12.9,4.7,0,0,2.5,4.3,5.4,10,0,0,3.6,5,9.7,4,0,0,7.2,6.8,15.4,3.6,0,0,13.8,8.7,28.4-16.8a21.41,21.41,0,0,0,3-11.6C228.9,316,226.2,305.1,214.8,294.5Z" style="fill:#fff"/><path d="M206.9,302.2s-21.3-17.7-43.1,5.3c0,0-14.1,15.2-9.4,24.6,0,0,4.1,6.8,11.2,4,0,0,2.2,3.7,4.7,8.7a16.67,16.67,0,0,0,9.6,1.4s9,6.4,16.2,3.6c0,0,10.5,12.8,23.2-9.3,1.7-3,.4-10.3.2-13.8C219.2,320.8,216.9,311.4,206.9,302.2Z" style="fill:#fcede1"/><path d="M204.9,354.4a17.93,17.93,0,0,1-8.3-2c-7.3,2-13.3-2-15.8-4.1a14.6,14.6,0,0,1-10.5-2.7,15.87,15.87,0,0,1-5.3-8.1c-6.6.7-11.4-3.9-13.2-6.9,0-.1-.1-.1-.1-.2-2.7-5.5-1.6-12.6,3.5-21.2a67.13,67.13,0,0,1,7.8-10.7c14-14.8,27.9-15.8,37.1-14a40.72,40.72,0,0,1,16.8,7.6l.1.1c12,11.1,15.1,22.7,15.5,30.4a24.81,24.81,0,0,1-3.4,13.4c-5.9,10.4-12.8,16.5-20.3,18.1A28.83,28.83,0,0,1,204.9,354.4Zm-8-8.6a3.29,3.29,0,0,1,1.9.6,11.45,11.45,0,0,0,8.7,1.4c5.6-1.2,11.1-6.4,16-15.1a18.14,18.14,0,0,0,2.6-9.9c-.4-6.5-3-16.3-13.4-25.9-1.5-1.2-22.8-17.7-45.1,5.9-3.7,4.1-13.7,17.4-10.3,24.6.5.8,3.7,5.3,9,3.2a2.82,2.82,0,0,1,2.8.3,3,3,0,0,1,1.5,2.4c.1,1.4,1,5.4,3.4,7.2.1,0,.1.1.2.1a9.42,9.42,0,0,0,7,1.2,3.42,3.42,0,0,1,2.9.9c.2.2,5.6,5.6,11.7,3.2C196.1,345.9,196.5,345.8,196.9,345.8Z" style="fill:#1a1a1a"/><path d="M169.6,328.1a2.2,2.2,0,0,1-1.5-.6,2.49,2.49,0,0,1-.3-3.4c.9-1,8.8-10.2,14.6-12.5a2.38,2.38,0,1,1,1.8,4.4c-4,1.6-10.5,8.6-12.7,11.2A2.8,2.8,0,0,1,169.6,328.1Z" style="fill:#1a1a1a"/><path d="M184.6,338.3a2.39,2.39,0,0,1-1.4-.5,2.3,2.3,0,0,1-.5-3.3l6.6-9a2.36,2.36,0,0,1,3.8,2.8l-6.6,9A2.58,2.58,0,0,1,184.6,338.3Z" style="fill:#1a1a1a"/><path d="M198.4,341.9a3,3,0,0,1-1.5-.5,2.37,2.37,0,0,1-.4-3.3l5.3-6.9a2.35,2.35,0,0,1,3.7,2.9l-5.3,6.9A2.14,2.14,0,0,1,198.4,341.9Z" style="fill:#1a1a1a"/></svg>