<svg id="圖層_1" data-name="圖層 1" xmlns="http://www.w3.org/2000/svg" viewBox="0 0 385.5 449.8"><title>avatar</title><path d="M243.3,192.1,234,212l21,36,28.2,28.3L318.8,243l-7.6-15.2,17.5.4s-20.4-21.8-61.4-39.7C267.3,188.4,250.4,197.2,243.3,192.1Z" style="fill:#eab381"/><path d="M283.2,279.4a3,3,0,0,1-1.6-.5c-.9-.6-23-14.5-47.8-62.7a3.11,3.11,0,0,1,5.5-2.9c20.4,39.6,38.9,55.4,44.1,59.3,10-5.8,21.2-17.8,31.9-30.2-1.2-2.6-4.1-8.2-6.8-13.1a3.11,3.11,0,0,1,.1-3.1,3.28,3.28,0,0,1,2.7-1.5c6.1.2,12.8.4,15.7.4,2.1-3.2,3.6-5.8,4.6-7.5-33.3-24.5-62.1-26.7-62.4-26.7a3.11,3.11,0,0,1,.4-6.2c1.3.1,32.2,2.4,68,29.5a3.11,3.11,0,0,1,.9,3.9,120.41,120.41,0,0,1-7.2,11.7c-1,1.5-1,1.5-11.5,1.3-1.1,0-2.3-.1-3.4-.1a24.37,24.37,0,0,1,1.4,2.8c1.1,2.2,2.1,4,2.7,5.3,1.3,2.6,2.1,4.3.6,6-11.3,13.1-24.3,27.6-36.6,33.9A2.2,2.2,0,0,1,283.2,279.4Zm33.5-38.5-.2.2h0C316.6,241,316.6,240.9,316.7,240.9Zm0,0Zm9.5-14.4Z" style="fill:#1a1a1a"/><path d="M303.6,241.1a2.5,2.5,0,0,1-1.4-.4,119.36,119.36,0,0,1-13.3-11.2,2.33,2.33,0,0,1,3.3-3.3A109.7,109.7,0,0,0,304.9,237a2.29,2.29,0,0,1,.5,3.3A2.74,2.74,0,0,1,303.6,241.1Z" style="fill:#fff"/><path d="M273.9,227.2a2.2,2.2,0,0,1-1.5-.6l-12.6-11a2.34,2.34,0,1,1,3.1-3.5l12.6,11a2.27,2.27,0,0,1,.2,3.3A2.5,2.5,0,0,1,273.9,227.2Z" style="fill:#aa806a"/><polygon points="66.1 218.4 19.3 256.3 27.3 266.3 42.6 263 38.3 279.3 75 305.8 107.3 236.2 90.6 218.6 66.1 218.4" style="fill:#eab381"/><path d="M75,308.9a3.55,3.55,0,0,1-1-.2c-11.8-4.1-25.7-16.2-37.8-27.2-1.5-1.5-1.7-1.6,2-14.4-.8.2-1.6.4-2.5.6-9.4,2.1-9.4,2.1-10.7.7l-.1-.1a120.25,120.25,0,0,1-8.2-10.4,3.16,3.16,0,0,1,.2-3.8c18.4-22.4,36.5-33,45.7-37.3a3.09,3.09,0,0,1,2.6,5.6c-8.4,4-24.9,13.5-42,33.7,1.1,1.5,2.9,3.8,5.3,6.6,2.9-.6,9-2,13.4-3a3.08,3.08,0,0,1,3,.9,3,3,0,0,1,.7,3c-1.6,5.5-3.3,11.6-4,14.3,10.5,9.5,22.2,19.6,32,23.9a316,316,0,0,0,30.1-63.9,3.1,3.1,0,0,1,5.9,1.9,307.25,307.25,0,0,1-32.1,67.5A2.68,2.68,0,0,1,75,308.9Z" style="fill:#1a1a1a"/><path d="M56.2,250.3a2.2,2.2,0,0,1-1.5-.6,2.36,2.36,0,0,1-.3-3.3c6.7-7.8,17.4-13.5,17.8-13.7a2.37,2.37,0,1,1,2.2,4.2c-.1.1-10.4,5.5-16.5,12.6A2,2,0,0,1,56.2,250.3Z" style="fill:#aa806a"/><path d="M74.9,256a2.5,2.5,0,0,1-1.4-.4,2.29,2.29,0,0,1-.5-3.3l9.3-13a2.36,2.36,0,1,1,3.8,2.8l-9.3,13A2.48,2.48,0,0,1,74.9,256Z" style="fill:#aa806a"/><path d="M88.8,284.4s-6.4-10.9-8.5,9.1l-13,74.8,8.5,40.3s21.5,32,21.6,8.7C97.4,417.3,101.1,266.2,88.8,284.4Z" style="fill:#cddc4c"/><path d="M92.6,428.5a3.55,3.55,0,0,1-1-.2c-19.9-6.9-27.7-34.8-23-82.9C72,310.5,80.9,277.1,81,276.8a3.1,3.1,0,1,1,6,1.6c-.1.3-8.9,33.3-12.2,67.7-3,30.8-2.1,69.1,18.9,76.4a3.12,3.12,0,0,1,1.9,4A3.28,3.28,0,0,1,92.6,428.5Z" style="fill:#1a1a1a"/><polyline points="240.3 324.1 253.5 415.3 269.6 409 260.5 354.1" style="fill:#fff"/><path d="M211,238.9s23.1,37,47.9,111.6c4.9,14.6,7.3,37.8,12.4,54.7h0a95.37,95.37,0,0,0,14.5-66.4C279.1,294.5,260.7,228.8,211,238.9Z" style="fill:#cddc4c"/><polyline points="130 246.1 161.8 294.9 200.3 245.3" style="fill:#fcede1"/><path d="M119.5,237.3,101,243.8s-2.9,50.8-11.9,83.5l-1.3,31.2s32.9-32.4,28.5-118" style="fill:#fff"/><path d="M226.3,217.8l7.7,27.7s5,36.9,17.9,54.2l8.6,54.3s-38-36.4-45.4-121.7" style="fill:#fff"/><path d="M123.4,242.6s-11.6-12-8.1,10.4c0,0-3.2,74.3-27.8,108.9,0,0-.5,64.3,11.5,66.9,0,0,80.9,19.1,139.2-6,0,0,1.6,1.5,15.3-7.4h.7l-6.5-46.6-7-39.8s-22.7-60.8-25-94.6l-19,14.2-35,46.4C161.8,294.8,126.7,239.9,123.4,242.6Z" style="fill:#fdeea4"/><path d="M177.7,449.8a187.19,187.19,0,0,1-32.9-2.9c-32.6-5.9-53-18.3-53.8-18.8a3.18,3.18,0,0,1-1.5-2.5c-3.8-73.4-.1-99.5,0-100.6a3.08,3.08,0,1,1,6.1.9h0c0,.3-3.7,26.4-.1,97.7,5.1,2.8,23.7,12.4,50.5,17.2,28.8,5.1,73.1,5.6,121.9-20.8-.4-10.8-12.7-78.3-20.8-120.3a3.1,3.1,0,0,1,6.1-1.1c.1.3,5.9,30.7,11.3,60.9,3.2,17.7,5.6,32,7.2,42.2,1,6.1,1.6,10.9,2,14.3.6,5.1.7,7.6-1.5,8.8C237.5,444,204.6,449.8,177.7,449.8Z" style="fill:#1a1a1a"/><path d="M158.1,296.1h-.2a3,3,0,0,1-2.2-1.4l-28.1-47.2a2.78,2.78,0,1,1,4.8-2.8l26.1,43.8L199,239.7a2.84,2.84,0,1,1,4.4,3.6l-43.1,51.9A3.17,3.17,0,0,1,158.1,296.1Z" style="fill:#1a1a1a"/><path d="M151.6,263.6a2.29,2.29,0,0,1-2.2-1.5l-3.4-9.5a2.34,2.34,0,1,1,4.4-1.6l3.4,9.5a2.38,2.38,0,0,1-1.4,3C152.1,263.5,151.8,263.6,151.6,263.6Z" style="fill:#1a1a1a"/><path d="M143.5,306.5s1.6,74.3,8.5,112.7" style="fill:#f5bba8"/><path d="M152,421.5a2.35,2.35,0,0,1-2.3-1.9c-6.9-38.2-8.6-112.4-8.6-113.1a2.35,2.35,0,0,1,4.7-.1c0,.7,1.6,74.5,8.5,112.4a2.3,2.3,0,0,1-1.9,2.7Z" style="fill:#1a1a1a"/><path d="M92.3,361.3a3.55,3.55,0,0,1-1-.2,2.35,2.35,0,0,1-1.2-3.1c24.5-53.8,24.1-99.6,24.1-100.1a2.35,2.35,0,0,1,2.3-2.4h0a2.26,2.26,0,0,1,2.3,2.3c0,.5.5,47.2-24.5,102.1A2,2,0,0,1,92.3,361.3Z" style="fill:#1a1a1a"/><path d="M261.1,355.8a2.3,2.3,0,0,1-1.4-.4c-12.8-9.2-24.3-31.2-34.3-65.4a465.43,465.43,0,0,1-11.2-48.4,2.33,2.33,0,1,1,4.6-.8c.1.9,15,90.1,43.6,110.8a2.38,2.38,0,0,1,.5,3.3A2.43,2.43,0,0,1,261.1,355.8Z" style="fill:#1a1a1a"/><circle cx="161.3" cy="328.8" r="7.6" style="fill:#fff"/><path d="M161.3,338.8a9.9,9.9,0,1,1,0-19.8,9.9,9.9,0,0,1,0,19.8Zm0-15.2a5.2,5.2,0,0,0,0,10.4,5.29,5.29,0,0,0,5.2-5.2A5.16,5.16,0,0,0,161.3,323.6Z" style="fill:#1a1a1a"/><circle cx="164.1" cy="362" r="7.6" style="fill:#fff"/><path d="M164.1,372a9.9,9.9,0,1,1,9.9-9.9A9.92,9.92,0,0,1,164.1,372Zm0-15.2a5.23,5.23,0,0,0-5.2,5.2,5.2,5.2,0,1,0,10.4,0A5.23,5.23,0,0,0,164.1,356.8Z" style="fill:#1a1a1a"/><circle cx="167.9" cy="399.5" r="7.6" style="fill:#fff"/><path d="M167.9,409.4a9.9,9.9,0,1,1,9.9-9.9A9.92,9.92,0,0,1,167.9,409.4Zm0-15.2a5.23,5.23,0,0,0-5.2,5.2,5.2,5.2,0,1,0,10.4,0A5.23,5.23,0,0,0,167.9,394.2Z" style="fill:#1a1a1a"/><path d="M278.2,419.3a2.64,2.64,0,0,1-1.9-.7,3.16,3.16,0,0,1-.5-4.4c37.2-46.4,4.7-134.8,4.4-135.7a3.1,3.1,0,0,1,5.8-2.2,246.56,246.56,0,0,1,12.3,51.9c4.9,38.3-1.2,69.4-17.6,89.9A3.32,3.32,0,0,1,278.2,419.3Z" style="fill:#1a1a1a"/><ellipse cx="141.51" cy="15.4" rx="13.9" ry="12.3" transform="translate(-0.83 14.83) rotate(-5.98)" style="fill:#fff"/><path d="M141.1,30.8a17.94,17.94,0,0,1-10.3-3.2,14.55,14.55,0,0,1-6.2-10.5c-.9-8.5,6-16.2,15.3-17.1h0c9.3-1,17.6,5.1,18.5,13.6s-6,16.2-15.3,17.1A13.4,13.4,0,0,1,141.1,30.8Zm-.6-24.6c-5.9.6-10.3,5.2-9.7,10.3a8.31,8.31,0,0,0,3.7,6,11.63,11.63,0,0,0,8,2c5.9-.6,10.3-5.2,9.7-10.3s-5.8-8.6-11.7-8Z" style="fill:#1a1a1a"/><path d="M171.1,46.7s59.4-2.9,85.6,69.3l2.9,23.9,9,5.9,8.1,20.8-6.2,20,14.3,8.9-20.9,2.4-7,11.5L235.7,207l-15.5,19.6L194,243.9Z" style="fill:#fff"/><path d="M243.2,144.4l-.5,46.1,13.1,4.4,11.5-6.5S273.4,137.6,243.2,144.4Z" style="fill:#fcede1"/><polyline points="79.8 168.6 60.2 168.5 46.3 179 49.3 206.3 68.4 220.9 84 221.4 92.1 214.9" style="fill:#fcede1"/><path d="M58.3,169.8l13.9-4-.1-16L80.3,135l14.3-29.7s11-7.2,14.1-7.6l2.8,7.5,78.8-10.1,3.1-5.4,9.1,4.2,16.3,24.4,20,.4,5,21.5,15.7-4.7-7.7-32.9S223.1,80,214.1,70.3C202.8,58,179.1,50,179.1,50l-16.6-3.8-40.3,5.9-32,16.2L63.7,99.7,53.5,140Z" style="fill:#eab381"/><path d="M68.8,143.4s.7,86.1,54.9,102.5c0,0,57.1,27,94.8-26.3,0,0,24-29.1,4.7-98.1l-20-31-10.8.5-31.5,9.4-34.8,4.4-14.6.4-2.8-7.5S82.3,106.6,79.3,139C79.2,139,71,137.1,68.8,143.4Z" style="fill:#fcede1"/><ellipse cx="210.21" cy="179.21" rx="13.1" ry="11.6" transform="translate(-24.91 34.22) rotate(-8.79)" style="fill:#f2abb7"/><ellipse cx="113.4" cy="194.11" rx="13.1" ry="11.6" transform="translate(-28.33 19.61) rotate(-8.79)" style="fill:#f2abb7"/><path d="M160.1,176.5h-.2c-14.7-.9-14.7-12.9-14.7-13.1a3.15,3.15,0,0,1,6.3,0c.1,6.1,7.9,6.8,8.8,6.8a3.12,3.12,0,0,1,2.9,3.3A3.16,3.16,0,0,1,160.1,176.5Z" style="fill:#1a1a1a"/><path d="M251.9,197.9a18.33,18.33,0,0,1-10.4-3.2,3.09,3.09,0,1,1,3.5-5.1c8.7,5.9,18.6-2.1,20-3.3,13.6-17,2.2-36.7.9-38.7-3.4-3.8-6.9-5.9-10.6-6.1a14.8,14.8,0,0,0-9.3,3.1,3.24,3.24,0,0,1-4.4-.2,3.15,3.15,0,0,1,.2-4.4,20.31,20.31,0,0,1,13.8-4.7c5.5.3,10.6,3.2,15.1,8.4l.3.3c.2.2,16,25-1.4,46.4l-.3.3C266,193.8,259.3,197.9,251.9,197.9Z" style="fill:#1a1a1a"/><path d="M56.5,170a3.2,3.2,0,0,1-3.1-2.6c-.3-1.7-.6-3.4-.8-5.2-2.5-18.2-1.7-33.6,2.3-47.1,10.6-34.9,35.8-58.3,72.9-67.5a151.19,151.19,0,0,1,53.1-3.4c32.9,4.5,52.6,23.6,63.3,38.9,11.6,16.4,15.4,31.7,15.5,32.3v.1c.1.5,2.7,13.4,2.1,22.9a3.11,3.11,0,1,1-6.2-.4c.5-8.4-1.8-20.2-2-21.2a100.32,100.32,0,0,0-14.7-30.3C224.3,65.9,204.5,53.8,180,50.4a150.06,150.06,0,0,0-50.9,3.4c-35.2,8.9-58.2,30.1-68.2,63.3-3.8,12.6-4.5,27.2-2.1,44.5.2,1.8.5,3.4.8,5a3.08,3.08,0,0,1-2.5,3.6A1,1,0,0,0,56.5,170Z" style="fill:#1a1a1a"/><path d="M245.9,156.4s7.7-7.7,13.6,1.5c0,0,9.5,24.9-12.4,22.2" style="fill:#ebb988"/><path d="M250.3,182.7c-1.1,0-2.2-.1-3.4-.2a2.32,2.32,0,0,1,.6-4.6c4.9.6,8.3-.2,10.1-2.5,3.3-4.2,1.2-13-.1-16.3-1.3-2-2.8-3.1-4.3-3.2-2.4-.3-4.9,1.6-5.5,2.3a2.33,2.33,0,0,1-3.3-3.3c.2-.2,4.3-4.2,9.4-3.6,3.1.3,5.7,2.2,7.9,5.6a.76.76,0,0,1,.2.4c.2.6,5.2,13.8-.5,21.1C258.8,181.2,255.2,182.7,250.3,182.7Z" style="fill:#1a1a1a"/><path d="M75.2,224.5a38.42,38.42,0,0,1-12.7-2.3c-.1-.1-.3-.1-.4-.2-25.4-14.7-16.3-43.2-16.2-43.5a.76.76,0,0,1,.2-.4c7.7-15.3,20.8-14.4,26.1-13.3a3.12,3.12,0,1,1-1.3,6.1c-4.8-1-13.6-1-19.2,9.8-.8,2.5-6.6,24.1,13.3,35.8,1.6.6,12.9,4.4,20.6-1.2a3.08,3.08,0,0,1,3.6,5A22.88,22.88,0,0,1,75.2,224.5Z" style="fill:#1a1a1a"/><path d="M74.5,181.8c-3.2-.9-9.8-1.6-12.3,6.4,0,0-2.2,26.4,20.2,16.9" style="fill:#ebb988"/><path d="M73.8,209.5a12.29,12.29,0,0,1-7.4-2.3c-7.5-5.5-6.5-18.7-6.5-19.2a.9.9,0,0,1,.1-.5c2.2-6.9,7.8-9.9,15.1-7.9a2.43,2.43,0,0,1,1.7,2.9,2.35,2.35,0,0,1-2.9,1.7c-4.8-1.3-7.9.3-9.4,4.6-.2,3.3.2,11.6,4.6,14.8,2.8,2,6.9,1.8,12.4-.5a2.35,2.35,0,0,1,1.9,4.3A26.94,26.94,0,0,1,73.8,209.5Z" style="fill:#1a1a1a"/><path d="M230.6,133.5a3.08,3.08,0,0,1-2.8-1.8c-11.4-25.2-20.8-30.7-20.9-30.8a3.11,3.11,0,1,1,2.9-5.5c1.1.6,11.4,6.5,23.7,33.7a3.08,3.08,0,0,1-1.6,4.1A3.45,3.45,0,0,1,230.6,133.5Z" style="fill:#1a1a1a"/><path d="M79.4,140.9H79a3.14,3.14,0,0,1-2.7-3.5,56.43,56.43,0,0,1,19.5-35.5,3.12,3.12,0,0,1,4,4.8,50.24,50.24,0,0,0-17.3,31.6A3.31,3.31,0,0,1,79.4,140.9Z" style="fill:#1a1a1a"/><ellipse cx="194.51" cy="148.9" rx="11.5" ry="13.8" transform="translate(-17.56 26.29) rotate(-7.4)" style="fill:#1a1a1a"/><path d="M188.2,146.1h-.5c-.4-.1-9.6-1.7-12.6-10.6a2.85,2.85,0,1,1,5.4-1.8c1.9,5.7,7.9,6.8,8.2,6.8a2.88,2.88,0,0,1,2.3,3.2A3,3,0,0,1,188.2,146.1Z" style="fill:#1a1a1a"/><ellipse cx="116.4" cy="158.5" rx="11.5" ry="13.8" transform="matrix(0.99, -0.13, 0.13, 0.99, -19.44, 16.31)" style="fill:#1a1a1a"/><path d="M110,155.7h-.5c-.4-.1-9.6-1.7-12.6-10.5a2.85,2.85,0,1,1,5.4-1.8c1.9,5.7,7.9,6.8,8.2,6.8a2.88,2.88,0,0,1,2.3,3.2A2.72,2.72,0,0,1,110,155.7Z" style="fill:#1a1a1a"/><path d="M159,13.7s-88.5-7.6-103.2,89c0,0-22.8,8.4-19.3,31.3,0,0,108.7-33.1,240.3-36.7,0,0-13.8-18.4-34.9-26.4C241.9,70.8,223.8,10.8,159,13.7Z" style="fill:#fff"/><path d="M144.4,17.1s-73.9-11-88.6,85.6c0,0-22.8,8.4-19.3,31.3,0,0,84.2-32.5,215.8-36.1,0,0-2.5-11.8-23.6-19.8C228.7,78.1,209.1,14.2,144.4,17.1Z" style="fill:#ddcbba"/><path d="M182.7,54.1a2.5,2.5,0,0,1-2.2-1.5c-8.9-23.3-19.6-28.1-19.7-28.1a2.48,2.48,0,0,1-1.3-3.1,2.28,2.28,0,0,1,3-1.3c.5.2,12.6,5.3,22.3,30.8a2.22,2.22,0,0,1-1.4,3C183.3,54.1,183,54.1,182.7,54.1Z" style="fill:#1a1a1a"/><path d="M107.8,61.8a2.26,2.26,0,0,1-2.3-2.3c-.5-18.4,10.9-32.2,11.4-32.8a2.34,2.34,0,0,1,3.6,3c-.1.1-10.8,13-10.3,29.6a2.52,2.52,0,0,1-2.4,2.5Z" style="fill:#1a1a1a"/><path d="M124.6,65.6S83.2,73.5,59.9,80.8l-6.5,21.8s56.4-19.5,78.7-19.2" style="fill:#a18f7e"/><path d="M161.1,60.9s41.9-4.6,66.3-4.6l12.6,19s-59.6-2.1-80.9,4.8" style="fill:#a18f7e"/><path d="M59.8,83.2a2.34,2.34,0,0,1-2.2-1.5,2.39,2.39,0,0,1,1.3-3.1c.5-.2,54.9-22,178.3-25.2h.1a2.26,2.26,0,0,1,2.3,2.3,2.35,2.35,0,0,1-2.3,2.4C115,61.3,61.2,82.8,60.7,83A2.92,2.92,0,0,1,59.8,83.2Z" style="fill:#1a1a1a"/><path d="M53.4,105a2.5,2.5,0,0,1-2.2-1.5,2.25,2.25,0,0,1,1.3-3c.6-.3,66.1-25.2,193.8-27.9a2.29,2.29,0,0,1,2.4,2.3,2.35,2.35,0,0,1-2.3,2.4c-66.3,1.4-115,8.8-144.2,14.8-31.7,6.5-47.8,12.7-48,12.8S53.7,105,53.4,105Z" style="fill:#1a1a1a"/><circle cx="146.6" cy="66.7" r="23.8" style="fill:#bfbfbf"/><path d="M146.6,93.6a26.9,26.9,0,1,1,26.9-26.9A27,27,0,0,1,146.6,93.6Zm0-47.5a20.7,20.7,0,1,0,20.7,20.7A20.74,20.74,0,0,0,146.6,46.1Z" style="fill:#1a1a1a"/><circle cx="146.3" cy="66.2" r="10.9" style="fill:#fff"/><path d="M146.3,79.5a13.3,13.3,0,1,1,13.3-13.3A13.36,13.36,0,0,1,146.3,79.5Zm0-21.9a8.6,8.6,0,1,0,8.6,8.6A8.66,8.66,0,0,0,146.3,57.6Z" style="fill:#1a1a1a"/><path d="M34.1,137a3.29,3.29,0,0,1-1.9-.6,3,3,0,0,1-1.2-2.9,47.09,47.09,0,0,1,19.5-32.7C57,60.1,78.6,38.4,95.6,27.4c18.1-11.7,34.7-14.1,36.3-14.3,28-5.1,67.2-5,95.5,23.7a89.45,89.45,0,0,1,21.5,35.7c21.1,8.8,27.9,22.4,28.1,23a3,3,0,0,1-.1,2.9,3,3,0,0,1-2.5,1.5C103.8,108,36,136.5,35.3,136.8A5,5,0,0,1,34.1,137ZM159.7,16.8A150.53,150.53,0,0,0,133,19.4h-.2c-.2,0-16.5,2.1-34,13.5C75.4,48,61.2,71.6,56.4,103.1a2.79,2.79,0,0,1-1.4,2.1A40.88,40.88,0,0,0,38.1,129c18.7-6.7,87.1-27.8,230.5-34.9-3.5-4.4-10.7-11.3-23.4-16.3a3.23,3.23,0,0,1-1.9-2.2c0-.2-4.7-18.6-20.6-34.6S185.6,16.8,159.7,16.8Z" style="fill:#1a1a1a"/><path d="M247,35.5a12.63,12.63,0,0,0-1.6-8.3c-3.1-5.5-9.2-8-13.7-5.5-3.3,1.8-4.8,5.8-4.1,9.9a25.23,25.23,0,0,0-14.2,7.9c-3.2-2.7-7.3-3.5-10.6-1.7-4.5,2.5-5.6,9-2.6,14.5a13.7,13.7,0,0,0,6.2,5.7,23.46,23.46,0,0,0,2.9,10.7c6.7,12,22.3,16.1,34.8,9.2s17.2-22.4,10.5-34.4A26.33,26.33,0,0,0,247,35.5Z" style="fill:#fff"/><path d="M231.2,83.8a26.55,26.55,0,0,1-27.1-24.1,15.72,15.72,0,0,1-6-6c-3.7-6.6-2.1-14.6,3.5-17.7a11.37,11.37,0,0,1,11.5.7,27.45,27.45,0,0,1,12-6.7c0-4.4,2-8.2,5.5-10.1a10.79,10.79,0,0,1,8.1-.9,14.8,14.8,0,0,1,8.8,7.2,16,16,0,0,1,2,8.3,27.83,27.83,0,0,1,7.2,8.1,26.72,26.72,0,0,1,2.2,20.9,29.07,29.07,0,0,1-13.5,16.7A30.85,30.85,0,0,1,231.2,83.8ZM206.6,39.3a5,5,0,0,0-2.7.7c-3.4,1.9-4.1,7-1.7,11.3a10.61,10.61,0,0,0,5.1,4.7,2.43,2.43,0,0,1,1.4,2.1,20.81,20.81,0,0,0,2.7,9.7c6.1,10.9,20.2,14.6,31.6,8.2a23.94,23.94,0,0,0,11.3-13.9,21.64,21.64,0,0,0-8.6-24.6,2.15,2.15,0,0,1-1-2.3,10.86,10.86,0,0,0-1.3-6.8,10.42,10.42,0,0,0-6-5,6,6,0,0,0-4.5.4c-2.3,1.3-3.5,4.2-3,7.5A2.43,2.43,0,0,1,228,34a22.33,22.33,0,0,0-12.8,7.2,2.35,2.35,0,0,1-3.3.2A8.53,8.53,0,0,0,206.6,39.3Z" style="fill:#1a1a1a"/><path d="M241.5,39.4a13.58,13.58,0,0,0-1.8-7.9c-3-5.4-8-6.3-11.9-4.2-2.8,1.6-1,1.4-.2,5.4-2.3.4-8.2,3.2-10.3,4.4s-3.5,1.7-5.1,3.5a8.77,8.77,0,0,0-10-1c-3.9,2.2-4.6,8.3-1.6,13.7a13.86,13.86,0,0,0,5.8,5.7,27.24,27.24,0,0,0,3.1,10.4c6.6,11.8,20.6,16.4,31.4,10.4s14.2-20.4,7.7-32.2A25.4,25.4,0,0,0,241.5,39.4Z" style="fill:#cddc4c"/><path d="M231.2,83.8a26.55,26.55,0,0,1-27.1-24.1,15.72,15.72,0,0,1-6-6c-3.7-6.6-2.1-14.6,3.5-17.7a11.37,11.37,0,0,1,11.5.7,27.45,27.45,0,0,1,12-6.7c0-4.4,2-8.2,5.5-10.1a10.79,10.79,0,0,1,8.1-.9,14.8,14.8,0,0,1,8.8,7.2,16,16,0,0,1,2,8.3,27.83,27.83,0,0,1,7.2,8.1,26.72,26.72,0,0,1,2.2,20.9,29.07,29.07,0,0,1-13.5,16.7A30.85,30.85,0,0,1,231.2,83.8ZM206.6,39.3a5,5,0,0,0-2.7.7c-3.4,1.9-4.1,7-1.7,11.3a10.61,10.61,0,0,0,5.1,4.7,2.43,2.43,0,0,1,1.4,2.1,20.81,20.81,0,0,0,2.7,9.7c6.1,10.9,20.2,14.6,31.6,8.2a23.94,23.94,0,0,0,11.3-13.9,21.64,21.64,0,0,0-8.6-24.6,2.15,2.15,0,0,1-1-2.3,10.86,10.86,0,0,0-1.3-6.8,10.42,10.42,0,0,0-6-5,6,6,0,0,0-4.5.4c-2.3,1.3-3.5,4.2-3,7.5A2.43,2.43,0,0,1,228,34a22.33,22.33,0,0,0-12.8,7.2,2.35,2.35,0,0,1-3.3.2A8.53,8.53,0,0,0,206.6,39.3Z" style="fill:#1a1a1a"/><path d="M228.1,66a30.1,30.1,0,0,1-7.8-1,2.34,2.34,0,1,1,1.3-4.5h0c.1,0,9.2,2.5,14.6-1.3,2.4-1.7,3.7-4.5,3.9-8.5a2.35,2.35,0,1,1,4.7.3c-.3,5.4-2.2,9.5-5.8,12.1A19.26,19.26,0,0,1,228.1,66Z" style="fill:#1a1a1a"/><ellipse cx="209" cy="48.32" rx="4.4" ry="5.4" transform="translate(2.94 107.93) rotate(-29.15)" style="fill:#1a1a1a"/><ellipse cx="237.11" cy="32.69" rx="4.4" ry="5.4" transform="translate(14.11 119.64) rotate(-29.15)" style="fill:#1a1a1a"/><ellipse cx="219.19" cy="63.21" rx="4" ry="4.9" transform="translate(-3.03 114.78) rotate(-29.15)" style="fill:#1a1a1a"/><ellipse cx="244.27" cy="49.18" rx="4" ry="4.9" transform="translate(6.98 125.22) rotate(-29.15)" style="fill:#1a1a1a"/><path d="M175.7,183.1s7,35.6-5.5,41.5c0,0-14.3,5.6-18.3-17.2,0,0-1.6-15.9-5.5-20.2" style="fill:#ef8b6e"/><path d="M166.5,228a14.27,14.27,0,0,1-7-1.8c-5.2-2.9-8.7-9.1-10.3-18.3v-.2c-.6-6.2-2.5-16.1-4.8-18.6a2.83,2.83,0,1,1,4.2-3.8c4.3,4.8,5.9,18.7,6.2,21.8,1.3,7.3,3.9,12.2,7.4,14.3a8.8,8.8,0,0,0,7,.8c3.9-2,5.9-9.2,5.7-20.3a122,122,0,0,0-1.9-18,2.8,2.8,0,0,1,5.5-1.1c.8,3.9,7,37.9-7,44.6-.1,0-.1.1-.2.1C171.1,227.3,169.2,228,166.5,228Zm3.8-3.4Z" style="fill:#1a1a1a"/><path d="M153,190.4c-10.7,0-16-4.2-16.4-4.5a2.77,2.77,0,1,1,3.5-4.3c.2.2,12.3,9.1,38.2-3.7a2.84,2.84,0,0,1,2.5,5.1C169.2,188.7,159.9,190.4,153,190.4Z" style="fill:#1a1a1a"/><path d="M171.9,123.9a3,3,0,0,1-2.7-1.6,3.13,3.13,0,0,1,1.3-4.2l17.5-9.4a3.11,3.11,0,0,1,2.9,5.5l-17.5,9.4A4,4,0,0,1,171.9,123.9Z" style="fill:#1a1a1a"/><path d="M124.5,132.5a3.55,3.55,0,0,1-1-.2l-18.1-6a3.1,3.1,0,1,1,1.9-5.9l18.1,6a3.15,3.15,0,0,1,2,3.9A3.09,3.09,0,0,1,124.5,132.5Z" style="fill:#1a1a1a"/><path d="M50.7,315.8,15.3,363.1c2.3,26.9,35.4,28.5,35.4,28.5l20.8-13.1,14.4-31.3C74.3,335.4,66.9,319.6,50.7,315.8Z" style="fill:#fbebdf"/><path d="M101.4,247.8c-17.7,2.3-46.9,63-46.9,63l-3.8,5c16.2,3.7,23.6,19.5,35.1,31.3l3.3-7.1C91.4,326.2,101.4,247.8,101.4,247.8Z" style="fill:#fdeea4"/><path d="M3.1,341.8c4.2,20.8,13.5,37.1,31.2,35.9,11.2-.8,24-9.3,27.4-17.4a10,10,0,0,0-1.8-10.6c-1.3-1.4,3.7-4.6,4.3-9.9,2.2-18-13.1-43-35.2-36.6C11.9,308-1.1,321.5,3.1,341.8Z" style="fill:#fbebdf"/><path d="M32.4,380.8c-11.7,0-26-7.1-32.4-38.4H0c-4-19.6,7-36.2,28.1-42.2a27,27,0,0,1,25.6,5.7c9.5,8.1,15,22.2,13.5,34.3a18.42,18.42,0,0,1-3.7,8.2,1.76,1.76,0,0,1-.4.5,13.14,13.14,0,0,1,1.3,12.6c-3.9,9.4-18,18.4-30,19.3Zm3.5-75.6a23.1,23.1,0,0,0-6.1.9c-14.1,4-27.7,15.4-23.7,35h0c4.7,23.1,14.1,34.4,27.9,33.4,10.6-.8,22-8.9,24.7-15.5a7,7,0,0,0-1.2-7.3c-2.3-2.5-.3-5.4,1-7a12,12,0,0,0,2.6-5.3c1.2-10-3.6-22.1-11.4-28.8A21.77,21.77,0,0,0,35.9,305.2Z" style="fill:#1a1a1a"/><ellipse cx="58.19" cy="319.4" rx="12" ry="16.6" transform="translate(-62.24 17.91) rotate(-11.45)" style="fill:#fbebdf"/><path d="M59.7,339a14,14,0,0,1-9.6-4.1,23.45,23.45,0,0,1-6.7-12.5,23.79,23.79,0,0,1,1.3-14.1c2-4.5,5.4-7.4,9.6-8.2,8.2-1.7,16.6,5.7,18.7,16.3s-2.7,20.7-10.9,22.3A9.86,9.86,0,0,1,59.7,339Zm-3.1-32.9a3.75,3.75,0,0,0-1.1.1c-2.1.4-3.9,2.1-5.1,4.7a17.63,17.63,0,0,0-.9,10.3,18.08,18.08,0,0,0,4.8,9.2c2.1,1.9,4.4,2.8,6.5,2.3,4.7-1,7.5-7.8,6-15C65.5,311.1,61,306.1,56.6,306.1Z" style="fill:#1a1a1a"/><path d="M37.2,361.7a2.17,2.17,0,0,1-2.1-1.4,2.35,2.35,0,0,1,1.2-3.1l13.2-5.7a2.35,2.35,0,0,1,1.9,4.3l-13.2,5.7A2,2,0,0,1,37.2,361.7Z" style="fill:#1a1a1a"/><path d="M30.7,345a2.33,2.33,0,0,1-.9-4.5l13.6-5.6a2.38,2.38,0,1,1,1.8,4.4l-13.6,5.6A2.77,2.77,0,0,1,30.7,345Z" style="fill:#1a1a1a"/><path d="M25.8,327.3a2.26,2.26,0,0,1-2.1-1.4,2.35,2.35,0,0,1,1.2-3.1L36,317.7a2.35,2.35,0,0,1,1.9,4.3l-11.1,5.1A4.4,4.4,0,0,1,25.8,327.3Z" style="fill:#1a1a1a"/><path d="M59.1,305.5a3.19,3.19,0,0,1-1.4-.3,3.26,3.26,0,0,1-1.4-4.2c21.8-43.1,49-64,50.1-64.9a3.14,3.14,0,0,1,3.8,5h0c-.3.2-27.2,21-48.3,62.7A3.2,3.2,0,0,1,59.1,305.5Z" style="fill:#1a1a1a"/><path d="M45,394.8c-14.9,0-26.3-12-28-18.3a3.1,3.1,0,1,1,6-1.6c1,3.5,10,13.7,22,13.7h.2c18-.1,33.7-23.2,44.3-65a3.14,3.14,0,0,1,6.1,1.5C81,382.5,60.2,394.7,45.3,394.8Z" style="fill:#1a1a1a"/><path d="M94.1,306.6a2.2,2.2,0,0,1-.8-.1,2.38,2.38,0,0,1-1.4-3c6.2-16.9,6.1-44,6.1-44.3a2.41,2.41,0,0,1,2.3-2.4h0a2.26,2.26,0,0,1,2.3,2.3c0,1.1.1,28.2-6.4,45.9A2.05,2.05,0,0,1,94.1,306.6Z" style="fill:#1a1a1a"/><path d="M83.4,350.9a3.15,3.15,0,0,1-2.9-1.9c-.1-.2-3.1-7.5-7.6-12.3a3.11,3.11,0,1,1,4.5-4.3,50,50,0,0,1,8.8,14.2,3.21,3.21,0,0,1-1.7,4.1A3.6,3.6,0,0,1,83.4,350.9Z" style="fill:#1a1a1a"/><path d="M84.6,326.3a2.46,2.46,0,0,1-1.9-.9,37.56,37.56,0,0,0-6.9-6.9,2.35,2.35,0,1,1,2.9-3.7,41.16,41.16,0,0,1,7.8,7.8,2.37,2.37,0,0,1-.4,3.3A2.82,2.82,0,0,1,84.6,326.3Z" style="fill:#e0bb52"/><path d="M306.7,89.5s-54.2,80.2-42.6,89.5c0,0,18.8,24.3,37,8.9l52-81.8" style="fill:#fcede1"/><path d="M257.5,168s10,30.4,42,25.4l-48,76.1-1.8,27.8-2.3-.5-21.1-71.3Z" style="fill:#fdeea4"/><path d="M364.1,55c16,16.7,24.8,35.1,12.7,50.1-7.7,9.6-23.2,15.7-32.5,13.7a11,11,0,0,1-8.4-8.2c-.5-2.1-6.4.4-11.5-2.3C307,99.2,294.1,70,313.5,54.2,328.4,42,348.6,38.8,364.1,55Z" style="fill:#fff"/><path d="M348.1,122.3a20,20,0,0,1-4.4-.4,14,14,0,0,1-10.3-9h-.9c-2.4,0-6,.1-9.5-1.7-11.7-6.1-20.7-19.7-22.1-33.1a29,29,0,0,1,10.6-26.2c18.3-15,39.8-14.6,54.8,1.1h0c25.4,26.5,21,44.1,12.9,54.2C372.1,115.9,358.6,122.3,348.1,122.3Zm-15-15.7c2.2,0,5.1.3,5.8,3.3a7.75,7.75,0,0,0,6,5.8c7.6,1.6,22.1-3.5,29.4-12.6,9.6-11.9,5.3-27.4-12.5-46h0c-15.2-15.9-33.9-10.7-46.4-.5-8,6.5-9,14.9-8.4,20.8,1.1,11.2,9,23.1,18.8,28.2a12.37,12.37,0,0,0,6.5,1Z" style="fill:#1a1a1a"/><path d="M354.2,61.8c16.3,16.3,30,36.1,20.1,48.4-6.3,7.8-20.1,11.9-28.9,9.3a13,13,0,0,1-8.5-8c-.6-1.9-5.9-.2-10.9-3-17-9.7-31.5-36.8-15-49.1C323.8,49.7,338.4,46,354.2,61.8Z" style="fill:#fcede1"/><path d="M348.1,122.3a20,20,0,0,1-4.4-.4,14,14,0,0,1-10.3-9h-.9c-2.4,0-6,.1-9.5-1.7-11.7-6.1-20.7-19.7-22.1-33.1a29,29,0,0,1,10.6-26.2c18.3-15,39.8-14.6,54.8,1.1h0c25.4,26.5,21,44.1,12.9,54.2C372.1,115.9,358.6,122.3,348.1,122.3Zm-15-15.7c2.2,0,5.1.3,5.8,3.3a7.75,7.75,0,0,0,6,5.8c7.6,1.6,22.1-3.5,29.4-12.6,9.6-11.9,5.3-27.4-12.5-46h0c-15.2-15.9-33.9-10.7-46.4-.5-8,6.5-9,14.9-8.4,20.8,1.1,11.2,9,23.1,18.8,28.2a12.37,12.37,0,0,0,6.5,1Z" style="fill:#1a1a1a"/><ellipse cx="309.89" cy="90.4" rx="13" ry="18.1" transform="translate(23.6 239.55) rotate(-43.78)" style="fill:#fbebdf"/><path d="M314.9,109.4a20.41,20.41,0,0,1-3.4-.3A26.34,26.34,0,0,1,291.3,88c-.7-5.2.7-9.8,3.9-12.9,6.4-6.2,18.2-4.3,26.3,4.1s9.4,20.3,3,26.5A13.37,13.37,0,0,1,314.9,109.4Zm-10-31.7a7.76,7.76,0,0,0-5.4,1.9h0c-1.8,1.7-2.5,4.4-2.1,7.5A20.41,20.41,0,0,0,312.6,103c3.1.6,5.8,0,7.6-1.7,3.9-3.7,2.4-11.8-3.2-17.7C313.4,79.8,308.8,77.7,304.9,77.7Zm-7.5-.4Z" style="fill:#1a1a1a"/><path d="M345.4,107a2.43,2.43,0,0,1-2-1.1,2.31,2.31,0,0,1,.8-3.2l13.3-8.3a2.33,2.33,0,0,1,2.4,4l-13.3,8.3A2.38,2.38,0,0,1,345.4,107Z" style="fill:#1a1a1a"/><path d="M334.4,91.2a2.43,2.43,0,0,1-2-1.1,2.29,2.29,0,0,1,.7-3.2l13.5-8.7a2.32,2.32,0,1,1,2.5,3.9l-13.5,8.7A1.92,1.92,0,0,1,334.4,91.2Z" style="fill:#1a1a1a"/><path d="M323.5,74a2.31,2.31,0,0,1-1.2-4.3l11.4-6.8a2.33,2.33,0,0,1,2.4,4l-11.4,6.8A2.66,2.66,0,0,1,323.5,74Z" style="fill:#1a1a1a"/><path d="M250.3,302.2a3.2,3.2,0,0,1-3.1-2.6c-3.5-20,5.4-39.8,5.8-40.6.1-.1.1-.2.2-.4l88.4-141.5a3.12,3.12,0,1,1,5.3,3.3L258.6,261.7c-.8,1.9-8.2,19.7-5.3,36.8a3.08,3.08,0,0,1-2.5,3.6A.9.9,0,0,1,250.3,302.2Z" style="fill:#1a1a1a"/><path d="M240.4,202.6a2.35,2.35,0,0,1-1.6-.5,3.09,3.09,0,0,1-1-4.3l59.6-97.2a3.12,3.12,0,1,1,5.3,3.3L243,201.1A2.9,2.9,0,0,1,240.4,202.6Z" style="fill:#1a1a1a"/><path d="M292.5,197.8c-9.2,0-18.1-3.9-25.9-11.4a60.31,60.31,0,0,1-9.8-12.3,2.8,2.8,0,1,1,4.9-2.7h0c.1.2,12.3,22.1,32.5,20.8a2.81,2.81,0,0,1,3,2.6,2.87,2.87,0,0,1-2.6,3Z" style="fill:#1a1a1a"/><path d="M242.5,283.8a2.35,2.35,0,0,1-2.3-1.9c-4.3-21.1-12.8-48.2-12.8-48.5a2.31,2.31,0,0,1,4.4-1.4c.1.3,8.7,27.7,13,49a2.39,2.39,0,0,1-1.8,2.8Z" style="fill:#1a1a1a"/><path d="M278,206.9c-15.9,0-23.3-13.6-23.6-14.2a2.37,2.37,0,0,1,4.2-2.2c.3.5,7.2,12.9,21.6,11.7a2.31,2.31,0,1,1,.4,4.6A23.49,23.49,0,0,1,278,206.9Z" style="fill:#e0bb52"/><polygon points="196.2 332.5 181 327.5 208.4 237.4 228.4 220.5 196.2 332.5" style="fill:#ef8519"/><path d="M197.7,335.4,178.3,329l28.2-92.8,26-22Zm-13.9-9.3,10.9,3.6,29.5-102.8-13.9,11.7Z" style="fill:#1a1a1a"/><polygon points="139.6 332.5 154.8 327.5 127.9 248.2 109 239.9 139.6 332.5" style="fill:#ef8519"/><path d="M138.2,335.3l-32.9-99.5,24.4,10.7,27.9,82.3Zm-25.5-91.4,28.4,85.8,11-3.6-25.9-76.3Z" style="fill:#1a1a1a"/><path d="M220.5,231a3.1,3.1,0,0,1-2.1-5.4,93.05,93.05,0,0,0,11.5-12.8c.1-.1.1-.2.2-.3s23.2-26.1,4.2-92.1a3.16,3.16,0,0,1,2.1-3.9,3.2,3.2,0,0,1,3.9,2.1c19.6,68-3.3,95.5-5.5,97.9A97.27,97.27,0,0,1,222.6,230,2.64,2.64,0,0,1,220.5,231Z" style="fill:#1a1a1a"/><path d="M156.7,255.1c-16.3,0-27.9-3.5-29-3.9-24.6-6.8-42.9-28.1-53-61.8a196.78,196.78,0,0,1-7.9-48.7,3.27,3.27,0,0,1,3.1-3.2h0a3.12,3.12,0,0,1,3.1,3.1c0,.9,1.8,89.6,56.4,104.6h.1c.5.2,50.7,15.6,88.8-19.7a3.11,3.11,0,0,1,4.2,4.6c-21.4,19.8-46,24.4-63,24.9A25.28,25.28,0,0,1,156.7,255.1Z" style="fill:#1a1a1a"/></svg>