<?xml version="1.0" encoding="utf-8"?>
<!-- Generator: Adobe Illustrator 21.1.0, SVG Export Plug-In . SVG Version: 6.00 Build 0)  -->
<svg version="1.1" id="圖層_1" xmlns="http://www.w3.org/2000/svg" xmlns:xlink="http://www.w3.org/1999/xlink" x="0px" y="0px"
	 viewBox="0 0 325.9 370" style="enable-background:new 0 0 325.9 370;" xml:space="preserve">
<style type="text/css">
	.st0{fill:#EAB381;}
	.st1{fill:#1A1A1A;}
	.st2{fill:#FFFFFF;}
	.st3{fill:#AA806A;}
	.st4{fill:#CDDC4C;}
	.st5{fill:#FCEDE1;}
	.st6{fill:#FDEEA4;}
	.st7{fill:none;}
	.st8{fill:#EED180;}
	.st9{fill:#F5BBA8;}
	.st10{fill:#F2ABB7;}
	.st11{fill:#EBB988;}
	.st12{fill:#DDCBBA;}
	.st13{fill:#A18F7E;}
	.st14{fill:#BFBFBF;}
	.st15{fill:#EF8B6E;}
	.st16{fill:#FBEBDF;}
	.st17{fill:#E0BB52;}
</style>
<path class="st0" d="M206,162.1l-7.9,16.8l17.7,30.3l23.8,23.9l30.1-28l-6.5-12.8l14.8,0.3c0,0-17.2-18.4-51.8-33.5
	C226.2,159,211.9,166.4,206,162.1z"/>
<path class="st1" d="M239.5,235.7c-0.5,0-1-0.1-1.4-0.4c-0.8-0.5-19.4-12.2-40.3-52.9c-0.7-1.3-0.2-2.9,1.1-3.6
	c1.3-0.7,2.9-0.2,3.6,1.1c0,0,0,0,0,0.1c17.3,33.6,32.8,46.8,37.2,50c8.8-5,18.4-15.6,26.9-25.5c-1.1-2.2-3.5-6.9-5.8-11.1
	c-0.4-0.8-0.4-1.8,0.1-2.6c0.5-0.8,1.4-1.3,2.3-1.2c5.1,0.2,10.8,0.3,13.3,0.3c1.8-2.7,3.1-4.9,3.9-6.4
	c-28.1-20.7-52.4-22.5-52.7-22.5c-1.4-0.1-2.6-1.3-2.5-2.8c0.1-1.4,1.3-2.6,2.8-2.5c1.1,0.1,27.2,2,57.4,24.9c1,0.8,1.3,2.2,0.7,3.3
	c-0.1,0.2-2.2,4.2-6.1,9.9c-0.9,1.3-0.9,1.3-9.7,1.1l-2.8-0.1l1.2,2.3c3.8,7.3,4.1,7.9,2.8,9.4c-9.6,11.1-20.6,23.4-30.9,28.7
	C240.4,235.6,240,235.7,239.5,235.7z"/>
<path class="st2" d="M256.8,203.4c-0.4,0-0.8-0.1-1.1-0.4c-4-2.9-7.8-6-11.2-9.5c-0.6-0.9-0.4-2.2,0.6-2.8c0.7-0.5,1.6-0.4,2.3,0.1
	c3.3,3.3,6.9,6.3,10.7,9c0.9,0.7,1,1.9,0.3,2.8C258,203.1,257.4,203.4,256.8,203.4L256.8,203.4z"/>
<path class="st3" d="M231.8,191.7c-0.5,0-0.9-0.2-1.3-0.5l-10.6-9.3c-0.7-0.8-0.7-2.1,0.2-2.8c0.7-0.6,1.7-0.7,2.4-0.2l10.6,9.3
	c0.8,0.8,0.8,2,0.1,2.8C232.8,191.4,232.3,191.7,231.8,191.7L231.8,191.7z"/>
<polygon class="st0" points="56.4,184.3 16.9,216.2 23.7,224.7 36.6,221.9 33,235.6 63.9,258 91.2,199.3 77.2,184.4 "/>
<path class="st1" d="M63.9,260.6c-0.3,0-0.6,0-0.9-0.1c-10-3.5-21.7-13.7-31.8-23c-1.3-1.2-1.5-1.3,1.6-12.1l-2.1,0.5
	c-8,1.8-8,1.8-9.1,0.5c-4.3-5-6.8-8.6-6.9-8.7c-0.7-1-0.6-2.3,0.1-3.2c15.5-18.8,30.8-27.8,38.6-31.4c1.3-0.5,2.9,0.1,3.4,1.5
	c0.5,1.2,0,2.7-1.2,3.3c-7.1,3.4-21,11.5-35.4,28.5c1,1.3,2.5,3.2,4.4,5.5c2.4-0.5,7.6-1.7,11.3-2.6c1.4-0.3,2.8,0.6,3.2,2
	c0.1,0.4,0.1,0.9,0,1.3c-1.3,4.6-2.8,9.8-3.3,12c8.8,8,18.7,16.5,27.1,20.1c10.4-17,18.9-35.1,25.3-54c0.5-1.4,2-2.1,3.3-1.7
	c1.4,0.5,2.1,2,1.7,3.3c-6.7,20-15.8,39.1-27.1,57C65.7,260.2,64.8,260.6,63.9,260.6z M25.7,223L25.7,223z"/>
<path class="st3" d="M48.1,211.2c-1.1,0-2-0.9-1.9-2.1c0-0.4,0.2-0.9,0.4-1.2c5.6-6.6,14.7-11.4,15-11.6c1-0.3,2.2,0.2,2.5,1.3
	c0.3,0.8,0,1.7-0.7,2.2c-0.1,0-8.8,4.6-13.9,10.6C49.2,210.9,48.6,211.2,48.1,211.2z"/>
<path class="st3" d="M63.9,216c-1.1,0-2-1-1.9-2.1c0-0.4,0.1-0.7,0.3-1.1l7.9-11c0.8-0.8,2.1-0.8,2.8,0c0.6,0.6,0.7,1.5,0.4,2.3
	l-7.9,11C65.1,215.7,64.5,216,63.9,216z"/>
<path class="st4" d="M75.6,239.8c0,0-5.4-9.2-7.1,7.7l-11,63.1l7.1,34c0,0,18.2,27,18.2,7.4C82.8,351.9,86,224.4,75.6,239.8z"/>
<path class="st1" d="M75.7,360c-0.3,0-0.6,0-0.9-0.1c-39.4-13.7-7.3-122-5.9-126.6c0.3-1.4,1.6-2.4,3.1-2.1s2.4,1.6,2.1,3.1
	c0,0.2-0.1,0.4-0.2,0.6c-5.3,18.5-9.3,37.3-11.8,56.4c-3.2,25.7-3.2,57.6,14.4,63.7c1.4,0.5,2.1,2,1.6,3.4
	C77.8,359.3,76.9,360,75.7,360L75.7,360z"/>
<polyline class="st2" points="203.4,273.3 214.6,350.2 228.2,344.8 220.4,298.5 "/>
<path class="st4" d="M178.7,201.4c0,0,19.5,31.3,40.4,94.1c4.1,12.3,6.1,31.9,10.4,46.1l0,0c10.8-16.5,15.2-36.5,12.2-56
	C236.1,248.2,220.6,192.9,178.7,201.4z"/>
<polyline class="st5" points="110.4,207.4 137.2,248.6 169.7,206.8 "/>
<path class="st2" d="M101.5,200l-15.6,5.5c0,0-2.5,42.9-10.1,70.4l-1,26.4c0,0,27.7-27.4,24-99.5"/>
<path class="st2" d="M191.6,183.6l6.5,23.4c0,0,4.2,31.1,15.1,45.7l7.2,45.8c0,0-32-30.7-38.3-102.7"/>
<path class="st6" d="M209.7,310.8l-5.9-33.6c0,0-19.1-51.3-21.1-79.8l-16,12l-29.6,39.2c0,0-29.6-46.4-32.3-44.1
	c0,0-9.8-10.1-6.8,8.8c0,0-2.7,62.7-23.5,91.9c0,0-1,50.1,5.3,64.9h140L209.7,310.8z"/>
<path class="st1" d="M232.8,355.1c-1.6-10.3-4-24.5-7.2-42.4c-5.4-30.3-11.1-60.9-11.2-61.2c-0.3-1.4-1.7-2.4-3.1-2.1
	c-1.4,0.3-2.4,1.7-2.1,3.1c7.6,40.6,18.4,100,20.4,117.4h5.3C234.6,366.8,233.9,362.1,232.8,355.1z"/>
<path class="st1" d="M81.4,274.5c0.1-1.4-1-2.7-2.4-2.8s-2.7,1-2.8,2.4c0,0.4-3,37.2-0.3,95.9h5.3C78.4,311.6,81.4,274.9,81.4,274.5
	z"/>
<path class="st1" d="M134.1,249.6h-0.1c-0.8,0-1.5-0.5-1.9-1.1l-23.7-39.8c-0.7-1.1-0.3-2.6,0.8-3.2s2.6-0.3,3.2,0.8l22,36.9
	l32.4-41c0.8-1.1,2.2-1.3,3.3-0.6c1.1,0.8,1.3,2.2,0.6,3.3c0,0.1-0.1,0.1-0.2,0.2L136,248.7C135.5,249.3,134.8,249.6,134.1,249.6z"
	/>
<line class="st7" x1="125.6" y1="212.2" x2="128.5" y2="220.2"/>
<path class="st1" d="M128.5,222.2c-0.8,0-1.6-0.5-1.9-1.3l-2.9-8c-0.2-1.1,0.5-2.1,1.6-2.3c0.8-0.2,1.7,0.2,2.1,1l2.9,8
	c0.4,1-0.2,2.2-1.2,2.5C129,222.1,128.7,222.2,128.5,222.2L128.5,222.2z"/>
<path class="st8" d="M184.1,295.5l-19.8,1.7c-3.4,0.3-6.4-2.5-6.7-6.2l-3-32.8l32-2.8l3,32.8C189.9,291.9,187.5,295.2,184.1,295.5z"
	/>
<path class="st1" d="M163.8,299.2c-4.2,0-7.8-3.5-8.2-8.1l-3-32.8c-0.1-1.1,0.7-2,1.8-2.1l32-2.8c1.1-0.1,2,0.7,2.1,1.8l3,32.8
	c0.2,2.4-0.5,4.8-2,6.7c-1.3,1.6-3.2,2.6-5.2,2.8l-19.8,1.7L163.8,299.2z M156.8,259.9l2.8,30.9c0.2,2.7,2.3,4.7,4.6,4.5l19.8-1.7
	l0,0c1-0.1,1.9-0.6,2.6-1.4c0.9-1.1,1.3-2.4,1.1-3.8l-2.8-30.9L156.8,259.9z"/>
<polyline class="st8" points="155.9,270.3 172.4,276.6 187.1,267.5 "/>
<path class="st1" d="M172.4,278.5c-0.2,0-0.5,0-0.7-0.1l-16.5-6.3c-1.1-0.2-1.8-1.3-1.6-2.3c0.2-1.1,1.3-1.8,2.3-1.6
	c0.2,0,0.4,0.1,0.6,0.2l15.6,6l13.8-8.6c0.8-0.7,2.1-0.7,2.8,0.2c0.7,0.8,0.7,2.1-0.2,2.8c-0.2,0.1-0.4,0.3-0.6,0.4l-14.7,9.1
	C173.1,278.5,172.8,278.5,172.4,278.5z"/>
<path class="st9" d="M121.8,258.3c0,0,1.3,62.7,7.2,95.1"/>
<path class="st1" d="M128.9,355.4c-0.9,0-1.8-0.7-1.9-1.6c-5.9-32.2-7.2-94.8-7.2-95.4c-0.2-1.1,0.5-2.1,1.6-2.3
	c1.1-0.2,2.1,0.5,2.3,1.6c0,0.2,0,0.4,0,0.6c0,0.6,1.4,62.9,7.2,94.8c0.2,1.1-0.5,2.1-1.6,2.3C129.2,355.4,129.1,355.4,128.9,355.4z
	"/>
<path class="st1" d="M78.5,304.6c-0.3,0-0.6-0.1-0.8-0.2c-1-0.5-1.4-1.6-1-2.6c20.7-45.5,20.3-84,20.3-84.4
	c-0.2-1.1,0.5-2.1,1.6-2.3c1.1-0.2,2.1,0.5,2.3,1.6c0,0.2,0,0.5,0,0.7c0,0.4,0.4,39.8-20.7,86.1C80,304.2,79.3,304.6,78.5,304.6z"/>
<path class="st1" d="M220.9,299.9c-0.4,0-0.8-0.1-1.2-0.4c-10.8-7.8-20.5-26.4-28.9-55.2c-3.9-13.4-7-27-9.4-40.8c0-1.1,0.9-2,2-2
	c0.9,0,1.6,0.5,1.9,1.4c0.1,0.8,12.6,76,36.8,93.4c0.9,0.7,1,1.9,0.3,2.8C222.1,299.6,221.5,299.9,220.9,299.9z"/>
<circle class="st2" cx="136.8" cy="277.2" r="6.4"/>
<path class="st1" d="M136.8,285.6c-4.6,0-8.4-3.8-8.4-8.4c0-4.6,3.8-8.4,8.4-8.4c4.6,0,8.4,3.8,8.4,8.4c0,1.5-0.4,3.1-1.2,4.4
	c-1.1,1.9-3,3.3-5.2,3.8C138.1,285.5,137.4,285.6,136.8,285.6z M136.8,272.8c-0.3,0-0.7,0-1,0.1c-2.4,0.6-3.8,3-3.3,5.3c0,0,0,0,0,0
	c0.6,2.4,3,3.8,5.3,3.2s3.8-3,3.2-5.3l0,0l0,0C140.6,274.2,138.8,272.8,136.8,272.8L136.8,272.8z"/>
<circle class="st2" cx="139.1" cy="305.2" r="6.4"/>
<path class="st1" d="M139.1,313.6c-4.6,0-8.4-3.8-8.4-8.4s3.8-8.4,8.4-8.4s8.4,3.8,8.4,8.4c0,3.9-2.6,7.2-6.4,8.1
	C140.5,313.5,139.8,313.6,139.1,313.6z M139.1,300.8c-0.4,0-0.7,0-1.1,0.1c-2.4,0.6-3.8,3-3.2,5.3c0.6,2.4,3,3.8,5.3,3.2
	c2.4-0.6,3.8-3,3.2-5.3C142.9,302.2,141.2,300.8,139.1,300.8z"/>
<circle class="st2" cx="142.4" cy="336.8" r="6.4"/>
<path class="st1" d="M142.4,345.2c-3.9,0-7.2-2.6-8.1-6.4c-1.1-4.5,1.6-9,6.1-10.1s9,1.6,10.1,6.1l0,0c1.1,4.5-1.7,9-6.1,10.1
	C143.7,345.1,143,345.2,142.4,345.2z M142.4,332.4c-0.3,0-0.7,0-1,0.1c-2.4,0.6-3.8,3-3.2,5.3c0.6,2.4,3,3.8,5.3,3.2
	c2.4-0.6,3.8-3,3.2-5.3l0,0C146.2,333.8,144.4,332.4,142.4,332.4L142.4,332.4z"/>
<path class="st1" d="M231.8,352.8c-1.5,0-2.6-1.2-2.6-2.6c0-0.9,0.4-1.7,1.1-2.2c43.9-30.2,7.2-112.3,6.8-113.1
	c-0.7-1.3-0.2-2.9,1.1-3.5c1.3-0.7,2.9-0.2,3.5,1.1c0,0.1,0.1,0.2,0.1,0.2c6.5,15,11.1,30.8,13.7,46.9c5.2,33.9-2.5,59-22.3,72.6
	C232.8,352.7,232.3,352.9,231.8,352.8z"/>
<ellipse transform="matrix(0.9946 -0.1042 0.1042 0.9946 -0.6975 12.577)" class="st2" cx="120" cy="13" rx="11.7" ry="10.4"/>
<path class="st1" d="M119.7,26c-3.1,0-6.1-0.9-8.7-2.7c-2.9-2-4.9-5.3-5.3-8.8c-0.8-7.2,5-13.6,12.9-14.5s14.9,4.3,15.6,11.5
	c0.4,3.6-0.9,7.1-3.3,9.7c-2.5,2.7-5.9,4.4-9.6,4.7C120.8,26,120.2,26,119.7,26z M120.3,5.2c-0.4,0-0.7,0-1.1,0
	c-5,0.5-8.7,4.4-8.2,8.7c0.2,2.1,1.4,3.9,3.1,5.1c4.1,2.8,9.6,2.2,13-1.4c1.5-1.5,2.2-3.6,2-5.6C128.7,8.1,124.9,5.2,120.3,5.2
	L120.3,5.2z"/>
<path class="st2" d="M145,39.4c0,0,50.1-2.4,72.2,58.4l2.4,20.2l7.6,4.9l6.8,17.5l-5.2,16.9l12.1,7.5l-17.6,2.1l-5.9,9.7l-17.9-2
	l-13.1,16.6l-22.1,14.7L145,39.4z"/>
<path class="st5" d="M205.9,121.8l-0.4,38.9l11,3.7l9.7-5.5C226.2,159,231.4,116.1,205.9,121.8z"/>
<polyline class="st5" points="68,142.3 51.5,142.2 39.7,151.1 42.3,174.1 58.4,186.4 71.6,186.8 78.4,181.3 "/>
<path class="st0" d="M49.9,143.3l11.7-3.4l-0.1-13.5l6.9-12.5l12.1-25c0,0,9.3-6.1,11.9-6.4l2.4,6.3l66.4-8.5l2.6-4.5l7.7,3.5
	l13.8,20.6l16.9,0.3l4.2,18.1l13.3-4l-6.5-27.8c0,0-24.2-19.1-31.8-27.3c-9.6-10.3-29.6-17-29.6-17l-14-3.2l-34,5l-27,13.7
	L54.4,84.1l-8.6,34L49.9,143.3z"/>
<path class="st5" d="M58.7,121c0,0,0.6,72.7,46.3,86.4c0,0,48.1,22.8,80-22.2c0,0,20.3-24.6,4-82.8l-16.9-26.1l-9.2,0.5l-26.6,8
	l-29.4,3.7l-12.3,0.3l-2.4-6.3c0,0-22.3,7.5-24.8,34.8C67.5,117.3,60.6,115.7,58.7,121z"/>
<ellipse transform="matrix(0.9883 -0.1528 0.1528 0.9883 -21.0079 28.9789)" class="st10" cx="178" cy="151.2" rx="11.1" ry="9.8"/>
<ellipse transform="matrix(0.9883 -0.1528 0.1528 0.9883 -23.8985 16.6426)" class="st10" cx="96.3" cy="163.8" rx="11.1" ry="9.8"/>
<path class="st1" d="M135.7,148.9h-0.2c-9.9-0.6-12.4-7.5-12.4-11c0-1.4,1.2-2.6,2.6-2.6l0,0c1.4,0,2.6,1.2,2.6,2.6
	c0,0.9,0.4,5.3,7.4,5.7c1.5,0,2.6,1.3,2.5,2.7C138.3,147.8,137.1,149,135.7,148.9L135.7,148.9z"/>
<path class="st1" d="M213.3,167c-3.1,0-6.2-1-8.8-2.8c-1.2-0.8-1.5-2.5-0.7-3.7s2.5-1.5,3.7-0.7c7.3,5,15.6-1.7,16.8-2.8
	c11.4-14.3,1.8-30.9,0.8-32.6c-2.8-3.2-5.9-4.9-9-5.1c-2.8-0.1-5.6,0.8-7.8,2.6c-1.1,1-2.7,0.9-3.7-0.2s-0.9-2.7,0.2-3.7
	c3.2-2.7,7.4-4.2,11.6-4c4.6,0.3,8.9,2.7,12.8,7.1c0.1,0.1,0.1,0.2,0.2,0.3c0.1,0.2,13.5,21.1-1.1,39.1c-0.1,0.1-0.2,0.2-0.3,0.3
	c-2.2,1.9-4.6,3.4-7.3,4.5C218.4,166.4,215.8,167,213.3,167z"/>
<path class="st1" d="M48.3,143.4c-1.3,0-2.4-0.9-2.6-2.2c-0.2-1.4-0.5-2.9-0.7-4.4c-2.1-15.4-1.5-28.4,2-39.8
	c8.9-29.5,30.2-49.2,61.5-57c14.6-3.6,29.8-4.6,44.8-2.9C181,41,197.6,57.1,206.7,70c5.9,8.3,10.3,17.5,13.1,27.3c0,0,0,0.1,0,0.1
	c0.1,0.5,2.3,11.3,1.8,19.3c-0.1,1.5-1.3,2.6-2.8,2.5s-2.6-1.3-2.5-2.8c0,0,0,0,0-0.1c0.4-7-1.5-17.1-1.7-17.9
	c-0.4-1.7-13.3-49.4-62.1-56c-14.4-1.5-28.9-0.6-42.9,2.8c-29.7,7.5-49.1,25.4-57.6,53.4c-3.2,10.7-3.8,22.9-1.8,37.5
	c0.2,1.4,0.4,2.9,0.7,4.2c0.2,1.4-0.7,2.8-2.2,3C48.6,143.4,48.5,143.4,48.3,143.4z"/>
<path class="st11" d="M208.1,132c0,0,6.5-6.5,11.5,1.3c0,0,8,21-10.4,18.7"/>
<path class="st1" d="M211.8,154.1c-1,0-1.9-0.1-2.9-0.2c-1.1,0.1-2-0.8-2.1-1.9c-0.1-1.1,0.8-2,1.9-2.1c0.2,0,0.5,0,0.7,0.1
	c4.1,0.5,7-0.2,8.5-2.1c2.8-3.6,1-10.9,0-13.7c-1.1-1.7-2.3-2.6-3.6-2.7c-2-0.2-4.1,1.4-4.7,1.9c-0.9,0.6-2.1,0.4-2.8-0.5
	c-0.5-0.7-0.5-1.6,0-2.3c0.1-0.1,3.6-3.5,7.9-3.1c2.6,0.3,4.8,1.9,6.6,4.7c0.1,0.1,0.1,0.2,0.2,0.4c0.2,0.5,4.4,11.6-0.4,17.8
	C219,152.9,215.9,154.1,211.8,154.1z"/>
<path class="st1" d="M64.1,189.4c-3.7,0-7.3-0.7-10.8-2c-0.1,0-0.2-0.1-0.3-0.2c-21.4-12.4-13.8-36.4-13.7-36.7
	c0-0.1,0.1-0.2,0.2-0.4c6.5-13,17.6-12.2,22-11.2c1.4,0.3,2.4,1.6,2.1,3c-0.3,1.4-1.6,2.4-3,2.1c-0.1,0-0.1,0-0.2,0
	c-4-0.9-11.5-0.9-16.2,8.2c-0.6,2.1-5.6,20.3,11.2,30.2c1.3,0.5,10.9,3.7,17.4-1c1.2-0.9,2.8-0.6,3.7,0.5c0.9,1.2,0.6,2.8-0.5,3.7
	c0,0-0.1,0-0.1,0.1C72.5,188.3,68.3,189.5,64.1,189.4z"/>
<path class="st11" d="M63.6,153.4c-2.7-0.7-8.3-1.3-10.4,5.4c0,0-1.9,22.3,17.1,14.3"/>
<path class="st1" d="M62.9,176.8c-2.2,0-4.4-0.6-6.2-1.9c-6.4-4.6-5.5-15.8-5.5-16.2c0-0.1,0-0.3,0.1-0.4c1.8-5.8,6.6-8.3,12.8-6.7
	c1,0.3,1.7,1.4,1.4,2.4c-0.3,1-1.4,1.7-2.4,1.4c-4-1.1-6.7,0.2-7.9,3.9c-0.2,2.8,0.2,9.8,3.9,12.5c2.3,1.7,5.9,1.5,10.5-0.4
	c1.1-0.3,2.2,0.4,2.4,1.5c0.2,0.8-0.1,1.7-0.9,2.2C68.5,176,65.7,176.7,62.9,176.8z"/>
<path class="st1" d="M195.2,112.7c-1,0-2-0.6-2.4-1.6c-9.6-21.3-17.5-25.9-17.6-25.9c-1.3-0.6-1.9-2.2-1.3-3.5s2.2-1.9,3.5-1.3
	c0.1,0,0.1,0.1,0.2,0.1c1,0.5,9.6,5.5,20,28.4c0.6,1.3,0,2.9-1.3,3.5C196,112.6,195.6,112.7,195.2,112.7z"/>
<path class="st1" d="M132.8,215.1c-8.2,0.1-16.4-1-24.3-3.1c-20.8-5.8-36.2-23.8-44.8-52.2c-3.9-13.4-6.2-27.2-6.6-41.1
	c0-1.4,1.1-2.6,2.6-2.7c0,0,0.1,0,0.1,0l0,0c1.4,0,2.6,1.2,2.6,2.6c0,0.8,1.5,75.6,47.5,88.2h0.1c0.4,0.1,42.7,13.1,74.9-16.6
	c1.1-1,2.8-0.8,3.7,0.3c0.9,1,0.9,2.6-0.1,3.6C170.2,211.1,148.8,215.1,132.8,215.1z"/>
<path class="st1" d="M67.7,118.8h-0.3c-1.4-0.2-2.5-1.5-2.3-2.9c0,0,0,0,0-0.1c1.6-11.7,7.5-22.4,16.5-30c1.2-0.9,2.8-0.7,3.7,0.5
	c0.9,1.2,0.7,2.8-0.5,3.7l0,0c-7.9,6.8-13,16.2-14.5,26.5C70.1,117.9,69,118.8,67.7,118.8z"/>
<ellipse transform="matrix(0.9915 -0.1302 0.1302 0.9915 -14.8905 22.5019)" class="st1" cx="164.7" cy="125.1" rx="9.7" ry="11.6"/>
<path class="st1" d="M159.4,123.3c-0.1,0-0.3,0-0.4,0c-0.3-0.1-8.1-1.4-10.6-8.9c-0.4-1.2,0.2-2.6,1.5-3s2.6,0.2,3,1.5
	c1.6,4.8,6.7,5.7,6.9,5.8c1.3,0.2,2.1,1.5,1.9,2.8C161.5,122.5,160.5,123.3,159.4,123.3L159.4,123.3z"/>
<ellipse transform="matrix(0.9917 -0.1288 0.1288 0.9917 -16.4033 13.8466)" class="st1" cx="98.9" cy="133.8" rx="9.7" ry="11.6"/>
<path class="st1" d="M93.5,131.4c-0.1,0-0.3,0-0.4,0c-0.3,0-8.1-1.4-10.6-8.9c-0.4-1.2,0.2-2.6,1.5-3c1.2-0.4,2.6,0.2,3,1.5
	c1.6,4.8,6.7,5.7,6.9,5.8c1.3,0.2,2.1,1.5,1.9,2.8C95.6,130.6,94.6,131.4,93.5,131.4L93.5,131.4z"/>
<path class="st2" d="M134.8,11.6c0,0-74.7-6.4-87.1,75.1c0,0-19.3,7.1-16.3,26.4c0,0,91.7-27.9,202.8-31c0,0-11.6-15.5-29.4-22.3
	C204.7,59.8,189.5,9.1,134.8,11.6z"/>
<path class="st12" d="M122.5,14.4c0,0-62.3-9.3-74.7,72.2c0,0-19.3,7.1-16.3,26.4c0,0,71-27.4,182.1-30.5c0,0-2.1-9.9-19.9-16.7
	C193.6,65.9,177.1,12,122.5,14.4z"/>
<path class="st1" d="M154.8,45.7c-0.8,0-1.5-0.5-1.8-1.3c-7.6-19.9-16.5-23.7-16.6-23.7c-1-0.4-1.5-1.6-1.1-2.6
	c0.4-1,1.6-1.5,2.6-1.1c0.4,0.2,10.6,4.5,18.8,26c0.4,1-0.2,2.2-1.2,2.6C155.3,45.6,155.1,45.7,154.8,45.7L154.8,45.7z"/>
<path class="st1" d="M91.6,52.1c-1.1,0-2-0.8-2-1.9c-0.4-15.6,9.3-27.2,9.7-27.6c0.6-1,1.8-1.3,2.7-0.7c1,0.6,1.3,1.8,0.7,2.7
	c-0.1,0.2-0.3,0.4-0.5,0.5l0,0c-0.1,0.1-9.1,11-8.7,25C93.5,51.2,92.7,52.1,91.6,52.1L91.6,52.1z"/>
<path class="st13" d="M105.8,55.4c0,0-35,6.7-54.6,12.8l-5.5,18.4c0,0,47.6-16.5,66.4-16.2"/>
<path class="st13" d="M136.6,51.4c0,0,35.4-3.9,55.9-3.8l10.6,16c0,0-50.3-1.8-68.2,4.1"/>
<path class="st1" d="M51.2,70.2c-1.1-0.1-1.9-1-1.9-2.1c0-0.7,0.5-1.4,1.1-1.7c0.4-0.2,46.3-18.6,150.4-21.2c1.1,0,2,0.8,2,1.9
	c0,1.1-0.9,2-1.9,2C97.6,51.7,52.4,69.8,51.9,70C51.7,70.1,51.4,70.2,51.2,70.2z"/>
<path class="st1" d="M45.7,88.5c-1.1-0.1-1.9-1-1.9-2.1c0-0.7,0.5-1.4,1.2-1.7c0.5-0.2,55.8-21.2,163.5-23.5
	c1.1-0.2,2.1,0.5,2.3,1.6s-0.5,2.1-1.6,2.3c-0.2,0-0.5,0-0.7,0c-107,2.3-161.6,23-162.2,23.3C46.2,88.5,45.9,88.6,45.7,88.5z"/>
<circle class="st14" cx="124.3" cy="56.3" r="20.1"/>
<path class="st1" d="M124.3,79c-12.5,0-22.6-10.2-22.6-22.7s10.2-22.6,22.7-22.6S147,43.9,147,56.4c0,11.1-8.1,20.5-19,22.3
	C126.8,78.9,125.6,79,124.3,79z M124.3,38.9c-0.9,0-1.9,0.1-2.8,0.2c-9.5,1.5-16,10.5-14.4,20s10.5,16,20,14.4
	c9.5-1.5,16-10.5,14.4-20c0,0,0,0,0,0C140.2,45.1,132.9,38.9,124.3,38.9L124.3,38.9z"/>
<circle class="st2" cx="124.1" cy="55.9" r="9.2"/>
<path class="st1" d="M124.1,67.1c-6.1,0-11.1-5.1-11.1-11.2c0-6.1,5.1-11.1,11.2-11.1c6.1,0,11.1,5.1,11.1,11.2
	c0,5.4-4,10.1-9.4,10.9C125.3,67,124.7,67.1,124.1,67.1z M124.1,48.6c-0.4,0-0.8,0-1.2,0.1c-4,0.6-6.6,4.4-6,8.3s4.4,6.6,8.3,6
	c4-0.6,6.6-4.4,6-8.3l0,0C130.7,51.2,127.6,48.6,124.1,48.6L124.1,48.6z"/>
<path class="st1" d="M29.4,115.6c-1.5,0-2.6-1.2-2.6-2.6c0-0.1,0-0.2,0-0.3c1.3-11.1,7.3-21.2,16.5-27.6
	C48.8,50.6,67,32.4,81.4,23.1c15.3-9.9,29.3-11.9,30.6-12c23.6-4.3,56.7-4.2,80.6,20c8.3,8.5,14.6,18.8,18.2,30.1
	c17.8,7.4,23.5,18.9,23.7,19.4c0.6,1.3,0.1,2.9-1.2,3.5c-0.3,0.2-0.7,0.2-1,0.3c-75.4,3.6-126.3,11.8-155.8,18.1
	c-31.8,6.8-45.8,12.8-46,12.9C30.1,115.5,29.8,115.6,29.4,115.6z M135.4,14.1c-7.6,0-15.1,0.8-22.5,2.2h-0.2
	c-10.2,1.8-20,5.6-28.7,11.4C64.3,40.5,52.3,60.4,48.3,87c-0.1,0.8-0.6,1.5-1.3,1.9c-7,4.7-12,11.8-14.2,20
	c15.7-5.7,73.5-23.4,194.5-29.5c-3-3.7-9-9.5-19.7-13.7c-0.8-0.3-1.4-1-1.6-1.8c-3.3-11-9.2-21.1-17.3-29.2
	C175.2,21,157.3,14.1,135.4,14.1L135.4,14.1z"/>
<path class="st2" d="M209,30c0.4-2.4-0.1-4.9-1.3-7c-2.6-4.7-7.8-6.7-11.6-4.6c-2.8,1.5-4,4.9-3.5,8.4c-4.6,0.8-8.9,3.1-12,6.7
	c-2.7-2.3-6.2-3-9-1.4c-3.8,2.1-4.8,7.6-2.2,12.2c1.2,2.1,3.1,3.8,5.3,4.7c0.1,3.2,1,6.3,2.5,9.1c5.7,10.2,18.8,13.6,29.3,7.7
	s14.5-18.9,8.8-29C213.9,34.1,211.7,31.8,209,30z"/>
<path class="st1" d="M195.7,70.7c-8.3,0.1-16-4.4-20.1-11.6c-1.5-2.7-2.4-5.7-2.6-8.7c-2.1-1.2-3.9-3-5.1-5.1
	c-1.5-2.5-2-5.5-1.5-8.4c0.4-2.8,2-5.2,4.5-6.6c3.1-1.6,6.8-1.4,9.7,0.6c2.8-2.7,6.3-4.7,10.1-5.6c-0.1-3.5,1.6-6.8,4.6-8.6
	c4.7-2.6,11.1-0.2,14.2,5.4c1.2,2.1,1.8,4.6,1.7,7c2.5,1.8,4.5,4.2,6,6.8c3,5.4,3.7,11.8,1.8,17.6c-1.8,6-5.9,11-11.4,14
	C203.9,69.6,199.8,70.7,195.7,70.7z M175,33.2c-0.8,0-1.6,0.2-2.3,0.6c-1.4,0.8-2.3,2.2-2.5,3.8c-0.6,4.1,1.6,8,5.4,9.7
	c0.7,0.3,1.2,1,1.2,1.8c0.1,2.9,0.9,5.7,2.2,8.2c5.1,9.2,17.1,12.3,26.6,7c4.6-2.5,8-6.7,9.6-11.8c1.5-4.9,1-10.2-1.5-14.6
	c-1.4-2.5-3.4-4.6-5.8-6.2c-0.6-0.4-1-1.2-0.8-2c0.3-1.9-0.1-3.9-1.1-5.6c-2.1-3.7-6.1-5.4-8.9-3.8c-1.9,1.1-2.9,3.6-2.5,6.4
	c0.1,1-0.5,2-1.6,2.2c-2.1,0.4-4.1,1.1-6,2.1c-1.8,1.1-3.5,2.4-4.9,4c-0.7,0.8-1.9,0.8-2.7,0.2C178.2,33.9,176.6,33.3,175,33.2
	L175,33.2z"/>
<path class="st4" d="M204.4,33.3c0.2-2.3-0.3-4.7-1.5-6.7c-2.5-4.6-6.8-5.3-10-3.5c-2.4,1.3-0.8,1.2-0.2,4.5c-2,0.3-6.9,2.7-8.7,3.7
	s-3,1.4-4.3,2.9c-2.3-2-5.7-2.4-8.4-0.8c-3.3,1.8-3.9,7-1.3,11.6c1.1,2.1,2.8,3.7,4.9,4.8c0.3,3.1,1.2,6,2.7,8.7
	c5.5,9.9,17.4,13.9,26.5,8.8s12-17.2,6.4-27.2C209,37.4,206.9,35.1,204.4,33.3z"/>
<path class="st1" d="M195.7,70.7c-8.3,0.1-16-4.4-20.1-11.6c-1.5-2.7-2.4-5.7-2.6-8.7c-2.1-1.2-3.9-3-5.1-5.1
	c-1.5-2.5-2-5.5-1.5-8.4c0.4-2.8,2-5.2,4.5-6.6c3.1-1.6,6.8-1.4,9.7,0.6c2.8-2.7,6.3-4.7,10.1-5.6c-0.1-3.5,1.6-6.8,4.6-8.6
	c4.7-2.6,11.1-0.2,14.2,5.4c1.2,2.1,1.8,4.6,1.7,7c2.5,1.8,4.5,4.2,6,6.8c3,5.4,3.7,11.8,1.8,17.6c-1.8,6-5.9,11-11.4,14
	C203.9,69.6,199.8,70.7,195.7,70.7z M175,33.2c-0.8,0-1.6,0.2-2.3,0.6c-1.4,0.8-2.3,2.2-2.5,3.8c-0.6,4.1,1.6,8,5.4,9.7
	c0.7,0.3,1.2,1,1.2,1.8c0.1,2.9,0.9,5.7,2.2,8.2c5.1,9.2,17.1,12.3,26.6,7c4.6-2.5,8-6.7,9.6-11.8c1.5-4.9,1-10.2-1.5-14.6
	c-1.4-2.5-3.4-4.6-5.8-6.2c-0.6-0.4-1-1.2-0.8-2c0.3-1.9-0.1-3.9-1.1-5.6c-2.1-3.7-6.1-5.4-8.9-3.8c-1.9,1.1-2.9,3.6-2.5,6.4
	c0.1,1-0.5,2-1.6,2.2c-2.1,0.4-4.1,1.1-6,2.1c-1.8,1.1-3.5,2.4-4.9,4c-0.7,0.8-1.9,0.8-2.7,0.2C178.2,33.9,176.6,33.3,175,33.2
	L175,33.2z"/>
<path class="st1" d="M193.2,55.7c-2.2,0-4.4-0.3-6.6-0.8c-1.1-0.1-1.9-1.1-1.7-2.2s1.1-1.9,2.2-1.7c0.2,0,0.4,0.1,0.6,0.2
	c0.2,0,7.8,2.1,12.3-1.1c2-1.5,3.1-3.8,3.3-7.2c0-1.1,0.9-1.9,2-1.9c0,0,0,0,0.1,0c1.1,0.1,1.9,1,1.9,2.1c-0.2,4.6-1.9,8-4.9,10.2
	C199.5,55,196.4,55.8,193.2,55.7z"/>
<ellipse transform="matrix(0.8733 -0.4871 0.4871 0.8733 2.5691 91.4013)" class="st1" cx="177" cy="40.8" rx="3.7" ry="4.6"/>
<ellipse transform="matrix(0.8733 -0.4871 0.4871 0.8733 11.9901 101.2555)" class="st1" cx="200.7" cy="27.6" rx="3.7" ry="4.5"/>
<ellipse transform="matrix(0.8733 -0.4871 0.4871 0.8733 -2.4657 97.1754)" class="st1" cx="185.6" cy="53.3" rx="3.4" ry="4.2"/>
<ellipse transform="matrix(0.8733 -0.4871 0.4871 0.8733 5.9447 105.9701)" class="st1" cx="206.7" cy="41.6" rx="3.4" ry="4.2"/>
<path class="st15" d="M148.9,154.5c0,0,5.9,30-4.6,35c0,0-12.1,4.7-15.4-14.5c0,0-1.3-13.4-4.7-17.1"/>
<path class="st1" d="M141.1,192.4c-2.1,0-4.1-0.5-5.9-1.5c-4.4-2.5-7.3-7.7-8.7-15.4v-0.2c-0.5-5.2-2.1-13.6-4-15.7
	c-0.9-0.9-0.9-2.4,0-3.4c0.9-0.9,2.4-0.9,3.4,0c0.1,0.1,0.1,0.1,0.1,0.2c3.7,4,5,15.8,5.3,18.4c1.1,6.2,3.3,10.3,6.3,12.1
	c1.8,1,3.9,1.2,5.8,0.6c3.3-1.7,5-7.7,4.8-17.1c-0.1-5.1-0.7-10.2-1.6-15.3c-0.3-1.3,0.5-2.5,1.8-2.8c1.3-0.3,2.5,0.5,2.8,1.8
	c0,0,0,0.1,0,0.1c0.6,3.2,5.9,31.9-5.9,37.6l-0.2,0.1C143.9,192.2,142.5,192.4,141.1,192.4z M144.3,189.5L144.3,189.5z"/>
<path class="st1" d="M129.7,160.7c-9,0-13.5-3.5-13.8-3.8c-1-0.8-1.2-2.3-0.3-3.3c0.8-1,2.3-1.2,3.3-0.3l0,0c0.1,0.1,2.6,2,7.7,2.6
	c4.8,0.6,13,0,24.6-5.7c1.1-0.6,2.6-0.3,3.2,0.9c0.6,1.1,0.3,2.6-0.9,3.2c-0.1,0-0.2,0.1-0.3,0.1
	C143.4,159.2,135.6,160.7,129.7,160.7z"/>
<path class="st1" d="M145.7,104.5c-1.5,0-2.6-1.2-2.6-2.6c0-1,0.5-1.8,1.4-2.3l14.8-7.9c1.3-0.7,2.9-0.3,3.6,1
	c0.7,1.3,0.3,2.9-1,3.6c-0.1,0-0.1,0.1-0.2,0.1l-14.8,7.9C146.6,104.4,146.1,104.5,145.7,104.5z"/>
<path class="st1" d="M105.7,111.8c-0.3,0-0.6,0-0.8-0.1l-15.2-5c-1.4-0.5-2.1-1.9-1.7-3.3c0.5-1.4,1.9-2.1,3.3-1.7l15.2,5
	c1.4,0.5,2.1,1.9,1.7,3.3C107.8,111,106.8,111.8,105.7,111.8z"/>
<path class="st16" d="M43.4,266.5l-29.9,39.8c1.9,22.7,29.8,24,29.8,24l17.5-11L73,292.9C63.3,283,57.1,269.6,43.4,266.5z"/>
<path class="st6" d="M86.2,209c-14.9,2-39.6,53.2-39.6,53.2l-3.2,4.2c13.7,3.1,19.9,16.5,29.6,26.4l2.8-6
	C77.8,275.2,86.2,209,86.2,209z"/>
<path class="st16" d="M3.3,288.3c3.6,17.6,11.4,31.3,26.3,30.2c9.5-0.7,20.2-7.9,23.1-14.6c1.3-3,0.7-6.5-1.5-9
	c-1.1-1.2,3.1-3.9,3.7-8.3c1.9-15.2-11-36.2-29.7-30.9C10.7,259.9-0.2,271.3,3.3,288.3z"/>
<path class="st1" d="M28,321.3c-9.8,0-21.9-6-27.3-32.4c-3.4-16.5,5.9-30.5,23.7-35.6c7.6-2.2,15.7-0.4,21.6,4.9
	c8,6.8,12.7,18.7,11.4,28.9c-0.4,2.5-1.5,4.9-3.1,6.9l-0.3,0.4c2.2,3.1,2.6,7.1,1.1,10.6c-3.3,7.9-15.2,15.5-25.3,16.2
	C29.2,321.2,28.6,321.3,28,321.3z M31,257.5c-1.7,0-3.4,0.3-5.1,0.7c-11.9,3.4-23.4,13-20,29.5l0,0c4,19.5,11.9,29,23.5,28.1
	c8.9-0.6,18.5-7.5,20.9-13c0.9-2.1,0.5-4.5-1-6.2c-1.9-2.1-0.2-4.5,0.8-5.9c1.1-1.3,1.8-2.8,2.2-4.5c1-8.4-3-18.6-9.6-24.3
	C39.4,259.2,35.3,257.6,31,257.5L31,257.5z"/>
<ellipse transform="matrix(0.9801 -0.1985 0.1985 0.9801 -52.5074 15.2408)" class="st16" cx="49.8" cy="269.5" rx="10.1" ry="14"/>
<path class="st1" d="M51.1,286c-6.2,0-12.2-5.8-13.8-14l0,0c-0.9-4-0.5-8.2,1.1-11.9c1.7-3.8,4.6-6.2,8.1-6.9
	c6.9-1.4,14,4.8,15.8,13.8c0.9,4,0.5,8.2-1.1,11.9c-1.7,3.8-4.6,6.2-8.1,6.9C52.4,285.9,51.8,286,51.1,286z M48.5,258.2
	c-0.3,0-0.7,0-1,0.1c-2,0.5-3.6,2-4.3,4c-1.1,2.8-1.4,5.8-0.8,8.7l0,0c1.2,6,5.6,10.5,9.6,9.7c2-0.5,3.6-2,4.3-4
	c1.1-2.8,1.4-5.8,0.8-8.7C56,262.4,52.2,258.2,48.5,258.2z"/>
<line class="st7" x1="43.2" y1="298.4" x2="32" y2="303.2"/>
<path class="st1" d="M32,305.2c-1.1-0.1-1.9-1-1.9-2.1c0-0.7,0.5-1.3,1.1-1.7l11.1-4.8c1.1-0.3,2.2,0.4,2.4,1.5
	c0.2,0.8-0.1,1.7-0.9,2.1L32.8,305C32.6,305.1,32.3,305.2,32,305.2z"/>
<line class="st7" x1="38" y1="284.4" x2="26.5" y2="289.1"/>
<path class="st1" d="M26.5,291.1c-1.1-0.1-1.9-1-1.9-2.1c0-0.7,0.5-1.4,1.1-1.7l11.5-4.8c1.1-0.3,2.2,0.4,2.4,1.5
	c0.2,0.8-0.2,1.7-0.9,2.2l-11.5,4.7C27.1,291,26.8,291.1,26.5,291.1z"/>
<line class="st7" x1="31.8" y1="269.8" x2="22.4" y2="274.1"/>
<path class="st1" d="M22.4,276.1c-1.1-0.1-1.9-1-1.9-2.1c0-0.7,0.4-1.3,1.1-1.7L31,268c0.9-0.6,2.2-0.4,2.8,0.5s0.4,2.2-0.5,2.8
	c-0.2,0.1-0.4,0.2-0.6,0.3l-9.4,4.3C23,276,22.7,276.1,22.4,276.1z"/>
<path class="st1" d="M50.5,257.7c-0.4,0-0.8-0.1-1.2-0.3c-1.3-0.7-1.8-2.2-1.2-3.5c0,0,0,0,0,0c18.4-36.3,41.3-54,42.3-54.7
	c1.1-0.9,2.8-0.7,3.7,0.4c0.9,1.1,0.7,2.8-0.4,3.7c0,0-0.1,0.1-0.1,0.1c-0.2,0.2-22.9,17.8-40.8,52.9
	C52.4,257.2,51.5,257.7,50.5,257.7z"/>
<path class="st1" d="M38.7,333c-12.6,0-22.2-10.2-23.6-15.4c-0.3-1.4,0.6-2.8,2-3.1c1.3-0.3,2.6,0.5,3,1.7c0.8,3,8.4,11.5,18.6,11.5
	h0.1c15.2-0.1,28.4-19.6,37.4-54.9c0.3-1.4,1.7-2.3,3.1-2.1c1.4,0.3,2.3,1.7,2.1,3.1c0,0.1,0,0.2-0.1,0.3
	C69,322.7,51.4,332.9,38.8,333H38.7z"/>
<path class="st1" d="M80.1,258.6c-1.1,0-2-0.9-1.9-2.1c0-0.2,0-0.4,0.1-0.6c5.2-14.3,5.2-37.1,5.2-37.4c0-1.1,0.9-2,2-2s2,0.9,2,2
	c0,1,0.1,23.8-5.4,38.7C81.7,258.2,80.9,258.7,80.1,258.6z"/>
<path class="st1" d="M71.1,296c-1.1,0-2-0.6-2.4-1.6c-1.6-3.8-3.7-7.3-6.4-10.4c-1-1-1.1-2.7,0-3.7c1-1,2.7-1.1,3.7,0
	c0,0,0.1,0.1,0.1,0.2c3.1,3.6,5.6,7.6,7.5,12c0.5,1.3-0.1,2.9-1.4,3.4c0,0,0,0,0,0C71.7,296,71.4,296,71.1,296z"/>
<path class="st17" d="M72.1,275.3c-0.6,0-1.2-0.3-1.6-0.8c-1.7-2.2-3.6-4.1-5.8-5.8c-1-0.5-1.4-1.7-1-2.7c0.5-1,1.7-1.4,2.7-1
	c0.2,0.1,0.4,0.2,0.5,0.4c2.5,1.9,4.7,4.1,6.6,6.6c0.6,0.9,0.5,2.1-0.4,2.8C72.9,275.2,72.5,275.3,72.1,275.3z"/>
<path class="st5" d="M259.4,75.5c0,0-45.8,67.6-35.9,75.5c0,0,15.9,20.5,31.2,7.5l43.8-69"/>
<path class="st6" d="M217.9,141.7c0,0,8.4,25.6,35.4,21.5l-40.5,64.2l-1.5,23.4l-1.9-0.4l-17.8-60.1L217.9,141.7z"/>
<path class="st2" d="M307.8,46.4c13.5,14.1,20.9,29.6,10.7,42.3c-6.5,8.1-19.6,13.2-27.4,11.5c-3.5-0.7-6.2-3.4-7.1-6.9
	c-0.4-1.7-5.4,0.4-9.7-1.9c-14.7-7.7-25.5-32.4-9.2-45.7C277.8,35.4,294.7,32.7,307.8,46.4z"/>
<path class="st1" d="M294.3,103.2c-1.3,0-2.5-0.1-3.8-0.4c-4-0.8-7.3-3.7-8.7-7.6h-0.8c-2.7,0.2-5.5-0.3-8-1.5
	c-9.8-5.2-17.5-16.7-18.6-28c-1-8.4,2.4-16.8,9-22.1c15.5-12.7,33.6-12.3,46.2,0.9l0,0c21.4,22.4,17.7,37.2,10.9,45.8
	C314.6,97.8,303.2,103.2,294.3,103.2z M281.7,89.9c1.9,0,4.3,0.2,4.9,2.8c0.6,2.5,2.6,4.4,5.1,4.9c6.4,1.4,18.7-3,24.8-10.6
	c8-10,4.5-23.1-10.6-38.8c-12.8-13.4-28.6-9-39.1-0.5c-5.3,4.2-8,10.8-7.1,17.5c1,9.5,7.6,19.5,15.9,23.8c1.7,0.7,3.6,1,5.5,0.9
	L281.7,89.9z"/>
<path class="st5" d="M299.5,52.1c13.8,13.7,25.3,30.4,17,40.8c-5.3,6.6-17,10-24.4,7.8c-3.3-1-6-3.5-7.2-6.8
	c-0.5-1.6-4.9-0.2-9.2-2.6c-14.3-8.2-26.6-31-12.6-41.5C273.9,42,286.2,38.8,299.5,52.1z"/>
<path class="st1" d="M294.3,103.2c-1.3,0-2.5-0.1-3.8-0.4c-4-0.8-7.3-3.7-8.7-7.6h-0.8c-2.7,0.2-5.5-0.3-8-1.5
	c-9.8-5.2-17.5-16.7-18.6-28c-1-8.4,2.4-16.8,9-22.1c15.5-12.7,33.6-12.3,46.2,0.9l0,0c21.4,22.4,17.7,37.2,10.9,45.8
	C314.6,97.8,303.2,103.2,294.3,103.2z M281.7,89.9c1.9,0,4.3,0.2,4.9,2.8c0.6,2.5,2.6,4.4,5.1,4.9c6.4,1.4,18.7-3,24.8-10.6
	c8-10,4.5-23.1-10.6-38.8c-12.8-13.4-28.6-9-39.1-0.5c-5.3,4.2-8,10.8-7.1,17.5c1,9.5,7.6,19.5,15.9,23.8c1.7,0.7,3.6,1,5.5,0.9
	L281.7,89.9z"/>
<ellipse transform="matrix(0.722 -0.6919 0.6919 0.722 20.0851 202.5739)" class="st16" cx="262.1" cy="76.3" rx="11" ry="15.3"/>
<path class="st1" d="M266.3,92.3c-1,0-1.9-0.1-2.8-0.3c-4.3-0.9-8.2-3.1-11.2-6.3c-6.8-7.1-8-17.1-2.5-22.3s15.4-3.6,22.2,3.5l0,0
	c3.1,3.1,5.1,7.1,5.9,11.5c0.6,4.4-0.6,8.2-3.3,10.9C272.3,91.3,269.4,92.4,266.3,92.3z M257.9,65.5c-1.7-0.1-3.3,0.5-4.5,1.6
	c-3.3,3.1-2,10,2.7,14.9c2.2,2.4,5.2,4.1,8.4,4.8c2.6,0.5,4.9,0,6.4-1.5s2.1-3.7,1.7-6.3c-0.6-3.2-2.1-6.2-4.4-8.6
	C265.1,67.3,261.2,65.5,257.9,65.5L257.9,65.5z"/>
<line class="st7" x1="292.1" y1="88.3" x2="303.3" y2="81.3"/>
<path class="st1" d="M292.1,90.3c-1.1-0.1-1.9-1-1.9-2.1c0-0.6,0.4-1.2,0.9-1.5l11.2-7c1-0.4,2.2,0.1,2.6,1.1
	c0.3,0.8,0.1,1.7-0.5,2.3l-11.2,7C292.8,90.2,292.5,90.3,292.1,90.3z"/>
<line class="st7" x1="282.8" y1="75" x2="294.1" y2="67.7"/>
<path class="st1" d="M282.8,77c-1.1,0-2-1-1.9-2.1c0-0.6,0.3-1.2,0.8-1.5l11.4-7.3c0.8-0.7,2.1-0.7,2.8,0.1c0.7,0.8,0.7,2.1-0.1,2.8
	c-0.2,0.2-0.4,0.3-0.6,0.4l-11.4,7.3C283.5,76.9,283.1,77,282.8,77z"/>
<line class="st7" x1="273.6" y1="60.4" x2="283.3" y2="54.7"/>
<path class="st1" d="M273.6,62.4c-1.1-0.1-2-1-1.9-2.1c0-0.6,0.4-1.2,0.9-1.6l9.6-5.7c0.8-0.7,2.1-0.6,2.8,0.2
	c0.7,0.8,0.6,2.1-0.2,2.8c-0.2,0.2-0.4,0.3-0.6,0.4l-9.6,5.7C274.3,62.3,274,62.4,273.6,62.4z"/>
<path class="st1" d="M211.8,254.9c-1.3,0-2.4-0.9-2.6-2.2c-2.9-16.9,4.6-33.6,4.9-34.3c0-0.1,0.1-0.2,0.2-0.3l74.6-119.4
	c0.7-1.3,2.3-1.7,3.6-1c1.3,0.7,1.7,2.3,1,3.6c0,0.1-0.1,0.1-0.1,0.2l-74.5,119.2c-0.7,1.6-6.9,16.6-4.4,31c0.2,1.4-0.7,2.8-2.1,3
	C212.1,254.9,212,254.9,211.8,254.9z"/>
<line class="st7" x1="253.8" y1="86.3" x2="203.5" y2="168.3"/>
<path class="st1" d="M203.5,170.9c-0.5,0-1-0.1-1.4-0.4c-1.2-0.8-1.6-2.4-0.9-3.6c0,0,0,0,0,0l50.3-82c0.8-1.2,2.4-1.6,3.6-0.9
	s1.6,2.4,0.9,3.6l-50.3,82C205.2,170.5,204.4,170.9,203.5,170.9z"/>
<path class="st1" d="M247.4,166.9c-7.7,0-15.3-3.3-21.9-9.6c-3.2-3.1-6-6.6-8.2-10.4c-0.6-1.2,0-2.6,1.1-3.1c1.1-0.5,2.4-0.1,3,0.9
	l0,0c2,3.4,4.5,6.6,7.4,9.4c6.2,5.9,12.9,8.6,20,8.2c1.3-0.1,2.4,0.9,2.5,2.2c0.1,1.3-0.9,2.4-2.2,2.5
	C248.6,166.9,248,166.9,247.4,166.9z"/>
<path class="st1" d="M186.7,194.9c-1.5,0-2.6-1.2-2.6-2.6c0-0.7,0.3-1.4,0.8-1.9c3.6-3.3,6.8-6.9,9.8-10.8c0.1-0.1,0.1-0.2,0.2-0.2
	c0.2-0.2,19.6-22,3.6-77.7c-0.5-1.4,0.3-2.9,1.7-3.3s2.9,0.3,3.3,1.7c0,0.1,0,0.1,0.1,0.2c16.5,57.4-2.8,80.6-4.7,82.6
	c-3.1,4.1-6.5,7.9-10.3,11.4C188,194.7,187.4,194.9,186.7,194.9z"/>
<path class="st1" d="M205.2,239.4c-0.9,0-1.7-0.7-1.9-1.6c-3.6-17.8-10.8-40.7-10.8-40.9c-0.5-1-0.1-2.2,0.9-2.7
	c1-0.5,2.2-0.1,2.7,0.9c0.1,0.2,0.2,0.4,0.2,0.7c0.1,0.2,7.3,23.3,10.9,41.3c0.2,1.1-0.5,2.1-1.5,2.3L205.2,239.4z"/>
<path class="st17" d="M235.2,174.6c-13.4,0-19.7-11.5-19.9-12c-0.4-1,0.2-2.2,1.3-2.5c0.8-0.3,1.7,0,2.2,0.7l0,0
	c0.2,0.5,6.1,10.9,18.2,9.9c1.1,0.1,1.9,1,1.8,2.1c-0.1,0.9-0.7,1.6-1.5,1.8C236.6,174.5,235.9,174.6,235.2,174.6z"/>
</svg>
