<?xml version="1.0" encoding="utf-8"?>
<!-- Generator: Adobe Illustrator 21.1.0, SVG Export Plug-In . SVG Version: 6.00 Build 0)  -->
<svg version="1.1" id="圖層_1" xmlns="http://www.w3.org/2000/svg" xmlns:xlink="http://www.w3.org/1999/xlink" x="0px" y="0px"
	 viewBox="0 0 755.8 401.8" style="enable-background:new 0 0 755.8 401.8;" xml:space="preserve">
<style type="text/css">
	.st0{opacity:0.5;}
	.st1{fill:#FFFFFF;}
	.st2{fill:#C5D357;}
	.st3{fill:#1A1A1A;}
	.st4{fill:#9DC953;}
	.st5{fill:#649446;}
	.st6{fill:#FFD800;}
</style>
<title>互動設計UI</title>
<g class="st0">
	<path class="st1" d="M713.5,293.5c-6.6-0.6-13.3,0.9-19,4.3c0,0,5.2,6.6,16.6,7.4s24.9-4.6,24.9-4.6S725,294.3,713.5,293.5z"/>
	<path class="st1" d="M693.1,279.9c-3.4,11,1.2,17.5,1.2,17.5s7.4-4.2,10.8-15.1s1.5-24.6,1.5-24.6S696.5,268.9,693.1,279.9z"/>
	<path class="st1" d="M688.9,311.3c-13.4-1.1-20.6,5.2-20.6,5.2c5.6,5.6,12.9,9,20.8,9.6c13.4,1.1,27.7-5.5,27.7-5.5
		S702.3,312.5,688.9,311.3z"/>
	<path class="st1" d="M668,293c-2.5,7.5-2.5,15.6,0.1,23.1c6.3-4.6,11-11.2,13.3-18.7c4.2-12.8,1.8-27.6,1.8-27.6
		S672.1,280.2,668,293z"/>
	<path class="st1" d="M661.1,331.9c-15.5-1.3-24.3,6.2-24.3,6.2c6.6,6.2,15.1,9.9,24.2,10.6c15.5,1.3,31.8-5.9,31.8-5.9
		S676.6,333.2,661.1,331.9z"/>
	<path class="st1" d="M635.2,313.6c-4.8,14.7,1.3,24,1.3,24c7.9-4.7,13.8-12.1,16.7-20.8c4.8-14.7,0.8-32.5,0.8-32.5
		S640.1,298.9,635.2,313.6z"/>
	<path class="st1" d="M727.9,262.8c-7.5,6.3-13.4,14.2-17.4,23.1c19.4-4,35.7-17.2,43.5-35.5C744.5,252.5,735.6,256.8,727.9,262.8z"
		/>
	<path class="st2" d="M713.5,293.5c-6.6-0.6-13.3,0.9-19,4.3c0,0,5.2,6.6,16.6,7.4s24.9-4.6,24.9-4.6S725,294.3,713.5,293.5z"/>
	<path class="st2" d="M693.8,286.7c-1.3,3.7-0.7,7.9,1.7,11.1c3.7-1.8,6.4-5.1,7.5-9c2.1-6.8,0.1-15.4,0.1-15.4
		S695.9,280,693.8,286.7z"/>
	<path class="st2" d="M688.9,311.3c-13.4-1.1-20.6,5.2-20.6,5.2c5.6,5.6,12.9,9,20.8,9.6c13.4,1.1,27.7-5.5,27.7-5.5
		S702.3,312.5,688.9,311.3z"/>
	<path class="st2" d="M668.8,301.3c-1.6,5-1.3,10.4,0.8,15.2c4.4-2.7,7.8-6.9,9.4-11.9c2.7-8.3,0.4-18.1,0.4-18.1
		S671.5,293.1,668.8,301.3z"/>
	<path class="st2" d="M661.1,331.9c-15.5-1.3-24.3,6.2-24.3,6.2c6.6,6.2,15.1,9.9,24.2,10.6c15.5,1.3,31.8-5.9,31.8-5.9
		S676.6,333.2,661.1,331.9z"/>
	<path class="st2" d="M635.5,320.5c-3.4,10.5,2.2,17.4,2.2,17.4s9.8-3.9,13.2-14.3s-0.8-23.5-0.8-23.5S638.9,310.1,635.5,320.5z"/>
	<path class="st2" d="M727.4,270.3c-6,5-11.1,11-15.1,17.7c15-5,27.6-15.3,35.5-28.9C740.4,261.6,733.5,265.4,727.4,270.3z"/>
	<path class="st3" d="M713.5,307.5c-0.9,0-1.7,0-2.5-0.1c-12.3-0.8-18-8-18.2-8.3c-0.4-0.5-0.5-1.2-0.4-1.8s0.5-1.2,1.1-1.5
		c6.2-3.6,13.2-5.2,20.3-4.6c11.8,0.8,23,7.2,23.5,7.5c0.7,0.4,1.2,1.2,1.1,2.1c-0.1,0.8-0.6,1.6-1.4,1.9
		C736.3,302.9,724.7,307.5,713.5,307.5z M698.2,298.3c2.3,1.8,6.5,4.2,13,4.7c6.7,0.5,14.2-1.3,19-2.7c-4.1-1.8-10.5-4.1-16.9-4.6
		c0,0,0,0,0,0C708.1,295.3,702.9,296.2,698.2,298.3z"/>
	<path class="st3" d="M694.3,299.6c-0.7,0-1.4-0.3-1.8-0.9c-0.2-0.3-5.2-7.5-1.5-19.4v0c3.5-11.3,13.6-22.6,14-23.1
		c0.6-0.6,1.5-0.9,2.3-0.6c0.8,0.3,1.4,1,1.5,1.8c0.1,0.6,1.9,14.3-1.6,25.6c-3.6,11.7-11.5,16.2-11.9,16.4
		C695,299.5,694.6,299.6,694.3,299.6z M695.2,280.5c-2,6.4-1,11-0.1,13.5c2.2-1.9,5.9-5.8,7.9-12.4c1.9-6.2,2.1-13.5,1.9-18.3
		C701.7,267.4,697.2,274.1,695.2,280.5L695.2,280.5z"/>
	<path class="st3" d="M692.2,328.5c-1.1,0-2.2,0-3.3-0.1c-8.4-0.6-16.3-4.3-22.2-10.2c-0.4-0.4-0.7-1-0.6-1.6c0-0.6,0.3-1.2,0.8-1.6
		c0.3-0.3,8.1-6.9,22.3-5.7h0c13.7,1.2,28.1,9.2,28.7,9.6c0.7,0.4,1.2,1.2,1.1,2c0,0.8-0.5,1.6-1.3,1.9
		C717.1,322.9,704.9,328.5,692.2,328.5z M671.8,316.8c4.9,4.1,11,6.6,17.4,7.1c8.2,0.7,17-1.8,22.1-3.6c-5.2-2.4-14.2-6.1-22.6-6.8
		l0,0C680.4,312.9,674.7,315.2,671.8,316.8z"/>
	<path class="st3" d="M668,318.3c-0.2,0-0.4,0-0.7-0.1c-0.7-0.2-1.2-0.7-1.4-1.4c-2.7-7.9-2.7-16.6-0.1-24.5
		c4.3-13.2,15.3-23.6,15.8-24.1c0.6-0.6,1.5-0.8,2.2-0.5c0.8,0.3,1.3,0.9,1.5,1.7c0.1,0.6,2.4,15.5-1.9,28.6
		c-2.5,8-7.4,14.8-14.1,19.8C669,318.1,668.5,318.3,668,318.3z M681.4,274.9c-3.5,4-8.8,11-11.4,18.8c0,0,0,0,0,0
		c-2,6-2.3,12.4-0.8,18.5c4.7-4.2,8.1-9.5,10-15.5C681.8,288.9,681.8,280.1,681.4,274.9z M668,293L668,293L668,293z"/>
	<path class="st3" d="M664.8,351.1c-1.4,0-2.7-0.1-4.1-0.2c-9.5-0.7-18.5-4.7-25.5-11.2c-0.5-0.4-0.7-1-0.7-1.7s0.3-1.2,0.8-1.6
		c0.4-0.3,9.7-8.1,25.9-6.8l0,0c15.8,1.3,31.9,10.8,32.6,11.2c0.7,0.4,1.1,1.2,1.1,2c-0.1,0.8-0.6,1.6-1.3,1.9
		C693,345.1,679.3,351.1,664.8,351.1z M640.4,338.3c5.9,4.7,13.1,7.6,20.7,8.2c10,0.8,20.5-2.1,26.3-4c-5.7-2.9-16.3-7.5-26.5-8.4
		C650.8,333.2,643.8,336.4,640.4,338.3z"/>
	<path class="st3" d="M636.5,339.8c-0.7,0-1.4-0.4-1.9-1c-0.3-0.4-6.7-10.3-1.5-25.9c4.9-15,18.7-29.6,19.3-30.2
		c0.6-0.6,1.4-0.8,2.2-0.6c0.8,0.2,1.4,0.9,1.6,1.6c0.2,0.8,4.1,18.6-0.8,33.7c-3,9.3-9.3,17.1-17.7,22
		C637.3,339.7,636.9,339.8,636.5,339.8z M652.6,289.2c-4.3,5.1-12,15.2-15.2,25.1c0,0,0,0,0,0c-3.2,9.8-1.3,16.9,0.1,20.1
		c6.4-4.4,11.3-10.8,13.7-18.3C654.3,306.4,653.4,295.2,652.6,289.2z M635.2,313.6L635.2,313.6L635.2,313.6z"/>
	<path class="st3" d="M620.2,351.3c-0.8,0-1.5-0.4-1.9-1.1c-0.6-1.1-0.3-2.4,0.8-3c31.4-18.8,61.6-40.2,89.8-63.6
		c0.9-0.8,2.3-0.7,3.1,0.3c0.8,0.9,0.7,2.3-0.3,3.1c-28.4,23.5-58.7,45.1-90.3,64C621,351.2,620.6,351.3,620.2,351.3z"/>
	<path class="st3" d="M710.5,288.1c-0.7,0-1.3-0.3-1.7-0.8c-0.5-0.7-0.6-1.5-0.3-2.3c4.1-9.2,10.3-17.4,18-23.9c0,0,0,0,0.1,0
		c7.9-6.2,17.2-10.6,27-12.8c0.8-0.2,1.7,0.1,2.2,0.8c0.5,0.6,0.7,1.5,0.3,2.3c-8.1,18.9-25,32.6-45.1,36.7
		C710.8,288.1,710.7,288.1,710.5,288.1z M729.3,264.5c-6,5-11,11.2-14.7,18c15.2-4.4,28-14.8,35.4-28.8
		C742.5,256.1,735.5,259.7,729.3,264.5z"/>
</g>
<g class="st0">
	<path class="st1" d="M42.6,293.4c6.6-0.6,13.3,0.9,19,4.3c0,0-5.2,6.6-16.6,7.4S20,300.6,20,300.6S31.1,294.2,42.6,293.4z"/>
	<path class="st1" d="M63,279.8c3.4,11-1.2,17.5-1.2,17.5s-7.4-4.2-10.8-15.1s-1.5-24.6-1.5-24.6S59.6,268.8,63,279.8z"/>
	<path class="st1" d="M67.2,311.3c13.4-1.1,20.6,5.2,20.6,5.2c-5.6,5.6-12.9,9-20.8,9.6c-13.4,1.1-27.6-5.5-27.6-5.5
		S53.8,312.4,67.2,311.3z"/>
	<path class="st1" d="M88.1,292.9c2.5,7.5,2.5,15.6-0.1,23.1c-6.3-4.6-11-11.2-13.4-18.6c-4.2-12.8-1.8-27.6-1.8-27.6
		S83.9,280.1,88.1,292.9z"/>
	<path class="st1" d="M95,331.8c15.5-1.3,24.3,6.2,24.3,6.2c-6.6,6.2-15.1,9.9-24.2,10.6c-15.4,1.3-31.8-5.9-31.8-5.9
		S79.5,333.1,95,331.8z"/>
	<path class="st1" d="M120.8,313.5c4.8,14.7-1.3,24-1.3,24c-7.9-4.7-13.8-12.1-16.7-20.8c-4.8-14.7-0.8-32.5-0.8-32.5
		S116,298.8,120.8,313.5z"/>
	<path class="st1" d="M28.1,262.7c7.5,6.3,13.4,14.2,17.4,23.1c-9.5-2.1-18.5-6.3-26.1-12.4C12,267.1,6,259.2,2,250.3
		C11.6,252.4,20.5,256.7,28.1,262.7z"/>
	<path class="st2" d="M42.6,293.4c6.6-0.6,13.3,0.9,19,4.3c0,0-5.2,6.6-16.6,7.4S20,300.6,20,300.6S31.1,294.2,42.6,293.4z"/>
	<path class="st2" d="M62.2,286.6c1.3,3.7,0.7,7.9-1.7,11.1c-3.6-1.8-6.4-5.1-7.5-9c-2.1-6.8-0.1-15.4-0.1-15.4
		S60.1,279.9,62.2,286.6z"/>
	<path class="st2" d="M67.2,311.3c13.4-1.1,20.6,5.2,20.6,5.2c-5.6,5.6-12.9,9-20.8,9.6c-13.4,1.1-27.6-5.5-27.6-5.5
		S53.8,312.4,67.2,311.3z"/>
	<path class="st2" d="M87.3,301.3c1.6,5,1.3,10.4-0.8,15.2c-4.4-2.7-7.8-6.9-9.4-11.9c-2.7-8.3-0.4-18.1-0.4-18.1
		S84.5,293,87.3,301.3z"/>
	<path class="st2" d="M95,331.8c15.5-1.3,24.3,6.2,24.3,6.2c-6.6,6.2-15.1,9.9-24.2,10.6c-15.4,1.3-31.8-5.9-31.8-5.9
		S79.5,333.1,95,331.8z"/>
	<path class="st2" d="M120.6,320.4c3.4,10.5-2.2,17.4-2.2,17.4s-9.8-3.9-13.2-14.3S106,300,106,300S117.2,310,120.6,320.4z"/>
	<path class="st2" d="M28.7,270.2c6,5,11.1,11,15.1,17.7c-15-5-27.6-15.3-35.5-28.9C15.8,261.5,22.6,265.3,28.7,270.2z"/>
	<path class="st3" d="M42.6,307.5c-11.2,0-22.8-4.6-23.4-4.8c-0.8-0.3-1.3-1.1-1.4-1.9s0.4-1.7,1.1-2.1c0.5-0.3,11.6-6.6,23.5-7.5
		c7.1-0.6,14.1,1,20.3,4.6c0.6,0.3,0.9,0.9,1.1,1.5c0.1,0.6,0,1.3-0.4,1.8c-0.2,0.3-5.9,7.4-18.2,8.3
		C44.3,307.4,43.4,307.5,42.6,307.5z M25.8,300.2c4.8,1.4,12.3,3.2,19,2.7c6.5-0.4,10.8-2.9,13-4.7c-4.7-2.2-9.8-3.1-15.1-2.6
		c0,0,0,0,0,0C36.3,296.1,30,298.4,25.8,300.2z M42.6,293.4L42.6,293.4L42.6,293.4z"/>
	<path class="st3" d="M61.8,299.5c-0.4,0-0.7-0.1-1.1-0.3c-0.3-0.2-8.2-4.7-11.9-16.4c-3.5-11.3-1.7-25-1.6-25.6
		c0.1-0.9,0.7-1.6,1.5-1.8c0.8-0.3,1.7,0,2.3,0.6c0.4,0.5,10.5,11.8,14.1,23.1c0,0,0,0,0,0c3.7,11.9-1.3,19.1-1.5,19.4
		C63.2,299.2,62.5,299.5,61.8,299.5z M51.2,263.2c-0.2,4.8-0.1,12.1,1.9,18.3c2.1,6.7,5.7,10.6,7.9,12.5c0.9-2.5,1.9-7.1-0.1-13.5
		C58.9,274,54.4,267.4,51.2,263.2z"/>
	<path class="st3" d="M63.9,328.4c-12.7,0-24.9-5.6-25.4-5.8c-0.8-0.4-1.2-1.1-1.3-1.9s0.4-1.6,1.1-2c0.6-0.3,15-8.4,28.7-9.6
		c0,0,0,0,0,0c14.2-1.2,22,5.5,22.3,5.8c0.5,0.4,0.7,1,0.8,1.6s-0.2,1.2-0.6,1.6c-5.9,6-13.8,9.6-22.2,10.2
		C66.1,328.4,65,328.4,63.9,328.4z M44.8,320.3c5.1,1.8,13.8,4.2,22.1,3.6c6.4-0.5,12.5-3,17.4-7.1c-2.8-1.6-8.5-4-16.9-3.3
		C58.9,314.2,49.9,317.9,44.8,320.3z"/>
	<path class="st3" d="M88,318.2c-0.5,0-0.9-0.1-1.3-0.4c-6.7-5-11.6-11.8-14.2-19.8c-4.3-13.1-2-28-1.9-28.6
		c0.1-0.8,0.7-1.5,1.5-1.7c0.8-0.3,1.6-0.1,2.2,0.5c0.5,0.4,11.5,10.9,15.8,24.1c2.7,7.9,2.6,16.6-0.1,24.5
		c-0.2,0.7-0.8,1.2-1.4,1.4C88.5,318.2,88.3,318.2,88,318.2z M74.6,274.8c-0.3,5.2-0.4,14,2.2,21.8c1.9,6.1,5.4,11.4,10,15.5
		c1.4-6.1,1.2-12.6-0.8-18.5c0,0,0,0,0,0C83.4,285.7,78.1,278.8,74.6,274.8z"/>
	<path class="st3" d="M91.2,351c-14.4,0-28.1-6-28.8-6.2c-0.8-0.3-1.3-1.1-1.3-1.9s0.4-1.6,1.1-2c0.7-0.4,16.8-9.9,32.6-11.2
		l0.2,2.2l-0.2-2.2c16.2-1.4,25.5,6.4,25.9,6.7c0.5,0.4,0.8,1,0.8,1.6c0,0.6-0.2,1.2-0.7,1.7c-6.9,6.5-16,10.5-25.5,11.2
		C93.9,351,92.6,351,91.2,351z M68.7,342.4c5.8,2,16.2,4.9,26.2,4c7.6-0.6,14.8-3.4,20.7-8.2c-3.4-2-10.5-5.1-20.5-4.2
		C85,334.9,74.4,339.5,68.7,342.4z"/>
	<path class="st3" d="M119.5,339.7c-0.4,0-0.8-0.1-1.1-0.3c-8.4-5-14.7-12.8-17.7-22c-5-15.1-1-33-0.8-33.7c0.2-0.8,0.8-1.4,1.6-1.6
		c0.8-0.2,1.6,0,2.2,0.6c0.6,0.6,14.3,15.2,19.3,30.2l0,0c5.1,15.6-1.3,25.5-1.5,25.9C121,339.4,120.3,339.7,119.5,339.7z
		 M103.5,289.1c-0.8,6.1-1.7,17.3,1.5,26.9c2.4,7.5,7.3,13.9,13.7,18.3c1.4-3.2,3.3-10.3,0.1-20.1c0,0,0,0,0,0
		C115.5,304.3,107.8,294.2,103.5,289.1z"/>
	<path class="st3" d="M135.9,351.2c-0.4,0-0.8-0.1-1.1-0.3c-31.6-19-62-40.5-90.3-64c-0.9-0.8-1.1-2.2-0.3-3.1s2.2-1.1,3.1-0.3
		c28.2,23.4,58.4,44.8,89.8,63.6c1.1,0.6,1.4,2,0.8,3C137.3,350.8,136.6,351.2,135.9,351.2z"/>
	<path class="st3" d="M45.6,288c-0.2,0-0.3,0-0.5-0.1c-9.8-2.2-19.1-6.6-27-12.8c-7.7-6.5-14-14.8-18.1-23.9
		c-0.3-0.8-0.2-1.7,0.3-2.3s1.4-0.9,2.2-0.8c9.8,2.2,19.1,6.6,27,12.8c0,0,0,0,0.1,0c7.7,6.5,13.9,14.7,18,23.9
		c0.3,0.8,0.2,1.7-0.3,2.3C46.9,287.7,46.2,288,45.6,288z M6.2,253.7c3.7,6.8,8.7,13,14.7,18c6.1,4.8,13.1,8.4,20.5,10.7
		c-3.7-6.8-8.7-13-14.7-18C20.6,259.7,13.6,256,6.2,253.7z"/>
</g>
<g class="st0">
	<path class="st1" d="M118.7,120.8c0,0,20.1,6.9,46.1,27.9c9,7.3,11.8,14.9,24.1,24.5c12,9.3,11.5,19.1,20.8,29.2
		c8.9,9.5,10,24.5,19.1,37.8c7.3,10.5,7.1,24.1,12.2,32.7c8.1,13.6,8,28.1,9.9,39.3c7.4,43.5-3.7,59.6-3.7,59.6
		s-18.9-10.8-41.6-45.8c-5.1-7.9-13.2-16.1-15.8-27.6S179,275.6,173.8,262c-2.6-10.3-6.3-20.2-11.2-29.7c-4.2-7.9-7.4-16.3-9.6-25
		c-3.2-14.3-10.2-25.3-15.8-37.7C131.9,157.6,123.8,138.4,118.7,120.8z"/>
	<path class="st4" d="M124.2,130.2c0,0,17.9,7.1,41.4,28.1c8.1,7.3,10.8,14.7,21.9,24.2c10.8,9.3,10.6,18.8,19.1,28.7
		c8.1,9.4,9.4,23.9,17.8,36.9c6.7,10.3,6.9,23.5,11.6,31.8c7.5,13.3,7.8,27.3,9.8,38.1c7.7,42.1-1.7,57.4-1.7,57.4
		s-16.9-10.9-37.8-45.3c-4.7-7.8-12.1-15.8-14.7-27s-10.1-22.1-15.1-35.3c-2.6-10-6.1-19.6-10.6-28.9c-3.9-7.8-7-15.9-9.1-24.4
		c-3.2-13.9-9.7-24.6-14.9-36.8C136.8,166.1,129.2,147.3,124.2,130.2z"/>
	<path class="st3" d="M247.2,374c-0.4,0-0.8-0.1-1.2-0.3c-0.8-0.5-19.6-11.5-42.4-46.6c-1.3-2-2.8-4-4.3-6.1
		c-4.6-6.2-9.8-13.2-11.8-22.3c-1.4-6.4-4.8-12.8-8.3-19.6c-2.7-5.1-5.4-10.4-7.7-16.3c0-0.1-0.1-0.2-0.1-0.3
		c-2.5-10.1-6.2-19.9-11-29.2c-4.3-8-7.6-16.6-9.8-25.5c-2.3-10-6.3-18.2-10.6-26.8c-1.7-3.4-3.4-6.9-5-10.5
		c-5.7-12.8-13.5-31.7-18.6-49.1c-0.3-0.9,0-1.8,0.6-2.4c0.7-0.6,1.6-0.8,2.4-0.5c0.8,0.3,20.8,7.2,46.8,28.3
		c4.2,3.4,7.1,6.9,10.1,10.5c3.6,4.3,7.4,8.8,14,13.9c7.2,5.6,10.2,11.4,13.1,17.1c2.2,4.2,4.2,8.3,8,12.4c5,5.4,7.7,12.3,10.4,19.5
		c2.4,6.2,4.8,12.5,8.9,18.5c4.3,6.2,6.1,13.4,7.8,19.8c1.2,4.9,2.4,9.5,4.5,13c6.5,10.9,7.9,22.2,9.1,32.1c0.3,2.8,0.7,5.5,1.1,8
		c7.5,44-3.6,60.7-4.1,61.4C248.8,373.7,248,374,247.2,374z M176.1,261.3c2.2,5.5,4.8,10.7,7.4,15.7c3.7,7.1,7.1,13.8,8.7,20.8
		c1.8,8.1,6.5,14.4,11,20.5c1.6,2.2,3.1,4.2,4.5,6.3c17.7,27.4,33.2,39.8,38.6,43.6c2.5-5.5,7.9-22.4,2.2-55.7
		c-0.4-2.6-0.8-5.3-1.1-8.2c-1.2-9.5-2.5-20.2-8.5-30.3c-2.4-4.1-3.7-9-5-14.3c-1.6-6.3-3.3-12.8-7.1-18.3c-4.4-6.4-7-13.1-9.4-19.5
		c-2.6-6.8-5.1-13.3-9.5-18c-4.3-4.6-6.6-9.1-8.8-13.4c-2.8-5.4-5.4-10.5-11.7-15.5c-7-5.4-11.1-10.3-14.7-14.7
		c-2.9-3.5-5.6-6.7-9.5-9.8c-18.2-14.7-33.5-22.4-40.8-25.6c5,15.8,11.8,32.2,16.9,43.7c1.6,3.5,3.3,7,4.9,10.4
		c4.2,8.5,8.6,17.3,11,27.8c2.1,8.4,5.3,16.7,9.4,24.4C169.6,240.8,173.4,250.9,176.1,261.3z"/>
	<path class="st5" d="M241.4,346.7c-0.8,0-1.5-0.5-1.7-1.3c-0.3-1.1-32.8-113.8-96.6-193.3c-0.6-0.8-0.5-1.9,0.3-2.5
		c0.8-0.6,1.9-0.5,2.5,0.3c64.2,80.1,96.9,193.5,97.2,194.6c0.3,1-0.3,2-1.2,2.2C241.7,346.7,241.5,346.7,241.4,346.7z"/>
</g>
<g class="st0">
	<path class="st1" d="M661.9,136.8c0,0-23.4,5-55.2,25.2c-11.1,7-15.2,15.1-30.2,24.2c-14.7,8.8-15.4,19.9-27.2,29.9
		c-11.2,9.5-14.4,26.1-26.4,39.8c-9.5,10.8-11.1,26.1-17.9,35c-10.8,14.1-12.7,30.4-16.3,42.7c-14.1,47.7-3.8,67.2-3.8,67.2
		s22.5-9.6,52.6-45.8c6.8-8.2,16.9-16.2,21.4-28.8s15.1-23.9,22.8-38.4c4.3-11.2,9.8-21.8,16.4-31.7c5.4-8,10.7-17.3,14-26.8
		c5.5-15.6,14.8-26.9,22.6-40.2C642.3,176.3,653.8,155.9,661.9,136.8z"/>
	<path class="st4" d="M648.5,140.7c0,0-21,5.6-50,26c-10.1,7.1-14,15-27.7,24.2c-13.3,9-14.4,19.6-25.2,29.6
		c-10.3,9.5-13.7,25.5-24.8,39c-8.8,10.7-10.8,25.3-17.2,34.1c-10.1,13.9-12.3,29.5-16,41.4c-14.2,46.2-5.7,64.5-5.7,64.5
		s20.4-10,48.4-45.7c6.3-8.1,15.6-16.1,20-28.3s14.2-23.4,21.6-37.5c4.2-10.8,9.4-21.2,15.7-30.9c5.4-8.2,9.9-16.9,13.4-26.1
		c5.5-15.1,14.1-26.3,21.5-39.2C629.7,179.2,640.7,159.2,648.5,140.7z"/>
	<path class="st3" d="M485,403.1c-0.9,0-1.7-0.5-2.1-1.3c-0.4-0.8-10.6-20.9,3.6-69c0.8-2.7,1.5-5.6,2.2-8.6
		c2.7-11,5.7-23.4,14.5-34.8c2.8-3.7,4.7-8.7,6.8-14c2.7-6.9,5.7-14.7,11.2-21.1c5.4-6.2,9-13,12.5-19.7c4-7.7,7.8-15,14.1-20.4
		c4.8-4.1,7.7-8.3,10.7-12.8c4-5.9,8-12,16.8-17.3c8.1-4.9,12.9-9.4,17.5-13.8c3.9-3.7,7.5-7.1,12.7-10.4c31.9-20.2,55-25.3,56-25.5
		c0.9-0.2,1.8,0.1,2.4,0.8c0.6,0.7,0.7,1.6,0.4,2.5c-8.5,20-20.8,41.5-27.4,52.5c-2.3,3.8-4.7,7.6-7,11.2
		c-5.9,9.1-11.5,17.7-15.4,28.6c-2.9,8.3-7.7,17.5-14.3,27.3c-6.5,9.8-12,20.3-16.2,31.2c0,0.1-0.1,0.2-0.1,0.3
		c-3.3,6.2-7.1,11.8-10.7,17.2c-4.9,7.2-9.4,13.9-11.9,20.9c-3.5,9.8-10.2,17-16.1,23.3c-2,2.2-4,4.2-5.7,6.3
		c-30.1,36.2-52.5,46.1-53.5,46.5C485.6,403.1,485.3,403.1,485,403.1z M657.7,140.5c-8.3,2.5-26.9,9.1-49.7,23.6
		c-4.8,3-8.3,6.3-12,9.8c-4.6,4.3-9.8,9.3-18.3,14.4c-7.9,4.7-11.5,10.1-15.3,15.9c-3,4.6-6.2,9.3-11.6,13.8
		c-5.6,4.7-9.2,11.6-13,18.9c-3.6,6.9-7.3,14-13.1,20.6c-5,5.7-7.7,12.8-10.4,19.6c-2.2,5.7-4.2,11-7.5,15.2
		c-8.1,10.6-11,22.5-13.6,33c-0.8,3.1-1.5,6.1-2.3,8.9c-9.8,33.4-7.8,54.7-4.8,63.2c6.3-3.4,25.5-15.2,49.5-44.1
		c1.8-2.2,3.8-4.3,5.9-6.5c5.9-6.3,12-12.7,15.1-21.6c2.7-7.6,7.4-14.6,12.5-22c3.6-5.2,7.2-10.7,10.4-16.6
		c4.3-11.3,9.9-22.1,16.6-32.1c6.3-9.4,11-18.3,13.7-26.2c4-11.4,10.1-20.6,15.9-29.6c2.3-3.6,4.7-7.2,6.9-11
		C638.6,177.7,649.5,158.8,657.7,140.5z"/>
	<path class="st5" d="M495,373.4c-0.2,0-0.5,0-0.7-0.1c-0.9-0.4-1.4-1.4-1-2.4c0.5-1.2,52-123.8,134.4-204.9c0.7-0.7,1.9-0.7,2.6,0
		c0.7,0.7,0.7,1.9,0,2.6C548.4,249.1,497.2,371,496.7,372.3C496.4,372.9,495.7,373.4,495,373.4z"/>
</g>
<g>
	<polygon class="st1" points="220.7,2.7 226.3,23.8 246.5,29.7 226.3,35.6 220.7,56.8 215.1,35.6 194.9,29.7 215.1,23.8 	"/>
	<path class="st6" d="M220.7,59.4L220.7,59.4c-1.2,0-2.3-0.8-2.6-2l-5.2-19.7l-18.8-5.5c-1.1-0.3-1.9-1.4-1.9-2.6
		c0-1.2,0.8-2.2,1.9-2.6l18.8-5.5L218.1,2c0.3-1.2,1.4-2,2.6-2c1.2,0,2.3,0.8,2.6,2l5.2,19.7l18.8,5.5c1.1,0.3,1.9,1.4,1.9,2.6
		c0,1.2-0.8,2.2-1.9,2.6l-18.8,5.5l-5.2,19.7C223,58.6,221.9,59.4,220.7,59.4z M204.4,29.7l11.4,3.3c0.9,0.3,1.6,1,1.8,1.9l3,11.5
		l3-11.5c0.2-0.9,0.9-1.6,1.8-1.9l11.4-3.3l-11.4-3.3c-0.9-0.3-1.6-1-1.8-1.9l-3-11.5l-3,11.5c-0.2,0.9-0.9,1.6-1.8,1.9L204.4,29.7z
		"/>
</g>
<g>
	<polygon class="st1" points="534.4,31.1 540.1,52.3 560.3,58.2 540.1,64 534.4,85.2 528.8,64 508.6,58.2 528.8,52.3 	"/>
	<path class="st6" d="M534.4,87.9C534.4,87.9,534.4,87.9,534.4,87.9c-1.2,0-2.3-0.8-2.6-2l-5.2-19.7l-18.8-5.5
		c-1.1-0.3-1.9-1.4-1.9-2.6s0.8-2.2,1.9-2.6l18.8-5.5l5.2-19.7c0.3-1.2,1.4-2,2.6-2c0,0,0,0,0,0c1.2,0,2.3,0.8,2.6,2l5.2,19.7
		l18.8,5.5c1.1,0.3,1.9,1.4,1.9,2.6s-0.8,2.2-1.9,2.6l-18.8,5.5L537,85.9C536.7,87.1,535.7,87.9,534.4,87.9z M518.1,58.2l11.4,3.3
		c0.9,0.3,1.6,1,1.8,1.9l3,11.5l3-11.5c0.2-0.9,0.9-1.6,1.8-1.9l11.4-3.3l-11.4-3.3c-0.9-0.3-1.6-1-1.8-1.9l-3-11.5l-3,11.5
		c-0.2,0.9-0.9,1.6-1.8,1.9L518.1,58.2z M528.8,52.3L528.8,52.3L528.8,52.3z"/>
</g>
<g>
	<polygon class="st1" points="684.6,144.6 689.1,161.6 705.3,166.3 689.1,171 684.6,188 680.1,171 663.9,166.3 680.1,161.6 	"/>
	<path class="st6" d="M684.6,190.2c-1,0-1.9-0.7-2.1-1.6l-4.2-15.8l-15-4.4c-0.9-0.3-1.6-1.1-1.6-2.1s0.7-1.9,1.6-2.1l15-4.4
		l4.2-15.8c0.3-1,1.1-1.6,2.1-1.6s1.9,0.7,2.1,1.6l4.2,15.8l15,4.4c0.9,0.3,1.6,1.1,1.6,2.1s-0.7,1.9-1.6,2.1l-15,4.4l-4.2,15.8
		C686.5,189.6,685.6,190.2,684.6,190.2z M671.8,166.3l8.9,2.6c0.7,0.2,1.3,0.8,1.5,1.6l2.4,8.9l2.4-8.9c0.2-0.8,0.8-1.3,1.5-1.6
		l8.9-2.6l-8.9-2.6c-0.7-0.2-1.3-0.8-1.5-1.6l-2.4-8.9l-2.4,8.9c-0.2,0.8-0.8,1.3-1.5,1.6L671.8,166.3z"/>
</g>
<g>
	<polygon class="st1" points="76.2,124.6 80.7,141.6 96.9,146.3 80.7,151 76.2,168 71.7,151 55.5,146.3 71.7,141.6 	"/>
	<path class="st6" d="M76.2,170.2c-1,0-1.9-0.7-2.1-1.6l-4.2-15.8l-15-4.4c-0.9-0.3-1.6-1.1-1.6-2.1s0.7-1.9,1.6-2.1l15-4.4
		l4.2-15.8c0.3-1,1.1-1.6,2.1-1.6s1.9,0.7,2.1,1.6l4.2,15.8l15,4.4c0.9,0.3,1.6,1.1,1.6,2.1s-0.7,1.9-1.6,2.1l-15,4.4l-4.2,15.8
		C78.1,169.5,77.2,170.2,76.2,170.2z M63.4,146.3l8.9,2.6c0.7,0.2,1.3,0.8,1.5,1.6l2.4,8.9l2.4-8.9c0.2-0.8,0.8-1.3,1.5-1.6l8.9-2.6
		l-8.9-2.6c-0.7-0.2-1.3-0.8-1.5-1.6l-2.4-8.9l-2.4,8.9c-0.2,0.8-0.8,1.3-1.5,1.6L63.4,146.3z"/>
</g>
</svg>
