<svg id="圖層_1" data-name="圖層 1" xmlns="http://www.w3.org/2000/svg" viewBox="0 0 1080 1920"><title>background</title><g style="opacity:0.20000000298023224"><polyline points="453.87 1392.68 458.86 1798.1 476.89 1816.31 492.49 1804.44 489.38 1406.61" style="fill:#ccb399"/><path d="M456.12,1799a2.75,2.75,0,0,1-2.75-2.75V1386.38a2.75,2.75,0,1,1,5.5,0v409.87A2.75,2.75,0,0,1,456.12,1799Z" style="fill:#1a1a1a"/><path d="M502.38,1800.74a2.75,2.75,0,0,1-2.75-2.75h0V1407.61a2.75,2.75,0,0,1,5.5,0V1798A2.75,2.75,0,0,1,502.38,1800.74Z" style="fill:#1a1a1a"/></g><g style="opacity:0.20000000298023224"><polyline points="615.85 1439.05 611.49 1804.4 595.76 1820.29 582.14 1809.93 584.85 1451.21" style="fill:#ccb399"/><path d="M613.88,1805.53a2.75,2.75,0,0,1-2.74-2.75V1433.55a2.75,2.75,0,1,1,5.49,0v369.23A2.75,2.75,0,0,1,613.88,1805.53Z" style="fill:#1a1a1a"/><path d="M573.51,1807.05a2.75,2.75,0,0,1-2.75-2.75V1452.08a2.75,2.75,0,0,1,5.5,0V1804.3A2.75,2.75,0,0,1,573.51,1807.05Z" style="fill:#1a1a1a"/></g><path d="M413.13,1804.3s71.74-62,227.72-21.75l-12,62.91-188.78,7.64Z" style="fill:#fff"/><g style="opacity:0.4000000059604645"><polyline points="229.88 1278.12 235.42 1683.54 255.41 1701.75 272.71 1689.88 269.27 1292.06" style="fill:#ccb399"/><path d="M232.38,1571.68a2.9,2.9,0,0,1-2.9-2.9h0v-297a2.9,2.9,0,0,1,5.79,0v297a2.89,2.89,0,0,1-2.88,2.9Z" style="fill:#1a1a1a"/><path d="M283.68,1686.33a2.89,2.89,0,0,1-2.89-2.89h0V1293.05a2.9,2.9,0,1,1,5.79,0v390.38A2.9,2.9,0,0,1,283.68,1686.33Z" style="fill:#1a1a1a"/></g><g style="opacity:0.4000000059604645"><polyline points="796.62 1297.67 791.08 1703.1 771.09 1721.3 753.79 1709.44 757.23 1311.61" style="fill:#ccb399"/><path d="M794.12,1628.19a2.89,2.89,0,0,1-2.89-2.89h0V1291.37a2.9,2.9,0,0,1,5.79,0V1625.3a2.89,2.89,0,0,1-2.89,2.89Z" style="fill:#1a1a1a"/><path d="M742.82,1705.88a2.9,2.9,0,0,1-2.9-2.89V1312.6a2.9,2.9,0,0,1,5.8,0V1703A2.9,2.9,0,0,1,742.82,1705.88Z" style="fill:#1a1a1a"/></g><polyline points="1022.8 923.68 1021.63 1632.37 1010.69 1634.19 1006.6 1643.8 946.53 1575.51 946.92 1312.15 882.34 1200.63 884.67 1182.05 947.76 1242.52 948.28 1031.88" style="fill:#ccb399"/><path d="M924.71,1656.89a3.55,3.55,0,0,1-3.54-3.55V1275.86l-39.73-74.74a3.55,3.55,0,0,1,6.26-3.33l40.14,75.53a3.56,3.56,0,0,1,.42,1.66v378.36A3.55,3.55,0,0,1,924.71,1656.89Z" style="fill:#1a1a1a"/><path d="M924.71,1208.82a3.54,3.54,0,0,1-2.63-1.17l-31.69-35.18a3.54,3.54,0,1,1,5.26-4.74h0L921.17,1196V1033.21a3.55,3.55,0,0,1,7.09,0v172.07a3.55,3.55,0,0,1-2.28,3.31A3.48,3.48,0,0,1,924.71,1208.82Z" style="fill:#1a1a1a"/><path d="M1023.5,1632.27a3.54,3.54,0,0,1-3.54-3.54h0V895.25a3.55,3.55,0,0,1,7.09,0v733.47a3.55,3.55,0,0,1-3.55,3.55Z" style="fill:#1a1a1a"/><path d="M993.18,1210.57a2.51,2.51,0,0,1-2.51-2.51h0v-42.33a2.51,2.51,0,0,1,5,0v42.33A2.51,2.51,0,0,1,993.18,1210.57Z" style="fill:#927654"/><path d="M971.91,1510.18a2.51,2.51,0,0,1-2.51-2.51h0v-37.79a2.51,2.51,0,1,1,5,0v37.79A2.51,2.51,0,0,1,971.91,1510.18Z" style="fill:#927654"/><path d="M968.82,1319.76a2.51,2.51,0,0,1-2.51-2.51h0v-33.1a2.51,2.51,0,0,1,5,0v33.1A2.51,2.51,0,0,1,968.82,1319.76Z" style="fill:#927654"/><path d="M989.56,1350.32a2.51,2.51,0,0,1-2.51-2.51h0v-24a2.51,2.51,0,0,1,5,0v24A2.51,2.51,0,0,1,989.56,1350.32Z" style="fill:#927654"/><polyline points="56.66 845.74 57.83 1632.37 68.77 1634.19 72.86 1643.8 132.93 1575.51 132.53 1312.15 197.12 1200.63 194.79 1182.05 131.69 1242.52 131.17 953.94" style="fill:#ccb399"/><path d="M154.74,1656.89a3.55,3.55,0,0,1-3.54-3.55V1275a3.44,3.44,0,0,1,.42-1.66l40.14-75.53a3.55,3.55,0,0,1,6.26,3.33l-39.73,74.74v377.48A3.55,3.55,0,0,1,154.74,1656.89Z" style="fill:#1a1a1a"/><path d="M154.74,1208.82a3.52,3.52,0,0,1-3.54-3.5s0,0,0,0v-250a3.55,3.55,0,1,1,7.09,0V1196l25.52-28.32a3.54,3.54,0,1,1,5.26,4.74l-31.69,35.18A3.56,3.56,0,0,1,154.74,1208.82Z" style="fill:#1a1a1a"/><path d="M56,1632.27a3.55,3.55,0,0,1-3.55-3.55h0V817.31a3.55,3.55,0,0,1,7.09,0v811.41A3.55,3.55,0,0,1,56,1632.27Z" style="fill:#1a1a1a"/><path d="M86.28,1210.57a2.51,2.51,0,0,1-2.51-2.51h0v-42.33a2.51,2.51,0,0,1,5,0v42.33A2.51,2.51,0,0,1,86.28,1210.57Z" style="fill:#927654"/><path d="M107.55,1510.18a2.51,2.51,0,0,1-2.51-2.51h0v-37.79a2.51,2.51,0,0,1,5,0v37.79A2.51,2.51,0,0,1,107.55,1510.18Z" style="fill:#927654"/><path d="M110.64,1319.76a2.51,2.51,0,0,1-2.51-2.51h0v-33.1a2.51,2.51,0,0,1,5,0v33.1A2.51,2.51,0,0,1,110.64,1319.76Z" style="fill:#927654"/><path d="M89.9,1350.32a2.51,2.51,0,0,1-2.51-2.51h0v-24a2.51,2.51,0,1,1,5,0v24A2.51,2.51,0,0,1,89.9,1350.32Z" style="fill:#927654"/><polygon points="1039.84 1569.84 955.24 1556.12 922.09 1583.56 981.53 1600.71 1039.84 1569.84" style="fill:#fff"/><path d="M978.32,1559.39c3.34,3.37,4.74,1.35,9,3.37s4.25,2.13,8.54,4.15,4.14,2.38,8.43,4.4,4.73,1.1,9,3.12,3.79,3.1,8.09,5.12,4.49,1.62,8.79,3.64,3.89,2.88,8.19,4.9,4.19,2.28,8.49,4.3,4.43,1.73,8.74,3.75,4.94,6.18,9.25,4.19,1.6-5.08,2.7-9.6,1-4.53,2.14-9-.56-4.92.55-9.43,2.33-4.22,3.44-8.74.1-4.76,1.2-9.28,1-4.54,2.11-9.06,2.43-4.14,2-8.77c-3.16-.71-5.42-1.15-8.65-1.61s-6.37-1.48-9.63-1.67-6.51-.3-9.79-.21-6.46.55-9.73.91-6.36,1.13-9.6,1.77-6.28,1.42-9.46,2.32-6.41,1.17-9.52,2.32-5.33,3.91-8.35,5.28-6.31,1.68-9.23,3.26-5.09,4-7.91,5.75S981,1557.48,978.32,1559.39Z" style="fill:#fff"/><path d="M788.93,1645.54c-4.9,0-3.54-.66-9.69,0-2.76.28-6.2-.65-9.88-.07-3,.46-6,1.87-9.49,2.6-3,.63-6,2-9.35,2.89-3,.79-6.75-.26-10,.77-3,1-6.1,2.23-9.24,3.42s-5.22,4.26-8.28,5.61-5.78,2.75-8.74,4.26-6.58,1.42-9.45,3.1-5.21,3.91-8,5.76-5.82,3-8.45,5.05-5.26,3.9-7.75,6.08-4,5.26-6.33,7.6-4.69,4.47-6.88,7-5.44,4-7.45,6.62-2.84,6-4.67,8.78-2.49,6-4.15,8.93-2.57,5.88-4,8.86-3.38,5.49-4.67,8.56-2.33,6-3.46,9.11-1.67,6.2-2.62,9.39-4.12,5.58-4.91,8.82" style="fill:#fff"/><path d="M977.51,1560.82c-4.23-2.64-2.84-2.17-8.48-4.81-2.57-1.2-4.07-6.36-7.59-7.71-2.87-1.09-6.26-2-9.68-3-3-.92-6.4-1.8-9.8-2.57-3.13-.71-7,1.58-10.4,1.07-3.2-.47-6.37-2-9.78-2.25-3.24-.22-6.61-.47-10-.41s-6.67-.14-10,.21-6.08,3.57-9.4,4.23-6.9-.73-10.15.24-5.5,4-8.66,5.27-7.27-.15-10.3,1.4-5.72,3.42-8.61,5.24-4.65,4.85-7.38,6.9-6.9,2-9.47,4.26-4,5.47-6.4,7.9-5.58,3.9-7.83,6.47-3.33,5.86-5.43,8.56-4.4,5-6.35,7.79-1.45,6.91-3.26,9.8-2.71,6-4.4,8.92-6.88,3.73-8.45,6.76.44,7.57-1,10.64-5.91,3.34-7.27,6.46c-3.63,3-1.07,5.22-6.55,7.18-2.56.92-5.85,1-9.12,2.34-2.7,1.14-6.53.36-9.53,1.82-2.72,1.34-4.87,4.06-7.7,5.67s-4.72,4.09-7.38,5.87-7.19.83-9.66,2.82a93,93,0,0,0-7,6.67c-2.23,2.23-1.67,6.87-3.58,9.36a55.5,55.5,0,0,0-4.82,7.73c-1.48,2.76-5.49,4.34-6.46,7.37s-.57,6.31-.93,9.52c-.41,3.72-1.54,7.16-.77,9.76a16.38,16.38,0,0,0,5.7,8.52c2.41,1.66,6.39.9,9.83,1.43a44,44,0,0,0,9.42.77c3-.17,6.65,2.06,9.9,1.49,3.06-.54,5.84-3.36,9-4.15s5.59-3.56,8.61-4.49,5.72-2.92,8.64-4c3.14-1.12,6.48-1.15,9.26-2.24,3.3-1.3,6.18-2.67,8.71-3.76,5.35-2.3,4-2.45,8.3-4.52" style="fill:#fff"/><path d="M1078.39,1532.06a17.68,17.68,0,0,0-6.29-2.6,51.23,51.23,0,0,0-6.71-.45,34,34,0,0,1-3.54-.12c-3.25-.22-6.7-.29-10.24-.22a29.87,29.87,0,0,0-6.27,1,31.56,31.56,0,0,1-3.83.73,20.3,20.3,0,0,0-6.14,1.95,17.92,17.92,0,0,1-3.56,1.3,13,13,0,0,1-3.51-.11,17.26,17.26,0,0,0-6.83.2,19.41,19.41,0,0,1-3.73.47,22.94,22.94,0,0,0-6.5,1.12,22.24,22.24,0,0,0-5.48,3.25,19.75,19.75,0,0,1-3.33,2.15,20.11,20.11,0,0,1-3.64,1.06,24.1,24.1,0,0,0-6.17,2,29,29,0,0,0-4.94,3.59,30.29,30.29,0,0,1-3.26,2.5,20.22,20.22,0,0,0-4.61,4.33,16.08,16.08,0,0,1-2.74,2.78,3.84,3.84,0,0,0,4.4,6.3,23,23,0,0,0,4.19-4.1,13.91,13.91,0,0,1,2.79-2.77,35.61,35.61,0,0,0,4.17-3.17,23.13,23.13,0,0,1,3.63-2.69,17.59,17.59,0,0,1,4.25-1.33,20.49,20.49,0,0,0,9.82-4.51,16,16,0,0,1,3.56-2.22,17.18,17.18,0,0,1,4.39-.67,25.23,25.23,0,0,0,5.27-.74,11.75,11.75,0,0,1,3.92,0,18.81,18.81,0,0,0,5.81,0,24.66,24.66,0,0,0,5.21-1.82,14.44,14.44,0,0,1,3.84-1.33,39.61,39.61,0,0,0,4.75-.89,23.35,23.35,0,0,1,4.7-.78c3.32-.07,6.54,0,9.58.2,1.3.08,2.61.11,3.87.14a46.87,46.87,0,0,1,5.74.36,11.77,11.77,0,0,1,3.56,1.64,19.58,19.58,0,0,0,5.39,2.42h.09v-8Z" style="fill:#1a1a1a"/><path d="M632.74,1772.75a3.62,3.62,0,0,1-.92-.11A3.84,3.84,0,0,1,629,1768a36.45,36.45,0,0,0,.66-4.09,35.14,35.14,0,0,1,1.07-5.81c.9-3,1.93-6.13,3.15-9.54a42.4,42.4,0,0,1,2.62-5.59c.64-1.21,1.25-2.36,1.73-3.48a38.47,38.47,0,0,1,3-5.41c.72-1.16,1.39-2.26,1.93-3.35.39-.78.76-1.55,1.14-2.32,1-2.17,2.14-4.42,3.38-6.58a54,54,0,0,1,3.58-5.28c.75-1,1.46-2,2.11-3a11.76,11.76,0,0,0,1.12-3.43,15.84,15.84,0,0,1,2.51-6.34,25.51,25.51,0,0,1,4.63-4.38,21.87,21.87,0,0,0,2.87-2.54,29.66,29.66,0,0,0,2.33-3.27,29,29,0,0,1,3.71-4.9,18.25,18.25,0,0,1,5.71-3.53,13.81,13.81,0,0,0,3.16-1.73,14.71,14.71,0,0,0,2.26-3,18.35,18.35,0,0,1,4.15-5,22.72,22.72,0,0,1,5.72-2.94,19.24,19.24,0,0,0,3.42-1.59,23.15,23.15,0,0,0,3-2.62,25.27,25.27,0,0,1,4.76-3.89,33.11,33.11,0,0,1,5.66-2.49,34,34,0,0,0,3.62-1.47,26.57,26.57,0,0,0,3.42-2.24,28.17,28.17,0,0,1,5.14-3.17,29.22,29.22,0,0,1,6-1.7,24.64,24.64,0,0,0,3.75-.95,26,26,0,0,1,6.15-1.29,22.25,22.25,0,0,0,3.72-.66,16.53,16.53,0,0,0,3.47-1.89,19.49,19.49,0,0,1,5.55-2.77c1.27-.33,2.51-.7,3.72-1.06,2-.58,4-1.17,6-1.59a47.3,47.3,0,0,1,6.36-.77c1.3-.09,2.53-.18,3.62-.35a42.61,42.61,0,0,0,4.62-1.08,32.56,32.56,0,0,1,5.22-1.13,36.57,36.57,0,0,1,7-.28c.78,0,1.66.09,3.28.08h0a3.84,3.84,0,0,1,0,7.68,35.17,35.17,0,0,1-3.73-.1,30.23,30.23,0,0,0-5.77.26,29.06,29.06,0,0,0-4,.9,49,49,0,0,1-5.44,1.25c-1.41.23-2.87.33-4.27.43a41.43,41.43,0,0,0-5.33.62c-1.68.36-3.46.89-5.35,1.44-1.29.38-2.6.77-3.94,1.13a13.17,13.17,0,0,0-3.34,1.79,22.27,22.27,0,0,1-5.31,2.76,27.51,27.51,0,0,1-5.12,1,19.45,19.45,0,0,0-4.37.86,32,32,0,0,1-4.93,1.29,15,15,0,0,0-8.17,3.57,33.71,33.71,0,0,1-4.43,2.85,39.14,39.14,0,0,1-4.47,1.85,28.23,28.23,0,0,0-4.42,1.89,19.43,19.43,0,0,0-3.3,2.79,29.92,29.92,0,0,1-4.07,3.48,25,25,0,0,1-4.9,2.36,16.64,16.64,0,0,0-3.85,1.88,12.85,12.85,0,0,0-2.34,3,20.5,20.5,0,0,1-3.68,4.67,19.7,19.7,0,0,1-5.06,3,12.26,12.26,0,0,0-3.43,2,23.33,23.33,0,0,0-2.7,3.66,36.67,36.67,0,0,1-3,4.15,27.93,27.93,0,0,1-3.88,3.49,19.3,19.3,0,0,0-3.3,3,10.66,10.66,0,0,0-1.13,3.4,17.42,17.42,0,0,1-2.2,6c-.76,1.14-1.56,2.22-2.33,3.27a45.13,45.13,0,0,0-3.1,4.54c-1.11,1.92-2.09,3.95-3.13,6.1-.38.79-.77,1.58-1.16,2.38-.7,1.42-1.51,2.72-2.29,4a32.34,32.34,0,0,0-2.42,4.36c-.61,1.44-1.33,2.79-2,4.1a34.8,34.8,0,0,0-2.17,4.57c-1.18,3.28-2.16,6.27-3,9.15a28.71,28.71,0,0,0-.8,4.56,42.57,42.57,0,0,1-.83,5A3.83,3.83,0,0,1,632.74,1772.75Z" style="fill:#1a1a1a"/><path d="M787.41,1647.21a3.8,3.8,0,0,1-1.54-.32,3.84,3.84,0,0,1-2-5h0a41.53,41.53,0,0,1,2.9-5.25,41.3,41.3,0,0,0,2.08-3.63c.6-1.27,1.13-2.59,1.69-4,.71-1.76,1.44-3.59,2.35-5.34a15.79,15.79,0,0,1,4.88-5.14,10.77,10.77,0,0,0,2.54-2.34,21,21,0,0,0,1.52-3.86,24.44,24.44,0,0,1,2.36-5.6,35.44,35.44,0,0,0,2-3.8,36.1,36.1,0,0,1,2.84-5.22,24.94,24.94,0,0,1,4.48-4.61,20.55,20.55,0,0,0,2.78-2.69,22.09,22.09,0,0,0,2.07-3.57,23.91,23.91,0,0,1,3.26-5.26c.86-1,1.67-2,2.53-3.17a49.75,49.75,0,0,1,4-4.8,52.15,52.15,0,0,1,5.06-4.31c1-.8,2-1.55,2.87-2.32a60.56,60.56,0,0,1,5.56-4.2c.93-.65,1.86-1.29,2.74-2a47.64,47.64,0,0,1,5.77-3.58c1.07-.61,2.09-1.17,3-1.77a42.49,42.49,0,0,1,6-3c1.15-.5,2.24-1,3.25-1.49s2.2-1.24,3.34-1.94a37,37,0,0,1,5.68-3.07A22.54,22.54,0,0,0,875,1544a23.36,23.36,0,0,1,5.82-2.93,47.71,47.71,0,0,1,6.87-1.37c1.2-.17,2.34-.34,3.41-.55l2.42-.5a77.82,77.82,0,0,1,7.84-1.37,26.78,26.78,0,0,1,6.62.35,25.89,25.89,0,0,0,3.79.36c1.06,0,2.11-.06,3.15-.1a68.33,68.33,0,0,1,7.16,0c3.86.27,7.21.62,10.24,1.07l1.47.22c2.88.42,5.86.86,8.68,1.5a36.09,36.09,0,0,1,6.19,2.18,36.67,36.67,0,0,0,3.48,1.35,34.67,34.67,0,0,1,6.07,2.67,33.51,33.51,0,0,0,3.24,1.56c1.36.52,2.7,1,4,1.4a53.69,53.69,0,0,1,5.56,2.1,11,11,0,0,0,4.08,1.25,12.51,12.51,0,0,1,5.92,2.17,3.84,3.84,0,0,1-4.07,6.51,5.17,5.17,0,0,0-2.76-1,18.49,18.49,0,0,1-6.42-1.93,48.15,48.15,0,0,0-4.76-1.77c-1.37-.46-2.77-.93-4.29-1.51a39.9,39.9,0,0,1-4.06-1.93,27.74,27.74,0,0,0-4.73-2.12,39.16,39.16,0,0,1-4.26-1.64,29,29,0,0,0-4.88-1.75c-2.53-.58-5.24-1-8.1-1.4l-1.48-.21c-2.83-.43-6-.75-9.63-1a61.28,61.28,0,0,0-6.35,0c-1.1,0-2.2.09-3.31.1a32.06,32.06,0,0,1-5-.42,20.58,20.58,0,0,0-4.76-.32c-2.25.23-4.59.73-7.06,1.24l-2.5.52c-1.27.25-2.55.44-3.79.62a40.41,40.41,0,0,0-5.79,1.13,17.49,17.49,0,0,0-3.93,2.07,30.11,30.11,0,0,1-4.7,2.57,30.4,30.4,0,0,0-4.51,2.47c-1.22.75-2.49,1.53-3.87,2.24s-2.49,1.18-3.7,1.71a36.48,36.48,0,0,0-5,2.45c-1.13.71-2.29,1.35-3.4,2a42.36,42.36,0,0,0-4.9,3c-1,.72-2,1.41-3,2.11a56,56,0,0,0-4.88,3.67c-1,.92-2.16,1.78-3.22,2.61a44.39,44.39,0,0,0-4.32,3.66,42.47,42.47,0,0,0-3.37,4.06c-.9,1.17-1.82,2.37-2.85,3.55a18.23,18.23,0,0,0-2.18,3.67,29.41,29.41,0,0,1-2.86,4.82,26.52,26.52,0,0,1-3.85,3.8,19.08,19.08,0,0,0-3.18,3.18,28.52,28.52,0,0,0-2.19,4.11,42.47,42.47,0,0,1-2.41,4.6,18.28,18.28,0,0,0-1.57,3.89A27.69,27.69,0,0,1,807,1620a16.21,16.21,0,0,1-4.55,4.63,10.63,10.63,0,0,0-2.74,2.59,49.22,49.22,0,0,0-2,4.65c-.58,1.45-1.18,2.94-1.89,4.44a43.87,43.87,0,0,1-2.48,4.37,34.39,34.39,0,0,0-2.39,4.29A3.84,3.84,0,0,1,787.41,1647.21Z" style="fill:#1a1a1a"/><path d="M982.21,1588.38c3.87,2.89,4.74.83,9.36,2.21s4.53,1.71,9.15,3.09,4.72,1,9.35,2.42,4.49,1.8,9.11,3.18,4.71,1.12,9.33,2.5,4.23,2.68,8.85,4.07,4.61,1.45,9.23,2.84,4.66,1.26,9.28,2.64,5,.12,9.63,1.51,4.73,5.52,8.6,2.63,1-4.26,1.11-9.19-.54-5-.41-9.9-.39-5-.25-9.88,1.66-4.9,1.8-9.84,1.07-5.17-.25-9.93c-3.26-.89-6.48-2.42-9.74-3s-6.75-.47-10.07-.74a93.88,93.88,0,0,0-10.06-.66,90.67,90.67,0,0,0-10,1.07c-3.26.46-6.43,1.68-9.73,2.52a95.11,95.11,0,0,0-9.66,2.69c-3,1.12-5.73,3.28-8.84,4.76-2.92,1.4-5.79,3-8.78,4.7-2.8,1.63-5.89,2.91-8.75,4.84C987.76,1584.72,985,1586.28,982.21,1588.38Z" style="fill:#cddc4c"/><path d="M982.12,1591.68s-2.66-6.33-8.3-9c-2.58-1.2-6.81.24-10.35-1.09-2.87-1.07-5.88-2.26-9.29-3.27-3-.89-5.62-4.23-9-5-3.14-.67-6.34-2.48-9.75-2.93-3.21-.42-7,4.69-10.39,4.53-3.24-.15-6.37-2.14-9.77-2s-6.23,2.09-9.6,2.55a96.78,96.78,0,0,0-9.6,1.5c-3.16.75-7.74-3.14-11-2s-6.56,2-9.67,3.37c-3,1.35-3.28,8-6.24,9.69s-5.88,2.56-8.69,4.52c-2.65,1.85-7.83.53-10.47,2.71s-1.89,7.7-4.35,10.07-5.31,3.8-7.61,6.34-8,1.88-10.12,4.56c-2,2.53-2.81,6.27-4.8,9.06s-2.11,6.53-3.94,9.41-4.52,5-6.23,7.91-.1,7.41-1.68,10.43-6.22,4.21-7.69,7.29c-1.4,2.93-2.79,5-4.15,8.13-4.21,2.69-2.81,1.68-9,2.49-2.8.37-6.74-2.46-10.47-1.76-3,.57-6.15,2.47-9.63,3.32-3.06.74-5.68,4-9,5-3.07.92-6.8.32-10,1.48-3,1.09-6.81.9-10,2.23-3,1.26-6.12,2.81-9.17,4.32s-3.17,8.07-6.12,9.75-7.33.49-10.16,2.34-3.35,6.53-6,8.57-7.14,1.5-9.69,3.71-7,2.28-9.42,4.67-1.36,7.84-3.57,10.39-7.56,2.42-9.59,5.13-2.47,6.47-4.3,9.32-5.29,4.67-6.93,7.64-.21,7.38-1.65,10.45-5.49,4.9-6.72,8.06.24,7.16-.8,10.39-4,5.75-4.9,9,3.41,7.52,2.73,10.85-7.33,5.4-7.83,8.76,1.93,7,1.58,10.35" style="fill:#cddc4c"/><polygon points="1012.84 1582.79 963.65 1589.5 676.63 1795.14 1068.47 1846.49 1080 1825.57 1080 1606.78 1012.84 1582.79" style="fill:#cddc4c"/><ellipse cx="1051.52" cy="1592.67" rx="7.76" ry="4.49" transform="translate(-818.2 1210.02) rotate(-45)" style="fill:#7ebc25"/><ellipse cx="921.99" cy="1601.89" rx="5.65" ry="9.75" transform="translate(-770.89 2343.71) rotate(-83.74)" style="fill:#7ebc25"/><ellipse cx="839.62" cy="1680.03" rx="9.75" ry="5.65" transform="translate(-591.39 463.62) rotate(-23.08)" style="fill:#7ebc25"/><ellipse cx="718.26" cy="1742.19" rx="5.65" ry="9.75" transform="translate(-1134.72 2085.11) rotate(-78.08)" style="fill:#7ebc25"/><ellipse cx="944.21" cy="1656.62" rx="9.75" ry="5.65" transform="translate(-885.75 2192.49) rotate(-76.64)" style="fill:#7ebc25"/><polygon points="148.13 1576.38 107.1 1575.01 83.83 1587.41 26.39 1559.96 0 1558.61 0 1617.24 138.56 1613.32 148.13 1576.38" style="fill:#fff"/><path d="M418.81,1846.28c.58-4.88,1.81-3.39,2.19-9.61.16-2.78-1.13-6.11-1-9.85.09-3,3.31-6.25,3.31-9.79,0-3.1-1.22-6.39-1.32-9.83-.1-3.15.8-6.5.6-9.89-.19-3.18-.75-6.46-1-9.82-.28-3.19-3.34-6.15-3.74-9.47s-.24-6.49-.75-9.78-1.33-6.33-2-9.59-1.44-6.31-2.19-9.53-.64-6.53-1.53-9.71.24-6.93-.79-10.06-3.54-5.72-4.72-8.79-1.23-6.63-2.57-9.63-4-5.39-5.51-8.3-1.83-6.54-3.54-9.35-4.91-4.67-6.81-7.35-4.53-4.72-6.63-7.25-4.31-4.81-6.61-7.17-4.46-4.67-7-6.83-3.31-6.38-6-8.33-6.86-1.53-9.7-3.25-5.74-2.89-8.73-4.36-4.77-5.34-7.88-6.56-6.77-.48-10-1.46-5.91-3.16-9.18-3.9-6.76.75-10.07.23-6.32-1.41-9.66-1.73-6.34-2.94-9.7-3.07" style="fill:#fff"/><path d="M55.31,1572.05c3.57,1.53,7.48,1.81,10.45,3.27,3.68,1.82,5.36,6.41,8,7.92,5.92,3.36,4.75,2.85,10.13,3.42,3-1.66,4.84-4.36,7.73-5.86s6.84-1.43,9.78-2.83,6.38-2.21,9.37-3.49,6.27-2.4,9.3-3.55c3.2-1.21,5.36-5.22,8.44-6.22,3.25-1.06,7.77,2.45,10.9,1.61,3.3-.89,5.48-6.09,8.66-6.75,3.34-.7,7,.6,10.24.15s6.66-1.77,9.89-2c3.41-.24,6.83.76,10.07.78,3.41,0,6.72.59,10,.87s7-1.17,10.2-.61c3.36.59,6,4.06,9.16,4.91s6.56,1.36,9.6,2.5,6.88,1.09,9.81,2.51,4.83,5.16,7.62,6.84,6.9,1.74,9.53,3.67,3.68,6.11,6.14,8.25,7.79,1.6,10,3.91c2.41,2.46,2.11,7.31,4.17,9.76,2.24,2.67,5.12,4.61,7,7.17,2.1,2.88,2.51,6.57,4.13,9.17,2,3.2,7,4.24,8.31,6.75,2.9,5.51,2.42,9.13,2.42,9.13,5.14.52,4.82-.9,10.68,1,2.87.94,5.65,4,9,5.77,2.87,1.51,7.09,1.93,9.93,4.2,2.57,2.06,2.2,7.44,4.48,10.25,2.06,2.55,5.11,4.44,6.72,7.7,1.44,2.92,1.32,6.44,2.23,10a55.9,55.9,0,0,1,2,9.89c.26,3.23,3.86,6.72,3.65,10.39" style="fill:#fff"/><path d="M418.9,1798.83c2-1.26,4-4.35,6.66-4.2a24.39,24.39,0,0,0-1.56-3.74,12,12,0,0,1-1.32-3.5c-.12-1.3-.14-2.64-.18-4.07a56.85,56.85,0,0,0-.33-5.84c-.25-2.06-.61-4.1-1-6.07-.22-1.23-.45-2.47-.64-3.72a10.35,10.35,0,0,1,.62-3.32,14.9,14.9,0,0,0,.78-7.06,43.67,43.67,0,0,0-1.6-5.62c-.47-1.41-.91-2.74-1.22-4a42.08,42.08,0,0,0-1.84-5.59c-.52-1.37-1-2.66-1.36-3.94-.8-2.87-1.77-6.25-2.88-9.6-.39-1.2-.73-2.46-1.08-3.78a56,56,0,0,0-1.8-5.87,16.39,16.39,0,0,0-4-5.48,11.21,11.21,0,0,1-2.28-2.74,25.28,25.28,0,0,1-1.21-3.74,27.8,27.8,0,0,0-2.06-5.78c-.35-.67-.69-1.34-1-2-1.16-2.24-2.36-4.57-3.74-6.84a52.57,52.57,0,0,0-3.76-5.2c-.78-1-1.52-1.94-2.21-2.91a18.45,18.45,0,0,1-1.68-3.39,21.94,21.94,0,0,0-3.12-5.68,18.46,18.46,0,0,0-5.31-4,14.49,14.49,0,0,1-3.06-2.07,65.2,65.2,0,0,0-5.22-4.66c-.77-.64-1.55-1.28-2.32-1.95L367.6,1661a72.93,72.93,0,0,0-6.13-5,30.45,30.45,0,0,1-2.85-2.38,33.16,33.16,0,0,0-5-3.93,36,36,0,0,0-5.72-2.64c-1.23-.49-2.4-.94-3.5-1.49a34.45,34.45,0,0,1-3.22-1.87,33.65,33.65,0,0,0-5.63-3c-1-.4-2-.85-3.12-1.32a54,54,0,0,0-6.26-2.47,18.9,18.9,0,0,1-3.39-1.61,23.11,23.11,0,0,0-6-2.58,14.58,14.58,0,0,0-7,.57,10.67,10.67,0,0,1-3.51.54,10.55,10.55,0,0,1-3-1.5,15.4,15.4,0,0,0-6.62-2.7,27.48,27.48,0,0,0-6.06.29,26.35,26.35,0,0,1-4.11.3,3.84,3.84,0,0,0-.3,7.67,32.88,32.88,0,0,0,5.35-.35,20.75,20.75,0,0,1,4.39-.26,10.23,10.23,0,0,1,3.33,1.59,15.94,15.94,0,0,0,5.83,2.55,16.13,16.13,0,0,0,6.6-.69,10,10,0,0,1,3.39-.52,17.14,17.14,0,0,1,4,1.81,25.67,25.67,0,0,0,4.85,2.24,47.77,47.77,0,0,1,5.41,2.14c1.11.49,2.25,1,3.41,1.45a27.39,27.39,0,0,1,4.36,2.39,42.7,42.7,0,0,0,3.91,2.26c1.39.69,2.76,1.23,4.09,1.75a30.62,30.62,0,0,1,4.56,2.06,27.47,27.47,0,0,1,3.9,3.09,43.67,43.67,0,0,0,3.45,2.86c2,1.42,3.7,3,5.57,4.61l1.61,1.41c.81.7,1.64,1.38,2.45,2.06a60.31,60.31,0,0,1,4.63,4.1,20.47,20.47,0,0,0,4.73,3.37,12.24,12.24,0,0,1,3.22,2.26,15.68,15.68,0,0,1,2,3.74,24,24,0,0,0,2.5,4.87c.79,1.12,1.63,2.18,2.43,3.21a46.29,46.29,0,0,1,3.24,4.45c1.24,2,2.32,4.14,3.47,6.36.35.69.7,1.37,1.06,2a21.15,21.15,0,0,1,1.45,4.23,32,32,0,0,0,1.61,4.88,17.58,17.58,0,0,0,3.83,5,10.44,10.44,0,0,1,2.31,2.84,49.88,49.88,0,0,1,1.55,5.08c.37,1.37.75,2.79,1.21,4.2,1.06,3.2,2,6.48,2.77,9.27a46.85,46.85,0,0,0,1.58,4.6,35.1,35.1,0,0,1,1.54,4.61c.39,1.65.91,3.21,1.42,4.72a37.47,37.47,0,0,1,1.34,4.65,9.78,9.78,0,0,1-.62,3.49,15.21,15.21,0,0,0-.83,6.61c.2,1.31.44,2.61.67,3.89.35,2,.68,3.8.9,5.65.2,1.65.24,3.31.28,5.08,0,1.49.06,3,.2,4.58a17.66,17.66,0,0,0,2.06,6.18C417.32,1794.72,418.7,1798.38,418.9,1798.83Z" style="fill:#1a1a1a"/><path d="M63,1569.11c-1.14-.49-8.49-1.61-9.74-2.25a54.14,54.14,0,0,0-6.07-2.78,44.46,44.46,0,0,0-6-1.61c-1.51-.33-2.94-.65-4.32-1.07-2.24-.69-4.54-1.2-6.77-1.7-1.17-.27-2.36-.54-3.55-.83l-2.92-.75c-2.37-.62-4.83-1.26-7.41-1.75-2.22-.41-4.45-.59-6.6-.77-1.32-.11-2.67-.22-4-.38s-2.53-.39-3.88-.63l-1.71-.3v7.8l.35.06c1.39.25,2.83.51,4.3.69s2.9.3,4.29.41c2.05.17,4,.33,5.82.67,2.31.44,4.64,1,6.88,1.63l3,.78c1.24.3,2.48.58,3.71.86,2.18.49,4.24,1,6.19,1.55,1.69.52,3.34.88,4.93,1.23a39.91,39.91,0,0,1,5,1.32,50.11,50.11,0,0,1,5.22,2.41c1.31.67,2.67,1.37,4,2,.5.21,7.17.82,7.67.82a3.84,3.84,0,0,0,1.51-7.37Z" style="fill:#1a1a1a"/><path d="M285,1638.55a3.85,3.85,0,0,1-3.59-2.48,10.29,10.29,0,0,0-1.67-3.25,32.4,32.4,0,0,1-3-4.84c-1.11-2.09-1-4.5-.81-6.62.1-1.46.22-3.27-.22-4a11.44,11.44,0,0,0-2.61-1.52c-2-1-4.41-2.16-6-4.39a15.47,15.47,0,0,1-2.26-5.94,9.86,9.86,0,0,0-1.24-3.64,30.53,30.53,0,0,0-3.6-3.36,47,47,0,0,1-3.63-3.26,25.8,25.8,0,0,0-3.78-2.92,42.76,42.76,0,0,1-4-3,29.8,29.8,0,0,1-3.44-3.72,19.7,19.7,0,0,0-3.25-3.4c-2.82-2.07-5.54-3.9-8.07-5.43a10,10,0,0,0-3.51-.63,17.11,17.11,0,0,1-6.31-1.37,18.07,18.07,0,0,1-4.71-3.69,10.83,10.83,0,0,0-3.05-2.45,15.55,15.55,0,0,0-4.2-.59,26.16,26.16,0,0,1-5.46-.73,17.48,17.48,0,0,1-5.4-2.87,11,11,0,0,0-3.43-1.9l-1.87-.34a72.56,72.56,0,0,0-7.81-1.17c-3.33-.29-6.72-.45-9.81-.47a9.6,9.6,0,0,0-3.11,1.37,15.62,15.62,0,0,1-6.47,2.38,28.27,28.27,0,0,1-5.18-.24,18.92,18.92,0,0,0-4.57-.17,19.83,19.83,0,0,0-4.16,1.33,31.43,31.43,0,0,1-5.15,1.68,15.66,15.66,0,0,1-6.49-.39,10.32,10.32,0,0,0-3.73-.37c-2.89.78-6.25,1.7-9.49,2.76a12,12,0,0,0-3.14,2.1,19.79,19.79,0,0,1-5.33,3.39,17.1,17.1,0,0,1-6.3.78,11.34,11.34,0,0,0-3.86.37,23.13,23.13,0,0,0-3.79,2.3,33.93,33.93,0,0,1-4.72,2.9,38.47,38.47,0,0,1-4.84,1.79,29.9,29.9,0,0,0-4.48,1.69,13.4,13.4,0,0,0-2.79,2.92,18.64,18.64,0,0,1-5.11,4.89,3.78,3.78,0,0,1-2.28.47c-4.21-.44-5.82-2-7.36-3.94a10.66,10.66,0,0,0-3.51-3,16.62,16.62,0,0,1-4.38-4.14,12.69,12.69,0,0,0-3.62-3.46c-1.93-1-4.14-1.86-6.48-2.83-1.11-.46-2.24-.92-3.37-1.41a3.84,3.84,0,1,1,2.66-7.21l.34.15,3.29,1.37c2.46,1,4.79,2,6.94,3a19.28,19.28,0,0,1,6.15,5.46,12.24,12.24,0,0,0,2.26,2.35,18.35,18.35,0,0,1,5.66,4.8,3.21,3.21,0,0,0,.86.88,29,29,0,0,0,2-2.27,17.46,17.46,0,0,1,5.22-4.91,35.57,35.57,0,0,1,5.69-2.2,31.33,31.33,0,0,0,3.87-1.41,27.13,27.13,0,0,0,3.64-2.27,29.53,29.53,0,0,1,5.14-3,16.87,16.87,0,0,1,6.94-1,11.71,11.71,0,0,0,3.52-.28A13.48,13.48,0,0,0,122,1565a18,18,0,0,1,5.59-3.44c3.42-1.11,6.89-2.06,9.87-2.86a15.39,15.39,0,0,1,7.28.26,10.48,10.48,0,0,0,3.37.39,23.76,23.76,0,0,0,3.9-1.3,25.76,25.76,0,0,1,5.89-1.79,25.88,25.88,0,0,1,6.51.13,21.23,21.23,0,0,0,3.78.22,10.55,10.55,0,0,0,3.29-1.44c2-1.09,4.19-2.32,6.84-2.32h0c3.29,0,6.9.18,10.43.49,2.93.25,5.78.77,8.52,1.27l1.83.32a16.35,16.35,0,0,1,6.5,3.18,12.45,12.45,0,0,0,3,1.75,19.45,19.45,0,0,0,3.9.47,21.69,21.69,0,0,1,6.44,1.07,16.31,16.31,0,0,1,5.76,4.18,12.23,12.23,0,0,0,2.67,2.24,11.15,11.15,0,0,0,3.57.62,15.2,15.2,0,0,1,6.86,1.72c2.73,1.65,5.63,3.6,8.64,5.8a26.08,26.08,0,0,1,4.64,4.72,24.94,24.94,0,0,0,2.55,2.81,35.13,35.13,0,0,0,3.27,2.42,30.72,30.72,0,0,1,4.93,3.89c.93.94,2,1.82,3.09,2.75a36.62,36.62,0,0,1,4.54,4.3c1.79,2.13,2.38,4.78,2.86,6.9a11.11,11.11,0,0,0,1,3.11,10.33,10.33,0,0,0,3.19,2c2,1,4.36,2.13,5.75,4.36,1.75,2.81,1.54,6,1.37,8.55a12.71,12.71,0,0,0,0,2.6,24.83,24.83,0,0,0,2.33,3.78,17.66,17.66,0,0,1,2.68,5.09,3.83,3.83,0,0,1-2.15,5l-.07,0A3.87,3.87,0,0,1,285,1638.55Z" style="fill:#1a1a1a"/><path d="M397.24,1826.65c.08-4.91,2.74-3.67,2.42-9.86-.14-2.78-2.21-6-2.54-9.67-.26-3-1-6.21-1.42-9.7-.38-3.08,1-6.59.47-10-.5-3.12-2.64-6.07-3.3-9.39-.63-3.13-.23-6.57-1-9.83s-3.19-5.85-4.1-9-.08-6.77-1.13-9.92-2.16-6.17-3.36-9.25-3.3-5.7-4.66-8.7-1.71-6.46-3.24-9.37-3.18-5.77-4.9-8.57-3.07-5.91-5-8.57-6.3-3.38-8.42-5.88-3-6.06-5.31-8.38-4.22-5.13-6.76-7.24-5.49-3.64-8.23-5.5-6.15-2.35-9.07-3.94-5.27-3.91-8.33-5.22-5.83-3.05-9-4.07-6.4-1.31-9.67-2-6.4-1-9.72-1.48c-3.16-.44-6.51.7-9.86.49-3.19-.2-6.37-2.14-9.73-2.12" style="fill:#cddc4c"/><path d="M77.6,1612.36c-5-.58-2.41-1.1-7.82-4.48-2.43-1.52-7.29.14-10.68-1.67-2.72-1.46-5.67-2.8-9-4.31-2.9-1.32-5.35-3.93-8.66-5.2-3-1.17-5.27-5-8.6-6.08-3.11-1-6.73-.89-10.1-1.73-3.19-.79-7.14,1.84-10.54,1.23-3.24-.59-5.11-3.36-8.53-3.74-1.6,4.78.13,4.69.22,9.73s.62,5,.71,10.08-2.92,5.11-2.83,10.16,3.84,5,3.94,10-.73,5.06-.64,10.11-5.29,7-1.81,10.63,5.57-2.28,10.53-2,4.79,3.61,9.74,3.86,5-1.16,10-.92,5,0,9.92.27,4.81,3.06,9.77,3.31,5-1,10-.76,5.09-2.58,10-2.33,4.88,1.69,9.83,1.94,5.06-1.84,10-1.6,5,0,9.92.21,4.78,3.72,9.74,4,5-.09,9.92.15,4.92.92,9.88,1.16,5.14-3.54,10.09-3.3,4.88,1.8,9.84,2,4.85,2.33,9.8,2.57,5-1.69,10-1.45,4.89,1.6,9.84,1.84,4.95.52,9.9.77,5-1.64,10-1.4,5-1.42,10-1.17,4.73,4.69,9.69,4.93,5-.33,9.94-.09,5.09-2.46,10-2.22,4.78,3.9,9.74,4.14,5.13-3.32,10.09-3.08,6,5.87,10.68,4.21-1.53-6.21-4.45-11.7c-1.33-2.51-2.92-5.55-4.93-8.74-1.64-2.6-2.61-6.12-4.73-9-1.88-2.54-3.68-5.6-5.95-8.24-2.1-2.43-5.43-4.08-7.88-6.5-2.3-2.27-5.87-3.35-8.49-5.54s-6.29-2.38-9.08-4.32-5-4.12-7.92-5.78-5-4.54-8.1-5.91-5.59-4-8.82-5-7.28,1.83-10.6,1.08c-3.17-.71-5.71-5.18-9.1-5.62-3.21-.41-6.67-.52-10.08-.65-3.24-.13-6.59,1.74-10,1.88-3.23.14-6.8-2.06-10.2-1.66-3.21.38-5.89,4.84-9.25,5.47-3.18.6-6.35,1.13-9.66,2-3.14.8-6.87-.32-10.13.7-3.09,1-7,.07-10.19,1.25-3,1.13-5.65,3.76-8.8,5.08-3,1.27-6.67,1.35-9.75,2.8s-3.86,7-6.88,8.62S80.57,1610.7,77.6,1612.36Z" style="fill:#cddc4c"/><polygon points="396.96 1822.94 299.31 1673.77 256.05 1649.42 0 1642.65 0 1842.03 402.58 1835.54 396.96 1822.94" style="fill:#cddc4c"/><ellipse cx="271.39" cy="1694.83" rx="4.49" ry="7.76" transform="translate(-586.24 208.03) rotate(-20.88)" style="fill:#7ebc25"/><ellipse cx="102.41" cy="1646.77" rx="5.65" ry="9.75" transform="translate(-1519.91 1346.05) rotate(-75.94)" style="fill:#7ebc25"/><ellipse cx="165.53" cy="1619.9" rx="5.65" ry="9.75" transform="translate(-1021.18 504.91) rotate(-40.95)" style="fill:#7ebc25"/><ellipse cx="199.97" cy="1691.34" rx="9.75" ry="5.65" transform="translate(-1030.16 513.46) rotate(-39.5)" style="fill:#7ebc25"/><ellipse cx="110.77" cy="1796.2" rx="5.65" ry="9.75" transform="matrix(0.32, -0.95, 0.95, 0.32, -1627.03, 1328.57)" style="fill:#7ebc25"/><ellipse cx="268.42" cy="1785.57" rx="5.65" ry="9.75" transform="translate(-1537.19 1794.68) rotate(-81.74)" style="fill:#7ebc25"/><ellipse cx="221.14" cy="1865.71" rx="9.75" ry="5.65" transform="translate(-1136.23 566.75) rotate(-39.5)" style="fill:#7ebc25"/><path d="M293.15,197.54c-2.42-2.76-10.35-10.07-19.55-.19a2.3,2.3,0,0,1-2.32.68c-3.35-1-12.1-2.43-15.17,7a2.74,2.74,0,0,1-2.51,2.09c-3.81,0-12.36.48-17.7,5.69-1.93,1.88-.78,5.64,1.71,5.64h85.57c2.57,0,3.68-4,1.57-5.76a21.11,21.11,0,0,0-14.57-4.82,2.68,2.68,0,0,1-2.47-2.14c-.85-2.93-3.63-7.62-12.61-7.34A2.47,2.47,0,0,1,293.15,197.54Z" style="fill:#fff"/><path d="M323.18,220.67H237.61a4.82,4.82,0,0,1-4.45-3.17,5.77,5.77,0,0,1,1.19-6.27c5.78-5.63,14.56-6.37,19.28-6.31a1,1,0,0,0,.37-.57c.95-2.91,5-12.12,17.89-8.46H272c3.58-3.85,7.44-5.77,11.44-5.71,5.44.08,9.47,3.76,11.39,5.94h0c.11.12.18.12.22.12,10.9-.35,14,6.13,14.81,8.93a.94.94,0,0,0,.34.55,23.38,23.38,0,0,1,16,5.34,5.68,5.68,0,0,1,1.53,6.29A4.83,4.83,0,0,1,323.18,220.67Zm-70-11.32c-3.47,0-11.11.55-15.73,5.05a1.39,1.39,0,0,0-.18,1.43c.08.2.23.41.35.41h85.57c.12,0,.28-.23.36-.46a1.29,1.29,0,0,0-.21-1.38,18.91,18.91,0,0,0-13.09-4.31,4.85,4.85,0,0,1-4.65-3.72c-.81-2.75-3.27-6-10.42-5.75A4.73,4.73,0,0,1,291.5,199h0c-1.15-1.32-4.26-4.39-8.12-4.44-2.72-.06-5.45,1.4-8.14,4.3a4.53,4.53,0,0,1-4.55,1.3c-3.64-1-10.09-1.7-12.45,5.56a5,5,0,0,1-4.64,3.63Z" style="fill:#bae2f8"/><path d="M806,318.32c-3-3.39-12.74-12.4-24.08-.23a2.8,2.8,0,0,1-2.86.83c-4.12-1.17-14.89-3-18.68,8.64a3.38,3.38,0,0,1-3.08,2.58c-4.69-.06-15.23.59-21.81,7-2.37,2.32-1,7,2.11,7H843c3.16,0,4.53-4.91,1.94-7.09A26,26,0,0,0,827,331.06a3.3,3.3,0,0,1-3-2.63c-1-3.61-4.47-9.39-15.53-9A3,3,0,0,1,806,318.32Z" style="fill:#fff"/><path d="M843,345.88H737.61a5,5,0,0,1-4.61-3.33,6.15,6.15,0,0,1,1.25-6.69c6.87-6.7,17.42-7.58,23.08-7.51.55,0,1.1-.53,1.36-1.34,4.35-13.38,17.08-10.89,20.88-9.81a1,1,0,0,0,1-.33c4.23-4.54,8.76-6.81,13.4-6.74,6.33.1,11.07,4.43,13.34,7h0a1.27,1.27,0,0,0,1,.46c12.31-.41,16.13,6.3,17.31,10.33.23.78.76,1.34,1.27,1.33A28,28,0,0,1,846,335.62a6,6,0,0,1,1.6,6.71A5,5,0,0,1,843,345.88Zm-86.21-14c-4.4,0-14.09.71-20,6.49a2.6,2.6,0,0,0-.44,2.78c.13.33.53,1.09,1.29,1.09H843c.83,0,1.22-.91,1.33-1.18a2.53,2.53,0,0,0-.55-2.74A24.19,24.19,0,0,0,827,332.85a5.06,5.06,0,0,1-4.8-3.92c-1.08-3.7-4.34-8-13.76-7.75a4.85,4.85,0,0,1-3.8-1.68h0c-1.5-1.71-5.56-5.71-10.7-5.78-3.58,0-7.21,1.82-10.72,5.59a4.63,4.63,0,0,1-4.66,1.34c-4.8-1.37-13.33-2.22-16.48,7.46a5.12,5.12,0,0,1-4.75,3.82h-.54Z" style="fill:#bae2f8"/><path d="M208.41,243.32c-3.31-3.77-14.17-13.78-26.77-.26a3.12,3.12,0,0,1-3.17.93c-4.59-1.31-16.56-3.32-20.76,9.6a3.77,3.77,0,0,1-3.43,2.87c-5.22-.07-16.93.65-24.24,7.78-2.64,2.57-1.06,7.72,2.34,7.72H249.51c3.51,0,5-5.45,2.16-7.88-4.19-3.53-10.64-6.85-20-6.61a3.64,3.64,0,0,1-3.37-2.91c-1.17-4-5-10.44-17.27-10.05A3.34,3.34,0,0,1,208.41,243.32Z" style="fill:#fff"/><path d="M249.51,274.17H132.38a5.8,5.8,0,0,1-5.33-3.83,7.08,7.08,0,0,1,1.45-7.69c7.69-7.5,19.47-8.48,25.81-8.41h0c.5,0,1-.55,1.28-1.34,4.9-15.05,19.21-12.26,23.48-11a.91.91,0,0,0,.94-.31c4.75-5.09,9.83-7.61,15.06-7.55,7.13.1,12.45,5,15,7.86h0a1.13,1.13,0,0,0,.93.43c13.85-.43,18.14,7.11,19.47,11.64.22.77.76,1.32,1.18,1.33a31.41,31.41,0,0,1,21.44,7.13,7,7,0,0,1,1.85,7.7A5.81,5.81,0,0,1,249.51,274.17Zm-95.82-15.5c-4.86,0-15.57.78-22.1,7.15a2.69,2.69,0,0,0-.44,2.85c.14.32.52,1.07,1.23,1.07H249.51c.78,0,1.17-.9,1.27-1.17a2.57,2.57,0,0,0-.54-2.79,26.7,26.7,0,0,0-18.47-6.09,5.82,5.82,0,0,1-5.56-4.51c-1.18-4-4.76-8.79-15.07-8.46a5.61,5.61,0,0,1-4.4-1.94c-1.65-1.88-6.1-6.27-11.72-6.35-4-.09-7.9,2-11.76,6.14a5.35,5.35,0,0,1-5.4,1.55c-5.26-1.5-14.6-2.43-18.05,8.15a5.91,5.91,0,0,1-5.56,4.4Z" style="fill:#bae2f8"/><polygon points="1075.11 1566.06 1080 1567.37 1080 1609.74 1070.73 1603.47 1075.11 1566.06" style="fill:#cddc4c"/><path d="M2.69,1586a8,8,0,0,0-2.76-.82v64.27l4-4.4,6.52-19.33-4.64-34.1Z" style="fill:#cddc4c"/><path d="M422.63,1797.34c4.12-2,8.92-2.88,13.37-4.83,4.24-1.86,8-5,12.55-6.73,4.34-1.66,8.14-5.24,12.73-6.74,4.43-1.44,9.47-1.33,14.12-2.58s9.43-.9,14.14-1.9c4.56-1,9.16-1.83,13.91-2.57s9.31-.84,14.09-1.31,9.23-2.22,14-2.42,9.42-1.57,14.22-1.49,9.49.14,14.28.49,9.21,2.67,14,3.29,9.53,0,14.26.91,8.93,3.22,13.6,4.35,8.77,3.37,13.38,4.75,8-.17,12.49,1.44c5.38-5.5,4-5.78,5.48-13.46" style="fill:none;stroke:#1a1a1a;stroke-linecap:round;stroke-linejoin:round;stroke-width:8px"/><path d="M402.37,1834.1c4.23-1.63,8.76-2.5,12.93-4.17s6.91-7.09,11.08-8.78,8.85-2.28,13-3.93,8.94-2,13.17-3.57,9-1.69,13.25-3.12,8.28-3.62,12.63-4.88,7.87-5.82,12.28-6.85,9.06-1.48,13.55-2.24,9.33,1.35,13.87.89,8.92-1,13.5-1.14,9-1,13.59-.84c4.42.19,8.69,3.17,13.27,3.69,4.39.5,8.81.75,13.37,1.58,4.33.8,8.71,1.56,13.21,2.67,4.27,1.06,9.44-.61,13.87.76,4.21,1.3,8.91,1.85,13.27,3.45,4.13,1.51,7.35,5.84,11.63,7.63,4.06,1.71,9.19,1.41,13.39,3.38,4,1.87,8.81,6.39,12.93,8.51,1.51-6.57-3.21-6.84-1.64-13.4,1.51-6.27,3.6-4.61,7.26-9.92s.59-7.43,4.24-12.75,3.16-6.1,9.27-8.2c6-2,6.42-2.26,12.37-.23s5.07,4.64,11,6.67,10.35-2.28,13.84,3c3.69,5.52-.12,8-.28,14.66s.17,6.65,0,13.29-1.46,6.61-1.63,13.25.33,6.65.17,13.29-3.44,6.57-3.6,13.21.46,6.66.29,13.3" style="fill:#cddc4c"/><polyline points="669.7 1847.23 717.14 1770.91 1080 1796.25 1080 1920 -0.07 1920 -0.07 1827.36 458.87 1834.45" style="fill:#cddc4c"/><ellipse cx="888" cy="1858.9" rx="9.75" ry="5.65" transform="translate(-657.64 496.9) rotate(-23.08)" style="fill:#7ebc25"/><ellipse cx="882.36" cy="1768.08" rx="5.65" ry="9.75" transform="translate(-1029.85 2266.23) rotate(-78.08)" style="fill:#7ebc25"/><ellipse cx="762.15" cy="1826.29" rx="9.75" ry="5.65" transform="translate(-1023.89 974.08) rotate(-41.84)" style="fill:#7ebc25"/><ellipse cx="591.76" cy="1864.92" rx="5.65" ry="9.75" transform="translate(-1355.17 2058.73) rotate(-78.08)" style="fill:#7ebc25"/><ellipse cx="492.6" cy="1846.41" rx="5.65" ry="9.75" transform="translate(-627.63 298.19) rotate(-20.95)" style="fill:#7ebc25"/><ellipse cx="982.82" cy="1781.35" rx="5.65" ry="9.75" transform="translate(-619.65 527.86) rotate(-23.08)" style="fill:#7ebc25"/><ellipse cx="59.45" cy="1726.29" rx="9.75" ry="5.65" transform="translate(-296.21 35.99) rotate(-9.91)" style="fill:#7ebc25"/><ellipse cx="217.01" cy="1865.67" rx="5.65" ry="9.75" transform="translate(-1539.23 1199.76) rotate(-62.6)" style="fill:#7ebc25"/></svg>