<svg id="圖層_1" data-name="圖層 1" xmlns="http://www.w3.org/2000/svg" viewBox="0 0 106.3 194.9"><title>bat</title><path d="M52.5,15.8l-4.6,4.6s-4.6,17.4,4.2,15.9C52.1,36.3,69.3,24.2,52.5,15.8Z" style="fill:#a19895"/><polyline points="19.9 172.9 18 182.3 18.7 192.9 30.3 184.7" style="fill:#a19895"/><ellipse cx="52.1" cy="104.6" rx="39.5" ry="68.4" style="fill:#a19895"/><path d="M41.4,113.2s-3.5-10.3-7.5,1.7c0,0-16.7,36.8-25.9,39.1,0,0-5.7,2.9,9.8,15.5,0,0,8,20.1,27,20.7,0,0,19.5,4,30.5-31.6Z" style="fill:#c5bcb8"/><path d="M50.6,194c-12.6,0-24-7.3-30.1-15a27.49,27.49,0,0,1-7.4-14.8,2.73,2.73,0,1,1,5.4-.8,22.63,22.63,0,0,0,6,11.8l.3.3c5.5,6.9,16.6,13.9,28.2,13,10.8-.9,20-8.1,27.3-21.6a2.71,2.71,0,1,1,4.9,2.3.35.35,0,0,1-.1.2C74.7,188.1,62.2,193,53.4,193.7A14.07,14.07,0,0,1,50.6,194Z" style="fill:#1a1a1a"/><path d="M24.8,148.9a2.69,2.69,0,0,1-1.4-5A104.1,104.1,0,0,1,35.5,138a2.67,2.67,0,1,1,2.1,4.9,122,122,0,0,0-11.5,5.6A2.2,2.2,0,0,1,24.8,148.9Z" style="fill:#1a1a1a"/><path d="M18.7,194.9a2.06,2.06,0,0,1-1.7-1c-.2-.3-3.8-7.1.2-19.7a2,2,0,0,1,2.5-1.2,1.9,1.9,0,0,1,1.2,2.4c-2.5,7.6-1.8,12.7-1.1,15.1,6.6-2.9,7-8,7-8a2,2,0,0,1,3.9.1v.2c0,.4-.6,8.7-11.4,12.2A1.27,1.27,0,0,0,18.7,194.9Z" style="fill:#1a1a1a"/><circle cx="36.8" cy="163.2" r="4.2" style="fill:#1a1a1a"/><path d="M22.5,168.6a2.3,2.3,0,0,1-1.4-.4c-3.5-2.1-10.3-5-14-4.2a3,3,0,0,1-1.9-.3,5.73,5.73,0,0,1-2.7-5.2c.3-3.2,3-8.3,22.7-15.6a2.72,2.72,0,0,1,1.9,5.1h0C12,153.6,8.7,157.2,8,158.5c6.7-.2,14.8,4.5,15.8,5.1a2.64,2.64,0,0,1,.9,3.7,2.48,2.48,0,0,1-2.2,1.3Z" style="fill:#1a1a1a"/><path d="M32,155.4a2,2,0,0,1-.7-.1l-12.6-4.5a2,2,0,0,1,1.3-3.7l12.6,4.5a2,2,0,0,1-.6,3.8Z" style="fill:#1a1a1a"/><path d="M86.6,175a2.66,2.66,0,0,1-2.2-1.1c-.2-.3-23.6-32.7-37.6-48a24.5,24.5,0,0,1-3.8-5.3C37,109.8,18.5,70.8,29.1,19.4a2.71,2.71,0,1,1,5.3,1.1C24.2,70,41.9,107.6,47.6,118a25.29,25.29,0,0,0,3.1,4.2c14.2,15.5,37.1,47.1,38,48.5a2.72,2.72,0,0,1-.6,3.8,3.81,3.81,0,0,1-1.5.5Z" style="fill:#1a1a1a"/><path d="M86.6,174.8a2.67,2.67,0,0,1-2.7-2.6,3.53,3.53,0,0,1,.3-1.4A158.32,158.32,0,0,0,98,130.2c4.2-21,5.8-51.8-9.8-80.9a7.69,7.69,0,0,1-4.2,1c-5.8-.3-11.7-6.9-18-20.1-3.5,3.8-10,9.3-17.7,8.7-7.3-.5-13.7-6.4-19-17.3a2.65,2.65,0,0,1,1.4-3.5,2.7,2.7,0,0,1,3.4,1.2c4.4,9.1,9.3,14,14.6,14.4,8.3.6,15.6-9.8,15.7-9.9a2.7,2.7,0,0,1,3.7-.7,5.24,5.24,0,0,1,1,1.1c8.3,19,13.6,20.8,15.1,20.9a2.77,2.77,0,0,0,2.3-1.3,2.64,2.64,0,0,1,3.7-.9,2.58,2.58,0,0,1,.9.9c18.2,31.5,16.6,65.1,12.1,87.8a166.12,166.12,0,0,1-14.3,42A2.66,2.66,0,0,1,86.6,174.8Z" style="fill:#1a1a1a"/><path d="M83.5,149.6a2.45,2.45,0,0,1-1.2-.4c-.8-.6-20.1-16.1-30.7-28.5a2,2,0,0,1,3-2.6c7.4,8.6,19.4,19.1,25.8,24.4-3.3-15.4-12.7-60.7-17-97.9a1.93,1.93,0,0,1,1.8-2.1,2,2,0,0,1,2.1,1.6c5.2,45.2,17.9,102.4,18,103a2,2,0,0,1-.9,2.1A.94.94,0,0,1,83.5,149.6Z" style="fill:#1a1a1a"/><path d="M89.6,132.9h-.4a2,2,0,0,1-1.5-2.3c0-.2,3.9-20.4,1.9-32.1a2,2,0,0,1,1.7-2.2,2.06,2.06,0,0,1,2.2,1.5c2.1,12.4-1.8,32.7-1.9,33.5A2.11,2.11,0,0,1,89.6,132.9Z" style="fill:#1a1a1a"/><path d="M12,153a2.69,2.69,0,0,1-2.4-1.4c-.3-.6-7.4-14.1-9.2-34.4C-1.3,98.4,1.6,70,24.4,41.5a2.7,2.7,0,0,1,4.2,3.4C-12.9,96.7,14.1,148.5,14.4,149.1a2.76,2.76,0,0,1-1,3.7,3.18,3.18,0,0,1-1.4.2Z" style="fill:#1a1a1a"/><path d="M15.1,151.7a2.3,2.3,0,0,1-1.4-.4,2.64,2.64,0,0,1-.8-3.7h0c.2-.2,15.3-24.2,21.8-43.5a2.69,2.69,0,0,1,5.1,1.7h0c-6.6,19.9-21.7,43.7-22.3,44.7A3.3,3.3,0,0,1,15.1,151.7Z" style="fill:#1a1a1a"/><path d="M54.9,161.3s0,7.3-10.2,9.2l1.2,6.6,5.9,5.7,5.6,2.4,3.6-4.1,1.4-7.3S59.1,160.8,54.9,161.3Z" style="fill:#a19895"/><path d="M57.4,187.2h-.3c-13.2-2.1-15.9-15.3-15.9-15.5a2,2,0,0,1,1.7-2.2,1.9,1.9,0,0,1,2.1,1.4h0c.1.4,2.2,10.4,12.2,12.3a5.38,5.38,0,0,0,3-3.1c1.1-2.8,1.1-8.2-5.2-18.6a1.94,1.94,0,0,1,3.3-2c5.8,9.5,7.6,17,5.5,22.2a9.08,9.08,0,0,1-5.9,5.4A1.09,1.09,0,0,1,57.4,187.2Z" style="fill:#1a1a1a"/><path d="M45.1,37a2.66,2.66,0,0,1-1.2-.3,2.75,2.75,0,0,1-1.2-3.6c.1-.1,1.8-4,3-15-2.9-2.3-5.8-7.5-2.7-16A2.65,2.65,0,0,1,46.6,1,2.69,2.69,0,0,1,48,3.8c-3,8.3,1.5,10.3,1.6,10.4a2.7,2.7,0,0,1,1.6,2.7C49.9,30.3,47.7,35,47.5,35.5A2.61,2.61,0,0,1,45.1,37Z" style="fill:#1a1a1a"/><path d="M60.5,34.5a2.75,2.75,0,0,1-2.2-1.2c-.4-.6-1.3-1.9-1.7-14.5-1.8-8.5,2.7-17.1,2.9-17.5A2.64,2.64,0,0,1,63.2.4a2.73,2.73,0,0,1,1.1,3.4h0c0,.1-3.8,7.4-2.3,14.1a.9.9,0,0,0,.1.5c.2,4.9.6,10.9,1,12.2a2.66,2.66,0,0,1-1.2,3.6,3.53,3.53,0,0,1-1.4.3Zm2.3-4.2Z" style="fill:#1a1a1a"/></svg>