<?xml version="1.0" encoding="utf-8"?>
<!-- Generator: Adobe Illustrator 21.1.0, SVG Export Plug-In . SVG Version: 6.00 Build 0)  -->
<svg version="1.1" id="圖層_1" xmlns="http://www.w3.org/2000/svg" xmlns:xlink="http://www.w3.org/1999/xlink" x="0px" y="0px"
	 viewBox="0 0 328.4 396.7" style="enable-background:new 0 0 328.4 396.7;" xml:space="preserve">
<style type="text/css">
	.st0{fill:#D6D6D6;}
	.st1{fill:#D6A17F;}
	.st2{fill:#E4BFA4;}
	.st3{fill:#2C88C9;}
	.st4{fill:#B3B3B3;}
	.st5{fill:#1A1A1A;}
	.st6{fill:#C2DDEC;}
	.st7{fill:#FFFFFF;}
	.st8{fill:none;}
	.st9{fill:#F29A4A;}
	.st10{fill:#A77858;}
</style>
<title>互動設計UI</title>
<path class="st0" d="M172.4,309.4l16.2,57.7c44.1-13.7,45.6,10.9,45.6,10.9l-32.5,2.7l-63.7,14.4c0.9-22.9,35.5-26.7,35.5-26.7
	L159,309.8l6.6-43.2l33.5-15.9"/>
<path class="st1" d="M165.8,104.4c-20,13.7-89.9,66.2-117.9,147.8c0,0-32.5,46.9-41.2,66.1c0,0-5.8,15.2,5.4,18.1
	c0,0-3.7,35,58.1-21.5c0,0,62-6.1,130.4-58c0,0,45.7-26.8,68-73.2C229.7,171.1,197.9,141.3,165.8,104.4z"/>
<path class="st2" d="M264,17.1C258.6,12.2,252.1,8.7,245,7c-26.5,7.8-50.3,24.2-70.3,41.4c-4.6,13.1-6.6,30.1-3.4,52.2
	c0,0-2.1,1.3-5.6,3.7c32.2,36.9,63.9,66.7,102.7,79.3c11.8-24.6-1.1-51-12.6-85.4c-1.4-3.9-3.2-7.6-5.4-11.1
	c-4.2-6.7-4.5-26,12.5-32.1c-5.6-4.6-10.7-9.8-15.2-15.4c-5.3,6.5-12.8,11.3-26.1,9.2c13.3,2.1,20.8-2.6,26.1-9.2
	c-1.6-2-3.2-4-4.8-6.3c1.6,2.2,3.2,4.3,4.8,6.3C254.2,31.8,257.5,21.4,264,17.1z"/>
<path class="st3" d="M216.2,6.6c0,0-29.5,7.5-41.5,41.9c20-17.2,43.8-33.6,70.3-41.4C237.6,5.1,228.2,4.3,216.2,6.6z"/>
<path class="st4" d="M323.2,41.6c0,0-17.9-20.4-56.1-20.9c-0.9-1.3-2-2.4-3.1-3.5c-6.5,4.3-9.8,14.7-16.2,22.5
	c4.5,5.7,9.6,10.9,15.2,15.4c1.7-3.1,4.5-5.5,7.8-6.8C287.8,43.3,305.5,41.1,323.2,41.6z"/>
<path class="st5" d="M24.7,323.7c-2.1,0-3.7-1.7-3.7-3.7c0-0.9,0.3-1.8,1-2.5l20-22.3c1.3-1.6,3.7-1.8,5.3-0.4s1.8,3.7,0.4,5.3
	c0,0-0.1,0.1-0.1,0.1l-20,22.3C26.8,323.2,25.8,323.7,24.7,323.7z"/>
<path class="st6" d="M259.4,23.7c0,0-6.9,4.8-14.9,1.8c0,0-9.8-12-23.8-9c0,0-15.4,2.9-16.6,22.8c0,0,0.9,9.1,28.1,8.4
	c0,0,13.1-0.7,18.5-7.3"/>
<path class="st3" d="M189.8,21c0,0-23.9,31.9-65.7,39.4c0,0,22.7,11.7,49.8-8.1"/>
<path class="st5" d="M141.3,67.6c-11,0-18.3-3.6-18.8-3.9c-1.8-1-2.5-3.2-1.6-5.1c0.5-1,1.5-1.7,2.6-1.9c39.8-7.2,63.1-37.7,63.3-38
	c1.2-1.7,3.6-2,5.2-0.8c1.7,1.2,2,3.6,0.8,5.2c-0.9,1.2-19.6,25.7-52.7,36.9c8.2,0.2,19.4-1.9,31.7-10.8c1.8-1.1,4.1-0.5,5.1,1.3
	c0.9,1.5,0.6,3.5-0.7,4.7C163,65,150.8,67.6,141.3,67.6z"/>
<path class="st5" d="M20.3,352.2c-2.2,0-4.4-0.5-6.4-1.5c-4.7-2.4-6.5-7-7-11c-2.2-1.3-4-3.2-5.2-5.4c-3.8-7.3-0.3-16.9,0.1-18
	c0-0.1,0.1-0.2,0.1-0.3c8.3-18.5,37.3-60.6,41.3-66.3c9.6-27.8,30.5-69.7,75.1-112.9c14.6-14.3,30.5-27.3,47.5-38.8
	c-3-23.7-1.5-55.3,19.8-78.1C199.2,5.6,214.3,1.7,215,1.6l0.3-0.1c32.9-6.2,49.2,8.2,54.3,14.1c38.4,1.3,56.7,21.7,57.5,22.6
	c1.9,2.1,1.7,5.4-0.5,7.3c-1,0.9-2.3,1.3-3.6,1.3c-17-0.5-34,1.7-50.4,6.4c-3.1,1.4-5.1,3.4-5.9,6c-1.5,5,0.8,12.9,6.3,21.8
	c2.5,3.8,4.5,7.9,6,12.2c14.2,42.4,5.5,85-25.1,123.2c-14.2,17.6-31.3,32.8-50.4,44.9c-63.1,47.9-120.2,57.3-131,58.7
	C43.4,346,28.6,352.2,20.3,352.2z M11.4,320.2c-0.8,2.1-1.8,7-0.5,9.5c0.5,0.9,1.4,1.5,2.4,1.7c2.5,0.6,4.1,3,3.8,5.5
	c-0.1,0.7,0,4,1.5,4.7c1,0.5,10.5,3.7,48-30.5c0.8-0.8,1.9-1.2,3-1.3c0.6-0.1,61.5-6.7,127.8-57c0.2-0.1,0.3-0.2,0.5-0.3l0,0
	c18.2-11.6,34.4-26.1,48-42.8c28.6-35.8,36.4-73.9,23.2-113.3c-1.2-3.5-2.9-6.9-4.9-10c-5.1-8.2-10.5-20.1-7.4-30.3
	c1.7-5.5,5.8-9.8,11.8-12.5c0.2-0.1,0.3-0.1,0.5-0.2c12.8-3.7,25.9-6,39.2-6.8c-0.6-0.3-1.2-0.7-1.8-1c-7.9-4.3-21.1-9.5-39.5-9.7
	c-1.7,0-3.3-0.9-4.2-2.3c-0.5-0.7-12.7-17.9-45.4-11.9c-9.4,3.1-17.9,8.6-24.6,15.9c-15.4,16.7-20.9,41.1-16.3,72.4
	c0.3,2-0.6,4.1-2.4,5.1c-0.2,0.1-22.7,14.1-48.8,39.4c-23.9,23.2-56,61-72.6,109.3c-0.2,0.5-0.4,0.9-0.7,1.3
	C51.8,255.6,19.9,301.5,11.4,320.2L11.4,320.2z"/>
<path class="st5" d="M252.9,50.4c-1.1,0-2.1-0.5-2.8-1.3l-4.9-5.4c-0.8-0.9-1.1-2.2-0.8-3.4c1.7-5.9,4.9-11.2,9.2-15.5
	c1.5-1.4,3.9-1.4,5.3,0.1c1.4,1.5,1.4,3.9-0.1,5.3c-2.8,2.9-5,6.3-6.5,10.1l3.4,3.9c1.4,1.5,1.2,3.9-0.3,5.3
	C254.7,50.1,253.8,50.4,252.9,50.4L252.9,50.4z"/>
<circle class="st5" cx="224.6" cy="32.2" r="9.4"/>
<path class="st7" d="M191.3,123.4c0,0-3.7,7.1,6.5,29.2"/>
<path class="st5" d="M197.8,156.4c-1.5,0-2.8-0.8-3.4-2.2c-10.4-22.6-7.1-31.1-6.4-32.5l6.6,3.5c0-0.1,0.1-0.1,0.1-0.2
	c0,0.1-2.5,6.8,6.4,26.1c0.9,1.9,0.1,4.1-1.8,5c0,0,0,0-0.1,0C198.9,156.3,198.4,156.4,197.8,156.4z"/>
<path class="st7" d="M215.9,145.3c0,0,1.6,24.3,11.1,32.5"/>
<path class="st5" d="M227,181.6c-0.9,0-1.8-0.3-2.4-0.9c-4.6-3.9-8.1-11.1-10.3-21.4c-1-4.5-1.7-9.1-2.1-13.7
	c-0.1-2.1,1.4-3.8,3.5-4c2.1-0.1,3.8,1.4,4,3.5c0.4,6.3,3,24,9.8,29.9c1.6,1.4,1.7,3.7,0.4,5.3C229.1,181.1,228.1,181.6,227,181.6
	L227,181.6z"/>
<line class="st8" x1="86.7" y1="236.2" x2="71.3" y2="264.8"/>
<path class="st5" d="M71.3,268.6c-0.6,0-1.2-0.2-1.8-0.5c-1.8-1-2.5-3.2-1.5-5.1c0,0,0,0,0,0l15.4-28.6c1-1.8,3.3-2.5,5.1-1.5
	c1.8,1,2.5,3.3,1.5,5.1l-15.4,28.6C74,267.8,72.7,268.6,71.3,268.6z"/>
<line class="st8" x1="116" y1="240.9" x2="102.3" y2="265.6"/>
<path class="st5" d="M102.3,269.4c-0.6,0-1.3-0.2-1.8-0.5c-1.8-1-2.5-3.3-1.5-5.1c0,0,0,0,0,0l13.6-24.8c1-1.8,3.3-2.4,5.1-1.4
	c1.7,1,2.4,3.2,1.4,5l-13.7,24.8C104.9,268.6,103.6,269.4,102.3,269.4z"/>
<path class="st5" d="M92.8,293.1H92c-9.9-0.4-15.8-7.9-16-8.3c-1.3-1.6-0.9-4,0.7-5.2s4-0.9,5.2,0.7c0.1,0.1,4.1,5.1,10.4,5.3
	c5.5,0.2,11.4-3.1,17.5-9.9c0.9-1.2,2.4-1.6,3.8-1.1c1.4,0.2,21.7,2,74.7-48.8c1.6-1.4,3.9-1.2,5.3,0.4c1.3,1.5,1.2,3.6-0.1,5
	c-49.1,47-72.1,51.2-79.5,50.9C107.1,289.4,100,293.1,92.8,293.1z"/>
<path class="st5" d="M140,396.9c-2.1,0-3.7-1.7-3.7-3.7c0-0.2,0-0.3,0-0.5c2-17.8,23.7-24.9,32.8-27.2l-13.6-54.9
	c-0.1-0.3-0.1-0.7-0.1-1l0.9-25.2c0.1-2.1,1.8-3.7,3.9-3.6c2.1,0.1,3.7,1.8,3.6,3.9l-0.9,24.7l14.4,58.1c0.5,2-0.7,4-2.7,4.5
	c-0.1,0-0.2,0-0.3,0.1c-0.2,0-21,3.6-28.2,15c6.2-2,15.7-5,26.9-7.7c26-6.2,47.1-7.8,62.8-4.5c2,0.4,3.3,2.4,2.9,4.4
	c-0.4,2-2.4,3.3-4.4,2.9l0,0c-34.9-7.1-92.3,14.2-92.9,14.5C140.9,396.9,140.4,396.9,140,396.9z"/>
<path class="st5" d="M234.5,382.8c-1.9,0-3.4-1.4-3.7-3.2c-0.3-3.2-2.1-6.1-4.8-7.9c-9.3-6.2-29.4-2.8-36.3-0.9
	c-2,0.5-4-0.6-4.6-2.6l-16.2-57.7c-0.2-0.7-0.2-1.5,0.1-2.3l12.9-36.2c0.7-1.9,2.8-3,4.8-2.3c1.9,0.7,3,2.8,2.3,4.8l-12.5,35.1
	l15,53.2c8.1-1.7,27.6-4.7,38.8,2.8c4.5,2.9,7.5,7.7,8.1,13.1c0.3,2-1.1,3.9-3.2,4.2L234.5,382.8z"/>
<rect x="156.9" y="328.2" transform="matrix(0.978 -0.2084 0.2084 0.978 -66.9015 43.6325)" class="st9" width="33.3" height="22.1"/>
<path class="st5" d="M159.6,357.3c-1.8,0-3.3-1.3-3.7-3l-4.6-21.6c-0.4-2,0.9-4,2.9-4.4c0,0,0,0,0,0l32.6-7c2-0.4,4,0.9,4.4,2.9
	c0,0,0,0,0,0l4.6,21.6c0.4,2-0.8,4-2.8,4.4c0,0,0,0,0,0l-32.6,7C160.1,357.2,159.8,357.3,159.6,357.3z M159.4,334.9l3,14.2l25.3-5.4
	l-3-14.3L159.4,334.9z"/>
<line class="st8" x1="141.9" y1="164.7" x2="119.3" y2="189.1"/>
<path class="st10" d="M119.3,192.8c-2.1,0-3.7-1.7-3.7-3.7c0-1,0.4-1.9,1-2.6l22.6-24.4c1.4-1.5,3.8-1.6,5.3-0.2s1.6,3.8,0.2,5.3
	c0,0,0,0,0,0l-22.6,24.4C121.4,192.4,120.4,192.8,119.3,192.8z"/>
<line class="st8" x1="176.4" y1="163" x2="152.8" y2="185.2"/>
<path class="st10" d="M152.8,188.9c-2.1,0-3.7-1.7-3.7-3.8c0-1,0.4-2,1.2-2.7l23.6-22.2c1.5-1.4,3.9-1.3,5.3,0.2
	c1.4,1.5,1.3,3.9-0.2,5.3l0,0l-23.5,22.2C154.7,188.6,153.8,188.9,152.8,188.9z"/>
</svg>
