<svg id="圖層_1" data-name="圖層 1" xmlns="http://www.w3.org/2000/svg" viewBox="0 0 328.4 396.7"><title>bird</title><path d="M172.4,309.4l16.2,57.7c44.1-13.7,45.6,10.9,45.6,10.9l-32.5,2.7L138,395.1c.9-22.9,35.5-26.7,35.5-26.7L159,309.8l6.6-43.2,33.5-15.9" style="fill:#d6d6d6"/><path d="M165.8,104.4c-20,13.7-89.9,66.2-117.9,147.8,0,0-32.5,46.9-41.2,66.1,0,0-5.8,15.2,5.4,18.1,0,0-3.7,35,58.1-21.5,0,0,62-6.1,130.4-58,0,0,45.7-26.8,68-73.2C229.7,171.1,197.9,141.3,165.8,104.4Z" style="fill:#d6a17f"/><path d="M264,17.1A43.27,43.27,0,0,0,245,7c-26.5,7.8-50.3,24.2-70.3,41.4-4.6,13.1-6.6,30.1-3.4,52.2,0,0-2.1,1.3-5.6,3.7,32.2,36.9,63.9,66.7,102.7,79.3,11.8-24.6-1.1-51-12.6-85.4a57,57,0,0,0-5.4-11.1c-4.2-6.7-4.5-26,12.5-32.1a105.35,105.35,0,0,1-15.2-15.4c-5.3,6.5-12.8,11.3-26.1,9.2,13.3,2.1,20.8-2.6,26.1-9.2-1.6-2-3.2-4-4.8-6.3q2.4,3.3,4.8,6.3C254.2,31.8,257.5,21.4,264,17.1Z" style="fill:#e4bfa4"/><path d="M216.2,6.6s-29.5,7.5-41.5,41.9c20-17.2,43.8-33.6,70.3-41.4C237.6,5.1,228.2,4.3,216.2,6.6Z" style="fill:#2c88c9"/><path d="M323.2,41.6s-17.9-20.4-56.1-20.9a25.86,25.86,0,0,0-3.1-3.5c-6.5,4.3-9.8,14.7-16.2,22.5A96.29,96.29,0,0,0,263,55.1a15.27,15.27,0,0,1,7.8-6.8A168.82,168.82,0,0,1,323.2,41.6Z" style="fill:#b3b3b3"/><path d="M24.7,323.7A3.69,3.69,0,0,1,21,320a3.47,3.47,0,0,1,1-2.5l20-22.3a3.76,3.76,0,0,1,5.7,4.9l-.1.1-20,22.3A4.45,4.45,0,0,1,24.7,323.7Z" style="fill:#1a1a1a"/><path d="M259.4,23.7s-6.9,4.8-14.9,1.8c0,0-9.8-12-23.8-9,0,0-15.4,2.9-16.6,22.8,0,0,.9,9.1,28.1,8.4,0,0,13.1-.7,18.5-7.3" style="fill:#c2ddec"/><path d="M189.8,21s-23.9,31.9-65.7,39.4c0,0,22.7,11.7,49.8-8.1" style="fill:#2c88c9"/><path d="M141.3,67.6c-11,0-18.3-3.6-18.8-3.9a3.88,3.88,0,0,1-1.6-5.1,3.64,3.64,0,0,1,2.6-1.9c39.8-7.2,63.1-37.7,63.3-38a3.72,3.72,0,0,1,6,4.4c-.9,1.2-19.6,25.7-52.7,36.9,8.2.2,19.4-1.9,31.7-10.8a3.63,3.63,0,0,1,5.1,1.3,3.81,3.81,0,0,1-.7,4.7C163,65,150.8,67.6,141.3,67.6Z" style="fill:#1a1a1a"/><path d="M20.3,352.2a14.32,14.32,0,0,1-6.4-1.5c-4.7-2.4-6.5-7-7-11a14.18,14.18,0,0,1-5.2-5.4c-3.8-7.3-.3-16.9.1-18,0-.1.1-.2.1-.3,8.3-18.5,37.3-60.6,41.3-66.3,9.6-27.8,30.5-69.7,75.1-112.9A340.8,340.8,0,0,1,165.8,98c-3-23.7-1.5-55.3,19.8-78.1C199.2,5.6,214.3,1.7,215,1.6l.3-.1c32.9-6.2,49.2,8.2,54.3,14.1,38.4,1.3,56.7,21.7,57.5,22.6a5.12,5.12,0,0,1-.5,7.3,5.33,5.33,0,0,1-3.6,1.3,165.36,165.36,0,0,0-50.4,6.4c-3.1,1.4-5.1,3.4-5.9,6-1.5,5,.8,12.9,6.3,21.8a55.32,55.32,0,0,1,6,12.2c14.2,42.4,5.5,85-25.1,123.2a207.56,207.56,0,0,1-50.4,44.9c-63.1,47.9-120.2,57.3-131,58.7C43.4,346,28.6,352.2,20.3,352.2Zm-8.9-32c-.8,2.1-1.8,7-.5,9.5a3.51,3.51,0,0,0,2.4,1.7,5,5,0,0,1,3.8,5.5c-.1.7,0,4,1.5,4.7,1,.5,10.5,3.7,48-30.5a4.82,4.82,0,0,1,3-1.3c.6-.1,61.5-6.7,127.8-57,.2-.1.3-.2.5-.3h0a202,202,0,0,0,48-42.8c28.6-35.8,36.4-73.9,23.2-113.3a46.39,46.39,0,0,0-4.9-10c-5.1-8.2-10.5-20.1-7.4-30.3,1.7-5.5,5.8-9.8,11.8-12.5.2-.1.3-.1.5-.2a179.85,179.85,0,0,1,39.2-6.8c-.6-.3-1.2-.7-1.8-1-7.9-4.3-21.1-9.5-39.5-9.7a5,5,0,0,1-4.2-2.3c-.5-.7-12.7-17.9-45.4-11.9a58.21,58.21,0,0,0-24.6,15.9c-15.4,16.7-20.9,41.1-16.3,72.4a5,5,0,0,1-2.4,5.1c-.2.1-22.7,14.1-48.8,39.4-23.9,23.2-56,61-72.6,109.3a5.39,5.39,0,0,1-.7,1.3c-.2.5-32.1,46.4-40.6,65.1Z" style="fill:#1a1a1a"/><path d="M252.9,50.4a3.72,3.72,0,0,1-2.8-1.3l-4.9-5.4a3.78,3.78,0,0,1-.8-3.4,36.05,36.05,0,0,1,9.2-15.5,3.75,3.75,0,1,1,5.2,5.4,30.73,30.73,0,0,0-6.5,10.1l3.4,3.9a3.78,3.78,0,0,1-.3,5.3,3.84,3.84,0,0,1-2.5.9Z" style="fill:#1a1a1a"/><circle cx="224.6" cy="32.2" r="9.4" style="fill:#1a1a1a"/><path d="M191.3,123.4s-3.7,7.1,6.5,29.2" style="fill:#fff"/><path d="M197.8,156.4a3.6,3.6,0,0,1-3.4-2.2c-10.4-22.6-7.1-31.1-6.4-32.5l6.6,3.5c0-.1.1-.1.1-.2,0,.1-2.5,6.8,6.4,26.1a3.72,3.72,0,0,1-1.8,5h-.1A2.65,2.65,0,0,1,197.8,156.4Z" style="fill:#1a1a1a"/><path d="M215.9,145.3s1.6,24.3,11.1,32.5" style="fill:#fff"/><path d="M227,181.6a3.41,3.41,0,0,1-2.4-.9c-4.6-3.9-8.1-11.1-10.3-21.4a105.39,105.39,0,0,1-2.1-13.7,3.76,3.76,0,1,1,7.5-.5c.4,6.3,3,24,9.8,29.9a3.78,3.78,0,0,1,.4,5.3,4.11,4.11,0,0,1-2.9,1.3Z" style="fill:#1a1a1a"/><line x1="86.7" y1="236.2" x2="71.3" y2="264.8" style="fill:none"/><path d="M71.3,268.6a4.07,4.07,0,0,1-1.8-.5A3.75,3.75,0,0,1,68,263h0l15.4-28.6A3.76,3.76,0,1,1,90,238L74.6,266.6A3.71,3.71,0,0,1,71.3,268.6Z" style="fill:#1a1a1a"/><line x1="116" y1="240.9" x2="102.3" y2="265.6" style="fill:none"/><path d="M102.3,269.4a3.74,3.74,0,0,1-1.8-.5,3.78,3.78,0,0,1-1.5-5.1h0L112.6,239a3.72,3.72,0,0,1,6.5,3.6l-13.7,24.8A3.42,3.42,0,0,1,102.3,269.4Z" style="fill:#1a1a1a"/><path d="M92.8,293.1H92a22.21,22.21,0,0,1-16-8.3,3.68,3.68,0,0,1,.7-5.2,3.77,3.77,0,0,1,5.2.7c.1.1,4.1,5.1,10.4,5.3,5.5.2,11.4-3.1,17.5-9.9a3.28,3.28,0,0,1,3.8-1.1c1.4.2,21.7,2,74.7-48.8a3.75,3.75,0,0,1,5.2,5.4c-49.1,47-72.1,51.2-79.5,50.9C107.1,289.4,100,293.1,92.8,293.1Z" style="fill:#1a1a1a"/><path d="M140,396.9a3.69,3.69,0,0,1-3.7-3.7v-.5c2-17.8,23.7-24.9,32.8-27.2l-13.6-54.9a3.4,3.4,0,0,1-.1-1l.9-25.2a3.75,3.75,0,1,1,7.5.3l-.9,24.7,14.4,58.1a3.7,3.7,0,0,1-2.7,4.5.37.37,0,0,0-.3.1c-.2,0-21,3.6-28.2,15,6.2-2,15.7-5,26.9-7.7,26-6.2,47.1-7.8,62.8-4.5a3.73,3.73,0,1,1-1.5,7.3h0c-34.9-7.1-92.3,14.2-92.9,14.5A3.64,3.64,0,0,1,140,396.9Z" style="fill:#1a1a1a"/><path d="M234.5,382.8a3.76,3.76,0,0,1-3.7-3.2,10.77,10.77,0,0,0-4.8-7.9c-9.3-6.2-29.4-2.8-36.3-.9a3.79,3.79,0,0,1-4.6-2.6l-16.2-57.7a3.66,3.66,0,0,1,.1-2.3L181.9,272a3.76,3.76,0,0,1,7.1,2.5l-12.5,35.1,15,53.2c8.1-1.7,27.6-4.7,38.8,2.8a17.94,17.94,0,0,1,8.1,13.1,3.71,3.71,0,0,1-3.2,4.2Z" style="fill:#1a1a1a"/><rect x="156.88" y="328.2" width="33.3" height="22.1" transform="translate(-66.89 43.61) rotate(-12.03)" style="fill:#f29a4a"/><path d="M159.6,357.3a3.85,3.85,0,0,1-3.7-3l-4.6-21.6a3.75,3.75,0,0,1,2.9-4.4h0l32.6-7a3.75,3.75,0,0,1,4.4,2.9h0l4.6,21.6a3.68,3.68,0,0,1-2.8,4.4h0l-32.6,7C160.1,357.2,159.8,357.3,159.6,357.3Zm-.2-22.4,3,14.2,25.3-5.4-3-14.3Z" style="fill:#1a1a1a"/><line x1="141.9" y1="164.7" x2="119.3" y2="189.1" style="fill:none"/><path d="M119.3,192.8a3.69,3.69,0,0,1-3.7-3.7,4,4,0,0,1,1-2.6l22.6-24.4a3.75,3.75,0,1,1,5.5,5.1h0l-22.6,24.4A3.63,3.63,0,0,1,119.3,192.8Z" style="fill:#a77858"/><line x1="176.4" y1="163" x2="152.8" y2="185.2" style="fill:none"/><path d="M152.8,188.9a3.71,3.71,0,0,1-3.7-3.8,3.57,3.57,0,0,1,1.2-2.7l23.6-22.2a3.75,3.75,0,0,1,5.1,5.5h0l-23.5,22.2A3.94,3.94,0,0,1,152.8,188.9Z" style="fill:#a77858"/></svg>