<svg id="圖層_1" data-name="圖層 1" xmlns="http://www.w3.org/2000/svg" viewBox="0 0 188.4 226.9"><title>bird</title><path d="M98.6,176l9.1,33.1c25.3-7.7,28.5,10.3,28.5,10.3l-21-2.5-37.4,10c.6-13.1,21.3-17.2,21.3-17.2L91,176.2l3.9-24.7,19.2-9" style="fill:#d6d6d6"/><path d="M95.5,58.7C84,66.4,43.9,96.3,27.6,142.8c0,0-18.8,26.7-23.8,37.7,0,0-3.4,8.7,3,10.4,0,0-2.2,20,33.3-12.1,0,0,35.5-3.3,74.8-32.8,0,0,26.2-15.2,39.1-41.6C131.9,97,113.8,79.9,95.5,58.7Z" style="fill:#d6a17f"/><path d="M152,9.1a26,26,0,0,0-10.8-5.9C126,7.6,112.3,16.9,100.9,26.7c-2.7,7.5-3.9,17.2-2.1,29.9,0,0-1.2.8-3.2,2.1,18.3,21.2,36.4,38.4,58.5,45.7,6.8-14-.4-29.2-6.9-48.9a28.39,28.39,0,0,0-3.1-6.3c-2.4-3.9-2.5-14.9,7.2-18.3a51.77,51.77,0,0,1-8.6-8.9c-3.1,3.7-7.4,6.4-15,5.2,7.6,1.3,11.9-1.4,15-5.2-.9-1.2-1.8-2.3-2.7-3.6q1.35,1.95,2.7,3.6C146.3,17.5,148.2,11.5,152,9.1Z" style="fill:#e4bfa4"/><path d="M124.7,2.9s-16.9,4.2-23.9,23.8c11.5-9.8,25.2-19,40.3-23.5A37.8,37.8,0,0,0,124.7,2.9Z" style="fill:#2c88c9"/><path d="M185.8,23.3s-10.1-11.7-32-12.1a11.23,11.23,0,0,0-1.8-2c-3.7,2.4-5.7,8.4-9.3,12.8a55.65,55.65,0,0,0,8.6,8.9,9,9,0,0,1,4.5-3.9A94.69,94.69,0,0,1,185.8,23.3Z" style="fill:#b3b3b3"/><path d="M14.1,183.6a2.39,2.39,0,0,1-1.4-.5,2.05,2.05,0,0,1-.1-2.9l11.5-12.7a2.05,2.05,0,1,1,3,2.8L15.6,183A2,2,0,0,1,14.1,183.6Z" style="fill:#1a1a1a"/><path d="M149.3,12.9a9.82,9.82,0,0,1-8.5,1S135.2,7,127.2,8.7c0,0-8.8,1.6-9.6,13,0,0,.5,5.2,16,4.9,0,0,7.5-.4,10.6-4.1" style="fill:#c2ddec"/><path d="M109.5,11.1S95.7,29.3,71.8,33.4c0,0,12.9,6.8,28.5-4.5" style="fill:#2c88c9"/><path d="M81.8,37.5a24.28,24.28,0,0,1-10.9-2.3A2.15,2.15,0,0,1,69.8,33a1.92,1.92,0,0,1,1.7-1.7c22.8-4,36.2-21.4,36.4-21.6a2.07,2.07,0,0,1,3.3,2.5,66.78,66.78,0,0,1-30.6,21c4.8.2,11.3-.9,18.6-6.1a2.08,2.08,0,1,1,2.4,3.4C94.1,36,87.2,37.5,81.8,37.5Z" style="fill:#1a1a1a"/><path d="M11.6,200a7.46,7.46,0,0,1-3.7-.9,8,8,0,0,1-4-6.3A6.69,6.69,0,0,1,1,189.7c-2.1-4.2-.1-9.7.1-10.3,0-.1,0-.1.1-.2C6,168.7,22.7,144.7,25,141.4,42.7,91.5,86.4,61,95.6,55.1,90,8.8,123.7.1,124.1,0h.2c18.8-3.4,28.1,4.9,31,8.2,21.9.9,32.3,12.6,32.8,13.1a2.88,2.88,0,0,1,.4,3.2,3,3,0,0,1-2.8,1.7,97.06,97.06,0,0,0-28.9,3.5,5.69,5.69,0,0,0-3.4,3.4c-.9,2.9.4,7.4,3.5,12.5a29.2,29.2,0,0,1,3.3,6.9c8,24.3,2.9,48.7-14.8,70.4a117.58,117.58,0,0,1-29,25.5c-35.9,26.9-69,32.3-75.1,33.1C24.8,196.4,16.4,200,11.6,200Zm-5-18.4c-.4,1.2-1.1,4-.3,5.4a2.36,2.36,0,0,0,1.4,1,3.05,3.05,0,0,1,2.2,3.2c0,.4,0,2.3.8,2.7.6.3,6,2.1,27.5-17.3h0a3.37,3.37,0,0,1,1.7-.8c1.4-.1,35.6-3.9,73.3-32.2.1-.1.2-.1.3-.2a116.39,116.39,0,0,0,27.6-24.3c16.5-20.4,21.1-42.1,13.6-64.7a25.14,25.14,0,0,0-2.8-5.7c-2.9-4.7-6-11.5-4.2-17.4a11.35,11.35,0,0,1,6.8-7.1c.1-.1.2-.1.4-.1a99.94,99.94,0,0,1,22.3-3.7,10.91,10.91,0,0,0-1.1-.6,47.83,47.83,0,0,0-22.5-5.7,2.81,2.81,0,0,1-2.4-1.3c-.3-.4-7.2-10.3-25.9-7-2,.5-29.6,8.5-23.7,50.4a2.83,2.83,0,0,1-1.4,2.9c-.5.3-51.3,31.8-69.9,84.7a1.61,1.61,0,0,1-.4.7C29.9,144.8,11.5,171,6.6,181.6Z" style="fill:#1a1a1a"/><path d="M145.5,28a2.13,2.13,0,0,1-1.6-.7l-2.8-3.1a2,2,0,0,1-.4-2,20.9,20.9,0,0,1,5.2-8.7,2.05,2.05,0,0,1,2.9,2.9,16.17,16.17,0,0,0-3.8,5.9l2,2.2a2,2,0,0,1-.2,2.9A1.37,1.37,0,0,1,145.5,28Z" style="fill:#1a1a1a"/><circle cx="129.4" cy="17.6" r="5.4" style="fill:#1a1a1a"/><path d="M110.1,69.7s-2.1,4.1,3.6,16.7" style="fill:#fff"/><path d="M113.7,88.5a2.24,2.24,0,0,1-1.9-1.2c-5.9-12.9-4-17.7-3.6-18.6l3.7,1.9v-.1s-1.4,3.9,3.6,15a2,2,0,0,1-1,2.7A1.14,1.14,0,0,1,113.7,88.5Z" style="fill:#1a1a1a"/><path d="M124,82.3s.8,13.9,6.3,18.7" style="fill:#fff"/><path d="M130.3,103a2.39,2.39,0,0,1-1.4-.5c-5.9-5.2-6.9-18.6-7-20.1a2.06,2.06,0,1,1,4.1-.3c.2,3.6,1.6,13.8,5.5,17.2a2,2,0,0,1,.2,2.9A1.42,1.42,0,0,1,130.3,103Z" style="fill:#1a1a1a"/><path d="M41,152.2a1.93,1.93,0,0,1-1-.3,2,2,0,0,1-.8-2.8l8.9-16.3a2.06,2.06,0,1,1,3.6,2l-8.9,16.3A2.11,2.11,0,0,1,41,152.2Z" style="fill:#1a1a1a"/><path d="M58.7,152.8a1.93,1.93,0,0,1-1-.3,2.11,2.11,0,0,1-.8-2.8l7.3-12.9a2.06,2.06,0,0,1,3.6,2l-7.3,12.9A2.11,2.11,0,0,1,58.7,152.8Z" style="fill:#1a1a1a"/><path d="M53.2,166.3h-.5c-5.6-.3-8.9-4.6-9.1-4.7a2.07,2.07,0,0,1,3.3-2.5,8.44,8.44,0,0,0,6,3.1c3.2.1,6.6-1.8,10.1-5.6a2.2,2.2,0,0,1,2.2-.6s11.4,2.2,43-27.7a2.05,2.05,0,0,1,2.8,3c-28.4,26.8-41.5,29-45.6,28.9C61.3,164.3,57.3,166.3,53.2,166.3Z" style="fill:#1a1a1a"/><path d="M79.8,225.8h-.2a2.11,2.11,0,0,1-1.8-2.3c1.2-10.1,13.7-14.1,18.9-15.3L89,176.7c0-.2-.1-.4-.1-.6l.6-14.4a2.1,2.1,0,0,1,4.2.2L93.1,176l8.1,33.3a2.13,2.13,0,0,1-.3,1.6,1.94,1.94,0,0,1-1.4.9c-.2,0-16.5,2.8-17.6,12.2A2.23,2.23,0,0,1,79.8,225.8Z" style="fill:#1a1a1a"/><path d="M133.9,218.1a2,2,0,0,1-2-1.8,6.42,6.42,0,0,0-2.8-4.6c-5.3-3.6-16.8-1.7-20.8-.7a2.06,2.06,0,0,1-2.5-1.5l-9.1-33.1a2,2,0,0,1,.1-1.3l7.5-20.7a2.09,2.09,0,0,1,3.9,1.5l-7.3,20,8.4,30.5c4.6-.9,15.8-2.6,22.2,1.7a10.39,10.39,0,0,1,4.6,7.5,2,2,0,0,1-1.8,2.3C134.1,218.1,134,218.1,133.9,218.1Z" style="fill:#1a1a1a"/><rect x="89.7" y="186.79" width="19.1" height="12.6" transform="translate(-37.1 24.14) rotate(-11.7)" style="fill:#f29a4a"/><path d="M91.1,203.3A2,2,0,0,1,90,203a2,2,0,0,1-.9-1.3l-2.6-12.4a2.05,2.05,0,0,1,1.6-2.4l18.7-3.9a2.05,2.05,0,0,1,2.4,1.6l2.6,12.4a2.32,2.32,0,0,1-.3,1.6,2,2,0,0,1-1.3.9l-18.7,3.9C91.4,203.2,91.3,203.3,91.1,203.3ZM91,190.4l1.7,8.3,14.6-3-1.7-8.3Z" style="fill:#1a1a1a"/><path d="M68.7,109.1a2,2,0,0,1-1.4-.6,2.05,2.05,0,0,1-.1-2.9l13-13.9a2.05,2.05,0,0,1,3,2.8l-13,13.9A2.33,2.33,0,0,1,68.7,109.1Z" style="fill:#a77858"/><path d="M87.8,106.9a1.8,1.8,0,0,1-1.5-.7,2.05,2.05,0,0,1,.1-2.9L100,90.7a2.05,2.05,0,0,1,2.8,3L89.3,106.3A2,2,0,0,1,87.8,106.9Z" style="fill:#a77858"/></svg>