<?xml version="1.0" encoding="utf-8"?>
<!-- Generator: Adobe Illustrator 21.1.0, SVG Export Plug-In . SVG Version: 6.00 Build 0)  -->
<svg version="1.1" id="圖層_1" xmlns="http://www.w3.org/2000/svg" xmlns:xlink="http://www.w3.org/1999/xlink" x="0px" y="0px"
	 viewBox="0 0 188.4 226.9" style="enable-background:new 0 0 188.4 226.9;" xml:space="preserve">
<style type="text/css">
	.st0{fill:#D6D6D6;}
	.st1{fill:#D6A17F;}
	.st2{fill:#E4BFA4;}
	.st3{fill:#2C88C9;}
	.st4{fill:#B3B3B3;}
	.st5{fill:#1A1A1A;}
	.st6{fill:#C2DDEC;}
	.st7{fill:#FFFFFF;}
	.st8{fill:#F29A4A;}
	.st9{fill:#A77858;}
</style>
<title>互動設計UI</title>
<path class="st0" d="M98.6,176l9.1,33.1c25.3-7.7,28.5,10.3,28.5,10.3l-21-2.5l-37.4,10c0.6-13.1,21.3-17.2,21.3-17.2L91,176.2
	l3.9-24.7l19.2-9"/>
<path class="st1" d="M95.5,58.7C84,66.4,43.9,96.3,27.6,142.8c0,0-18.8,26.7-23.8,37.7c0,0-3.4,8.7,3,10.4c0,0-2.2,20,33.3-12.1
	c0,0,35.5-3.3,74.8-32.8c0,0,26.2-15.2,39.1-41.6C131.9,97,113.8,79.9,95.5,58.7z"/>
<path class="st2" d="M152,9.1c-3-2.8-6.8-4.8-10.8-5.9c-15.2,4.4-28.9,13.7-40.3,23.5c-2.7,7.5-3.9,17.2-2.1,29.9
	c0,0-1.2,0.8-3.2,2.1c18.3,21.2,36.4,38.4,58.5,45.7c6.8-14-0.4-29.2-6.9-48.9c-0.8-2.2-1.8-4.4-3.1-6.3c-2.4-3.9-2.5-14.9,7.2-18.3
	c-3.2-2.6-6.1-5.6-8.6-8.9c-3.1,3.7-7.4,6.4-15,5.2c7.6,1.3,11.9-1.4,15-5.2c-0.9-1.2-1.8-2.3-2.7-3.6c0.9,1.3,1.8,2.5,2.7,3.6
	C146.3,17.5,148.2,11.5,152,9.1z"/>
<path class="st3" d="M124.7,2.9c0,0-16.9,4.2-23.9,23.8c11.5-9.8,25.2-19,40.3-23.5C135.8,1.9,130.1,1.8,124.7,2.9z"/>
<path class="st4" d="M185.8,23.3c0,0-10.1-11.7-32-12.1c-0.5-0.7-1.1-1.4-1.8-2c-3.7,2.4-5.7,8.4-9.3,12.8c2.5,3.3,5.4,6.2,8.6,8.9
	c1-1.8,2.6-3.1,4.5-3.9C165.5,24.2,175.6,22.9,185.8,23.3z"/>
<path class="st5" d="M14.1,183.6c-0.5,0-1-0.2-1.4-0.5c-0.8-0.8-0.9-2.1-0.1-2.9l11.5-12.7c0.8-0.8,2.1-0.9,2.9-0.1
	c0.8,0.8,0.9,2.1,0.1,2.9l-11.5,12.7C15.2,183.4,14.7,183.6,14.1,183.6z"/>
<path class="st6" d="M149.3,12.9c-2.5,1.6-5.7,2-8.5,1c0,0-5.6-6.9-13.6-5.2c0,0-8.8,1.6-9.6,13c0,0,0.5,5.2,16,4.9
	c0,0,7.5-0.4,10.6-4.1"/>
<g>
	<path class="st3" d="M109.5,11.1c0,0-13.8,18.2-37.7,22.3c0,0,12.9,6.8,28.5-4.5"/>
	<path class="st5" d="M81.8,37.5c-6.4,0-10.6-2.1-10.9-2.3c-0.8-0.4-1.2-1.3-1.1-2.2c0.1-0.9,0.8-1.6,1.7-1.7
		c22.8-4,36.2-21.4,36.4-21.6c0.7-0.9,2-1.1,2.9-0.4s1.1,2,0.4,2.9c-0.5,0.7-11.4,14.8-30.6,21c4.8,0.2,11.3-0.9,18.6-6.1
		c0.9-0.7,2.2-0.5,2.9,0.5c0.7,0.9,0.5,2.2-0.5,2.9C94.1,36,87.2,37.5,81.8,37.5z"/>
</g>
<path class="st5" d="M11.6,200c-1.6,0-2.8-0.4-3.7-0.9c-2.7-1.4-3.7-4.1-4-6.3c-1.3-0.7-2.3-1.8-2.9-3.1c-2.1-4.2-0.1-9.7,0.1-10.3
	c0-0.1,0-0.1,0.1-0.2C6,168.7,22.7,144.7,25,141.4c17.7-49.9,61.4-80.4,70.6-86.3C90,8.8,123.7,0.1,124.1,0c0.1,0,0.1,0,0.2,0
	c18.8-3.4,28.1,4.9,31,8.2c21.9,0.9,32.3,12.6,32.8,13.1c0.8,0.9,0.9,2.1,0.4,3.2s-1.6,1.7-2.8,1.7c-9.8-0.3-19.5,0.9-28.9,3.5
	c-1.8,0.8-2.9,1.9-3.4,3.4c-0.9,2.9,0.4,7.4,3.5,12.5c1.4,2.1,2.5,4.5,3.3,6.9c8,24.3,2.9,48.7-14.8,70.4
	c-12.6,15.6-27.2,24.4-29,25.5c-35.9,26.9-69,32.3-75.1,33.1C24.8,196.4,16.4,200,11.6,200z M6.6,181.6c-0.4,1.2-1.1,4-0.3,5.4
	c0.2,0.3,0.5,0.7,1.4,1c1.4,0.4,2.3,1.7,2.2,3.2c0,0.4,0,2.3,0.8,2.7c0.6,0.3,6,2.1,27.5-17.3l0,0c0.5-0.4,1-0.7,1.7-0.8
	c1.4-0.1,35.6-3.9,73.3-32.2c0.1-0.1,0.2-0.1,0.3-0.2c0.1-0.1,15.1-8.9,27.6-24.3c16.5-20.4,21.1-42.1,13.6-64.7
	c-0.7-2-1.6-3.9-2.8-5.7c-2.9-4.7-6-11.5-4.2-17.4c1-3.2,3.3-5.6,6.8-7.1c0.1-0.1,0.2-0.1,0.4-0.1c7.3-2.1,14.8-3.3,22.3-3.7
	c-0.3-0.2-0.7-0.4-1.1-0.6c-4.5-2.5-12-5.5-22.5-5.7c-1,0-1.9-0.5-2.4-1.3c-0.3-0.4-7.2-10.3-25.9-7c-2,0.5-29.6,8.5-23.7,50.4
	c0.2,1.2-0.4,2.3-1.4,2.9c-0.5,0.3-51.3,31.8-69.9,84.7c-0.1,0.3-0.2,0.5-0.4,0.7C29.9,144.8,11.5,171,6.6,181.6z"/>
<path class="st5" d="M145.5,28c-0.6,0-1.1-0.2-1.6-0.7l-2.8-3.1c-0.5-0.5-0.6-1.3-0.4-2c1-3.3,2.8-6.3,5.2-8.7
	c0.8-0.8,2.1-0.8,2.9,0c0.8,0.8,0.8,2.1,0,2.9c-1.7,1.7-3,3.7-3.8,5.9l2,2.2c0.8,0.9,0.7,2.2-0.2,2.9C146.5,27.9,146,28,145.5,28z"
	/>
<circle class="st5" cx="129.4" cy="17.6" r="5.4"/>
<g>
	<path class="st7" d="M110.1,69.7c0,0-2.1,4.1,3.6,16.7"/>
	<path class="st5" d="M113.7,88.5c-0.8,0-1.5-0.5-1.9-1.2c-5.9-12.9-4-17.7-3.6-18.6l3.7,1.9c0,0,0,0,0-0.1c0,0-1.4,3.9,3.6,15
		c0.5,1,0,2.3-1,2.7C114.3,88.4,114,88.5,113.7,88.5z"/>
</g>
<g>
	<path class="st7" d="M124,82.3c0,0,0.8,13.9,6.3,18.7"/>
	<path class="st5" d="M130.3,103c-0.5,0-1-0.2-1.4-0.5c-5.9-5.2-6.9-18.6-7-20.1c-0.1-1.1,0.8-2.1,1.9-2.2c1.1-0.1,2.1,0.8,2.2,1.9
		c0.2,3.6,1.6,13.8,5.5,17.2c0.9,0.8,1,2.1,0.2,2.9C131.4,102.8,130.9,103,130.3,103z"/>
</g>
<path class="st5" d="M41,152.2c-0.3,0-0.7-0.1-1-0.3c-1-0.5-1.4-1.8-0.8-2.8l8.9-16.3c0.5-1,1.8-1.4,2.8-0.8c1,0.5,1.4,1.8,0.8,2.8
	l-8.9,16.3C42.4,151.8,41.7,152.2,41,152.2z"/>
<path class="st5" d="M58.7,152.8c-0.3,0-0.7-0.1-1-0.3c-1-0.6-1.3-1.8-0.8-2.8l7.3-12.9c0.6-1,1.8-1.3,2.8-0.8
	c1,0.6,1.3,1.8,0.8,2.8l-7.3,12.9C60.1,152.4,59.4,152.8,58.7,152.8z"/>
<path class="st5" d="M53.2,166.3c-0.2,0-0.4,0-0.5,0c-5.6-0.3-8.9-4.6-9.1-4.7c-0.7-0.9-0.5-2.2,0.4-2.9c0.9-0.7,2.2-0.5,2.9,0.4
	c0,0.1,2.4,3,6,3.1c3.2,0.1,6.6-1.8,10.1-5.6c0.5-0.6,1.4-0.8,2.2-0.6c0,0,11.4,2.2,43-27.7c0.8-0.8,2.1-0.7,2.9,0.1
	c0.8,0.8,0.7,2.1-0.1,2.9c-28.4,26.8-41.5,29-45.6,28.9C61.3,164.3,57.3,166.3,53.2,166.3z"/>
<path class="st5" d="M79.8,225.8c-0.1,0-0.2,0-0.2,0c-1.1-0.1-1.9-1.2-1.8-2.3c1.2-10.1,13.7-14.1,18.9-15.3L89,176.7
	c0-0.2-0.1-0.4-0.1-0.6l0.6-14.4c0-1.1,1-2,2.2-2c1.1,0,2,1,2,2.2L93.1,176l8.1,33.3c0.1,0.6,0,1.2-0.3,1.6
	c-0.3,0.5-0.8,0.8-1.4,0.9c-0.2,0-16.5,2.8-17.6,12.2C81.7,225,80.8,225.8,79.8,225.8z"/>
<path class="st5" d="M133.9,218.1c-1,0-1.9-0.8-2-1.8c-0.3-2-1.2-3.5-2.8-4.6c-5.3-3.6-16.8-1.7-20.8-0.7c-1.1,0.3-2.2-0.4-2.5-1.5
	l-9.1-33.1c-0.1-0.4-0.1-0.9,0.1-1.3l7.5-20.7c0.4-1.1,1.6-1.6,2.7-1.2c1.1,0.4,1.6,1.6,1.2,2.7l-7.3,20l8.4,30.5
	c4.6-0.9,15.8-2.6,22.2,1.7c2.6,1.8,4.2,4.3,4.6,7.5c0.2,1.1-0.6,2.2-1.8,2.3C134.1,218.1,134,218.1,133.9,218.1z"/>
<g>
	
		<rect x="89.7" y="186.8" transform="matrix(0.9792 -0.2028 0.2028 0.9792 -37.092 24.1295)" class="st8" width="19.1" height="12.6"/>
	<path class="st5" d="M91.1,203.3c-0.4,0-0.8-0.1-1.1-0.3c-0.5-0.3-0.8-0.8-0.9-1.3l-2.6-12.4c-0.2-1.1,0.5-2.2,1.6-2.4l18.7-3.9
		c1.1-0.2,2.2,0.5,2.4,1.6l2.6,12.4c0.1,0.5,0,1.1-0.3,1.6c-0.3,0.5-0.8,0.8-1.3,0.9l-18.7,3.9C91.4,203.2,91.3,203.3,91.1,203.3z
		 M91,190.4l1.7,8.3l14.6-3l-1.7-8.3L91,190.4z"/>
</g>
<path class="st9" d="M68.7,109.1c-0.5,0-1-0.2-1.4-0.6c-0.8-0.8-0.9-2.1-0.1-2.9l13-13.9c0.8-0.8,2.1-0.9,2.9-0.1
	c0.8,0.8,0.9,2.1,0.1,2.9l-13,13.9C69.8,108.8,69.2,109.1,68.7,109.1z"/>
<path class="st9" d="M87.8,106.9c-0.6,0-1.1-0.2-1.5-0.7c-0.8-0.8-0.7-2.1,0.1-2.9L100,90.7c0.8-0.8,2.1-0.7,2.9,0.1
	c0.8,0.8,0.7,2.1-0.1,2.9l-13.5,12.6C88.8,106.8,88.3,106.9,87.8,106.9z"/>
</svg>
