<svg id="圖層_1" data-name="圖層 1" xmlns="http://www.w3.org/2000/svg" viewBox="0 0 188.4 227.6"><title>bird</title><path d="M89.8,176.7l-9.1,33C55.4,202,52.2,220,52.2,220l21-2.5,37.4,10c-.6-13.1-21.3-17.2-21.3-17.2l8.1-33.6-3.9-24.5-19.2-9" style="fill:#d6d6d6"/><path d="M92.9,59.3c11.5,7.8,51.6,37.6,67.9,84.1,0,0,18.8,26.7,23.8,37.7,0,0,3.4,8.7-3,10.4,0,0,2.2,20-33.3-12.1,0,0-35.5-3.3-74.8-32.8,0,0-26.2-15.2-39.1-41.6C56.5,97.7,74.6,80.6,92.9,59.3Z" style="fill:#d6a17f"/><path d="M36.4,9.8A26,26,0,0,1,47.2,3.9C62.4,8.3,76.1,17.6,87.5,27.4c2.7,7.5,3.9,17.2,2.1,29.9,0,0,1.2.8,3.2,2.1C74.6,80.6,56.5,97.7,34.4,105c-6.8-14,.4-29.2,6.9-48.9a28.39,28.39,0,0,1,3.1-6.3c2.4-3.9,2.5-14.9-7.2-18.3a51.77,51.77,0,0,0,8.6-8.9c3.1,3.7,7.4,6.4,15,5.2-7.6,1.2-11.9-1.4-15-5.2q1.35-1.65,2.7-3.6-1.35,1.95-2.7,3.6C42.1,18.2,40.2,12.2,36.4,9.8Z" style="fill:#e4bfa4"/><path d="M63.7,3.6S80.6,7.8,87.6,27.4C76.1,17.6,62.4,8.4,47.3,3.9A37.8,37.8,0,0,1,63.7,3.6Z" style="fill:#2c88c9"/><path d="M2.6,23.9s10.1-11.7,32-12.1a11.23,11.23,0,0,1,1.8-2c3.7,2.4,5.7,8.3,9.3,12.8a51.77,51.77,0,0,1-8.6,8.9,9,9,0,0,0-4.5-3.9A98,98,0,0,0,2.6,23.9Z" style="fill:#b3b3b3"/><path d="M174.3,184.3a1.8,1.8,0,0,1-1.5-.7l-11.6-12.7a2.05,2.05,0,0,1,3-2.8l11.6,12.7a2.05,2.05,0,0,1-.1,2.9A2,2,0,0,1,174.3,184.3Z" style="fill:#1a1a1a"/><path d="M39.1,13.5a9.82,9.82,0,0,0,8.5,1s5.6-6.9,13.6-5.2c0,0,8.8,1.6,9.6,13,0,0-.5,5.2-16,4.9,0,0-7.5-.4-10.6-4.1" style="fill:#c2ddec"/><path d="M78.8,11.7S92.6,29.9,116.5,34c0,0-12.9,6.8-28.5-4.4" style="fill:#2c88c9"/><path d="M106.5,38.2c-5.4,0-12.3-1.5-19.7-6.9a2.08,2.08,0,1,1,2.4-3.4c7.3,5.2,13.8,6.3,18.6,6.1A66.78,66.78,0,0,1,77.2,13a2.07,2.07,0,0,1,3.3-2.5c.2.3,13.7,17.6,36.4,21.5a1.92,1.92,0,0,1,1.7,1.7,2.23,2.23,0,0,1-1.1,2.2A27.24,27.24,0,0,1,106.5,38.2Z" style="fill:#1a1a1a"/><path d="M176.8,200.9c-4.8,0-13.2-3.5-29.9-18.5-11.8-1.8-42.3-8.6-75.1-33.2a117.05,117.05,0,0,1-29-25.5C25.2,102,20.1,77.6,28.1,53.3a30.44,30.44,0,0,1,3.4-7c3.1-5.1,4.4-9.6,3.5-12.4a5.79,5.79,0,0,0-3.3-3.4A96.27,96.27,0,0,0,2.8,27,3,3,0,0,1,0,25.3a3.08,3.08,0,0,1,.4-3.2C.9,21.6,11.2,9.9,33.2,9,36.1,5.6,45.4-2.7,64.2.8h.2c.3.1,34,8.9,28.5,55.1,9.2,6,52.9,36.5,70.6,86.3,2.3,3.3,19,27.3,23.8,37.8a.1.1,0,0,0,.1.1c.2.6,2.3,6.1.1,10.3a7.47,7.47,0,0,1-3,3.1,8,8,0,0,1-4,6.3A6,6,0,0,1,176.8,200.9Zm-26.6-23.5c21.6,19.5,27,17.6,27.5,17.3.8-.4.9-2.2.8-2.7a3,3,0,0,1,2.2-3.2,1.78,1.78,0,0,0,1.4-1c.7-1.5.1-4.3-.3-5.4-4.9-10.7-23.3-36.9-23.5-37.1a2.51,2.51,0,0,1-.4-.7C139.5,91.8,88.6,60.3,88.1,60a2.91,2.91,0,0,1-1.4-2.9C92.6,15.2,65.1,7.2,63,6.6c-19-3.4-25.8,6.8-25.9,6.9a3.16,3.16,0,0,1-2.4,1.4,48.31,48.31,0,0,0-22.6,5.7c-.4.2-.7.4-1.1.6a99.86,99.86,0,0,1,22.4,3.7c.1,0,.2.1.4.1a11.59,11.59,0,0,1,6.8,7.1c1.8,5.8-1.2,12.7-4.2,17.4a.1.1,0,0,1-.1.1,29.11,29.11,0,0,0-2.8,5.6c-7.4,22.5-2.8,44.3,13.7,64.6a116.39,116.39,0,0,0,27.6,24.3c.1.1.2.1.3.2,31.9,24,61.5,30.5,72.7,32.2a5.47,5.47,0,0,1,2.4.9Zm-4.9,2.3a3,3,0,0,0,1.1,2.3l-.1-.1A3.21,3.21,0,0,1,145.3,179.7Zm0-.1Zm5.9,0Z" style="fill:#1a1a1a"/><path d="M42.9,28.7a2.39,2.39,0,0,1-1.4-.5,2.05,2.05,0,0,1-.1-2.9l2-2.2a19.27,19.27,0,0,0-3.8-5.9,2.05,2.05,0,0,1,2.9-2.9A20.9,20.9,0,0,1,47.7,23a2.33,2.33,0,0,1-.4,2l-2.9,3A1.93,1.93,0,0,1,42.9,28.7Z" style="fill:#1a1a1a"/><circle cx="59" cy="18.3" r="5.4" style="fill:#1a1a1a"/><path d="M78.3,70.3s2.2,4.1-3.6,16.7" style="fill:#fff"/><path d="M74.7,89.1a2.92,2.92,0,0,1-.9-.2,2,2,0,0,1-1-2.7c5.1-11,3.6-14.9,3.6-15v.1l3.6-2c.4.8,2.4,5.7-3.5,18.5A1.8,1.8,0,0,1,74.7,89.1Z" style="fill:#1a1a1a"/><path d="M64.4,82.9s-.8,13.9-6.2,18.7" style="fill:#fff"/><path d="M58.2,103.7a1.8,1.8,0,0,1-1.5-.7,2,2,0,0,1,.2-2.9c3.9-3.5,5.3-13.6,5.5-17.3a2.1,2.1,0,0,1,2.2-1.9,2,2,0,0,1,1.9,2.2c-.1,1.5-1,14.9-6.9,20.1A2.65,2.65,0,0,1,58.2,103.7Z" style="fill:#1a1a1a"/><path d="M147.4,152.9a2.11,2.11,0,0,1-1.8-1.1l-8.9-16.3a2.06,2.06,0,1,1,3.6-2l8.9,16.3a2.09,2.09,0,0,1-.8,2.8A2.24,2.24,0,0,1,147.4,152.9Z" style="fill:#1a1a1a"/><path d="M129.7,153.5a2.11,2.11,0,0,1-1.8-1.1l-7.2-12.9a2.06,2.06,0,1,1,3.6-2l7.2,12.9a2,2,0,0,1-.8,2.8A1.93,1.93,0,0,1,129.7,153.5Z" style="fill:#1a1a1a"/><path d="M135.1,167c-4,0-8.1-2.1-12.1-6.2-4.1.2-17.3-2-45.6-28.9a2.05,2.05,0,0,1,2.8-3c31.6,29.9,42.9,27.7,43,27.7a2.08,2.08,0,0,1,2.1.6c3.6,3.9,7,5.8,10.1,5.7a9,9,0,0,0,6-3.1,2.07,2.07,0,1,1,3.3,2.5,12.67,12.67,0,0,1-9,4.8A1.27,1.27,0,0,0,135.1,167Z" style="fill:#1a1a1a"/><path d="M108.6,226.5a2.23,2.23,0,0,1-2.1-1.8c-1.1-9.4-17.4-12.2-17.6-12.2a1.94,1.94,0,0,1-1.4-.9,2.32,2.32,0,0,1-.3-1.6l8-33.3-.6-14.1a2.1,2.1,0,1,1,4.2-.2l.6,14.4a1.27,1.27,0,0,1-.1.6l-7.6,31.5c5.2,1.2,17.7,5.2,18.8,15.4a2.11,2.11,0,0,1-1.8,2.3A.1.1,0,0,0,108.6,226.5Z" style="fill:#1a1a1a"/><path d="M54.5,218.8h-.3a2.18,2.18,0,0,1-1.8-2.3A10.39,10.39,0,0,1,57,209c6.4-4.3,17.6-2.6,22.2-1.7l8.4-30.6-7.3-20a2.09,2.09,0,0,1,3.9-1.5l7.5,20.6a2.77,2.77,0,0,1,.1,1.3l-9.1,33.1a2.14,2.14,0,0,1-2.5,1.5c-4-1-15.5-2.9-20.8.7a6.42,6.42,0,0,0-2.8,4.6A2.13,2.13,0,0,1,54.5,218.8Z" style="fill:#1a1a1a"/><rect x="82.85" y="184.19" width="12.6" height="19.1" transform="translate(-118.64 241.74) rotate(-78.3)" style="fill:#f29a4a"/><path d="M97.2,203.9h-.4L78.1,200a2,2,0,0,1-1.3-.9,2.22,2.22,0,0,1-.3-1.6l2.6-12.3a2.05,2.05,0,0,1,2.4-1.6l18.7,3.9a2.05,2.05,0,0,1,1.6,2.4l-2.6,12.3a2,2,0,0,1-.9,1.3A1.5,1.5,0,0,1,97.2,203.9ZM81,196.4l14.6,3,1.7-8.3-14.6-3Z" style="fill:#1a1a1a"/><path d="M119.7,109.8a1.8,1.8,0,0,1-1.5-.7L105.3,95.2a2.05,2.05,0,0,1,3-2.8l12.9,13.9a2.05,2.05,0,0,1-.1,2.9A2,2,0,0,1,119.7,109.8Z" style="fill:#a77858"/><path d="M100.6,107.6a2,2,0,0,1-1.4-.6L85.6,94.5a2.05,2.05,0,0,1,2.8-3L102,104a2.05,2.05,0,0,1,.1,2.9A1.93,1.93,0,0,1,100.6,107.6Z" style="fill:#a77858"/></svg>