<svg id="圖層_1" data-name="圖層 1" xmlns="http://www.w3.org/2000/svg" viewBox="0 0 1080 219.3"><title>branch</title><polygon points="332.9 0 262 60.4 181.7 67.6 158.5 0 145.8 0 158.4 74.9 108.2 83.9 0 152.8 0 198.7 127.9 103.7 264.5 78.7 352.4 0 332.9 0" style="fill:#ccb399"/><path d="M360.7,0,273.9,84.7l-132.8,27a6.12,6.12,0,0,0-1.2.5L0,211.7v7.6L142.9,117.6,276,90.6a2.75,2.75,0,0,0,1.5-.8L369.5,0Z" style="fill:#1a1a1a"/><path d="M170.2,0h-6.4l20.7,79.3a3.09,3.09,0,0,0,3,2.3,2.2,2.2,0,0,0,.8-.1,3.09,3.09,0,0,0,2.2-3.7h0Z" style="fill:#1a1a1a"/><path d="M330.4,0,260.7,57.4l-73.6,8.7a3,3,0,0,0-2.6,3.5,3.2,3.2,0,0,0,3,2.7h.4l74.5-8.8a3.29,3.29,0,0,0,1.6-.7L340.1,0Z" style="fill:#1a1a1a"/><path d="M161.4,74.3a3.08,3.08,0,0,0-3.6-2.5h0l-50.1,9.1a3.08,3.08,0,0,0-1.2.5L0,152.3v7.4L109.4,86.8l49.5-9A3,3,0,0,0,161.4,74.3Z" style="fill:#1a1a1a"/><path d="M149.5,0h-6.2l14,85.3a3,3,0,0,0,3,2.6.9.9,0,0,0,.5-.1,3,3,0,0,0,2.5-3.5h0Z" style="fill:#1a1a1a"/><path d="M138.3,120s34.1-4.1,55.6,47.5c0,0-27.8,5.6-49.6-18.1,0,0-16.7-23.1-6.6-31.7" style="fill:#c2da74"/><path d="M193,170.9c-9.9,0-29.5-1.7-43.8-13.9-10-8.5-15.5-20.6-16.4-36a2.22,2.22,0,0,1,1-2c.6-.4,13.9-9.7,30.1-4.2,16,5.5,28.5,23.3,37.2,52.8a2.32,2.32,0,0,1-1.5,2.9,4.33,4.33,0,0,1-.5.1A38.58,38.58,0,0,1,193,170.9Zm-55.4-48.8c1,13.4,6,23.9,14.6,31.4,14.6,12.4,36.1,13,43.7,12.7-8.2-26.3-19.4-42.1-33.4-47-11.5-3.9-21.7,1.1-24.9,2.9Z" style="fill:#1a1a1a"/><path d="M179,156.6a2.14,2.14,0,0,1-1.9-1.1c-16.1-25.1-42.2-32.3-42.5-32.3a2.32,2.32,0,0,1-1.5-2.9,2.44,2.44,0,0,1,2.7-1.6c1.1.3,28,7.7,45.2,34.3a2.29,2.29,0,0,1-.7,3.2,3.26,3.26,0,0,1-1.3.4Z" style="fill:#1a1a1a"/><polygon points="1001.1 83.9 946.5 75.3 918.2 0 900.6 0 927.7 67.6 847.3 60.4 739 0 718.2 0 844.9 78.7 981.5 103.7 1080 176.9 1080 134.1 1001.1 83.9" style="fill:#ccb399"/><path d="M969.5,112.2a2.19,2.19,0,0,0-1.2-.5l-133.1-27L714.3,0H703.6L832.2,90.1a3.34,3.34,0,0,0,1.2.5l133.1,27.1,113.6,80.8v-7.6Z" style="fill:#1a1a1a"/><path d="M902.3,0h-6.4l23,79.4a3.12,3.12,0,0,0,3,2.2,2.77,2.77,0,0,0,.9-.1,3.1,3.1,0,0,0,2.1-3.8Z" style="fill:#1a1a1a"/><path d="M916.6,66.2l-68.3-8.8L747.7,0H735.3L845.8,63a3.58,3.58,0,0,0,1.1.4l68.9,8.9h.4a3,3,0,0,0,3-3.1,2.87,2.87,0,0,0-2.6-3Z" style="fill:#1a1a1a"/><path d="M1002.8,81.4a3.7,3.7,0,0,0-1.1-.5L948.3,70.7a3.07,3.07,0,0,0-1.7,5.9,1.27,1.27,0,0,0,.6.1L1000,86.8l80.1,53.4v-7.4Z" style="fill:#1a1a1a"/><path d="M920.1,0h-6.6l32.6,85.9a3.14,3.14,0,0,0,2.9,2,4.25,4.25,0,0,0,1.1-.2,3.11,3.11,0,0,0,1.8-4h0Z" style="fill:#1a1a1a"/></svg>