<?xml version="1.0" encoding="utf-8"?>
<!-- Generator: Adobe Illustrator 21.1.0, SVG Export Plug-In . SVG Version: 6.00 Build 0)  -->
<svg version="1.1" id="圖層_1" xmlns="http://www.w3.org/2000/svg" xmlns:xlink="http://www.w3.org/1999/xlink" x="0px" y="0px"
	 viewBox="0 0 1080 219.3" style="enable-background:new 0 0 1080 219.3;" xml:space="preserve">
<style type="text/css">
	.st0{fill:#CCB399;}
	.st1{fill:#1A1A1A;}
	.st2{fill:#C2DA74;}
</style>
<title>互動設計UI</title>
<polygon class="st0" points="332.9,0 262,60.4 181.7,67.6 158.5,0 145.8,0 158.4,74.9 108.2,83.9 0,152.8 0,198.7 127.9,103.7 
	264.5,78.7 352.4,0 "/>
<path class="st1" d="M360.7,0l-86.8,84.7l-132.8,27c-0.4,0.1-0.8,0.3-1.2,0.5L0,211.7v7.6l142.9-101.7L276,90.6
	c0.6-0.1,1.1-0.4,1.5-0.8l92-89.8H360.7z"/>
<path class="st1" d="M170.2,0h-6.4l20.7,79.3c0.4,1.4,1.6,2.3,3,2.3c0.3,0,0.5,0,0.8-0.1c1.6-0.4,2.6-2.1,2.2-3.7c0,0,0,0,0,0
	L170.2,0z"/>
<path class="st1" d="M330.4,0l-69.7,57.4l-73.6,8.7c-1.7,0.2-2.9,1.8-2.6,3.5c0.2,1.5,1.5,2.6,3,2.7c0.1,0,0.2,0,0.4,0l74.5-8.8
	c0.6-0.1,1.1-0.3,1.6-0.7L340.1,0H330.4z"/>
<path class="st1" d="M161.4,74.3c-0.3-1.7-1.9-2.8-3.6-2.5c0,0,0,0,0,0l-50.1,9.1c-0.4,0.1-0.8,0.2-1.2,0.5L0,152.3v7.4l109.4-72.9
	l49.5-9C160.6,77.5,161.7,76,161.4,74.3z"/>
<path class="st1" d="M149.5,0h-6.2l14,85.3c0.2,1.5,1.5,2.6,3,2.6c0.2,0,0.3,0,0.5-0.1c1.7-0.3,2.8-1.8,2.5-3.5c0,0,0,0,0,0L149.5,0
	z"/>
<path class="st2" d="M138.3,120c0,0,34.1-4.1,55.6,47.5c0,0-27.8,5.6-49.6-18.1c0,0-16.7-23.1-6.6-31.7"/>
<path class="st1" d="M193,170.9c-9.9,0-29.5-1.7-43.8-13.9c-10-8.5-15.5-20.6-16.4-36c0-0.8,0.3-1.6,1-2c0.6-0.4,13.9-9.7,30.1-4.2
	c16,5.5,28.5,23.3,37.2,52.8c0.4,1.2-0.3,2.5-1.5,2.9c-0.1,0-0.3,0.1-0.5,0.1C198.9,170.7,196.6,170.9,193,170.9z M137.6,122.1
	c1,13.4,6,23.9,14.6,31.4c14.6,12.4,36.1,13,43.7,12.7c-8.2-26.3-19.4-42.1-33.4-47C151,115.3,140.8,120.3,137.6,122.1L137.6,122.1z
	"/>
<path class="st1" d="M179,156.6c-0.8,0-1.5-0.4-1.9-1.1c-16.1-25.1-42.2-32.3-42.5-32.3c-1.2-0.4-1.9-1.7-1.5-2.9
	c0.4-1.1,1.5-1.8,2.7-1.6c1.1,0.3,28,7.7,45.2,34.3c0.7,1.1,0.4,2.5-0.7,3.2C179.9,156.4,179.4,156.6,179,156.6L179,156.6z"/>
<polygon class="st0" points="1001.1,83.9 946.5,75.3 918.2,0 900.6,0 927.7,67.6 847.3,60.4 739,0 718.2,0 844.9,78.7 981.5,103.7 
	1080,176.9 1080,134.1 "/>
<path class="st1" d="M969.5,112.2c-0.3-0.3-0.7-0.4-1.2-0.5L835.2,84.7L714.3,0h-10.7l128.6,90.1c0.3,0.2,0.7,0.4,1.2,0.5
	l133.1,27.1l113.6,80.8v-7.6L969.5,112.2z"/>
<path class="st1" d="M902.3,0h-6.4l23,79.4c0.4,1.3,1.6,2.2,3,2.2c0.3,0,0.6,0,0.9-0.1c1.6-0.5,2.6-2.2,2.1-3.8L902.3,0z"/>
<path class="st1" d="M916.6,66.2l-68.3-8.8L747.7,0h-12.4l110.5,63c0.3,0.2,0.7,0.3,1.1,0.4l68.9,8.9c0.1,0,0.3,0,0.4,0
	c1.7,0,3.1-1.4,3-3.1C919.3,67.6,918.1,66.4,916.6,66.2L916.6,66.2z"/>
<path class="st1" d="M1002.8,81.4c-0.3-0.2-0.7-0.4-1.1-0.5l-53.4-10.2c-1.6-0.5-3.3,0.4-3.8,2.1c-0.5,1.6,0.4,3.3,2.1,3.8
	c0.2,0.1,0.4,0.1,0.6,0.1l52.8,10.1l80.1,53.4v-7.4L1002.8,81.4z"/>
<path class="st1" d="M920.1,0h-6.6l32.6,85.9c0.5,1.2,1.6,2,2.9,2c0.4,0,0.7-0.1,1.1-0.2c1.6-0.6,2.4-2.4,1.8-4c0,0,0,0,0,0L920.1,0
	z"/>
</svg>
