<?xml version="1.0" encoding="utf-8"?>
<!-- Generator: Adobe Illustrator 21.1.0, SVG Export Plug-In . SVG Version: 6.00 Build 0)  -->
<svg version="1.1" id="圖層_1" xmlns="http://www.w3.org/2000/svg" xmlns:xlink="http://www.w3.org/1999/xlink" x="0px" y="0px"
	 viewBox="0 0 147.1 178.1" style="enable-background:new 0 0 147.1 178.1;" xml:space="preserve">
<style type="text/css">
	.st0{fill:#FFFDF7;}
	.st1{fill:#C6A679;}
	.st2{fill:#927B59;}
	.st3{fill:#1A1A1A;}
	.st4{fill:#FAE5EE;}
</style>
<title>互動設計UI</title>
<path class="st0" d="M29.5,47.1c0,0-19.2,27.2,0.5,51.7c0.9,1.2,0.3,5.6,0.3,5.6L0,150.1l15.1,5.1l12.1,3L50.4,176l4,2.1l16.4-8
	L89,157.4l16.6-4.6l2.2-37l15.6-15.2l5.1-16.4"/>
<path class="st1" d="M30,98.8c0,0,13.2,4.6,18.1,9.7c0,0-16.1,22.8-22.4,44.2c-1.2,4-5.5,6.2-9.4,5c-0.5-0.2-1-0.4-1.5-0.6l-11-6.1
	L30,98.8z"/>
<path class="st1" d="M107.9,117.8c0,0-13.5-3.8-20.4-2.3c0,0-1.2,23.8-4.2,38.7l17.2,10L107.9,117.8z"/>
<ellipse transform="matrix(0.6451 -0.7641 0.7641 0.6451 -84.742 71.1559)" class="st2" cx="34.2" cy="126.8" rx="4.4" ry="12.8"/>
<ellipse transform="matrix(0.9946 -0.1038 0.1038 0.9946 -13.927 9.5499)" class="st2" cx="84.8" cy="138.6" rx="12.8" ry="4.4"/>
<ellipse transform="matrix(0.6451 -0.7641 0.7641 0.6451 -99.7262 74.0313)" class="st2" cx="29.8" cy="144.4" rx="4.1" ry="7.2"/>
<path class="st1" d="M33.8,2.7c0,0-9.9,26.2-4.2,44.4l-5.3,12.5c0,0,4,14.4,17.1,20.2c0,0,19.2-7.4,28.3-4.4l12.2,2.7
	c0,0,14.9,4.2,21.4,15.6c0,0,14.4,3.4,24.5-3l1.8-21.8l12.8-22.2l1.7-20l-36.5,8.7l-13.3-6l-24.1-6.2l-6.8,2.6"/>
<path class="st0" d="M62.5,25.6c0,0-4.2,6.5-6.5,19.9c0,0-13-1.3-13.4,13.7c0,0-0.3,11.1,12.3,12.9c0,0,14.5,1.3,14.8-12.7
	c0,0-0.1-29.8,8-36.6"/>
<path class="st2" d="M73.8,25.2c0,0-4.7,12.7-5,25c0,0,1.4,5.2,4.6,0.1c0,0,4.9-16.3,9.3-23.5"/>
<path class="st2" d="M19.7,74.4c6.6-2.5,13.5-4.1,20.5-4.6c0,0,5.3,1,0.4,4.6c0,0-11.8,3.9-18.7,8.9"/>
<path class="st2" d="M24,87.8c0,0-0.9-1.4,11.4-2.5c0,0,5.3,1,0.4,4.6c0,0-3.2,1.2-10.2,6.1"/>
<path class="st2" d="M62.5,24.4c-3.4,6.3-5.7,13-7,20c0,0,1.4,5.2,4.6,0.1c0,0,4.8-13.4,9.3-20.7"/>
<path class="st0" d="M112,36.5c0,0,0.3,7.7-4.8,20.4c0,0,11.8,5.7,4.3,18.6c0,0-5.5,9.6-17.1,4.6c0,0-13-6.4-6.1-18.5
	c0,0,15.6-25.5,12.2-35.5"/>
<path class="st2" d="M102.6,30.3c0,0-2.6,13.3-8.7,24c0,0-3.9,3.8-4-2.3c0,0,4.2-16.4,4.2-25"/>
<path class="st2" d="M123.3,100.5c-4.3-5.6-9.4-10.5-15.1-14.6c0,0-5.1-1.9-2.7,3.7c0,0,8,9.5,11.4,17.3"/>
<path class="st2" d="M112.7,109.7c0,0,1.5-0.7-8.4-8c0,0-5.1-1.9-2.7,3.7c0,0,2.2,2.7,5.5,10.5"/>
<path class="st2" d="M112.6,35.5c-0.4,7.1-1.9,14.1-4.4,20.7c0,0-3.9,3.8-4-2.3c0,0,2.8-14,2.8-22.5"/>
<path class="st3" d="M102.1,162.8c-0.2,0-0.3,0-0.5,0c-1.6-0.3-2.7-1.8-2.5-3.4c1.8-11.8,5.3-33.7,5.7-43.9c0-1.1,0.7-2.1,1.7-2.6
	c1-0.5,25-12.2,20.1-43.7c-0.2-1.5,0.7-2.9,2.1-3.3c0,0,11.3-4.5,12.3-36.3c-6,0.4-19.9,2.1-32.2,8.2c-1,0.5-2.2,0.4-3.1-0.2
	c-0.1-0.1-9.4-6.7-20.2-9c-1.6-0.3-2.6-1.9-2.3-3.5s1.9-2.6,3.5-2.3c9.5,2,17.7,6.9,20.9,9c17-8,35.4-8.2,36.2-8.3
	c0.8,0,1.6,0.3,2.1,0.9c0.6,0.6,0.9,1.3,0.9,2.1c-0.3,31.1-9.7,40.9-14.2,43.8c2.1,17.6-4.1,29.5-9.8,36.4
	c-4.7,5.7-9.8,9.1-12.3,10.5c-0.7,10.9-3.8,30.8-5.6,42.8C104.8,161.8,103.5,162.8,102.1,162.8z"/>
<path class="st3" d="M3.7,151.9c-0.3,0-0.7-0.1-1-0.2c-1.5-0.6-2.3-2.3-1.7-3.8c5.1-13.7,15.1-31,24-46.3l1.6-2.7
	c-4.1-6-15.8-26.6-0.6-51.7c-3-4.6-7.4-17.3,5.1-45.8c0.3-0.7,0.9-1.3,1.7-1.6C33.4-0.4,34.2-0.3,35,0c0.7,0.3,17.4,8.3,29.5,22.5
	c3.8-0.6,13.3-1.5,22.8,0.5c1.6,0.3,2.6,1.9,2.3,3.5c-0.3,1.6-1.9,2.6-3.5,2.3c-10.8-2.3-22.1-0.2-22.2-0.2c-1.1,0.2-2.2-0.2-2.9-1
	C52.4,16.9,40.5,9.7,35.2,6.8c-12.2,29.5-3.8,38-3.7,38.1c1.1,1,1.3,2.6,0.5,3.8C14.5,75.4,31.5,96,32.2,96.9c0.8,1,0.9,2.3,0.3,3.4
	l-2.5,4.4c-8.7,15-18.6,32.1-23.5,45.4C6,151.2,4.9,151.9,3.7,151.9z"/>
<path class="st3" d="M72.5,122.5c-7,0-12.7-2.1-16.9-4.6c-8.3-4.8-12.6-11.8-12.8-12.1c-0.7-1.1-0.3-2.6,0.8-3.2
	c1.1-0.7,2.6-0.3,3.2,0.8l0,0c0.6,1,15.5,24.5,43.8,9.3c1.2-0.6,2.6-0.2,3.2,1s0.2,2.6-1,3.2C85.2,121,78.4,122.5,72.5,122.5z"/>
<circle class="st3" cx="55.8" cy="59.6" r="8.4"/>
<path class="st3" d="M82.9,100.9c-1.8,0-3.5-0.4-5-1.3c-3.3-1.9-5-5.4-5.9-8.5c-3.1,3.3-6.4,4.8-9.7,4.6c-6.7-0.4-10.6-7.7-10.8-8
	c-0.6-1.1-0.2-2.4,0.9-3c1.1-0.6,2.4-0.2,3,0.9c0.8,1.5,3.7,5.5,7.1,5.7c3.5,0.2,6.8-3.5,9-6.7c0.5-0.8,1.5-1.1,2.5-0.9
	c0.9,0.3,1.6,1.1,1.6,2.1c0.1,2.1,1,8,4.5,9.9c2.4,1.3,5.9,0.7,10.3-1.8c1.1-0.6,2.4-0.2,3,0.8c0.6,1.1,0.2,2.4-0.8,3
	C89,99.8,85.8,100.9,82.9,100.9z"/>
<path class="st3" d="M75.1,86.4l7.6-5.4c1.1-0.8,1.4-2.4,0.6-3.5c-0.4-0.5-0.9-0.8-1.5-1l-12.2-2.6c-1.3-0.3-2.6,0.6-2.9,1.9
	c-0.1,0.6,0,1.2,0.3,1.8l4.7,8c0.7,1.2,2.2,1.6,3.4,1C75,86.5,75.1,86.4,75.1,86.4z"/>
<g>
	<path class="st4" d="M55.2,29.5c-5.1-5.1-10.7-9.7-16.5-13.9c-3.9,8.1-4.2,17.5-1,25.9"/>
	<path class="st3" d="M37.7,43.4c-0.8,0-1.5-0.5-1.8-1.2c-3.4-8.9-3-18.9,1.1-27.4c0.2-0.5,0.7-0.9,1.3-1c0.6-0.1,1.1,0,1.6,0.3
		c6.4,4.7,11.9,9.3,16.7,14.1c0.8,0.7,0.8,2,0,2.7c-0.7,0.8-2,0.8-2.7,0c-4.2-4.2-8.9-8.2-14.3-12.3c-2.7,7-2.8,15,0,22.2
		c0.4,1-0.1,2.1-1.1,2.5C38.2,43.4,37.9,43.4,37.7,43.4z"/>
</g>
<circle class="st3" cx="100.9" cy="69.4" r="8.4"/>
<g>
	<path class="st4" d="M114.1,42.3c6.7-2.6,13.5-4.5,20.6-5.8c0.2,9-3.4,17.7-9.8,24"/>
	<path class="st3" d="M124.9,62.4c-0.5,0-1-0.2-1.4-0.6c-0.7-0.8-0.7-2,0-2.7c5.5-5.4,8.8-12.7,9.2-20.3c-6.2,1.3-12.1,3-18,5.3
		c-1,0.4-2.1-0.1-2.5-1.1s0.1-2.1,1.1-2.5c6.8-2.6,13.6-4.6,20.9-5.9c0.6-0.1,1.1,0,1.6,0.4c0.4,0.4,0.7,0.9,0.7,1.4
		c0.2,9.5-3.6,18.7-10.4,25.4C125.9,62.2,125.4,62.4,124.9,62.4z"/>
</g>
</svg>
