<?xml version="1.0" encoding="utf-8"?>
<!-- Generator: Adobe Illustrator 21.1.0, SVG Export Plug-In . SVG Version: 6.00 Build 0)  -->
<svg version="1.1" id="圖層_1" xmlns="http://www.w3.org/2000/svg" xmlns:xlink="http://www.w3.org/1999/xlink" x="0px" y="0px"
	 viewBox="0 0 253.2 332.7" style="enable-background:new 0 0 253.2 332.7;" xml:space="preserve">
<style type="text/css">
	.st0{fill:#FFFDF7;}
	.st1{fill:#C6A679;}
	.st2{fill:#927B59;}
	.st3{fill:#1A1A1A;}
	.st4{fill:#FAE5EE;}
</style>
<title>互動設計UI</title>
<path class="st0" d="M44.8,147.6c0,0,3,54.2,53.1,65.5c2.3,0.5,6.1,6.8,6.1,6.8l7.6,89.1l24.4-8.8l18.2,15.7l49.7-9.5l5.3-16.9
	l12.8-26.9l10.3-34.7l16.4-22.8l-34.6-49.4l4.5-35.2l-10.2-26.1"/>
<path class="st1" d="M97.9,213.1c0,0,21.6-7.6,33-6c0,0,3.6,67.8,27.3,107.3l-37.9,13.4L97.9,213.1z"/>
<path class="st1" d="M216.6,158.2c0,0-21,8.9-28.4,17.8c0,0,27.1,27.7,39.6,63.8l20.3-30.1L216.6,158.2z"/>
<ellipse transform="matrix(2.966619e-02 -0.9996 0.9996 2.966619e-02 -116.6117 368.8501)" class="st2" cx="131.7" cy="244.5" rx="7.1" ry="20.8"/>
<ellipse transform="matrix(2.966619e-02 -0.9996 0.9996 2.966619e-02 -131.7671 407.1891)" class="st2" cx="143.8" cy="271.5" rx="6.7" ry="11.7"/>
<ellipse transform="matrix(0.6997 -0.7145 0.7145 0.6997 -82.4744 213.6703)" class="st2" cx="212.9" cy="204.9" rx="20.8" ry="7.1"/>
<path class="st1" d="M5.2,86.6c0,0,13.9,43.5,39.6,61l6,21.2c0,0,19.7,14.2,42.3,8.4c0,0,17-29,31.7-34.3l18.3-9
	c0,0,23.3-9.7,43.2-1.9c0,0,21.9-10.4,28.2-28.6l-19.9-29.7l-6.1-41.3L170.3,5.2l-37.8,48.1l-23,5.8L72.4,75.7l-6,10.2"/>
<path class="st0" d="M65,86.6c0,0,1.2,12.5,12,32c0,0-17.9,11.6-3.2,31c0,0,10.9,14.4,28.7,4c0,0,19.8-13,6-31.2
	c0,0-30.4-38-26.9-54.9"/>
<path class="st2" d="M79,74.6c0,0,6.8,21,19,37c0,0,7.1,5.3,6-4.5c0,0-10.2-25.7-11.9-39.5"/>
<path class="st2" d="M59.9,192.4c0,0,6.9-12.8,21.5-26.7c0,0,7.9-4.1,5.2,5.4c0,0-11,17-14.9,30.3"/>
<path class="st2" d="M79,205.2c0,0-2.6-0.8,12-14.7c0,0,7.9-4.1,5.2,5.4c0,0-2.9,4.8-6.8,18.2"/>
<path class="st2" d="M63.8,85.1c0,0,2.1,14.9,11.4,32.7c0,0,7.1,5.3,6-4.5c0,0-7.4-22-9.1-35.8"/>
<path class="st0" d="M139.4,50.3c0,0,8.2,9.6,14.6,30.9c0,0,20.8-4.7,24.4,19.4c0,0,2.7,17.9-17.2,23.3c0,0-23.1,5.1-26.5-17.5
	c0,0-6-43-20.5-52.3"/>
<path class="st2" d="M121,52c0,0,10.2,19.5,13.2,39.4c0,0-1.2,8.8-7.4,1.1c0,0-11.3-25.3-20-36.1"/>
<path class="st2" d="M218.7,120.5c0,0-14-4-34.1-3.3c0,0-8.4,2.8,0.3,7.5c0,0,19.9,4,32.1,10.5"/>
<path class="st2" d="M214.5,143.1c0,0,1.2-2.4-18.9-1.7c0,0-8.4,2.8,0.3,7.5c0,0,5.5,1.3,17.7,7.8"/>
<path class="st2" d="M139.1,48.4c0,0,9.2,11.9,15.4,31c0,0-1.2,8.8-7.4,1.1c0,0-10.6-20.7-19.3-31.5"/>
<path class="st3" d="M248.1,215.6c-1.9,0-3.6-1-4.5-2.6c-14.1-24.9-25.7-43.6-33.6-54.1c-1.2-1.6-1.4-3.7-0.5-5.4
	c0.8-1.6,19.5-40.7-18.5-75.9c-2-1.7-2.3-4.6-0.8-6.7c0.6-1.2,8.8-18.3-20.8-58.2c-7.3,6.8-23.1,22.7-32.3,42.7
	c-0.8,1.8-2.5,2.9-4.4,3c-0.2,0-18.6,1-34.8,9c-2.6,1.3-5.7,0.2-6.9-2.3s-0.2-5.7,2.3-6.9c14.2-7,29.4-9.2,35.8-9.8
	C142.7,21,166,2,167,1.2c2.2-1.8,5.5-1.5,7.2,0.7c0,0,0.1,0.1,0.1,0.1c30.9,39.8,29.3,61.9,26.4,70.5c20.5,20.4,24.6,42,24.4,56.7
	c-0.2,8.8-1.8,17.6-5,25.8c8.1,11.2,19,29,32.5,52.8c1.4,2.5,0.5,5.6-2,7C249.8,215.3,249,215.5,248.1,215.6z"/>
<path class="st3" d="M120.3,333c-2.2,0-4.2-1.4-4.9-3.6c-8.9-27.2-19.4-94.7-22.1-112.1c-8.3-2.5-16.1-6.5-23-11.6
	c-11.9-8.8-26.5-25.2-30.2-53.8c-8.6-3-27.1-15.1-39.9-63.9c-0.7-2.7,0.9-5.6,3.6-6.3c0,0,0.1,0,0.1,0c1.3-0.3,30.5-7.2,60.5-1.3
	c4.4-4.7,15.4-15.4,29.6-22.4c2.6-1.3,5.7-0.2,6.9,2.3c1.3,2.6,0.2,5.7-2.3,6.9l0,0c-16.2,8-28.2,22-28.4,22.2
	c-1.2,1.5-3.2,2.1-5.1,1.7c-21.5-4.8-43.7-2-53.6-0.3c13.7,47.7,32.2,51.6,33.5,51.8c2.6,0,4.7,2.1,4.8,4.7
	c4.8,51.6,47.2,60.6,49,60.9c2.1,0.4,3.8,2.1,4.1,4.3c5.8,38.8,15,91.9,22.2,113.8c0.9,2.7-0.6,5.6-3.3,6.5c0,0,0,0,0,0
	C121.4,332.9,120.8,333,120.3,333z"/>
<path class="st3" d="M141.1,212.2c-6.7,0-13.4-1-19.8-3.1c-2.2-0.7-3.4-3-2.7-5.2s3-3.4,5.2-2.7c0.1,0,0.2,0.1,0.3,0.1
	c1.8,0.7,44.4,15.4,64.9-32.3c0.9-2.1,3.3-3.1,5.4-2.2c2.1,0.9,3.1,3.3,2.2,5.4c-12.3,28.7-32.2,37.2-46.7,39.3
	C147,212,144.1,212.2,141.1,212.2z"/>
<circle class="st3" cx="91" cy="136.9" r="13.6"/>
<path class="st3" d="M125.7,179.7c-4-0.1-7.9-0.9-11.6-2.4c-2-0.9-2.8-3.1-2-5.1s3.1-2.8,5.1-2l0,0c2.5,1.1,10.1,3.3,14.6,0.1
	s5.1-11.3,4.6-17.5c-0.1-2.1,1.5-4,3.6-4.1c1.2-0.1,2.4,0.4,3.2,1.4c2.2,2.6,9.2,9.1,15.5,8.1c4.3-0.7,8.1-4.9,11.2-12.6
	c0.8-2,3.1-2.9,5-2.1c2,0.8,2.9,3.1,2.2,5l0,0c-4.2,10.4-10,16.2-17.1,17.4c-6,1-11.7-1.7-15.9-4.7c-0.8,7.2-3.4,12.5-7.8,15.6
	C133.2,178.7,129.5,179.8,125.7,179.7z"/>
<path class="st3" d="M142.8,151.4l4.2-14.6c0.6-2.1-0.5-4.3-2.7-5c-1-0.3-2.1-0.2-3,0.3l-18.3,9c-2,0.9-2.9,3.3-1.9,5.3
	c0.4,0.9,1.2,1.7,2.2,2l14.1,5.6c2.1,0.8,4.4-0.2,5.2-2.3C142.7,151.6,142.8,151.5,142.8,151.4z"/>
<path class="st4" d="M59.7,99c0,0-19.2-2.2-35.2-0.9c0,0,3.9,22.1,25,34.2"/>
<path class="st3" d="M49.5,135.6c-0.6,0-1.2-0.2-1.7-0.4c-22.2-12.7-26.4-35.5-26.6-36.5c-0.3-1.8,0.9-3.6,2.7-3.9
	c0.1,0,0.2,0,0.3,0c16.2-1.3,35.1,0.8,35.9,0.9c1.8,0.3,3.1,2,2.8,3.8c-0.3,1.7-1.8,3-3.6,2.8c-10.1-1.1-20.3-1.5-30.5-1.2
	c2.1,6.4,8,19.9,22.3,28.1c1.6,0.9,2.2,3,1.2,4.6C51.8,134.9,50.7,135.6,49.5,135.6L49.5,135.6z"/>
<circle class="st3" cx="158.6" cy="103.6" r="13.6"/>
<path class="st4" d="M147.9,55.5c0,0,9.5-16.4,20.3-28.3c0,0,15.1,16.5,11.9,40.6"/>
<path class="st3" d="M180.1,71.1c-0.1,0-0.3,0-0.4,0c-1.8-0.2-3.1-1.9-2.9-3.8c0,0,0,0,0,0c2.2-16.5-4.9-29.3-8.7-34.9
	c-6.4,7.8-12.1,16.1-17.3,24.7c-0.9,1.6-3,2.1-4.6,1.2c-1.6-0.9-2.1-3-1.2-4.6c0.4-0.7,9.8-16.9,20.7-28.9c0.6-0.7,1.5-1.1,2.5-1.1
	l0,0c0.9,0,1.8,0.4,2.5,1.1c0.7,0.7,16.1,18,12.8,43.3C183.2,69.9,181.8,71.1,180.1,71.1z"/>
</svg>
