<svg id="圖層_1" data-name="圖層 1" xmlns="http://www.w3.org/2000/svg" viewBox="0 0 147.1 178.1"><title>cat</title><path d="M29.5,47.1S10.3,74.3,30,98.8c.9,1.2.3,5.6.3,5.6L0,150.1l15.1,5.1,12.1,3L50.4,176l4,2.1,16.4-8L89,157.4l16.6-4.6,2.2-37,15.6-15.2,5.1-16.4" style="fill:#fffdf7"/><path d="M30,98.8s13.2,4.6,18.1,9.7c0,0-16.1,22.8-22.4,44.2a7.55,7.55,0,0,1-9.4,5l-1.5-.6L3.8,151Z" style="fill:#c6a679"/><path d="M107.9,117.8s-13.5-3.8-20.4-2.3c0,0-1.2,23.8-4.2,38.7l17.2,10Z" style="fill:#c6a679"/><ellipse cx="34.21" cy="126.82" rx="4.4" ry="12.8" transform="translate(-84.76 71.15) rotate(-49.83)" style="fill:#927b59"/><ellipse cx="84.8" cy="138.6" rx="12.8" ry="4.4" transform="translate(-13.93 9.55) rotate(-5.96)" style="fill:#927b59"/><ellipse cx="29.83" cy="144.41" rx="4.1" ry="7.2" transform="translate(-99.76 74.05) rotate(-49.83)" style="fill:#927b59"/><path d="M33.8,2.7s-9.9,26.2-4.2,44.4L24.3,59.6s4,14.4,17.1,20.2c0,0,19.2-7.4,28.3-4.4l12.2,2.7s14.9,4.2,21.4,15.6c0,0,14.4,3.4,24.5-3l1.8-21.8,12.8-22.2,1.7-20-36.5,8.7-13.3-6L70.2,23.2l-6.8,2.6" style="fill:#c6a679"/><path d="M62.5,25.6S58.3,32.1,56,45.5c0,0-13-1.3-13.4,13.7,0,0-.3,11.1,12.3,12.9,0,0,14.5,1.3,14.8-12.7,0,0-.1-29.8,8-36.6" style="fill:#fffdf7"/><path d="M73.8,25.2s-4.7,12.7-5,25c0,0,1.4,5.2,4.6.1,0,0,4.9-16.3,9.3-23.5" style="fill:#927b59"/><path d="M19.7,74.4a72.54,72.54,0,0,1,20.5-4.6s5.3,1,.4,4.6c0,0-11.8,3.9-18.7,8.9" style="fill:#927b59"/><path d="M24,87.8s-.9-1.4,11.4-2.5c0,0,5.3,1,.4,4.6,0,0-3.2,1.2-10.2,6.1" style="fill:#927b59"/><path d="M62.5,24.4a68,68,0,0,0-7,20s1.4,5.2,4.6.1c0,0,4.8-13.4,9.3-20.7" style="fill:#927b59"/><path d="M112,36.5s.3,7.7-4.8,20.4c0,0,11.8,5.7,4.3,18.6,0,0-5.5,9.6-17.1,4.6,0,0-13-6.4-6.1-18.5,0,0,15.6-25.5,12.2-35.5" style="fill:#fffdf7"/><path d="M102.6,30.3s-2.6,13.3-8.7,24c0,0-3.9,3.8-4-2.3,0,0,4.2-16.4,4.2-25" style="fill:#927b59"/><path d="M123.3,100.5a72.07,72.07,0,0,0-15.1-14.6s-5.1-1.9-2.7,3.7c0,0,8,9.5,11.4,17.3" style="fill:#927b59"/><path d="M112.7,109.7s1.5-.7-8.4-8c0,0-5.1-1.9-2.7,3.7,0,0,2.2,2.7,5.5,10.5" style="fill:#927b59"/><path d="M112.6,35.5a69.58,69.58,0,0,1-4.4,20.7s-3.9,3.8-4-2.3c0,0,2.8-14,2.8-22.5" style="fill:#927b59"/><path d="M102.1,162.8h-.5a3.09,3.09,0,0,1-2.5-3.4c1.8-11.8,5.3-33.7,5.7-43.9a3,3,0,0,1,1.7-2.6c1-.5,25-12.2,20.1-43.7a3,3,0,0,1,2.1-3.3S140,61.4,141,29.6c-6,.4-19.9,2.1-32.2,8.2a3.12,3.12,0,0,1-3.1-.2c-.1-.1-9.4-6.7-20.2-9a3,3,0,1,1,1.2-5.8,64.93,64.93,0,0,1,20.9,9c17-8,35.4-8.2,36.2-8.3a2.72,2.72,0,0,1,2.1.9,2.88,2.88,0,0,1,.9,2.1c-.3,31.1-9.7,40.9-14.2,43.8,2.1,17.6-4.1,29.5-9.8,36.4a45.67,45.67,0,0,1-12.3,10.5c-.7,10.9-3.8,30.8-5.6,42.8A2.79,2.79,0,0,1,102.1,162.8Z" style="fill:#1a1a1a"/><path d="M3.7,151.9a3.55,3.55,0,0,1-1-.2A3,3,0,0,1,1,147.9c5.1-13.7,15.1-31,24-46.3l1.6-2.7c-4.1-6-15.8-26.6-.6-51.7-3-4.6-7.4-17.3,5.1-45.8A3,3,0,0,1,32.8-.2,3.46,3.46,0,0,1,35,0c.7.3,17.4,8.3,29.5,22.5a68.05,68.05,0,0,1,22.8.5,3,3,0,1,1-1.2,5.8c-10.8-2.3-22.1-.2-22.2-.2a3.12,3.12,0,0,1-2.9-1C52.4,16.9,40.5,9.7,35.2,6.8c-12.2,29.5-3.8,38-3.7,38.1a2.92,2.92,0,0,1,.5,3.8c-17.5,26.7-.5,47.3.2,48.2a3,3,0,0,1,.3,3.4L30,104.7c-8.7,15-18.6,32.1-23.5,45.4A3.08,3.08,0,0,1,3.7,151.9Z" style="fill:#1a1a1a"/><path d="M72.5,122.5a32.84,32.84,0,0,1-16.9-4.6,39.07,39.07,0,0,1-12.8-12.1,2.33,2.33,0,1,1,4-2.4h0c.6,1,15.5,24.5,43.8,9.3a2.37,2.37,0,1,1,2.2,4.2C85.2,121,78.4,122.5,72.5,122.5Z" style="fill:#1a1a1a"/><circle cx="55.8" cy="59.6" r="8.4" style="fill:#1a1a1a"/><path d="M82.9,100.9a9.58,9.58,0,0,1-5-1.3c-3.3-1.9-5-5.4-5.9-8.5-3.1,3.3-6.4,4.8-9.7,4.6-6.7-.4-10.6-7.7-10.8-8a2.21,2.21,0,1,1,3.9-2.1c.8,1.5,3.7,5.5,7.1,5.7s6.8-3.5,9-6.7a2.33,2.33,0,0,1,2.5-.9,2.25,2.25,0,0,1,1.6,2.1c.1,2.1,1,8,4.5,9.9,2.4,1.3,5.9.7,10.3-1.8a2.2,2.2,0,1,1,2.2,3.8C89,99.8,85.8,100.9,82.9,100.9Z" style="fill:#1a1a1a"/><path d="M75.1,86.4,82.7,81a2.55,2.55,0,0,0,.6-3.5,3.07,3.07,0,0,0-1.5-1L69.6,73.9a2.48,2.48,0,0,0-2.9,1.9,2.89,2.89,0,0,0,.3,1.8l4.7,8a2.59,2.59,0,0,0,3.4,1A.14.14,0,0,1,75.1,86.4Z" style="fill:#1a1a1a"/><path d="M55.2,29.5A136.4,136.4,0,0,0,38.7,15.6a32.84,32.84,0,0,0-1,25.9" style="fill:#fae5ee"/><path d="M37.7,43.4a2,2,0,0,1-1.8-1.2A34.78,34.78,0,0,1,37,14.8a1.7,1.7,0,0,1,1.3-1,2.22,2.22,0,0,1,1.6.3A143.62,143.62,0,0,1,56.6,28.2a1.91,1.91,0,1,1-2.7,2.7A138.17,138.17,0,0,0,39.6,18.6a30.9,30.9,0,0,0,0,22.2,1.92,1.92,0,0,1-1.1,2.5A2.49,2.49,0,0,1,37.7,43.4Z" style="fill:#1a1a1a"/><circle cx="100.9" cy="69.4" r="8.4" style="fill:#1a1a1a"/><path d="M114.1,42.3a112.53,112.53,0,0,1,20.6-5.8,32.75,32.75,0,0,1-9.8,24" style="fill:#fae5ee"/><path d="M124.9,62.4a2,2,0,0,1-1.4-.6,2,2,0,0,1,0-2.7,30.86,30.86,0,0,0,9.2-20.3,112.61,112.61,0,0,0-18,5.3,1.93,1.93,0,1,1-1.4-3.6,113.61,113.61,0,0,1,20.9-5.9,1.88,1.88,0,0,1,1.6.4,2.1,2.1,0,0,1,.7,1.4,34.72,34.72,0,0,1-10.4,25.4A1.31,1.31,0,0,1,124.9,62.4Z" style="fill:#1a1a1a"/></svg>