<?xml version="1.0" encoding="utf-8"?>
<!-- Generator: Adobe Illustrator 21.1.0, SVG Export Plug-In . SVG Version: 6.00 Build 0)  -->
<svg version="1.1" id="圖層_1" xmlns="http://www.w3.org/2000/svg" xmlns:xlink="http://www.w3.org/1999/xlink" x="0px" y="0px"
	 viewBox="0 0 130.1 124.5" style="enable-background:new 0 0 130.1 124.5;" xml:space="preserve">
<style type="text/css">
	.st0{fill:#FFFFFF;}
	.st1{fill:#1A1A1A;}
	.st2{font-family:'GenJyuuGothicX-Heavy';}
	.st3{font-size:23.14px;}
</style>
<path class="st0" d="M127.4,51.1c0-26.8-27.9-48.5-62.4-48.5S2.6,24.3,2.6,51.1s28,48.4,62.4,48.4c4.8,0,9.6-0.5,14.4-1.3
	c3.8,7.5,11.4,18.5,25.7,23.7c0,0-5.6-11.2-6.3-30.1C116,83.2,127.4,68.2,127.4,51.1z"/>
<path class="st1" d="M105.1,124.5c-0.3,0-0.6-0.1-0.9-0.2c-13.8-5.1-21.8-15.1-26.2-23.2c-4.3,0.7-8.6,1-12.9,1
	C29.1,102.1,0,79.2,0,51S29.1,0,65,0s65.1,22.9,65.1,51.1c0,17.1-10.7,32.8-28.6,42.3c1,17,5.9,27.2,6,27.4c0.6,1.3,0.1,2.9-1.2,3.5
	C105.9,124.4,105.5,124.5,105.1,124.5z M79.4,95.5c1,0,1.9,0.6,2.3,1.4c4,8.4,10.5,15.3,18.6,19.9c-2.5-8.1-3.9-16.5-4.2-24.9
	c-0.1-1,0.5-2,1.4-2.5c17.1-8.5,27.3-22.8,27.3-38.3C124.8,25.8,98,5.3,65,5.3S5.2,25.8,5.2,51.1S32,96.9,65,96.9
	c4.7,0,9.3-0.5,13.9-1.3C79.1,95.6,79.2,95.5,79.4,95.5L79.4,95.5z"/>
<text transform="matrix(1 0 0 1 15.36 58.85)" class="st1 st2 st3">L</text>
<text transform="matrix(1 0 0 1 28.83 58.85)" class="st1 st2 st3">e</text>
<text transform="matrix(1 0 0 1 42.17 58.85)" class="st1 st2 st3">t</text>
<text transform="matrix(1 0 0 1 52.45 58.85)" class="st1 st2 st3">’</text>
<text transform="matrix(1 0 0 1 59.86 58.85)" class="st1 st2 st3">s </text>
<text transform="matrix(1 0 0 1 76.95 58.85)" class="st1 st2 st3">g</text>
<text transform="matrix(1 0 0 1 90.74 58.85)" class="st1 st2 st3">o!</text>
</svg>
