<svg id="圖層_1" data-name="圖層 1" xmlns="http://www.w3.org/2000/svg" viewBox="0 0 130.1 124.5"><title>dialog</title><path d="M127.4,51.1C127.4,24.3,99.5,2.6,65,2.6S2.6,24.3,2.6,51.1,30.6,99.5,65,99.5a87.61,87.61,0,0,0,14.4-1.3c3.8,7.5,11.4,18.5,25.7,23.7,0,0-5.6-11.2-6.3-30.1C116,83.2,127.4,68.2,127.4,51.1Z" style="fill:#fff"/><path d="M105.1,124.5a2.92,2.92,0,0,1-.9-.2A49.22,49.22,0,0,1,78,101.1a80.09,80.09,0,0,1-12.9,1C29.1,102.1,0,79.2,0,51S29.1,0,65,0s65.1,22.9,65.1,51.1c0,17.1-10.7,32.8-28.6,42.3,1,17,5.9,27.2,6,27.4a2.63,2.63,0,0,1-1.2,3.5A5,5,0,0,1,105.1,124.5Zm-25.7-29a2.61,2.61,0,0,1,2.3,1.4,45.29,45.29,0,0,0,18.6,19.9,96.19,96.19,0,0,1-4.2-24.9,2.66,2.66,0,0,1,1.4-2.5c17.1-8.5,27.3-22.8,27.3-38.3C124.8,25.8,98,5.3,65,5.3S5.2,25.8,5.2,51.1,32,96.9,65,96.9a80.77,80.77,0,0,0,13.9-1.3c.2,0,.3-.1.5-.1Z" style="fill:#1a1a1a"/><text transform="translate(15.36 58.85)" style="isolation:isolate;font-size:23.139999389648438px;fill:#1a1a1a;font-family:GenJyuuGothicX-Heavy, Gen Jyuu GothicX">L</text><text transform="translate(28.83 58.85)" style="isolation:isolate;font-size:23.139999389648438px;fill:#1a1a1a;font-family:GenJyuuGothicX-Heavy, Gen Jyuu GothicX">e</text><text transform="translate(42.17 58.85)" style="isolation:isolate;font-size:23.139999389648438px;fill:#1a1a1a;font-family:GenJyuuGothicX-Heavy, Gen Jyuu GothicX">t</text><text transform="translate(52.45 58.85)" style="isolation:isolate;font-size:23.139999389648438px;fill:#1a1a1a;font-family:GenJyuuGothicX-Heavy, Gen Jyuu GothicX">’</text><text transform="translate(59.86 58.85)" style="isolation:isolate;font-size:23.139999389648438px;fill:#1a1a1a;font-family:GenJyuuGothicX-Heavy, Gen Jyuu GothicX">s </text><text transform="translate(76.95 58.85)" style="isolation:isolate;font-size:23.139999389648438px;fill:#1a1a1a;font-family:GenJyuuGothicX-Heavy, Gen Jyuu GothicX">g</text><text transform="translate(90.74 58.85)" style="isolation:isolate;font-size:23.139999389648438px;fill:#1a1a1a;font-family:GenJyuuGothicX-Heavy, Gen Jyuu GothicX">o!</text></svg>