<?xml version="1.0" encoding="utf-8"?>
<!-- Generator: Adobe Illustrator 21.1.0, SVG Export Plug-In . SVG Version: 6.00 Build 0)  -->
<svg version="1.1" id="圖層_1" xmlns="http://www.w3.org/2000/svg" xmlns:xlink="http://www.w3.org/1999/xlink" x="0px" y="0px"
	 viewBox="0 0 1080 364.8" style="enable-background:new 0 0 1080 364.8;" xml:space="preserve">
<style type="text/css">
	.st0{fill:#7EBC25;}
	.st1{fill:#FFFFFF;}
	.st2{fill:#1A1A1A;}
	.st3{fill:#CDDC4C;}
	.st4{fill:#3E7C18;}
	.st5{fill:#FFEC77;}
</style>
<title>互動設計UI</title>
<ellipse transform="matrix(0.9255 -0.3788 0.3788 0.9255 11.103 392.3856)" class="st0" cx="1002.8" cy="168" rx="8.7" ry="15.3"/>
<polygon class="st1" points="896.6,171 803.9,215 708.7,257.7 724.2,321.4 829.5,283.3 904,252.8 "/>
<polyline class="st1" points="371.2,236 339.9,268.2 371.2,316 522.1,246.3 737.2,304.4 747,266.3 717.7,238 "/>
<path class="st1" d="M397.5,320.1c-2.6-3.9-5.6-3.5-8-7.1c-2.6-3.9-2.8-9.2-5.3-12.8c-2.6-3.9-4.9-7.8-7.4-11.4
	c-2.7-3.9-2.8-9.4-5.3-12.9c-2.8-3.9-10.3-4-12.9-7.4c-2.9-3.8-1.5-10.7-4.3-14c-3-3.6-7.9-5.5-11-8.6c-3.3-3.1-6.8-6.1-10.4-8.9
	c-3.5-2.8-8.5-3.4-12.4-5.8c-3.8-2.3-5.8-7.9-10.1-9.9c-3.9-1.8-9.6,0-14-1.6c-4-1.5-8.4-2-13-3.4c-4.1-1.2-8.1-3.6-12.7-4.7
	c-4.2-1-8.3-3.1-13-4c-4.2-0.9-8.3-3.8-12.9-4.7c-4.3-0.8-9.7,0.9-14.4,0.1c-4.8-4.9,1.9-6.4-0.6-14.5c-1.1-3.7-3.8-7.8-5.5-12.7
	c-1.4-4-2.8-8.4-4.7-12.9c-1.7-4-2.3-8.9-4.4-13.1c-2-4-4.4-8-6.8-12.1c-2.2-3.9-9.5-4.7-12.1-8.6c-2.6-3.8-4.8-7.5-7.7-11.1
	s-2.3-10-5.5-13.3s-8.4-4.5-11.9-7.5s-5.1-8.3-8.9-10.9s-10.7,0.1-14.7-2.1s-5.6-9-9.9-10.8c-4.1-1.7-8.2-4.7-12.7-6
	c-4.3-1.2-9.4-0.1-14.1-0.9c-4.4-0.7-8.9-3.7-13.6-4c-4.4-0.2-9.1,5.9-13.8,6.2c-4.4,0.2-8.7,0.7-13.4,1.3c-4.4,0.6-9.4-2.4-14-1.4
	c-4.3,0.9-8.2,4.3-12.7,5.6c-4.3,1.2-8.9,1.5-13.3,3c-4.2,1.4-8.8,2.1-13.2,3.8c-4.1,1.7-10.1,3.8-14.3,5.7c-1,5.2-0.4,7.2,2.2,11.8
	c3.4,5.9,6,4.4,10.8,9.2c4.8,4.9,5.4,4.3,10.2,9.1s2.8,6.9,7.6,11.7c4.8,4.8,5.6,4.1,10.4,8.9s5.9,3.8,10.7,8.6s6.2,3.5,11,8.3
	c4.8,4.9,3.4,6.2,8.3,11s6.9,2.8,11.8,7.6s3.8,5.8,8.7,10.7s4.9,4.8,9.7,9.6s2.5,7.2,7.3,12c4.8,4.8,8.4,1.2,13.3,6.1
	c4.8,4.8,3.1,6.5,8,11.4s3.7,6,8.5,10.8s5.1,4.5,9.9,9.4s4.3,5.3,9.1,10.2s3.2,6.5,8,11.3s6.9,2.8,11.7,7.7s6.3,3.4,11.1,8.2
	s6,3.7,10.8,8.5s0.2,9.5,5,14.3s6.7,3,11.5,7.9s7.7,2,12.5,6.8s1.5,8.2,6.3,13s3.7,6,8.5,10.8s6,2.9,12.5,4.8c6.9,2,6,0.5,13.1-0.8
	s7.2-0.5,14.3-1.8s7-1.8,14-3.1s7-1.8,14-3.1s6.6-3.6,13.7-4.9s7.5,0.8,14.5-0.5s6.8-2.6,13.9-4s7-1.6,14.1-2.9s7.7,2.2,14.8,0.6
	C391.8,324.5,391.3,323.6,397.5,320.1z"/>
<path class="st1" d="M352.3,253c0,0,2.2-4.2,9.1-9.9c3-2.5,7.5-4.6,11.8-7.7c3.4-2.5,8.7-3.2,12.8-6c3.6-2.4,4.9-9.2,9.1-11.8
	c3.8-2.3,8.7-3.4,12.9-5.7c3.9-2.2,8.1-4.4,12.4-6.5c4.1-2,8.4-3.9,12.8-5.8c4.2-1.8,10.1,0.5,14.6-1.2c4.3-1.6,8.7-2.7,13.2-4.2
	c4.4-1.4,8.1-4.8,12.7-6c4.6-1.2,9.1-1.5,13.7-2.5s9.3,0.1,13.9-0.6s8.6-4.1,13.3-4.6c4.7-0.5,9.2-1,13.8-1.2
	c4.7-0.2,9.2-3.4,13.9-3.4s9.1,4.1,13.8,4.4c4.7,0.3,9.7-4.4,14.4-3.9c4.7,0.5,9.2,2.2,13.8,3s8.4,5.3,13,6.4s9.9-1.6,14.5-0.3
	s7.6,6.9,12,8.3c4.3,1.4,8.3,3.9,12.7,5.6c4.4,1.7,8.2,3.8,12.6,5.7c4.2,1.9,9.8,0.5,14.1,2.6s7,6.4,11.1,8.7
	c4.1,2.3,9.5,2,13.5,4.4c4,2.4,5.9,7.9,9.8,10.5c4,2.6,7.9,4.6,11.8,7.3s8,4.5,11.8,7.3s10.3,1.8,14,4.8"/>
<path class="st2" d="M731.7,259.4c-1.1,0-2.2-0.4-3-1.1c-2.2-1.9-4-4.1-5.5-6.6c-0.9-1.6-2.1-3.1-3.5-4.4c-1-0.8-3.1-1.2-5.1-1.6
	c-2.8-0.5-5.9-1.2-8.5-3c-2.2-1.7-4.2-3.8-5.8-6.1c-1.1-1.5-2.4-2.9-3.8-4.1c-2.1-1.3-4.2-2.5-6.4-3.5c-1.9-1-3.8-1.9-5.7-3.1
	c-2.3-1.5-4.4-3.3-6.2-5.3c-1.3-1.5-2.8-2.7-4.4-3.8c-1.9-1-3.8-2.2-5.5-3.3c-2.2-1.4-4.3-2.7-6.4-3.7c-1.8-0.7-3.7-1-5.7-1.1
	c-2.8-0.1-5.6-0.7-8.2-1.7c-3.6-1.6-7.2-3-10.8-4.3l-1.9-0.7c-2.1-0.7-4.2-1.2-6.3-1.4c-2.4-0.3-4.8-0.8-7.1-1.5
	c-2.5-0.9-4.9-2.1-7.1-3.6c-1.6-1.1-3.4-2-5.2-2.7c-2.3-0.6-4.4-1.4-6.5-2.2c-2.1-0.9-4.3-1.6-6.5-2.2c-2.4-0.6-4.7-1.4-7-2.3
	c-2-0.9-4-1.5-6.1-2c-1.4-0.2-3.4,0.3-5.5,0.8c-2.8,0.9-5.7,1.2-8.6,1.1c-2.4-0.2-4.9-0.3-7.3-0.2c-2,0-4.1,0.1-6.3,0
	c-3.7-0.2-6.7-2.4-9.4-4.3c-1.3-0.9-3.4-2.4-4.1-2.4s-2.9,1.6-4.2,2.6c-2.6,2-5.6,4.3-9.3,4.5c-2.5,0.1-5-0.1-7.5-0.5
	c-2-0.4-4.1-0.5-6.2-0.4c-2.7,0.2-5.4,0.1-8-0.4c-2-0.4-3.9-0.5-5.9-0.3c-2,0.5-4,1.2-5.8,2.2c-2.3,1.2-4.7,2.1-7.2,2.8
	c-2.8,0.5-5.8,0.5-8.6,0.1c-1.8-0.3-3.7-0.3-5.5-0.1c-3.2,0.9-6.4,2-9.6,3l-3.6,1.2c-1.9,0.8-3.8,1.8-5.4,3.1
	c-2.1,1.5-4.4,2.8-6.7,3.8c-1.8,0.9-3.5,2-5.1,3.3c-2,1.7-4.2,3.1-6.6,4.3c-2.1,0.9-4.1,1.6-6.1,2.4c-2.2,0.7-4.4,1.6-6.6,2.6
	c-3.7,1.8-7.4,3.8-12.1,6.3c-2.5,1.3-5.1,2.2-7.9,2.8c-1.8,0.4-3.6,1-5.3,1.8c-2.5,1.4-5.2,2.5-8,3.1c-1.8,0.4-3.6,1.1-5.2,2
	c-1.4,0.9-2.6,2.8-3.8,4.7c-1.3,2.4-3.1,4.6-5.3,6.4c-1.8,1.5-3.3,3.2-4.6,5.2c-1.3,1.9-2.8,3.7-4.5,5.3c-4.1,3.5-8.8,6.3-13.8,8.3
	c-2.5,0.8-5.3-0.6-6.1-3.2c-0.8-2.4,0.5-5,2.9-6c3.9-1.6,7.6-3.9,10.8-6.7c1.1-1,2-2.2,2.9-3.5c1.8-2.8,4.1-5.2,6.6-7.3
	c1.1-1.1,2.1-2.4,2.9-3.8c1.6-2.6,3.5-5.5,6.6-7.6c2.4-1.5,5.1-2.6,7.9-3.2c2-0.5,3.9-1.2,5.6-2.1c2.5-1.4,5.2-2.4,8-2.9
	c1.9-0.4,3.8-1,5.6-1.9c4.7-2.6,8.7-4.7,12.5-6.5c2.5-1.2,5-2.2,7.6-3.1c1.9-0.7,3.7-1.3,5.5-2.1c1.6-0.8,3.1-1.8,4.5-3
	c2.3-2,4.8-3.6,7.6-4.7c1.7-0.8,3.3-1.7,4.8-2.8c2.4-1.8,5-3.2,7.8-4.2c1.2-0.4,2.3-0.8,3.5-1.2c3.3-1.1,6.7-2.2,10.1-3.2
	c3-0.7,6.1-0.7,9.1-0.2c1.8,0.3,3.7,0.3,5.5,0.1c1.8-0.5,3.5-1.2,5.1-2c2.6-1.4,5.4-2.4,8.4-3c2.9-0.4,5.9-0.3,8.8,0.2
	c1.9,0.3,3.8,0.4,5.7,0.3c2.8-0.2,5.7-0.1,8.5,0.4c1.9,0.3,3.8,0.5,5.7,0.4c0.8,0,2.8-1.6,4-2.5c2.8-2.1,6-4.6,10-4.6
	c3.9,0,7,2.2,9.8,4.2c1.4,1,3.4,2.4,4.3,2.5c1.8,0.1,3.6,0.1,5.5,0c2.9-0.1,5.7,0,8.6,0.2c1.7,0,3.5-0.3,5.1-0.8
	c2.8-0.7,6.1-1.5,9.5-1c2.8,0.5,5.5,1.4,8.1,2.5c1.8,0.8,3.7,1.4,5.6,1.9c2.7,0.7,5.4,1.5,7.9,2.6c1.9,0.7,3.7,1.4,5.6,1.9
	c2.7,0.9,5.4,2.2,7.7,3.8c1.6,1.1,3.2,2,5,2.6c1.8,0.5,3.6,0.9,5.5,1.1c2.8,0.3,5.6,1,8.3,1.9l1.9,0.7c3.6,1.4,7.4,2.8,11.2,4.5
	c1.7,0.6,3.5,0.9,5.2,0.9c3.1,0.1,6.1,0.8,9,2c2.5,1.2,4.9,2.7,7.2,4.2c1.7,1.1,3.4,2.1,5,3c2.5,1.5,4.7,3.3,6.7,5.5
	c1.3,1.4,2.8,2.7,4.3,3.8c1.6,0.9,3.3,1.8,5.1,2.7c2.5,1.2,4.9,2.5,7.3,4c2.4,1.7,4.5,3.8,6.2,6.2c1.1,1.5,2.4,2.9,3.8,4.1
	c1,0.7,2.9,1.1,4.8,1.5c2.9,0.6,6.2,1.2,9.1,3.4c2.3,1.9,4.2,4.2,5.7,6.7c0.9,1.6,2.1,3.1,3.5,4.4c2.1,1.7,2.4,4.7,0.7,6.8
	C734.5,258.6,733.2,259.3,731.7,259.4L731.7,259.4z"/>
<path class="st2" d="M0,87.8V92C0.8,90.7,0.8,89.1,0,87.8z"/>
<polygon class="st1" points="82.8,163.5 38.9,91.1 0,92.3 0,187.5 38.9,192 "/>
<path class="st3" d="M770,315.4c1,0.6,1.9,1.2,2.8,1.8C771.9,316.6,771,316,770,315.4z"/>
<path class="st3" d="M791,328.8c1,0.6,2,1.3,3.1,1.9C793,330.1,792,329.4,791,328.8z"/>
<path class="st3" d="M772.9,317.2l0.6,0.4L772.9,317.2z"/>
<path class="st3" d="M766.2,313l1.2,0.8L766.2,313z"/>
<path class="st3" d="M767.3,313.7c0.8,0.5,1.6,1.1,2.5,1.6C768.9,314.8,768.1,314.2,767.3,313.7z"/>
<path class="st3" d="M787.6,326.6l0.6,0.4C788,326.8,787.8,326.7,787.6,326.6z"/>
<path class="st3" d="M764.2,311.7c0.7,0.4,1.3,0.8,1.9,1.2L764.2,311.7z"/>
<path class="st3" d="M788.2,327l2.8,1.8L788.2,327z"/>
<path class="st3" d="M783.3,323.9c1.5,0.9,2.9,1.9,4.3,2.8C786.1,325.7,784.7,324.8,783.3,323.9z"/>
<path class="st3" d="M779.8,321.6c1.1,0.7,2.3,1.4,3.5,2.2L779.8,321.6z"/>
<path class="st3" d="M773.5,317.6c2.2,1.4,4.3,2.8,6.3,4.1C777.6,320.2,775.5,318.9,773.5,317.6z"/>
<path class="st3" d="M769.8,315.3l0.2,0.1L769.8,315.3z"/>
<path class="st3" d="M758.5,308.1l5.1,3.2L758.5,308.1z"/>
<path class="st3" d="M755.2,306l0.7,0.5L755.2,306z"/>
<path class="st3" d="M754.8,305.8L754.8,305.8L754.8,305.8z"/>
<path class="st3" d="M754.8,305.7L754.8,305.7L754.8,305.7z"/>
<path class="st3" d="M755.9,306.5l0.5,0.3L755.9,306.5z"/>
<path class="st3" d="M754.9,305.8l0.3,0.2L754.9,305.8z"/>
<path class="st3" d="M757.6,307.6l0.9,0.5C758.2,307.9,757.9,307.7,757.6,307.6z"/>
<path class="st3" d="M756.4,306.8l0.3,0.2L756.4,306.8z"/>
<path class="st3" d="M757.4,307.4l0.3,0.2L757.4,307.4z"/>
<path class="st3" d="M756.7,307l0.6,0.4L756.7,307z"/>
<path class="st3" d="M763.6,311.3l0.6,0.4L763.6,311.3z"/>
<path class="st3" d="M825.7,350.8l0.5,0.3C826.1,351.1,825.9,351,825.7,350.8z"/>
<path class="st3" d="M823.8,349.6l2,1.3L823.8,349.6z"/>
<path class="st3" d="M794,330.6l3,1.9C796,332,795,331.3,794,330.6z"/>
<path class="st3" d="M822,348.4l0.9,0.6L822,348.4z"/>
<path class="st3" d="M822.9,349l0.9,0.6L822.9,349z"/>
<path class="st3" d="M819.9,347.2l2.1,1.3L819.9,347.2z"/>
<path class="st3" d="M750.9,305.7c-4-2.5-6.2-1.6-10.1-4s-5.6-8.8-9.6-11.2s-8-4.9-12-7.2s-9-3.2-13-5.4s-6.7-7.5-10.7-9.7
	c-4.2-2.2-8.1-5-12.2-7.1c-4.3-2.1-9.7-1.8-13.8-3.8c-4.3-2-9.7-1.4-13.9-3.2c-4.4-1.9-6.5-9-10.7-10.7c-4.4-1.8-9.7-1.2-14-2.8
	c-4.5-1.7-9.1-2.6-13.4-4.1c-4.5-1.5-10.3,1.5-14.7,0.2c-4.6-1.4-8.5-4-13-5.1c-4.7-1.2-8.8-3.8-13.2-4.6c-4.7-1-9-3.4-13.5-4.1
	c-4.8-0.7-9.1-4.5-13.7-4.9c-4.8-0.4-9.7-0.2-14.2-0.3c-4.8-0.1-9.7,0.8-14.2,1c-4.8,0.2-9.4,2.8-13.9,3.4
	c-4.8,0.6-9.4,1.2-13.9,2.1c-4.7,1-9.5,1.4-13.8,2.6c-4.6,1.4-8.3,5-12.5,6.6c-4.4,1.7-8.2,4.5-12.3,6.5s-9.6,2-13.6,4.2
	s-8.4,4.4-12.3,6.8s-8,5-11.8,7.5s-5.8,8.1-9.6,10.8s-7.2,6.2-10.9,8.9c-3.9,2.7-9.7,2.6-13.5,5.1c-4,2.6-6.8,7.3-10.8,9.5
	c-4.2,2.3-7.4,5.5-11.7,7.2c-5.6,3.5-10.3-3.4-15.6,0.5s-0.8,10.1-6.2,14s-9-1.2-14.4,2.7s-4.3,5.3-9.6,9.2s-4.1,5.6-9.5,9.4
	s-15.5,1.8-13,7.9c2.7,6.5,8.8,1.4,15.8,1.5s7.1-5.7,14.1-5.6s6.9,5.2,14,5.4s7.1-3.3,14.1-3.2s6.9,5.6,14,5.7s7,0.6,14,0.7
	s7,0.1,14,0.2s7.1-6.7,14.1-6.6s7,3,14,3.1s7.1-2.6,14.1-2.5s6.9,6.3,13.9,6.4s7,0.2,14,0.3s7.1-4.6,14.1-4.5s6.9,5.6,14,5.7
	s7-2.4,14.1-2.3s7,2.1,14,2.2s7.1-6.6,14.1-6.5s7,1.4,14,1.5s6.9,6,13.9,6.1s7-0.4,14-0.3s7.1-3.7,14.1-3.6s7,4.2,14,4.4
	s7.1-4.8,14.1-4.7s7-2,14-1.9s7,1.7,14,1.8s7.1-3,14.1-2.9s7,3.8,14,3.9s7,3.3,14,3.4s7.1-4.2,14.1-4.1s7,3.3,14,3.4s7,1.6,14,1.7
	s8.5,1.2,14-3.1c5.9-4.6,3.4-6.8,5.4-14s3.2-7.1,4.7-14.4C754.2,313.5,750.9,313.2,750.9,305.7z"/>
<path class="st3" d="M827.2,351.8l0.5,0.3L827.2,351.8z"/>
<path class="st3" d="M827.8,352.1"/>
<path class="st3" d="M827.7,352.1L827.7,352.1L827.7,352.1z"/>
<path class="st3" d="M826.2,351.2l1,0.6L826.2,351.2z"/>
<path class="st3" d="M801.5,335.4l0.6,0.4C801.9,335.7,801.7,335.6,801.5,335.4z"/>
<path class="st3" d="M804.1,337l2.2,1.4C805.5,338,804.8,337.5,804.1,337z"/>
<path class="st3" d="M802.1,335.8l1.9,1.2L802.1,335.8z"/>
<path class="st3" d="M797,332.6c1,0.6,2,1.2,3,1.9C799,333.8,798,333.2,797,332.6z"/>
<path class="st3" d="M800,334.5l1.5,1L800,334.5z"/>
<path class="st3" d="M807.2,339c0.5,0.3,0.9,0.6,1.4,0.9L807.2,339z"/>
<path class="st3" d="M814.3,343.6c0.9,0.6,1.7,1.1,2.5,1.6L814.3,343.6z"/>
<path class="st3" d="M816.9,345.2c0.5,0.3,1,0.6,1.4,0.9L816.9,345.2z"/>
<path class="st3" d="M818.3,346.1l1.6,1L818.3,346.1z"/>
<path class="st3" d="M808.6,340c2.1,1.3,4.1,2.5,5.8,3.6C812.6,342.4,810.6,341.3,808.6,340z"/>
<path class="st3" d="M806.3,338.5l0.9,0.6L806.3,338.5z"/>
<path class="st3" d="M463.9,256.1c-4.8-1.4-13.3-1.6-18-2c-5-0.4-9.7,0.7-14.5,1.2s-9.8,0.4-14.4,1.6s-10.1,1.3-14.5,3.2
	c-4.6,2-6.8,8.5-10.9,10.8c-4.5,2.5-11.6,0.4-15.3,3.1c-4.4,3.1-9.2,5.5-12.5,8.2c-6.8,5.8-1.2,10.3-8.5,11.1
	c-6.8,0.8-5.4,1-12.5-3.9c-3.2-2.2-3.9-9.6-8.3-12.3c-3.6-2.2-10.3,0.4-14.7-1.9c-3.8-2-8.4-2.7-12.7-4.8c-4-1.9-5.1-10.6-9.5-12.4
	c-4.1-1.7-11,3.8-15.4,2.3c-4.2-1.4-7.4-6.1-11.9-7.4c-4.3-1.2-8-5.4-12.6-6.4s-8.8-3.2-13.4-3.9s-9.5,2.1-14.1,1.8
	s-6.8-2.4-11.4-2.4c-5.1-4.6-3-2.6-5.4-10.7c-1.1-3.7-6.8-6.6-8.6-11.5c-1.4-4,0.1-9.3-1.8-13.8c-1.7-4-0.7-9.5-2.8-13.8
	c-2-4-4.2-8.1-6.6-12.1c-2.2-3.9-3.9-8.4-6.6-12.2c-2.6-3.8-7.9-5.6-10.8-9.1c-2.9-3.6-7.9-4.9-11.2-8.2c-3.2-3.1-6.5-6-10-8.8
	c-3.5-2.9-4.6-8.8-8.5-11.3c-3.9-2.5-9.1-2.2-13.2-4.2c-4.1-2.1-7-6.6-11.3-8.1c-4.2-1.5-8.2-5.1-12.7-6.1c-4.3-1-10.1,6.2-14.7,5.7
	c-4.4-0.5-8.4-8.3-13.1-8.3c-4.4,0-9.1,1.3-13.8,1.7c-4.4,0.4-8.3,5.5-12.9,6.3c-4.3,0.8-9.1-0.4-13.7,0.8c-4.3,1.1-9,1-13.5,2.4
	c-4.2,1.3-9.6,0.1-14,1.8c-4.2,1.6-8.6,7.4-13,9.3c1.7,6.1,4.3,5.5,8.1,10.5s6.5,2.8,10.7,7.5c4.7,5.3,4.3,5.5,9.4,10.4
	c5.1,4.9,2.9,7.1,8,12.1c5.1,5,5.8,4.2,10.8,9.2s2.6,7.5,7.6,12.5c5.1,4.9,8.7,1.3,13.8,6.2s2.5,7.6,7.5,12.6
	c5.1,5,7.8,2.2,12.8,7.1c5.1,5,6,4,11.1,8.9c5.1,4.9,4.1,5.9,9.2,10.9s3,7.1,8,12.1s9.3,0.6,14.4,5.6c5.1,5,3.8,6.2,8.9,11.2
	s5.1,4.9,10.2,9.9s5,5,10,10s1.4,8.7,6.4,13.7s4.6,5.4,9.7,10.3s6.9,3.1,11.9,8.1s4.4,5.7,9.4,10.6s3.4,6.7,8.4,11.6
	s6.2,5.2,12.8,7.7s7.4-0.4,14.3-0.7s6.8-3.9,13.8-4.2s7.2,4.5,14.2,4.2c7-0.3,6.7-6.4,13.7-6.7s7,1,14,0.7s7.2,4.2,14.1,3.9
	s6.8-4.9,13.8-5.2s7.2,5.1,14.2,4.8s7,0.9,14,0.6s7,0.3,14,0s6.8-4.6,13.8-4.9s7.1,2.8,14.1,2.5s6.8-3.8,13.8-4.1s7.1,4.1,14.1,3.8
	s7-0.9,13.9-1.2s9.9,2.2,15.2-2.3s-3.7-9.3-2.3-16.2s4.4-6.3,5.8-13.3s4.5-6.3,6-13.3s-1.8-7.6-0.4-14.5s0.3-7.5,3.4-13.9
	C460.7,263,464.9,263.1,463.9,256.1z"/>
<polygon class="st3" points="402,344.7 33.2,143.7 0,139.5 0,364.8 337.4,364.8 "/>
<path class="st1" d="M735,249c7.3-1,7-2,13.7-5s6.1-4.3,12.8-7.4s7.2-2,13.8-5.1s6.9-2.5,13.6-5.6c6.7-3.1,6.3-3.9,13-7
	c6.7-3.1,7-2.4,13.7-5.4s6.6-3.3,13.2-6.4s6.8-2.8,12.9-7c-4.7,0.2-9,0.5-13.3,1c-4.7,0.5-9.3,0.6-13.6,1.3c-4.7,0.8-8.8,3.3-13,4.4
	c-4.7,1.1-9.2,1.5-13.3,2.9c-4.6,1.6-8.8,3.2-12.7,4.9c-4.4,2-7.9,5.1-11.5,7.3c-4.3,2.6-8.4,4.6-11.5,7.1c-3.5,2.9-6.7,6.1-9.6,9.6
	C737.4,245.1,728.2,249.8,735,249z"/>
<path class="st1" d="M844.4,200.4c0.5-0.2,0.1-0.4,0.2-1.2c-1,0.2-1.9,0.6-2.7,1.3L844.4,200.4z"/>
<path class="st1" d="M845.3,201.4c6.5-2,4.7-6.8,10.9-9.6s6.9-1.3,13.1-4.1s6.1-3,12.3-5.9s6.1-3.1,12.2-6c6.2-2.9,7.5,0,13.7-2.9
	s5.5-4.2,11.7-7.1s6.2-2.7,12.4-5.6c6.2-2.8,6.5-2.2,12.7-5.1s5-5.4,11.2-8.2s5.9-3.5,12.1-6.4s7-1.2,13.2-4s7.1-0.8,13.3-3.6
	s5.5-4.2,11.7-7.1c6.2-2.8,6.7-1.6,12.9-4.5c6.2-2.8,6-3.3,12.2-6.1s5.5-4.4,11.7-7.3s6.3-2.6,12.5-5.4s6.4-2.4,12.6-5.3
	s5.2-4.9,11.3-7.9c0.2,1.1,0.2,2.2,0,3.3c-4.3-2.1-7.1-6.7-11.3-8.5c-4.4-1.9-8.5-4.3-12.8-5.9c-4.5-1.7-9.6-1.2-14-2.5
	c-4.6-1.4-9.4-1.1-13.8-2.2c-4.7-1.1-8.6-5.3-13-6c-4.8-0.8-9.5-1.2-14-1.6c-4.8-0.4-9.6-1.3-14.1-1.3c-4.8,0-9.6,1.1-14.1,1.6
	c-4.8,0.5-9,3.4-13.5,4.3c-4.7,1-9.4,1.2-13.7,2.7c-4.5,1.5-8,5-12.1,6.9s-9.3,2.4-13.2,4.8s-8.8,3.9-12.5,6.8s-5.6,7.9-9,11.1
	s-7.8,5.5-10.8,9s-5,8-7.7,11.7s-6.8,6.8-9.2,10.7c-2.5,4.1-2.6,9.4-4.7,13.4c-2.3,4.3-6.9,7.2-8.7,11.3c-2,4.5-2.2,9.6-3.8,13.6
	c-1.9,4.9-3.3,9.4-4.5,13.2C846.5,192.5,845.7,199.3,845.3,201.4z"/>
<path class="st2" d="M1070.3,79c-4.4-1.9-8.9-3.8-13.3-5.4c-3-1-6.2-1.4-9.3-1.2c-1.8,0.1-3.5,0-5.3-0.4c-1.8-0.7-3.6-1.6-5.2-2.6
	c-2.5-1.6-5.2-2.8-8-3.6c-1.5-0.3-2.9-0.7-4.3-1.1c-3.2-0.8-6.5-1.7-9.8-2.2c-3.5-0.6-6.8,0.2-9.7,0.9c-1.6,0.5-3.4,0.7-5.1,0.8
	c-3.3-0.2-6.7-0.3-10-0.1c-1.4,0-2.9,0.1-4.3,0.1l0,0c-1.8-0.2-3.5-0.8-5.1-1.6c-2.8-1.2-6.1-2.6-9.7-2.2c-4.9,0.4-9.8,1.1-14.7,2.1
	c-3.2,0.8-6.4,1.9-9.4,3.2c-1.6,0.7-3.1,1.3-4.6,1.8c-3.6,1.3-7.1,2.8-10.4,4.6c-1,0.5-2,1-3,1.5c-1.4,0.7-3,1.3-4.6,2
	c-3.1,1.2-6,2.6-8.8,4.3c-3.3,2-4.9,5.3-6.4,8.2c-0.9,1.7-1.8,3.4-2.7,4.2c-1.5,1-3.1,1.8-4.8,2.4c-3,1-5.7,2.6-8.1,4.7
	c-2.1,2.2-3.9,4.7-5.4,7.3c-0.9,1.6-1.9,3.1-3,4.5c-1.3,1.4-2.7,2.7-4.2,3.8c-2.4,1.8-4.5,3.9-6.3,6.2c-1.7,2.5-3.2,5.1-4.5,7.8
	c-0.9,1.7-1.7,3.3-2.6,4.7c-1.5,2.6-2.8,5.2-3.9,8c-0.7,1.8-1.4,3.5-2.2,5c-0.6,1.1-2.4,2.3-4.1,3.5c-2.6,1.8-5.5,3.8-7,7.1
	c-1.2,2.9-2.3,5.8-3.1,8.8c-0.5,1.8-1,3.5-1.6,5c-1.5,4-0.6,8.1,0.1,11.4c0.3,1.3,0.5,2.6,0.6,3.9c-1.2,3.8-1.5,4-2.7,4.7
	c-1.2,0.7-2.4,1.5-3.5,2.4c-3.2,0.7-5.5,2.6-7.2,4.1c-0.8,0.8-1.7,1.4-2.7,1.9c-2,0.1-3.9,0.1-5.9,0c-2.7-0.2-5.5-0.1-8.2,0.2
	c-1.8,0.3-3.8,0.5-5.6,0.6c-2.9,0.2-5.7,0.6-8.5,1.1c-1.9,0.4-3.9,0.6-5.8,0.6c-2.9,0-5.8,0.4-8.5,1.2c-3.8,1.3-7.6,2.9-11.2,4.6
	l-2.2,1c-3,1.5-5.7,3.6-7.9,6.1c-1,1.2-2.2,2.2-3.5,3.1c-4.1,2.4-8,5.1-11.8,8.1c-1.7,1.2-3.5,2.3-5.3,3.1c-2.6,1.3-5.3,2.6-7.3,4.8
	c-4.2,4.8-4.7,7.5-4.8,10.6c0,1.3-0.3,2.6-0.9,3.7c-1.1,2.4,0,5.3,2.4,6.4c0.6,0.3,1.3,0.4,2,0.4c1.9,0,3.6-1.1,4.4-2.9
	c1.1-2.3,1.7-4.8,1.7-7.3c0-1.3,0.1-1.9,2.4-4.6c1.3-1.1,2.7-1.9,4.3-2.6c2.6-1.1,5-2.6,7.2-4.3c3.4-2.7,6.9-5.1,10.7-7.3
	c2-1.3,3.8-2.9,5.4-4.7c1.4-1.6,3.1-3,5-4.1l2.2-1c3.3-1.6,6.7-3,10.2-4.2c2-0.5,4-0.7,6-0.7c2.6,0,5.1-0.3,7.6-0.9
	c2.3-0.5,4.7-0.8,7.1-0.9c2-0.2,4.1-0.4,6.2-0.7c2.1-0.2,4.3-0.3,6.4-0.1c2.4,0.1,4.7,0.1,7.1-0.1c3.7-0.3,6.2-2.5,8.1-4.2
	c1.4-1.2,2.4-2,3.1-2c1.2,0,2.3-0.5,3.1-1.2c1-0.9,2-1.7,3.2-2.3c3.4-2,5-3.9,7-10.2c0.9-3,0.3-5.9-0.3-8.8c-0.5-2.3-1-4.6-0.5-6
	c0.7-1.8,1.3-3.7,1.8-5.6c0.7-2.6,1.6-5.2,2.7-7.7c0.4-0.8,2.3-2.1,3.7-3.1c2.6-1.8,5.5-3.8,7.2-7c1-1.9,1.8-3.9,2.6-5.9
	c0.8-2.3,1.9-4.5,3.1-6.6c1.1-1.8,2-3.6,2.9-5.4c1.1-2.3,2.3-4.5,3.8-6.6c1.4-1.7,2.9-3.2,4.6-4.4c1.9-1.5,3.7-3.2,5.4-5
	c1.5-1.8,2.8-3.7,4-5.8c1.1-2,2.4-3.8,3.9-5.4c1.5-1.2,3.2-2.1,5.1-2.7c2.5-0.9,4.9-2.2,7.1-3.8c2.5-2,4-4.8,5.3-7.3
	c1-1.8,2-3.8,3-4.4c2.4-1.4,4.9-2.6,7.4-3.5c1.6-0.7,3.3-1.4,5-2.2c1-0.5,2.1-1,3.2-1.6c3-1.6,6.1-2.9,9.2-4.1
	c1.8-0.6,3.5-1.3,5.2-2c2.5-1.1,5.1-2,7.8-2.7c4.5-0.9,9.1-1.5,13.7-1.9c1.1-0.1,3,0.7,4.9,1.5c2.4,1.1,5.4,2.3,8.7,2.3
	c1.5,0,3.1,0,4.6-0.1c3-0.2,5.9-0.1,8.9,0.1c2.7,0.1,5.5-0.2,8.1-1c2.2-0.5,4.3-1,5.9-0.7c2.9,0.5,5.8,1.2,9,2.1
	c1.5,0.4,3,0.8,4.5,1.2c1.9,0.6,3.7,1.5,5.3,2.6c2.3,1.4,4.7,2.6,7.3,3.5c2.6,0.7,5.4,1,8.1,0.9c2-0.1,4,0.1,6,0.6
	c4.2,1.5,8.4,3.3,12.9,5.3c3.3,1.4,6.6,3,10.2,4.7l2.5,1.2c0.3,0.1,0.5,0.2,0.8,0.3V83.4C1076.8,81.9,1073.5,80.3,1070.3,79z"/>
<polygon class="st1" points="1036.8,91.1 992.8,163.5 1036.8,192 1080,187 1080,94.1 1074,91.3 "/>
<path class="st3" d="M861.4,247.5c-4.6-0.4-11.5-1.4-15.9-1.5c-4.7,0-9.3-4.4-13.7-4.1c-4.6,0.4-9.4,0.5-13.8,1.2
	c-4.5,0.8-9.3,1.5-13.6,2.7c-4.4,1.2-7.1,7.7-11.3,9.3s-10.7-1.5-14.7,0.5s-5.1,9.5-8.9,11.9s-9.5,2.1-13.1,4.8s-4,9.2-7.4,12.2
	s-9,3.6-12.1,6.8s-4.9,7.8-7.7,11.2c-3,3.6-6.4,6.6-9,10.1c-2.8,3.8-8.8,5.3-11.1,9c-2.6,4.1-0.4,10.7-2.4,14.4
	c-2.5,4.5-5,8.2-6.6,11.7c-3.6,7.7-7.8,9.8-7.8,9.8c6-3.4,8.6,1.2,14.7-2.2s3.5-7.9,9.5-11.3s8.8,1.5,14.8-1.9s3.4-8,9.5-11.4
	s5.4-4.5,11.4-7.9s7.2-1.3,13.2-4.7s6.7-2.1,12.8-5.5s4.7-5.8,10.7-9.2s8.8,1.5,14.8-1.9s4.5-6.1,10.6-9.5s4.5-6.2,10.5-9.6
	s7.3-1.1,13.3-4.5s7.2-1.4,13.2-4.8s4-7,10-10.4s8,0.1,14-3.2s5.5-4.3,11.6-7.7s5.2-5,11.2-8.3s6.6-2.4,12.6-5.8s4.4-6.4,10.4-9.8
	c6-3.4,6.6-2.4,12.6-5.8s5.4-4.6,11.4-8c6-3.4,9.5,2.8,15.6-0.6s5.2-4.8,11.3-8.2c6-3.4,4.8-5.6,10.8-9c6-3.4,4.7-5.9,10.7-9.2
	c6-3.4,6.5-2.5,12.6-5.9c6-3.4,7.6-0.6,13.7-3.9c6-3.4,3.9-7.2,10-10.6c6-3.4,7.1-1.5,13.1-4.9c6-3.4,7.1-1.5,13.1-4.9
	c6-3.4,5-5.3,11-8.7c6-3.4,6.1-2.3,10.9-7.2c2-2,2-0.5,0.6-2.9c-4.3-2-6.4-6.5-10.6-8.2c-4.4-1.8-8.6-4-12.9-5.5
	c-4.5-1.5-9.7-0.7-14-1.9c-4.6-1.3-8.8-3.8-13.2-4.7c-4.7-1-9.2-3.3-13.6-3.8c-4.7-0.6-9.7-0.3-14.1-0.4c-4.8-0.2-9.2,6-13.7,6.3
	c-4.8,0.3-9.2-0.3-13.6,0.5c-4.7,0.8-10.4-3.1-14.7-1.8c-4.5,1.4-8.2,5.2-12.4,7c-4.3,1.9-7.2,6.1-11.2,8.4
	c-3.9,2.3-7.8,4.8-11.4,7.5c-3.7,2.8-10.6,2-13.9,5.1s-2.2,10.8-5.3,14.2s-7.4,5.8-10.1,9.4c-2.7,3.7-4.3,8.2-6.7,12
	c-2.5,4-6.5,7-8.6,10.9c-2.3,4.2-5.7,7.8-7.5,11.8c-2,4.5,0.1,10.4-1.4,14.4c-1.9,4.9-8.9,7.4-10.1,11.1
	C857.2,238.6,866.7,243.1,861.4,247.5z"/>
<polygon class="st3" points="1080,137.9 1036.2,142.1 678.6,364.8 1080,364.8 "/>
<ellipse transform="matrix(0.6027 -0.798 0.798 0.6027 173.1691 943.384)" class="st0" cx="1033.9" cy="297.8" rx="13.2" ry="7.5"/>
<ellipse transform="matrix(0.9964 -8.419959e-02 8.419959e-02 0.9964 -12.8234 81.5133)" class="st0" cx="960" cy="192.8" rx="11.7" ry="21.2"/>
<ellipse transform="matrix(0.9822 -0.1877 0.1877 0.9822 -48.6109 126.4713)" class="st0" cx="643.4" cy="319.9" rx="15.6" ry="8.9"/>
<ellipse transform="matrix(0.9852 -0.1712 0.1712 0.9852 -41.6376 97.9391)" class="st0" cx="546.9" cy="290.3" rx="7" ry="12.3"/>
<ellipse transform="matrix(0.9255 -0.3788 0.3788 0.9255 -98.739 120.3563)" class="st0" cx="256.5" cy="311.1" rx="8.9" ry="15.6"/>
<ellipse transform="matrix(0.9815 -0.1917 0.1917 0.9815 -44.4232 162.9341)" class="st0" cx="820" cy="311.1" rx="15.6" ry="8.9"/>
<ellipse transform="matrix(0.5573 -0.8303 0.8303 0.5573 294.542 957.3154)" class="st0" cx="1045" cy="202.4" rx="8.9" ry="15.6"/>
<ellipse transform="matrix(0.7071 -0.7071 0.7071 0.7071 -82.6734 422.635)" class="st0" cx="468.8" cy="311.1" rx="15.6" ry="8.9"/>
<ellipse transform="matrix(0.9509 -0.3095 0.3095 0.9509 -56.1873 23.2904)" class="st0" cx="45.3" cy="188.7" rx="9.3" ry="16.9"/>
<ellipse transform="matrix(0.9343 -0.3564 0.3564 0.9343 -60.8334 61.4749)" class="st0" cx="136.4" cy="195.8" rx="21.2" ry="11.7"/>
<path class="st2" d="M355.6,254c-0.9-1.1-1.7-2.2-2.4-3.4c-1.4-2.2-2.3-3.5-7.1-7.5c-1-1-1.9-2.1-2.7-3.2c-1.9-2.9-4.3-5.4-7-7.5
	c-2.6-1.8-5.8-2.3-8.6-2.6c-2-0.3-4.2-0.6-5.5-1.3c-1.3-0.9-2.5-2-3.5-3.2c-2-2.4-4.5-4.5-7.3-6.1c-3-1.5-6.2-1.5-9-1.5
	c-2,0-4,0-5.3-0.5c-1.6-0.8-3-1.7-4.4-2.7c-2.3-1.7-4.9-3.2-7.6-4.3c-2.8-0.8-5.6-1.2-8.5-1c-1.8,0.1-3.7,0-5.5-0.4
	c-0.7-0.2-2.1-2.1-3-3.1c-2.1-2.5-4.6-5.7-8.5-6.7c-2.6-0.6-5.2-1-7.9-1.1c-2-0.1-4-0.4-5.9-0.8c-2.6-0.5-5.2-0.7-7.9-0.8
	c-1,0-2-0.1-2.9-0.1c-0.7-2.4-1.7-6-3.1-10.6c-0.3-1.5-0.3-3-0.2-4.4c0.1-3,0.1-6.7-1.2-10.3c-1.2-3.1-3.6-5.3-5.8-7.3
	c-1.6-1.4-3.2-2.9-3.8-4.3c-0.4-1.6-0.6-3.2-0.4-4.9c0-3.2,0-6.8-1.8-10.1c-1.8-3.5-5.4-5.1-8.6-6.6c-1.6-0.7-3.9-1.8-4.4-2.6
	c-0.5-0.8-0.5-3-0.6-4.7c-0.1-3.4-0.2-7.2-2.5-10.5c-1.9-2.4-4.2-4.5-6.7-6.1c-1.6-1.1-3-2.3-4.4-3.6c-3-3.6-6.4-6.8-10.1-10.4
	c-3.3-3.1-6.9-6.1-10.5-8.9l-0.6-0.4c-2.4-1.8-5.1-3.3-7.9-4.5c-1.7-0.7-3.3-1.6-4.8-2.5c-1.3-1-2.5-2.3-3.5-3.7
	c-1.9-2.4-4.1-5.1-7.4-6.7l-1.6-0.8c-3.9-2-7.9-3.7-12-5.2c-1.4-0.5-2.8-1-4.3-1.6c-3.2-1.3-6.4-2.4-9.8-3.2
	c-3.1-0.5-6.2-0.5-9.3,0.1c-1.9,0.3-3.8,0.4-5.7,0.3c-1.7-0.4-3.3-0.9-4.8-1.7c-2.8-1.3-6-2.7-9.6-2.7l0,0c-4,0-7.1,2.5-9.9,4.7
	c-1.3,1.1-3.4,2.7-4.3,2.8s-2.9-0.9-4.4-1.6c-3-1.4-6.7-3.2-10.7-2.5L57,62.1c-3.5,0.6-7.2,1.1-10.9,2c-3.2,0.8-6.5,1.9-9.8,2.9
	c-1.4,0.4-2.8,0.9-4.2,1.3c-4.8,1.5-9.4,3-13.7,4.6c-3.5,1.3-5.7,4.1-7.7,6.7c-1.2,1.6-2.6,3.3-3.6,3.8c-1.7,0.7-3.4,1.3-5.3,2L0,86
	v10.3c1.6-0.7,3.2-1.2,5-1.8c2-0.7,4-1.4,6-2.2c3.4-1.4,5.5-4.2,7.5-6.7c1.1-1.4,2.5-3.2,3.4-3.5c4.2-1.6,8.6-3,13.2-4.5
	c1.4-0.4,2.9-0.9,4.3-1.4c3.2-1,6.2-2,9-2.7c3.3-0.8,6.8-1.3,10.1-1.9l3.6-0.6c1-0.2,3.2,0.9,4.9,1.7c2.8,1.3,5.9,2.8,9.4,2.5
	c3.8-0.3,6.8-2.7,9.5-4.8c1.2-0.9,3.2-2.5,3.9-2.6c1.6,0,3.6,0.9,5.7,1.9c2.5,1.2,5.1,2.1,7.8,2.5c2.6,0.2,5.3,0.1,7.9-0.4
	c2-0.4,4.1-0.5,6.1-0.3c2.8,0.7,5.6,1.6,8.3,2.8c1.6,0.6,3.1,1.2,4.8,1.8c3.7,1.4,7.4,3,10.9,4.8l1.6,0.8c1.3,0.6,2.6,2.3,4.1,4
	c1.6,2.3,3.6,4.2,5.9,5.8c1.9,1.1,3.8,2.1,5.9,3c2.1,0.9,4.1,2,6,3.3l0.6,0.4c3.5,2.8,6.8,5.3,9.8,8.2c3.6,3.5,6.7,6.5,9.4,9.8
	c1.8,1.9,3.8,3.7,6,5.1c1.7,1.1,3.3,2.5,4.6,4c0.6,0.8,0.7,3.2,0.7,5.1c0.1,3.1,0.2,6.5,2,9.5c2,3.3,5.5,4.9,8.6,6.3
	c1.4,0.6,3.7,1.7,4.1,2.3c0.6,1.2,0.6,3.5,0.7,5.6c0,2.8,0,5.9,1.3,8.8c1.4,3.2,3.9,5.5,6.1,7.5c1.4,1.2,2.9,2.7,3.3,3.6
	c0.7,1.9,0.7,4.2,0.6,6.7c-0.2,2.5,0,5.1,0.7,7.5c2.5,8.1,3.8,13.2,3.8,13.3c0.5,1.9,2,3.3,3.9,3.6c2.4,0.4,4.8,0.6,7.3,0.6
	c2.1,0,4.1,0.2,6.2,0.5c2.4,0.5,4.7,0.8,7.1,0.9c2.1,0.1,4.2,0.4,6.3,0.9c0.8,0.2,2.4,2.2,3.4,3.5c2,2.4,4.2,5.2,7.6,6.3
	c2.7,0.7,5.6,1,8.4,0.9c1.7-0.1,3.5,0,5.1,0.4c2,0.8,3.8,1.9,5.5,3.2c1.9,1.4,3.9,2.6,6,3.6c3.1,1.3,6.3,1.3,9.2,1.3
	c1.8,0,3.8,0,4.7,0.4c1.7,1.1,3.3,2.4,4.5,4c1.6,1.9,3.5,3.6,5.6,5c3,1.8,6.2,2.2,9.1,2.6c1.6,0.2,3.7,0.5,4.4,1
	c1.8,1.5,3.4,3.3,4.7,5.2c1.2,1.8,2.6,3.4,4.2,4.9c3.9,3.3,4.3,4,5.2,5.4c0.9,1.4,1.9,2.8,3,4.2c1.7,2.1,4.7,2.4,6.8,0.7
	C356.8,259,357.2,256,355.6,254L355.6,254z"/>
<path class="st0" d="M632.7,183.4c0,0-5.7-21.9,18.6-25.1c0,0,18-2.3,17.5,15.4c0,0,17.4-7.8,20.1,12.6c0,0,4.4,21.6-16.9,21.4
	c0,0,16.2,1.8,16.5,18c0,0,1.3,21.8-20.2,15.5c0,0-4.2,19.6-25,9.3c0,0-12.3-6.3-7.8-21.6c0,0-12.9,17.4-30,5.9
	c0,0-17.4-12.4-0.1-26c0,0-13.9-9.2-3.1-24C602.1,184.9,612.8,168.7,632.7,183.4z"/>
<path class="st2" d="M654.2,257c-4.4-0.2-8.7-1.3-12.6-3.4c-5.9-3.3-9.9-9.2-10.6-15.8c-6.8,4.6-16.8,7.2-27.7,0l-0.1-0.1
	c-0.4-0.3-9-6.6-9.3-15.8c-0.1-4.6,1.9-9,5.8-13.1c-2.6-2.7-4.4-6.1-5.1-9.9c-1-5.3,0.5-10.8,4.5-16.2c3.4-4.6,8.3-7.7,13.9-8.8
	c5-0.9,10.2,0,15.5,2.7c0.1-4.2,1.4-8.3,3.7-11.9c3.7-5.5,10-8.9,18.5-10c0.4,0,9.8-1.2,16.2,4.5c2.8,2.5,4.6,6,5.1,9.7
	c4-0.9,8.1-0.3,11.7,1.5c4.7,2.6,7.6,7.7,8.6,15.1c0.3,1.4,1.9,11.8-4,19c-1.3,1.6-2.9,3-4.8,4c4.5,3.3,8.2,8.7,8.4,16.9
	c0.1,1.1,0.3,11.5-6.6,17c-3.8,3-8.7,3.9-14.8,2.8c-1.3,3.1-4,7.6-9,10C659.3,256.5,656.8,257.1,654.2,257z M635.4,225.4
	c2,0,3.5,1.6,3.5,3.5c0,0.3,0,0.7-0.1,1c-3.6,12.3,5.6,17.2,6,17.4c5.6,2.8,10.2,3.4,13.7,1.7c4.8-2.3,6.2-8.5,6.3-8.6
	c0.4-1.9,2.3-3.1,4.2-2.7c0.1,0,0.2,0,0.3,0.1c5.2,1.5,9.2,1.3,11.7-0.7c3.6-2.8,4.1-9,3.9-11.2v-0.1c-0.2-12.6-12-14.4-13.3-14.6
	c-1.9-0.2-3.4-1.9-3.2-3.9c0.2-1.8,1.8-3.2,3.6-3.2c5,0.1,8.7-1.3,10.9-3.9c4-4.9,2.5-13.1,2.5-13.2c0-0.1,0-0.2,0-0.2
	c-0.7-5.1-2.4-8.4-5.1-9.9c-4.2-2.4-10,0.1-10.1,0.1c-1.8,0.8-3.9,0-4.7-1.8c-0.2-0.5-0.3-1-0.3-1.6c0.1-4-0.9-7-3-9
	c-3.9-3.5-10.5-2.8-10.5-2.8c-6.4,0.8-11,3.2-13.5,7c-4,5.9-2.1,13.6-2.1,13.7c0.5,1.9-0.6,3.8-2.5,4.3c-1,0.3-2.2,0.1-3-0.6
	c-5.9-4.4-11.4-6.1-16.2-5.2c-3.7,0.7-7,2.8-9.3,5.9L605,187c-2.8,3.8-3.9,7.4-3.3,10.8c0.9,5,5.4,8.1,5.4,8.2
	c1.6,1.1,2.1,3.3,1,4.9c-0.2,0.3-0.5,0.6-0.8,0.8c-4.2,3.3-6.3,6.7-6.3,10.1c0.1,5.5,5.8,9.8,6.3,10.2c14.2,9.4,24.7-4.6,25.2-5.1
	C633.2,225.9,634.3,225.4,635.4,225.4L635.4,225.4z"/>
<path class="st4" d="M639.1,209.4L639.1,209.4l-21.5-0.8c-1.5,0-2.7-1.3-2.6-2.8c0,0,0,0,0,0c0.1-1.5,1.3-2.7,2.8-2.6l21.4,0.7
	c1.5,0,2.7,1.3,2.7,2.8C641.8,208.2,640.6,209.4,639.1,209.4L639.1,209.4z"/>
<path class="st4" d="M651.8,203.9c-0.5,0-1-0.1-1.4-0.4c-1.3-0.8-1.7-2.5-0.9-3.7l9.7-15.6c0.8-1.3,2.5-1.7,3.7-0.9
	c1.3,0.8,1.7,2.5,0.9,3.7l-9.7,15.6C653.6,203.4,652.7,203.9,651.8,203.9z"/>
<path class="st4" d="M661,230.9c-0.9,0-1.7-0.4-2.2-1.2l-8-11.8c-0.8-1.2-0.5-2.9,0.7-3.8c1.2-0.8,2.9-0.5,3.8,0.7l8,11.8
	c0.8,1.2,0.5,2.9-0.7,3.8C662.1,230.7,661.6,230.9,661,230.9z"/>
<path class="st1" d="M1050.8,81.6c0.9-11.3-18-10.6-28.4-13.3c0-0.2,9.7-10.2,9.7-10.3c-0.5-13.7-12.1-24.5-25.8-24
	c-8,0.3-8.7,14.9-13,20.9c-1.8-0.6-10-11.5-11.9-11.7c-13.7-1.2-25.9,8.9-27.1,22.6c0,0,0,0,0,0c-0.5,5.1,13.2,10.1,15.5,14.3
	c-2.9,4.2-17.1,9.3-16.9,14.8c0.5,13.8,12.1,24.5,25.8,24c4.3-0.2,6.6-9,10.1-11.1c4.6,7.3,14.6,24.2,23.8,23.1
	c24.3-3,12-18.5,13.4-30.5C1034.9,96.5,1048.6,108.9,1050.8,81.6z"/>
<path class="st5" d="M1033.9,84.8c-0.3-9.6-6.5-17.4-14.8-19.6c0-0.1,0-0.3,0-0.4c-0.3-11.7-9.5-20.8-20.5-20.3
	c-6.4,0.3-3,4.8-6.5,10c-1.4-0.5-11.8-1.8-13.4-1.9c-10.9-1-20.7,7.7-21.7,19.4c-0.4,4.4,13.6,3.9,15.5,7.4
	c-2.3,3.6-16.8,12.7-16.7,17.4c0.3,11.7,9.5,20.8,20.5,20.4c3.4-0.2,14.3-12.4,17.1-14.1c3.6,6.2,2.3,21.4,9.7,21
	c9.9-0.4,17.9-8.6,19.1-18.9C1029.6,101.2,1034.2,93.3,1033.9,84.8z"/>
<path class="st2" d="M1008.5,135.8c-2.3,0-4.7-0.3-6.9-0.9c-9-2.7-10.7-14.2-11.4-23.9c-2.7,3.9-5.7,8.2-9.3,10.9
	c-6.2,4.7-15.5,3-23.3-4.2c-10.2-9.4-10.5-20.3-6.6-26.5c3.3-5.1,8.3-9,14.1-11c-8.9-3.8-13.6-8.3-14.5-13.8
	c-1.3-7.7,1.2-15.6,6.7-21.2c5.9-6.1,14.4-9.1,22.8-7.9c4.6,0.6,8.3,6,12.3,13.2c0-0.1,0-0.2,0-0.4c1-7.4,2.2-15.7,12.5-19.7
	c4.6-1.8,10.2-1.2,15.8,1.5c7.7,3.8,14.2,11.3,16.4,19.1c1.2,4-0.1,8.3-3.2,11c-1.3,1.2-3,2.6-4.8,4c8.9-0.9,18.7-1.6,23.7,6.8l0,0
	c2.5,4.1,2.9,15.5-0.5,23.4c-2.2,5.2-5.8,8.5-10.3,9.6c-4,0.9-8.5-0.3-12.8-1.9c3.8,6.1,6.1,11.6,4.5,15.8
	c-2.7,7.1-8.7,12.5-16,14.6C1014.7,135.3,1011.6,135.8,1008.5,135.8z M993.2,97.6c0.6,0,1.1,0.1,1.6,0.4c1.1,0.5,1.9,1.6,2.1,2.8
	c0.2,1.8,0.4,3.8,0.5,6.3c0.5,7.1,1.3,19.1,6.3,20.6c4.5,1.3,18.3,1.3,22.9-10.6c0.8-2.4-5.4-11.7-7.5-14.7c-1.1-1.6-2-2.9-2.7-4.1
	c-1.1-1.8-0.5-4.1,1.3-5.1c0.8-0.5,1.7-0.6,2.6-0.5c2.5,0.6,4.9,1.5,7.2,2.5c4.1,1.7,9.7,4.1,12.7,3.4c2.1-0.5,3.8-2.1,5-4.9
	c2.8-6.3,2-15.2,1.1-16.9c-2.6-4.3-8.5-4.1-17.8-3.1c-3.7,0.5-7.4,0.7-11.1,0.6c-2-0.1-3.5-1.7-3.6-3.7c0-1.9,0-2,5-6
	c3.1-2.5,7.3-5.9,10-8.3c0.9-0.8,1.3-2.1,0.9-3.3c-1.7-5.8-6.7-11.6-12.5-14.5c-3.7-1.8-7.1-2.3-9.8-1.2c-6,2.3-6.8,6.3-7.8,13.7
	c-0.4,3.6-1.1,7.2-2.2,10.7c-0.7,1.9-2.8,3-4.7,2.3c-2-0.7-3-2.5-5.6-7.3c-1.7-3.1-6.2-11.4-8.3-12.2c-6-0.8-12,1.3-16.3,5.7
	c-3.9,3.9-5.6,9.4-4.7,14.7c0.4,2.1,3.1,6.3,17.5,10.9c2,0.6,3.1,2.7,2.5,4.7c-0.1,0.3-0.3,0.7-0.5,1c-1.8,2.6-4.7,3.7-7.8,4.8
	c-4.1,1.5-8.7,3.2-12.3,8.8c-3.2,4.9,0.3,12.2,5.4,16.9c4.1,3.8,10.1,6.5,13.7,3.8c2.8-2.1,5.6-6.2,8-9.8c2.6-3.8,4.6-6.7,6.9-8.1
	C991.8,97.8,992.5,97.6,993.2,97.6z"/>
<circle class="st3" cx="1000.7" cy="82.3" r="15.7"/>
<path class="st1" d="M443.3,195.4c-4.3-12-23.5-2.6-35.5-0.5c-0.1-0.2,5.3-15,5.2-15.1c-6.9-13.9-23.8-19.7-37.8-12.7c0,0,0,0,0,0
	c-8.1,4-2,19.3-3.7,27.6c-2.1,0.2-15.6-7.2-17.7-6.5c-14.7,5.1-22.5,21.1-17.4,35.8c1.9,5.5,18.3,4.3,22.6,7.6
	c-1,5.7-13.3,17.5-10.5,23.1c6.9,13.9,23.8,19.7,37.8,12.7c0,0,0,0,0,0c4.4-2.2,2.6-12.4,5.2-16.1c8.1,5.4,26.3,18.2,35.2,12.8
	c23.6-14.4,3.8-24.6-0.3-37.6C433.8,218.1,453.6,224.5,443.3,195.4z"/>
<path class="st5" d="M427.4,206.5c-4.8-9.8-14.8-14.9-24.4-13.3c-0.1-0.1-0.1-0.3-0.2-0.4c-5.8-11.9-19.5-17.1-30.5-11.5
	c-6.5,3.3-0.9,6.3-2.1,13.3c-1.7,0.1-13,3.6-14.7,4.2c-11.7,4.1-17.7,17.5-13.4,30.1c1.6,4.7,15.9-2.3,19.4,0.5
	c-0.7,4.8-11.5,20.9-9.1,25.7c5.8,11.9,19.5,17.1,30.5,11.5c3.5-1.8,9-19.4,11-22.5c6.6,4.7,12.3,20.9,19.8,17.1
	c10-5.1,14.4-17.2,10.9-28.3C430.5,225.4,431.7,215.1,427.4,206.5z"/>
<path class="st2" d="M374,277.2c-3.4,0-6.7-0.6-9.9-1.7c-14.6-4.9-20-15.7-18.8-23.6c1.4-9.4,6.2-14.7,10.1-18.5
	c-11.5,0.4-18.6-1.9-22.1-7.2c-4.9-7.2-5.9-16.3-2.9-24.5c3.2-8.9,10.4-15.7,19.5-18.4c5.1-1.5,11.6,2.7,19.6,8.7
	c-0.2-0.6-0.4-1.2-0.5-1.8c-2.3-7.9-5-16.9,3.6-25.7c3.8-3.9,9.7-5.9,16.6-5.6c9.6,0.3,19.6,5,25.4,11.9c2.9,3.4,3.6,8.2,1.8,12.4
	c-1,2.2-2.4,5-3.8,7.8l0.2-0.1c8.9-5.2,19.1-11.1,28.3-4.8l0,0c4.4,3,9.9,14.6,10.2,23.9c0.2,6.2-1.9,11.2-6,14.3
	c-3.9,3-9.6,3.7-15.3,3.9c7.3,4.8,12.7,9.4,13,14.7c0.5,8.4-3,16.6-9.5,22.1c-4.5,4.1-10.1,6.8-16.1,7.9
	c-10.6,1.4-17.8-10.5-23-20.3l-0.1,0.6c-1,5.4-2.1,11.6-4.6,16.2C386.8,274.4,381,277.2,374,277.2z M363.5,225.2
	c2.1,0,3.8,1.7,3.8,3.7c0,0.2,0,0.4-0.1,0.7c-0.6,3.4-3.1,5.8-5.7,8.3c-3.6,3.5-7.6,7.4-8.8,15c-1,6.8,6.2,12.9,13.7,15.4
	c6.3,2.1,13.9,2.1,16.5-2.7c1.9-3.5,2.9-9,3.8-13.9s1.6-8.9,3.3-11.3c1.2-1.7,3.5-2.1,5.2-0.9c0.4,0.3,0.7,0.6,1,1.1
	c1.1,1.7,2.2,3.8,3.5,6.2c3.9,7.2,10.3,19.4,16.6,18.5c5.4-0.7,19.9-7.3,19.1-22.1c-0.2-3.1-11.2-9.9-14.8-12.1
	c-1.8-1.1-3.4-2.1-4.6-2.9c-1.7-1.2-2.1-3.5-0.9-5.2c0.5-0.8,1.3-1.3,2.2-1.5c2.8-0.5,5.6-0.7,8.5-0.7c5.1-0.1,12.1-0.3,14.9-2.5
	c2.1-1.6,3.1-4.3,3.1-8c-0.2-8-5.3-16.9-6.9-18c-5-3.4-11-0.4-20.3,5.1c-3.5,2.2-7.2,4.1-11.1,5.8c-1.8,0.7-3.9-0.1-4.8-1.9
	c-0.8-1.7-0.8-1.7,2.4-8c2-4,4.8-9.5,6.5-13.2c0.7-1.4,0.4-3.1-0.6-4.3c-4.5-5.3-12.5-9-20-9.2c-4.8-0.2-8.7,1-11,3.4
	c-5.3,5.4-4.2,9.9-1.8,18.3c1.3,3.9,2.2,7.9,2.6,11.9c0.2,2-1.3,3.9-3.4,4.1c-2.2,0.2-4-1.1-8.8-4.8c-3-2.3-12-9.2-14.6-8.8
	c-6.7,2-12.1,7.1-14.5,13.8c-2.2,5.9-1.5,12.5,2,17.8c1.4,2.1,6.4,5.3,23.5,3.3L363.5,225.2z"/>
<circle class="st3" cx="392" cy="219.4" r="17.7"/>
<path class="st3" d="M0.7,131.6c0,0-0.7-0.2-0.7,2.2v8.8h13.7L0.7,131.6z"/>
<polygon class="st3" points="328.7,364.8 715.8,364.8 709.2,343.6 379.9,329.7 "/>
<path class="st0" d="M68.2,37.7c0,0-15.8-16.3,3.8-30.9c0,0,14.6-10.9,22.8,4.8c0,0,11.3-15.4,23.7,1c0,0,14.5,16.7-4.2,26.9
	c0,0,15-6.4,23.2,7.6c0,0,11.9,18.3-9.9,23.4c0,0,6,19.2-17.2,20.4c0,0-13.8,0.6-17.4-14.9c0,0-2.7,21.5-23.2,20
	c0,0-21.3-2.3-12.9-22.6c0,0-16.6-1.2-14.5-19.4C42.3,54,43.7,34.7,68.2,37.7z"/>
<path class="st2" d="M71.8,99.6c-0.8,0-1.5,0-2.3-0.1h-0.1c-0.4,0-11.1-1.3-15.8-9.2c-2.4-4-2.8-8.8-1.3-14.2
	c-3.6-1.1-6.8-3.2-9.3-6c-3.5-4.2-4.8-9.6-4.1-16.3c0.7-5.6,3.4-10.8,7.8-14.5c3.9-3.2,8.8-5,14.8-5.3c-2-3.7-2.9-7.9-2.6-12.2
	C59.3,15.2,63,9.2,69.9,4c0.3-0.2,8-5.9,16.3-4c3.7,0.9,6.9,3,9.2,6c3-2.7,6.9-4.3,10.9-4.4c5.4,0,10.4,3,14.9,8.9
	c0.9,1.1,7.5,9.3,5.9,18.5c-0.4,2-1.1,3.9-2.2,5.7c5.5,0.7,11.4,3.5,15.6,10.6c0.6,1,6,9.9,2.7,18.1c-1.8,4.5-5.7,7.7-11.5,9.7
	c0.4,3.4,0.3,8.6-2.9,13.1c-3.5,5.1-9.6,7.9-18.2,8.3c-6.7,0.1-13-3.1-17-8.6C90.1,92.8,83.3,99.6,71.8,99.6z M70.1,92.5
	c16.8,1.2,19.3-16.2,19.4-16.9c0.2-1.7,1.6-3,3.3-3.1c1.7-0.1,3.2,1.1,3.6,2.7c2.9,12.5,13.4,12.2,13.8,12.2
	c6.2-0.3,10.5-2.1,12.7-5.2c3.1-4.4,1.3-10.5,1.3-10.6c-0.6-1.9,0.5-3.9,2.3-4.4c0.1,0,0.1,0,0.2-0.1c5.3-1.2,8.6-3.4,9.8-6.4
	c1.7-4.2-0.9-9.9-2.1-11.7l-0.1-0.1c-6.4-10.9-17.5-6.7-18.8-6.2c-1.8,0.8-3.9,0.1-4.7-1.7c-0.8-1.8-0.1-3.8,1.6-4.7
	c4.4-2.4,6.9-5.3,7.6-8.7c1.1-6.3-4.3-12.7-4.3-12.8s-0.1-0.1-0.2-0.2c-3.1-4.1-6.2-6.2-9.3-6.2c-4.8,0-8.6,5-8.7,5.1
	c-1.2,1.6-3.4,1.9-5,0.8c-0.4-0.3-0.8-0.7-1-1.2c-1.9-3.6-4.3-5.7-7-6.3c-5.1-1.2-10.5,2.7-10.5,2.8c-5.2,3.9-8,8.2-8.3,12.7
	c-0.6,7,4.9,12.9,5,13c1.4,1.4,1.4,3.6,0,5c-0.8,0.8-1.9,1.1-3,1c-7.3-0.9-12.9,0.3-16.7,3.4c-2.9,2.5-4.7,5.9-5.2,9.7
	c0,0.1,0,0.1,0,0.2c-0.5,4.7,0.3,8.4,2.5,11c3.3,3.9,8.7,4.4,8.8,4.4c1.9,0.1,3.4,1.8,3.3,3.8c0,0.4-0.1,0.7-0.3,1.1
	c-2,5-2.2,9-0.5,11.9C62.4,91.3,69.4,92.4,70.1,92.5L70.1,92.5z"/>
<path class="st4" d="M66.3,67.4c-1.5,0-2.7-1.2-2.8-2.7c0-1,0.6-2,1.5-2.5l19-9.9c1.3-0.7,3-0.2,3.7,1.1c0.7,1.3,0.2,3-1.2,3.7
	l-19,9.9C67.1,67.3,66.7,67.4,66.3,67.4z"/>
<path class="st4" d="M93.6,46.6h-0.1c-1.5-0.1-2.7-1.3-2.6-2.8l0.8-18.4c0.2-1.5,1.6-2.5,3.1-2.3c1.3,0.2,2.3,1.3,2.3,2.6L96.2,44
	C96.2,45.4,95,46.5,93.6,46.6z"/>
<path class="st4" d="M114.9,65.5c-0.4,0-0.8-0.1-1.2-0.3l-12.8-6.3c-1.3-0.7-1.9-2.3-1.2-3.6s2.3-1.9,3.6-1.2l12.8,6.3
	c1.3,0.7,1.9,2.3,1.2,3.6C116.9,64.9,116,65.5,114.9,65.5z"/>
</svg>
