<svg id="圖層_1" data-name="圖層 1" xmlns="http://www.w3.org/2000/svg" xmlns:xlink="http://www.w3.org/1999/xlink" viewBox="0 0 1080 616.71"><defs><style>.cls-1,.cls-12,.cls-13,.cls-3,.cls-7,.cls-9{fill:none;}.cls-11,.cls-2,.cls-5{fill:#fff;}.cls-3{stroke:#e5efd0;stroke-miterlimit:10;}.cls-13,.cls-3,.cls-5{stroke-width:5.91px;}.cls-4{clip-path:url(#clip-path);}.cls-11,.cls-12,.cls-13,.cls-5{stroke:#1a1a1a;}.cls-11,.cls-12,.cls-13,.cls-16,.cls-5,.cls-7,.cls-9{stroke-linecap:round;stroke-linejoin:round;}.cls-6{fill:#e6e6e6;}.cls-7{stroke:#b3b3b3;}.cls-7,.cls-9{stroke-width:4.73px;stroke-dasharray:11.81;}.cls-8{fill:#927b59;}.cls-9{stroke:#a1a1a1;}.cls-10{fill:#ccb399;}.cls-11,.cls-12{stroke-width:4.43px;}.cls-14{fill:#cddc4c;}.cls-15{fill:#7ebc25;}.cls-16,.cls-17{font-size:20.05px;fill:#ee7c00;font-family:FZLTTHB--B51-0, Lantinghei TC;letter-spacing:0.05em;}.cls-16{stroke:#fff;stroke-width:5.9px;}</style><clipPath id="clip-path"><rect class="cls-1" x="306.67" y="127.94" width="469.57" height="332.02" transform="translate(30.79 -50.73) rotate(5.52)"/></clipPath></defs><title>互動設計UI</title><rect class="cls-2" width="1080" height="616.71"/><ellipse class="cls-3" cx="540" cy="300.48" rx="291.69" ry="226.72"/><g class="cls-4"><rect class="cls-5" x="306.67" y="127.94" width="469.57" height="332.02" transform="translate(30.79 -50.73) rotate(5.52)"/><ellipse class="cls-6" cx="440.64" cy="301.18" rx="3.3" ry="5.78" transform="matrix(0.36, -0.93, 0.93, 0.36, -0.32, 601.89)"/><path class="cls-7" d="M499.75,294.27C498,284,495,266.94,492.56,259.1c0,0,17.38-16.63,4.49-41.39,0,0,9.62-6.9.09-35.91,0,0-17,7.37-25.55,16.08a52.25,52.25,0,0,0-18.72-1.7"/><path class="cls-7" d="M453.27,196.14a52.3,52.3,0,0,0-17.84,5.92c-12.91-8.16-28.54-9.83-28.54-9.83-2.66,30.42,8.28,35,8.28,35-6.91,27,13.81,39.26,13.81,39.26-3,15.15-7.51,37.59-7.85,50.26"/><ellipse class="cls-8" cx="440.64" cy="301.18" rx="3.3" ry="5.78" transform="matrix(0.36, -0.93, 0.93, 0.36, -0.32, 601.89)"/><path class="cls-9" d="M499.75,294.27C498,284,495,266.94,492.56,259.1c0,0,17.38-16.63,4.49-41.39,0,0,9.62-6.9.09-35.91,0,0-17,7.37-25.55,16.08a52.25,52.25,0,0,0-18.72-1.7"/><path class="cls-9" d="M453.27,196.14a52.3,52.3,0,0,0-17.84,5.92c-12.91-8.16-28.54-9.83-28.54-9.83-2.66,30.42,8.28,35,8.28,35-6.91,27,13.81,39.26,13.81,39.26-3,15.15-7.51,37.59-7.85,50.26"/><polyline class="cls-6" points="506.13 307.44 501.82 326.83 421.13 316.7"/><polyline class="cls-10" points="607.38 187.39 596.77 315.08 576.94 329.89 577.33 322.68 581.82 263.31 561.53 224 562.35 221.29 585.71 243.06 591.69 183.75"/><line class="cls-11" x1="615.19" y1="192.22" x2="601.77" y2="331.08"/><polyline class="cls-12" points="577.81 304.69 582 261.32 559.6 221.77"/><polyline class="cls-12" points="589.46 182.89 584.44 234.82 569.31 214.81"/><polyline class="cls-10" points="704.1 198.27 687.32 386.9 677.57 387.14 661.76 372.66 680.21 205.67"/><line class="cls-11" x1="714.58" y1="191.92" x2="695.88" y2="385.32"/><line class="cls-11" x1="679.25" y1="209.36" x2="664.76" y2="359.27"/><path class="cls-2" d="M779.89,495.3s-2.47-126.92-127.43-139.92c0,0-19.5-3.27-27.7.55,0,0-15.31-36.95-62.39-64.54,0,0-42-9.12-67.93,2.19l-22.51,8.88s-6.86,9-21.35,1.62c0,0-32-16.91-82.51,5.38,0,0-59.36,44.52-80.79,88.68,0,0-23.62,37.28-6.64,34.16L330,444.69,607.52,483Z"/><path class="cls-13" d="M272.09,432.06c1.86-4.53,1.34-3.33,4-8.93,1.19-2.5,2.28-5.64,4-9,1.36-2.67,3.44-5.28,5.12-8.37,1.48-2.71,1.48-6.48,3.19-9.45,1.58-2.71,3.39-5.48,5.16-8.36,1.67-2.7,4.68-4.68,6.52-7.48s2.17-6.37,4.08-9.09,3.78-5.33,5.76-8,3.92-5.25,6-7.82,5.6-3.84,7.76-6.32,4.37-4.81,6.62-7.19,4.06-5.18,6.42-7.44,5.7-3.41,8.17-5.55,5.14-3.93,7.73-5.92,4.57-4.76,7.28-6.56,4.91-4.56,7.74-6.16,6.8-1,9.76-2.39,5.53-3.53,8.61-4.63,6.09-2.29,9.27-3.08,6.09-3.29,9.35-3.74,6.67-.12,10-.22,6.56.65,9.87.9,6.36,1.37,9.63,2,5.93,2.63,9.14,3.55,6.09,1.7,9.22,2.91c3,1.15,6,2.08,9,3.54"/><path class="cls-13" d="M773.75,459.8c.89,3.45,1.82,7,2.55,10.67.69,3.5,1.41,7.09,1.94,10.81.51,3.54.7,7.19,1,10.93"/><path class="cls-13" d="M463.27,310.94c3.63-3.23,2.51-2.88,7.5-6.25,2.3-1.56,4.42-4.59,7.61-6.38,2.62-1.47,7.19.31,10.34-1.13,2.81-1.28,5.72-2.37,8.91-3.5,2.95-1,5.63-3,8.87-3.84,3.06-.77,6.43.3,9.72-.18,3.13-.46,6.06-2,9.37-2.13s6.54-3.46,9.85-3.21c3.15.23,6.12,3.32,9.38,3.94,3.1.59,6.7-.23,9.88.76,3,.92,5.24,4.25,8.31,5.57,2.89,1.24,6.13,1.83,9.06,3.45,2.74,1.52,4.08,5.28,6.85,7.16,2.6,1.76,8.28-.51,10.89,1.58,2.45,2,5,4.21,7.49,6.48,2.3,2.13,4.17,5,6.48,7.46,2.16,2.27,2.61,6.27,4.77,8.82,2,2.39,5.57,3.72,7.6,6.37,1.93,2.5.37,7.62,2.28,10.34s4.94,6,6.74,8.84c4.49,2.09,4.89-4.07,11.12-3.83,2.81.11,6.12,1.28,9.86,1.65,3,.29,5.9,3.56,9.4,4.1,3.1.48,6.78-1.59,10.17-.87,3.11.66,5.93,2.9,9.23,3.81,3.09.85,7.37-1.71,10.58-.61s4.38,6.87,7.5,8.16,7.57-.94,10.58.55,4.59,5.28,7.49,7,7.46.53,10.22,2.43,3.56,6.26,6.17,8.37,5.61,3.49,8,5.8,7,2.53,9.21,5,1.93,7.06,4,9.72,1.45,6.85,3.3,9.67,5.59,4.12,7.22,7.06,5.92,4.41,7.34,7.47,1.63,6.56,2.86,9.71-.53,7.12.5,10.34,2.94,5.89,3.79,9.17"/><path class="cls-14" d="M289.89,435.11c2.3-4.28,3.1-2.33,6.28-7.59,1.43-2.36,3.27-5,5.27-8.13,1.62-2.5,1.43-6.54,3.4-9.41,1.73-2.54,3-5.65,5-8.4,1.83-2.54,3.78-5.2,5.82-7.86s6.16-3.31,8.26-5.88,2.1-6.66,4.26-9.15,5.24-4,7.48-6.41,3.71-5.44,6-7.75,5-4.15,7.46-6.34,6-3,8.47-5.08,5.1-3.94,7.7-5.86,5.3-3.65,8-5.41,4.13-5.78,6.95-7.34,7.06-.45,10-1.77,5.64-3.18,8.69-4.23a91.53,91.53,0,0,1,9.29-2.61c3.16-.73,6.34-.67,9.57-1a75.61,75.61,0,0,1,9.54-.31c3.21.05,6.55-1.84,9.81-1.37s6.11,2.19,9.31,3.08,5.75,2.64,8.84,3.89a87.58,87.58,0,0,1,8.73,4"/><path class="cls-14" d="M466.49,335.22c3.69-3.22.45-5.4,5.52-8.71,2.34-1.53,4.75-4.22,8-5.95,2.67-1.42,6.38-1.52,9.59-2.88,2.87-1.2,5.42-4.16,8.67-5.17a81.32,81.32,0,0,1,19.63-4.21,91.52,91.52,0,0,1,10.08-.68c3.18.07,6.24,4.19,9.56,4.65,3.14.44,5.77,2.8,9,3.65,3.06.81,7.66-2.91,10.8-1.69a97.59,97.59,0,0,1,9.09,4.19c2.81,1.45,6.19,2.58,9,4.41,2.65,1.7,3.57,6.24,6.24,8.31,2.5,1.92,3.54,5.6,6,7.86s6.32,2.56,8.67,5c2.2,2.26,4.19,4.84,6.39,7.39,2.06,2.4,5.08,4.16,7.14,6.82s1.38,6.94,3.31,9.69,4.51,6.27,6.33,9.09c4.6,2,4.7-2.66,11-2.65,2.85,0,6.27-.65,10.06-.37,3.06.22,6.56-.22,10.11.28,3.13.45,6.52,1.12,9.94,1.85,3.14.67,6.08,2.93,9.39,3.89,3.12.9,5.77,3.34,9,4.54,3.05,1.14,5.69,3.1,8.78,4.55s7.89-.89,10.84.81,3.53,6.78,6.32,8.73,5.64,3.25,8.25,5.44,6.57,2.58,9,5,5.15,4.39,7.34,7,3.77,5.58,5.73,8.37,1.28,7,3,9.95,3.32,5.56,4.83,8.63,5.43,4.78,6.72,8c1.23,3,.72,6.79,1.8,10,1,3.08,2.27,6.18,3.17,9.48.85,3.15,4.61,5.75,5.32,9.09s-.67,6.94-.11,10.32"/><polyline class="cls-14" points="291.51 438.37 312.81 402.14 439.35 332.51 479.56 331.53 695.94 439.19 745.66 457.76 761.46 491.27 681.63 489.83"/><ellipse class="cls-15" cx="451.26" cy="358.09" rx="6.29" ry="3.64" transform="translate(-124.17 385.36) rotate(-41.15)"/><ellipse class="cls-15" cx="663.33" cy="397.1" rx="3.64" ry="6.29" transform="translate(222.55 1032.24) rotate(-86.15)"/><ellipse class="cls-15" cx="564.25" cy="426.8" rx="6.29" ry="3.64" transform="translate(-109.86 212.05) rotate(-19.43)"/><ellipse class="cls-15" cx="352.07" cy="405.29" rx="3.64" ry="6.29" transform="translate(-75.96 729.32) rotate(-86.15)"/><ellipse class="cls-15" cx="398.86" cy="370.45" rx="4.58" ry="7.9" transform="translate(-130.98 495.33) rotate(-56.15)"/><ellipse class="cls-15" cx="590.5" cy="387.97" rx="4.58" ry="7.9" transform="translate(71.95 867.88) rotate(-76.09)"/><ellipse class="cls-15" cx="460.11" cy="417.92" rx="7.9" ry="4.58" transform="translate(-160.46 453.19) rotate(-45.5)"/><ellipse class="cls-15" cx="548.52" cy="347.03" rx="7.9" ry="4.58" transform="translate(-88.12 220.57) rotate(-21.09)"/><ellipse class="cls-15" cx="503.75" cy="382.83" rx="4.58" ry="7.9" transform="translate(-108.25 222.25) rotate(-22.53)"/><text class="cls-16" transform="matrix(1, 0.1, -0.1, 1, 623.66, 447.1)">2018.7.10</text><text class="cls-17" transform="matrix(1, 0.1, -0.1, 1, 623.66, 447.1)">2018.7.10</text></g><rect class="cls-13" x="306.67" y="127.94" width="469.57" height="332.02" transform="translate(30.79 -50.73) rotate(5.52)"/></svg>