<svg id="圖層_1" data-name="圖層 1" xmlns="http://www.w3.org/2000/svg" viewBox="0 0 1080 616.71"><title>illustration-failure</title><rect width="1080" height="616.71" style="fill:#fff"/><ellipse cx="540" cy="300.48" rx="291.69" ry="226.72" style="fill:#fff;stroke:#e5efd0;stroke-miterlimit:10;stroke-width:5.909999847412109px"/><polygon points="240.08 257.41 239.57 278.85 269.18 264.56 267.14 241.07 240.08 257.41" style="fill:#fff"/><path d="M816.11,259.26l15.25,9.94s14.22,11,3.46,22.43l-24.67-10.5Z" style="fill:#fff"/><path d="M424.22,272.89c-3.88-2.57-1.2-4.59-6.3-7.54-2.28-1.33-5.83-1.46-9-3.14-2.51-1.35-5.5-2.36-8.49-3.85-2.64-1.31-5.64-2.2-8.61-3.56-2.71-1.24-5-3.65-8-4.9-2.78-1.18-5.72-2.23-8.7-3.37s-6-1.34-9-2.37-6-1.43-9-2.34-5.53-3.16-8.56-3.94-6.43.4-9.49-.24-5.78-2.63-8.86-3.11-6.27.32-9.36,0-6.06-1.95-9.17-2.07-6.23-.24-9.33-.14-6,2-9.14,2.34-6.61-2.15-9.67-1.56-6,2-9,2.85-5.3,3.64-8.2,4.8-6.34,1-9.12,2.44-5.89,2.36-8.52,4.09-3.66,5.47-6.11,7.46-4.32,4.24-6.58,6.47" style="fill:#fff"/><path d="M623.87,263.26c-4-2.29-2.22-3.2-7.27-5.89-2.33-1.23-4.48-3.91-7.57-5.47-2.55-1.29-6.45-.42-9.39-1.83-2.67-1.27-4.43-4.86-7.32-6.16s-6.54-.32-9.42-1.52-5.53-2.69-8.41-3.79-6-1.61-8.86-2.58-6.07-1.25-9-2.05-5.57-3.59-8.47-4.16c-3.18-.62-6.5.53-9.39.33-4.45-.59-3.11-2.14-8.79-2.36-2.53-.09-5.57.55-9,.69-2.73.11-5.71.39-8.93.75-2.8.32-5.46,2.38-8.58,2.95-2.8.5-6.15-1-9.18-.26-2.8.7-5,3.9-7.9,4.84-2.76.88-5.74,1.13-8.61,2.25-2.71,1.05-5.62,1.68-8.42,3-2.64,1.22-6.21.8-8.92,2.25s-3.81,5.21-6.42,6.81-4.92,3.13-7.43,4.88-4.73,3.41-7.15,5.29-5.77,2.24-8.09,4.23-3.2,5.25-5.41,7.36" style="fill:#fff"/><path d="M836.48,270.77c-2.31-2.12-4.76-3.94-7.07-5.87s-5.12-3.45-7.53-5.25-5.25-3.17-7.76-4.84-3.27-6.49-5.87-8-6.26-1.61-9-3-5.26-3.47-8-4.67-6.34-.85-9.19-1.87-6.18-.73-9.09-1.56-5.52-3.14-8.48-3.79-6.33.68-9.33.22-5.89-1.93-8.91-2.2-6.06-1.6-9.1-1.68-6.2-.76-9.24-.67-6,2.62-9,2.88-6.4-1.78-9.41-1.36-6.09,1.26-9.06,1.83-5.56,3.45-8.49,4.17-7-2-9.86-1.18-5.19,4.28-8,5.25c-3,1-6.49.46-9.26,1.55-3,1.16-5.26,3.71-8,4.9-3,1.3-5.62,2.84-8.22,4.12-3,1.46-5.65,2.94-8.12,4.29-3.08,1.68-5.9,2.94-8.12,4.3-5,3-5.26.54-9,3.24" style="fill:#fff"/><path d="M425.49,271c-3.89-2.57-3.14-1.53-8.23-4.48-2.28-1.32-5.27-2.42-8.39-4.09-2.52-1.35-5.32-2.72-8.31-4.21-2.63-1.3-4.85-3.93-7.81-5.29-2.72-1.25-6.84.41-9.8-.84-2.78-1.17-4.82-4.37-7.79-5.51s-6.4-.34-9.39-1.37-4.91-4.86-7.93-5.77-6.7,1-9.74.24-6-1.12-9.08-1.75-5.8-2.46-8.88-2.94-6-2.6-9-2.91-6.35,1.58-9.46,1.47-6.21-1.82-9.31-1.73-6.16,1.4-9.24,1.74-6,1.58-9,2.17-5.86,1.69-8.85,2.56-6.31.5-9.21,1.66-6,1.75-8.82,3.2-5.77,2.57-8.4,4.3a94.08,94.08,0,0,0-7.64,5.55c-2.45,2-2.63,6.26-4.89,8.49" style="fill:none;stroke:#1a1a1a;stroke-linecap:round;stroke-linejoin:round;stroke-width:6.5px"/><path d="M623.44,264c-4-2.3-2.56-2.48-7.62-5.16-2.33-1.24-5.12-2.56-8.22-4.13-2.55-1.28-5.53-2.16-8.48-3.57-2.66-1.27-4.15-5.39-7-6.69s-5.87-1.86-8.75-3.06-6.27-.86-9.15-2-5.68-2.36-8.57-3.33-5.67-2.64-8.57-3.45c-3.06-.85-6.45.37-9.36-.2-3.18-.62-5.82-3.36-8.71-3.57-4.44-.58-3.31.28-9,.06-2.52-.09-5.58-2-9-1.85-2.73.11-5.89-.21-9.11.15-2.79.32-5.77,1.38-8.89,1.95-2.8.51-5.89.84-8.92,1.6-2.8.69-5.79,1.49-8.74,2.44-2.76.87-5.64,2-8.51,3.14-2.71,1-4.14,5.31-6.94,6.6-2.64,1.22-6.4.3-9.11,1.75s-4.14,4.61-6.75,6.21-4.83,3.28-7.34,5-4.49,3.72-6.91,5.59S434.31,264,432,266s-5.35,2.92-7.57,5" style="fill:none;stroke:#1a1a1a;stroke-linecap:round;stroke-linejoin:round;stroke-width:6.5px"/><path d="M837.83,269.29c-2.3-2.11-5.31-3.42-7.63-5.34s-4.59-4.26-7-6.06-6.25-1.88-8.76-3.55-5.48-2.77-8.08-4.29-3.78-6-6.47-7.36-6.87.06-9.65-1.13-4.5-5.49-7.35-6.51-7.07,1.84-10,1-5.64-2.46-8.6-3.11-5.7-3-8.7-3.47-6.25.29-9.28,0-6.15.44-9.18.35-6.18-2.86-9.21-2.77-6.22.55-9.25.81-5.81,3.4-8.81,3.83-6,1.06-9,1.64-6.56-1.16-9.49-.44-5.79,2.38-8.67,3.23-6.3.76-9.13,1.73c-3,1-6,1.84-8.78,2.93-3,1.16-5.18,3.89-7.87,5.09-3,1.3-5.89,2.27-8.49,3.56-3,1.46-6.72,1-9.19,2.35-3.08,1.68-4.93,4.78-7.15,6.13-5,3-3.07,3.61-6.79,6.32" style="fill:none;stroke:#1a1a1a;stroke-linecap:round;stroke-linejoin:round;stroke-width:6.5px"/><path d="M231.67,289.65l4,43.64S676.3,302,836.55,331.59l1.1-42.8L667.61,275l-37.9,6.34-37.4-2.55-44.84-1.59L527,255.86,414.59,297.08Z" style="fill:#cddc4c"/><path d="M427.41,291.84c-4-2.37-4.06.22-9.22-2.51-2.31-1.22-4.14-4.52-7.29-6.07-2.53-1.24-6.16-.86-9.17-2.24-2.65-1.21-4.87-3.86-7.84-5.12-2.73-1.15-6.91,1-9.88-.18-2.78-1.09-4.15-6.22-7.12-7.28s-6.43-.13-9.42-1.09-6-1.26-9-2.12-6.21-.31-9.22-1.06-5.72-2.24-8.76-2.87-6.12-.29-9.17-.79-5.87-2-8.93-2.35-6.12.06-9.19-.13-6-3.66-9.12-3.68-6.3-.13-9.36.05-6.25.79-9.3,1.18-5.55,4.13-8.56,4.76-5.68,2-8.63,2.9-6.74-.83-9.6.33-4.91,4-7.65,5.41-4.55,4-7.15,5.74-7.21.44-9.63,2.4-3.94,5.21-6.17,7.41c.51,6.36-2.28,9.23,2.27,13.71,3.25,3.21,6-.87,10.56-.83s4.57,1,9.14,1,4.58-.52,9.16-.49,4.58-1.42,9.15-1.38,4.57.81,9.14.85,4.6-2.31,9.17-2.27,4.57-.08,9.15,0,4.56,1.43,9.14,1.47,4.58-.88,9.15-.85,4.58.32,9.15.35,4.55,3.68,9.12,3.71,4.58-.18,9.16-.15,4.57,0,9.15,0,4.59-2.59,9.17-2.56,4.57,1.08,9.14,1.11,4.58.17,9.16.2,4.57.38,9.15.41,4.59-2.41,9.17-2.37,4.56,2,9.13,2,4.59-1.82,9.17-1.79,4.55,2.68,9.13,2.71,4.58-.21,9.16-.18,4.59-1.28,9.16-1.24,4.57,2.38,9.15,2.41,4.58-1.17,9.16-1.13" style="fill:#cddc4c"/><path d="M628.18,279.93c-3.9-2.39-4.23.67-9.36-2-2.29-1.19-4.71-3.12-7.86-4.6-2.53-1.19-4.15-5.08-7.17-6.37-2.65-1.13-5.89-1.39-8.88-2.54-2.73-1.06-6-1-9-2-2.8-1-5.48-2.61-8.47-3.51s-6.35.37-9.35-.41-5.34-3.57-8.37-4.22-5.89-1.6-8.93-2.11-6.16.15-9.22-.2-5.89-2.68-9-2.87-6.17.42-9.24.39-6.07,1.51-9.13,1.67-6.16-.62-9.2-.26-6.24-.09-9.25.48-6,1.32-9,2.11-4.81,5-7.71,6-6.35.22-9.17,1.45-4.51,4.42-7.22,5.87-6.19,1.24-8.8,2.91-6.11,1.89-8.58,3.76-3.08,5.83-5.41,7.87-6.24,2.2-8.43,4.4-3.43,5.14-5.48,7.48" style="fill:#cddc4c"/><path d="M841.13,290.71c-2.47-1.88-5-3.56-7.45-5.27s-5-3.6-7.52-5.2-3.83-5.67-6.46-7.14-6.7-.57-9.41-1.92-5.65-2.32-8.42-3.52-4.63-5-7.46-6.1-6.46-.26-9.35-1.16-5.53-3.15-8.46-3.9-6.47.66-9.44.06-5.92-1.63-8.92-2.07-5.84-3.26-8.86-3.55-6.41,3.57-9.43,3.44-6.07-3.08-9.1-3.06-6.09,2.05-9.11,2.21-6.11.3-9.11.6-6.33-1-9.31-.54-6.28.18-9.23.75-5.32,4.67-8.24,5.35-6.28.23-9.15,1-5.61,2.77-8.42,3.68c-3,1-5.92,1.78-8.68,2.79-3,1.11-7.06-.8-9.73.3-3.06,1.27-6,2.27-8.59,3.45-3.18,1.47-4.29,6.2-6.59,7.39-5.18,2.69-4.28,1.48-8.15,3.93" style="fill:#cddc4c"/><ellipse cx="308.56" cy="277.91" rx="4.07" ry="7.04" transform="translate(-103.91 326.01) rotate(-48.66)" style="fill:#7ebc25"/><ellipse cx="579.09" cy="287.79" rx="4.07" ry="7.04" transform="translate(-19.49 532.48) rotate(-48.66)" style="fill:#7ebc25"/><ellipse cx="756.2" cy="300.49" rx="7.04" ry="4.07" transform="translate(-21.38 540.28) rotate(-38.81)" style="fill:#7ebc25"/><ellipse cx="716.2" cy="277.39" rx="4.07" ry="7.04" transform="translate(34.86 631.89) rotate(-48.66)" style="fill:#7ebc25"/><ellipse cx="364.45" cy="288.82" rx="7.04" ry="4.07" transform="translate(-98.98 250.42) rotate(-33.66)" style="fill:#7ebc25"/><ellipse cx="529.28" cy="272.69" rx="7.04" ry="4.07" transform="translate(-62.41 339.08) rotate(-33.66)" style="fill:#7ebc25"/><ellipse cx="647.82" cy="289.37" rx="3.27" ry="5.65" transform="translate(-61.27 313.76) rotate(-26.04)" style="fill:#7ebc25"/><ellipse cx="295.07" cy="307.33" rx="5.65" ry="3.27" transform="translate(-93.22 482.68) rotate(-70.47)" style="fill:#7ebc25"/><ellipse cx="257.56" cy="295.26" rx="3.27" ry="5.65" transform="translate(-121.22 395.47) rotate(-63.72)" style="fill:#7ebc25"/><ellipse cx="479.86" cy="293.17" rx="5.65" ry="3.27" transform="translate(43.14 647.42) rotate(-70.47)" style="fill:#7ebc25"/><ellipse cx="791.87" cy="287.66" rx="5.65" ry="3.27" transform="translate(256.03 937.8) rotate(-70.47)" style="fill:#7ebc25"/><path d="M270.59,330.43l2.32-.3c.66-.2,1.32-.4,2-.58C272.61,330,270.3,330.46,270.59,330.43Z" style="fill:#f2ebe3"/><path d="M838.44,333.89a472.76,472.76,0,0,0-66.65-7.79c-122.06-9.52-170.58-14.19-251.73-11.91-46.48,1.31-93.09,1.69-139.53,4.16-38.39,2-70.08,7-107.62,11.78a40.82,40.82,0,0,1-9.24,2c-4.07-1.28-26.47.72-30.68,1.54-35,6.79-46.83,45.57-15.7,56.36a42.64,42.64,0,0,0,4.67,1c.13,1.55,3.86,1.14,4.15,2.62a17.86,17.86,0,0,0-5.41,12.11,28.26,28.26,0,0,0,9.93,21.44c16,13,37.66,13.39,40.17,14.29-5.6,16.52,6.22,39.09,27.63,40.89l25.24,2.12c2.59,7.72,17.53,17,28.08,20.71,20.31,7.11,44.69,4.43,63,6.09C436,541.81,543.92,535.7,571.83,533.06,610.89,529.4,682,525,713,498.93c16.81-14.14,25.75-16.11,47.39-19.51,19.27-3,35.07-1.35,48.92-15.34,5.88-5.94,3-19.19,0-24.11,28-6.89,30.72-19.3,30.13-32.58,0-.48-.09-1-.13-1.43,9.83-6.35,19.8-16.25,24.27-26.19C870.64,364,859,337.89,838.44,333.89Z" style="fill:#ede4da"/><path d="M274.92,329.55l4.33-.85A31.94,31.94,0,0,0,274.92,329.55Z" style="fill:#f2ebe3"/><path d="M324,413s2.51-17.18-5.87-39c0,0,13.41,12.15,14.25,26.39,0,0,3.77-14.24,10.89-22.2,0,0-1.26,18.43-.84,23.88,0,0,6.28-13,15.08-21,0,0-8.38,22.62-6.7,30.58" style="fill:#cddc4c;stroke:#1a1a1a;stroke-linecap:round;stroke-linejoin:round;stroke-width:3.8399999141693115px"/><path d="M436.65,459.51s.31-8-6.57-15.72" style="fill:none;stroke:#77ab30;stroke-linecap:round;stroke-linejoin:round;stroke-width:4.429999828338623px"/><path d="M447.86,459.31s-.32-12.93,2.26-20.37" style="fill:none;stroke:#77ab30;stroke-linecap:round;stroke-linejoin:round;stroke-width:4.429999828338623px"/><line x1="459.82" y1="458.66" x2="464.02" y2="450.26" style="fill:none;stroke:#77ab30;stroke-linecap:round;stroke-linejoin:round;stroke-width:4.429999828338623px"/><path d="M787.71,364.38s.27-7-5.76-13.77" style="fill:none;stroke:#77ab30;stroke-linecap:round;stroke-linejoin:round;stroke-width:4.429999828338623px"/><path d="M797.53,364.2s-.28-11.33,2-17.84" style="fill:none;stroke:#77ab30;stroke-linecap:round;stroke-linejoin:round;stroke-width:4.429999828338623px"/><line x1="808.01" y1="363.64" x2="811.7" y2="356.27" style="fill:none;stroke:#77ab30;stroke-linecap:round;stroke-linejoin:round;stroke-width:4.429999828338623px"/><path d="M397.18,361s.27-7-5.75-13.77" style="fill:none;stroke:#77ab30;stroke-linecap:round;stroke-linejoin:round;stroke-width:4.429999828338623px"/><path d="M407,360.82s-.29-11.33,2-17.85" style="fill:none;stroke:#77ab30;stroke-linecap:round;stroke-linejoin:round;stroke-width:4.429999828338623px"/><line x1="417.49" y1="360.25" x2="421.17" y2="352.88" style="fill:none;stroke:#77ab30;stroke-linecap:round;stroke-linejoin:round;stroke-width:4.429999828338623px"/><path d="M528.56,386.39s.27-7-5.76-13.78" style="fill:none;stroke:#77ab30;stroke-linecap:round;stroke-linejoin:round;stroke-width:4.429999828338623px"/><path d="M538.38,386.21s-.28-11.33,2-17.85" style="fill:none;stroke:#77ab30;stroke-linecap:round;stroke-linejoin:round;stroke-width:4.429999828338623px"/><line x1="548.87" y1="385.64" x2="552.55" y2="378.28" style="fill:none;stroke:#77ab30;stroke-linecap:round;stroke-linejoin:round;stroke-width:4.429999828338623px"/><path d="M587.48,482.77s2.83-19.37-6.62-43.94c0,0,15.12,13.7,16.07,29.77,0,0,4.25-16.07,12.28-25,0,0-1.42,20.79-.94,26.94,0,0,7.08-14.65,17-23.63,0,0-9.45,25.52-7.56,34.49" style="fill:#cddc4c;stroke:#1a1a1a;stroke-linecap:round;stroke-linejoin:round;stroke-width:3.8399999141693115px"/><path d="M239.77,322.07a121.23,121.23,0,0,0-3.24-22.33,2.56,2.56,0,0,0-2.16-2.08c1-3,2.09-5.66,1.85-9a3,3,0,0,0-.31-1.08c2.25-2.53-1.66-6.28-4.4-3.87a32.25,32.25,0,0,0-10,15.55c-3.63,11.52,1.71,25.08,13,32.46,3,2,5.54-2.21,3.58-4.64-.61-.76-1.25-1.52-1.9-2.28a2.87,2.87,0,0,0,3.58-2.73Z" style="fill:#cddc4c"/><path d="M839,287.45c-2.8-2.56-7,1.6-4.18,4.18,1,1,1.92,1.9,2.82,2.84a2.68,2.68,0,0,0-2.07,2c-2.56,11.15-2,23.23-4,34.59a3,3,0,0,0,3.63,3.63C844,333,850.36,324.56,851,315.87,851.84,303.5,848.08,295.79,839,287.45Z" style="fill:#cddc4c"/><path d="M760.11,323c26.83,2.68,53.08,6.1,78.27,10.39" style="fill:none;stroke:#1a1a1a;stroke-linecap:round;stroke-linejoin:round;stroke-width:5.909999847412109px"/><path d="M242.56,333.39S451.81,308.1,661,316.29" style="fill:none;stroke:#1a1a1a;stroke-linecap:round;stroke-linejoin:round;stroke-width:5.909999847412109px"/><g style="opacity:0.5600000023841858"><line x1="277.31" y1="359.54" x2="299.93" y2="358.64" style="fill:none;stroke:#ccb399;stroke-linecap:round;stroke-miterlimit:10;stroke-width:4.429999828338623px"/><line x1="610.62" y1="346.38" x2="633.22" y2="347.63" style="fill:none;stroke:#ccb399;stroke-linecap:round;stroke-miterlimit:10;stroke-width:4.429999828338623px"/><line x1="355.37" y1="449.68" x2="385.57" y2="448.68" style="fill:none;stroke:#ccb399;stroke-linecap:round;stroke-miterlimit:10;stroke-width:4.429999828338623px"/><line x1="518.67" y1="488.16" x2="548.84" y2="486.26" style="fill:none;stroke:#ccb399;stroke-linecap:round;stroke-miterlimit:10;stroke-width:4.429999828338623px"/></g><path d="M726.33,503.69l-24.77-84.62s-30.67-16.51-40.66-29.51-3.79-16.65-1-18a84.59,84.59,0,0,1,29.74,10.84s-23.81-69.34-12.19-72c0,0,9.8-8.74,25.54,37.79,0,0,1.55-44.67,9.6-44.22,0,0,12.52-4.76,10.7,45.27,0,0,9.46-36,17.35-35.12,0,0,13.08-3.72-.21,43.52,0,0,13.43-24.79,22.64-18.66,0,0,5.5.39-.69,14.27a164.35,164.35,0,0,0-8.51,23.42c-5.34,19-3.86,23.15.68,38.9.35,1.19.81,2.4,1.24,3.69L786.25,490" style="fill:#fff"/><path d="M726.33,503.69l-24.77-84.62s-30.67-16.51-40.66-29.51-3.79-16.65-1-18a84.59,84.59,0,0,1,29.74,10.84s-23.81-69.34-12.19-72c0,0,9.8-8.74,25.54,37.79,0,0,1.55-44.67,9.6-44.22,0,0,2.85,8.72,2.16,44.64a3.11,3.11,0,0,0,5.81,1.63c6-10.68,15.17-36.69,20.08-36.12,0,0,4.52-.42-5.92,38.59a1.83,1.83,0,0,0,3.1,1.74c7-7.87,19-19.66,25.25-15.47,0,0,2.86-3.91-3.32,10-2.31,5.18-11.5,16.94-14.53,27.72-5.35,19-3.86,23.15.68,38.9.34,1.19.8,2.4,1.23,3.69L772.72,495s-8.4,9.37-44.38,7.79" style="fill:#f8ddc8"/><path d="M726.33,503.69l-24.77-84.62s-30.67-16.51-40.66-29.51-3.79-16.65-1-18a84.59,84.59,0,0,1,29.74,10.84s-23.81-69.34-12.19-72c0,0,9.8-8.74,25.54,37.79,0,0,1.55-44.67,9.6-44.22,0,0,12.52-4.76,10.7,45.27,0,0,9.46-36,17.35-35.12,0,0,13.08-3.72-.21,43.52,0,0,13.43-24.79,22.64-18.66,0,0,5.5.39-.69,14.27a164.35,164.35,0,0,0-8.51,23.42c-5.34,19-3.86,23.15.68,38.9.35,1.19.81,2.4,1.24,3.69L786.25,490" style="fill:none;stroke:#1a1a1a;stroke-linecap:round;stroke-linejoin:round;stroke-width:5.909999847412109px"/><path d="M536.41,127s-2.31-.48-6.87,6.72c0,0-10.72-6.9-28.34-4.25,0,0-7.93.88-13.22,12.33,0,0,24.29-10,39,.31l-1,5.7-7,12.42s8.27,4.73,15.94,1.78l-.54-13.35,3-5.43s20.92-12.23,37.22,7.06c0,0,2-9.63-3.15-13.16,0,0-6.63-9.12-31.36-3.41,0,0,1.63-3,1.36-5.17S541.74,124.7,536.41,127Z" style="fill:#d6a17f;stroke:#1a1a1a;stroke-linecap:round;stroke-linejoin:round;stroke-width:4.429999828338623px"/><path d="M490.3,154s-9.82,20.86-18.41,44.18" style="fill:#ccb399;stroke:#dbdcdc;stroke-linecap:round;stroke-miterlimit:10;stroke-width:4.429999828338623px"/><line x1="508.71" y1="156.41" x2="501.34" y2="177.27" style="fill:none;stroke:#dbdcdc;stroke-linecap:round;stroke-miterlimit:10;stroke-width:4.429999828338623px"/><line x1="571.3" y1="162.55" x2="576.21" y2="200.59" style="fill:none;stroke:#dbdcdc;stroke-linecap:round;stroke-miterlimit:10;stroke-width:4.429999828338623px"/></svg>