<svg id="圖層_1" data-name="圖層 1" xmlns="http://www.w3.org/2000/svg" viewBox="0 0 1080 616.71"><defs><style>.cls-1{fill:#fff;}.cls-2{fill:#928985;}.cls-3{fill:#bcb2ae;}.cls-10,.cls-11,.cls-12,.cls-13,.cls-14,.cls-15,.cls-4,.cls-7,.cls-8,.cls-9{fill:none;}.cls-4{stroke:#e5efd0;stroke-miterlimit:10;}.cls-4,.cls-7{stroke-width:5.91px;}.cls-5{fill:#e5e5e6;}.cls-6{fill:#ccb399;}.cls-10,.cls-11,.cls-13,.cls-14,.cls-15,.cls-7,.cls-8,.cls-9{stroke:#1a1a1a;}.cls-11,.cls-12,.cls-13,.cls-14,.cls-15,.cls-7,.cls-8,.cls-9{stroke-linecap:round;}.cls-10,.cls-11,.cls-12,.cls-13,.cls-14,.cls-15,.cls-7,.cls-8,.cls-9{stroke-linejoin:round;}.cls-8{stroke-width:5.88px;}.cls-10,.cls-9{stroke-width:4.9px;}.cls-11{stroke-width:4.43px;}.cls-12{stroke:#927654;stroke-width:3.68px;}.cls-13{stroke-width:3.43px;}.cls-14{stroke-width:5.02px;}.cls-15{stroke-width:3.84px;}.cls-16{fill:#fcd56c;}</style></defs><title>互動設計UI</title><rect class="cls-1" width="1080" height="616.71"/><path class="cls-2" d="M475.23,366.67,457.78,362l-11.18,4.1,7.36,5.72a37.13,37.13,0,0,0,28.09,5.73"/><path class="cls-3" d="M478.84,372.67s11.45,23.95,35.05,24.3c0,0,17-6.25,24.3-1.74l18.51-1.4s-15.39-5.54-23-17.68c0,0-8.33-10.76-25.69-9.72S478.84,372.67,478.84,372.67Z"/><path class="cls-2" d="M578.44,253.51S578,307,556.63,326.77L535.8,344s.66,33.79-20.74,19.8l-30,7.41s-23.87.41-7.41-11.12c0,0,38.29-34.29,40.55-70,0,0,25.6-1.51,34.91-26.64Z"/><ellipse class="cls-4" cx="540" cy="300.48" rx="291.69" ry="226.72"/><polygon class="cls-5" points="412.48 517.13 397.22 512.47 397.22 162.85 412.48 162.85 412.48 517.13"/><polygon class="cls-5" points="689.29 511.34 674.03 523 674.03 162.85 689.29 162.85 689.29 511.34"/><polygon class="cls-5" points="694.54 164.72 389.8 164.72 389.8 150.52 674.03 150.52 694.54 164.72"/><path class="cls-6" d="M711.31,134.8S740.42,139,752.45,139c0,0,5,231.21,7,348.53,0,0-8.45,22.8-50.72,38.09"/><path class="cls-7" d="M767.92,170.45V487.73"/><path class="cls-8" d="M767.92,140.47v41.76"/><path class="cls-7" d="M708.75,525.61c2.25-153.34-.33-390.68-.33-390.68"/><line class="cls-9" x1="688.73" y1="165.42" x2="688.73" y2="514.88"/><line class="cls-9" x1="673.24" y1="165.42" x2="673.24" y2="521.45"/><line class="cls-9" x1="412.48" y1="165.42" x2="412.48" y2="520.23"/><line class="cls-9" x1="396.99" y1="165.42" x2="396.99" y2="514.54"/><path class="cls-10" d="M697.27,150.52H389.8c-9.23,8.91-1,14.2-1,14.2H697.9C698.38,165.19,703.75,157.34,697.27,150.52Z"/><line class="cls-11" x1="640.65" y1="165.71" x2="640.65" y2="491.77"/><line class="cls-11" x1="599.89" y1="422.18" x2="599.89" y2="497.04"/><line class="cls-11" x1="599.89" y1="165.71" x2="599.89" y2="358.81"/><line class="cls-11" x1="559.13" y1="404.79" x2="559.13" y2="502.31"/><line class="cls-11" x1="559.13" y1="165.71" x2="559.13" y2="248.87"/><line class="cls-11" x1="518.37" y1="408.23" x2="518.37" y2="503.63"/><line class="cls-11" x1="518.37" y1="165.71" x2="518.37" y2="276.39"/><line class="cls-11" x1="477.61" y1="393.33" x2="477.61" y2="499.67"/><line class="cls-11" x1="477.61" y1="165.71" x2="477.61" y2="323.39"/><line class="cls-11" x1="436.84" y1="165.71" x2="436.84" y2="491.77"/><line class="cls-12" x1="726.81" y1="277.1" x2="726.81" y2="297.97"/><line class="cls-12" x1="743.78" y1="152.76" x2="743.78" y2="172.94"/><line class="cls-12" x1="725.28" y1="404.62" x2="725.28" y2="437.06"/><line class="cls-12" x1="741.57" y1="329.92" x2="741.57" y2="366.13"/><path class="cls-6" d="M318.76,152.39s27.29,5.06,34.33,10.34c0,0-2.75,292.43,2.53,351.44,0,0-23-8.16-34.19-19.47C316.16,489.36,327,157.64,318.76,152.39Z"/><path class="cls-7" d="M364.81,166.22s-4.14,265,0,348"/><path class="cls-7" d="M319.3,151.26s6.89,136.93,0,343.73"/><line class="cls-12" x1="343.44" y1="244.15" x2="343.44" y2="265.02"/><line class="cls-12" x1="335.69" y1="289.98" x2="335.69" y2="310.16"/><line class="cls-12" x1="345.11" y1="434.6" x2="345.11" y2="463.52"/><path class="cls-13" d="M693.89,150.8a7.42,7.42,0,0,0-3.3,8.68"/><path class="cls-14" d="M472.67,363.58c38.83-21.47,45.49-73.51,45.49-73.51,29.4-2.75,34.91-26.64,34.91-26.64,25.73-1.38,28.49-19.76,28.49-19.76s17,35.38-11,84.08c0,0-22.51,14.7-30.78,44.56,0,0,9.44.21,10,11.44,0,0,3,10.08,7,10.08,0,0-13.69,5.1-24.93-1.65"/><path class="cls-14" d="M531.93,391.74C497.47,405.4,483.24,381,483.24,381"/><path class="cls-15" d="M488.42,371.63s-16.34.51-21.95-6.12c0,0-2.67-.7-6.23,2.86"/><path class="cls-15" d="M483,380.44s-5.4.41-17.66-2.65a32.57,32.57,0,0,0-6.36,2.65"/><path class="cls-15" d="M493.53,369.08s9.19-7.15,26.54-3.06"/><path class="cls-15" d="M529.68,366.48s5.1-7.15,6.12-22.47c0,0,11.6-5.92,25.39-20.21"/><path class="cls-15" d="M527.27,297.21s19.67,10.68,29.79,21.35"/><path class="cls-15" d="M558.74,276.42c5.06,19.67,5.38,40.87,5.38,40.87S576.72,300,579,286"/><polyline class="cls-15" points="460.44 362.3 446.6 366.13 455.79 372.82"/><path class="cls-14" d="M472.13,362.06s.21-7.86-5.55-13c0,0,6.34-5.18-2.88-14.4,0,0,15.55,1.73,21.31,12.67"/><line class="cls-15" x1="541.4" y1="380.62" x2="543.72" y2="384.34"/><polygon class="cls-16" points="565.11 358.65 575.01 357.51 565.68 375.41 588.15 377.31 568.35 388.74 581.48 401.3 570.44 405.87 605.91 412.23 580.13 391.05 623.48 371.35 576.88 368.91 593.19 340.88 565.11 358.65"/><polyline class="cls-15" points="564.16 357.23 593.19 340.88 576.88 368.91 623.48 371.35 580.13 391.05 605.91 412.23 570.91 407.44"/></svg>