<svg id="圖層_1" data-name="圖層 1" xmlns="http://www.w3.org/2000/svg" viewBox="0 0 1080 616.71"><title>illustration-success</title><rect width="1080" height="616.71" style="fill:#fff"/><ellipse cx="540" cy="300.48" rx="291.69" ry="226.72" style="fill:none;stroke:#e5efd0;stroke-miterlimit:10;stroke-width:5.909999847412109px"/><path d="M836.72,401.64a77.58,77.58,0,0,0,7.38-5.72c-288.92-22.33-534.35-3.26-599.75,2.78a14.86,14.86,0,0,0-.32,2.82A28.76,28.76,0,0,0,253.54,423c15.33,13,36.08,13.39,38.49,14.29-5.36,16.52,6,39.09,26.47,40.89l24.19,2.12c2.48,7.72,16.8,17,26.91,20.71,19.45,7.11,42.81,4.43,60.31,6.1,20.43,30.46,123.81,24.34,150.55,21.7,37.42-3.69,105.52-8,135.24-34.16,16.1-14.14,24.67-16.11,45.4-19.51,18.46-3,33.61-1.35,46.88-15.34,5.62-5.94,2.82-19.19,0-24.11,26.87-6.89,29.43-19.3,28.86-32.58C836.82,402.59,836.76,402.12,836.72,401.64Z" style="fill:#ede4da"/><path d="M633.92,482s.31-8-6.57-15.72" style="fill:none;stroke:#77ab30;stroke-linecap:round;stroke-linejoin:round;stroke-width:4.429999828338623px"/><path d="M645.14,481.82s-.33-12.93,2.26-20.37" style="fill:none;stroke:#77ab30;stroke-linecap:round;stroke-linejoin:round;stroke-width:4.429999828338623px"/><line x1="657.1" y1="481.17" x2="661.3" y2="472.77" style="fill:none;stroke:#77ab30;stroke-linecap:round;stroke-linejoin:round;stroke-width:4.429999828338623px"/><path d="M473.86,472.33s.27-7-5.75-13.78" style="fill:none;stroke:#77ab30;stroke-linecap:round;stroke-linejoin:round;stroke-width:4.429999828338623px"/><path d="M483.69,472.15s-.29-11.33,2-17.85" style="fill:none;stroke:#77ab30;stroke-linecap:round;stroke-linejoin:round;stroke-width:4.429999828338623px"/><line x1="494.17" y1="471.58" x2="497.85" y2="464.22" style="fill:none;stroke:#77ab30;stroke-linecap:round;stroke-linejoin:round;stroke-width:4.429999828338623px"/><path d="M315.22,428.83s.27-7-5.76-13.78" style="fill:none;stroke:#77ab30;stroke-linecap:round;stroke-linejoin:round;stroke-width:4.429999828338623px"/><path d="M325,428.65s-.28-11.33,2-17.84" style="fill:none;stroke:#77ab30;stroke-linecap:round;stroke-linejoin:round;stroke-width:4.429999828338623px"/><line x1="335.52" y1="428.08" x2="339.21" y2="420.72" style="fill:none;stroke:#77ab30;stroke-linecap:round;stroke-linejoin:round;stroke-width:4.429999828338623px"/><path d="M740.32,439.67s2.32-15.83-5.41-35.9c0,0,12.36,11.19,13.13,24.32,0,0,3.48-13.13,10-20.46,0,0-1.16,17-.77,22,0,0,5.79-12,13.9-19.31,0,0-7.72,20.85-6.18,28.19" style="fill:#cddc4c;stroke:#1a1a1a;stroke-linecap:round;stroke-linejoin:round;stroke-width:3.140000104904175px"/><path d="M389.73,483.24s2.83-19.37-6.62-43.94c0,0,15.12,13.7,16.07,29.76,0,0,4.25-16.06,12.28-25,0,0-1.42,20.79-1,26.93,0,0,7.09-14.64,17-23.62,0,0-9.45,25.51-7.56,34.49" style="fill:#cddc4c;stroke:#1a1a1a;stroke-linecap:round;stroke-linejoin:round;stroke-width:3.8399999141693115px"/><path d="M537.41,356.2l14.4,10.32,1.49,18.23-1,10.09s-14-.81-14.72-16.81" style="fill:#d6d6d6"/><polygon points="462.24 343.72 454.11 346.42 448.82 358.98 434.35 374.25 429.74 394.64 428.73 405.6 438.94 407.1 450.43 401.58 458.45 401.68 480.66 388.14 473.13 351.78 462.24 343.72" style="fill:#d6a17f"/><path d="M565.21,240.25c9.43,30.28,26.22,59.11,50.36,75.6,10.31-16.47,17-38,12.67-65.22a38.62,38.62,0,0,0-2.56-8.51c-2.23-5.37,1.13-15.85,8.89-21.76-3-3.11-5.47-6.36-6.71-10.09a26.31,26.31,0,0,0-.86,6.92,26.31,26.31,0,0,1,.86-6.92,15.41,15.41,0,0,1-.86-4.9,15.41,15.41,0,0,0,.86,4.9c1.8-6.59,6.42-11,13.87-15.1A28.42,28.42,0,0,0,633.4,187c-24.7-2.7-39.22,8.42-56.29,18C570.23,213.85,565.93,220.38,565.21,240.25Z" style="fill:#e4bfa4"/><path d="M636.39,197.84a11.35,11.35,0,0,1-9.75-.39s-5-8.71-14.3-8.28c0,0-10.2.21-13.08,12.88,0,0-.4,5.93,17.13,8.33,0,0,8.48.9,12.62-2.74" style="fill:#c2ddec"/><path d="M589,187.79s-20.76,19.88-51.31,20.32c0,0,14.74,11,36.35.11" style="fill:#2c88c9;stroke:#1a1a1a;stroke-linecap:round;stroke-linejoin:round;stroke-width:4.429999828338623px"/><path d="M565.21,240.25c0,.7-.11,1.3-.13,2,0,0-47.59,20.36-74.77,56.23l24,22.17,11,.39,31.14,20,12.26,16.69s28.91-13.18,46.9-41.92C591.43,299.36,574.64,270.53,565.21,240.25Z" style="fill:#d6a17f"/><path d="M574.18,208.9c17.06-9.56,40-21.91,59.22-21.89-5.34-3.52-13.37-6.62-25.35-6.38C608,180.63,585.67,187.14,574.18,208.9Z" style="fill:#2c88c9"/><path d="M680,218.08s-10.31-16.59-37.46-21.45a12.86,12.86,0,0,0-.82-1.46c-7.45,4.12-12.07,8.51-13.87,15.1,1.24,3.73,3.73,7,6.71,10.09a20.53,20.53,0,0,1,7.35-3.69A124,124,0,0,1,680,218.08Z" style="fill:#b3b3b3"/><line x1="617.42" y1="366.16" x2="638.01" y2="344.05" style="fill:none;stroke:#1a1a1a;stroke-linecap:round;stroke-linejoin:round;stroke-width:4.730000019073486px"/><line x1="628.61" y1="376.49" x2="651.53" y2="368.85" style="fill:none;stroke:#1a1a1a;stroke-linecap:round;stroke-linejoin:round;stroke-width:4.730000019073486px"/><path d="M431.68,319.2l36.33-28,41.83,41s27.06,3.22,34.15,11.6c0,0,13.53,17.39,12.89,23.19L537.41,356.2l.14,21.83,7.11,14,7.61,2.82,8.74-3.67v15l-8.18,8.75-10.71,2.53-6.49,6.21-13.43-2.15-12.8,3.84-8.74-4.23L488.81,416l-8.3-13.57-2.45-25.09-5.42-29Z" style="fill:#f8ddc8"/><path d="M566.73,356.84s85.45-32.19,73.43-106.78a37.78,37.78,0,0,0-2.56-8.51c-2.85-6.86-7.25-21.58,5.68-24.88a124,124,0,0,1,38.09,1.41s-10.31-16.59-37.46-21.45c0,0-7.36-16.55-34.5-16,0,0-41.88,3.33-43,61.63,0,0-47.59,20.36-74.77,56.23" style="fill:none;stroke:#1a1a1a;stroke-linecap:round;stroke-linejoin:round;stroke-width:5.909999847412109px"/><path d="M637.21,198.38s-6.83,5.17-9.28,10.63l2.79,6.4" style="fill:none;stroke:#1a1a1a;stroke-linecap:round;stroke-linejoin:round;stroke-width:4.429999828338623px"/><path d="M675.82,216.1a98.24,98.24,0,0,0-32.27-9.21" style="fill:none;stroke:#1a1a1a;stroke-linecap:round;stroke-linejoin:round;stroke-width:4.139999866485596px"/><circle cx="612.37" cy="199.84" r="6.77" style="fill:#1a1a1a"/><path d="M556.33,413.93l3.81,20.67s11.43,15.9,14.07,32.07c0,0,.42,6.84-2.94,7.39,0,0-3.41,13-10.79,5.91,0,0-9.56,5-10.66-1.72l-.09-38.7-5.85-24.76" style="fill:#d6d6d6;stroke:#1a1a1a;stroke-linecap:round;stroke-linejoin:round;stroke-width:5.019999980926514px"/><line x1="555.91" y1="450.66" x2="558.59" y2="472.2" style="fill:none;stroke:#1a1a1a;stroke-linecap:round;stroke-linejoin:round;stroke-width:5.019999980926514px"/><path d="M553.27,368.5l-2.08,11.39,57.67-3.07s18.11,15.72,23.55,28.77c0,0,2.17,21.74-7.61,23.92,0,0-6.52,12-18.48,4.34l13-27.17-13-17.4L548.6,396" style="fill:#d6d6d6;stroke:#1a1a1a;stroke-linecap:round;stroke-linejoin:round;stroke-width:5.019999980926514px"/><polygon points="595.37 399.97 574.57 401.93 574.21 371.06 595.01 369.09 595.37 399.97" style="fill:#f29a4a;stroke:#1a1a1a;stroke-linecap:round;stroke-linejoin:round;stroke-width:4.429999828338623px"/><path d="M573,252.84s-3.49,4.65,1.17,21.53" style="fill:none;stroke:#1a1a1a;stroke-linecap:round;stroke-linejoin:round;stroke-width:4.429999828338623px"/><path d="M582.91,270.3s-1.75,17.45,4.07,24.44" style="fill:none;stroke:#1a1a1a;stroke-linecap:round;stroke-linejoin:round;stroke-width:4.429999828338623px"/><path d="M595.13,290.08s-1.17,10.47,9.31,20.37" style="fill:none;stroke:#1a1a1a;stroke-linecap:round;stroke-linejoin:round;stroke-width:4.429999828338623px"/><path d="M583.49,310.45s-6.25,13.36-27.78,26.74" style="fill:#fff;stroke:#1a1a1a;stroke-linecap:round;stroke-linejoin:round;stroke-width:4.730000019073486px"/><path d="M476.43,284.27l37.89,36.39s31.08,3,44,23.49c0,0,9.4,16,10.16,19.76,0,0-6.5,15.35-31-7.71,0,0-2,33.36,12.27,40.73" style="fill:none;stroke:#1a1a1a;stroke-linecap:round;stroke-linejoin:round;stroke-width:5.909999847412109px"/><path d="M562.27,395.51c2.94,22.08-18,20.06-18,20.06-12.27,16.68-22.08,5.89-22.08,5.89-12.76,10.3-19.63,0-19.63,0-14.23,1-17.66-10.8-17.66-10.8-7.85-21.1-11.78-58.88-11.78-58.88L431.9,320.87" style="fill:none;stroke:#1a1a1a;stroke-linecap:round;stroke-linejoin:round;stroke-width:5.909999847412109px"/><path d="M536.92,411.65s-6.38-5.4-8.83-11.29" style="fill:none;stroke:#1a1a1a;stroke-linecap:round;stroke-linejoin:round;stroke-width:4.429999828338623px"/><path d="M518.5,414.37a30.79,30.79,0,0,1-3.86-7" style="fill:none;stroke:#1a1a1a;stroke-linecap:round;stroke-linejoin:round;stroke-width:4.429999828338623px"/><path d="M457.54,341.4a60.73,60.73,0,0,0-8.72,17.6l-14.47,15.27s-4,8-2.41,14.47c0,0-7.23,8.84-3.22,16.88,0,0,8,8.84,21.7-4,0,0,5.63,7.23,19.29-6.43l9.8-2.17" style="fill:none;stroke:#1a1a1a;stroke-linecap:round;stroke-linejoin:round;stroke-width:5.909999847412109px"/><line x1="447.51" y1="391.11" x2="463.04" y2="370.85" style="fill:none;stroke:#1a1a1a;stroke-linecap:round;stroke-linejoin:round;stroke-width:4.429999828338623px"/><line x1="588.75" y1="375.55" x2="589.03" y2="393.12" style="fill:none;stroke:#fff;stroke-linecap:round;stroke-linejoin:round;stroke-width:4.429999828338623px"/><line x1="559.08" y1="301.41" x2="548.04" y2="311.06" style="fill:none;stroke:#a77858;stroke-linecap:round;stroke-miterlimit:10;stroke-width:4.429999828338623px"/><line x1="541.61" y1="292.55" x2="525.05" y2="304.97" style="fill:none;stroke:#a77858;stroke-linecap:round;stroke-miterlimit:10;stroke-width:4.429999828338623px"/><path d="M615.91,265.65s.68,10.91-2.73,18.4" style="fill:#d6a17f;stroke:#fff;stroke-linecap:round;stroke-miterlimit:10;stroke-width:4.429999828338623px"/><path d="M244.13,399.68S333.53,389,405,389" style="fill:none;stroke:#1a1a1a;stroke-linecap:round;stroke-linejoin:round;stroke-width:5.909999847412109px"/><path d="M668.66,384.12s116.71,3.23,175.44,11.8" style="fill:none;stroke:#1a1a1a;stroke-linecap:round;stroke-linejoin:round;stroke-width:5.909999847412109px"/></svg>