<?xml version="1.0" encoding="utf-8"?>
<!-- Generator: Adobe Illustrator 21.1.0, SVG Export Plug-In . SVG Version: 6.00 Build 0)  -->
<svg version="1.1" id="圖層_1" xmlns="http://www.w3.org/2000/svg" xmlns:xlink="http://www.w3.org/1999/xlink" x="0px" y="0px"
	 viewBox="0 0 274.2 274.2" style="enable-background:new 0 0 274.2 274.2;" xml:space="preserve">
<style type="text/css">
	.st0{fill:#FFE300;}
	.st1{fill:#1A1A1A;}
	.st2{fill:#FFFCE7;}
	.st3{fill:#396729;}
	.st4{fill:#FFFFFF;}
	.st5{fill:#F3D047;}
	.st6{fill:#7EBC25;}
	.st7{fill:#386632;}
	.st8{fill:#EAEFB5;}
	.st9{fill:#CDDC4C;}
	.st10{fill:#D5D6D6;}
	.st11{fill:none;}
	.st12{fill:#376432;}
	.st13{fill:#4A8137;}
</style>
<title>互動設計UI</title>
<circle class="st0" cx="137.1" cy="137.1" r="135.9"/>
<path class="st1" d="M137.1,274.2C61.5,274.2,0,212.7,0,137.1S61.5,0,137.1,0s137.1,61.5,137.1,137.1S212.7,274.2,137.1,274.2z
	 M137.1,2.4C62.8,2.3,2.3,62.8,2.3,137.1s60.5,134.8,134.8,134.8s134.8-60.5,134.8-134.8S211.4,2.3,137.1,2.4z"/>
<circle class="st2" cx="137.1" cy="137.1" r="127.7"/>
<path class="st1" d="M137.1,266C65.9,266,8.2,208.3,8.2,137.1S65.9,8.2,137.1,8.2S266,65.9,266,137.1c0,0,0,0,0,0
	C265.9,208.3,208.3,265.9,137.1,266z M137.1,10.5c-69.9,0-126.6,56.7-126.6,126.6c0,69.9,56.7,126.6,126.6,126.6
	c69.9,0,126.6-56.6,126.6-126.5C263.6,67.3,207,10.6,137.1,10.5L137.1,10.5z"/>
<path class="st1" d="M124,110.9c-1.9-5-7.5-7.6-12.5-5.7c-5,1.9-7.6,7.5-5.7,12.5c1.9,5,7.5,7.6,12.5,5.7c2.8-1.1,5-3.4,5.9-6.2
	h27.2v5.2c0,0.5,0.4,1,0.9,1h5.1c0.6,0,1-0.4,1-1v-5.2h3.2v5.2c0,0.6,0.4,1,1,1h5.1c0.5,0,1-0.5,0.9-1v-11.5"/>
<circle class="st1" cx="114.7" cy="114.4" r="2.5"/>
<path class="st3" d="M29.7,113.8h55.2c2.5,0,4.3,0.6,5.4,1.8c1,0.9,1.5,2.9,1.5,5.9c0.1,1.9-0.3,3.7-1.3,5.3c-1.2,1.6-3,2.4-5.6,2.4
	H64.6l-0.8,2.7H80c6.7,0,10,3.3,10,10v30.9c0,6.7-3.3,10-10,10H34.6c-6.7,0-10-3.3-10-10v-30.9c0-6.7,3.3-10,10-10h12l0.8-2.7H29.7
	c-2.3,0-4-0.6-5.1-1.8c-1.2-1.1-1.7-3-1.7-5.9s0.6-5,1.7-6C25.6,114.4,27.3,113.8,29.7,113.8z M42.1,150.1h30.3v-0.3
	c0.2-1.2-0.7-2.3-1.8-2.4c-0.2,0-0.4,0-0.6,0H44.6c-1.2-0.2-2.3,0.6-2.4,1.8c0,0.2,0,0.4,0,0.6V150.1z M70,167.3
	c1.2,0.2,2.3-0.6,2.4-1.8c0-0.2,0-0.4,0-0.6v-1.2H42.1v1.2c-0.2,1.2,0.6,2.3,1.8,2.4c0.2,0,0.4,0,0.6,0H70z"/>
<path class="st3" d="M188.3,112.7c2.4-0.1,4.8,0.5,7,1.6c0.9,0.3,1.7,1.1,2,2h10.7c2.4,0,3.9,0.5,4.7,1.4c0.8,1.2,1.2,2.5,1.2,3.9
	c0.9-2.1,1.6-3.9,2.1-5.4c1-2.1,3.2-3.4,5.5-3.2c2.4-0.1,4.8,0.5,7,1.6c0.9,0.3,1.7,1.1,2,2h11.9c2.4,0,3.9,0.5,4.7,1.4
	c0.8,1,1.2,2.7,1.3,5.2c0.1,1.7-0.2,3.4-1,4.9c-1,1.2-2.6,1.7-5,1.7h-1c0,2.1-1.2,3.9-3.1,4.8l-1.1,0.5h1.9c5.6,0,8.5,2.8,8.5,8.5
	v30.9c0,5.6-2.8,8.5-8.5,8.5h-19.6c-5.6,0-8.5-2.8-8.5-8.5v-6.7c-0.3,0.5-0.7,0.9-1.1,1.3c-1.6,1.3-3.7,2-5.8,2
	c-0.3,0-0.6,0-0.8-0.1v5.7c0.1,1.6-0.4,3.1-1.5,4.3c-1.3,1.5-3.4,2.3-6.4,2.3c-2.7,0-4.7-0.8-6-2.3c-1.2-1.1-1.9-2.7-1.9-4.3v-1.6
	c-0.3,0.3-0.7,0.5-1.1,0.6c-2.4-0.1-4.5-1.4-6.4-3.9c-1.4-1.7-2.2-3.9-2.1-6.2c0.1-1.1,0.5-2.2,1.2-3.1c2.8-3.1,5.3-6.5,7.6-10.1
	h-0.2c-1.7,0.1-3.4-0.5-4.6-1.7c-1.2-1-1.8-2.9-1.8-5.6c0-2.9,0.6-4.8,1.8-5.9c0.9-0.9,2.4-1.4,4.6-1.4h1.6c0.3-1,1-1.8,1.8-2.4
	c1.2-1.3,3.1-1.9,5.6-1.9c0.3,0,0.5,0,0.8,0.1l-1.8-4h-0.4c-0.3,0.5-0.6,1-1,1.5c-0.9,1.8-2.7,3-4.8,3c-2.4-0.2-4.7-0.9-6.7-2.2
	c-2.2-1.1-3.3-2.6-3.3-4.5c0.1-1.2,0.4-2.4,1-3.6c1.3-2.6,2.5-5.3,3.5-8C183.8,113.9,186,112.6,188.3,112.7z M203.5,153.3
	c0.2,0,0.5-0.1,0.7-0.1c1.1,0,2.1,0.4,2.8,1.2c1.6,1.8,3,3.8,4.2,5.9v-16.6c0-4.7,1.9-7.4,5.6-8.2c-0.8-0.3-1.6-0.7-2.4-1.1
	c-2.2-1.2-3.4-2.6-3.4-4.4c0-0.3,0-0.5,0.1-0.8c-0.8,0.3-1.6,0.5-2.5,0.4v0.4c0,1.9-1.1,3.7-2.9,4.4c-1.1,0.7-2.3,1.3-3.6,1.7
	c0.4,0.5,0.8,1,1,1.7h0.3c2.2,0,3.7,0.5,4.8,1.5c1.1,0.8,1.7,2.7,1.7,5.8c0,2.4-0.3,4.1-1,5c-1.1,1.5-2.9,2.3-5.4,2.3L203.5,153.3z
	 M224.5,135.3h4.3c-0.2-0.2-0.3-0.5-0.4-0.8c-0.6-1-1-1.9-1.4-2.6c-0.3,0.6-0.7,1.1-1.1,1.6C225.5,134.2,225,134.8,224.5,135.3
	L224.5,135.3z M225.4,159.8h8.2V158h-8.1L225.4,159.8z M231.7,171.3c0.9,0.1,1.7-0.5,1.8-1.3c0-0.2,0-0.3,0-0.5v-0.3h-8.1v0.3
	c-0.1,0.9,0.5,1.7,1.4,1.8c0.1,0,0.3,0,0.5,0H231.7z M225.4,148.6h8c0-0.8-0.7-1.5-1.5-1.5c-0.1,0-0.1,0-0.2,0h-4.5
	C226.1,147.1,225.5,147.6,225.4,148.6L225.4,148.6z"/>
<path class="st3" d="M49.1,60.9l0.4-0.1v-2.7c0.1-2.4,1.7-4,4.8-4.7s4.6,0.4,4.8,2.9c0,1.1,0,1.7,0,2.8c1-0.2,2.1,0,2.9,0.6v-0.6
	c-0.1-1.5,0.2-3,1-4.3c0.8-1,2-1.6,3.2-1.7c6.6-1.1,9.8-1.6,16.4-2.4c1.2-0.3,2.5,0,3.4,0.9c0.6,0.7,0.9,2.1,0.9,4.3
	c0.1,1.4-0.2,2.7-0.7,4c-0.7,1.3-2,2.1-3.5,2.2l-1.5,0.1l0.1,25.9c0,3.9-0.5,6.3-1.4,7.3c-1.3,1.6-3.6,2.3-6.7,2.3
	c-2.1,0.1-4.3-0.2-6.3-0.7c-2-0.6-3.2-2.6-3.2-5.2c0-1.7,0.4-3.3,1.2-4.8c0.4-0.7,1.2-1.2,2-1.4c1.4,0,2.8,0.1,4.2,0.3
	c0.5,0,0.7-0.4,0.7-1.2l-0.1-21.4c-2.1,0.2-3.2,0.4-5.2,0.6c-1.1,0.3-2.3,0-3.2-0.7v0.7c0.1,1.3-0.1,2.6-0.7,3.7
	c-0.7,1.1-1.9,1.9-3.2,2v1.8h0.1c1.1-0.1,2.3,0.4,2.9,1.3c0.7,1.1,1,2.3,0.9,3.6c0.1,1.3-0.3,2.6-0.9,3.8c-0.6,0.9-1.6,1.6-2.7,1.8
	l-0.3,0.1c0,3.2,0,4.8,0,7.9c0,5.3-2.5,8.2-7.2,8.1c-1.9,0-3.8-0.5-5.4-1.5c-1.1-0.9-1.7-2.3-1.6-3.7c-0.1-1.5,0.2-3,0.9-4.4
	c0.4-0.6,1.5-1,3.1-1.1c0.4,0,0.5-0.3,0.5-0.9V85h-0.1c-1.8,0.1-3.1-0.2-3.8-1c-0.8-1.1-1.2-2.4-1.1-3.7c-0.1-1.5,0.3-2.9,1.2-4.1
	c0.8-0.9,1.9-1.4,3.1-1.5l0.7-0.2v-3.7l-0.5,0.1c-1.1,0.2-2.1-0.1-3-0.7c-0.8-0.6-1.2-1.8-1.2-3.6c-0.1-1.5,0.3-3,1.2-4.2
	C46.9,61.6,48,61.1,49.1,60.9z"/>
<path class="st3" d="M106.7,46.1c2.9-0.2,4.3,1.4,4.3,4.7c0,4.7,0,7.1,0,11.8c0,4-1.3,6.1-4.1,6.2c-2.9,0.1-4.3,0.2-7.2,0.3
	l0.1,25.3c-0.2,2.2-1.7,3.4-4.2,3.4s-4.1-1.2-4.2-3.4l-0.2-41.7c0-3.6,1.3-5.5,3.9-5.8C99.7,46.6,102,46.4,106.7,46.1z M99.7,55.3
	l3.2-0.2V54l-3.2,0.2L99.7,55.3z M99.7,61.6l3.2-0.2v-1.1l-3.2,0.2L99.7,61.6z M103.6,70c6.5-0.3,9.8-0.4,16.3-0.5
	c0.8-0.1,1.5,0.2,2.1,0.8c0.5,0.9,0.7,1.9,0.6,2.9c0,0.9-0.1,1.8-0.5,2.6c-0.4,0.8-1.3,1.3-2.2,1.3h-0.4v1.4h0.6
	c0.9-0.1,1.8,0.3,2.3,0.9c0.5,1,0.7,2.1,0.6,3.3c0.1,1-0.1,2-0.5,2.8c-0.5,0.9-1.4,1.4-2.4,1.3h-0.6c0,2.1,0,3.2,0,5.3
	c0.1,1.2-0.2,2.4-0.9,3.4c-0.7,0.8-1.7,1.2-2.7,1.1c-1,0.1-2-0.4-2.7-1.1c-0.7-1-1-2.2-0.9-3.4v-5.3h-1.8c-0.1,1.1-0.3,2.1-0.6,3.2
	c-0.3,1.9-1,3.6-2,5.2c-0.6,0.9-1.6,1.4-2.7,1.3c-1.4-0.1-2.6-0.8-3.6-1.8c-0.7-0.6-1.2-1.6-1.2-2.5c0.1-0.7,0.3-1.3,0.7-1.9
	c0.6-1.1,1.2-2.3,1.6-3.6c-0.6-0.1-1.1-0.4-1.4-0.8c-0.6-0.9-0.8-2-0.7-3.1c-0.1-1.1,0.1-2.3,0.7-3.3c0.6-0.7,1.4-1,2.2-1h0.4v-1.3
	h-0.3c-0.7,0.1-1.5-0.2-2-0.8c-0.5-0.8-0.8-1.8-0.7-2.8c-0.1-1,0.1-2,0.7-2.9C102.1,70.4,102.8,70,103.6,70z M112.3,78.4v-1.3h-1.3
	v1.3L112.3,78.4z M126.9,45.2c3.5-0.1,5.3,1.7,5.3,5.3c0,13.1,0,26.3,0,39.4c0,5.2-2,7.8-6.1,7.8c-1.5,0-3-0.5-4.2-1.4
	c-1.2-1.1-1.9-2.7-1.9-4.4c-0.1-1.6,0.3-3.2,1-4.6c0.3-0.6,1-1,1.7-1.1c0.2,0,0.4,0.1,0.6,0.2c0.2,0.1,0.5-0.4,0.5-1.1
	c0-6.7,0-10.1,0-16.9c-3.1,0-4.7,0.1-7.8,0.2c-2.4,0.1-3.7-1.5-3.7-4.7c0-5.2,0-7.9,0-13.1c0-3.4,1.4-5.2,4.3-5.3
	C120.7,45.3,122.8,45.3,126.9,45.2z M120.4,54.2l3.3-0.1V53l-3.3,0.1V54.2z M123.7,60.6v-1.1l-3.3,0.1v1.1L123.7,60.6z"/>
<path class="st3" d="M148.4,88.3l-0.3,4.7c-0.6,3.1-2,4.8-4.2,4.7c-1.8,0-3.6-0.6-5-1.8c-1-0.8-1.5-2.3-1.5-4.3
	c-0.1-1.7,0-3.3,0.3-5c0.1-0.6,0.6-1,1.2-1c0.3,0,0.5-0.3,0.5-1v-3.3c-0.6-0.2-1.2-0.7-1.6-1.2c-0.8-1.4-1.2-3.1-1.1-4.7
	c-0.2-1.8,0.3-3.5,1.3-5c0.3-0.5,0.8-0.9,1.4-1.1v-4.8c-0.5-0.2-1-0.6-1.4-1c-0.8-0.9-1.2-2.4-1.2-4.7c0-2.4,0.4-4,1.2-4.9
	c0.3-0.5,0.8-0.8,1.4-0.9v-3.5c0.1-2.7,1.6-4.1,4.5-4.1s4.4,1.5,4.5,4.3v3.6c0.1,0.1,0.2,0.2,0.3,0.2c0.3-5,1.7-7.5,4.1-7.4
	c7.4,0.3,14.8,0.8,22.1,1.6c2.7,0.3,4.1,3.4,4.1,9.4v1.1c0.1,0.9-0.3,1.8-0.9,2.4c-0.7,0.5-1.7,0.8-2.6,0.7c-1,0-2.1-0.3-2.9-1
	c-0.4-0.6-0.7-1.3-0.6-2v0.3c0.1-0.5-0.2-1.1-0.6-1.4v3c0,1,0.4,1.5,1.2,1.6l2.5,0.2c2,0.1,2.9,1.7,2.9,4.6s-1.3,5.5-3.3,5.4
	 M153.1,71h0.4c-0.7-0.4-1.4-0.9-1.9-1.5c-0.8-0.9-1.2-1.9-1.2-3.1c0-0.7,0.2-1.4,0.6-1.9c2-1.5,3.7-3.3,4.9-5.4
	c0.4-0.9,0.7-1.8,0.9-2.8h-0.1c-0.6,0-1,0.5-1,1.4v-0.3c0.1,0.8-0.2,1.6-0.7,2.2c-0.9,0.5-1.8,0.7-2.8,0.6c-0.6,0-1.1-0.1-1.7-0.3
	c0.1,1.1-0.1,2.2-0.5,3.2c-0.4,0.7,0.6,1.1,0,1.4c0,1.5-1.5,2.2-1.5,3.6c0.8,0.3,1.4,0.9,1.9,1.6c0.3,0.6,0.5,1.2,0.6,1.8 M172,66.6
	l3,0.9l1.2,4.1l-2.5,0.9l-1.8,1.7l7.2,0.7v1.3c0,1.1-0.9,2.1-2.1,2.1c0,0,0,0,0,0h-28.3c-0.4,0.3,0.2,1.1-0.3,1.3c0,3.5,0,5.2,0,8.7
	"/>
<path class="st3" d="M221.2,85.3c0.2,0.4,0.4,0.9,0.4,1.4c0,0.6-0.2,1.1-0.4,1.6c0.9,1.2,1.9,2.3,2.9,3.4c0.6,0.6,0.9,1.3,1.1,2.1
	c-0.1,1.2-0.7,2.3-1.7,3c-1,0.7-2.1,1.2-3.4,1.2c-0.6,0-1.2-0.3-1.6-0.8c-0.5-0.5-1-1.1-1.4-1.7c-0.2,0.3-0.5,0.6-0.8,0.8
	c-0.7,0.9-1.8,1.5-3,1.7c-1.3-0.1-2.4-0.7-3.3-1.7c-1,0.8-2.2,1.2-3.4,1.2c-0.6-0.1-1.1-0.4-1.5-0.9c-0.4-0.4-0.8-0.9-1.2-1.4
	c-0.2,0.3-0.5,0.6-0.7,0.9c-0.7,1-1.8,1.6-3,1.8c-1.3-0.1-2.5-0.7-3.3-1.7c-0.9-0.8-1.3-2-1.2-3.1c0-0.3,0.1-0.7,0.4-0.9
	c0.9-1.2,1.8-2.5,2.5-3.8c0.7-1.4,1.3-2.9,1.7-4.4c-0.4-0.1-0.8-0.4-1.1-0.7c0,2-0.5,4-1.5,5.7c-1.1,1.7-3,2.6-5,2.5
	c-0.7,0-1.4-0.1-2.1-0.3c0,1.6,0,2.4,0,4c-0.1,1.8-1.5,2.8-3.7,2.8s-3.6-1.1-3.7-2.9c0.1-14,0.1-28,0.2-41.9c0-3.2,1.1-4.7,3.1-4.4
	c3.3,0.4,4.9,0.6,8.1,1.1c2.8,0.4,4.2,2.4,4.2,6c0,0.8,0,1.6-0.1,2.4 M207.4,84.5c0.3,0.5,0.5,1.1,0.5,1.8c0,0.4-0.1,0.7-0.2,1.1
	c0.9,1.2,1.8,2.4,2.9,3.6c0.6-0.7,1.1-1.4,1.6-2.2c0.8-1.3,1.4-2.7,1.8-4.1 M197.7,64.5c-0.4,1.9-1,4-1.6,6.2
	c0.8,1.5,1.4,3.1,1.9,4.8 M190.7,67.2c0.5-2.2,0.7-4.4,0.8-6.7c0-0.6,0-0.9-0.2-0.9l-0.5-0.1C190.7,62.6,190.7,64.1,190.7,67.2
	L190.7,67.2z M190.6,80.8c0.4-0.1,0.8-0.3,1-0.7c0.1-0.5,0.2-1,0.2-1.5c-0.1-1.8-0.5-3.5-1.1-5.2C190.6,76.3,190.6,77.8,190.6,80.8
	L190.6,80.8z"/>
<path class="st3" d="M168.2,88.5L168.2,88.5c2.7,0,4.9-2.2,5-4.9c0-1.1-0.3-2.1-1-3c-0.7-0.9-1.1-1.5-1.1-1.5l-2.2-7l-5-15.6
	c0,0-3.1,12.2-10.2,14.8c-0.8,0.3,5.2,0.3,5.2,0.3l-2.9,7.5c0,0-3.9,5.9-8.4,9.3h11.3v5c-0.2,2.4,1.7,4.5,4.1,4.7c0.1,0,0.3,0,0.4,0
	l0,0h0.3l0,0c2.4,0.1,4.5-1.9,4.5-4.3c0-0.1,0-0.3,0-0.4L168.2,88.5z"/>
<circle class="st3" cx="153.4" cy="93.9" r="3.4"/>
<circle class="st3" cx="173.7" cy="93.9" r="3.4"/>
<path class="st3" d="M194.5,74.5c0-0.6,6.1-22.1,6.1-22.1s0.9-3.3,5-2.7c2,0,3.7,1.4,4.2,3.3l0.7,23.1L194.5,74.5z"/>
<ellipse transform="matrix(6.958233e-02 -0.9976 0.9976 6.958233e-02 111.4033 273.5615)" class="st3" cx="202.4" cy="77.1" rx="8" ry="8.2"/>
<ellipse transform="matrix(6.958233e-02 -0.9976 0.9976 6.958233e-02 111.4033 273.5615)" class="st3" cx="202.4" cy="77.1" rx="4.1" ry="4.2"/>
<path class="st3" d="M228.2,76.6c0-0.6-4.1-22.5-4.1-22.5s-0.6-3.3-4.8-3.2c-2-0.1-3.8,1-4.5,2.9l-2.7,22.9L228.2,76.6z"/>
<ellipse transform="matrix(5.495021e-02 -0.9985 0.9985 5.495021e-02 129.8106 293.9513)" class="st3" cx="220.2" cy="78.4" rx="8" ry="8.2"/>
<ellipse transform="matrix(5.495021e-02 -0.9985 0.9985 5.495021e-02 129.8106 293.9513)" class="st3" cx="220.2" cy="78.4" rx="4.1" ry="4.2"/>
<path class="st3" d="M207,62.8l0.1-4.2c3.2-1.1,6.8-0.8,9.8,0.8l-0.6,4.4C213.5,62.3,210.1,62,207,62.8z"/>
<path class="st3" d="M207.1,60.5c3.1-0.9,6.5-0.5,9.4,1"/>
<polygon class="st3" points="148.7,69.6 149.7,68.1 158.2,68.4 153.6,71.4 149.4,73.5 "/>
<path class="st4" d="M29.7,105.6h55.2c2.5,0,4.3,0.6,5.4,1.8c1,0.9,1.5,2.9,1.5,5.9c0.1,1.9-0.3,3.7-1.3,5.3c-1.2,1.6-3,2.4-5.6,2.4
	H64.6l-0.8,2.7H80c6.7,0,10,3.3,10,10v30.9c0,6.7-3.3,10-10,10H34.6c-6.7,0-10-3.3-10-10v-30.9c0-6.7,3.3-10,10-10h12l0.8-2.7H29.7
	c-2.3,0-4-0.6-5.1-1.8c-1.2-1.1-1.7-3-1.7-5.9c0-3,0.6-5,1.7-6S27.3,105.6,29.7,105.6z M42.1,141.9h30.3v-0.3
	c0.2-1.2-0.7-2.3-1.8-2.4c-0.2,0-0.4,0-0.6,0H44.6c-1.2-0.2-2.3,0.6-2.4,1.8c0,0.2,0,0.4,0,0.6V141.9z M70,159.1
	c1.2,0.2,2.3-0.6,2.4-1.8c0-0.2,0-0.4,0-0.6v-1.2H42.1v1.2c-0.2,1.2,0.6,2.3,1.8,2.4c0.2,0,0.4,0,0.6,0H70z"/>
<path class="st4" d="M188.3,104.5c2.4-0.1,4.8,0.5,7,1.6c0.9,0.4,1.6,1.1,2,2h10.7c2.4,0,3.9,0.5,4.7,1.4c0.8,1.2,1.2,2.5,1.2,3.9
	c0.9-2.1,1.6-3.9,2.1-5.4c1-2.1,3.2-3.4,5.5-3.2c2.4-0.1,4.8,0.5,7,1.6c0.9,0.3,1.7,1.1,2,2h11.9c2.4,0,3.9,0.5,4.7,1.4
	c0.8,1,1.2,2.7,1.3,5.2c0.1,1.7-0.2,3.4-1,4.9c-1,1.2-2.6,1.7-5,1.7h-1c0,2.1-1.2,3.9-3.1,4.8l-1.1,0.5h1.9c5.6,0,8.5,2.8,8.5,8.5
	v30.9c0,5.6-2.8,8.5-8.5,8.5h-19.6c-5.6,0-8.5-2.8-8.5-8.5v-6.7c-0.3,0.5-0.7,1-1.2,1.4c-1.6,1.3-3.7,2-5.8,2c-0.3,0-0.6,0-0.8-0.1
	v5.7c0.1,1.6-0.5,3.1-1.5,4.3c-1.2,1.4-3.3,2.2-6.3,2.2c-2.7,0-4.7-0.8-6-2.3c-1.2-1.1-1.9-2.7-1.9-4.3v-1.6
	c-0.3,0.3-0.7,0.5-1.1,0.6c-2.4-0.1-4.5-1.4-6.4-3.9c-1.4-1.7-2.2-3.9-2.1-6.2c0.1-1.1,0.5-2.2,1.2-3.1c2.8-3.1,5.3-6.5,7.6-10.1
	h-0.2c-1.7,0.1-3.4-0.5-4.6-1.7c-1.2-1-1.8-2.9-1.8-5.6c0-2.9,0.6-4.8,1.8-5.9c0.9-0.9,2.4-1.4,4.6-1.4h1.6c0.3-1,1-1.8,1.8-2.4
	c1.2-1.3,3.1-1.9,5.6-1.9c0.3,0,0.5,0,0.8,0.1l-1.8-4h-0.4c-0.3,0.5-0.6,1-1,1.5c-0.9,1.8-2.7,3-4.8,3c-2.4-0.2-4.7-0.9-6.7-2.2
	c-2.2-1.1-3.3-2.6-3.3-4.5c0.1-1.2,0.4-2.4,1-3.6c1.3-2.6,2.5-5.3,3.5-8C183.8,105.6,186,104.4,188.3,104.5z M203.5,145.1
	c0.2,0,0.5-0.1,0.7-0.1c1.1,0,2.1,0.4,2.8,1.2c1.6,1.8,3,3.8,4.2,5.9v-16.6c0-4.7,1.9-7.4,5.6-8.2c-0.8-0.3-1.7-0.7-2.4-1.1
	c-2.2-1.2-3.3-2.6-3.3-4.5c0-0.3,0-0.5,0.1-0.8c-0.8,0.3-1.6,0.5-2.5,0.4v0.4c0,1.9-1.1,3.7-2.9,4.4c-1.1,0.7-2.3,1.3-3.6,1.7
	c0.4,0.5,0.8,1,1,1.7h0.3c2.2,0,3.7,0.5,4.8,1.5c1.1,0.8,1.7,2.7,1.7,5.8c0,2.4-0.3,4.1-1,5c-1.1,1.5-2.9,2.3-5.4,2.3L203.5,145.1z
	 M224.5,127.1h4.3c-0.2-0.2-0.3-0.5-0.4-0.8c-0.6-1-1-1.9-1.4-2.6c-0.3,0.6-0.7,1.1-1.1,1.6C225.5,126,225,126.6,224.5,127.1
	L224.5,127.1z M225.4,151.6h8.2v-1.8h-8.1L225.4,151.6z M231.7,163.1c0.9,0.1,1.7-0.5,1.8-1.3c0-0.2,0-0.3,0-0.5V161h-8.1v0.3
	c-0.1,0.9,0.5,1.7,1.4,1.8c0.1,0,0.3,0,0.5,0L231.7,163.1z M225.4,140.4h8c0-0.8-0.7-1.5-1.5-1.5c-0.1,0-0.1,0-0.2,0h-4.5
	C226.1,138.9,225.5,139.4,225.4,140.4L225.4,140.4z"/>
<path class="st4" d="M124,107.8c-1.9-5-7.5-7.5-12.5-5.6s-7.5,7.5-5.6,12.5c1.9,5,7.5,7.5,12.5,5.6c2.8-1.1,5-3.4,5.8-6.2h28v6.2
	h5.4v-6.2h4.8v6.2h5.4v-12.5H124z"/>
<path class="st5" d="M122.7,110.3c-0.6-3.5-3.6-6.1-7.1-6.3c-5.2-0.4-8.2,3.8-8.2,8.5s3.8,8.4,9,8.4c4.3,0,6.6-3.4,7.8-6.9h28
	l0.4,6.3h5.2v-5.8h4.7v5.8h5.2v-10.2L122.7,110.3z"/>
<circle class="st1" cx="114.7" cy="111.2" r="2.5"/>
<path class="st3" d="M135.5,134.4c2.7,0,4.7,0.5,5.8,1.5c0.2,0.2,0.4,0.4,0.6,0.6h20.5c5.7,0,8.6,2.6,8.6,7.9v0.8
	c0,2.1-0.7,3.6-2,4.4c-0.5,0.4-1.1,0.8-1.8,1c-0.1,0.6-0.2,1.2-0.5,1.7c-0.7,0.7-1.6,1-2.6,0.9h-8.2v1.6h10.5
	c0.9-0.1,1.9,0.2,2.6,0.8c0.4,0.4,0.7,1.3,0.7,2.8c0.1,0.9-0.2,1.8-0.6,2.5c-0.2,0.3-0.5,0.6-0.9,0.8c0.2,0.5,0.3,1,0.3,1.6v2.8
	c0,3.7-2.3,5.5-6.8,5.5H138c-2.7,0-4.5-0.6-5.4-1.9c-0.7,0.7-1.6,1.1-2.6,1.1l-24.9,0.9c-1,0-2-0.4-2.6-1.1
	c-0.6-0.8-0.9-1.8-0.9-2.8c0-1.1,0.3-2.1,1-3c0.5-0.6,1.2-0.9,2-0.9l6.3-0.2v-1.6h-4.2c-0.8,0-1.5-0.2-2.1-0.8
	c-0.6-0.7-0.9-1.6-0.8-2.6c-0.1-1,0.2-2,0.8-2.7c0.6-0.5,1.4-0.7,2.1-0.6h4.2v-1.2h-4.5c-0.9,0-1.8-0.3-2.5-0.9
	c-0.8-0.8-1.1-1.9-1-3V150c-0.5-0.2-0.9-0.4-1.3-0.7c-1.3-1.1-2-2.8-1.9-4.5v-0.4c0-5.3,2.9-7.9,8.6-7.9h20.8
	c0.2-0.2,0.4-0.4,0.7-0.6C130.9,134.9,132.8,134.4,135.5,134.4z M111.9,172.9h47.2c4.8,0,7.3,2.4,7.3,7.3v11.5c0,3.1-1,5.2-2.9,6.2
	c1.6,0.3,3.3,0.5,5.1,0.8c1.8,0,2.6,0.7,2.6,2c0,1.4-0.4,2.8-1.1,4.1c-1.3,2.1-3.6,3.4-6.1,3.3c-2.4-0.1-4.7-0.4-7-0.8
	c-5-1.2-9.6-2.4-13.7-3.8c-2.2-0.8-3.2-1.7-3.2-2.8c0-0.6,0.2-1.2,0.5-1.7h-10.4c0.1,0.3,0.2,0.7,0.2,1c0,0.6-0.7,1.3-2.2,2
	c-4,1.7-8.2,3-12.4,4.1c-2.9,0.8-5.8,1.2-8.8,1.4c-2,0-3.9-0.9-5.1-2.5c-1.1-1-1.7-2.4-1.7-3.9c0.1-1.2,0.7-2.2,1.7-2.9
	c1.6-0.2,3.3-0.5,4.9-0.8c-1.4-1.5-2.2-3.5-2-5.6v-11.5C104.7,175.3,107.1,172.9,111.9,172.9z M131.6,150.3c1-1.7,1.9-3.4,2.6-5.2
	h-17.8c-1.3,0-2,0.4-2,1.3V146c0,0.2,0,0.4-0.1,0.6h13.7c1-0.1,1.9,0.2,2.6,0.8C131.3,147.8,131.6,148.8,131.6,150.3z M131.7,163.6
	c0-0.8,0.3-1.5,0.9-2l-0.1-0.1c-0.6-0.8-1-1.8-0.8-2.8c0-1.5,0.3-2.4,0.8-2.8c0,0,0.1-0.1,0.1-0.1c-0.9-0.4-1.6-1.3-1.7-2.3
	c-0.7,0.7-1.7,1-2.7,0.9h-3.6v1.2h3.5c0.8-0.1,1.6,0.2,2.2,0.7c0.5,0.4,0.8,1.3,0.8,2.6c0.1,0.8-0.1,1.6-0.4,2.3
	c-0.6,0.8-1.5,1.2-2.5,1.1h-3.6v1.1l5.4-0.2C130.5,163.1,131.1,163.3,131.7,163.6L131.7,163.6z M144.7,155v-1.7h-2.5
	c-0.3,0.6-0.7,1.2-1.2,1.7H144.7z M142.1,162.3c0.3,0.6,0.4,1.2,0.4,1.8c0,0.5,0.4,0.8,1.1,0.8h1.2v-2.6H142.1z M144.7,146.4h11.5
	c0-0.9-0.8-1.4-2.3-1.4h-9.1c0,0.2,0.1,0.5,0.1,0.8C144.8,146,144.8,146.2,144.7,146.4L144.7,146.4z M155.9,164.8
	c1.1,0,1.7-0.2,1.7-0.7v-0.7c0-0.4,0.1-0.8,0.2-1.2h-1.9V164.8z"/>
<path class="st4" d="M135.5,126.3c2.7,0,4.7,0.5,5.8,1.5c0.2,0.2,0.4,0.4,0.6,0.6h20.5c5.7,0,8.6,2.6,8.6,7.9v0.8
	c0,2.1-0.7,3.6-2,4.4c-0.5,0.4-1.1,0.8-1.8,1c-0.1,0.6-0.2,1.2-0.5,1.7c-0.7,0.7-1.6,1-2.6,0.9h-8.2v1.7h10.5
	c0.9-0.1,1.9,0.2,2.6,0.8c0.4,0.4,0.7,1.3,0.7,2.8c0.1,0.9-0.2,1.8-0.6,2.5c-0.2,0.3-0.5,0.6-0.9,0.8c0.2,0.5,0.3,1,0.3,1.6v2.8
	c0,3.7-2.3,5.5-6.8,5.5H138c-2.7,0-4.5-0.6-5.4-1.9c-0.7,0.7-1.6,1.1-2.6,1.1l-24.9,0.9c-1,0-2-0.4-2.6-1.1
	c-0.6-0.8-0.9-1.8-0.9-2.8c0-1.1,0.3-2.1,1-3c0.5-0.6,1.2-0.9,2-0.9l6.3-0.2v-1.6h-4.2c-0.8,0-1.5-0.2-2.1-0.8
	c-0.6-0.7-0.9-1.6-0.8-2.6c-0.1-1,0.2-2,0.8-2.7c0.6-0.5,1.4-0.7,2.1-0.6h4.2v-1.2h-4.5c-0.9,0-1.8-0.3-2.5-0.9
	c-0.8-0.8-1.1-1.9-1-3v-0.4c-0.5-0.2-0.9-0.4-1.3-0.7c-1.3-1.1-2-2.8-1.9-4.5v-0.4c0-5.3,2.9-7.9,8.6-7.9h20.8
	c0.2-0.2,0.4-0.4,0.7-0.6C130.9,126.8,132.8,126.3,135.5,126.3z M111.9,164.7h47.2c4.8,0,7.3,2.4,7.3,7.3v11.5c0,3.1-1,5.2-2.9,6.2
	c1.6,0.2,3.3,0.5,5.1,0.8c1.8,0,2.6,0.7,2.6,2c0,1.4-0.4,2.8-1.1,4.1c-1.3,2.1-3.6,3.4-6.1,3.3c-2.4-0.1-4.7-0.4-7-0.8
	c-5-1.2-9.6-2.4-13.7-3.8c-2.2-0.8-3.2-1.7-3.2-2.8c0-0.6,0.2-1.2,0.5-1.7h-10.4c0.1,0.3,0.2,0.7,0.2,1c0,0.6-0.7,1.3-2.2,2
	c-4,1.7-8.2,3-12.4,4.1c-2.9,0.8-5.8,1.2-8.8,1.4c-2,0-3.9-0.9-5.1-2.5c-1.1-1-1.7-2.4-1.7-3.9c0.1-1.2,0.7-2.2,1.7-2.9
	c1.6-0.2,3.3-0.5,4.9-0.8c-1.4-1.5-2.2-3.5-2-5.6v-11.5C104.7,167.1,107.1,164.7,111.9,164.7z M131.6,142.1c1-1.7,1.9-3.4,2.6-5.2
	h-17.8c-1.3,0-2,0.4-2,1.3v-0.4c0,0.2,0,0.4-0.1,0.6h13.7c1-0.1,1.9,0.2,2.6,0.8C131.3,139.6,131.6,140.6,131.6,142.1L131.6,142.1z
	 M131.7,155.4c0-0.8,0.3-1.5,0.9-2l-0.1-0.1c-0.6-0.8-1-1.8-0.8-2.8c0-1.5,0.3-2.4,0.8-2.8c0,0,0.1-0.1,0.1-0.1
	c-0.9-0.4-1.6-1.3-1.7-2.3c-0.7,0.7-1.7,1-2.7,0.9h-3.6v1.2h3.5c0.8-0.1,1.6,0.2,2.2,0.7c0.5,0.4,0.8,1.3,0.8,2.6
	c0.1,0.8-0.1,1.6-0.4,2.3c-0.6,0.8-1.5,1.2-2.5,1.1h-3.6v1.1l5.4-0.2C130.5,155,131.1,155.1,131.7,155.4L131.7,155.4z M144.7,146.8
	v-1.7h-2.5c-0.3,0.6-0.7,1.2-1.2,1.7H144.7z M142.1,154.1c0.2,0.6,0.8,0.1,0.8,0.7c0,0.5,0.4,0.8,1.1,0.8l0.8,1.1v-2.6L142.1,154.1z
	 M144.7,138.2h11.5c0-0.9-0.8-1.4-2.3-1.4h-9.1c0,0.2,0.1,0.5,0.1,0.8C144.8,137.8,144.8,138,144.7,138.2L144.7,138.2z M155.9,156.7
	c1.1,0,1.7-0.2,1.7-0.7v-0.7c0-0.4,0.1-0.8,0.2-1.2h-1.9V156.7z"/>
<path class="st6" d="M246.1,222.3l-22.6-4.3l7.2-21.3c0,0-36.9,17-94.3,18.4c-57.4-1.5-94.3-18.5-94.3-18.5l7.2,21.3l-22.7,4.4
	c15.7,18.6,61.9,30.4,109,30.4S230.5,240.9,246.1,222.3z"/>
<path class="st7" d="M135.7,253.9c-49.4,0-94.6-12.7-109.9-30.8c-0.3-0.3-0.4-0.8-0.2-1.2c0.2-0.4,0.5-0.7,0.9-0.8l21.3-4.1
	L41,197.1c-0.2-0.5,0-1,0.3-1.3c0.4-0.3,0.9-0.4,1.3-0.2c0.4,0.2,37.4,16.9,93.8,18.3c56.4-1.4,93.4-18.2,93.8-18.3
	c0.4-0.2,1-0.1,1.3,0.2c0.4,0.3,0.5,0.8,0.3,1.3l-6.8,19.9l21.3,4.1c0.4,0.1,0.8,0.4,0.9,0.8c0.1,0.4,0.1,0.9-0.2,1.2
	C231.8,241.3,186,253.9,135.7,253.9z M29.1,223.1c16.1,16.8,59.3,28.4,106.6,28.4s92.1-11.9,108.1-28.4l-20.5-3.9
	c-0.3-0.1-0.7-0.3-0.8-0.6c-0.2-0.3-0.2-0.7-0.1-1l6.4-18.7c-9.3,3.8-43.7,16.2-92.2,17.5c-48.6-1.2-83-13.7-92.3-17.5l6.4,18.7
	c0.1,0.3,0.1,0.7-0.1,1c-0.2,0.3-0.5,0.5-0.8,0.6L29.1,223.1z"/>
<path class="st3" d="M209.7,61.3c0,0.5,0.7,8.7,0.7,8.7l-0.3,7l-1.5,3.3l0.9,4.3l0.9,1.8l4.2-5.3c0,0-2.7-5.4-2.6-6.2s1.4-7,1.4-7
	l0.1-6.6l-2.2-0.8L209.7,61.3z"/>
<path class="st1" d="M114.9,121.9c-5.9,0-10.7-4.8-10.7-10.6c0-5.9,4.8-10.7,10.6-10.7c4.2,0,8.1,2.5,9.8,6.3h43.1
	c0.5,0,0.9,0.4,0.9,0.9v12.5c0,0.5-0.4,0.9-0.9,0.9l0,0h-5.4c-0.5,0-0.9-0.4-0.9-0.9c0,0,0,0,0,0v-5.3h-3v5.3c0,0.5-0.4,0.9-0.9,0.9
	l0,0h-5.4c-0.5,0-0.9-0.4-0.9-0.9c0,0,0,0,0,0v-5.3h-26.3C123.3,119.2,119.3,121.9,114.9,121.9z M114.9,102.4
	c-4.9,0-8.8,3.9-8.8,8.8s3.9,8.8,8.8,8.8c3.9,0,7.3-2.5,8.4-6.2c0.1-0.4,0.5-0.7,0.9-0.7h28c0.5,0,0.9,0.4,0.9,0.9c0,0,0,0,0,0v5.3
	h3.5v-5.3c0-0.5,0.4-0.9,0.9-0.9l0,0h4.8c0.5,0,0.9,0.4,0.9,0.9c0,0,0,0,0,0v5.3h3.5v-10.6H124c-0.4,0-0.7-0.2-0.9-0.6
	C121.8,104.7,118.5,102.4,114.9,102.4z"/>
<path class="st4" d="M174.8,68.1c0.9,0,1.7-0.5,2.2-1.3h-3.4L174.8,68.1z"/>
<path class="st8" d="M172,54.7v-0.3c-0.1,0.7,0.2,1.4,0.6,2c0.8,0.7,1.8,1,2.9,1c0.9,0.1,1.8-0.2,2.6-0.7c0.7-0.6,1-1.5,0.9-2.4
	v-1.1c0-6-1.3-9.1-4.1-9.4c-7.3-0.7-14.7-1.3-22.1-1.6c-2.4-0.1-3.8,2.4-4.1,7.4c-0.1-0.1-0.2-0.2-0.3-0.2v-3.6
	c-0.1-2.8-1.7-4.2-4.5-4.3s-4.5,1.4-4.5,4.1V49c-0.5,0.1-1,0.4-1.4,0.9c-0.8,0.9-1.2,2.5-1.2,4.9c0,2.2,0.4,3.8,1.2,4.7
	c0.4,0.4,0.8,0.8,1.4,1v4.8c-0.6,0.2-1.1,0.6-1.4,1.1c-0.2,0.2-0.3,0.4-0.4,0.6l13.1-0.1c-0.1-0.4-0.3-0.8-0.4-1.2
	c-0.4-0.7-1.1-1.3-1.9-1.6c0-1.4,0-2.2,0-3.6c0.7-0.3,1.2-0.7,1.6-1.3c0.4-1,0.7-2.1,0.6-3.2c0.5,0.2,1.1,0.3,1.7,0.3
	c1,0.1,1.9-0.1,2.8-0.6c0.6-0.6,0.8-1.4,0.7-2.2v0.3c0-1,0.3-1.5,1-1.4h0.1c-0.2,1-0.5,1.9-1,2.8c-1.3,2.1-2.9,3.9-4.9,5.4
	c-0.4,0.5-0.7,1.2-0.6,1.9c0,1.1,0.5,2.2,1.2,3.1c0.5,0.6,1.1,1.1,1.8,1.4h1.4l0.4-0.1l3.1-2.1l2.4-4l3-4.5l9.7,10.5h3.4
	c0.7-1.2,1.1-2.7,1.1-4.1c0-2.9-1-4.5-2.9-4.6l-2.5-0.2c-0.8-0.1-1.2-0.6-1.2-1.6c0-1.2,0-1.8,0-3C171.8,53.6,172.1,54.1,172,54.7z"
	/>
<path class="st9" d="M153.6,67h-0.4l-2.2,0.6c0-0.2-0.1-0.4-0.1-0.6l-13.1,0c-0.7,1.4-1,2.9-0.9,4.4c-0.1,1.7,0.3,3.3,1.1,4.7
	c0.4,0.6,0.9,1,1.6,1.3v3.3c0,0.6-0.2,1-0.5,1c-0.6,0-1.1,0.4-1.2,1c-0.3,1.7-0.4,3.3-0.3,5c0,2,0.5,3.4,1.5,4.3
	c1.4,1.1,3.2,1.8,5,1.8c2.2,0.1,3.6-1.6,4.2-4.7l0.3-4.7v-9.5c0,0,2.9-0.8,1.8-6.8l3.1-0.8l1.5-0.3L153.6,67L153.6,67z"/>
<path class="st9" d="M91.5,90.7c0.2,2.2,1.7,3.4,4.2,3.4s4.1-1.3,4.2-3.4l-0.1-23l-8.5,0.6C91.4,75.7,91.4,83.2,91.5,90.7z"/>
<path class="st8" d="M111.2,46.7c0-3.3-1.5-4.9-4.4-4.7c-4.6,0.3-7,0.5-11.6,1c-2.7,0.3-4,2.2-4,5.8c0,6.5,0,13,0.1,19.4l8.5-0.6
	v-2.4c2.9-0.2,4.4-0.2,7.3-0.3c2.8-0.1,4.1-2.2,4.1-6.2C111.2,53.8,111.2,51.5,111.2,46.7z"/>
<path class="st4" d="M99.8,51.2L103,51v-1.2l-3.3,0.2L99.8,51.2z"/>
<path class="st1" d="M99.8,52c-0.2,0-0.4-0.1-0.6-0.2c-0.2-0.2-0.3-0.4-0.3-0.6v-1.1c0-0.4,0.3-0.8,0.8-0.8L103,49
	c0.4,0,0.8,0.3,0.9,0.7c0,0,0,0,0,0.1V51c0,0.4-0.3,0.8-0.8,0.8C101.8,51.9,101.1,52,99.8,52L99.8,52z"/>
<path class="st4" d="M99.8,57.6l3.2-0.2v-1.1l-3.2,0.2V57.6z"/>
<path class="st1" d="M99.8,58.4c-0.4,0-0.8-0.3-0.8-0.8c0,0,0,0,0,0v-1.1c0-0.4,0.3-0.8,0.8-0.8l3.3-0.2c0.2,0,0.4,0.1,0.6,0.2
	c0.2,0.2,0.3,0.4,0.2,0.6v1.1c0,0.4-0.3,0.8-0.8,0.8C101.8,58.3,101.1,58.3,99.8,58.4L99.8,58.4z"/>
<path class="st9" d="M103.7,66c6.6-0.3,9.8-0.4,16.4-0.5c0.8-0.1,1.6,0.2,2.1,0.8c0.5,0.9,0.7,1.9,0.6,2.9c0.1,0.9-0.1,1.8-0.5,2.6
	c-0.4,0.8-1.3,1.3-2.2,1.2h-0.4v1.4h0.6c0.9-0.1,1.8,0.3,2.3,0.9c0.5,1,0.8,2.2,0.6,3.3c0.1,1-0.1,2-0.5,2.8
	c-0.5,0.9-1.4,1.4-2.4,1.3h-0.6c0,2.1,0,3.2,0,5.3c0.1,1.2-0.2,2.4-0.9,3.4c-0.7,0.8-1.7,1.2-2.7,1.2c-1,0.1-2-0.4-2.7-1.1
	c-0.7-1-1-2.2-0.9-3.4v-5.3h-1.8c-0.2,1-0.3,2.1-0.6,3.2c-0.3,1.9-1,3.7-2,5.2c-0.6,0.9-1.6,1.4-2.7,1.4c-1.4-0.1-2.6-0.8-3.6-1.8
	c-0.7-0.6-1.2-1.6-1.2-2.6c0.1-0.7,0.3-1.3,0.7-1.9c0.6-1.2,1.2-2.4,1.6-3.6c-0.6-0.1-1.1-0.4-1.4-0.8c-0.6-0.9-0.8-2-0.7-3.1
	c-0.1-1.1,0.1-2.3,0.7-3.3c0.6-0.7,1.4-1,2.3-1h0.3v-1.3h-0.3c-0.8,0.1-1.5-0.2-2-0.8c-0.5-0.8-0.8-1.8-0.7-2.8
	c-0.1-1,0.1-2,0.7-2.9C102.2,66.3,102.9,66,103.7,66z"/>
<path class="st4" d="M112.4,74.5v-1.4h-1.4v1.3L112.4,74.5z"/>
<path class="st1" d="M111.1,75.3c-0.4,0-0.8-0.4-0.8-0.8v-1.3c0-0.4,0.3-0.8,0.8-0.8h1.3c0.2,0,0.4,0.1,0.6,0.2
	c0.2,0.2,0.3,0.4,0.2,0.6v1.3c0,0.4-0.3,0.8-0.8,0.8c0,0,0,0,0,0L111.1,75.3L111.1,75.3z"/>
<path class="st8" d="M132.4,46.3c0-3.6-1.8-5.4-5.3-5.3c-4.2,0.1-6.2,0.2-10.4,0.3c-2.9,0.1-4.3,1.9-4.3,5.3c0,5.3,0,7.9,0,13.2
	c0,3.2,1.2,4.8,3.7,4.7c3.1-0.1,4.7-0.1,7.8-0.2v2.4l8.5,0.2L132.4,46.3z"/>
<path class="st9" d="M123.9,66.8c0,5.3,0,8.6,0,14.5c0,0.7-0.3,1.2-0.5,1.1c-0.2-0.1-0.4-0.1-0.6-0.2c-0.7,0.1-1.3,0.5-1.7,1.1
	c-0.8,1.4-1.1,3-1,4.6c0,1.7,0.6,3.3,1.9,4.4c1.2,1,2.7,1.5,4.2,1.4c4.1,0,6.1-2.6,6.1-7.9c0-6.3,0-12.6,0-18.9L123.9,66.8z"/>
<path class="st4" d="M120.6,50.1l3.3-0.1v-1.1l-3.3,0.1V50.1z"/>
<path class="st1" d="M120.6,50.9c-0.4,0-0.8-0.3-0.8-0.8c0,0,0,0,0,0V49c0-0.4,0.4-0.8,0.8-0.8l3.3-0.1c0.2,0,0.4,0.1,0.6,0.2
	c0.2,0.2,0.3,0.4,0.2,0.6V50c0,0.4-0.4,0.8-0.8,0.8L120.6,50.9L120.6,50.9z"/>
<path class="st4" d="M123.9,56.6v-1.1c-1.3,0-2,0-3.3,0.1v1.1L123.9,56.6z"/>
<path class="st1" d="M120.6,57.5c-0.4,0-0.8-0.3-0.8-0.8c0,0,0,0,0,0v-1.1c0-0.4,0.3-0.8,0.8-0.8l3.3-0.1c0.2,0,0.4,0.1,0.6,0.2
	c0.2,0.2,0.2,0.4,0.2,0.6v1.1c0,0.4-0.4,0.8-0.8,0.8L120.6,57.5L120.6,57.5z"/>
<path class="st4" d="M168.2,84.6h11.3c-4.5-3.4-8.4-9.3-8.4-9.3h7.6c-3.9-1.7-9.8-7-9.8-7l7.7-0.3c-7.3-1.1-12.6-15.4-12.7-15.3
	S160,63.9,153.6,67c-0.8,0.5-1.6,0.9-2.5,1l7.8-0.2c-3,2.8-6.2,5.3-9.6,7.5h6.7c0,0-3,5.9-7.5,9.3h10.4v5c-0.2,2.4,1.7,4.6,4.1,4.7
	c0.1,0,0.3,0,0.4,0l0,0h0.3l0,0c2.4,0.1,4.5-1.9,4.5-4.3c0-0.1,0-0.3,0-0.4L168.2,84.6z"/>
<circle class="st9" cx="153.4" cy="90" r="3.4"/>
<circle class="st9" cx="173.7" cy="90" r="3.4"/>
<path class="st8" d="M198.7,54.2c0.1-0.8,0.1-1.7,0.1-2.4c0-3.6-1.4-5.6-4.2-6c-3.2-0.5-4.9-0.7-8.1-1.1c-2.1-0.3-3.1,1.2-3.1,4.4
	c0,6,0,12-0.1,18l15.6,0.3L198.7,54.2z"/>
<path class="st9" d="M183.3,67.1c0,8-0.1,16-0.1,23.9c0.1,1.8,1.4,2.9,3.7,2.9s3.6-1,3.7-2.8c0-1.6,0-2.4,0-4
	c0.7,0.2,1.4,0.3,2.1,0.3c2,0.1,3.9-0.8,5-2.5c1-1.7,1.5-3.7,1.5-5.7l-0.2-11.8L183.3,67.1z"/>
<path class="st9" d="M201.8,79.7l3,0.1l3.3-0.1v3.9l2.3,2.4l4.8-5.9l6.7,1.1c0.2,0.4,0.4,0.9,0.4,1.4c0,0.6-0.2,1.1-0.4,1.6
	c0.9,1.2,1.9,2.4,2.9,3.4c0.6,0.6,0.9,1.3,1.1,2.1c-0.1,1.2-0.7,2.3-1.7,3c-1,0.7-2.1,1.2-3.4,1.1c-0.6,0-1.2-0.3-1.6-0.8
	c-0.5-0.5-1-1.1-1.4-1.7c-0.2,0.3-0.5,0.6-0.8,0.8c-0.7,0.9-1.8,1.5-3,1.7c-1.3-0.1-2.5-0.7-3.4-1.7c-1,0.8-2.2,1.2-3.4,1.2
	c-0.6-0.1-1.1-0.4-1.5-0.9c-0.4-0.4-0.8-0.9-1.2-1.4c-0.2,0.3-0.4,0.6-0.7,0.9c-0.7,1-1.8,1.6-3,1.8c-1.3-0.1-2.5-0.7-3.3-1.7
	c-0.9-0.8-1.3-2-1.2-3.1c0-0.3,0.1-0.7,0.4-0.9c0.9-1.2,1.8-2.5,2.5-3.8c0.7-1.4,1.2-2.9,1.7-4.4"/>
<path class="st4" d="M197.7,60.5c-0.4,1.9-1,4-1.6,6.2c0.8,1.5,1.4,3.1,1.9,4.8"/>
<path class="st4" d="M190.7,63.2c0.5-2.2,0.7-4.4,0.8-6.7c0-0.6,0-0.9-0.2-0.9l-0.5-0.1C190.7,58.6,190.7,60.2,190.7,63.2z"/>
<path class="st4" d="M190.6,76.8c0.4-0.1,0.8-0.3,1-0.7c0.2-0.5,0.2-1,0.2-1.5c-0.1-1.8-0.5-3.5-1.1-5.2
	C190.6,72.4,190.6,73.8,190.6,76.8z"/>
<path class="st4" d="M228.2,72.6L228.2,72.6c0-0.6-4.1-22.5-4.1-22.5s-0.6-3.3-4.8-3.2c-2-0.1-3.8,1-4.5,2.9l-0.6,4.6
	c-1.4-0.4-2.9-0.5-4.3-0.4l-0.1-5c-0.5-1.9-2.3-3.2-4.2-3.3c-4.1-0.6-5,2.7-5,2.7s-6.1,21.5-6.1,22.1l0,0c-0.2,0.7-0.4,1.5-0.4,2.3
	c0,4.6,3.7,8.2,8.3,8.2c4.3,0,7.9-3.4,8.2-7.7c0-0.4,0-0.8-0.1-1.2l0,0l-0.4-13.7c1.2,0,2.5,0.1,3.7,0.4l-1.6,13.9l0,0
	c-0.8,4.5,2.2,8.7,6.6,9.5s8.7-2.2,9.5-6.6c0-0.2,0.1-0.5,0.1-0.7C228.5,74.2,228.4,73.4,228.2,72.6z"/>
<path class="st7" d="M220.2,82.9h-0.5c-2.3-0.1-4.4-1.1-6-2.8c-1.5-1.7-2.3-3.8-2.2-6.1c0-0.4,0.1-0.9,0.2-1.3l1.6-13.5
	c-0.9-0.2-1.9-0.3-2.8-0.3l0.4,13.2c0.1,0.4,0.1,0.8,0.1,1.3c-0.1,2.2-1,4.3-2.6,5.8c-1.7,1.6-3.9,2.4-6.3,2.3
	c-4.7-0.1-8.5-4-8.4-8.7c0-0.8,0.2-1.6,0.4-2.3c0.2-1.3,5.1-18.6,6.1-22.1c0,0,1-3.6,5.4-3c2.1,0,4,1.5,4.6,3.6l0.1,4.7
	c1.2-0.1,2.4,0,3.6,0.3l0.5-4.2c0.7-2,2.7-3.4,4.9-3.2c4.4-0.2,5.1,3.4,5.1,3.5c0.7,3.6,4,21.3,4.1,22.6c1.1,4.5-1.7,9-6.3,10.1
	C221.7,82.9,220.9,83,220.2,82.9L220.2,82.9z M210.6,58c1.1,0,2.2,0.1,3.3,0.4l0.4,0.1l-1.7,14.3c-0.1,0.4-0.1,0.8-0.2,1.2
	c-0.1,2,0.6,4,2,5.5c1.4,1.5,3.3,2.4,5.4,2.6c4.2,0.3,7.9-2.9,8.2-7.2c0-0.7,0-1.5-0.2-2.2l-0.1-0.5h0.1c-0.4-2.3-2.6-14.1-4.1-22.1
	c0-0.1-0.6-3-4.3-2.8c-1.8-0.1-3.5,0.9-4.1,2.6l-0.6,5l-0.4-0.1c-1.4-0.3-2.8-0.5-4.2-0.3h-0.4l-0.1-5.5c-0.5-1.7-2-2.8-3.8-2.9
	c-3.8-0.5-4.6,2.3-4.6,2.4c-2.2,7.8-5.4,19.3-6,21.6h0.1l-0.2,0.5c-0.2,0.7-0.4,1.4-0.4,2.1c-0.1,4.3,3.3,7.8,7.6,7.9
	c2.1,0.1,4.1-0.7,5.7-2.1c1.5-1.4,2.3-3.3,2.4-5.2c0-0.4,0-0.8-0.1-1.2L209.7,58L210.6,58L210.6,58z"/>
<path class="st10" d="M202.6,66.9c-3.9,0-7,3.1-7,7s3.1,7,7,7s7-3.1,7-7S206.5,66.9,202.6,66.9z M202.4,76.9c-2.1,0-3.8-1.7-3.8-3.8
	c0-2.1,1.7-3.8,3.8-3.8c2.1,0,3.8,1.7,3.8,3.8C206.2,75.2,204.6,76.9,202.4,76.9C202.5,76.9,202.4,76.9,202.4,76.9L202.4,76.9z"/>
<path class="st10" d="M220.4,68.2c-3.9,0-7,3.1-7,7s3.1,7,7,7s7-3.1,7-7S224.3,68.2,220.4,68.2z M220.2,78.2c-2.1,0-3.8-1.7-3.7-3.8
	c0-2.1,1.7-3.8,3.8-3.7s3.8,1.7,3.7,3.8c0,0,0,0,0,0C224,76.6,222.3,78.3,220.2,78.2C220.2,78.3,220.2,78.3,220.2,78.2L220.2,78.2z"
	/>
<path class="st11" d="M66.3,59.9c-1.1,0.3-2.3,0-3.2-0.7v0.7c0.1,1.3-0.1,2.6-0.7,3.7c-0.7,1.1-1.9,1.9-3.2,2v1.8h0.1
	c1.1-0.1,2.3,0.4,2.9,1.3c0.6,1,0.9,2.3,0.9,3.5c2.5-0.4,5.3-0.8,8.4-1.1l0-11.8L66.3,59.9z"/>
<path class="st9" d="M71.7,80.7c0,0.8-0.2,1.2-0.7,1.2c-1.4-0.2-2.8-0.3-4.2-0.3c-0.8,0.2-1.6,0.7-2,1.4c-0.8,1.5-1.2,3.1-1.2,4.8
	c0,2.7,1.3,4.6,3.2,5.2c2.1,0.6,4.2,0.8,6.3,0.7c3.1,0,5.4-0.8,6.7-2.3c1-1,1.4-3.4,1.4-7.3l-0.1-13.9c-3.5,0.2-6.7,0.5-9.7,0.8
	C71.6,74.3,71.7,77.5,71.7,80.7z"/>
<path class="st9" d="M45.7,80c0.7,0.8,2,1.2,3.8,1h0.1v1.3c0,0.6-0.2,0.9-0.5,0.9c-1.6,0.1-2.6,0.5-3.1,1.1c-0.7,1.4-1,2.9-0.8,4.4
	c-0.1,1.4,0.5,2.8,1.6,3.7c1.6,1,3.5,1.6,5.4,1.6c4.7,0.1,7.2-2.7,7.2-8.1c0-3.2,0-4.8,0-7.9l0.3-0.1c1.1-0.3,2.1-0.9,2.7-1.9
	c0.7-1.1,1-2.5,0.9-3.8v-0.1c-9.7,1.6-15.4,3.7-18.5,5.1C44.7,78.3,45.1,79.2,45.7,80z"/>
<path class="st8" d="M82.7,58.1c1.5-0.1,2.8-0.9,3.5-2.1c0.6-1.2,0.9-2.6,0.8-4c0-2.2-0.3-3.7-0.9-4.3c-0.9-0.8-2.2-1.2-3.4-0.9
	c-6.6,0.8-9.8,1.3-16.4,2.4c-1.2,0.1-2.4,0.8-3.2,1.7c-0.8,1.3-1.1,2.8-1,4.3v0.6c-0.8-0.6-1.9-0.9-2.9-0.6v-2.8
	c-0.2-2.5-1.8-3.5-4.8-2.9s-4.7,2.3-4.8,4.7v2.6l-0.4,0.1c-1.1,0.2-2.2,0.7-3,1.5c-0.9,1.2-1.3,2.7-1.2,4.2c0,1.8,0.4,3,1.2,3.6
	c0.9,0.6,1.9,0.9,3,0.7l0.5-0.1v3.7c-0.2,0.1-0.4,0.1-0.7,0.2c-1.2,0.1-2.3,0.6-3.1,1.5c-0.9,1.2-1.4,2.6-1.2,4.1c0,0.3,0,0.7,0.1,1
	c3.1-1.4,8.8-3.5,18.5-5.1c0.1-1.2-0.2-2.4-0.9-3.5c-0.7-0.9-1.8-1.4-3-1.3h-0.1v-1.8c1.3-0.1,2.5-0.9,3.2-2
	c0.5-1.2,0.8-2.5,0.7-3.7v-0.7c0.9,0.7,2.1,1,3.2,0.7l5.2-0.6l0,11.7c2.9-0.3,6.2-0.6,9.7-0.8l-0.1-12L82.7,58.1z"/>
<path class="st10" d="M198.2,66.3l5.1-20.1h3.2l2.7,1.6v5.4l-1.9,1.1l-0.1,5l2.3-0.3l0.2,9c0,0-3.9-1.8-4.2-1.9s-4.8-1-4.8-1
	L198.2,66.3z"/>
<path class="st10" d="M216.1,54.5l0.7-6.7c0,0,3.1-0.6,3.6-0.6c1,0.3,2,0.7,2.9,1.2l3.2,14.4l0.6,6l-5.3-1.8l-6.4,0.7l0.4-7.9
	l0.5-0.5l0.2-3L216.1,54.5z"/>
<circle class="st0" cx="203" cy="73.8" r="2.8"/>
<circle class="st0" cx="220.4" cy="74.9" r="2.8"/>
<path class="st3" d="M52.4,95.2h-0.3c-2.1,0-4.2-0.6-6.1-1.7c-1.5-1.1-2.3-2.9-2.1-4.7c0-2.4,0.3-4,1.1-5.1c0.6-0.8,1.6-1.3,2.6-1.5
	c-1-0.1-2-0.6-2.8-1.3c-1-1.3-1.5-2.9-1.5-4.5c-0.1-1.8,0.4-3.5,1.5-4.9c0.9-1,2.1-1.7,3.5-1.9v-1.4c-1.1,0-2.1-0.3-3-1
	c-1.1-0.9-1.6-2.4-1.6-4.6c-0.1-1.8,0.4-3.6,1.5-5c0.8-0.9,2-1.5,3.2-1.8v-1.6c0.1-1.8,0.9-4.8,5.8-5.9c1.6-0.5,3.3-0.3,4.7,0.6
	c1,0.8,1.6,2.1,1.7,3.4v1.6l0.5,0c0-1.4,0.5-2.7,1.2-3.8c1-1.2,2.4-2,4-2.2c6.6-1.1,9.8-1.6,16.5-2.4c1.6-0.4,3.3,0.1,4.4,1.3
	c0.8,0.9,1.2,2.5,1.2,5.1c0.1,1.6-0.2,3.2-0.9,4.6c-0.9,1.6-2.6,2.7-4.4,2.8h-0.4l0.1,24.8c0,4.3-0.5,6.9-1.8,8.2
	c-1.5,1.8-4.1,2.7-7.6,2.7c-2.3,0.1-4.5-0.2-6.7-0.8c-2.5-0.8-4.1-3.2-4.1-6.4c0-1.9,0.4-3.8,1.3-5.4l0.1-0.1c0.6-1,1.7-1.7,2.8-1.9
	c1.3-0.1,2.6,0,3.8,0.2l-0.1-20l-3.9,0.5c-0.7,0.1-1.4,0.1-2.2,0c0,1.1-0.3,2.2-0.8,3.1c-0.6,0.9-1.4,1.7-2.4,2.1
	c0.9,0.3,1.6,0.9,2.2,1.7c0.8,1.3,1.2,2.8,1.1,4.3c0.1,1.6-0.3,3.1-1.1,4.4c-0.7,1-1.7,1.8-2.8,2.1v7.1c0,3.2-0.8,5.6-2.5,7.2
	C56.5,94.5,54.5,95.3,52.4,95.2z M49.5,79.8c0.3,0,0.6,0.1,0.9,0.3c0.3,0.2,0.4,0.5,0.4,0.9v1.3c0,2-1.4,2.1-1.7,2.2
	c-1.4,0.1-2,0.4-2.2,0.6c-0.2,0.3-0.6,1.3-0.6,3.7c-0.1,1,0.3,2.1,1.1,2.7c1.4,0.9,3.1,1.3,4.7,1.3c1.5,0.1,3-0.4,4.2-1.4
	c1.2-1.1,1.7-3,1.7-5.5V78c0-0.4,0.2-0.8,0.6-1c0.2-0.1,0.3-0.2,0.5-0.2c0.8-0.1,1.6-0.6,2.1-1.3c0.5-1,0.8-2.1,0.7-3.2
	c0.1-1-0.1-2-0.6-2.8c-0.4-0.6-1.1-0.9-1.9-0.8c-0.4,0-0.7-0.1-1-0.3c-0.3-0.2-0.5-0.5-0.5-0.9v-1.8c0-0.6,0.4-1.1,1-1.2
	c1-0.1,1.9-0.6,2.4-1.4c0.4-1,0.6-2,0.5-3.1v-0.7c0-0.7,0.5-1.2,1.2-1.3c0.3,0,0.7,0.1,0.9,0.3c0.6,0.4,1.4,0.6,2.2,0.4
	c2.1-0.3,3.2-0.4,5.2-0.6c0.4-0.1,0.7,0.1,1,0.3c0.3,0.2,0.4,0.6,0.4,0.9l0.1,21.4c0,2.2-1.6,2.4-1.9,2.4c-0.1,0-0.1,0-0.2,0
	c-1.3-0.2-2.6-0.3-3.9-0.3c-0.5,0.1-0.9,0.4-1.1,0.8c-0.7,1.3-1,2.7-1,4.2c0,2.1,0.9,3.6,2.4,4.1c2,0.5,4,0.7,6,0.7
	c2.8,0,4.7-0.7,5.8-1.9c0.4-0.4,1.2-1.8,1.2-6.5L80,58.3c0-0.7,0.5-1.2,1.1-1.3l1.5-0.1c1.1,0,2-0.6,2.6-1.5c0.5-1,0.7-2.2,0.6-3.3
	c0-2.7-0.5-3.4-0.6-3.5c-0.6-0.5-1.5-0.7-2.3-0.5c-6.6,0.8-9.8,1.3-16.3,2.4c-1,0.1-1.8,0.5-2.5,1.3c-0.3,0.4-0.8,1.3-0.8,3.5v0.6
	c0,0.5-0.3,0.9-0.7,1.1c-0.4,0.2-1,0.1-1.3-0.2c-0.5-0.4-1.2-0.5-1.8-0.3c-0.4,0.1-0.7-0.1-1-0.3c-0.3-0.2-0.4-0.6-0.4-0.9v-2.8
	c0-0.6-0.2-1.1-0.7-1.5c-0.8-0.4-1.8-0.5-2.7-0.2c-2.5,0.5-3.8,1.7-3.8,3.5v2.6c0,0.6-0.4,1.1-1,1.2l-0.4,0.1
	c-0.9,0.1-1.7,0.5-2.3,1.1c-0.7,1-1,2.2-0.9,3.4c-0.1,0.9,0.1,1.9,0.7,2.7c0.6,0.4,1.4,0.6,2.1,0.4l0.5-0.1c0.7-0.1,1.3,0.4,1.4,1
	c0,0.1,0,0.1,0,0.2v3.7c0,0.6-0.4,1-0.9,1.2h-0.1c-0.2,0.1-0.4,0.1-0.6,0.2c-1.7,0.3-2.2,0.8-2.3,1L46.7,73c-0.7,0.9-1,2.1-0.9,3.3
	c-0.1,1,0.2,2,0.8,2.9c0.8,0.6,1.8,0.8,2.8,0.7L49.5,79.8z"/>
<path class="st3" d="M144,95h-0.2c-2.1,0-4.1-0.7-5.7-2.1c-1.3-1.1-1.9-2.8-1.9-5.2c-0.1-1.8,0-3.6,0.4-5.3c0.2-0.9,0.8-1.6,1.6-1.8
	v-2.5c-0.5-0.3-1-0.8-1.4-1.3c-1-1.6-1.4-3.5-1.3-5.4c-0.2-2,0.4-4.1,1.5-5.7c0.3-0.5,0.7-0.8,1.2-1.1v-3.4c-0.4-0.3-0.8-0.6-1.1-1
	c-1-1.1-1.5-2.9-1.5-5.5s0.5-4.5,1.4-5.7c0.3-0.4,0.7-0.7,1.1-1v-2.7c0.1-3.4,2.2-5.4,5.8-5.3c2.5,0,4.3,1.1,5.1,2.9
	c0.7-1.4,2.3-2.3,3.8-2.2c7.4,0.3,14.8,0.8,22.2,1.6c3.4,0.3,5.2,3.9,5.2,10.6v1.2c0.1,1.3-0.5,2.6-1.4,3.4
	c-0.2,0.2-0.5,0.3-0.8,0.5c0.9,1.3,1.3,2.9,1.2,4.5c0.1,2.1-0.6,4.1-2,5.7c-0.7,0.7-1.6,1-2.6,1c-0.7,0-1.2-0.6-1.2-1.2
	c0,0,0,0,0-0.1c0-0.7,0.6-1.2,1.3-1.2c0.3,0,0.6-0.1,0.8-0.3c0.9-1.1,1.3-2.5,1.2-3.9c0-3.3-1.2-3.4-1.8-3.4l-2.5-0.2
	c-1.4-0.1-2.5-1.2-2.4-2.6c0-0.1,0-0.1,0-0.2v-3c0-0.7,0.6-1.2,1.2-1.2c0.2,0,0.4,0,0.5,0.1c0.7,0.4,1.2,1.1,1.2,1.9
	c0,0.1,0,0.2,0,0.3l0,0c0,0.4,0.1,0.8,0.3,1.2c0.1,0.2,0.6,0.5,2.1,0.6c0.6,0.1,1.2-0.1,1.8-0.4c0.1-0.1,0.5-0.4,0.5-1.4v-1.1
	c0-3.6-0.5-7.9-3-8.2c-7.3-0.7-14.7-1.3-22-1.6c-2-0.1-2.6,3.3-2.8,6.2c-0.1,0.7-0.7,1.2-1.3,1.1c-0.2,0-0.5-0.1-0.7-0.3
	c-0.1-0.1-0.1-0.1-0.2-0.1c-0.3-0.2-0.5-0.6-0.5-1v-3.7c-0.1-2.1-1.1-3-3.3-3c-2.9,0-3.3,1.5-3.3,2.9V49c0,0.6-0.4,1-0.9,1.2
	c-0.3,0.1-0.5,0.2-0.7,0.4l-0.1,0.1c-0.3,0.3-0.9,1.4-0.9,4.1c0,2.4,0.5,3.4,0.9,3.9c0.3,0.3,0.6,0.6,0.9,0.7
	c0.4,0.2,0.7,0.6,0.7,1.1v4.8c0,0.5-0.3,1-0.8,1.2c-0.3,0.1-0.6,0.3-0.8,0.6l-0.1,0.1c-0.8,1.3-1.1,2.7-1,4.2c0,2.5,0.6,3.6,0.9,4
	c0.3,0.4,0.6,0.7,1.1,0.8c0.5,0.2,0.8,0.6,0.8,1.1v3.3c0.1,0.6-0.2,1.2-0.6,1.7c-0.3,0.3-0.7,0.5-1.1,0.5c0,0,0,0.1,0,0.1
	c-0.2,1.6-0.3,3.1-0.3,4.7c-0.1,1.2,0.3,2.4,1.1,3.3c1.2,1,2.7,1.5,4.2,1.5c1.5,0,2.5-1.2,2.9-3.6l0.3-4.6v-8.6c0-0.5,0.3-1,0.8-1.2
	c0.3-0.1,0.6-0.3,0.8-0.5c0.5-0.4,1.3-0.4,1.7,0.1s0.4,1.3-0.1,1.7c-0.2,0.2-0.5,0.4-0.8,0.6v7.9l0,0l-0.3,4.7c0,0,0,0.1,0,0.1
	C148.4,94.3,145.4,95,144,95z M150.9,68.8c-0.6,0-1.1-0.4-1.2-1c-0.1-0.5-0.2-1-0.4-1.4c-0.3-0.4-0.7-0.8-1.2-1
	c-0.5-0.2-0.8-0.6-0.8-1.1v-3.7c0-0.5,0.3-0.9,0.8-1.1c0.4-0.2,0.7-0.5,0.9-0.8c0.3-0.8,0.5-1.7,0.5-2.7c0-0.7,0.6-1.2,1.2-1.2
	c0.1,0,0.3,0,0.4,0.1c0.4,0.1,0.9,0.2,1.3,0.2c0.7,0.1,1.4,0,2-0.4l0,0c0,0,0.2-0.2,0.2-1.2l0,0c0-0.1,0-0.2,0-0.3
	c0-0.6,0.3-1.1,0.7-1.6c0.4-0.4,0.9-0.6,1.5-0.5c0.4,0,0.7,0.2,1,0.5c0.2,0.3,0.3,0.6,0.3,1c-0.2,1-0.5,2-0.9,3
	c-1.3,2.3-3.1,4.2-5.2,5.7c-0.2,0.3-0.3,0.6-0.3,1c0,0.9,0.4,1.7,0.9,2.3c0.4,0.5,1,0.9,1.5,1.2c0.5,0.3,0.8,0.8,0.6,1.4
	c-0.1,0.5-0.6,0.9-1.2,0.9H153c-0.4,0-0.8-0.2-1-0.6c0,0.6-0.4,1-1,1.1C151,68.7,150.9,68.7,150.9,68.8L150.9,68.8z M151.7,57.4
	c-0.1,0.4-0.1,0.8-0.2,1.2c0.4-0.4,0.8-0.8,1.2-1.1h-0.5C152,57.5,151.9,57.4,151.7,57.4L151.7,57.4z"/>
<path class="st3" d="M220.1,95.3c-1,0-1.8-0.5-2.4-1.2c-0.2-0.2-0.4-0.4-0.6-0.7c-0.9,1.1-2.2,1.7-3.6,1.8c-1.3,0-2.5-0.5-3.5-1.3
	c-1,0.6-2.2,0.9-3.3,0.9c-0.9-0.1-1.8-0.5-2.4-1.3l-0.2-0.3c-0.9,1.1-2.2,1.8-3.6,1.9c-1.6-0.1-3.1-0.8-4.2-2c-1.1-1-1.7-2.5-1.6-4
	c0-0.2,0-0.5,0.1-0.7c-0.9,0.2-1.9,0.2-2.8,0.1v2.5c-0.2,2.5-2,4-4.9,4l0,0c-2.9,0-4.7-1.6-4.9-4.1l0.2-42c0-2.3,0.5-3.9,1.6-4.8
	c0.8-0.7,1.9-1,2.9-0.8c3.3,0.4,4.9,0.6,8.1,1.1c2.4,0.3,5.2,1.9,5.2,7.2V52c0,0.8,0,2-0.1,2.8c-0.1,0.7-0.7,1.1-1.4,1.1
	c-0.6-0.1-1.1-0.6-1.1-1.2c0-0.7,0.1-1.9,0.1-2.6v-0.3c0-3.9-1.8-4.6-3.1-4.8c-3.3-0.5-4.9-0.7-8.1-1.1c-0.3-0.1-0.7,0-1,0.2
	c-0.3,0.2-0.7,1-0.7,3l-0.2,42c0.1,1.1,0.9,1.7,2.4,1.7s2.4-0.6,2.5-1.7v-3.9c0-0.4,0.2-0.8,0.5-1c0.3-0.2,0.7-0.3,1.1-0.2
	c0.6,0.2,1.2,0.3,1.8,0.3c1.6,0.1,3.1-0.6,4-1.9l0.1-0.1c0.7-1,0.9-1.4,1-3.6c0-0.7,0.6-1.2,1.3-1.2c0.3,0,0.6,0.2,0.8,0.4
	c0,0,0.1,0,0.1,0s0.3,0.1,0.4,0.1c0.6,0.2,1,0.9,0.8,1.5c-0.3,1-0.7,2-1.2,2.8c-0.1,0.2-0.2,0.4-0.4,0.7c-0.8,1.4-1.6,2.8-2.6,4
	c-0.1,0.1-0.1,0.1-0.1,0.2c-0.1,0.8,0.2,1.7,0.9,2.2c0.6,0.7,1.5,1.2,2.4,1.3c0.8-0.1,1.6-0.6,2.1-1.3c0,0,0.1-0.1,0.1-0.1
	c0.2-0.2,0.4-0.4,0.6-0.7c0.4-0.6,1.1-0.7,1.7-0.4c0.1,0.1,0.2,0.2,0.3,0.3c0.4,0.5,0.7,0.9,1.1,1.4s0.6,0.4,0.6,0.4
	c1,0,1.9-0.3,2.7-0.9c0.5-0.4,1.1-0.3,1.6,0.1c0.6,0.7,1.5,1.2,2.5,1.3c0.8-0.1,1.6-0.6,2.1-1.3l0.1-0.1c0.2-0.2,0.5-0.4,0.6-0.7
	c0.3-0.3,0.6-0.4,1-0.4c0.4,0,0.7,0.2,0.9,0.5c0.4,0.6,0.8,1.1,1.3,1.6c0.2,0.2,0.4,0.4,0.7,0.4l0,0c0.9,0,1.9-0.3,2.6-0.9
	c0.7-0.5,1.1-1.2,1.2-2c-0.1-0.5-0.4-1-0.8-1.3c-1.1-1.1-2.1-2.3-3-3.5c-0.2-0.3-0.3-0.8-0.1-1.2c0.2-0.4,0.3-0.8,0.3-1.2
	c0-0.7,0.5-1.2,1.2-1.2c0,0,0,0,0,0l0,0c0.7,0,1.2,0.5,1.2,1.2l0,0c0,0.5-0.1,0.9-0.3,1.4c0.8,1,1.6,1.9,2.4,2.8
	c0.8,0.8,1.3,1.8,1.4,2.9c0,1.6-0.8,3.1-2.1,4C223,94.8,221.6,95.3,220.1,95.3L220.1,95.3z M210.6,88.2c-0.4,0-0.7-0.2-0.9-0.4
	c-1-1.2-2-2.4-2.9-3.7c-0.2-0.3-0.3-0.7-0.2-1c0.1-0.3,0.1-0.5,0.1-0.8c0-0.4-0.1-0.8-0.3-1.1c-0.4-0.6-0.2-1.3,0.4-1.7
	c0.6-0.4,1.3-0.2,1.7,0.3c0,0,0,0,0,0c0.5,0.7,0.7,1.6,0.7,2.4c0,0.3,0,0.5-0.1,0.8c0.5,0.7,1,1.3,1.5,1.9c0.2-0.3,0.4-0.5,0.5-0.8
	c0.7-1.2,1.3-2.5,1.8-3.8c0.3-0.6,1-0.9,1.6-0.7c0.6,0.2,0.9,0.9,0.7,1.5c-0.5,1.5-1.2,3-2,4.3c-0.5,0.8-1,1.6-1.7,2.3
	C211.3,88.1,210.9,88.2,210.6,88.2L210.6,88.2z M190.6,78c-0.3,0-0.6-0.1-0.8-0.3c-0.3-0.2-0.4-0.6-0.4-0.9v-7.4
	c0-0.6,0.4-1.1,1-1.2c0.6-0.1,1.2,0.2,1.4,0.8c0.7,1.8,1.2,3.7,1.3,5.6c0,0.7-0.1,1.4-0.3,2l-0.1,0.1c-0.4,0.7-1,1.2-1.8,1.3H190.6z
	 M190.7,64.4h-0.1c-0.6-0.1-1.1-0.6-1.1-1.2v-7.7c0-0.3,0.1-0.7,0.4-0.9c0.3-0.2,0.6-0.4,0.9-0.3l0.5,0.1c1.3,0.2,1.3,1.6,1.3,2.1
	c0,2.3-0.3,4.7-0.8,6.9C191.7,64,191.2,64.4,190.7,64.4L190.7,64.4z"/>
<path class="st3" d="M95.7,95.3c-3.2,0-5.2-1.7-5.5-4.5l-0.2-42c0-5.4,2.7-6.8,5-7c4.7-0.5,6.9-0.7,11.6-1c1.4-0.2,2.9,0.2,4,1.2
	c0.4,0.4,0.8,0.9,1,1.5c0.8-2,2.8-3.3,4.9-3.2c4.2-0.2,6.2-0.3,10.4-0.3l0,0c1.8-0.1,3.5,0.4,4.8,1.6c1.2,1.3,1.9,3.1,1.7,4.9v39.5
	c0,7.5-4,9.1-7.4,9.1l0,0c-1.8,0-3.6-0.6-5-1.7c-0.5-0.4-0.9-0.9-1.3-1.5c-0.1,0.2-0.2,0.3-0.3,0.5c-0.9,1.1-2.3,1.7-3.7,1.6l0,0
	c-1.4,0.1-2.7-0.5-3.6-1.6c-0.9-1.2-1.3-2.7-1.2-4.2v-1.7c-0.3,2-1,3.9-2.1,5.6c-0.9,1.2-2.2,1.9-3.7,1.8c-1.6-0.1-3.2-0.9-4.3-2.1
	C100.4,94,98.5,95.2,95.7,95.3L95.7,95.3z M107.3,43.2h-0.4c-4.6,0.3-6.9,0.5-11.6,1c-1.3,0.1-2.9,0.8-2.8,4.6l0.2,41.9
	c0.1,1.4,1.1,2.2,3,2.2l0,0c2.9,0,3-1.7,3-2.3l-0.1-25.3c0-0.7,0.5-1.2,1.2-1.2c2.9-0.2,4.4-0.2,7.3-0.3c0.9,0,2.9-0.1,2.9-5V46.8
	c0.1-1.1-0.2-2.2-0.9-3C108.6,43.3,108,43.1,107.3,43.2z M122.8,83.4c-0.3,0.1-0.5,0.3-0.6,0.6c-0.6,1.2-0.9,2.5-0.8,3.9
	c0,1.3,0.5,2.6,1.5,3.5c1,0.8,2.2,1.2,3.4,1.1l0,0c2.3,0,4.9-0.8,4.9-6.7V46.3c0.1-1.1-0.3-2.3-1-3.2c-0.9-0.7-2-1-3.1-0.9l0,0
	c-4.2,0.1-6.2,0.2-10.4,0.3c-1.6,0.1-3.1,0.6-3.1,4.1v13.2c-0.1,1.1,0.2,2.1,0.8,3c0.4,0.4,1,0.6,1.6,0.5c3.1-0.1,4.7-0.1,7.8-0.2
	c0.3,0,0.6,0.1,0.9,0.3c0.2,0.2,0.4,0.5,0.4,0.9v16.9c0.1,0.8-0.2,1.5-0.8,2c-0.4,0.3-0.8,0.4-1.2,0.2L122.8,83.4L122.8,83.4z
	 M104,72.1c0.3,0,0.6,0.1,0.8,0.3c0.2,0.2,0.4,0.5,0.4,0.9v1.3c0,0.7-0.5,1.2-1.2,1.2h-0.4c-1,0-1.2,0.4-1.3,0.5
	c-0.4,0.8-0.5,1.7-0.4,2.5c0,1.6,0.3,2.2,0.4,2.3c0.2,0.2,0.4,0.3,0.7,0.4c0.4,0.1,0.7,0.3,0.8,0.6c0.2,0.3,0.2,0.7,0.1,1
	c-0.5,1.3-1,2.6-1.7,3.8c-0.3,0.4-0.5,0.8-0.6,1.3c0,0.6,0.3,1.2,0.8,1.7c0.7,0.8,1.7,1.3,2.8,1.4c0.7,0,1.3-0.3,1.7-0.9
	c0.9-1.4,1.5-3.1,1.8-4.8c0.2-1.1,0.4-2.1,0.6-3.1c0.1-0.6,0.6-1,1.2-1h1.8c0.3,0,0.6,0.1,0.9,0.3c0.2,0.2,0.4,0.5,0.4,0.9v5.3
	c-0.1,0.9,0.1,1.8,0.6,2.6c0.5,0.5,1.1,0.7,1.8,0.7l0,0c0.7,0.1,1.3-0.2,1.8-0.7c0.5-0.8,0.7-1.7,0.6-2.6v-5.4
	c0-0.7,0.5-1.2,1.2-1.2h0.6c0.6,0.1,1.1-0.2,1.4-0.7c0.3-0.7,0.4-1.5,0.4-2.2c0.1-0.9,0-1.8-0.4-2.6c-0.1-0.1-0.3-0.4-1.4-0.4h-0.6
	c-0.7,0-1.2-0.5-1.2-1.2c0,0,0,0,0,0V73c0-0.7,0.5-1.2,1.2-1.2c0,0,0,0,0,0h0.4c0.5,0,0.9-0.2,1.1-0.6c0.3-0.6,0.4-1.3,0.3-2
	c0.1-0.7,0-1.5-0.3-2.1c-0.3-0.3-0.7-0.4-1.1-0.4c-6.6,0.1-9.8,0.2-16.3,0.5l0,0c-0.4,0-0.8,0.2-1.1,0.5c-0.3,0.6-0.5,1.4-0.4,2.1
	c-0.1,0.7,0.1,1.4,0.4,2c0.1,0.1,0.3,0.4,1,0.3L104,72.1L104,72.1z M101.1,83.4V84c0.1-0.2,0.1-0.3,0.2-0.4L101.1,83.4z M101.1,73.7
	v0.6c0.1-0.1,0.3-0.2,0.4-0.3C101.4,73.9,101.2,73.8,101.1,73.7L101.1,73.7z M122.3,73.5c0.1,0.1,0.3,0.1,0.4,0.2v-0.6
	C122.6,73.3,122.5,73.4,122.3,73.5L122.3,73.5z M111.7,62.9c-0.2,0.6-0.6,1.1-1,1.6l1.9-0.1C112.2,64,111.9,63.5,111.7,62.9z
	 M106.8,42L106.8,42z M127.1,41.1L127.1,41.1z M111.1,75.8c-0.3,0-0.6-0.1-0.9-0.3c-0.2-0.2-0.4-0.5-0.4-0.9v-1.4
	c0-0.6,0.5-1.2,1.1-1.2h1.3c0.3,0,0.6,0.1,0.9,0.3c0.2,0.2,0.4,0.5,0.4,0.9v1.3c0,0.7-0.5,1.2-1.2,1.2L111.1,75.8L111.1,75.8z
	 M99.8,58.8c-0.7,0-1.2-0.5-1.2-1.2v-1c0-0.6,0.5-1.2,1.2-1.2l3.3-0.2c0.3,0,0.7,0.1,0.9,0.3c0.2,0.2,0.4,0.5,0.4,0.9v1.1
	c0,0.7-0.5,1.2-1.2,1.2L99.8,58.8L99.8,58.8z M120.6,57.9c-0.3,0-0.6-0.1-0.8-0.3c-0.2-0.2-0.4-0.5-0.4-0.9v-1.1
	c0-0.7,0.5-1.2,1.2-1.2c1.3,0,2-0.1,3.3-0.1c0.7,0,1.2,0.5,1.2,1.2c0,0,0,0,0,0v1.1c0,0.7-0.5,1.2-1.2,1.2L120.6,57.9L120.6,57.9z
	 M99.8,52.4c-0.3,0-0.6-0.1-0.8-0.3c-0.2-0.2-0.4-0.6-0.4-0.9v-1.1c0-0.6,0.5-1.2,1.1-1.2l3.3-0.2c0.7,0,1.3,0.5,1.3,1.1
	c0,0,0,0,0,0.1V51c0,0.6-0.5,1.2-1.1,1.2L99.8,52.4L99.8,52.4z M120.6,51.3c-0.7,0-1.2-0.5-1.2-1.2V49c0-0.7,0.5-1.2,1.2-1.2
	l3.3-0.1c0.3,0,0.6,0.1,0.9,0.3c0.2,0.2,0.4,0.5,0.4,0.9V50c0,0.6-0.5,1.2-1.1,1.2L120.6,51.3L120.6,51.3z"/>
<path class="st6" d="M168.2,84.6h11.3c-4.5-3.4-8.4-9.3-8.4-9.3h7.6c-3.9-1.7-9.8-7-9.8-7l7.7-0.3c-7.3-1.1-12.6-15.4-12.7-15.3
	S160,63.9,153.6,67c-0.8,0.5-1.6,0.9-2.5,1l7.8-0.2c-3,2.8-6.2,5.3-9.6,7.5h6.7c0,0-3,5.9-7.5,9.3h10.4v5c-0.2,2.4,1.7,4.6,4.1,4.7
	c0.1,0,0.3,0,0.4,0l0,0h0.3l0,0c2.4,0.1,4.5-1.9,4.5-4.3c0-0.1,0-0.3,0-0.4L168.2,84.6z"/>
<path class="st7" d="M163.6,95.6h-0.2c-0.1,0-0.3,0-0.4,0c-1.5,0-3-0.7-4-1.8c-1-1.2-1.5-2.7-1.4-4.2v-3.8h-9.2
	c-0.5,0-1-0.3-1.2-0.8c-0.2-0.5,0-1,0.4-1.4c2.4-2,4.5-4.4,6.1-7.1h-4.6c-0.6,0-1-0.4-1.2-0.9c-0.2-0.5,0.1-1.1,0.6-1.4
	c2.4-1.5,4.7-3.2,6.9-5.1l-4.2,0.1h-0.2c-0.7,0-1.2-0.5-1.2-1.2s0.5-1.2,1.2-1.2h0.1c0.5-0.1,0.9-0.3,1.3-0.5
	c0.2-0.1,0.4-0.3,0.7-0.4c3.4-1.7,7-6.7,9.6-13.5c0.1-0.2,0.1-0.4,0.2-0.4c0.2-0.4,0.7-0.6,1.1-0.6c0.6,0,1,0.5,1.2,1
	c3.5,8.4,7.9,13.8,11.6,14.3c0.6,0.1,1,0.7,1,1.3c0,0.6-0.6,1.1-1.2,1.2l-4.5,0.2c2.2,1.8,4.5,3.4,7.1,4.8c0.6,0.3,0.9,1,0.6,1.6
	c-0.2,0.4-0.6,0.7-1.1,0.7h-5.2c1.9,2.7,4.2,5.1,6.7,7.1c0.5,0.4,0.6,1.2,0.2,1.7c-0.2,0.3-0.6,0.5-1,0.5h-10v3.8
	c0,1.5-0.5,3-1.4,4.2c-1,1.1-2.5,1.7-4,1.8C163.8,95.6,163.7,95.6,163.6,95.6z M163.5,93.1h0.1c0.9,0,1.8-0.3,2.5-1
	c0.6-0.7,0.9-1.6,0.8-2.5v-5.1c0-0.7,0.5-1.2,1.2-1.2l0,0h8c-2.3-2.3-4.3-4.8-6.1-7.4c-0.4-0.6-0.2-1.3,0.3-1.7
	c0.2-0.1,0.4-0.2,0.7-0.2h3.1c-2.1-1.5-4.2-3.1-6.1-4.8c-0.4-0.3-0.5-0.9-0.3-1.3c0.2-0.5,0.6-0.8,1.1-0.8l2.8-0.1
	c-3.3-2.7-6-7.4-7.8-11.2c-1.5,3.4-4,8.1-7.5,10.8l2.4-0.1c0.7,0,1.2,0.5,1.3,1.2c0,0.4-0.1,0.7-0.4,0.9c-0.2,0.2-3.1,2.9-6.4,5.4
	h2.7c0.7,0,1.2,0.5,1.2,1.2c0,0.2,0,0.4-0.1,0.6c-1.5,2.7-3.3,5.3-5.4,7.6h7.2c0.7,0,1.2,0.5,1.2,1.2c0,0,0,0,0,0v5
	c0,0.9,0.3,1.8,0.8,2.5c0.7,0.7,1.6,1,2.5,1H163.5z"/>
<path class="st7" d="M153.4,94.6c-2.6,0-4.7-2-4.7-4.6c0-2.6,2-4.7,4.6-4.7c2.6,0,4.7,2,4.7,4.6c0,0,0,0,0,0.1
	C158,92.5,155.9,94.6,153.4,94.6z M153.4,87.8c-1.2,0-2.2,1-2.2,2.2s1,2.2,2.2,2.2c1.2,0,2.2-1,2.2-2.2
	C155.6,88.8,154.6,87.8,153.4,87.8C153.4,87.8,153.4,87.8,153.4,87.8z"/>
<path class="st7" d="M173.7,94.6c-2.6,0-4.6-2.1-4.6-4.7c0-2.6,2.1-4.6,4.7-4.6c2.6,0,4.6,2.1,4.6,4.7c0,0,0,0,0,0
	C178.3,92.6,176.2,94.6,173.7,94.6z M173.7,87.8c-1.2,0-2.2,1-2.2,2.2s1,2.2,2.2,2.2c1.2,0,2.2-1,2.2-2.2
	C175.9,88.8,174.9,87.8,173.7,87.8C173.7,87.8,173.7,87.8,173.7,87.8z"/>
<path class="st1" d="M210.5,72.9c-0.4,0-0.8-0.4-0.8-0.8l-0.4-13.6c0-0.4,0.3-0.8,0.8-0.8c0.4,0,0.8,0.3,0.8,0.8l0.4,13.6
	C211.4,72.6,211,72.9,210.5,72.9C210.6,72.9,210.6,72.9,210.5,72.9L210.5,72.9z"/>
<path class="st1" d="M194.5,71.4L194.5,71.4c-0.5,0-0.8-0.4-0.8-0.9c0-0.6,3.9-14.2,6.1-22.3c0.4-1.3,2.1-3.8,5.8-3.3
	c2.3,0,4.3,1.6,4.9,3.9c0,0.1,0,0.1,0,0.2l0.1,4.3c0,0.4-0.3,0.8-0.8,0.8c-0.4,0-0.8-0.3-0.8-0.8l-0.1-4.2c-0.5-1.5-1.8-2.5-3.4-2.6
	h-0.1c-3.4-0.5-4.1,2-4.1,2.1c-2.4,8.4-5.9,21.1-6.1,22C195.3,71.1,194.9,71.4,194.5,71.4z"/>
<path class="st1" d="M202.4,82h-0.3c-4.9-0.1-8.8-4.2-8.8-9.1c0.1-2.3,1.1-4.5,2.8-6.1c3.7-3.4,9.4-3.3,12.9,0.4
	c1.6,1.7,2.5,3.9,2.5,6.3c-0.1,2.3-1.1,4.5-2.8,6.1C206.9,81.1,204.7,82,202.4,82z M202.3,65.9c-1.9,0-3.7,0.7-5.1,2
	c-1.4,1.3-2.2,3.1-2.3,5c-0.1,4,3.2,7.4,7.2,7.5c2,0.1,3.9-0.6,5.4-2c1.4-1.3,2.2-3.1,2.2-5c0.1-4-3.2-7.4-7.2-7.5L202.3,65.9z"/>
<path class="st1" d="M202.4,78h-0.2c-2.8-0.1-4.9-2.3-4.9-5.1c0-1.3,0.6-2.5,1.6-3.4c2-1.9,5.2-1.8,7.2,0.2c0.9,0.9,1.4,2.2,1.4,3.5
	l0,0c0,1.3-0.6,2.5-1.5,3.4C204.9,77.5,203.7,78,202.4,78z M202.4,69.7c-0.9,0-1.7,0.3-2.4,0.9c-0.6,0.6-1,1.4-1,2.3
	c0,1.9,1.5,3.4,3.3,3.4c0.9,0,1.8-0.3,2.5-0.9c0.6-0.6,1-1.4,1-2.3c0-1.9-1.5-3.4-3.3-3.4L202.4,69.7z M206.6,73.2L206.6,73.2z"/>
<path class="st1" d="M212.1,73.6H212c-0.4-0.1-0.8-0.5-0.7-0.9c0,0,0,0,0,0L213,59c0-0.5,0.4-0.8,0.8-0.8s0.8,0.4,0.8,0.8
	c0,0.1,0,0.1,0,0.2L213,72.8C212.9,73.3,212.6,73.6,212.1,73.6z"/>
<path class="st1" d="M228.2,73.4L228.2,73.4c-0.4,0-0.8-0.4-0.8-0.8c-0.1-0.9-2.5-13.9-4.1-22.4c-0.1-0.3-0.6-2.6-3.9-2.5h-0.1
	c-1.6-0.1-3.1,0.8-3.7,2.3l-0.5,4c-0.1,0.4-0.5,0.8-0.9,0.7c0,0,0,0,0,0c-0.4-0.1-0.8-0.5-0.7-0.9c0,0,0,0,0,0l0.5-4.1
	c0-0.1,0-0.1,0-0.2c0.8-2.2,2.9-3.6,5.3-3.4c3.8-0.2,5.3,2.4,5.5,3.8c1.6,8.2,4.2,22.1,4.1,22.7C229,73.1,228.7,73.4,228.2,73.4z"/>
<path class="st1" d="M220.2,83.3h-0.5c-2.4-0.1-4.6-1.2-6.2-2.9c-1.6-1.7-2.4-4-2.3-6.4c0.4-4.9,4.6-8.6,9.5-8.3
	c2.4,0.1,4.6,1.2,6.2,3c1.6,1.7,2.4,4,2.3,6.4C228.9,79.7,224.9,83.3,220.2,83.3z M220.2,67.2c-3.9-0.1-7.1,2.9-7.4,6.8
	c-0.1,1.9,0.6,3.8,1.9,5.2c1.3,1.4,3.2,2.3,5.1,2.4c4,0.3,7.5-2.8,7.8-6.8c0.1-1.9-0.6-3.8-1.9-5.2c-1.3-1.5-3.2-2.3-5.1-2.4
	L220.2,67.2z"/>
<path class="st1" d="M220.2,79.4h-0.3c-1.3-0.1-2.6-0.7-3.5-1.6c-0.9-1-1.4-2.3-1.3-3.6c0.2-2.8,2.7-4.9,5.5-4.6
	c1.3,0.1,2.4,0.7,3.3,1.6c0.9,1,1.4,2.3,1.3,3.6C225.1,77.4,222.9,79.4,220.2,79.4z M220.2,71.1c-1.8,0-3.3,1.3-3.4,3.1
	c-0.1,0.9,0.3,1.7,0.9,2.4c0.6,0.7,1.4,1.1,2.3,1.1c1.9,0.1,3.5-1.3,3.6-3.1c0-0.9-0.3-1.7-0.9-2.4c-0.6-0.7-1.5-1.1-2.4-1.1H220.2z
	"/>
<path class="st1" d="M216.4,60.7c-0.2,0-0.3,0-0.4-0.1c-2.7-1.4-5.8-1.7-8.7-0.8c-0.2,0.1-0.5,0-0.7-0.2c-0.2-0.2-0.3-0.4-0.3-0.7
	l0.1-4.2c0-0.3,0.2-0.6,0.5-0.7c3.4-1.2,7.2-0.9,10.4,0.8c0.3,0.1,0.5,0.5,0.4,0.8l-0.6,4.4c0,0.3-0.2,0.5-0.4,0.6
	C216.6,60.6,216.5,60.7,216.4,60.7z M210.6,57.7c1.8,0,3.5,0.3,5.1,1l0.3-2.7c-2.5-1.2-5.4-1.4-8.1-0.6l-0.1,2.6
	C208.8,57.8,209.7,57.7,210.6,57.7L210.6,57.7z"/>
<path class="st1" d="M216.5,58.1c-0.1,0-0.2,0-0.3-0.1c-2.7-1.4-5.9-1.8-8.9-0.9c-0.3,0.1-0.7-0.1-0.8-0.4c0,0,0,0,0,0
	c-0.1-0.3,0.1-0.7,0.4-0.8c0,0,0,0,0,0c3.3-0.9,6.8-0.6,9.9,1c0.3,0.2,0.4,0.5,0.3,0.8c0,0,0,0,0,0C216.9,58,216.7,58.1,216.5,58.1z
	"/>
<path class="st7" d="M210.5,73.3c-0.7,0-1.2-0.5-1.2-1.2l-0.7-23c-0.4-1.3-1.6-2.2-3-2.2h-0.1c-3-0.4-3.6,1.7-3.7,1.8
	c-2.3,8.3-5.9,20.8-6.1,21.9c-0.1,0.6-0.6,1.1-1.2,1.1c-0.7,0-1.2-0.6-1.2-1.3c0-0.2,0-0.8,6.1-22.4c0.4-1.5,2.2-4.1,6.3-3.6
	c2.5,0.1,4.6,1.8,5.3,4.2c0,0.1,0,0.2,0,0.3l0.7,23.1C211.7,72.8,211.2,73.3,210.5,73.3C210.5,73.3,210.5,73.3,210.5,73.3
	L210.5,73.3z"/>
<path class="st7" d="M202.4,82.4h-0.3c-5.2-0.1-9.3-4.4-9.2-9.6c0.1-2.4,1.1-4.7,2.9-6.4c3.9-3.6,9.9-3.4,13.5,0.5
	c1.6,1.8,2.6,4.1,2.5,6.5c-0.1,2.4-1.1,4.7-2.9,6.4C207.1,81.4,204.8,82.4,202.4,82.4z M202.3,66.3c-1.8,0-3.5,0.7-4.9,1.9
	c-1.3,1.2-2.1,2.9-2.1,4.7c0,3.8,3,6.9,6.8,7c1.9,0.1,3.7-0.6,5.1-1.9c1.3-1.2,2.1-2.9,2.1-4.7c0-3.8-3-6.9-6.8-7H202.3z"/>
<path class="st7" d="M202.4,78h-0.2c-2.8-0.1-4.9-2.3-4.9-5.1c0-1.3,0.6-2.5,1.6-3.4c2-1.9,5.2-1.8,7.2,0.2c0.9,0.9,1.4,2.2,1.4,3.5
	l0,0c0,1.3-0.6,2.5-1.5,3.4C204.9,77.5,203.7,78,202.4,78z M202.4,69.7c-0.9,0-1.7,0.3-2.4,0.9c-0.6,0.6-1,1.4-1,2.3
	c0,1.9,1.5,3.4,3.3,3.4c0.9,0,1.8-0.3,2.5-0.9c0.6-0.6,1-1.4,1-2.3c0-1.9-1.5-3.4-3.3-3.4L202.4,69.7z M206.6,73.2L206.6,73.2z"/>
<path class="st7" d="M212.1,74H212c-0.7-0.1-1.1-0.7-1.1-1.4c0,0,0,0,0,0l2.7-22.9c0-0.1,0-0.2,0.1-0.3c0.9-2.3,3.2-3.9,5.6-3.7
	c4.1-0.2,5.7,2.7,5.9,4.2c4.2,22.1,4.2,22.6,4.2,22.8c0,0.7-0.5,1.2-1.2,1.2s-1.2-0.5-1.2-1.2l0,0c-0.1-1.1-2.5-13.9-4.1-22.3
	c-0.1-0.4-0.6-2.3-3.5-2.2h-0.2c-1.4-0.1-2.7,0.7-3.2,2L213.3,73C213.2,73.6,212.7,74,212.1,74z"/>
<path class="st7" d="M220.2,83.7h-0.6c-2.5-0.1-4.8-1.2-6.5-3.1c-1.7-1.8-2.5-4.2-2.4-6.7c0.4-5.2,4.8-9.1,10-8.7
	c2.5,0.1,4.8,1.2,6.5,3.1c1.7,1.8,2.5,4.2,2.4,6.7C229.3,79.9,225.2,83.8,220.2,83.7z M220.2,67.6c-3.7-0.1-6.7,2.8-7,6.4
	c-0.1,1.8,0.5,3.6,1.8,5c1.3,1.4,3,2.2,4.9,2.3c3.8,0.3,7.1-2.6,7.4-6.4c0.1-1.8-0.5-3.6-1.8-4.9c-1.3-1.4-3-2.2-4.9-2.3L220.2,67.6
	z"/>
<path class="st7" d="M220.2,79.4h-0.3c-1.3-0.1-2.6-0.7-3.5-1.6c-0.9-1-1.4-2.3-1.3-3.6c0.2-2.8,2.7-4.9,5.5-4.6
	c1.3,0.1,2.4,0.7,3.3,1.6c0.9,1,1.4,2.3,1.3,3.6C225.1,77.4,222.9,79.4,220.2,79.4z M220.2,71.1c-1.8,0-3.3,1.3-3.4,3.1
	c-0.1,0.9,0.3,1.7,0.9,2.4c0.6,0.7,1.4,1.1,2.3,1.1c1.9,0.1,3.5-1.3,3.6-3.1c0-0.9-0.3-1.7-0.9-2.4c-0.6-0.7-1.5-1.1-2.4-1.1H220.2z
	"/>
<path class="st4" d="M207,58.9l0.1-4.2c3.2-1.1,6.8-0.8,9.8,0.8l-0.6,4.4C213.5,58.3,210.1,58,207,58.9z"/>
<path class="st7" d="M216.4,61.1c-0.2,0-0.5-0.1-0.6-0.2c-2.6-1.3-5.6-1.6-8.4-0.8c-0.6,0.2-1.3-0.2-1.5-0.9c0-0.1,0-0.2,0-0.3
	l0.1-4.2c0-0.5,0.3-0.9,0.8-1.1c3.6-1.2,7.4-0.9,10.8,0.8c0.5,0.2,0.7,0.7,0.7,1.2l-0.6,4.4C217.5,60.6,217,61.1,216.4,61.1z
	 M210.6,57.2c1.6,0,3.3,0.3,4.8,0.8l0.2-1.9c-2.3-1-4.8-1.2-7.3-0.6l-0.1,1.8C209.1,57.3,209.8,57.2,210.6,57.2L210.6,57.2z"/>
<path class="st9" d="M24.6,143.2v21.4c0,6.7,3.3,10,10,10H80c6.7,0,10-3.3,10-10v-21.4H24.6z M72.4,156.7c0.2,1.2-0.7,2.3-1.8,2.4
	c-0.2,0-0.4,0-0.6,0H44.6c-1.2,0.2-2.3-0.6-2.4-1.8c0-0.2,0-0.4,0-0.6v-1.2h30.3V156.7z"/>
<path class="st8" d="M89.9,133.7c0-6.7-3.3-10-10-10H63.8l0.8-2.7h20.3c2.6,0,4.4-0.8,5.6-2.4c1-1.6,1.4-3.4,1.3-5.3
	c0-3-0.5-5-1.5-5.9c-1.1-1.2-2.8-1.8-5.4-1.8H29.7c-2.4,0-4.1,0.6-5.1,1.7c-1.2,1-1.7,3-1.7,6s0.6,4.8,1.7,5.9
	c1.1,1.2,2.8,1.8,5.1,1.8h17.7l-0.8,2.7h-12c-6.7,0-10,3.3-10,10v9.5h65.3V133.7z M72.4,141.9H42.1v-0.3c-0.2-1.2,0.6-2.3,1.8-2.4
	c0.2,0,0.4,0,0.6,0H70c1.2-0.2,2.3,0.6,2.4,1.8c0,0.2,0,0.4,0,0.6L72.4,141.9z"/>
<path class="st9" d="M211.2,143.2v8.9c-1.2-2.1-2.6-4.1-4.2-5.9c-0.7-0.8-1.7-1.2-2.8-1.2c-0.2,0-0.5,0-0.7,0.1v-1
	c1.4,0.1,2.7-0.3,3.9-0.9h-24.4c1.1,0.6,2.4,1,3.7,0.9h0.2c-2.2,3.5-4.8,6.9-7.6,10.1c-0.7,0.9-1.1,2-1.2,3.1
	c-0.1,2.3,0.7,4.5,2.1,6.2c1.9,2.5,4.1,3.8,6.4,3.9c0.4-0.1,0.8-0.3,1.1-0.6v1.6c-0.1,1.6,0.6,3.2,1.9,4.3c1.3,1.5,3.3,2.3,6,2.3
	c3,0,5.1-0.8,6.4-2.3c1-1.2,1.6-2.7,1.5-4.3v-5.7c0.3,0.1,0.5,0.2,0.8,0.1c2.1,0,4.1-0.7,5.8-2c0.4-0.4,0.8-0.8,1.1-1.3v6.7
	c0,5.6,2.8,8.5,8.5,8.5h19.7c5.6,0,8.5-2.8,8.5-8.5v-23.1H211.2z M233.6,161.2c0.1,0.9-0.5,1.7-1.4,1.8c-0.2,0-0.3,0-0.5,0h-4.5
	c-0.9,0.1-1.7-0.5-1.8-1.4c0-0.1,0-0.3,0-0.5V161h8.2V161.2z M233.6,151.6h-8.2v-1.8h8.2V151.6z"/>
<path class="st8" d="M208.8,141.9c0.7-0.9,1-2.6,1-5c0-3-0.6-4.9-1.7-5.8c-1-1-2.6-1.5-4.8-1.5h-0.3c-0.2-0.6-0.6-1.2-1-1.7
	c1.3-0.4,2.5-0.9,3.6-1.7c1.8-0.7,2.9-2.5,2.9-4.4v-0.4c0.9,0,1.7-0.1,2.5-0.4c0,0.2-0.1,0.5-0.1,0.8c0,1.8,1.1,3.3,3.3,4.5
	c0.8,0.4,1.6,0.8,2.4,1.1c-3.7,0.8-5.6,3.5-5.6,8.2v7.7h36.6v-7.7c0-5.7-2.8-8.5-8.5-8.5h-1.9l1.1-0.5c1.9-0.8,3.1-2.7,3.1-4.8h1
	c2.4,0,4-0.6,5-1.7c0.8-1.5,1.1-3.2,1-4.9c0-2.5-0.4-4.2-1.3-5.2c-0.9-1-2.4-1.5-4.7-1.4h-12c-0.3-0.9-1.1-1.7-2-2
	c-2.2-1.1-4.6-1.7-7-1.6c-2.3-0.2-4.5,1.1-5.5,3.2c-0.6,1.6-1.3,3.4-2.1,5.4c0-1.4-0.4-2.8-1.2-3.9c-0.8-0.9-2.3-1.4-4.7-1.4h-10.7
	c-0.4-0.9-1.1-1.6-2-2c-2.2-1.1-4.6-1.6-7-1.6c-2.3-0.2-4.5,1.1-5.5,3.2c-1,2.7-2.2,5.4-3.5,8c-0.6,1.1-0.9,2.3-1,3.6
	c0,1.8,1.1,3.3,3.3,4.5c2,1.3,4.3,2,6.7,2.2c2,0,3.9-1.2,4.8-3c0.4-0.5,0.7-1,1-1.5h0.4l1.8,4c-0.2-0.1-0.5-0.2-0.8-0.1
	c-2.5,0-4.4,0.6-5.6,1.9c-0.8,0.6-1.5,1.4-1.8,2.4h-1.6c-2.2,0-3.7,0.4-4.6,1.4c-1.2,1.1-1.8,3-1.8,5.9c0,2.7,0.6,4.6,1.8,5.6
	c0.3,0.3,0.6,0.5,1,0.7h24.4C208,142.9,208.5,142.5,208.8,141.9z M231.8,138.9c0.8-0.1,1.6,0.5,1.7,1.3c0,0.1,0,0.1,0,0.2h-8
	c0.1-1,0.6-1.5,1.7-1.5H231.8z M225.9,125.4c0.4-0.5,0.8-1,1.1-1.6c0.4,0.7,0.9,1.6,1.4,2.6c0.1,0.3,0.3,0.5,0.4,0.8h-4.3
	C225.1,126.6,225.5,126,225.9,125.4L225.9,125.4z"/>
<path class="st8" d="M101,141.4c0.4,0.3,0.8,0.5,1.3,0.7v0.4c-0.1,1.1,0.3,2.2,1,3c0.7,0.6,1.6,1,2.5,0.9h4.5v1.2h-4.2
	c-0.8-0.1-1.5,0.1-2.1,0.6c-0.6,0.8-0.9,1.7-0.8,2.7c-0.1,0.9,0.2,1.9,0.8,2.6c0.6,0.5,1.3,0.8,2.1,0.8h4.2v1.7l-6.4,0.2
	c-0.8,0-1.5,0.3-2,0.9c-1.3,1.7-1.3,4.1-0.1,5.8c0.7,0.8,1.6,1.2,2.7,1.1l24.9-0.9c1-0.1,1.9-0.5,2.6-1.2c0.9,1.3,2.8,1.9,5.4,1.9
	h23.7c4.5,0,6.8-1.8,6.8-5.5v-2.8c0-0.5-0.1-1.1-0.3-1.6c0.4-0.2,0.7-0.4,0.9-0.8c0.5-0.8,0.7-1.6,0.6-2.5c0-1.5-0.2-2.4-0.7-2.8
	c-0.7-0.6-1.6-0.9-2.6-0.8h-10.5v-1.7h8.2c1,0.1,1.9-0.2,2.6-0.9c0.3-0.5,0.5-1.1,0.5-1.7c0.7-0.2,1.3-0.6,1.8-1
	c1.3-0.8,2-2.3,2-4.4v-0.8c0-5.3-2.9-8-8.6-7.9h-20.5c-0.2-0.2-0.4-0.4-0.6-0.6c-1.2-1-3.1-1.5-5.8-1.5c-2.7,0-4.6,0.5-5.8,1.5
	c-0.2,0.2-0.5,0.4-0.7,0.6h-20.8c-5.7,0-8.6,2.6-8.6,7.9v0.4C99,138.7,99.7,140.3,101,141.4z M144.2,156.9l-0.8-1
	c-0.7,0-1.1-0.2-1.1-0.8c0-0.7-0.6-0.3-0.8-0.8h2.6V156.9z M157.3,154.4c-0.2,0.4-0.2,0.8-0.2,1.2v0.7c0,0.5-0.6,0.7-1.7,0.7v-2.6
	H157.3z M144.2,137.1h9.2c1.6,0,2.3,0.4,2.3,1.4h-11.5c0-0.2,0.1-0.4,0.1-0.6C144.3,137.6,144.2,137.4,144.2,137.1L144.2,137.1z
	 M141.7,145.4h2.5v1.7h-3.7C141,146.6,141.4,146.1,141.7,145.4L141.7,145.4z M131.9,153.5l0.1,0.1c-0.6,0.5-0.9,1.2-0.9,2
	c-0.5-0.3-1.1-0.4-1.7-0.4l-5.4,0.2v-1.1h3.6c1,0.1,1.9-0.3,2.5-1.1c0.4-0.7,0.5-1.5,0.5-2.3c0-1.4-0.2-2.2-0.8-2.6
	c-0.6-0.5-1.4-0.8-2.2-0.7h-3.6v-1.2h3.6c1,0.1,2-0.3,2.7-0.9c0.2,1,0.8,1.9,1.7,2.3c-0.1,0-0.1,0-0.1,0.1c-0.6,0.4-0.8,1.3-0.8,2.8
	C130.9,151.7,131.2,152.8,131.9,153.5L131.9,153.5z M113.9,138v0.4c0-0.9,0.7-1.3,2-1.3h17.8c-0.8,1.8-1.7,3.5-2.6,5.2
	c0-1.5-0.3-2.4-0.8-2.9c-0.7-0.6-1.7-0.9-2.6-0.8h-13.7C113.9,138.4,113.9,138.2,113.9,138z"/>
<path class="st9" d="M168,190.7c-1.8-0.2-3.4-0.5-5.1-0.8c1.9-1,2.9-3.1,2.9-6.2v-11.5c0-4.8-2.4-7.3-7.3-7.3h-47.2
	c-4.8,0-7.3,2.4-7.3,7.3v11.5c-0.2,2.1,0.6,4.1,2,5.6c-1.7,0.3-3.3,0.6-4.9,0.8c-1,0.7-1.6,1.8-1.7,3c0,1.5,0.7,2.9,1.7,3.9
	c1.2,1.6,3.1,2.5,5.1,2.5c3-0.1,5.9-0.6,8.8-1.4c4.3-1.1,8.4-2.4,12.5-4.1c1.5-0.8,2.2-1.4,2.2-2c0-0.3-0.1-0.7-0.1-1H140
	c-0.3,0.5-0.5,1.1-0.5,1.7c0,1.1,1.1,2,3.3,2.8c4.1,1.3,8.7,2.6,13.7,3.8c2.3,0.5,4.6,0.7,7,0.8c2.5,0.1,4.8-1.2,6.1-3.3
	c0.7-1.2,1.1-2.6,1.1-4.1C170.7,191.4,169.8,190.7,168,190.7z"/>
<path class="st3" d="M80,176H34.6c-7.5,0-11.4-3.9-11.4-11.4v-30.9c0-6.7,3.2-10.6,9.2-11.3h-2.7c-2.7,0-4.8-0.8-6.1-2.2
	s-2.2-3.6-2.2-6.9s0.7-5.7,2.2-7s3.4-2.2,6.1-2.2h55.2c2.9,0,5,0.8,6.4,2.2c1.3,1.2,1.9,3.5,1.9,6.9c0,2.7-0.5,4.7-1.6,6.1
	c-1.4,2-3.7,3-6.7,3h-2.7c6,0.7,9.2,4.6,9.2,11.3v30.9C91.4,172.1,87.4,176,80,176z M34.6,125.2c-5.8,0-8.6,2.7-8.6,8.6v30.9
	c0,5.8,2.7,8.6,8.6,8.6H80c5.8,0,8.6-2.7,8.6-8.6v-30.9c0-5.8-2.7-8.6-8.6-8.6H63.8c-0.8,0-1.4-0.6-1.4-1.4c0-0.1,0-0.3,0.1-0.4
	l0.8-2.7c0.2-0.6,0.7-1,1.4-1.1h20.3c2.1,0,3.6-0.6,4.4-1.8c0.8-1.3,1.1-2.9,1-4.5c0-3.5-0.7-4.6-1-4.8l-0.1-0.1
	c-0.8-0.9-2.2-1.3-4.3-1.3H29.7c-1.9,0-3.3,0.4-4.1,1.3l-0.1,0.1c-0.6,0.5-1.2,1.8-1.2,4.9c0,2.4,0.4,4.1,1.3,4.8l0.1,0.1
	c1.1,1,2.6,1.5,4.1,1.3h17.7c0.8,0,1.4,0.6,1.4,1.4c0,0.1,0,0.3-0.1,0.4l-0.7,2.7c-0.2,0.6-0.7,1-1.4,1L34.6,125.2z M24.5,107.3
	L24.5,107.3z M70,160.6H44.6c-1.9,0.2-3.7-1.2-3.8-3.2c0-0.2,0-0.4,0-0.6v-1.2c0-0.8,0.6-1.4,1.4-1.4c0,0,0,0,0,0h30.3
	c0.8,0,1.4,0.6,1.4,1.4v1.2c0.2,1.9-1.3,3.7-3.2,3.8C70.4,160.6,70.2,160.6,70,160.6z M43.6,156.9c0,0.6,0.2,0.8,1,0.8H70
	c0.8,0,1-0.1,1-0.8H43.6z M72.4,143.3H42.1c-0.8,0-1.4-0.6-1.4-1.4c0,0,0,0,0,0v-0.3c-0.2-1.9,1.2-3.7,3.2-3.8c0.2,0,0.4,0,0.7,0H70
	c1.9-0.2,3.7,1.2,3.8,3.2c0,0.2,0,0.4,0,0.6v0.3C73.8,142.7,73.2,143.3,72.4,143.3C72.4,143.3,72.4,143.3,72.4,143.3z"/>
<path class="st3" d="M164,201.2c-2.4-0.1-4.9-0.4-7.3-0.9c-5.1-1.2-9.7-2.5-13.9-3.8c-2.8-1-4.2-2.4-4.2-4.1c0-0.1,0-0.2,0-0.2h-6.9
	c-0.3,1.3-1.7,2.2-2.9,2.9h-0.1c-4.1,1.7-8.3,3.1-12.6,4.1c-3,0.8-6,1.3-9.1,1.5c-2.4,0-4.7-1.1-6.2-3c-1.3-1.3-2-3-2.1-4.8
	c0.1-1.6,0.9-3,2.1-4c0.2-0.2,0.5-0.3,0.7-0.4c0.9-0.1,1.8-0.3,2.6-0.4c-0.7-1.4-1-3-1-4.6v-11.5c0-3,0.9-5.3,2.6-6.8h-0.7H105
	c-1.4,0-2.8-0.6-3.7-1.6c-0.8-1-1.2-2.3-1.2-3.6c0-0.1,0-0.1,0-0.2c0-1.4,0.5-2.8,1.3-3.9c0.6-0.7,1.4-1.2,2.3-1.3l-0.2-0.2
	c-0.9-1-1.4-2.3-1.3-3.6c-0.1-1.4,0.3-2.8,1.3-3.8l0,0c-0.3-0.2-0.5-0.4-0.8-0.6c-1-1-1.5-2.3-1.4-3.6c-0.2-0.1-0.5-0.3-0.7-0.4
	c-1.7-1.4-2.6-3.4-2.5-5.6v-0.4c0-4.3,1.8-9.4,10-9.4h20.2l0.3-0.3c1.4-1.2,3.6-1.8,6.7-1.8s5.3,0.6,6.8,1.9
	c0.1,0.1,0.2,0.2,0.3,0.2h19.9c8.3,0,10,5.1,10,9.4v0.8c0,2.6-0.9,4.5-2.6,5.6c-0.4,0.3-0.9,0.6-1.4,0.9c0,0.5-0.2,1-0.4,1.5
	c0,0.1-0.1,0.1-0.1,0.2c-0.1,0.1-0.2,0.2-0.3,0.3c0.9,0.1,1.8,0.5,2.5,1.2c0.8,0.7,1.1,1.9,1.1,3.8c0.1,1.2-0.2,2.3-0.9,3.3
	c-0.1,0.2-0.3,0.3-0.4,0.5c0.1,0.3,0.1,0.7,0.1,1v2.8c0.2,3.2-2.1,6.1-5.3,6.6c2,1.4,3.1,3.9,3.1,7.2v11.5c0.1,1.8-0.3,3.6-1.2,5.2
	l2.1,0.3c3.7,0.1,3.9,2.6,3.9,3.4c0,1.7-0.5,3.3-1.3,4.8c0,0,0,0.1-0.1,0.1C169.8,199.8,167,201.3,164,201.2z M130.2,189.3h10.4
	c0.5,0,1,0.3,1.2,0.7c0.2,0.4,0.2,1,0,1.4c-0.2,0.3-0.3,0.6-0.3,1c0,0.2,0.5,0.8,2.3,1.4c4,1.3,8.6,2.6,13.5,3.7
	c2.2,0.4,4.5,0.7,6.7,0.8c2,0.1,3.8-1,4.8-2.6c0.6-1,0.9-2.2,0.9-3.4c0-0.2,0-0.5-1.3-0.6h-0.2l-5.1-0.8c-0.6-0.1-1.1-0.6-1.2-1.2
	c-0.1-0.6,0.2-1.2,0.7-1.5c1.4-0.8,2.1-2.4,2.1-4.9V172c0-4-1.8-5.8-5.8-5.8h-47.2c-4,0-5.8,1.8-5.8,5.8v11.5
	c-0.1,1.7,0.4,3.3,1.6,4.6c0.4,0.4,0.5,0.9,0.4,1.4c-0.2,0.5-0.6,0.9-1.1,1c-1.5,0.3-3,0.5-4.5,0.8c-0.5,0.4-0.8,1-0.9,1.6
	c0,1.1,0.5,2.1,1.3,2.9c1,1.3,2.5,2.1,4.1,2.1c2.9-0.1,5.7-0.6,8.4-1.3c4.1-1,8.2-2.4,12.1-4c0.5-0.2,1-0.5,1.4-0.9
	c0-0.1,0-0.3-0.1-0.4c-0.2-0.8,0.2-1.5,1-1.8C129.9,189.3,130.1,189.3,130.2,189.3L130.2,189.3z M170.1,196.4L170.1,196.4z
	 M103,159.8c0,0.7,0.2,1.3,0.5,1.8l0.1,0.1c0.1,0.1,0.4,0.5,1.5,0.6l24.8-0.9c0.6,0,1.2-0.3,1.6-0.7c0.3-0.3,0.7-0.4,1.1-0.4
	c0.4,0,0.8,0.2,1,0.6c0.8,1.1,2.8,1.3,4.3,1.3h23.7c4.7,0,5.4-2.1,5.4-4.1v-2.8c0-0.4-0.1-0.7-0.2-1.1c-0.3-0.7,0.1-1.5,0.8-1.8
	c0.1-0.1,0.2-0.2,0.3-0.3c0.3-0.5,0.4-1.1,0.3-1.7c0.1-0.6,0-1.2-0.2-1.8c-0.2-0.2-0.5-0.4-1.6-0.4h-10.5c-0.8,0-1.4-0.6-1.4-1.4
	v-1.7c0-0.8,0.6-1.4,1.4-1.4h8.2c0.5,0.1,1-0.1,1.4-0.3c0.1-0.3,0.2-0.7,0.3-1.1c0.1-0.6,0.5-1,1-1.2c0.5-0.2,0.9-0.4,1.3-0.7
	l0.2-0.1c0.3-0.2,1.3-0.8,1.3-3.2v-0.8c0-4.5-2.2-6.5-7.2-6.5h-20.5c-0.4,0-0.9-0.2-1.1-0.6c-0.1-0.1-0.2-0.2-0.4-0.4
	c-0.9-0.8-2.6-1.2-4.9-1.2c-2.9,0-4.2,0.6-4.8,1.1l-0.1,0.1c-0.2,0.1-0.4,0.3-0.5,0.5c-0.3,0.3-0.6,0.4-1,0.4h-20.8
	c-5,0-7.2,2-7.2,6.5v0.4c-0.1,1.3,0.4,2.5,1.4,3.4c0.3,0.2,0.6,0.3,0.9,0.5c0.5,0.2,0.9,0.7,0.9,1.3v0.4c0,1.4,0.3,1.8,0.5,1.9
	l0.1,0.1c0.4,0.4,0.9,0.5,1.5,0.5h4.5c0.8,0,1.4,0.6,1.4,1.4c0,0,0,0,0,0v1.2c0,0.8-0.6,1.4-1.4,1.4h-4.2c-0.4,0-0.8,0-1.1,0.2
	c-0.4,0.5-0.5,1.1-0.4,1.7c0,1,0.2,1.4,0.3,1.5l0.1,0.1c0.3,0.3,0.7,0.4,1.1,0.3h4.2c0.8,0,1.4,0.6,1.4,1.4v1.6
	c0,0.8-0.6,1.4-1.4,1.4l-6.3,0.2c-0.3,0-0.7,0.1-0.9,0.4l-0.1,0.1C103.4,157.9,103.1,158.4,103,159.8z M166.8,144.3L166.8,144.3z
	 M129.8,127.8L129.8,127.8z M144.8,158.1c-0.7,0-1.3-0.5-1.4-1.2l-0.1-0.3c-0.4-0.2-0.8-0.5-1-0.9c-0.6,0-1.2-0.4-1.5-1
	c-0.3-0.7,0-1.6,0.7-1.9c0.2-0.1,0.4-0.1,0.6-0.1h2.6c0.8,0,1.4,0.6,1.4,1.4v2.6c0,0.7-0.6,1.4-1.3,1.4L144.8,158.1z M156,158.1
	c-0.8,0-1.4-0.6-1.4-1.4v-2.6c0-0.8,0.6-1.4,1.4-1.4h1.9c0.5,0,1,0.3,1.2,0.7c0.3,0.4,0.3,0.9,0.1,1.4c-0.1,0.2-0.1,0.4-0.1,0.6v0.7
	C159,156.6,158.7,158.1,156,158.1L156,158.1z M131.7,156.8c-0.2,0-0.5-0.1-0.7-0.2c-0.3-0.2-0.7-0.2-1.1-0.2l-5.4,0.2
	c-0.4,0-0.7-0.1-1-0.4c-0.3-0.3-0.4-0.6-0.4-1v-1.1c0-0.8,0.6-1.4,1.4-1.4h3.4c1,0,1.3-0.4,1.3-0.5c0.2-0.5,0.2-1,0.2-1.4
	c0-1.2-0.2-1.6-0.2-1.6c0,0-0.1-0.1-0.1-0.1c-0.1-0.1-0.3-0.3-1.2-0.3h-3.6c-0.8,0-1.4-0.6-1.4-1.4v-1.2c0-0.8,0.6-1.4,1.4-1.4h3.6
	c0.6,0.1,1.2-0.1,1.7-0.5c0.4-0.4,1-0.5,1.5-0.3c0.5,0.2,0.9,0.7,0.9,1.2c0,0.5,0.7,0.9,1,1.1c0.6,0.3,0.8,1,0.6,1.6
	c-0.1,0.4-0.4,0.7-0.7,0.9c-0.2,0.5-0.3,1.1-0.2,1.6c0,1.4,0.3,1.7,0.4,1.8l0.2,0.2c0.3,0.3,0.4,0.7,0.4,1.1c0,0.4-0.2,0.8-0.5,1
	c-0.2,0.3-0.4,0.6-0.4,1c-0.1,0.5-0.3,0.9-0.8,1.1C132.1,156.7,131.9,156.8,131.7,156.8L131.7,156.8z M144.8,148.3H141
	c-0.8,0-1.4-0.7-1.4-1.4c0-0.4,0.2-0.8,0.5-1.1c0.4-0.4,0.7-0.8,0.9-1.2c0.2-0.5,0.7-0.8,1.3-0.8h2.5c0.8,0,1.4,0.6,1.4,1.4v1.7
	C146.1,147.6,145.5,148.2,144.8,148.3L144.8,148.3z M131.6,143.5c-0.1,0-0.2,0-0.4-0.1c-0.6-0.2-1.1-0.7-1.1-1.4
	c0-1.4-0.3-1.8-0.3-1.8c-0.5-0.4-1.1-0.6-1.7-0.5h-13.7c-0.8,0-1.4-0.6-1.4-1.4c0-0.2,0-0.3,0.1-0.5c0-0.1,0-0.1,0-0.2
	c0-0.3,0.1-0.6,0.3-0.9c0.4-0.7,1.2-1.5,3.1-1.5h17.8c0.8,0,1.4,0.6,1.4,1.4c0,0.2,0,0.4-0.1,0.6c-0.8,1.9-1.7,3.7-2.7,5.4
	C132.5,143.2,132.1,143.5,131.6,143.5L131.6,143.5z M133,142.1L133,142.1z M131.9,138.3l0.1,0.1l0.1-0.1H131.9z M156.3,139.6h-11.5
	c-0.4,0-0.8-0.2-1.1-0.5c-0.3-0.3-0.4-0.8-0.3-1.2c0-0.1,0-0.2,0-0.3c0-0.2,0-0.3,0-0.5c-0.1-0.4,0-0.9,0.3-1.2
	c0.3-0.3,0.7-0.5,1.1-0.5h9.1c3.5,0,3.8,2.1,3.8,2.8C157.7,139,157,139.6,156.3,139.6L156.3,139.6z"/>
<ellipse class="st4" cx="150.5" cy="150.3" rx="10.3" ry="9.5"/>
<path class="st12" d="M150.5,161c-6.4,0-11.5-4.8-11.5-10.8s5.2-10.8,11.5-10.8s11.5,4.8,11.5,10.8S156.8,161,150.5,161z
	 M150.5,141.9c-5,0-9.1,3.7-9.1,8.3s4.1,8.3,9.1,8.3s9.1-3.7,9.1-8.3S155.5,142,150.5,141.9L150.5,141.9z"/>
<path class="st3" d="M195.6,176.5c-3,0-5.4-0.9-7-2.7c-1.4-1.2-2.2-3-2.3-4.9c-2.7-0.2-5.2-1.7-7.3-4.5c-1.6-2-2.5-4.5-2.4-7.1
	c0.1-1.4,0.6-2.8,1.5-3.9c2.2-2.5,4.3-5.2,6.2-8c-1.3-0.3-2.4-0.9-3.4-1.8c-1.5-1.2-2.3-3.4-2.3-6.6s0.8-5.6,2.3-7
	c1.1-1.1,3-1.7,5.6-1.7h0.7c0.2-0.3,0.3-0.6,0.5-0.8c-2.4-0.3-4.8-1.1-6.8-2.4c-3.3-1.7-4-4.1-4-5.7c0.1-1.4,0.5-2.8,1.1-4.1
	c1.3-2.6,2.5-5.2,3.4-7.9l0.1-0.2c1.2-2.6,3.9-4.2,6.8-4c2.7-0.1,5.3,0.5,7.7,1.7c0.9,0.4,1.7,1.1,2.2,1.9h9.9c2.9,0,4.8,0.7,5.8,2
	c0.1,0.1,0.2,0.3,0.3,0.4c0.2-0.5,0.4-1,0.6-1.5l0.1-0.2c1.2-2.6,3.9-4.2,6.8-4c2.7-0.1,5.3,0.5,7.7,1.7c0.9,0.4,1.7,1.1,2.2,1.9
	h11.1c2.9,0,4.8,0.6,5.8,2s1.6,3.3,1.6,6.1c0.1,2-0.3,3.9-1.2,5.7c0,0.1-0.1,0.1-0.1,0.2c-1.2,1.4-3.1,2.2-5.8,2.2
	c-0.2,1-0.6,1.9-1.2,2.6c5,0.8,7.6,4.1,7.6,9.7v30.9c0,6.5-3.4,9.9-9.9,9.9h-19.7c-6.5,0-9.9-3.4-9.9-9.9V163
	c-1.5,0.9-3.1,1.4-4.9,1.5v4.1c0,1.9-0.7,3.7-1.9,5.1C201.5,175.5,199,176.5,195.6,176.5z M187.7,165.5c0.2,0,0.4,0.1,0.6,0.1
	c0.5,0.2,0.8,0.7,0.8,1.3v1.6c0,1.2,0.5,2.4,1.4,3.2l0.1,0.1c1,1.2,2.6,1.8,4.9,1.8c2.5,0,4.3-0.6,5.3-1.8c0.8-0.9,1.2-2.2,1.2-3.4
	v-5.7c0-0.8,0.6-1.4,1.4-1.4c0.2,0,0.4,0,0.6,0.1c0.1,0,0.2,0,0.3,0c1.8,0,3.5-0.6,4.9-1.6c0.3-0.3,0.6-0.6,0.9-1
	c0.4-0.7,1.3-0.8,2-0.4c0.4,0.3,0.7,0.7,0.6,1.2v6.7c0,4.9,2.2,7.1,7.1,7.1h19.7c4.9,0,7-2.2,7-7.1v-30.8c0-4.9-2.2-7.1-7-7.1h-1.9
	c-0.7,0-1.2-0.5-1.4-1.1c-0.1-0.6,0.2-1.3,0.8-1.6l1.1-0.5c1.4-0.6,2.3-2,2.3-3.5c0-0.8,0.6-1.4,1.4-1.4h1c1.9,0,3.1-0.4,3.8-1.2
	c0.6-1.3,0.8-2.7,0.7-4.1c0-2.6-0.5-3.8-1-4.3c-0.2-0.3-1-0.9-3.6-0.9h-11.9c-0.6,0-1.2-0.4-1.4-1c-0.2-0.6-0.6-1-1.2-1.2l-0.1-0.1
	c-2-1-4.1-1.5-6.3-1.4c-1.8-0.2-3.4,0.8-4.2,2.4c-0.6,1.6-1.3,3.4-2.1,5.4c-0.3,0.7-1.2,1.1-1.9,0.7c-0.5-0.2-0.8-0.7-0.9-1.2
	c0.1-1.1-0.2-2.2-0.9-3.1c-0.2-0.3-1-1-3.6-1h-10.7c-0.6,0-1.2-0.4-1.4-1c-0.2-0.6-0.6-1-1.2-1.2h-0.1c-2-1-4.1-1.5-6.4-1.4
	c-1.8-0.2-3.4,0.8-4.2,2.4c-1,2.8-2.2,5.5-3.5,8.1c-0.5,0.9-0.8,1.9-0.8,2.9c0,0.5,0,1.9,2.6,3.2c1.8,1.2,4,1.9,6.1,2
	c1.5-0.1,2.8-1,3.5-2.3c0-0.1,0.1-0.2,0.2-0.2c0.3-0.4,0.6-0.8,0.8-1.3c0.2-0.5,0.7-0.7,1.2-0.7h0.4c0.6,0,1.1,0.3,1.3,0.8l1.8,4
	c0.3,0.6,0.1,1.3-0.4,1.7c-0.4,0.4-1,0.4-1.6,0.2h-0.1c-2.1,0-3.6,0.5-4.6,1.4c-0.1,0.1-0.1,0.1-0.2,0.2c-0.6,0.4-1.1,1-1.3,1.7
	c-0.2,0.6-0.7,1-1.4,0.9h-1.6c-1.8,0-3,0.3-3.6,1c-0.9,0.8-1.4,2.5-1.4,4.9c0,2.2,0.4,3.8,1.3,4.5c1,0.9,2.3,1.4,3.7,1.3h0.2
	c0.5,0,1,0.3,1.2,0.7c0.3,0.4,0.3,1,0,1.4c-2.3,3.6-4.9,7-7.7,10.2c-0.5,0.7-0.8,1.5-0.9,2.3c0,1.9,0.6,3.7,1.8,5.2
	c1.6,2.1,3.3,3.2,5.1,3.4c0.2-0.1,0.3-0.2,0.5-0.3C187.2,165.5,187.4,165.4,187.7,165.5L187.7,165.5z M231.8,164.5h-4.5
	c-1.7,0.1-3.1-1.1-3.2-2.7c0-0.2,0-0.3,0-0.5V161c0-0.8,0.6-1.4,1.4-1.4h8.2c0.8,0,1.4,0.6,1.4,1.4v0.3c0.1,1.7-1.1,3.1-2.8,3.2
	C232.1,164.5,231.9,164.5,231.8,164.5L231.8,164.5z M211.2,153.6c-0.5,0-1-0.3-1.2-0.7c-1.1-2-2.5-3.9-4.1-5.6
	c-0.5-0.5-1.1-0.7-1.7-0.7c-0.2,0-0.3,0-0.4,0.1c-0.8,0.1-1.5-0.4-1.6-1.2c0-0.1,0-0.2,0-0.2v-1c0-0.8,0.6-1.4,1.4-1.4
	c2,0,3.4-0.6,4.2-1.7c0.3-0.4,0.7-1.4,0.7-4.1c0-3.4-0.8-4.4-1.1-4.6c-0.1,0-0.1-0.1-0.2-0.1c-1.1-0.8-2.4-1.2-3.8-1.1h-0.3
	c-0.6,0-1.2-0.4-1.4-1c-0.1-0.4-0.4-0.8-0.7-1.2c-0.5-0.6-0.5-1.5,0.1-2c0.2-0.1,0.4-0.3,0.6-0.3c1.1-0.3,2.2-0.8,3.2-1.5l0.1-0.1
	c1.3-0.5,2.1-1.7,2.1-3.1v-0.4c0-0.8,0.6-1.4,1.4-1.4c0,0,0,0,0,0c0.7,0,1.3-0.1,1.9-0.3c0.5-0.2,1-0.1,1.5,0.2
	c0.4,0.3,0.6,0.9,0.5,1.4c0,0.2,0,0.3-0.1,0.5c0,0.5,0,1.9,2.6,3.2c0.7,0.4,1.5,0.8,2.3,1.1c0.6,0.2,1,0.8,0.9,1.4
	c-0.1,0.6-0.5,1.2-1.1,1.3c-1.9,0.4-4.5,1.6-4.5,6.8v16.6c0,0.6-0.4,1.2-1.1,1.4C211.4,153.6,211.3,153.6,211.2,153.6L211.2,153.6z
	 M207.4,144.8c0.2,0.1,0.4,0.3,0.5,0.5c0.6,0.7,1.2,1.4,1.8,2.2V143C209.1,143.8,208.3,144.4,207.4,144.8L207.4,144.8z M209.1,130.1
	c0.5,0.4,0.9,0.9,1.2,1.5c0.5-1.7,1.5-3.2,3-4.3c-1.6-0.8-2.9-2.2-3.5-3.8c-0.5,1.8-1.7,3.3-3.4,4.1c-0.4,0.3-0.9,0.5-1.4,0.8
	C206.6,128.5,208,129.1,209.1,130.1L209.1,130.1z M233.6,153h-8.2c-0.8,0-1.4-0.6-1.4-1.4v-1.8c0-0.8,0.6-1.4,1.4-1.4h8.2
	c0.8,0,1.4,0.6,1.4,1.4v1.8C235,152.4,234.4,153,233.6,153z M233.5,141.8h-8c-0.4,0-0.7-0.2-1-0.4c-0.3-0.3-0.4-0.7-0.4-1.1
	c0-1.6,1.3-2.9,2.9-2.9c0.1,0,0.2,0,0.2,0h4.5c1.6-0.1,3,1.1,3.2,2.7c0,0,0,0.1,0,0.1c0,0.4-0.1,0.8-0.4,1.1
	C234.3,141.6,233.9,141.8,233.5,141.8L233.5,141.8z M228.8,128.5h-4.3c-0.8,0-1.4-0.7-1.4-1.4c0-0.4,0.2-0.8,0.5-1.1
	c0.4-0.3,0.8-0.8,1-1.3c0.1-0.1,0.1-0.2,0.2-0.3c0.3-0.4,0.6-0.9,0.9-1.3c0.4-0.7,1.2-0.9,1.9-0.6c0.2,0.1,0.4,0.3,0.6,0.6
	c0.4,0.7,0.9,1.6,1.4,2.6c0,0.1,0.1,0.1,0.1,0.2c0.1,0.1,0.1,0.3,0.2,0.4c0.3,0.4,0.4,1,0.2,1.5
	C229.9,128.2,229.3,128.5,228.8,128.5z"/>
<path class="st3" d="M231.5,143.8c2.7-1.1,3.9-4.2,2.8-6.9s-4.2-3.9-6.9-2.8s-3.9,4.2-2.8,6.9c0.5,1.3,1.5,2.3,2.8,2.8l-2.5,4.3
	c-0.2,0.3-0.3,0.7-0.3,1.1v2.4c0,0,3.1-0.6,4.8-0.8c1.7,0.2,5,0.8,5,0.8v-2.4c0-0.4-0.1-0.8-0.3-1.1L231.5,143.8z"/>
<path class="st12" d="M150.6,174.1h-30.3c-0.8-0.1-1.4-0.8-1.3-1.5c0.1-0.7,0.6-1.2,1.3-1.3h30.3c0.8,0.1,1.4,0.8,1.3,1.5
	C151.9,173.5,151.3,174,150.6,174.1z"/>
<path class="st12" d="M150.6,179.7h-30.3c-0.8,0-1.4-0.6-1.4-1.4c0-0.8,0.6-1.4,1.4-1.4c0,0,0,0,0,0h30.3c0.8,0,1.4,0.6,1.4,1.4
	C152.1,179.1,151.4,179.7,150.6,179.7C150.6,179.7,150.6,179.7,150.6,179.7z"/>
<path class="st12" d="M150.6,185.6h-30.3c-0.8-0.1-1.4-0.8-1.3-1.5c0.1-0.7,0.6-1.2,1.3-1.3h30.3c0.8,0.1,1.4,0.8,1.3,1.5
	C151.9,185,151.3,185.5,150.6,185.6z"/>
<circle class="st13" cx="144.3" cy="151.4" r="0.9"/>
<path class="st13" d="M150.2,156.6c-1.9,0.1-3.7-0.7-5-2.2c-0.3-0.3-0.3-0.8,0.1-1.1c0,0,0,0,0,0c0.3-0.3,0.8-0.3,1.1,0.1
	c1.1,1.3,2.9,1.9,4.6,1.6c0.4-0.1,0.8,0.3,0.9,0.7c0,0,0,0,0,0c0,0.4-0.3,0.8-0.7,0.9C150.9,156.6,150.6,156.6,150.2,156.6z"/>
<path class="st4" d="M68.8,230.3c-0.1,0-0.2,0-0.3,0.2l-0.4,1.7c0,0.1,0,0.1,0,0.2c0,0,0.1,0.1,0.1,0.1c0.8,0.1,1.7,0.2,2.8,0.3h0.1
	c0.2,0.1,0.5,0.2,0.6,0.4c0.2,0.3,0.3,0.6,0.2,0.9c-0.1,0.3-0.2,0.6-0.5,0.8c-0.3,0.2-0.6,0.3-0.9,0.2l-8.5-0.8h-0.2
	c-0.3-0.1-0.5-0.2-0.7-0.4c-0.2-0.3-0.3-0.6-0.3-1c0-0.1,0-0.1,0-0.2c0.1-0.3,0.2-0.5,0.4-0.7c0.3-0.2,0.6-0.3,1-0.3
	c1.2,0.2,2.2,0.3,2.9,0.4c0.1,0,0.2-0.1,0.3-0.2c0,0,0,0,0,0l0.4-2c0-0.1,0-0.2-0.2-0.3l-2.2-0.5c-0.3-0.1-0.6-0.3-0.7-0.5
	c-0.2-0.3-0.2-0.6-0.2-0.9c0.1-0.3,0.3-0.6,0.5-0.8c0.3-0.2,0.6-0.2,0.9-0.2l2.2,0.5c0.1,0,0.2,0,0.3-0.1c0,0,0,0,0,0l0.3-1.4
	c0-0.1,0-0.2-0.2-0.3l-1.5-0.3c-0.5-0.1-1-0.4-1.2-0.9c-0.3-0.4-0.4-1-0.2-1.5l1.3-5.7c0.2-1,1.2-1.7,2.3-1.5c0,0,0,0,0.1,0l6.1,1.4
	c1,0.2,1.7,1.3,1.5,2.3l-1.3,5.8c-0.1,0.5-0.4,0.9-0.8,1.2c-0.4,0.3-1,0.4-1.5,0.3l-1.6-0.4c-0.1,0-0.2,0-0.3,0.1c0,0,0,0,0,0.1
	l-0.3,1.4c0,0.1,0,0.2,0.1,0.2c0,0,0,0,0.1,0l2.3,0.5c0.3,0.1,0.6,0.3,0.8,0.5c0.2,0.3,0.2,0.6,0.2,0.9c-0.1,0.3-0.3,0.6-0.5,0.8
	c-0.3,0.2-0.6,0.2-0.9,0.2L68.8,230.3z M66.5,221.4c-0.1,0-0.2,0-0.2,0.1c0,0,0,0,0,0.1l-0.3,1.2c0,0.1,0,0.2,0.1,0.3c0,0,0,0,0,0
	l1.2,0.3c0.1,0,0.2,0,0.3-0.1c0,0,0,0,0,0L68,222c0-0.1,0-0.2-0.1-0.3c0,0,0,0,0,0L66.5,221.4z M67.3,217.8c-0.1,0-0.2,0-0.3,0.1
	c0,0,0,0,0,0l-0.3,1.2c0,0.1,0,0.2,0.2,0.3l1.2,0.3c0.1,0,0.2,0,0.3-0.1c0,0,0,0,0-0.1l0.3-1.2c0-0.1,0-0.2-0.1-0.3c0,0,0,0,0,0
	L67.3,217.8z M71.2,224.2c0.1,0,0.2,0,0.3-0.1c0,0,0,0,0-0.1l0.3-1.2c0-0.1,0-0.2-0.1-0.3c0,0,0,0-0.1,0l-1.2-0.3
	c-0.1,0-0.2,0-0.3,0.1c0,0,0,0,0,0l-0.3,1.2c-0.1,0.1,0,0.2,0.1,0.3c0,0,0.1,0,0.1,0L71.2,224.2z M72,220.6c0.2,0,0.2,0,0.3-0.2
	l0.3-1.2c0-0.1,0-0.2-0.1-0.3c0,0,0,0,0,0l-1.2-0.3c-0.1,0-0.2,0-0.3,0.1c0,0,0,0,0,0.1l-0.3,1.2c0,0.1,0,0.2,0.2,0.3L72,220.6z
	 M82,226.5c0.2,0,0.5,0.1,0.7,0.2l0.5,0.2c0.2,0.1,0.4,0.3,0.5,0.5c0.1,0.2,0.1,0.4,0,0.5c0,0.1,0,0.1-0.1,0.2
	c-0.6,1.3-1.2,2.5-1.8,3.5c-0.2,0.3-0.4,0.5-0.7,0.6c-0.2,0-0.4,0-0.6,0l-0.3-0.1c-0.3-0.1-0.5-0.3-0.6-0.6c0-0.2,0-0.4,0-0.6
	c0-0.1,0-0.2,0.1-0.2c0.2-0.5,0.5-1,0.8-1.6c0,0,0-0.1,0-0.2c0-0.1-0.1-0.1-0.1-0.1l-1-0.2c-0.1,0-0.2,0-0.2,0.1c0,0,0,0,0,0.1
	l-1.5,6.9c-0.1,0.5-0.3,1.1-0.6,1.5c-0.3,0.3-0.6,0.6-1.1,0.7c-0.8,0.1-1.6,0.1-2.4-0.1h-0.1c-0.3-0.1-0.7-0.3-0.9-0.6
	c-0.2-0.3-0.4-0.7-0.4-1.1c0-0.1,0-0.2,0-0.3c0-0.2,0.2-0.4,0.3-0.5c0.2-0.2,0.5-0.3,0.8-0.2l0,0l0.5,0.1c0.2,0,0.4,0.1,0.6,0.1
	c0.1,0,0.2,0,0.4,0c0.1,0,0.1-0.1,0.2-0.3l1.5-6.8c0-0.1,0-0.2-0.1-0.3c0,0,0,0,0,0l-1.5-0.3c-0.7-0.1-1.1-0.8-1-1.5c0,0,0,0,0,0
	c0.1-0.3,0.3-0.6,0.6-0.8c0.3-0.2,0.7-0.3,1-0.2l3.2,0.7c0,0,0,0,0.1,0s0-0.1,0-0.1c-0.8-0.9-1.6-1.7-2.5-2.4
	c-0.2-0.2-0.3-0.4-0.3-0.7v-0.1c0-0.2,0.2-0.4,0.4-0.5c0.3-0.2,0.6-0.3,1-0.3h0.3c0.2,0,0.5,0.2,0.7,0.3l0.6,0.5
	c0.1,0.1,0.3,0.1,0.4,0c0.6-0.4,1.1-0.8,1.5-1.2c0,0,0-0.1,0-0.1c0,0,0-0.1-0.1-0.1l-3.9-0.9c-0.3-0.1-0.6-0.3-0.8-0.5
	c-0.2-0.3-0.2-0.6-0.2-0.9c0.1-0.3,0.3-0.6,0.5-0.8c0.3-0.2,0.6-0.2,0.9-0.2L83,219h0.1h0.3c0.2,0.1,0.5,0.2,0.6,0.4l0.4,0.4
	c0.2,0.2,0.3,0.5,0.3,0.8c0,0.1,0,0.1,0,0.2c-0.1,0.2-0.2,0.4-0.3,0.5c-1,1-2.2,1.9-3.5,2.7c-0.1,0.1-0.1,0.2,0,0.3l0.9,0.9
	c0.1,0.2,0.2,0.4,0.2,0.6c0,0.2-0.1,0.4-0.3,0.5c0,0.1,0,0.1,0,0.1L82,226.5L82,226.5z"/>
<path class="st4" d="M103.8,221.5c0.3-0.2,0.6-0.3,1-0.3c0.4,0,0.8,0.2,1,0.5c0.2,0.3,0.3,0.6,0.3,1l-1.2,8.9c0,0.1,0,0.3,0.1,0.4
	c0.9,1,1.8,1.8,2.9,2.6c0.3,0.2,0.5,0.5,0.5,0.9c0,0.1,0,0.2,0,0.2c0,0.3-0.2,0.5-0.4,0.7c-0.3,0.3-0.7,0.5-1.2,0.5h-0.3
	c-0.3,0-0.6-0.1-0.8-0.3c-0.4-0.3-0.8-0.7-1.2-1c0,0-0.1,0-0.1,0c0,0-0.1,0.1-0.1,0.1l-0.7,5.3c0,0.4-0.2,0.7-0.5,0.9
	c-0.3,0.2-0.7,0.3-1.1,0.3c-0.8-0.1-1.3-0.8-1.2-1.6l1-7.9c0-0.1,0-0.3-0.1-0.4c-0.8-1.2-1.5-2.4-2.1-3.6c0,0,0-0.1-0.1-0.1
	c0,0-0.1,0-0.1,0.1c-2.2,5.3-5.2,9-9.1,11c-0.3,0.2-0.7,0.2-1,0.2c-0.1,0-0.2,0-0.2-0.1c-0.4-0.1-0.7-0.4-1-0.7
	c-0.2-0.2-0.3-0.5-0.2-0.8c0-0.4,0.3-0.7,0.6-0.9c2.1-1,3.9-2.5,5.4-4.3c0.1-0.1,0.1-0.2,0-0.3c0,0,0,0,0,0c-0.9-1-1.8-1.9-2.8-2.8
	c-0.1-0.1-0.2-0.1-0.3,0c0,0,0,0,0,0l-0.1,0.1c-0.3,0.3-0.6,0.4-1,0.4h-0.1c-0.4,0-0.7-0.2-0.9-0.5c-0.3-0.2-0.4-0.6-0.4-0.9v-0.1
	c0-0.3,0.2-0.6,0.4-0.8c2.2-2,3.9-4.5,5-7.2c0.1-0.3,0.4-0.6,0.8-0.8c0.2-0.1,0.5-0.2,0.8-0.1l0.3,0.1c0.3,0.1,0.6,0.4,0.8,0.7
	c0.1,0.2,0.1,0.4,0.1,0.7c0,0.1-0.1,0.2-0.1,0.4c-0.2,0.4-0.4,0.8-0.6,1.2c0,0,0,0.1,0,0.1c0,0,0.1,0.1,0.1,0.1l2.9,0.4h0.1
	c0.1,0,0.2,0,0.3,0c0.2,0,0.3,0.1,0.5,0.1l0.5,0.2c0.2,0.1,0.4,0.3,0.5,0.6c0.1,0.2,0.1,0.4,0.1,0.6v0.2l-0.3,1l0,0l0,0
	c0.2-0.1,0.5,0,0.7,0.1c0.2,0.1,0.4,0.3,0.4,0.5c0.2,0.5,0.5,1,0.7,1.4c0,0,0.1,0,0.1,0c0,0,0.1,0,0.1-0.1l0.8-6
	C103.2,222,103.5,221.7,103.8,221.5z M97.6,226.4c0-0.1,0-0.1,0-0.2c0,0-0.1-0.1-0.1-0.1l-2.9-0.4c-0.1,0-0.3,0-0.3,0.2
	c-0.4,0.7-0.9,1.4-1.4,2.1c-0.1,0.1-0.1,0.2,0,0.3c0,0,0,0,0,0c0.9,0.7,1.8,1.5,2.6,2.3c0,0,0.1,0,0.1,0c0.1,0,0.1,0,0.1-0.1
	C96.4,229.3,97.1,227.9,97.6,226.4z"/>
<path class="st4" d="M120.4,226.3c0.3,0,0.6,0.1,0.8,0.4c0.2,0.2,0.3,0.5,0.3,0.8c0,0.3-0.1,0.6-0.3,0.8c-0.2,0.2-0.5,0.3-0.8,0.3
	l-5.4-0.2c-0.3,0-0.6-0.1-0.7-0.4c-0.2-0.2-0.3-0.5-0.3-0.8c0-0.6,0.5-1,1.1-1L120.4,226.3z M132.8,223.9c0.5,0,1,0.2,1.4,0.6
	c0.4,0.4,0.5,0.9,0.5,1.4l-0.7,15.5c0,0.6-0.1,1.1-0.3,1.6c-0.2,0.4-0.4,0.7-0.8,0.9c-0.7,0.3-1.4,0.4-2.2,0.4h-0.1
	c-0.4,0-0.7-0.1-0.9-0.4c-0.3-0.3-0.5-0.6-0.6-1c0-0.1,0-0.2,0-0.3c0-0.2,0.1-0.4,0.2-0.6c0.2-0.2,0.5-0.4,0.8-0.3h0.6h0.4
	c0.1,0,0.2,0,0.3-0.1c0.1-0.1,0.1-0.2,0.1-0.3l0.7-14.9c0-0.1-0.1-0.2-0.2-0.2l-6.8-0.3c-0.2,0-0.2,0.1-0.2,0.2l-0.3,5.9
	c-0.1,1.9-0.3,3.7-0.5,5.5c-0.2,1.6-0.6,3.2-1.2,4.8c-0.2,0.4-0.5,0.7-1,0.8c-0.1,0-0.3,0.1-0.4,0.1c-0.3,0-0.6-0.1-0.9-0.3
	l-0.2-0.1c-0.1-0.1-0.3-0.1-0.4-0.1l-3.7-0.2c0,0-0.1,0-0.1,0.1c0,0,0,0,0,0c0,0.2-0.1,0.4-0.3,0.6c-0.2,0.1-0.4,0.2-0.6,0.2h-0.2
	c-0.3,0-0.5-0.1-0.7-0.3c-0.2-0.2-0.3-0.5-0.3-0.8l0.2-4.8c0-0.5,0.2-1,0.6-1.4c0.4-0.4,0.9-0.5,1.4-0.5l2.2,0.1
	c1.1,0,1.9,0.9,1.8,2l-0.2,4.2c0,0,0,0,0,0.1c0,0,0,0,0.1,0c0.7-1.4,1.1-2.9,1.3-4.4c0.3-1.8,0.4-3.7,0.5-5.6l0.3-6.5
	c0-0.5,0.2-1,0.6-1.4c0.4-0.4,0.9-0.5,1.4-0.5L132.8,223.9z M115.5,234.4c-0.6,0-1-0.4-1-1c0-0.3,0.1-0.5,0.3-0.7
	c0.2-0.2,0.5-0.3,0.7-0.3l4,0.2c0.6,0,1,0.4,1,1c0,0,0,0,0,0.1c0,0.3-0.1,0.5-0.3,0.7c-0.2,0.2-0.5,0.3-0.7,0.3L115.5,234.4z
	 M119.7,229.4c0.6,0,1,0.4,1,1c0,0.3-0.1,0.6-0.4,0.8c-0.2,0.2-0.5,0.3-0.7,0.3l-4-0.2c-0.3,0-0.5-0.1-0.7-0.3
	c-0.4-0.4-0.3-1.1,0.1-1.5c0.2-0.2,0.5-0.3,0.7-0.3L119.7,229.4z M120,223.2c0.3,0,0.5,0.1,0.7,0.3c0.2,0.2,0.3,0.5,0.3,0.7
	c0,0.3-0.1,0.5-0.3,0.7c-0.2,0.2-0.5,0.3-0.7,0.3l-3.8-0.2c-0.6,0-1-0.5-1-1.1c0-0.6,0.5-1,1.1-1L120,223.2z M117.8,240.4
	c0.1,0,0.2-0.1,0.2-0.2c0,0,0,0,0-0.1l0.1-2.2c0-0.1,0-0.2-0.2-0.2c0,0,0,0-0.1,0l-1.4-0.1c-0.2,0-0.2,0.1-0.2,0.2l-0.1,2.2
	c0,0.1,0.1,0.2,0.2,0.2L117.8,240.4z M130.7,238.6c0,0.5-0.3,1-0.7,1.4c-0.4,0.4-0.9,0.5-1.4,0.5l-1.7-0.1c-0.1,0-0.1,0-0.1,0.1
	c0,0.2-0.1,0.4-0.2,0.5c-0.1,0.1-0.3,0.2-0.5,0.2h-0.3c-0.5,0-0.9-0.4-0.9-1c0,0,0,0,0,0l0.2-3.9c0-0.5,0.2-1,0.6-1.4
	c0.4-0.4,0.9-0.5,1.4-0.5l1.7,0.1c1.1,0,1.9,0.9,1.9,2L130.7,238.6z M125.5,232.8c-0.2-0.2-0.3-0.5-0.3-0.7c0-0.3,0.1-0.5,0.3-0.7
	c0.2-0.2,0.4-0.3,0.7-0.3h0.7c0.1,0,0.2-0.1,0.2-0.2v-1.2c0-0.1,0-0.2-0.2-0.2h-0.6c-0.3,0-0.5-0.1-0.7-0.3
	c-0.2-0.2-0.3-0.4-0.3-0.7c0-0.3,0.1-0.5,0.3-0.7c0.2-0.2,0.4-0.3,0.7-0.3h0.6c0.1,0,0.1,0,0.2-0.1c0,0,0,0,0,0v-0.3
	c0-0.6,0.5-1,1.1-1c0.3,0,0.6,0.1,0.7,0.3c0.2,0.2,0.3,0.5,0.3,0.8v0.3c0,0.1,0,0.1,0.1,0.2c0,0,0,0,0,0h0.7c0.3,0,0.5,0.1,0.7,0.3
	c0.2,0.2,0.3,0.4,0.2,0.7c0,0.3-0.1,0.5-0.3,0.7c-0.2,0.2-0.4,0.3-0.7,0.3h-0.6c-0.1,0-0.2,0.1-0.2,0.2l-0.1,1.2
	c0,0.1,0.1,0.2,0.2,0.2h0.8c0.3,0,0.5,0.1,0.7,0.3c0.4,0.4,0.3,1-0.1,1.4c-0.2,0.2-0.4,0.3-0.7,0.3l-4-0.2
	C125.8,233.1,125.6,233,125.5,232.8L125.5,232.8z M128.8,236.6c0-0.1-0.1-0.2-0.2-0.2l-1.3-0.1c-0.1,0-0.2,0-0.2,0.2c0,0,0,0,0,0.1
	l-0.1,1.7c0,0.1,0.1,0.2,0.2,0.2c0,0,0,0,0,0l1.3,0.1c0.1,0,0.2-0.1,0.2-0.2L128.8,236.6z"/>
<path class="st4" d="M149.3,226.4l-0.1-3.5l1.2,0.1c0.4,0,0.6,0.1,0.6,0.3c0,0.4-0.2,0.5-0.3,0.5c-0.2,0-0.3,0.1-0.3,0.2l0.1,2.4
	l6.3-0.3l1.4-1.3l1.5,1c0.1,0.1,0.2,0.2,0.2,0.4c0,0.3-0.2,0.4-0.5,0.5l-8.2,0.4c2.9,3.3,7.2,4.5,8.9,4.8c0.1,0,0.2,0.1,0.2,0.2
	c0,0.1-0.1,0.2-0.4,0.3c-0.2,0.1-0.4,0.3-0.5,0.5c-0.1,0.2-0.1,0.3-0.2,0.3l0,0c-3.4-1.1-6.4-3.2-8.4-6.1h-0.2l0.2,5.5
	c0,0.2-0.1,0.3-0.3,0.3c-0.7,0.2-0.8,0.2-0.9-0.3l-0.2-5.3c-0.6,0.9-1.2,1.7-1.9,2.4c-2.2,2.1-4.8,3.6-7.7,4.5
	c-0.1,0-0.2-0.1-0.2-0.2c0-0.1,0-0.1,0.1-0.2c1.3-0.5,2.6-1.2,3.8-2c2-1.2,3.6-2.8,4.8-4.8l-8.2,0.4l-0.2-0.7L149.3,226.4z
	 M158.1,242.2l1.4-1.3l1.5,1c0.1,0.1,0.2,0.2,0.2,0.4c0,0.3-0.2,0.4-0.5,0.5l-20.4,0.9l-0.2-0.7L158.1,242.2z M144.6,232.7l1,0.6
	l8.9-0.4l0.6-0.6l1.1,0.6c0.1,0,0.1,0.1,0.1,0.2c0,0.2-0.2,0.4-0.4,0.4c-0.2,0.1-0.3,0.2-0.3,0.3l0.3,7.6c0,0.1-0.1,0.3-0.2,0.4
	c-0.8,0.2-0.9,0.2-0.9-0.3v-0.8l-8.8,0.4c0,0.7,0,0.8-0.2,0.9c-0.7,0.2-0.9,0.2-0.9-0.3L144.6,232.7z M145.8,234l0.1,2.8l8.8-0.4
	l-0.1-2.8L145.8,234z M146,237.5l0.1,2.9l8.8-0.4l-0.1-2.9L146,237.5z"/>
<path class="st4" d="M185.4,225.9l0.4,0.3c0,0,0,0.2,0.1,0.5c0.1,0.3,0,0.7-0.2,0.9c-0.2,0.3-0.5,0.4-0.8,0.5l-1,0.1
	c-0.1,0-0.2,0.1-0.2,0.2c0,0,0,0,0,0l0.2,1.6c0,0.1,0.1,0.2,0.2,0.2c0,0,0,0,0,0l0.8-0.1c0.7-0.1,1.3,0.4,1.4,1.1s-0.4,1.3-1.1,1.4
	l-0.8,0.1c-0.1,0-0.2,0.1-0.2,0.2l0.6,4.5c0.1,0.5,0.1,1.1,0,1.6c-0.1,0.4-0.4,0.8-0.8,1c-0.8,0.4-1.6,0.7-2.4,0.8h-0.1
	c-0.3,0-0.7,0-1-0.2c-0.4-0.2-0.6-0.5-0.8-0.9c0-0.1-0.1-0.2-0.1-0.3c0-0.2,0-0.4,0.1-0.6c0.1-0.3,0.4-0.5,0.7-0.5l0,0l1.3-0.2
	c0.1,0,0.3-0.1,0.4-0.1c0.1-0.1,0.1-0.2,0.1-0.3l-0.6-4.5c0-0.1-0.1-0.2-0.2-0.2c0,0,0,0,0,0l-4.3,0.6c-0.1,0-0.1,0-0.1,0.1
	c0,0,0,0.1,0,0.1c0.8,0.6,1.5,1.2,2.1,1.9c0.2,0.2,0.3,0.4,0.3,0.6c0,0.1,0,0.2,0,0.3c0,0.3-0.2,0.7-0.5,0.9
	c-0.2,0.1-0.4,0.2-0.6,0.3c-0.1,0-0.2,0-0.3,0c-0.3,0-0.7-0.2-0.9-0.4c-0.2-0.3-0.5-0.6-0.8-0.9c-0.3-0.3-0.5-0.6-0.5-1
	c0-0.1,0-0.2,0-0.3c0-0.5,0.2-0.9,0.6-1.2l0.1-0.1c0,0,0,0,0-0.1c0,0,0,0-0.1,0l-1.5,0.2c-0.3,0-0.6,0-0.8-0.2
	c-0.2-0.2-0.4-0.4-0.4-0.7c0-0.1-0.1-0.1-0.1-0.1l-0.8,0.4c-0.4,0.2-0.6,0.3-0.8,0.4c-0.1,0.1-0.2,0.2-0.2,0.3l0.9,6.9
	c0.1,0.3,0,0.7-0.2,0.9c-0.2,0.3-0.5,0.4-0.8,0.5c-0.7,0.1-1.3-0.4-1.4-1c0,0,0,0,0,0l-0.8-6.1c0-0.1,0-0.1-0.1-0.1
	c-0.1,0-0.1,0-0.2,0l-1.8,0.8c-0.1,0.1-0.2,0.1-0.4,0.1c-0.2,0-0.4,0-0.6-0.1c-0.3-0.1-0.6-0.4-0.7-0.7c0-0.1-0.1-0.2-0.1-0.3
	c0-0.2,0-0.5,0.1-0.7c0.1-0.3,0.4-0.6,0.7-0.7c0.7-0.3,1.5-0.6,2.4-1c0.1-0.1,0.2-0.2,0.2-0.3l-0.5-3.7c0-0.1-0.1-0.2-0.2-0.2
	c0,0,0,0-0.1,0l-1.1,0.1c-0.1,0-0.2,0.1-0.2,0.3c0,0,0,0,0,0c0,0.6-0.1,1.1-0.2,1.6c0,0.3-0.2,0.5-0.5,0.6c-0.1,0-0.2,0.1-0.3,0.1
	c-0.2,0-0.3,0-0.5-0.1c-0.3-0.1-0.5-0.4-0.7-0.6c-0.1-0.2-0.1-0.3-0.2-0.5c0-0.1,0-0.3,0-0.4c0.2-1.7,0.2-3.5,0.1-5.2
	c0-0.3,0.1-0.6,0.3-0.8c0.1-0.2,0.4-0.3,0.6-0.3h0.2c0.3,0,0.6,0.1,0.8,0.4c0.2,0.2,0.3,0.4,0.3,0.6c0,0.1,0,0.1,0,0.1
	c0,0.5,0,0.9,0,1.4c0,0.1,0,0.1,0.1,0.1c0,0,0.1,0,0.1,0l0.6-0.1c0.1,0,0.2-0.1,0.2-0.2c0,0,0,0,0,0l-0.4-2.8
	c-0.1-0.3,0-0.7,0.2-0.9c0.2-0.3,0.5-0.4,0.8-0.5c0.3,0,0.7,0,0.9,0.2c0.3,0.2,0.4,0.5,0.5,0.8l0.4,2.8c0,0.1,0.1,0.2,0.2,0.2
	c0.5-0.1,0.9,0,1.3,0.3c0.4,0.3,0.6,0.7,0.7,1.1v0.2c0,0.1,0.1,0.2,0.2,0.2l4.5-0.6c0.1,0,0.2-0.1,0.2-0.2c0,0,0,0,0-0.1l-0.2-1.5
	c0-0.1-0.1-0.2-0.2-0.2c0,0,0,0,0,0l-2.6,0.4c-0.3,0.1-0.7,0-0.9-0.2c-0.3-0.2-0.4-0.5-0.5-0.8c-0.1-0.3,0-0.7,0.2-0.9
	c0.2-0.3,0.5-0.4,0.8-0.5l2.6-0.4c0.1,0,0.2-0.1,0.2-0.2c0,0,0,0,0,0l-0.1-0.5c-0.1-0.7,0.4-1.4,1.1-1.5c0,0,0,0,0,0
	c0.4-0.1,0.7,0,1,0.3c0.3,0.2,0.5,0.5,0.5,0.9l0.1,0.5c0,0.1,0.1,0.2,0.2,0.2l2.7-0.4c0.7-0.1,1.3,0.3,1.4,1c0,0.3,0,0.7-0.2,0.9
	c-0.2,0.3-0.5,0.4-0.8,0.5l-2.7,0.4c-0.1,0-0.2,0.1-0.2,0.2c0,0,0,0,0,0.1l0.2,1.5c0,0.1,0.1,0.2,0.2,0.2c0,0,0,0,0,0l3.7-0.5
	C184.8,225.6,185.2,225.7,185.4,225.9z M181,230.8c0.1,0,0.2-0.1,0.2-0.2c0,0,0,0,0-0.1l-0.2-1.6c0-0.1-0.1-0.2-0.2-0.2c0,0,0,0,0,0
	l-6,0.8c-1,0.1-2-0.6-2.1-1.6c0-0.1-0.1-0.2-0.2-0.2l-1.1,0.1c-0.1,0-0.2,0.1-0.2,0.2c0,0,0,0,0,0.1l0.4,3c0,0,0,0.1,0.1,0.1
	c0,0,0.1,0,0.1,0l0.8-0.3c0.1,0,0.2-0.1,0.2-0.1c0.2,0,0.4,0,0.6,0.1c0.3,0.1,0.4,0.4,0.5,0.6c0,0.1,0.1,0.1,0.2,0.1L181,230.8z"/>
<path class="st4" d="M210.1,228.4C210,228.4,210,228.4,210.1,228.4c0,0.1,0,0.1,0,0.1c0.4,0.1,0.6,0.4,0.7,0.8c0.1,0.4,0,0.7-0.3,1
	c-0.4,0.4-0.7,0.7-1.1,1.1c0,0,0,0.1,0,0.1c0,0,0,0.1,0.1,0.1c0.9,0.2,1.8,0.4,2.6,0.4c0.3,0,0.6,0.2,0.7,0.4c0,0.1,0.1,0.2,0.1,0.3
	c0,0.2,0,0.4,0,0.5c-0.2,0.4-0.4,0.7-0.7,1c-0.2,0.1-0.4,0.2-0.6,0.3c-0.2,0-0.3,0-0.5,0c-1.8-0.1-3.6-0.8-5.2-1.8c0,0-0.1,0-0.1,0
	s0,0.1,0,0.2c0.1,0.4,0.1,0.8-0.1,1.2c-0.2,0.4-0.5,0.7-0.9,0.9l-3.1,1.3l-2.2,0.9l-0.2,0.1c-0.3,0.1-0.5,0-0.8-0.1
	c-0.3-0.1-0.6-0.4-0.7-0.7c0-0.1,0-0.1-0.1-0.2c-0.1-0.3,0-0.5,0.1-0.8c0.1-0.3,0.4-0.5,0.7-0.6c0.3-0.1,0.6-0.2,0.8-0.3
	c0.1,0,0.2-0.1,0.2-0.3c0,0,0,0,0,0l-0.7-3c0-0.1-0.1-0.2-0.2-0.2c0,0,0,0-0.1,0l-0.9,0.2c-0.3,0.1-0.6,0-0.9-0.1
	c-0.3-0.2-0.4-0.4-0.5-0.7c-0.1-0.6,0.2-1.2,0.8-1.4l2.1-0.5c0.1,0,0.2-0.1,0.2-0.2c0,0,0,0,0,0l-0.3-1.1c0-0.1-0.1-0.2-0.2-0.2
	c0,0,0,0-0.1,0l-1.5,0.4c-0.3,0.1-0.6,0-0.9-0.1c-0.3-0.2-0.4-0.4-0.5-0.7c-0.1-0.3,0-0.6,0.1-0.9c0.2-0.3,0.4-0.4,0.7-0.5l1.5-0.4
	c0.1,0,0.2-0.1,0.2-0.2c0,0,0,0,0-0.1l-0.2-1c0-0.1-0.1-0.2-0.2-0.2c0,0,0,0-0.1,0l-2.8,0.7c-0.1,0-0.2,0.1-0.2,0.2c0,0,0,0,0,0
	l0.1,0.3c0.5,2.2,0.9,4.4,1.2,6.6c0.2,2,0.2,4-0.2,6c-0.1,0.4-0.3,0.7-0.6,0.8c-0.1,0.1-0.2,0.1-0.3,0.1c-0.2,0.1-0.5,0.1-0.7,0
	c-0.4-0.1-0.6-0.3-0.8-0.6c-0.1-0.1-0.1-0.3-0.2-0.4c-0.1-0.2-0.1-0.4,0-0.6c0.2-0.9,0.3-1.9,0.3-2.8c0-1,0-2-0.2-3
	c-0.1-1-0.3-1.9-0.4-2.7s-0.3-1.6-0.6-2.6l-1.1-4.7c-0.1-0.5,0-1,0.2-1.5c0.3-0.4,0.7-0.8,1.2-0.9l13.3-3.3c0.5-0.1,1-0.1,1.5,0.2
	c0.4,0.3,0.8,0.7,0.9,1.2l0.5,2.2c0.3,1-0.4,2.1-1.4,2.3c0,0,0,0,0,0l-0.9,0.2c-0.1,0-0.2,0.1-0.2,0.2c0,0,0,0,0,0.1l0.2,1
	c0,0.1,0.1,0.2,0.2,0.2c0,0,0,0,0,0l1.9-0.5c0.6-0.1,1.2,0.3,1.3,0.9c0.1,0.5-0.2,1.1-0.8,1.3l-1.9,0.5c-0.1,0-0.2,0.1-0.2,0.2
	c0,0,0,0,0,0.1l0.3,1.1c0,0.1,0.1,0.2,0.3,0.2l2.9-0.7c0.3-0.1,0.6,0,0.9,0.1c0.3,0.2,0.4,0.4,0.5,0.7c0.1,0.3,0,0.6-0.1,0.9
	c-0.2,0.3-0.4,0.4-0.7,0.5L210.1,228.4z M194.1,220.4c-0.1,0-0.2,0.1-0.2,0.2c0,0,0,0,0,0l0.3,1.1c0,0.1,0.1,0.2,0.2,0.2
	c0,0,0,0,0,0l11.3-2.8c0.1,0,0.2,0,0.2-0.1c0,0,0-0.1,0-0.1l-0.3-1.1c0-0.1-0.1-0.2-0.2-0.2c0,0,0,0-0.1,0L194.1,220.4z
	 M200.6,222.9c-0.1,0-0.2,0.1-0.2,0.3l0.3,1c0,0.1,0.1,0.2,0.3,0.2l2.9-0.7c0.1,0,0.2-0.1,0.2-0.2c0,0,0,0,0-0.1l-0.2-1
	c0-0.1-0.1-0.2-0.2-0.2c0,0,0,0,0,0L200.6,222.9z M201.3,230.5c-0.1,0-0.2,0.1-0.2,0.2c0,0,0,0,0,0.1l0.6,2.7c0,0.1,0.1,0.1,0.1,0.1
	c0,0,0.1,0,0.2,0c1.6-0.6,2.6-1,3-1.2c0,0,0.1,0,0.1-0.1c0,0,0-0.1,0-0.1c-0.7-0.6-1.3-1.2-1.9-1.9c-0.1-0.1-0.2-0.2-0.4-0.1
	L201.3,230.5z M201.5,226.5c-0.1,0-0.2,0.1-0.2,0.3l0.3,1.1c0,0.1,0.1,0.2,0.3,0.2l2.9-0.7c0.1,0,0.2-0.1,0.2-0.2c0,0,0,0,0,0
	l-0.3-1.1c0-0.1-0.1-0.2-0.2-0.2c0,0,0,0,0,0L201.5,226.5z M208.9,228.8C208.9,228.8,208.9,228.7,208.9,228.8
	C208.9,228.7,208.9,228.7,208.9,228.8l-3.1,0.7c0,0-0.1,0-0.1,0.1c0,0.1,0,0.1,0,0.1c0.4,0.4,0.8,0.7,1.2,1c0.1,0.1,0.3,0.1,0.4-0.1
	C208,229.9,208.5,229.3,208.9,228.8L208.9,228.8z"/>
<rect x="137.9" y="222.1" class="st6" width="25.3" height="23.4"/>
<path class="st4" d="M152.2,241.2l7.2-0.3c0.3,0,0.6,0.1,0.9,0.3c0.2,0.2,0.4,0.5,0.4,0.8c0,0.3-0.1,0.6-0.3,0.9
	c-0.2,0.2-0.5,0.4-0.9,0.4l-17.4,0.6c-0.6,0-1.2-0.4-1.2-1.1c0,0,0,0,0-0.1c0-0.3,0.1-0.6,0.3-0.9c0.2-0.2,0.5-0.4,0.8-0.4l6.9-0.2"
	/>
<path class="st4" d="M141.4,228l4.3-0.2c0,0,0.1,0,0.1,0c0,0,0,0.1,0,0.1c-1.4,1.3-3.1,2.3-4.9,3.1c-0.3,0.1-0.5,0.4-0.6,0.7
	c0,0.1,0,0.2,0,0.2c0,0.2,0.1,0.4,0.2,0.6c0.3,0.3,0.6,0.5,1,0.6c0.2,0.1,0.3,0.1,0.5,0.1c0.2,0,0.4-0.1,0.6-0.2
	c2.3-1.1,4.3-2.7,5.9-4.6c0,0,0.1,0,0.1,0c0,0,0.1,0,0.1,0.1l0.1,2.2c0,0.4,0.2,0.7,0.4,0.9c0.3,0.2,0.6,0.4,0.9,0.4
	c0.3,0,0.7-0.2,0.9-0.4c0.2-0.3,0.4-0.6,0.4-0.9l-0.1-2.2c0,0,0,0,0.1-0.1c0,0,0.1,0,0.1,0c1.8,1.8,3.9,3.2,6.2,4.1
	c0.2,0.1,0.4,0.1,0.7,0.1c0.2,0,0.4,0,0.5-0.1c0.4-0.1,0.7-0.4,1-0.7c0.1-0.2,0.2-0.4,0.2-0.6c0-0.1,0-0.2-0.1-0.3
	c-0.1-0.3-0.3-0.6-0.6-0.6c-1.8-0.6-3.6-1.4-5.1-2.6c0,0,0-0.1,0-0.1c0,0,0,0,0.1,0l4.6-0.2c0.3,0,0.6-0.2,0.9-0.4
	c0.2-0.2,0.4-0.6,0.3-0.9c0-0.3-0.2-0.6-0.4-0.9c-0.2-0.2-0.6-0.3-0.9-0.3l-7.4,0.3c-0.1,0-0.2,0-0.2-0.1c0,0,0-0.1,0-0.1v-0.5
	c0-0.4-0.2-0.7-0.4-0.9c-0.3-0.2-0.6-0.4-0.9-0.4c-0.3,0-0.7,0.2-0.9,0.4c-0.2,0.3-0.4,0.6-0.4,0.9v0.5c0,0.1-0.1,0.2-0.2,0.2
	c0,0,0,0,0,0l-7.2,0.3c-0.3,0-0.6,0.1-0.9,0.4c-0.2,0.2-0.4,0.6-0.3,0.9c0,0.3,0.2,0.6,0.4,0.9C140.8,227.9,141.1,228,141.4,228z"/>
<path class="st4" d="M155.9,232.4l-10.9,0.4c-0.5,0-1,0.2-1.3,0.6c-0.3,0.3-0.5,0.8-0.5,1.3l0.1,4.1c0.1,2.1,2.4,1.9,2.4,1.8
	l9.5-0.3c0.3,0,2.8,0,2.7-2.1l-0.1-4c0-0.5-0.2-0.9-0.6-1.2C156.8,232.6,156.4,232.4,155.9,232.4z M155.2,238c0,0.1-0.1,0.2-0.2,0.2
	l-8.9,0.3c-0.1,0-0.2,0-0.2-0.1c0,0,0,0,0-0.1v-0.6c0-0.1,0.1-0.2,0.2-0.2c0,0,0,0,0,0l8.9-0.3c0.1,0,0.2,0,0.2,0.1c0,0,0,0,0,0.1
	L155.2,238z M155.1,235.3c0,0.1-0.1,0.2-0.2,0.2l-8.9,0.3c-0.1,0-0.2-0.1-0.2-0.2v-0.5c0-0.1,0.1-0.2,0.2-0.2c0,0,0,0,0,0l8.9-0.3
	c0.1,0,0.2,0.1,0.2,0.2L155.1,235.3z"/>
</svg>
