<svg id="圖層_1" data-name="圖層 1" xmlns="http://www.w3.org/2000/svg" viewBox="0 0 274.2 274.2"><title>logo</title><circle cx="137.1" cy="137.1" r="135.9" style="fill:#ffe300"/><path d="M137.1,274.2C61.5,274.2,0,212.7,0,137.1S61.5,0,137.1,0,274.2,61.5,274.2,137.1,212.7,274.2,137.1,274.2Zm0-271.8C62.8,2.3,2.3,62.8,2.3,137.1S62.8,271.9,137.1,271.9s134.8-60.5,134.8-134.8S211.4,2.3,137.1,2.4Z" style="fill:#1a1a1a"/><circle cx="137.1" cy="137.1" r="127.7" style="fill:#fffce7"/><path d="M137.1,266A128.9,128.9,0,1,1,266,137.1h0A129,129,0,0,1,137.1,266Zm0-255.5A126.6,126.6,0,1,0,263.7,137.2,126.62,126.62,0,0,0,137.1,10.5Z" style="fill:#1a1a1a"/><path d="M124,110.9a9.71,9.71,0,1,0-5.7,12.5,10.06,10.06,0,0,0,5.9-6.2h27.2v5.2a1,1,0,0,0,.9,1h5.1a.94.94,0,0,0,1-1v-5.2h3.2v5.2a.94.94,0,0,0,1,1h5.1a.92.92,0,0,0,.9-1V110.9" style="fill:#1a1a1a"/><circle cx="114.7" cy="114.4" r="2.5" style="fill:#1a1a1a"/><path d="M29.7,113.8H84.9q3.75,0,5.4,1.8c1,.9,1.5,2.9,1.5,5.9a8.92,8.92,0,0,1-1.3,5.3c-1.2,1.6-3,2.4-5.6,2.4H64.6l-.8,2.7H80c6.7,0,10,3.3,10,10v30.9c0,6.7-3.3,10-10,10H34.6c-6.7,0-10-3.3-10-10V141.9c0-6.7,3.3-10,10-10h12l.8-2.7H29.7q-3.45,0-5.1-1.8c-1.2-1.1-1.7-3-1.7-5.9s.6-5,1.7-6S27.3,113.8,29.7,113.8Zm12.4,36.3H72.4v-.3a2.08,2.08,0,0,0-1.8-2.4h-26a2,2,0,0,0-2.4,1.8v.9ZM70,167.3a2,2,0,0,0,2.4-1.8v-1.8H42.1v1.2a2,2,0,0,0,1.8,2.4H70Z" style="fill:#396729"/><path d="M188.3,112.7a14.38,14.38,0,0,1,7,1.6,3.3,3.3,0,0,1,2,2H208c2.4,0,3.9.5,4.7,1.4a6.89,6.89,0,0,1,1.2,3.9q1.35-3.15,2.1-5.4a5.6,5.6,0,0,1,5.5-3.2,14.38,14.38,0,0,1,7,1.6,3.3,3.3,0,0,1,2,2h11.9c2.4,0,3.9.5,4.7,1.4s1.2,2.7,1.3,5.2a9.22,9.22,0,0,1-1,4.9c-1,1.2-2.6,1.7-5,1.7h-1a5.26,5.26,0,0,1-3.1,4.8l-1.1.5h1.9c5.6,0,8.5,2.8,8.5,8.5v30.9c0,5.6-2.8,8.5-8.5,8.5H219.5c-5.6,0-8.5-2.8-8.5-8.5v-6.7a6.89,6.89,0,0,1-1.1,1.3,9.27,9.27,0,0,1-5.8,2,2,2,0,0,1-.8-.1v5.7a5.7,5.7,0,0,1-1.5,4.3c-1.3,1.5-3.4,2.3-6.4,2.3-2.7,0-4.7-.8-6-2.3a5.91,5.91,0,0,1-1.9-4.3v-1.6a2.38,2.38,0,0,1-1.1.6c-2.4-.1-4.5-1.4-6.4-3.9a9.16,9.16,0,0,1-2.1-6.2,6,6,0,0,1,1.2-3.1,76.19,76.19,0,0,0,7.6-10.1h-.2a6,6,0,0,1-4.6-1.7c-1.2-1-1.8-2.9-1.8-5.6,0-2.9.6-4.8,1.8-5.9.9-.9,2.4-1.4,4.6-1.4h1.6a4.81,4.81,0,0,1,1.8-2.4c1.2-1.3,3.1-1.9,5.6-1.9a2.2,2.2,0,0,1,.8.1l-1.8-4h-.4a13,13,0,0,1-1,1.5,5.34,5.34,0,0,1-4.8,3,14.39,14.39,0,0,1-6.7-2.2q-3.3-1.65-3.3-4.5a9.74,9.74,0,0,1,1-3.6,80.76,80.76,0,0,0,3.5-8A6,6,0,0,1,188.3,112.7Zm15.2,40.6c.2,0,.5-.1.7-.1a3.63,3.63,0,0,1,2.8,1.2,35.07,35.07,0,0,1,4.2,5.9V143.7c0-4.7,1.9-7.4,5.6-8.2a25.57,25.57,0,0,1-2.4-1.1c-2.2-1.2-3.4-2.6-3.4-4.4a2.2,2.2,0,0,1,.1-.8,5.28,5.28,0,0,1-2.5.4v.4a4.68,4.68,0,0,1-2.9,4.4,14.88,14.88,0,0,1-3.6,1.7,4.78,4.78,0,0,1,1,1.7h.3a6.74,6.74,0,0,1,4.8,1.5c1.1.8,1.7,2.7,1.7,5.8,0,2.4-.3,4.1-1,5-1.1,1.5-2.9,2.3-5.4,2.3Zm21-18h4.3a2,2,0,0,1-.4-.8c-.6-1-1-1.9-1.4-2.6a9.06,9.06,0,0,1-1.1,1.6,8.62,8.62,0,0,1-1.4,1.8Zm.9,24.5h8.2V158h-8.1Zm6.3,11.5a1.59,1.59,0,0,0,1.8-1.3v-.8h-8.1v.3a1.59,1.59,0,0,0,1.4,1.8h4.9Zm-6.3-22.7h8a1.54,1.54,0,0,0-1.5-1.5h-4.7a1.56,1.56,0,0,0-1.8,1.5Z" style="fill:#396729"/><path d="M49.1,60.9l.4-.1V58.1c.1-2.4,1.7-4,4.8-4.7s4.6.4,4.8,2.9v2.8a3.7,3.7,0,0,1,2.9.6v-.6a7.22,7.22,0,0,1,1-4.3,4.64,4.64,0,0,1,3.2-1.7c6.6-1.1,9.8-1.6,16.4-2.4a3.57,3.57,0,0,1,3.4.9c.6.7.9,2.1.9,4.3a9.15,9.15,0,0,1-.7,4,4.22,4.22,0,0,1-3.5,2.2l-1.5.1.1,25.9c0,3.9-.5,6.3-1.4,7.3-1.3,1.6-3.6,2.3-6.7,2.3a22.16,22.16,0,0,1-6.3-.7c-2-.6-3.2-2.6-3.2-5.2A10.05,10.05,0,0,1,64.9,87a3.23,3.23,0,0,1,2-1.4,29.66,29.66,0,0,1,4.2.3c.5,0,.7-.4.7-1.2l-.1-21.4c-2.1.2-3.2.4-5.2.6a3.7,3.7,0,0,1-3.2-.7v.7a6.65,6.65,0,0,1-.7,3.7,4.29,4.29,0,0,1-3.2,2v1.8h.1a3.22,3.22,0,0,1,2.9,1.3,5.72,5.72,0,0,1,.9,3.6,7.35,7.35,0,0,1-.9,3.8,4.24,4.24,0,0,1-2.7,1.8l-.3.1v7.9c0,5.3-2.5,8.2-7.2,8.1a10.23,10.23,0,0,1-5.4-1.5,4.41,4.41,0,0,1-1.6-3.7,8.51,8.51,0,0,1,.9-4.4c.4-.6,1.5-1,3.1-1.1.4,0,.5-.3.5-.9V85h-.1c-1.8.1-3.1-.2-3.8-1a5.57,5.57,0,0,1-1.1-3.7,6,6,0,0,1,1.2-4.1A4.59,4.59,0,0,1,49,74.7l.7-.2V70.8l-.5.1a4,4,0,0,1-3-.7Q45,69.3,45,66.6a6.29,6.29,0,0,1,1.2-4.2A5.09,5.09,0,0,1,49.1,60.9Z" style="fill:#396729"/><path d="M106.7,46.1c2.9-.2,4.3,1.4,4.3,4.7V62.6c0,4-1.3,6.1-4.1,6.2s-4.3.2-7.2.3l.1,25.3c-.2,2.2-1.7,3.4-4.2,3.4s-4.1-1.2-4.2-3.4l-.2-41.7c0-3.6,1.3-5.5,3.9-5.8C99.7,46.6,102,46.4,106.7,46.1Zm-7,9.2,3.2-.2V54l-3.2.2Zm0,6.3,3.2-.2V60.3l-3.2.2Zm3.9,8.4c6.5-.3,9.8-.4,16.3-.5a2.46,2.46,0,0,1,2.1.8,4.92,4.92,0,0,1,.6,2.9,5.75,5.75,0,0,1-.5,2.6,2.48,2.48,0,0,1-2.2,1.3h-.4v1.4h.6a2.7,2.7,0,0,1,2.3.9,6.1,6.1,0,0,1,.6,3.3,5.21,5.21,0,0,1-.5,2.8,2.43,2.43,0,0,1-2.4,1.3h-.6v5.3a5.16,5.16,0,0,1-.9,3.4,3.17,3.17,0,0,1-2.7,1.1,3.48,3.48,0,0,1-2.7-1.1,5.16,5.16,0,0,1-.9-3.4V86.8h-1.8a18,18,0,0,1-.6,3.2,13.74,13.74,0,0,1-2,5.2,2.89,2.89,0,0,1-2.7,1.3,5.67,5.67,0,0,1-3.6-1.8,3.51,3.51,0,0,1-1.2-2.5,4.38,4.38,0,0,1,.7-1.9,19.64,19.64,0,0,0,1.6-3.6,2.19,2.19,0,0,1-1.4-.8,4.77,4.77,0,0,1-.7-3.1,5.51,5.51,0,0,1,.7-3.3,2.84,2.84,0,0,1,2.2-1h.4V77.2h-.3a2.27,2.27,0,0,1-2-.8,4.52,4.52,0,0,1-.7-2.8,4.35,4.35,0,0,1,.7-2.9A4,4,0,0,1,103.6,70Zm8.7,8.4V77.1H111v1.3Zm14.6-33.2c3.5-.1,5.3,1.7,5.3,5.3V89.9c0,5.2-2,7.8-6.1,7.8a7.06,7.06,0,0,1-4.2-1.4,6,6,0,0,1-1.9-4.4,9.12,9.12,0,0,1,1-4.6,2.26,2.26,0,0,1,1.7-1.1,1.42,1.42,0,0,1,.6.2c.2.1.5-.4.5-1.1V68.4c-3.1,0-4.7.1-7.8.2-2.4.1-3.7-1.5-3.7-4.7V50.8c0-3.4,1.4-5.2,4.3-5.3C120.7,45.3,122.8,45.3,126.9,45.2Zm-6.5,9,3.3-.1V53l-3.3.1Zm3.3,6.4V59.5l-3.3.1v1.1Z" style="fill:#396729"/><path d="M148.4,88.3l-.3,4.7c-.6,3.1-2,4.8-4.2,4.7a7.68,7.68,0,0,1-5-1.8c-1-.8-1.5-2.3-1.5-4.3a21,21,0,0,1,.3-5,1.19,1.19,0,0,1,1.2-1c.3,0,.5-.3.5-1V81.3a3.77,3.77,0,0,1-1.6-1.2,8.6,8.6,0,0,1-1.1-4.7,7.42,7.42,0,0,1,1.3-5,2.59,2.59,0,0,1,1.4-1.1V64.5a4.51,4.51,0,0,1-1.4-1c-.8-.9-1.2-2.4-1.2-4.7s.4-4,1.2-4.9a1.94,1.94,0,0,1,1.4-.9V49.5c.1-2.7,1.6-4.1,4.5-4.1s4.4,1.5,4.5,4.3v3.6c.1.1.2.2.3.2.3-5,1.7-7.5,4.1-7.4,7.4.3,14.8.8,22.1,1.6,2.7.3,4.1,3.4,4.1,9.4v1.1a3,3,0,0,1-.9,2.4,4,4,0,0,1-2.6.7,4.45,4.45,0,0,1-2.9-1,3,3,0,0,1-.6-2v.3a1.54,1.54,0,0,0-.6-1.4v3c0,1,.4,1.5,1.2,1.6l2.5.2c2,.1,2.9,1.7,2.9,4.6s-1.3,5.5-3.3,5.4m-21.6-1h.4a7,7,0,0,1-1.9-1.5,4.47,4.47,0,0,1-1.2-3.1,3.08,3.08,0,0,1,.6-1.9,18,18,0,0,0,4.9-5.4,13.09,13.09,0,0,0,.9-2.8h-.1c-.6,0-1,.5-1,1.4v-.3a2.93,2.93,0,0,1-.7,2.2,4.61,4.61,0,0,1-2.8.6,5.08,5.08,0,0,1-1.7-.3,7,7,0,0,1-.5,3.2c-.4.7.6,1.1,0,1.4,0,1.5-1.5,2.2-1.5,3.6a4.21,4.21,0,0,1,1.9,1.6,6.36,6.36,0,0,1,.6,1.8m21-4.9,3,.9,1.2,4.1-2.5.9-1.8,1.7,7.2.7v1.3a2.11,2.11,0,0,1-2.1,2.1H148.7c-.4.3.2,1.1-.3,1.3v8.7" style="fill:#396729"/><path d="M221.2,85.3a3.26,3.26,0,0,1,.4,1.4,4.19,4.19,0,0,1-.4,1.6c.9,1.2,1.9,2.3,2.9,3.4a4.27,4.27,0,0,1,1.1,2.1,4,4,0,0,1-1.7,3,5.84,5.84,0,0,1-3.4,1.2,2.09,2.09,0,0,1-1.6-.8,11.51,11.51,0,0,1-1.4-1.7,3,3,0,0,1-.8.8,4.79,4.79,0,0,1-3,1.7,4.86,4.86,0,0,1-3.3-1.7,5.43,5.43,0,0,1-3.4,1.2,2.37,2.37,0,0,1-1.5-.9,17.41,17.41,0,0,1-1.2-1.4c-.2.3-.5.6-.7.9a4.5,4.5,0,0,1-3,1.8,4.66,4.66,0,0,1-3.3-1.7,3.73,3.73,0,0,1-1.2-3.1,1.09,1.09,0,0,1,.4-.9,31.1,31.1,0,0,0,2.5-3.8,23.54,23.54,0,0,0,1.7-4.4,2.59,2.59,0,0,1-1.1-.7,11.29,11.29,0,0,1-1.5,5.7,5.55,5.55,0,0,1-5,2.5,7.61,7.61,0,0,1-2.1-.3v4c-.1,1.8-1.5,2.8-3.7,2.8s-3.6-1.1-3.7-2.9c.1-14,.1-28,.2-41.9,0-3.2,1.1-4.7,3.1-4.4,3.3.4,4.9.6,8.1,1.1q4.2.6,4.2,6a19.27,19.27,0,0,1-.1,2.4m8.7,26.2a3.45,3.45,0,0,1,.5,1.8,4.25,4.25,0,0,1-.2,1.1,45.75,45.75,0,0,0,2.9,3.6,17.68,17.68,0,0,0,1.6-2.2,16.52,16.52,0,0,0,1.8-4.1M197.7,64.5c-.4,1.9-1,4-1.6,6.2a25.26,25.26,0,0,1,1.9,4.8m-7.3-8.3a37.18,37.18,0,0,0,.8-6.7c0-.6,0-.9-.2-.9l-.5-.1c-.1,3.1-.1,4.6-.1,7.7Zm-.1,13.6a1.45,1.45,0,0,0,1-.7,7.72,7.72,0,0,0,.2-1.5,18.56,18.56,0,0,0-1.1-5.2c-.1,2.9-.1,4.4-.1,7.4Z" style="fill:#396729"/><path d="M168.2,88.5h0a5.06,5.06,0,0,0,5-4.9,4.72,4.72,0,0,0-1-3c-.7-.9-1.1-1.5-1.1-1.5l-2.2-7-5-15.6s-3.1,12.2-10.2,14.8c-.8.3,5.2.3,5.2.3L156,79.1s-3.9,5.9-8.4,9.3h11.3v5a4.45,4.45,0,0,0,4.1,4.7h.7a4.38,4.38,0,0,0,4.5-4.3V88.5Z" style="fill:#396729"/><circle cx="153.4" cy="93.9" r="3.4" style="fill:#396729"/><circle cx="173.7" cy="93.9" r="3.4" style="fill:#396729"/><path d="M194.5,74.5c0-.6,6.1-22.1,6.1-22.1s.9-3.3,5-2.7a4.38,4.38,0,0,1,4.2,3.3l.7,23.1Z" style="fill:#396729"/><ellipse cx="202.4" cy="77.01" rx="8" ry="8.2" transform="translate(111.49 273.56) rotate(-86.01)" style="fill:#396729"/><ellipse cx="202.4" cy="77.01" rx="4.1" ry="4.2" transform="translate(111.49 273.56) rotate(-86.01)" style="fill:#396729"/><path d="M228.2,76.6c0-.6-4.1-22.5-4.1-22.5s-.6-3.3-4.8-3.2a4.45,4.45,0,0,0-4.5,2.9l-2.7,22.9Z" style="fill:#396729"/><ellipse cx="220.19" cy="78.39" rx="8" ry="8.2" transform="translate(129.82 293.94) rotate(-86.85)" style="fill:#396729"/><ellipse cx="220.19" cy="78.39" rx="4.1" ry="4.2" transform="translate(129.82 293.94) rotate(-86.85)" style="fill:#396729"/><path d="M207,62.8l.1-4.2a12.41,12.41,0,0,1,9.8.8l-.6,4.4A13,13,0,0,0,207,62.8Z" style="fill:#396729"/><path d="M207.1,60.5a12.82,12.82,0,0,1,9.4,1" style="fill:#396729"/><polygon points="148.7 69.6 149.7 68.1 158.2 68.4 153.6 71.4 149.4 73.5 148.7 69.6" style="fill:#396729"/><path d="M29.7,105.6H84.9q3.75,0,5.4,1.8c1,.9,1.5,2.9,1.5,5.9a8.92,8.92,0,0,1-1.3,5.3c-1.2,1.6-3,2.4-5.6,2.4H64.6l-.8,2.7H80c6.7,0,10,3.3,10,10v30.9c0,6.7-3.3,10-10,10H34.6c-6.7,0-10-3.3-10-10V133.7c0-6.7,3.3-10,10-10h12l.8-2.7H29.7q-3.45,0-5.1-1.8c-1.2-1.1-1.7-3-1.7-5.9s.6-5,1.7-6A7.23,7.23,0,0,1,29.7,105.6Zm12.4,36.3H72.4v-.3a2.08,2.08,0,0,0-1.8-2.4h-26a2,2,0,0,0-2.4,1.8v.9ZM70,159.1a2,2,0,0,0,2.4-1.8v-1.8H42.1v1.2a2,2,0,0,0,1.8,2.4H70Z" style="fill:#fff"/><path d="M188.3,104.5a14.38,14.38,0,0,1,7,1.6,3.9,3.9,0,0,1,2,2H208c2.4,0,3.9.5,4.7,1.4a6.89,6.89,0,0,1,1.2,3.9q1.35-3.15,2.1-5.4a5.6,5.6,0,0,1,5.5-3.2,14.38,14.38,0,0,1,7,1.6,3.3,3.3,0,0,1,2,2h11.9c2.4,0,3.9.5,4.7,1.4s1.2,2.7,1.3,5.2a9.22,9.22,0,0,1-1,4.9c-1,1.2-2.6,1.7-5,1.7h-1a5.26,5.26,0,0,1-3.1,4.8l-1.1.5h1.9c5.6,0,8.5,2.8,8.5,8.5v30.9c0,5.6-2.8,8.5-8.5,8.5H219.5c-5.6,0-8.5-2.8-8.5-8.5v-6.7a5.26,5.26,0,0,1-1.2,1.4,9.27,9.27,0,0,1-5.8,2,2,2,0,0,1-.8-.1v5.7a6.13,6.13,0,0,1-1.5,4.3c-1.2,1.4-3.3,2.2-6.3,2.2-2.7,0-4.7-.8-6-2.3a5.91,5.91,0,0,1-1.9-4.3v-1.6a2.38,2.38,0,0,1-1.1.6c-2.4-.1-4.5-1.4-6.4-3.9a9.16,9.16,0,0,1-2.1-6.2,6,6,0,0,1,1.2-3.1,76.19,76.19,0,0,0,7.6-10.1h-.2a6,6,0,0,1-4.6-1.7c-1.2-1-1.8-2.9-1.8-5.6,0-2.9.6-4.8,1.8-5.9.9-.9,2.4-1.4,4.6-1.4h1.6a4.81,4.81,0,0,1,1.8-2.4c1.2-1.3,3.1-1.9,5.6-1.9a2.2,2.2,0,0,1,.8.1l-1.8-4h-.4a13,13,0,0,1-1,1.5,5.34,5.34,0,0,1-4.8,3,14.39,14.39,0,0,1-6.7-2.2q-3.3-1.65-3.3-4.5a9.74,9.74,0,0,1,1-3.6,80.76,80.76,0,0,0,3.5-8A5.85,5.85,0,0,1,188.3,104.5Zm15.2,40.6c.2,0,.5-.1.7-.1a3.63,3.63,0,0,1,2.8,1.2,35.07,35.07,0,0,1,4.2,5.9V135.5c0-4.7,1.9-7.4,5.6-8.2a17.55,17.55,0,0,1-2.4-1.1c-2.2-1.2-3.3-2.6-3.3-4.5a2.2,2.2,0,0,1,.1-.8,5.28,5.28,0,0,1-2.5.4v.4a4.68,4.68,0,0,1-2.9,4.4,14.88,14.88,0,0,1-3.6,1.7,4.78,4.78,0,0,1,1,1.7h.3a6.74,6.74,0,0,1,4.8,1.5c1.1.8,1.7,2.7,1.7,5.8,0,2.4-.3,4.1-1,5-1.1,1.5-2.9,2.3-5.4,2.3Zm21-18h4.3a2,2,0,0,1-.4-.8c-.6-1-1-1.9-1.4-2.6a9.06,9.06,0,0,1-1.1,1.6,8.62,8.62,0,0,1-1.4,1.8Zm.9,24.5h8.2v-1.8h-8.1Zm6.3,11.5a1.59,1.59,0,0,0,1.8-1.3V161h-8.1v.3a1.59,1.59,0,0,0,1.4,1.8h4.9Zm-6.3-22.7h8a1.54,1.54,0,0,0-1.5-1.5h-4.7a1.56,1.56,0,0,0-1.8,1.5Z" style="fill:#fff"/><path d="M124,107.8a9.7,9.7,0,1,0,.2,6.3h28v6.2h5.4v-6.2h4.8v6.2h5.4V107.8Z" style="fill:#fff"/><path d="M122.7,110.3a7.66,7.66,0,0,0-7.1-6.3c-5.2-.4-8.2,3.8-8.2,8.5s3.8,8.4,9,8.4c4.3,0,6.6-3.4,7.8-6.9h28l.4,6.3h5.2v-5.8h4.7v5.8h5.2V110.1Z" style="fill:#f3d047"/><circle cx="114.7" cy="111.2" r="2.5" style="fill:#1a1a1a"/><path d="M135.5,134.4c2.7,0,4.7.5,5.8,1.5l.6.6h20.5c5.7,0,8.6,2.6,8.6,7.9v.8c0,2.1-.7,3.6-2,4.4a5.24,5.24,0,0,1-1.8,1,4.8,4.8,0,0,1-.5,1.7,3.11,3.11,0,0,1-2.6.9h-8.2v1.6h10.5a3.53,3.53,0,0,1,2.6.8,4.11,4.11,0,0,1,.7,2.8,4.23,4.23,0,0,1-.6,2.5,2.36,2.36,0,0,1-.9.8,4.15,4.15,0,0,1,.3,1.6v2.8c0,3.7-2.3,5.5-6.8,5.5H138c-2.7,0-4.5-.6-5.4-1.9a3.63,3.63,0,0,1-2.6,1.1l-24.9.9a3.47,3.47,0,0,1-2.6-1.1,4.9,4.9,0,0,1,.1-5.8,2.52,2.52,0,0,1,2-.9l6.3-.2v-1.6h-4.2a2.78,2.78,0,0,1-2.1-.8,3.4,3.4,0,0,1-.8-2.6,3.63,3.63,0,0,1,.8-2.7,2.74,2.74,0,0,1,2.1-.6h4.2v-1.2h-4.5a3.84,3.84,0,0,1-2.5-.9,3.69,3.69,0,0,1-1-3V150a5.39,5.39,0,0,1-1.3-.7,5.51,5.51,0,0,1-1.9-4.5v-.4c0-5.3,2.9-7.9,8.6-7.9h20.8a4.35,4.35,0,0,1,.7-.6Q131.45,134.4,135.5,134.4Zm-23.6,38.5h47.2c4.8,0,7.3,2.4,7.3,7.3v11.5c0,3.1-1,5.2-2.9,6.2,1.6.3,3.3.5,5.1.8,1.8,0,2.6.7,2.6,2a8.69,8.69,0,0,1-1.1,4.1,6.87,6.87,0,0,1-6.1,3.3,53.53,53.53,0,0,1-7-.8c-5-1.2-9.6-2.4-13.7-3.8-2.2-.8-3.2-1.7-3.2-2.8a3.37,3.37,0,0,1,.5-1.7H130.2a3.55,3.55,0,0,1,.2,1c0,.6-.7,1.3-2.2,2a90,90,0,0,1-12.4,4.1,43.63,43.63,0,0,1-8.8,1.4,6.35,6.35,0,0,1-5.1-2.5,5.22,5.22,0,0,1-1.7-3.9,3.85,3.85,0,0,1,1.7-2.9c1.6-.2,3.3-.5,4.9-.8a7.22,7.22,0,0,1-2-5.6V180.3C104.7,175.3,107.1,172.9,111.9,172.9Zm19.7-22.6a36,36,0,0,0,2.6-5.2H116.4c-1.3,0-2,.4-2,1.3V146a1.27,1.27,0,0,1-.1.6H128a3.4,3.4,0,0,1,2.6.8C131.3,147.8,131.6,148.8,131.6,150.3Zm.1,13.3a2.52,2.52,0,0,1,.9-2l-.1-.1a3.58,3.58,0,0,1-.8-2.8c0-1.5.3-2.4.8-2.8l.1-.1a2.91,2.91,0,0,1-1.7-2.3,3.32,3.32,0,0,1-2.7.9h-3.6v1.2h3.5a2.93,2.93,0,0,1,2.2.7,3.34,3.34,0,0,1,.8,2.6,4.49,4.49,0,0,1-.4,2.3,2.71,2.71,0,0,1-2.5,1.1h-3.6v1.1l5.4-.2a2.83,2.83,0,0,1,1.7.4Zm13-8.6v-1.7h-2.5A6.57,6.57,0,0,1,141,155Zm-2.6,7.3a3.92,3.92,0,0,1,.4,1.8c0,.5.4.8,1.1.8h1.2v-2.6Zm2.6-15.9h11.5c0-.9-.8-1.4-2.3-1.4h-9.1c0,.2.1.5.1.8s-.1.4-.2.6Zm11.2,18.4c1.1,0,1.7-.2,1.7-.7v-.7a5,5,0,0,1,.2-1.2h-1.9Z" style="fill:#396729"/><path d="M135.5,126.3c2.7,0,4.7.5,5.8,1.5l.6.6h20.5c5.7,0,8.6,2.6,8.6,7.9v.8c0,2.1-.7,3.6-2,4.4a5.24,5.24,0,0,1-1.8,1,4.8,4.8,0,0,1-.5,1.7,3.11,3.11,0,0,1-2.6.9h-8.2v1.7h10.5a3.53,3.53,0,0,1,2.6.8,4.11,4.11,0,0,1,.7,2.8,4.23,4.23,0,0,1-.6,2.5,2.36,2.36,0,0,1-.9.8,4.15,4.15,0,0,1,.3,1.6v2.8c0,3.7-2.3,5.5-6.8,5.5H138c-2.7,0-4.5-.6-5.4-1.9a3.63,3.63,0,0,1-2.6,1.1l-24.9.9a3.47,3.47,0,0,1-2.6-1.1,4.9,4.9,0,0,1,.1-5.8,2.52,2.52,0,0,1,2-.9l6.3-.2v-1.6h-4.2a2.78,2.78,0,0,1-2.1-.8,3.4,3.4,0,0,1-.8-2.6,3.63,3.63,0,0,1,.8-2.7,2.74,2.74,0,0,1,2.1-.6h4.2v-1.2h-4.5a3.84,3.84,0,0,1-2.5-.9,3.69,3.69,0,0,1-1-3v-.4a5.39,5.39,0,0,1-1.3-.7,5.51,5.51,0,0,1-1.9-4.5v-.4c0-5.3,2.9-7.9,8.6-7.9h20.8a4.35,4.35,0,0,1,.7-.6Q131.45,126.3,135.5,126.3Zm-23.6,38.4h47.2c4.8,0,7.3,2.4,7.3,7.3v11.5c0,3.1-1,5.2-2.9,6.2,1.6.2,3.3.5,5.1.8,1.8,0,2.6.7,2.6,2a8.69,8.69,0,0,1-1.1,4.1,6.87,6.87,0,0,1-6.1,3.3,53.53,53.53,0,0,1-7-.8c-5-1.2-9.6-2.4-13.7-3.8-2.2-.8-3.2-1.7-3.2-2.8a3.37,3.37,0,0,1,.5-1.7H130.2a3.55,3.55,0,0,1,.2,1c0,.6-.7,1.3-2.2,2a90,90,0,0,1-12.4,4.1,43.63,43.63,0,0,1-8.8,1.4,6.35,6.35,0,0,1-5.1-2.5,5.22,5.22,0,0,1-1.7-3.9,3.85,3.85,0,0,1,1.7-2.9c1.6-.2,3.3-.5,4.9-.8a7.22,7.22,0,0,1-2-5.6V172.1C104.7,167.1,107.1,164.7,111.9,164.7Zm19.7-22.6a36,36,0,0,0,2.6-5.2H116.4c-1.3,0-2,.4-2,1.3v-.4a1.27,1.27,0,0,1-.1.6H128a3.4,3.4,0,0,1,2.6.8c.7.4,1,1.4,1,2.9Zm.1,13.3a2.52,2.52,0,0,1,.9-2l-.1-.1a3.58,3.58,0,0,1-.8-2.8c0-1.5.3-2.4.8-2.8l.1-.1a2.91,2.91,0,0,1-1.7-2.3,3.32,3.32,0,0,1-2.7.9h-3.6v1.2h3.5a2.93,2.93,0,0,1,2.2.7,3.34,3.34,0,0,1,.8,2.6,4.49,4.49,0,0,1-.4,2.3,2.71,2.71,0,0,1-2.5,1.1h-3.6v1.1l5.4-.2a3.81,3.81,0,0,1,1.7.4Zm13-8.6v-1.7h-2.5a6.57,6.57,0,0,1-1.2,1.7Zm-2.6,7.3c.2.6.8.1.8.7s.4.8,1.1.8l.8,1.1v-2.6Zm2.6-15.9h11.5c0-.9-.8-1.4-2.3-1.4h-9.1c0,.2.1.5.1.8s-.1.4-.2.6Zm11.2,18.5c1.1,0,1.7-.2,1.7-.7v-.7a5,5,0,0,1,.2-1.2h-1.9Z" style="fill:#fff"/><path d="M246.1,222.3,223.5,218l7.2-21.3s-36.9,17-94.3,18.4c-57.4-1.5-94.3-18.5-94.3-18.5l7.2,21.3-22.7,4.4c15.7,18.6,61.9,30.4,109,30.4S230.5,240.9,246.1,222.3Z" style="fill:#7ebc25"/><path d="M135.7,253.9c-49.4,0-94.6-12.7-109.9-30.8a1.06,1.06,0,0,1-.2-1.2,1.42,1.42,0,0,1,.9-.8L47.8,217,41,197.1a1.21,1.21,0,0,1,.3-1.3,1.26,1.26,0,0,1,1.3-.2c.4.2,37.4,16.9,93.8,18.3,56.4-1.4,93.4-18.2,93.8-18.3a1.23,1.23,0,0,1,1.3.2,1.06,1.06,0,0,1,.3,1.3L225,217l21.3,4.1a1.22,1.22,0,0,1,.9.8,1.28,1.28,0,0,1-.2,1.2C231.8,241.3,186,253.9,135.7,253.9ZM29.1,223.1c16.1,16.8,59.3,28.4,106.6,28.4s92.1-11.9,108.1-28.4l-20.5-3.9c-.3-.1-.7-.3-.8-.6a1.18,1.18,0,0,1-.1-1l6.4-18.7c-9.3,3.8-43.7,16.2-92.2,17.5-48.6-1.2-83-13.7-92.3-17.5l6.4,18.7a1.18,1.18,0,0,1-.1,1,1.56,1.56,0,0,1-.8.6Z" style="fill:#386632"/><path d="M209.7,61.3c0,.5.7,8.7.7,8.7l-.3,7-1.5,3.3.9,4.3.9,1.8,4.2-5.3s-2.7-5.4-2.6-6.2,1.4-7,1.4-7l.1-6.6-2.2-.8Z" style="fill:#396729"/><path d="M114.9,121.9a10.65,10.65,0,0,1-.1-21.3,10.8,10.8,0,0,1,9.8,6.3h43.1a.9.9,0,0,1,.9.9v12.5a.9.9,0,0,1-.9.9h-5.4a.9.9,0,0,1-.9-.9h0V115h-3v5.3a.9.9,0,0,1-.9.9h-5.4a.9.9,0,0,1-.9-.9h0V115H124.9A10.7,10.7,0,0,1,114.9,121.9Zm0-19.5a8.8,8.8,0,1,0,8.4,11.4,1,1,0,0,1,.9-.7h28a.9.9,0,0,1,.9.9h0v5.3h3.5V114a.9.9,0,0,1,.9-.9h4.8a.9.9,0,0,1,.9.9h0v5.3h3.5V108.7H124a1,1,0,0,1-.9-.6A8.87,8.87,0,0,0,114.9,102.4Z" style="fill:#1a1a1a"/><path d="M174.8,68.1a2.61,2.61,0,0,0,2.2-1.3h-3.4Z" style="fill:#fff"/><path d="M172,54.7v-.3a3,3,0,0,0,.6,2,4.27,4.27,0,0,0,2.9,1,4.1,4.1,0,0,0,2.6-.7,2.72,2.72,0,0,0,.9-2.4V53.2c0-6-1.3-9.1-4.1-9.4-7.3-.7-14.7-1.3-22.1-1.6-2.4-.1-3.8,2.4-4.1,7.4-.1-.1-.2-.2-.3-.2V45.8c-.1-2.8-1.7-4.2-4.5-4.3s-4.5,1.4-4.5,4.1V49a2.43,2.43,0,0,0-1.4.9c-.8.9-1.2,2.5-1.2,4.9,0,2.2.4,3.8,1.2,4.7a3.59,3.59,0,0,0,1.4,1v4.8a2.59,2.59,0,0,0-1.4,1.1,2.09,2.09,0,0,0-.4.6l13.1-.1c-.1-.4-.3-.8-.4-1.2a3.75,3.75,0,0,0-1.9-1.6V60.5a3.44,3.44,0,0,0,1.6-1.3,7,7,0,0,0,.6-3.2,4.67,4.67,0,0,0,1.7.3,4.61,4.61,0,0,0,2.8-.6,2.58,2.58,0,0,0,.7-2.2v.3c0-1,.3-1.5,1-1.4h.1a9.38,9.38,0,0,1-1,2.8,19.4,19.4,0,0,1-4.9,5.4,2.56,2.56,0,0,0-.6,1.9,5.22,5.22,0,0,0,1.2,3.1,4.89,4.89,0,0,0,1.8,1.4h1.4l.4-.1,3.1-2.1,2.4-4,3-4.5,9.7,10.5h3.4a8.39,8.39,0,0,0,1.1-4.1c0-2.9-1-4.5-2.9-4.6l-2.5-.2c-.8-.1-1.2-.6-1.2-1.6v-3A1.34,1.34,0,0,1,172,54.7Z" style="fill:#eaefb5"/><path d="M153.6,67h-.4l-2.2.6c0-.2-.1-.4-.1-.6H137.8a8.51,8.51,0,0,0-.9,4.4,8.4,8.4,0,0,0,1.1,4.7,3.44,3.44,0,0,0,1.6,1.3v3.3c0,.6-.2,1-.5,1a1.19,1.19,0,0,0-1.2,1,21,21,0,0,0-.3,5,5.47,5.47,0,0,0,1.5,4.3,8.26,8.26,0,0,0,5,1.8c2.2.1,3.6-1.6,4.2-4.7l.3-4.7V74.9s2.9-.8,1.8-6.8l3.1-.8L155,67Z" style="fill:#cddc4c"/><path d="M91.5,90.7c.2,2.2,1.7,3.4,4.2,3.4s4.1-1.3,4.2-3.4l-.1-23-8.5.6C91.4,75.7,91.4,83.2,91.5,90.7Z" style="fill:#cddc4c"/><path d="M111.2,46.7c0-3.3-1.5-4.9-4.4-4.7-4.6.3-7,.5-11.6,1-2.7.3-4,2.2-4,5.8,0,6.5,0,13,.1,19.4l8.5-.6V65.2c2.9-.2,4.4-.2,7.3-.3s4.1-2.2,4.1-6.2Z" style="fill:#eaefb5"/><path d="M99.8,51.2,103,51V49.8l-3.3.2Z" style="fill:#fff"/><path d="M99.8,52a1.42,1.42,0,0,1-.6-.2.86.86,0,0,1-.3-.6V50.1a.79.79,0,0,1,.8-.8L103,49a1,1,0,0,1,.9.7V51a.79.79,0,0,1-.8.8c-1.3.1-2,.2-3.3.2Z" style="fill:#1a1a1a"/><path d="M99.8,57.6l3.2-.2V56.3l-3.2.2Z" style="fill:#fff"/><path d="M99.8,58.4a.79.79,0,0,1-.8-.8h0V56.5a.79.79,0,0,1,.8-.8l3.3-.2a1.42,1.42,0,0,1,.6.2c.2.2.3.4.2.6v1.1a.79.79,0,0,1-.8.8c-1.3.1-2,.1-3.3.2Z" style="fill:#1a1a1a"/><path d="M103.7,66c6.6-.3,9.8-.4,16.4-.5a2.35,2.35,0,0,1,2.1.8,4.92,4.92,0,0,1,.6,2.9,4.68,4.68,0,0,1-.5,2.6,2.23,2.23,0,0,1-2.2,1.2h-.4v1.4h.6a2.7,2.7,0,0,1,2.3.9,5.44,5.44,0,0,1,.6,3.3,5.21,5.21,0,0,1-.5,2.8,2.43,2.43,0,0,1-2.4,1.3h-.6V88a5.16,5.16,0,0,1-.9,3.4,3.57,3.57,0,0,1-2.7,1.2,3.48,3.48,0,0,1-2.7-1.1,5.16,5.16,0,0,1-.9-3.4V82.8h-1.8c-.2,1-.3,2.1-.6,3.2a13.13,13.13,0,0,1-2,5.2,3.19,3.19,0,0,1-2.7,1.4,5.67,5.67,0,0,1-3.6-1.8,3.55,3.55,0,0,1-1.2-2.6,4.38,4.38,0,0,1,.7-1.9,28.33,28.33,0,0,0,1.6-3.6,2.19,2.19,0,0,1-1.4-.8,4.77,4.77,0,0,1-.7-3.1,5.51,5.51,0,0,1,.7-3.3,2.9,2.9,0,0,1,2.3-1h.3V73.2h-.3a2.17,2.17,0,0,1-2-.8,4.52,4.52,0,0,1-.7-2.8,4.35,4.35,0,0,1,.7-2.9A2.74,2.74,0,0,1,103.7,66Z" style="fill:#cddc4c"/><path d="M112.4,74.5V73.1H111v1.3Z" style="fill:#fff"/><path d="M111.1,75.3a.86.86,0,0,1-.8-.8V73.2a.79.79,0,0,1,.8-.8h1.3a1.42,1.42,0,0,1,.6.2c.2.2.3.4.2.6v1.3a.79.79,0,0,1-.8.8h-1.3Z" style="fill:#1a1a1a"/><path d="M132.4,46.3c0-3.6-1.8-5.4-5.3-5.3-4.2.1-6.2.2-10.4.3-2.9.1-4.3,1.9-4.3,5.3V59.8c0,3.2,1.2,4.8,3.7,4.7,3.1-.1,4.7-.1,7.8-.2v2.4l8.5.2Z" style="fill:#eaefb5"/><path d="M123.9,66.8V81.3c0,.7-.3,1.2-.5,1.1s-.4-.1-.6-.2a2.45,2.45,0,0,0-1.7,1.1,8.18,8.18,0,0,0-1,4.6,5.62,5.62,0,0,0,1.9,4.4,6,6,0,0,0,4.2,1.4c4.1,0,6.1-2.6,6.1-7.9V66.9Z" style="fill:#cddc4c"/><path d="M120.6,50.1l3.3-.1V48.9l-3.3.1Z" style="fill:#fff"/><path d="M120.6,50.9a.79.79,0,0,1-.8-.8h0V49a.86.86,0,0,1,.8-.8l3.3-.1a1.42,1.42,0,0,1,.6.2c.2.2.3.4.2.6V50a.86.86,0,0,1-.8.8l-3.3.1Z" style="fill:#1a1a1a"/><path d="M123.9,56.6V55.5c-1.3,0-2,0-3.3.1v1.1Z" style="fill:#fff"/><path d="M120.6,57.5a.79.79,0,0,1-.8-.8h0V55.6a.79.79,0,0,1,.8-.8l3.3-.1a1.42,1.42,0,0,1,.6.2.73.73,0,0,1,.2.6v1.1a.86.86,0,0,1-.8.8l-3.3.1Z" style="fill:#1a1a1a"/><path d="M168.2,84.6h11.3c-4.5-3.4-8.4-9.3-8.4-9.3h7.6c-3.9-1.7-9.8-7-9.8-7l7.7-.3c-7.3-1.1-12.6-15.4-12.7-15.3S160,63.9,153.6,67a6,6,0,0,1-2.5,1l7.8-.2a68.93,68.93,0,0,1-9.6,7.5H156s-3,5.9-7.5,9.3h10.4v5a4.39,4.39,0,0,0,4.1,4.7h.7a4.38,4.38,0,0,0,4.5-4.3V84.6Z" style="fill:#fff"/><circle cx="153.4" cy="90" r="3.4" style="fill:#cddc4c"/><circle cx="173.7" cy="90" r="3.4" style="fill:#cddc4c"/><path d="M198.7,54.2a20.08,20.08,0,0,0,.1-2.4q0-5.4-4.2-6c-3.2-.5-4.9-.7-8.1-1.1-2.1-.3-3.1,1.2-3.1,4.4,0,6,0,12-.1,18l15.6.3Z" style="fill:#eaefb5"/><path d="M183.3,67.1c0,8-.1,16-.1,23.9.1,1.8,1.4,2.9,3.7,2.9s3.6-1,3.7-2.8v-4a7.61,7.61,0,0,0,2.1.3,5.55,5.55,0,0,0,5-2.5,11.29,11.29,0,0,0,1.5-5.7L199,67.4Z" style="fill:#cddc4c"/><path d="M201.8,79.7l3,.1,3.3-.1v3.9l2.3,2.4,4.8-5.9,6.7,1.1a3.26,3.26,0,0,1,.4,1.4,4.19,4.19,0,0,1-.4,1.6,32.37,32.37,0,0,0,2.9,3.4,4.27,4.27,0,0,1,1.1,2.1,4,4,0,0,1-1.7,3,5.15,5.15,0,0,1-3.4,1.1,2.09,2.09,0,0,1-1.6-.8,11.51,11.51,0,0,1-1.4-1.7,3,3,0,0,1-.8.8,4.79,4.79,0,0,1-3,1.7,5.08,5.08,0,0,1-3.4-1.7,5.43,5.43,0,0,1-3.4,1.2,2.37,2.37,0,0,1-1.5-.9,17.41,17.41,0,0,1-1.2-1.4,5.5,5.5,0,0,1-.7.9,4.5,4.5,0,0,1-3,1.8,4.66,4.66,0,0,1-3.3-1.7,3.73,3.73,0,0,1-1.2-3.1,1.09,1.09,0,0,1,.4-.9,31.1,31.1,0,0,0,2.5-3.8,33.36,33.36,0,0,0,1.7-4.4" style="fill:#cddc4c"/><path d="M197.7,60.5c-.4,1.9-1,4-1.6,6.2a25.26,25.26,0,0,1,1.9,4.8" style="fill:#fff"/><path d="M190.7,63.2a37.18,37.18,0,0,0,.8-6.7c0-.6,0-.9-.2-.9l-.5-.1C190.7,58.6,190.7,60.2,190.7,63.2Z" style="fill:#fff"/><path d="M190.6,76.8a1.45,1.45,0,0,0,1-.7,3.89,3.89,0,0,0,.2-1.5,18.56,18.56,0,0,0-1.1-5.2C190.6,72.4,190.6,73.8,190.6,76.8Z" style="fill:#fff"/><path d="M228.2,72.6h0c0-.6-4.1-22.5-4.1-22.5s-.6-3.3-4.8-3.2a4.45,4.45,0,0,0-4.5,2.9l-.6,4.6a12.58,12.58,0,0,0-4.3-.4l-.1-5a4.6,4.6,0,0,0-4.2-3.3c-4.1-.6-5,2.7-5,2.7s-6.1,21.5-6.1,22.1h0a8.52,8.52,0,0,0-.4,2.3,8.2,8.2,0,0,0,8.3,8.2,8.28,8.28,0,0,0,8.2-7.7,4.87,4.87,0,0,0-.1-1.2h0l-.4-13.7a15.53,15.53,0,0,1,3.7.4l-1.6,13.9h0a8.18,8.18,0,0,0,16.1,2.9c0-.2.1-.5.1-.7A6.17,6.17,0,0,0,228.2,72.6Z" style="fill:#fff"/><path d="M220.2,82.9h-.5a8.7,8.7,0,0,1-6-2.8,8.52,8.52,0,0,1-2.2-6.1,5.85,5.85,0,0,1,.2-1.3l1.6-13.5a13.33,13.33,0,0,0-2.8-.3l.4,13.2a5.28,5.28,0,0,1,.1,1.3,8.39,8.39,0,0,1-8.9,8.1,8.42,8.42,0,0,1-8-11c.2-1.3,5.1-18.6,6.1-22.1,0,0,1-3.6,5.4-3a4.89,4.89,0,0,1,4.6,3.6l.1,4.7a11,11,0,0,1,3.6.3l.5-4.2a4.79,4.79,0,0,1,4.9-3.2c4.4-.2,5.1,3.4,5.1,3.5.7,3.6,4,21.3,4.1,22.6a8.36,8.36,0,0,1-6.3,10.1,6.38,6.38,0,0,1-2,.1ZM210.6,58a12.42,12.42,0,0,1,3.3.4l.4.1-1.7,14.3c-.1.4-.1.8-.2,1.2a7.52,7.52,0,0,0,2,5.5,8.39,8.39,0,0,0,5.4,2.6,7.71,7.71,0,0,0,8.2-7.2,8.2,8.2,0,0,0-.2-2.2l-.1-.5h.1c-.4-2.3-2.6-14.1-4.1-22.1,0-.1-.6-3-4.3-2.8a4,4,0,0,0-4.1,2.6l-.6,5-.4-.1a11.94,11.94,0,0,0-4.2-.3h-.4l-.1-5.5a4.08,4.08,0,0,0-3.8-2.9c-3.8-.5-4.6,2.3-4.6,2.4-2.2,7.8-5.4,19.3-6,21.6h.1l-.2.5a7.55,7.55,0,0,0,7.2,10,8.08,8.08,0,0,0,5.7-2.1,7.66,7.66,0,0,0,2.4-5.2,4.87,4.87,0,0,0-.1-1.2L209.7,58Z" style="fill:#386632"/><path d="M202.6,66.9a7,7,0,1,0,7,7A7,7,0,0,0,202.6,66.9Zm-.2,10a3.8,3.8,0,1,1,3.8-3.8,3.74,3.74,0,0,1-3.8,3.8Z" style="fill:#d5d6d6"/><path d="M220.4,68.2a7,7,0,1,0,7,7A7,7,0,0,0,220.4,68.2Zm-.2,10a3.75,3.75,0,0,1,.1-7.5,3.71,3.71,0,0,1,3.7,3.8h0a3.65,3.65,0,0,1-3.8,3.7Z" style="fill:#d5d6d6"/><path d="M66.3,59.9a3.7,3.7,0,0,1-3.2-.7v.7a6.65,6.65,0,0,1-.7,3.7,4.29,4.29,0,0,1-3.2,2v1.8h.1a3.22,3.22,0,0,1,2.9,1.3,7,7,0,0,1,.9,3.5c2.5-.4,5.3-.8,8.4-1.1V59.3Z" style="fill:none"/><path d="M71.7,80.7c0,.8-.2,1.2-.7,1.2a29.66,29.66,0,0,0-4.2-.3,3.23,3.23,0,0,0-2,1.4,10.05,10.05,0,0,0-1.2,4.8c0,2.7,1.3,4.6,3.2,5.2a19.38,19.38,0,0,0,6.3.7c3.1,0,5.4-.8,6.7-2.3,1-1,1.4-3.4,1.4-7.3l-.1-13.9c-3.5.2-6.7.5-9.7.8C71.6,74.3,71.7,77.5,71.7,80.7Z" style="fill:#cddc4c"/><path d="M45.7,80c.7.8,2,1.2,3.8,1h.1v1.3c0,.6-.2.9-.5.9A4.3,4.3,0,0,0,46,84.3a7.55,7.55,0,0,0-.8,4.4,4.41,4.41,0,0,0,1.6,3.7A10.32,10.32,0,0,0,52.2,94c4.7.1,7.2-2.7,7.2-8.1V78l.3-.1A4.39,4.39,0,0,0,62.4,76a6.32,6.32,0,0,0,.9-3.8v-.1c-9.7,1.6-15.4,3.7-18.5,5.1A3.94,3.94,0,0,0,45.7,80Z" style="fill:#cddc4c"/><path d="M82.7,58.1A4.35,4.35,0,0,0,86.2,56a7.78,7.78,0,0,0,.8-4c0-2.2-.3-3.7-.9-4.3a3.83,3.83,0,0,0-3.4-.9c-6.6.8-9.8,1.3-16.4,2.4a5.06,5.06,0,0,0-3.2,1.7,7.22,7.22,0,0,0-1,4.3v.6a3.34,3.34,0,0,0-2.9-.6V52.4c-.2-2.5-1.8-3.5-4.8-2.9s-4.7,2.3-4.8,4.7v2.6l-.4.1a5.72,5.72,0,0,0-3,1.5A6.29,6.29,0,0,0,45,62.6q0,2.7,1.2,3.6a4,4,0,0,0,3,.7l.5-.1v3.7a6.37,6.37,0,0,1-.7.2,4.59,4.59,0,0,0-3.1,1.5,5.55,5.55,0,0,0-1.2,4.1,3.4,3.4,0,0,0,.1,1c3.1-1.4,8.8-3.5,18.5-5.1a5.59,5.59,0,0,0-.9-3.5,3.4,3.4,0,0,0-3-1.3h-.1V65.6a4.29,4.29,0,0,0,3.2-2,8.12,8.12,0,0,0,.7-3.7v-.7a3.7,3.7,0,0,0,3.2.7l5.2-.6V71c2.9-.3,6.2-.6,9.7-.8l-.1-12Z" style="fill:#eaefb5"/><path d="M198.2,66.3l5.1-20.1h3.2l2.7,1.6v5.4l-1.9,1.1-.1,5,2.3-.3.2,9s-3.9-1.8-4.2-1.9-4.8-1-4.8-1Z" style="fill:#d5d6d6"/><path d="M216.1,54.5l.7-6.7s3.1-.6,3.6-.6a14.76,14.76,0,0,1,2.9,1.2l3.2,14.4.6,6L221.8,67l-6.4.7.4-7.9.5-.5.2-3Z" style="fill:#d5d6d6"/><circle cx="203" cy="73.8" r="2.8" style="fill:#ffe300"/><circle cx="220.4" cy="74.9" r="2.8" style="fill:#ffe300"/><path d="M52.4,95.2h-.3A12.21,12.21,0,0,1,46,93.5a5.15,5.15,0,0,1-2.1-4.7c0-2.4.3-4,1.1-5.1a4.31,4.31,0,0,1,2.6-1.5,5.17,5.17,0,0,1-2.8-1.3,7.38,7.38,0,0,1-1.5-4.5,7.16,7.16,0,0,1,1.5-4.9,5.79,5.79,0,0,1,3.5-1.9V68.2a4.72,4.72,0,0,1-3-1c-1.1-.9-1.6-2.4-1.6-4.6a7.42,7.42,0,0,1,1.5-5,6.38,6.38,0,0,1,3.2-1.8V54.2c.1-1.8.9-4.8,5.8-5.9a5.56,5.56,0,0,1,4.7.6,4.88,4.88,0,0,1,1.7,3.4v1.6h.5a7.13,7.13,0,0,1,1.2-3.8,6.18,6.18,0,0,1,4-2.2c6.6-1.1,9.8-1.6,16.5-2.4a4.5,4.5,0,0,1,4.4,1.3c.8.9,1.2,2.5,1.2,5.1a9,9,0,0,1-.9,4.6,5.51,5.51,0,0,1-4.4,2.8h-.4l.1,24.8c0,4.3-.5,6.9-1.8,8.2-1.5,1.8-4.1,2.7-7.6,2.7a21.6,21.6,0,0,1-6.7-.8c-2.5-.8-4.1-3.2-4.1-6.4a11.06,11.06,0,0,1,1.3-5.4l.1-.1a4.23,4.23,0,0,1,2.8-1.9,15.89,15.89,0,0,1,3.8.2l-.1-20-3.9.5a8.09,8.09,0,0,1-2.2,0,6.5,6.5,0,0,1-.8,3.1,5.42,5.42,0,0,1-2.4,2.1A4.56,4.56,0,0,1,63.4,68a7.3,7.3,0,0,1,1.1,4.3,7.43,7.43,0,0,1-1.1,4.4,5.25,5.25,0,0,1-2.8,2.1v7.1c0,3.2-.8,5.6-2.5,7.2A8.08,8.08,0,0,1,52.4,95.2ZM49.5,79.8a1.61,1.61,0,0,1,.9.3,1,1,0,0,1,.4.9v1.3a1.93,1.93,0,0,1-1.7,2.2,3.72,3.72,0,0,0-2.2.6c-.2.3-.6,1.3-.6,3.7a3.06,3.06,0,0,0,1.1,2.7,8.78,8.78,0,0,0,4.7,1.3,6,6,0,0,0,4.2-1.4c1.2-1.1,1.7-3,1.7-5.5V78a1.1,1.1,0,0,1,.6-1c.2-.1.3-.2.5-.2a3.17,3.17,0,0,0,2.1-1.3,6,6,0,0,0,.7-3.2,4.46,4.46,0,0,0-.6-2.8,1.92,1.92,0,0,0-1.9-.8,1.69,1.69,0,0,1-1-.3,1.05,1.05,0,0,1-.5-.9V65.7a1.19,1.19,0,0,1,1-1.2,3.16,3.16,0,0,0,2.4-1.4,6.55,6.55,0,0,0,.5-3.1v-.7A1.3,1.3,0,0,1,63,58a1.4,1.4,0,0,1,.9.3,2.78,2.78,0,0,0,2.2.4c2.1-.3,3.2-.4,5.2-.6a1.21,1.21,0,0,1,1,.3,1.09,1.09,0,0,1,.4.9l.1,21.4c0,2.2-1.6,2.4-1.9,2.4h-.2a25.61,25.61,0,0,0-3.9-.3,1.55,1.55,0,0,0-1.1.8,8.68,8.68,0,0,0-1,4.2c0,2.1.9,3.6,2.4,4.1a24.58,24.58,0,0,0,6,.7c2.8,0,4.7-.7,5.8-1.9.4-.4,1.2-1.8,1.2-6.5L80,58.3A1.3,1.3,0,0,1,81.1,57l1.5-.1a3.11,3.11,0,0,0,2.6-1.5,6.28,6.28,0,0,0,.6-3.3c0-2.7-.5-3.4-.6-3.5a2.68,2.68,0,0,0-2.3-.5c-6.6.8-9.8,1.3-16.3,2.4a3.63,3.63,0,0,0-2.5,1.3c-.3.4-.8,1.3-.8,3.5v.6a1.2,1.2,0,0,1-2,.9,1.94,1.94,0,0,0-1.8-.3,1.21,1.21,0,0,1-1-.3,1.09,1.09,0,0,1-.4-.9V52.5a1.8,1.8,0,0,0-.7-1.5,3.6,3.6,0,0,0-2.7-.2c-2.5.5-3.8,1.7-3.8,3.5v2.6a1.19,1.19,0,0,1-1,1.2l-.4.1a3.84,3.84,0,0,0-2.3,1.1,5.16,5.16,0,0,0-.9,3.4,3.82,3.82,0,0,0,.7,2.7,2.62,2.62,0,0,0,2.1.4l.5-.1a1.25,1.25,0,0,1,1.4,1v3.9a1.29,1.29,0,0,1-.9,1.2H50c-.2.1-.4.1-.6.2-1.7.3-2.2.8-2.3,1h-.4a4.74,4.74,0,0,0-.9,3.3,4.43,4.43,0,0,0,.8,2.9,4,4,0,0,0,2.8.7Z" style="fill:#396729"/><path d="M144,95h-.2a8.55,8.55,0,0,1-5.7-2.1c-1.3-1.1-1.9-2.8-1.9-5.2a18.7,18.7,0,0,1,.4-5.3,2.28,2.28,0,0,1,1.6-1.8V78.1a5.71,5.71,0,0,1-1.4-1.3,9.24,9.24,0,0,1-1.3-5.4,8.78,8.78,0,0,1,1.5-5.7,3.18,3.18,0,0,1,1.2-1.1V61.2a5.24,5.24,0,0,1-1.1-1c-1-1.1-1.5-2.9-1.5-5.5s.5-4.5,1.4-5.7a5.24,5.24,0,0,1,1.1-1V45.3c.1-3.4,2.2-5.4,5.8-5.3,2.5,0,4.3,1.1,5.1,2.9a4.1,4.1,0,0,1,3.8-2.2c7.4.3,14.8.8,22.2,1.6,3.4.3,5.2,3.9,5.2,10.6v1.2a4.25,4.25,0,0,1-1.4,3.4,5.58,5.58,0,0,1-.8.5,7.12,7.12,0,0,1,1.2,4.5,8,8,0,0,1-2,5.7,3.54,3.54,0,0,1-2.6,1,1.22,1.22,0,0,1-1.2-1.2v-.1a1.24,1.24,0,0,1,1.3-1.2,1.14,1.14,0,0,0,.8-.3,5.51,5.51,0,0,0,1.2-3.9c0-3.3-1.2-3.4-1.8-3.4l-2.5-.2a2.48,2.48,0,0,1-2.4-2.6V53.1a1.22,1.22,0,0,1,1.2-1.2.75.75,0,0,1,.5.1,2.24,2.24,0,0,1,1.2,1.9v.3h0a2.66,2.66,0,0,0,.3,1.2c.1.2.6.5,2.1.6a3,3,0,0,0,1.8-.4,1.65,1.65,0,0,0,.5-1.4V53.1c0-3.6-.5-7.9-3-8.2-7.3-.7-14.7-1.3-22-1.6-2-.1-2.6,3.3-2.8,6.2a1.21,1.21,0,0,1-1.3,1.1,1.08,1.08,0,0,1-.7-.3c-.1-.1-.1-.1-.2-.1a1.23,1.23,0,0,1-.5-1V45.5c-.1-2.1-1.1-3-3.3-3-2.9,0-3.3,1.5-3.3,2.9V49a1.29,1.29,0,0,1-.9,1.2,1.61,1.61,0,0,0-.7.4l-.1.1c-.3.3-.9,1.4-.9,4.1,0,2.4.5,3.4.9,3.9a2.76,2.76,0,0,0,.9.7,1.23,1.23,0,0,1,.7,1.1v4.8a1.3,1.3,0,0,1-.8,1.2,1.56,1.56,0,0,0-.8.6l-.1.1a6.91,6.91,0,0,0-1,4.2c0,2.5.6,3.6.9,4a1.78,1.78,0,0,0,1.1.8,1.17,1.17,0,0,1,.8,1.1v3.3a2.24,2.24,0,0,1-.6,1.7,1.61,1.61,0,0,1-1.1.5v.1a37.08,37.08,0,0,0-.3,4.7,4.43,4.43,0,0,0,1.1,3.3,6.55,6.55,0,0,0,4.2,1.5c1.5,0,2.5-1.2,2.9-3.6l.3-4.6V75.6a1.3,1.3,0,0,1,.8-1.2,2.18,2.18,0,0,0,.8-.5,1.2,1.2,0,1,1,1.6,1.8,5.55,5.55,0,0,1-.8.6v7.9h0l-.3,4.7V89C148.4,94.3,145.4,95,144,95Zm6.9-26.2a1.19,1.19,0,0,1-1.2-1,5.73,5.73,0,0,0-.4-1.4,2.94,2.94,0,0,0-1.2-1,1.17,1.17,0,0,1-.8-1.1V60.6a1.17,1.17,0,0,1,.8-1.1,2.36,2.36,0,0,0,.9-.8,7.63,7.63,0,0,0,.5-2.7,1.22,1.22,0,0,1,1.2-1.2.6.6,0,0,1,.4.1,5.85,5.85,0,0,0,1.3.2,2.82,2.82,0,0,0,2-.4h0s.2-.2.2-1.2h0v-.3a2.57,2.57,0,0,1,.7-1.6,1.65,1.65,0,0,1,1.5-.5,1.39,1.39,0,0,1,1,.5,1.69,1.69,0,0,1,.3,1,17.1,17.1,0,0,1-.9,3,17.77,17.77,0,0,1-5.2,5.7,1.69,1.69,0,0,0-.3,1,3.64,3.64,0,0,0,.9,2.3,5.66,5.66,0,0,0,1.5,1.2,1.16,1.16,0,0,1,.6,1.4,1.2,1.2,0,0,1-1.2.9H153a1.1,1.1,0,0,1-1-.6,1.09,1.09,0,0,1-1,1.1c0,.1-.1.1-.1.2Zm.8-11.4c-.1.4-.1.8-.2,1.2a12,12,0,0,1,1.2-1.1h-.5c-.2,0-.3-.1-.5-.1Z" style="fill:#396729"/><path d="M220.1,95.3a3.13,3.13,0,0,1-2.4-1.2,4.35,4.35,0,0,1-.6-.7,5,5,0,0,1-3.6,1.8,5.6,5.6,0,0,1-3.5-1.3,6.56,6.56,0,0,1-3.3.9,3.42,3.42,0,0,1-2.4-1.3l-.2-.3a5.15,5.15,0,0,1-3.6,1.9,6.2,6.2,0,0,1-4.2-2,5,5,0,0,1-1.6-4,1.7,1.7,0,0,1,.1-.7,8.78,8.78,0,0,1-2.8.1V91c-.2,2.5-2,4-4.9,4h0c-2.9,0-4.7-1.6-4.9-4.1l.2-42c0-2.3.5-3.9,1.6-4.8a3.45,3.45,0,0,1,2.9-.8c3.3.4,4.9.6,8.1,1.1,2.4.3,5.2,1.9,5.2,7.2V52a26.2,26.2,0,0,1-.1,2.8,1.32,1.32,0,0,1-1.4,1.1,1.28,1.28,0,0,1-1.1-1.2c0-.7.1-1.9.1-2.6v-.3c0-3.9-1.8-4.6-3.1-4.8-3.3-.5-4.9-.7-8.1-1.1a1.23,1.23,0,0,0-1,.2c-.3.2-.7,1-.7,3l-.2,42c.1,1.1.9,1.7,2.4,1.7s2.4-.6,2.5-1.7V87.2a1.23,1.23,0,0,1,.5-1,1.39,1.39,0,0,1,1.1-.2,5.66,5.66,0,0,0,1.8.3,4.47,4.47,0,0,0,4-1.9l.1-.1c.7-1,.9-1.4,1-3.6a1.2,1.2,0,0,1,2.1-.8h.1a2.27,2.27,0,0,0,.4.1,1.24,1.24,0,0,1,.8,1.5,11.82,11.82,0,0,1-1.2,2.8,5.74,5.74,0,0,1-.4.7,27.47,27.47,0,0,1-2.6,4c-.1.1-.1.1-.1.2a2.37,2.37,0,0,0,.9,2.2,3.83,3.83,0,0,0,2.4,1.3,3.17,3.17,0,0,0,2.1-1.3l.1-.1a4.35,4.35,0,0,0,.6-.7,1.28,1.28,0,0,1,1.7-.4l.3.3,1.1,1.4c.4.5.6.4.6.4a4.39,4.39,0,0,0,2.7-.9,1.22,1.22,0,0,1,1.6.1,3.82,3.82,0,0,0,2.5,1.3,3.17,3.17,0,0,0,2.1-1.3l.1-.1c.2-.2.5-.4.6-.7a1.28,1.28,0,0,1,1-.4,1.05,1.05,0,0,1,.9.5,10.1,10.1,0,0,0,1.3,1.6,1,1,0,0,0,.7.4h0a4.11,4.11,0,0,0,2.6-.9,2.84,2.84,0,0,0,1.2-2,2.22,2.22,0,0,0-.8-1.3,32.69,32.69,0,0,1-3-3.5,1.26,1.26,0,0,1-.1-1.2,2.66,2.66,0,0,0,.3-1.2,1.16,1.16,0,0,1,1.2-1.2h0a1.16,1.16,0,0,1,1.2,1.2h0a3.53,3.53,0,0,1-.3,1.4c.8,1,1.6,1.9,2.4,2.8a4.69,4.69,0,0,1,1.4,2.9,4.88,4.88,0,0,1-2.1,4,7.25,7.25,0,0,1-4.3,1.5Zm-9.5-7.1a1.27,1.27,0,0,1-.9-.4c-1-1.2-2-2.4-2.9-3.7a1.23,1.23,0,0,1-.2-1,2.2,2.2,0,0,0,.1-.8,2,2,0,0,0-.3-1.1,1.19,1.19,0,0,1,.4-1.7,1.25,1.25,0,0,1,1.7.3h0a4.2,4.2,0,0,1,.7,2.4,2.2,2.2,0,0,1-.1.8c.5.7,1,1.3,1.5,1.9a3.51,3.51,0,0,0,.5-.8,26.4,26.4,0,0,0,1.8-3.8,1.35,1.35,0,0,1,1.6-.7,1.19,1.19,0,0,1,.7,1.5,21.1,21.1,0,0,1-2,4.3,12.42,12.42,0,0,1-1.7,2.3,1,1,0,0,1-.9.5ZM190.6,78a1.14,1.14,0,0,1-.8-.3,1.09,1.09,0,0,1-.4-.9V69.4a1.19,1.19,0,0,1,1-1.2,1.23,1.23,0,0,1,1.4.8,18.26,18.26,0,0,1,1.3,5.6,6.45,6.45,0,0,1-.3,2l-.1.1a2.42,2.42,0,0,1-1.8,1.3Zm.1-13.6h-.1a1.28,1.28,0,0,1-1.1-1.2V55.5a1.09,1.09,0,0,1,.4-.9c.3-.2.6-.4.9-.3l.5.1c1.3.2,1.3,1.6,1.3,2.1a31.74,31.74,0,0,1-.8,6.9,1.16,1.16,0,0,1-1.1,1Z" style="fill:#396729"/><path d="M95.7,95.3c-3.2,0-5.2-1.7-5.5-4.5l-.2-42c0-5.4,2.7-6.8,5-7,4.7-.5,6.9-.7,11.6-1a4.94,4.94,0,0,1,4,1.2,4,4,0,0,1,1,1.5,5.09,5.09,0,0,1,4.9-3.2c4.2-.2,6.2-.3,10.4-.3h0a6.39,6.39,0,0,1,4.8,1.6,6.31,6.31,0,0,1,1.7,4.9V86c0,7.5-4,9.1-7.4,9.1h0a8.16,8.16,0,0,1-5-1.7,6.39,6.39,0,0,1-1.3-1.5c-.1.2-.2.3-.3.5a4.41,4.41,0,0,1-3.7,1.6h0a4.22,4.22,0,0,1-3.6-1.6,6.29,6.29,0,0,1-1.2-4.2V86.5a14.12,14.12,0,0,1-2.1,5.6,4.21,4.21,0,0,1-3.7,1.8,6.55,6.55,0,0,1-4.3-2.1c-.4,2.2-2.3,3.4-5.1,3.5Zm11.6-52.1h-.4c-4.6.3-6.9.5-11.6,1-1.3.1-2.9.8-2.8,4.6l.2,41.9c.1,1.4,1.1,2.2,3,2.2h0c2.9,0,3-1.7,3-2.3l-.1-25.3a1.16,1.16,0,0,1,1.2-1.2c2.9-.2,4.4-.2,7.3-.3.9,0,2.9-.1,2.9-5v-12a4,4,0,0,0-.9-3A2,2,0,0,0,107.3,43.2Zm15.5,40.2a.9.9,0,0,0-.6.6,7.41,7.41,0,0,0-.8,3.9,4.69,4.69,0,0,0,1.5,3.5,4.81,4.81,0,0,0,3.4,1.1h0c2.3,0,4.9-.8,4.9-6.7V46.3a4.7,4.7,0,0,0-1-3.2,4.37,4.37,0,0,0-3.1-.9h0c-4.2.1-6.2.2-10.4.3-1.6.1-3.1.6-3.1,4.1V59.8a4.55,4.55,0,0,0,.8,3,1.84,1.84,0,0,0,1.6.5c3.1-.1,4.7-.1,7.8-.2a1.61,1.61,0,0,1,.9.3,1.27,1.27,0,0,1,.4.9V81.2a2.17,2.17,0,0,1-.8,2,1.09,1.09,0,0,1-1.2.2ZM104,72.1a1.14,1.14,0,0,1,.8.3,1.27,1.27,0,0,1,.4.9v1.3a1.16,1.16,0,0,1-1.2,1.2h-.4c-1,0-1.2.4-1.3.5a4.42,4.42,0,0,0-.4,2.5,4.09,4.09,0,0,0,.4,2.3,1.61,1.61,0,0,0,.7.4,1,1,0,0,1,.8.6,1.18,1.18,0,0,1,.1,1,25.9,25.9,0,0,1-1.7,3.8,3.1,3.1,0,0,0-.6,1.3,2.46,2.46,0,0,0,.8,1.7,4.21,4.21,0,0,0,2.8,1.4,2,2,0,0,0,1.7-.9,13.25,13.25,0,0,0,1.8-4.8c.2-1.1.4-2.1.6-3.1a1.19,1.19,0,0,1,1.2-1h1.8a1.61,1.61,0,0,1,.9.3,1.27,1.27,0,0,1,.4.9V88a4,4,0,0,0,.6,2.6,2.41,2.41,0,0,0,1.8.7h0a2.09,2.09,0,0,0,1.8-.7,4,4,0,0,0,.6-2.6V82.6a1.16,1.16,0,0,1,1.2-1.2h.6a1.34,1.34,0,0,0,1.4-.7,5.7,5.7,0,0,0,.4-2.2,4.62,4.62,0,0,0-.4-2.6c-.1-.1-.3-.4-1.4-.4h-.6a1.16,1.16,0,0,1-1.2-1.2h0V73a1.16,1.16,0,0,1,1.2-1.2h.4a1.15,1.15,0,0,0,1.1-.6,3.4,3.4,0,0,0,.3-2,3.73,3.73,0,0,0-.3-2.1,1.5,1.5,0,0,0-1.1-.4c-6.6.1-9.8.2-16.3.5h0a1.61,1.61,0,0,0-1.1.5,3.78,3.78,0,0,0-.4,2.1,3.44,3.44,0,0,0,.4,2,1,1,0,0,0,1,.3Zm-2.9,11.3V84c.1-.2.1-.3.2-.4Zm0-9.7v.6c.1-.1.3-.2.4-.3-.1-.1-.3-.2-.4-.3Zm21.2-.2c.1.1.3.1.4.2v-.6a.78.78,0,0,1-.4.4ZM111.7,62.9a5.37,5.37,0,0,1-1,1.6l1.9-.1A3.77,3.77,0,0,1,111.7,62.9ZM106.8,42Zm20.3-.9Zm-16,34.7a1.61,1.61,0,0,1-.9-.3,1.27,1.27,0,0,1-.4-.9V73.2a1.2,1.2,0,0,1,1.1-1.2h1.3a1.61,1.61,0,0,1,.9.3,1.27,1.27,0,0,1,.4.9v1.3a1.16,1.16,0,0,1-1.2,1.2l-1.2.1Zm-11.3-17a1.16,1.16,0,0,1-1.2-1.2v-1a1.22,1.22,0,0,1,1.2-1.2l3.3-.2a1.4,1.4,0,0,1,.9.3,1.27,1.27,0,0,1,.4.9v1.1a1.16,1.16,0,0,1-1.2,1.2l-3.4.1Zm20.8-.9a1.14,1.14,0,0,1-.8-.3,1.27,1.27,0,0,1-.4-.9V55.6a1.16,1.16,0,0,1,1.2-1.2c1.3,0,2-.1,3.3-.1a1.16,1.16,0,0,1,1.2,1.2h0v1.1a1.16,1.16,0,0,1-1.2,1.2l-3.3.1ZM99.8,52.4a1.14,1.14,0,0,1-.8-.3,1.49,1.49,0,0,1-.4-.9V50.1a1.2,1.2,0,0,1,1.1-1.2l3.3-.2a1.23,1.23,0,0,1,1.3,1.1V51a1.2,1.2,0,0,1-1.1,1.2l-3.4.2Zm20.8-1.1a1.16,1.16,0,0,1-1.2-1.2V49a1.16,1.16,0,0,1,1.2-1.2l3.3-.1a1.61,1.61,0,0,1,.9.3,1.27,1.27,0,0,1,.4.9V50a1.2,1.2,0,0,1-1.1,1.2l-3.5.1Z" style="fill:#396729"/><path d="M168.2,84.6h11.3c-4.5-3.4-8.4-9.3-8.4-9.3h7.6c-3.9-1.7-9.8-7-9.8-7l7.7-.3c-7.3-1.1-12.6-15.4-12.7-15.3S160,63.9,153.6,67a6,6,0,0,1-2.5,1l7.8-.2a68.93,68.93,0,0,1-9.6,7.5H156s-3,5.9-7.5,9.3h10.4v5a4.39,4.39,0,0,0,4.1,4.7h.7a4.38,4.38,0,0,0,4.5-4.3V84.6Z" style="fill:#7ebc25"/><path d="M163.6,95.6H163a5.53,5.53,0,0,1-4-1.8,6,6,0,0,1-1.4-4.2V85.8h-9.2a1.3,1.3,0,0,1-1.2-.8,1.28,1.28,0,0,1,.4-1.4,27.68,27.68,0,0,0,6.1-7.1h-4.6a1.29,1.29,0,0,1-1.2-.9,1.2,1.2,0,0,1,.6-1.4,55.78,55.78,0,0,0,6.9-5.1l-4.2.1H151a1.2,1.2,0,0,1,0-2.4h.1a5,5,0,0,0,1.3-.5,4.35,4.35,0,0,1,.7-.4c3.4-1.7,7-6.7,9.6-13.5.1-.2.1-.4.2-.4a1.25,1.25,0,0,1,1.1-.6,1.39,1.39,0,0,1,1.2,1c3.5,8.4,7.9,13.8,11.6,14.3a1.3,1.3,0,0,1,1,1.3,1.38,1.38,0,0,1-1.2,1.2l-4.5.2a44.18,44.18,0,0,0,7.1,4.8,1.2,1.2,0,0,1,.6,1.6,1.23,1.23,0,0,1-1.1.7h-5.2a34.82,34.82,0,0,0,6.7,7.1,1.25,1.25,0,0,1,.2,1.7,1.23,1.23,0,0,1-1,.5h-10v3.8a7.06,7.06,0,0,1-1.4,4.2,6,6,0,0,1-4,1.8Zm-.1-2.5h.1a3.47,3.47,0,0,0,2.5-1,3.29,3.29,0,0,0,.8-2.5V84.5a1.16,1.16,0,0,1,1.2-1.2h8a53.27,53.27,0,0,1-6.1-7.4,1.25,1.25,0,0,1,.3-1.7,1.45,1.45,0,0,1,.7-.2h3.1a71.56,71.56,0,0,1-6.1-4.8,1.09,1.09,0,0,1-.3-1.3,1.17,1.17,0,0,1,1.1-.8l2.8-.1c-3.3-2.7-6-7.4-7.8-11.2-1.5,3.4-4,8.1-7.5,10.8l2.4-.1a1.31,1.31,0,0,1,1.3,1.2,1,1,0,0,1-.4.9c-.2.2-3.1,2.9-6.4,5.4h2.7a1.16,1.16,0,0,1,1.2,1.2,1.27,1.27,0,0,1-.1.6,40.33,40.33,0,0,1-5.4,7.6h7.2a1.16,1.16,0,0,1,1.2,1.2h0v5a4.38,4.38,0,0,0,.8,2.5,3.47,3.47,0,0,0,2.5,1Z" style="fill:#386632"/><path d="M153.4,94.6a4.65,4.65,0,1,1,4.6-4.7V90A4.65,4.65,0,0,1,153.4,94.6Zm0-6.8a2.2,2.2,0,1,0,2.2,2.2,2.22,2.22,0,0,0-2.2-2.2Z" style="fill:#386632"/><path d="M173.7,94.6a4.65,4.65,0,1,1,4.7-4.6h0A4.74,4.74,0,0,1,173.7,94.6Zm0-6.8a2.2,2.2,0,1,0,2.2,2.2,2.22,2.22,0,0,0-2.2-2.2Z" style="fill:#386632"/><path d="M210.5,72.9a.86.86,0,0,1-.8-.8l-.4-13.6a.8.8,0,0,1,1.6,0l.4,13.6c.1.5-.3.8-.8.8Z" style="fill:#1a1a1a"/><path d="M194.5,71.4h0a.82.82,0,0,1-.8-.9c0-.6,3.9-14.2,6.1-22.3a5.77,5.77,0,0,1,10.7.6V49l.1,4.3a.8.8,0,0,1-1.6,0l-.1-4.2a3.76,3.76,0,0,0-3.4-2.6h-.1c-3.4-.5-4.1,2-4.1,2.1-2.4,8.4-5.9,21.1-6.1,22A.67.67,0,0,1,194.5,71.4Z" style="fill:#1a1a1a"/><path d="M202.4,82h-.3a9.07,9.07,0,0,1-8.8-9.1,8.93,8.93,0,0,1,2.8-6.1,9.15,9.15,0,0,1,15.4,6.7,8.93,8.93,0,0,1-2.8,6.1A9.89,9.89,0,0,1,202.4,82Zm-.1-16.1a7.44,7.44,0,0,0-5.1,2,7.32,7.32,0,0,0-2.3,5,7.43,7.43,0,0,0,7.2,7.5,7.29,7.29,0,0,0,5.4-2,6.82,6.82,0,0,0,2.2-5,7.43,7.43,0,0,0-7.2-7.5Z" style="fill:#1a1a1a"/><path d="M202.4,78h-.2a5,5,0,0,1-4.9-5.1,4.58,4.58,0,0,1,1.6-3.4,5.17,5.17,0,0,1,7.2.2,5,5,0,0,1,1.4,3.5h0a4.86,4.86,0,0,1-1.5,3.4A5.62,5.62,0,0,1,202.4,78Zm0-8.3a3.58,3.58,0,0,0-2.4.9,3.26,3.26,0,0,0-1,2.3,3.35,3.35,0,0,0,3.3,3.4,3.84,3.84,0,0,0,2.5-.9,3.26,3.26,0,0,0,1-2.3,3.35,3.35,0,0,0-3.3-3.4Zm4.2,3.5Z" style="fill:#1a1a1a"/><path d="M212.1,73.6H212c-.4-.1-.8-.5-.7-.9h0L213,59a.79.79,0,0,1,.8-.8.86.86,0,0,1,.8.8v.2L213,72.8A.88.88,0,0,1,212.1,73.6Z" style="fill:#1a1a1a"/><path d="M228.2,73.4h0a.86.86,0,0,1-.8-.8c-.1-.9-2.5-13.9-4.1-22.4-.1-.3-.6-2.6-3.9-2.5h-.1a3.71,3.71,0,0,0-3.7,2.3l-.5,4c-.1.4-.5.8-.9.7h0c-.4-.1-.8-.5-.7-.9h0l.5-4.1v-.2a5.12,5.12,0,0,1,5.3-3.4c3.8-.2,5.3,2.4,5.5,3.8,1.6,8.2,4.2,22.1,4.1,22.7C229,73.1,228.7,73.4,228.2,73.4Z" style="fill:#1a1a1a"/><path d="M220.2,83.3h-.5a9.07,9.07,0,0,1-6.2-2.9,8.74,8.74,0,0,1-2.3-6.4,9,9,0,0,1,9.5-8.3,9.05,9.05,0,0,1,8.5,9.4A9,9,0,0,1,220.2,83.3Zm0-16.1a7.27,7.27,0,0,0-7.4,6.8,7.15,7.15,0,0,0,1.9,5.2,7.67,7.67,0,0,0,5.1,2.4,7.36,7.36,0,0,0,7.8-6.8,7.15,7.15,0,0,0-1.9-5.2,7.24,7.24,0,0,0-5.1-2.4Z" style="fill:#1a1a1a"/><path d="M220.2,79.4h-.3a5.69,5.69,0,0,1-3.5-1.6,4.88,4.88,0,0,1-1.3-3.6,5,5,0,0,1,5.5-4.6,5.18,5.18,0,0,1,3.3,1.6,4.88,4.88,0,0,1-3.7,8.2Zm0-8.3a3.31,3.31,0,0,0-3.4,3.1,3.15,3.15,0,0,0,.9,2.4,3,3,0,0,0,2.3,1.1,3.37,3.37,0,0,0,3.6-3.1,3.58,3.58,0,0,0-.9-2.4,3.19,3.19,0,0,0-2.4-1.1Z" style="fill:#1a1a1a"/><path d="M216.4,60.7c-.2,0-.3,0-.4-.1a11.45,11.45,0,0,0-8.7-.8.66.66,0,0,1-.7-.2.91.91,0,0,1-.3-.7l.1-4.2a.75.75,0,0,1,.5-.7,13,13,0,0,1,10.4.8.68.68,0,0,1,.4.8l-.6,4.4a.68.68,0,0,1-.4.6C216.6,60.6,216.5,60.7,216.4,60.7Zm-5.8-3a12.55,12.55,0,0,1,5.1,1L216,56a11.32,11.32,0,0,0-8.1-.6l-.1,2.6a14.07,14.07,0,0,1,2.8-.3Z" style="fill:#1a1a1a"/><path d="M216.5,58.1a.37.37,0,0,1-.3-.1,11.94,11.94,0,0,0-8.9-.9.68.68,0,0,1-.8-.4h0a.68.68,0,0,1,.4-.8h0a13.63,13.63,0,0,1,9.9,1,.67.67,0,0,1,.3.8h0A.72.72,0,0,1,216.5,58.1Z" style="fill:#1a1a1a"/><path d="M210.5,73.3a1.16,1.16,0,0,1-1.2-1.2l-.7-23a3.12,3.12,0,0,0-3-2.2h-.1c-3-.4-3.6,1.7-3.7,1.8-2.3,8.3-5.9,20.8-6.1,21.9a1.28,1.28,0,0,1-1.2,1.1,1.24,1.24,0,0,1-1.2-1.3c0-.2,0-.8,6.1-22.4.4-1.5,2.2-4.1,6.3-3.6a5.77,5.77,0,0,1,5.3,4.2v.3l.7,23.1a1.18,1.18,0,0,1-1.2,1.3Z" style="fill:#386632"/><path d="M202.4,82.4h-.3a9.26,9.26,0,0,1-6.3-16,9.51,9.51,0,0,1,13.5.5,9.06,9.06,0,0,1-.4,12.9A9.88,9.88,0,0,1,202.4,82.4Zm-.1-16.1a7.52,7.52,0,0,0-4.9,1.9,6.44,6.44,0,0,0-2.1,4.7A7.07,7.07,0,0,0,207.2,78a6.44,6.44,0,0,0,2.1-4.7,7,7,0,0,0-6.8-7Z" style="fill:#386632"/><path d="M202.4,78h-.2a5,5,0,0,1-4.9-5.1,4.58,4.58,0,0,1,1.6-3.4,5.17,5.17,0,0,1,7.2.2,5,5,0,0,1,1.4,3.5h0a4.86,4.86,0,0,1-1.5,3.4A5.62,5.62,0,0,1,202.4,78Zm0-8.3a3.58,3.58,0,0,0-2.4.9,3.26,3.26,0,0,0-1,2.3,3.35,3.35,0,0,0,3.3,3.4,3.84,3.84,0,0,0,2.5-.9,3.26,3.26,0,0,0,1-2.3,3.35,3.35,0,0,0-3.3-3.4Zm4.2,3.5Z" style="fill:#386632"/><path d="M212.1,74H212a1.32,1.32,0,0,1-1.1-1.4h0l2.7-22.9a.37.37,0,0,1,.1-.3,5.7,5.7,0,0,1,5.6-3.7c4.1-.2,5.7,2.7,5.9,4.2,4.2,22.1,4.2,22.6,4.2,22.8a1.2,1.2,0,1,1-2.4,0h0c-.1-1.1-2.5-13.9-4.1-22.3-.1-.4-.6-2.3-3.5-2.2h-.2a3.16,3.16,0,0,0-3.2,2L213.3,73A1.19,1.19,0,0,1,212.1,74Z" style="fill:#386632"/><path d="M220.2,83.7h-.6a9.39,9.39,0,0,1-8.9-9.8,9.32,9.32,0,0,1,10-8.7,9.39,9.39,0,0,1,8.9,9.8A9.26,9.26,0,0,1,220.2,83.7Zm0-16.1a6.91,6.91,0,0,0-7,6.4,6.75,6.75,0,0,0,1.8,5,7.09,7.09,0,0,0,4.9,2.3,6.93,6.93,0,0,0,7.4-6.4,6.39,6.39,0,0,0-1.8-4.9,7.09,7.09,0,0,0-4.9-2.3Z" style="fill:#386632"/><path d="M220.2,79.4h-.3a5.69,5.69,0,0,1-3.5-1.6,4.88,4.88,0,0,1-1.3-3.6,5,5,0,0,1,5.5-4.6,5.18,5.18,0,0,1,3.3,1.6,4.88,4.88,0,0,1-3.7,8.2Zm0-8.3a3.31,3.31,0,0,0-3.4,3.1,3.15,3.15,0,0,0,.9,2.4,3,3,0,0,0,2.3,1.1,3.37,3.37,0,0,0,3.6-3.1,3.58,3.58,0,0,0-.9-2.4,3.19,3.19,0,0,0-2.4-1.1Z" style="fill:#386632"/><path d="M207,58.9l.1-4.2a12.41,12.41,0,0,1,9.8.8l-.6,4.4A12.06,12.06,0,0,0,207,58.9Z" style="fill:#fff"/><path d="M216.4,61.1a1.07,1.07,0,0,1-.6-.2,11.65,11.65,0,0,0-8.4-.8,1.22,1.22,0,0,1-1.5-.9v-.3l.1-4.2a1.17,1.17,0,0,1,.8-1.1,14,14,0,0,1,10.8.8,1.21,1.21,0,0,1,.7,1.2l-.6,4.4A1.48,1.48,0,0,1,216.4,61.1Zm-5.8-3.9a15.58,15.58,0,0,1,4.8.8l.2-1.9a11.4,11.4,0,0,0-7.3-.6l-.1,1.8c.9,0,1.6-.1,2.4-.1Z" style="fill:#386632"/><path d="M24.6,143.2v21.4c0,6.7,3.3,10,10,10H80c6.7,0,10-3.3,10-10V143.2Zm47.8,13.5a2.08,2.08,0,0,1-1.8,2.4h-26a2,2,0,0,1-2.4-1.8v-1.8H72.5v1.2Z" style="fill:#cddc4c"/><path d="M89.9,133.7c0-6.7-3.3-10-10-10H63.8l.8-2.7H84.9c2.6,0,4.4-.8,5.6-2.4a8.92,8.92,0,0,0,1.3-5.3c0-3-.5-5-1.5-5.9-1.1-1.2-2.8-1.8-5.4-1.8H29.7c-2.4,0-4.1.6-5.1,1.7-1.2,1-1.7,3-1.7,6s.6,4.8,1.7,5.9,2.8,1.8,5.1,1.8H47.4l-.8,2.7h-12c-6.7,0-10,3.3-10,10v9.5H89.9Zm-17.5,8.2H42.1v-.3a2,2,0,0,1,1.8-2.4H70a2,2,0,0,1,2.4,1.8v.9Z" style="fill:#eaefb5"/><path d="M211.2,143.2v8.9a35.07,35.07,0,0,0-4.2-5.9,3.63,3.63,0,0,0-2.8-1.2,1.7,1.7,0,0,0-.7.1v-1a7.48,7.48,0,0,0,3.9-.9H183a6.78,6.78,0,0,0,3.7.9h.2a80.84,80.84,0,0,1-7.6,10.1,6,6,0,0,0-1.2,3.1,9.16,9.16,0,0,0,2.1,6.2c1.9,2.5,4.1,3.8,6.4,3.9a2.38,2.38,0,0,0,1.1-.6v1.6a5.25,5.25,0,0,0,1.9,4.3c1.3,1.5,3.3,2.3,6,2.3,3,0,5.1-.8,6.4-2.3a6.13,6.13,0,0,0,1.5-4.3v-5.7a1.13,1.13,0,0,0,.8.1,9.48,9.48,0,0,0,5.8-2,6.89,6.89,0,0,0,1.1-1.3v6.7c0,5.6,2.8,8.5,8.5,8.5h19.7c5.6,0,8.5-2.8,8.5-8.5V143.1H211.2Zm22.4,18a1.59,1.59,0,0,1-1.4,1.8h-5a1.59,1.59,0,0,1-1.8-1.4V161h8.2Zm0-9.6h-8.2v-1.8h8.2Z" style="fill:#cddc4c"/><path d="M208.8,141.9c.7-.9,1-2.6,1-5,0-3-.6-4.9-1.7-5.8s-2.6-1.5-4.8-1.5H203a5.85,5.85,0,0,0-1-1.7,11.9,11.9,0,0,0,3.6-1.7,4.68,4.68,0,0,0,2.9-4.4v-.4a6.9,6.9,0,0,0,2.5-.4c0,.2-.1.5-.1.8q0,2.7,3.3,4.5a25.57,25.57,0,0,0,2.4,1.1c-3.7.8-5.6,3.5-5.6,8.2v7.7h36.6v-7.7c0-5.7-2.8-8.5-8.5-8.5h-1.9l1.1-.5a5.16,5.16,0,0,0,3.1-4.8h1c2.4,0,4-.6,5-1.7a9.22,9.22,0,0,0,1-4.9c0-2.5-.4-4.2-1.3-5.2s-2.4-1.5-4.7-1.4h-12a3.3,3.3,0,0,0-2-2,14.38,14.38,0,0,0-7-1.6,5.6,5.6,0,0,0-5.5,3.2q-.9,2.4-2.1,5.4a6.67,6.67,0,0,0-1.2-3.9c-.8-.9-2.3-1.4-4.7-1.4H197.2a3.9,3.9,0,0,0-2-2,15.6,15.6,0,0,0-7-1.6,5.6,5.6,0,0,0-5.5,3.2,80.76,80.76,0,0,1-3.5,8,8.79,8.79,0,0,0-1,3.6q0,2.7,3.3,4.5a14.39,14.39,0,0,0,6.7,2.2,5.46,5.46,0,0,0,4.8-3,13,13,0,0,0,1-1.5h.4l1.8,4a1.06,1.06,0,0,0-.8-.1c-2.5,0-4.4.6-5.6,1.9a4.81,4.81,0,0,0-1.8,2.4h-1.6c-2.2,0-3.7.4-4.6,1.4-1.2,1.1-1.8,3-1.8,5.9,0,2.7.6,4.6,1.8,5.6a3.59,3.59,0,0,0,1,.7h24.4A4.83,4.83,0,0,0,208.8,141.9Zm23-3a1.55,1.55,0,0,1,1.7,1.3v.2h-8a1.48,1.48,0,0,1,1.7-1.5Zm-5.9-13.5a9.06,9.06,0,0,0,1.1-1.6c.4.7.9,1.6,1.4,2.6.1.3.3.5.4.8h-4.3a11,11,0,0,0,1.4-1.8Z" style="fill:#eaefb5"/><path d="M101,141.4a5.39,5.39,0,0,0,1.3.7v.4a4.06,4.06,0,0,0,1,3,3.38,3.38,0,0,0,2.5.9h4.5v1.2h-4.2a2.63,2.63,0,0,0-2.1.6,3.77,3.77,0,0,0-.8,2.7,3.53,3.53,0,0,0,.8,2.6,3.23,3.23,0,0,0,2.1.8h4.2V156l-6.4.2a2.52,2.52,0,0,0-2,.9,5,5,0,0,0-.1,5.8,3.06,3.06,0,0,0,2.7,1.1l24.9-.9a4.2,4.2,0,0,0,2.6-1.2c.9,1.3,2.8,1.9,5.4,1.9h23.7c4.5,0,6.8-1.8,6.8-5.5v-2.8a4.53,4.53,0,0,0-.3-1.6,1.76,1.76,0,0,0,.9-.8,3.74,3.74,0,0,0,.6-2.5c0-1.5-.2-2.4-.7-2.8a3.4,3.4,0,0,0-2.6-.8H155.3v-1.7h8.2a3.11,3.11,0,0,0,2.6-.9,3.37,3.37,0,0,0,.5-1.7,5.24,5.24,0,0,0,1.8-1c1.3-.8,2-2.3,2-4.4v-.8c0-5.3-2.9-8-8.6-7.9H141.3l-.6-.6c-1.2-1-3.1-1.5-5.8-1.5s-4.6.5-5.8,1.5c-.2.2-.5.4-.7.6H107.6c-5.7,0-8.6,2.6-8.6,7.9v.4A5.77,5.77,0,0,0,101,141.4Zm43.2,15.5-.8-1c-.7,0-1.1-.2-1.1-.8s-.6-.3-.8-.8h2.6v2.6Zm13.1-2.5a2.54,2.54,0,0,0-.2,1.2v.7c0,.5-.6.7-1.7.7v-2.6h1.9Zm-13.1-17.3h9.2c1.6,0,2.3.4,2.3,1.4H144.2c0-.2.1-.4.1-.6s-.1-.5-.1-.8Zm-2.5,8.3h2.5v1.7h-3.7a5.23,5.23,0,0,0,1.2-1.7Zm-9.8,8.1.1.1a2.52,2.52,0,0,0-.9,2,3.29,3.29,0,0,0-1.7-.4l-5.4.2v-1.1h3.6a2.71,2.71,0,0,0,2.5-1.1,4.56,4.56,0,0,0,.5-2.3c0-1.4-.2-2.2-.8-2.6a2.93,2.93,0,0,0-2.2-.7H124v-1.2h3.6a3.7,3.7,0,0,0,2.7-.9,3.14,3.14,0,0,0,1.7,2.3c-.1,0-.1,0-.1.1-.6.4-.8,1.3-.8,2.8a3.16,3.16,0,0,0,.8,2.8Zm-18-15.5v.4c0-.9.7-1.3,2-1.3h17.8c-.8,1.8-1.7,3.5-2.6,5.2a4,4,0,0,0-.8-2.9,3.53,3.53,0,0,0-2.6-.8H114A1.27,1.27,0,0,1,113.9,138Z" style="fill:#eaefb5"/><path d="M168,190.7c-1.8-.2-3.4-.5-5.1-.8,1.9-1,2.9-3.1,2.9-6.2V172.2c0-4.8-2.4-7.3-7.3-7.3H111.3c-4.8,0-7.3,2.4-7.3,7.3v11.5a7.22,7.22,0,0,0,2,5.6c-1.7.3-3.3.6-4.9.8a4,4,0,0,0-1.7,3,5.61,5.61,0,0,0,1.7,3.9,6.35,6.35,0,0,0,5.1,2.5,37.57,37.57,0,0,0,8.8-1.4,91.33,91.33,0,0,0,12.5-4.1c1.5-.8,2.2-1.4,2.2-2,0-.3-.1-.7-.1-1H140a3.37,3.37,0,0,0-.5,1.7c0,1.1,1.1,2,3.3,2.8,4.1,1.3,8.7,2.6,13.7,3.8a40.56,40.56,0,0,0,7,.8,6.87,6.87,0,0,0,6.1-3.3,8.11,8.11,0,0,0,1.1-4.1C170.7,191.4,169.8,190.7,168,190.7Z" style="fill:#cddc4c"/><path d="M80,176H34.6c-7.5,0-11.4-3.9-11.4-11.4V133.7c0-6.7,3.2-10.6,9.2-11.3H29.7a8.09,8.09,0,0,1-6.1-2.2c-1.3-1.4-2.2-3.6-2.2-6.9s.7-5.7,2.2-7a8.85,8.85,0,0,1,6.1-2.2H84.9c2.9,0,5,.8,6.4,2.2,1.3,1.2,1.9,3.5,1.9,6.9,0,2.7-.5,4.7-1.6,6.1-1.4,2-3.7,3-6.7,3H82.2c6,.7,9.2,4.6,9.2,11.3v30.9C91.4,172.1,87.4,176,80,176ZM34.6,125.2c-5.8,0-8.6,2.7-8.6,8.6v30.9c0,5.8,2.7,8.6,8.6,8.6H80c5.8,0,8.6-2.7,8.6-8.6V133.8c0-5.8-2.7-8.6-8.6-8.6H63.8a1.37,1.37,0,0,1-1.4-1.4.6.6,0,0,1,.1-.4l.8-2.7a1.64,1.64,0,0,1,1.4-1.1H85c2.1,0,3.6-.6,4.4-1.8a7.68,7.68,0,0,0,1-4.5c0-3.5-.7-4.6-1-4.8l-.1-.1c-.8-.9-2.2-1.3-4.3-1.3H29.7c-1.9,0-3.3.4-4.1,1.3l-.1.1c-.6.5-1.2,1.8-1.2,4.9,0,2.4.4,4.1,1.3,4.8l.1.1a5.11,5.11,0,0,0,4.1,1.3H47.5a1.37,1.37,0,0,1,1.4,1.4.6.6,0,0,1-.1.4l-.7,2.7a1.41,1.41,0,0,1-1.4,1ZM24.5,107.3ZM70,160.6H44.6a3.43,3.43,0,0,1-3.8-3.2v-1.8a1.37,1.37,0,0,1,1.4-1.4H72.5a1.37,1.37,0,0,1,1.4,1.4v1.2a3.49,3.49,0,0,1-3.2,3.8Zm-26.4-3.7c0,.6.2.8,1,.8H70c.8,0,1-.1,1-.8Zm28.8-13.6H42.1a1.37,1.37,0,0,1-1.4-1.4h0v-.3a3.43,3.43,0,0,1,3.2-3.8H70a3.43,3.43,0,0,1,3.8,3.2v.9a1.37,1.37,0,0,1-1.4,1.4Z" style="fill:#396729"/><path d="M164,201.2a45.5,45.5,0,0,1-7.3-.9c-5.1-1.2-9.7-2.5-13.9-3.8-2.8-1-4.2-2.4-4.2-4.1v-.2h-6.9c-.3,1.3-1.7,2.2-2.9,2.9h-.1a80.58,80.58,0,0,1-12.6,4.1,46.73,46.73,0,0,1-9.1,1.5,7.92,7.92,0,0,1-6.2-3,7.28,7.28,0,0,1-2.1-4.8,5.67,5.67,0,0,1,2.1-4,2.51,2.51,0,0,1,.7-.4c.9-.1,1.8-.3,2.6-.4a10.3,10.3,0,0,1-1-4.6V172c0-3,.9-5.3,2.6-6.8H105a5.06,5.06,0,0,1-3.7-1.6,5.78,5.78,0,0,1-1.2-3.6v-.2a6.76,6.76,0,0,1,1.3-3.9,3.6,3.6,0,0,1,2.3-1.3l-.2-.2a4.88,4.88,0,0,1-1.3-3.6,4.81,4.81,0,0,1,1.3-3.8h0c-.3-.2-.5-.4-.8-.6a4.6,4.6,0,0,1-1.4-3.6c-.2-.1-.5-.3-.7-.4a6.73,6.73,0,0,1-2.5-5.6v-.4c0-4.3,1.8-9.4,10-9.4h20.2l.3-.3c1.4-1.2,3.6-1.8,6.7-1.8s5.3.6,6.8,1.9c.1.1.2.2.3.2h19.9c8.3,0,10,5.1,10,9.4v.8c0,2.6-.9,4.5-2.6,5.6-.4.3-.9.6-1.4.9a4.19,4.19,0,0,1-.4,1.5c0,.1-.1.1-.1.2l-.3.3a4.2,4.2,0,0,1,2.5,1.2c.8.7,1.1,1.9,1.1,3.8a4.89,4.89,0,0,1-.9,3.3c-.1.2-.3.3-.4.5a3.4,3.4,0,0,1,.1,1v2.8a6.32,6.32,0,0,1-5.3,6.6c2,1.4,3.1,3.9,3.1,7.2v11.5a9.5,9.5,0,0,1-1.2,5.2l2.1.3c3.7.1,3.9,2.6,3.9,3.4a10.15,10.15,0,0,1-1.3,4.8.1.1,0,0,1-.1.1A7.75,7.75,0,0,1,164,201.2Zm-33.8-11.9h10.4a1.39,1.39,0,0,1,1.2.7,1.71,1.71,0,0,1,0,1.4,1.69,1.69,0,0,0-.3,1c0,.2.5.8,2.3,1.4,4,1.3,8.6,2.6,13.5,3.7a51,51,0,0,0,6.7.8,5.41,5.41,0,0,0,4.8-2.6,6.65,6.65,0,0,0,.9-3.4c0-.2,0-.5-1.3-.6h-.2l-5.1-.8a1.46,1.46,0,0,1-.5-2.7c1.4-.8,2.1-2.4,2.1-4.9V172c0-4-1.8-5.8-5.8-5.8H111.7c-4,0-5.8,1.8-5.8,5.8v11.5a6.07,6.07,0,0,0,1.6,4.6,1.49,1.49,0,0,1,.4,1.4,1.57,1.57,0,0,1-1.1,1c-1.5.3-3,.5-4.5.8a2.6,2.6,0,0,0-.9,1.6,4.11,4.11,0,0,0,1.3,2.9,5.21,5.21,0,0,0,4.1,2.1,38.74,38.74,0,0,0,8.4-1.3,85.72,85.72,0,0,0,12.1-4,4.19,4.19,0,0,0,1.4-.9.6.6,0,0,0-.1-.4,1.47,1.47,0,0,1,1-1.8,1,1,0,0,1,.6-.2Zm39.9,7.1ZM103,159.8a3.45,3.45,0,0,0,.5,1.8l.1.1a2,2,0,0,0,1.5.6l24.8-.9a2.36,2.36,0,0,0,1.6-.7,1.5,1.5,0,0,1,1.1-.4,1.1,1.1,0,0,1,1,.6c.8,1.1,2.8,1.3,4.3,1.3h23.7c4.7,0,5.4-2.1,5.4-4.1v-2.8a4.25,4.25,0,0,0-.2-1.1,1.4,1.4,0,0,1,.8-1.8l.3-.3a2.49,2.49,0,0,0,.3-1.7,3.72,3.72,0,0,0-.2-1.8c-.2-.2-.5-.4-1.6-.4H155.9a1.37,1.37,0,0,1-1.4-1.4v-1.7a1.37,1.37,0,0,1,1.4-1.4h8.2a2.23,2.23,0,0,0,1.4-.3c.1-.3.2-.7.3-1.1a1.55,1.55,0,0,1,1-1.2,5.39,5.39,0,0,0,1.3-.7l.2-.1c.3-.2,1.3-.8,1.3-3.2v-.8c0-4.5-2.2-6.5-7.2-6.5H141.9a1.25,1.25,0,0,1-1.1-.6l-.4-.4c-.9-.8-2.6-1.2-4.9-1.2-2.9,0-4.2.6-4.8,1.1l-.1.1a1.21,1.21,0,0,0-.5.5,1.28,1.28,0,0,1-1,.4H108.3c-5,0-7.2,2-7.2,6.5v.4a4.07,4.07,0,0,0,1.4,3.4c.3.2.6.3.9.5a1.42,1.42,0,0,1,.9,1.3v.4c0,1.4.3,1.8.5,1.9l.1.1a2,2,0,0,0,1.5.5h4.5a1.37,1.37,0,0,1,1.4,1.4h0v1.2a1.37,1.37,0,0,1-1.4,1.4h-4.2a2,2,0,0,0-1.1.2,2.09,2.09,0,0,0-.4,1.7,2.41,2.41,0,0,0,.3,1.5l.1.1a1.13,1.13,0,0,0,1.1.3h4.2a1.37,1.37,0,0,1,1.4,1.4v1.6a1.37,1.37,0,0,1-1.4,1.4l-6.3.2a1.09,1.09,0,0,0-.9.4l-.1.1A4.06,4.06,0,0,0,103,159.8Zm63.8-15.5Zm-37-16.5Zm15,30.3a1.4,1.4,0,0,1-1.4-1.2l-.1-.3a2.19,2.19,0,0,1-1-.9,1.75,1.75,0,0,1-1.5-1,1.47,1.47,0,0,1,.7-1.9,1.27,1.27,0,0,1,.6-.1h2.6a1.37,1.37,0,0,1,1.4,1.4v2.6a1.42,1.42,0,0,1-1.3,1.4Zm11.2,0a1.37,1.37,0,0,1-1.4-1.4v-2.6a1.37,1.37,0,0,1,1.4-1.4h1.9a1.5,1.5,0,0,1,1.3,2.1,1.27,1.27,0,0,0-.1.6v.7c-.1.5-.4,2-3.1,2Zm-24.3-1.3a1.85,1.85,0,0,1-.7-.2,2,2,0,0,0-1.1-.2l-5.4.2a1.37,1.37,0,0,1-1.4-1.4v-1.1a1.37,1.37,0,0,1,1.4-1.4h3.4c1,0,1.3-.4,1.3-.5a3.64,3.64,0,0,0,.2-1.4,4.09,4.09,0,0,0-.2-1.6l-.1-.1c-.1-.1-.3-.3-1.2-.3h-3.6a1.37,1.37,0,0,1-1.4-1.4v-1.2a1.37,1.37,0,0,1,1.4-1.4h3.6a2.16,2.16,0,0,0,1.7-.5,1.42,1.42,0,0,1,2.4.9c0,.5.7.9,1,1.1a1.3,1.3,0,0,1,.6,1.6,1.6,1.6,0,0,1-.7.9,3,3,0,0,0-.2,1.6c0,1.4.3,1.7.4,1.8l.2.2a1.5,1.5,0,0,1,.4,1.1,1.23,1.23,0,0,1-.5,1,1.78,1.78,0,0,0-.4,1,1.33,1.33,0,0,1-.8,1.1c.1.1-.1.2-.3.2Zm13.1-8.5H141a1.43,1.43,0,0,1-1.4-1.4,1.61,1.61,0,0,1,.5-1.1,4.7,4.7,0,0,0,.9-1.2,1.34,1.34,0,0,1,1.3-.8h2.5a1.37,1.37,0,0,1,1.4,1.4v1.7a1.7,1.7,0,0,1-1.4,1.4Zm-13.2-4.8a.76.76,0,0,1-.4-.1,1.5,1.5,0,0,1-1.1-1.4,3.35,3.35,0,0,0-.3-1.8,2.16,2.16,0,0,0-1.7-.5H114.4a1.37,1.37,0,0,1-1.4-1.4.9.9,0,0,1,.1-.5v-.2a1.61,1.61,0,0,1,.3-.9,3.19,3.19,0,0,1,3.1-1.5h17.8a1.37,1.37,0,0,1,1.4,1.4,1.27,1.27,0,0,1-.1.6,45.33,45.33,0,0,1-2.7,5.4c-.4.6-.8.9-1.3.9Zm1.4-1.4Zm-1.1-3.8.1.1.1-.1Zm24.4,1.3H144.8a1.61,1.61,0,0,1-1.1-.5,1.31,1.31,0,0,1-.3-1.2v-.8a1.31,1.31,0,0,1,.3-1.2,1.61,1.61,0,0,1,1.1-.5h9.1c3.5,0,3.8,2.1,3.8,2.8a1.43,1.43,0,0,1-1.4,1.4Z" style="fill:#396729"/><ellipse cx="150.5" cy="150.3" rx="10.3" ry="9.5" style="fill:#fff"/><path d="M150.5,161c-6.4,0-11.5-4.8-11.5-10.8s5.2-10.8,11.5-10.8,11.5,4.8,11.5,10.8S156.8,161,150.5,161Zm0-19.1c-5,0-9.1,3.7-9.1,8.3s4.1,8.3,9.1,8.3,9.1-3.7,9.1-8.3-4.1-8.2-9.1-8.3Z" style="fill:#376432"/><path d="M195.6,176.5c-3,0-5.4-.9-7-2.7a6.9,6.9,0,0,1-2.3-4.9c-2.7-.2-5.2-1.7-7.3-4.5a10.72,10.72,0,0,1-2.4-7.1,7,7,0,0,1,1.5-3.9,81.21,81.21,0,0,0,6.2-8,7.48,7.48,0,0,1-3.4-1.8c-1.5-1.2-2.3-3.4-2.3-6.6s.8-5.6,2.3-7c1.1-1.1,3-1.7,5.6-1.7h.7a5.58,5.58,0,0,1,.5-.8,16.31,16.31,0,0,1-6.8-2.4c-3.3-1.7-4-4.1-4-5.7a11.9,11.9,0,0,1,1.1-4.1,60.66,60.66,0,0,0,3.4-7.9l.1-.2a7,7,0,0,1,6.8-4,15.79,15.79,0,0,1,7.7,1.7,5.1,5.1,0,0,1,2.2,1.9h9.9c2.9,0,4.8.7,5.8,2,.1.1.2.3.3.4l.6-1.5.1-.2a7,7,0,0,1,6.8-4,15.79,15.79,0,0,1,7.7,1.7,5.1,5.1,0,0,1,2.2,1.9h11.1c2.9,0,4.8.6,5.8,2a10.11,10.11,0,0,1,1.6,6.1,11.28,11.28,0,0,1-1.2,5.7c0,.1-.1.1-.1.2-1.2,1.4-3.1,2.2-5.8,2.2a5.68,5.68,0,0,1-1.2,2.6c5,.8,7.6,4.1,7.6,9.7v30.9c0,6.5-3.4,9.9-9.9,9.9H219.8c-6.5,0-9.9-3.4-9.9-9.9V163a10.42,10.42,0,0,1-4.9,1.5v4.1a7.84,7.84,0,0,1-1.9,5.1C201.5,175.5,199,176.5,195.6,176.5Zm-7.9-11c.2,0,.4.1.6.1a1.34,1.34,0,0,1,.8,1.3v1.6a4.31,4.31,0,0,0,1.4,3.2l.1.1c1,1.2,2.6,1.8,4.9,1.8,2.5,0,4.3-.6,5.3-1.8a5.23,5.23,0,0,0,1.2-3.4v-5.7a1.37,1.37,0,0,1,1.4-1.4,1.27,1.27,0,0,1,.6.1h.3a8.44,8.44,0,0,0,4.9-1.6,9,9,0,0,0,.9-1,1.43,1.43,0,0,1,2-.4,1.22,1.22,0,0,1,.6,1.2v6.7c0,4.9,2.2,7.1,7.1,7.1h19.7c4.9,0,7-2.2,7-7.1V135.5c0-4.9-2.2-7.1-7-7.1h-1.9a1.5,1.5,0,0,1-1.4-1.1,1.55,1.55,0,0,1,.8-1.6l1.1-.5a3.83,3.83,0,0,0,2.3-3.5,1.37,1.37,0,0,1,1.4-1.4h1c1.9,0,3.1-.4,3.8-1.2a8.29,8.29,0,0,0,.7-4.1c0-2.6-.5-3.8-1-4.3-.2-.3-1-.9-3.6-.9H230.8a1.5,1.5,0,0,1-1.4-1,1.8,1.8,0,0,0-1.2-1.2l-.1-.1a12.64,12.64,0,0,0-6.3-1.4,4.17,4.17,0,0,0-4.2,2.4q-.9,2.4-2.1,5.4a1.39,1.39,0,0,1-1.9.7,1.59,1.59,0,0,1-.9-1.2,4.37,4.37,0,0,0-.9-3.1c-.2-.3-1-1-3.6-1H197.5a1.5,1.5,0,0,1-1.4-1,1.8,1.8,0,0,0-1.2-1.2h-.1a12.78,12.78,0,0,0-6.4-1.4,4.17,4.17,0,0,0-4.2,2.4,73.23,73.23,0,0,1-3.5,8.1,6,6,0,0,0-.8,2.9c0,.5,0,1.9,2.6,3.2a12.28,12.28,0,0,0,6.1,2,4.32,4.32,0,0,0,3.5-2.3.22.22,0,0,1,.2-.2,5.67,5.67,0,0,0,.8-1.3,1.21,1.21,0,0,1,1.2-.7h.4a1.34,1.34,0,0,1,1.3.8l1.8,4a1.39,1.39,0,0,1-.4,1.7,1.51,1.51,0,0,1-1.6.2h-.1a6.65,6.65,0,0,0-4.6,1.4l-.2.2a3.15,3.15,0,0,0-1.3,1.7,1.24,1.24,0,0,1-1.4.9h-1.6c-1.8,0-3,.3-3.6,1-.9.8-1.4,2.5-1.4,4.9,0,2.2.4,3.8,1.3,4.5a5,5,0,0,0,3.7,1.3h.2a1.39,1.39,0,0,1,1.2.7,1.2,1.2,0,0,1,0,1.4,85.18,85.18,0,0,1-7.7,10.2,5,5,0,0,0-.9,2.3,8.22,8.22,0,0,0,1.8,5.2c1.6,2.1,3.3,3.2,5.1,3.4.2-.1.3-.2.5-.3.4.2.6.1.9.2Zm44.1-1h-4.5a2.94,2.94,0,0,1-3.2-2.7V161a1.37,1.37,0,0,1,1.4-1.4h8.2a1.37,1.37,0,0,1,1.4,1.4v.3a3,3,0,0,1-2.8,3.2Zm-20.6-10.9a1.39,1.39,0,0,1-1.2-.7,27.76,27.76,0,0,0-4.1-5.6,2.34,2.34,0,0,0-1.7-.7c-.2,0-.3,0-.4.1a1.38,1.38,0,0,1-1.6-1.2v-1.2a1.37,1.37,0,0,1,1.4-1.4c2,0,3.4-.6,4.2-1.7.3-.4.7-1.4.7-4.1,0-3.4-.8-4.4-1.1-4.6-.1,0-.1-.1-.2-.1a5.68,5.68,0,0,0-3.8-1.1h-.3a1.5,1.5,0,0,1-1.4-1,3.75,3.75,0,0,0-.7-1.2,1.42,1.42,0,0,1,.1-2c.2-.1.4-.3.6-.3a10.36,10.36,0,0,0,3.2-1.5l.1-.1a3.25,3.25,0,0,0,2.1-3.1v-.4a1.37,1.37,0,0,1,1.4-1.4h0a5.82,5.82,0,0,0,1.9-.3,1.63,1.63,0,0,1,1.5.2,1.47,1.47,0,0,1,.5,1.4.9.9,0,0,1-.1.5c0,.5,0,1.9,2.6,3.2a16.27,16.27,0,0,0,2.3,1.1,1.3,1.3,0,0,1,.9,1.4,1.5,1.5,0,0,1-1.1,1.3c-1.9.4-4.5,1.6-4.5,6.8v16.6a1.47,1.47,0,0,1-1.1,1.4c0-.3-.1-.3-.2-.3Zm-3.8-8.8a1.21,1.21,0,0,1,.5.5c.6.7,1.2,1.4,1.8,2.2V143a5.78,5.78,0,0,1-2.3,1.8Zm1.7-14.7a4.43,4.43,0,0,1,1.2,1.5,8.09,8.09,0,0,1,3-4.3,7.2,7.2,0,0,1-3.5-3.8,6.35,6.35,0,0,1-3.4,4.1c-.4.3-.9.5-1.4.8a6.61,6.61,0,0,1,4.1,1.7ZM233.6,153h-8.2a1.37,1.37,0,0,1-1.4-1.4v-1.8a1.37,1.37,0,0,1,1.4-1.4h8.2a1.37,1.37,0,0,1,1.4,1.4v1.8A1.37,1.37,0,0,1,233.6,153Zm-.1-11.2h-8a1.78,1.78,0,0,1-1-.4,1.5,1.5,0,0,1-.4-1.1,2.9,2.9,0,0,1,2.9-2.9h4.7a3.07,3.07,0,0,1,3.2,2.7v.1a1.5,1.5,0,0,1-.4,1.1,1.23,1.23,0,0,1-1,.5Zm-4.7-13.3h-4.3a1.43,1.43,0,0,1-1.4-1.4,1.61,1.61,0,0,1,.5-1.1,3.25,3.25,0,0,0,1-1.3c.1-.1.1-.2.2-.3.3-.4.6-.9.9-1.3a1.46,1.46,0,0,1,1.9-.6,1.7,1.7,0,0,1,.6.6c.4.7.9,1.6,1.4,2.6,0,.1.1.1.1.2s.1.3.2.4a1.6,1.6,0,0,1,.2,1.5A1.56,1.56,0,0,1,228.8,128.5Z" style="fill:#396729"/><path d="M231.5,143.8a5.27,5.27,0,1,0-6.9-2.8,4.83,4.83,0,0,0,2.8,2.8l-2.5,4.3a2,2,0,0,0-.3,1.1v2.4s3.1-.6,4.8-.8c1.7.2,5,.8,5,.8v-2.4a2,2,0,0,0-.3-1.1Z" style="fill:#396729"/><path d="M150.6,174.1H120.3a1.42,1.42,0,0,1-1.3-1.5,1.49,1.49,0,0,1,1.3-1.3h30.3a1.42,1.42,0,0,1,1.3,1.5A1.4,1.4,0,0,1,150.6,174.1Z" style="fill:#376432"/><path d="M150.6,179.7H120.3a1.4,1.4,0,1,1,0-2.8h30.3a1.37,1.37,0,0,1,1.4,1.4,1.31,1.31,0,0,1-1.4,1.4Z" style="fill:#376432"/><path d="M150.6,185.6H120.3a1.42,1.42,0,0,1-1.3-1.5,1.49,1.49,0,0,1,1.3-1.3h30.3a1.42,1.42,0,0,1,1.3,1.5A1.4,1.4,0,0,1,150.6,185.6Z" style="fill:#376432"/><circle cx="144.3" cy="151.4" r="0.9" style="fill:#4a8137"/><path d="M150.2,156.6a6.15,6.15,0,0,1-5-2.2.71.71,0,0,1,.1-1.1h0a.71.71,0,0,1,1.1.1A5,5,0,0,0,151,155c.4-.1.8.3.9.7h0a1,1,0,0,1-.7.9Z" style="fill:#4a8137"/><path d="M68.8,230.3c-.1,0-.2,0-.3.2l-.4,1.7v.2l.1.1c.8.1,1.7.2,2.8.3h.1c.2.1.5.2.6.4a1,1,0,0,1,.2.9,1.37,1.37,0,0,1-.5.8,1,1,0,0,1-.9.2l-8.5-.8h-.2a1.61,1.61,0,0,1-.7-.4,1.69,1.69,0,0,1-.3-1v-.2a1.61,1.61,0,0,1,.4-.7,1.69,1.69,0,0,1,1-.3c1.2.2,2.2.3,2.9.4.1,0,.2-.1.3-.2h0l.4-2c0-.1,0-.2-.2-.3l-2.2-.5a1.28,1.28,0,0,1-.7-.5,1.49,1.49,0,0,1-.2-.9,2.18,2.18,0,0,1,.5-.8,1.49,1.49,0,0,1,.9-.2l2.2.5a.37.37,0,0,0,.3-.1h0l.3-1.4c0-.1,0-.2-.2-.3l-1.5-.3a1.95,1.95,0,0,1-1.4-2.4l1.3-5.7a2,2,0,0,1,2.3-1.5h.1l6.1,1.4a2,2,0,0,1,1.5,2.3L73.6,225a1.94,1.94,0,0,1-2.3,1.5l-1.6-.4a.37.37,0,0,0-.3.1v.1l-.3,1.4c0,.1,0,.2.1.2h.1l2.3.5a2.18,2.18,0,0,1,.8.5,1.49,1.49,0,0,1,.2.9,2.18,2.18,0,0,1-.5.8,1.49,1.49,0,0,1-.9.2Zm-2.3-8.9c-.1,0-.2,0-.2.1v.1l-.3,1.2a.37.37,0,0,0,.1.3h0l1.2.3a.37.37,0,0,0,.3-.1h0L68,222a.37.37,0,0,0-.1-.3h0Zm.8-3.6a.37.37,0,0,0-.3.1h0l-.3,1.2c0,.1,0,.2.2.3l1.2.3a.37.37,0,0,0,.3-.1v-.1l.3-1.2a.37.37,0,0,0-.1-.3h0Zm3.9,6.4a.37.37,0,0,0,.3-.1V224l.3-1.2a.37.37,0,0,0-.1-.3h-.1l-1.2-.3a.37.37,0,0,0-.3.1h0l-.3,1.2c-.1.1,0,.2.1.3H70Zm.8-3.6c.2,0,.2,0,.3-.2l.3-1.2a.37.37,0,0,0-.1-.3h0l-1.2-.3a.37.37,0,0,0-.3.1v.1l-.3,1.2c0,.1,0,.2.2.3Zm10,5.9a1.85,1.85,0,0,1,.7.2l.5.2a1.21,1.21,0,0,1,.5.5.45.45,0,0,1,0,.5c0,.1,0,.1-.1.2a37.56,37.56,0,0,1-1.8,3.5,1.34,1.34,0,0,1-.7.6h-.6l-.3-.1a.9.9,0,0,1-.6-.6v-.6c0-.1,0-.2.1-.2.2-.5.5-1,.8-1.6v-.2a.1.1,0,0,0-.1-.1l-1-.2c-.1,0-.2,0-.2.1v.1l-1.5,6.9a4,4,0,0,1-.6,1.5,2.1,2.1,0,0,1-1.1.7,6.47,6.47,0,0,1-2.4-.1h-.1a1.8,1.8,0,0,1-.9-.6,2.1,2.1,0,0,1-.4-1.1v-.3a.85.85,0,0,1,.3-.5.78.78,0,0,1,.8-.2h0l.5.1c.2,0,.4.1.6.1h.4c.1,0,.1-.1.2-.3l1.5-6.8a.37.37,0,0,0-.1-.3h0l-1.5-.3a1.27,1.27,0,0,1-1-1.5h0a1.56,1.56,0,0,1,.6-.8,1.23,1.23,0,0,1,1-.2l3.2.7h.1c.1,0,0-.1,0-.1a18.78,18.78,0,0,0-2.5-2.4.91.91,0,0,1-.3-.7v-.1a.66.66,0,0,1,.4-.5,1.69,1.69,0,0,1,1-.3h.3a2.12,2.12,0,0,1,.7.3l.6.5a.3.3,0,0,0,.4,0,9.83,9.83,0,0,0,1.5-1.2v-.1a.1.1,0,0,0-.1-.1l-3.9-.9a2.18,2.18,0,0,1-.8-.5,1.49,1.49,0,0,1-.2-.9,2.18,2.18,0,0,1,.5-.8,1.49,1.49,0,0,1,.9-.2L83,219h.4c.2.1.5.2.6.4l.4.4a1.14,1.14,0,0,1,.3.8v.2a2.19,2.19,0,0,1-.3.5,19.12,19.12,0,0,1-3.5,2.7.19.19,0,0,0,0,.3l.9.9a1.42,1.42,0,0,1,.2.6.55.55,0,0,1-.3.5v.1l.3.1Z" style="fill:#fff"/><path d="M103.8,221.5a1.69,1.69,0,0,1,1-.3,1.23,1.23,0,0,1,1,.5,1.69,1.69,0,0,1,.3,1l-1.2,8.9a.6.6,0,0,0,.1.4,18,18,0,0,0,2.9,2.6,1.05,1.05,0,0,1,.5.9v.2a1,1,0,0,1-.4.7,1.66,1.66,0,0,1-1.2.5h-.3a1.14,1.14,0,0,1-.8-.3c-.4-.3-.8-.7-1.2-1h-.1l-.1.1-.7,5.3a1.05,1.05,0,0,1-.5.9,2,2,0,0,1-1.1.3,1.38,1.38,0,0,1-1.2-1.6l1-7.9a.6.6,0,0,0-.1-.4,33.53,33.53,0,0,1-2.1-3.6.1.1,0,1,0-.2,0c-2.2,5.3-5.2,9-9.1,11a1.8,1.8,0,0,1-1,.2c-.1,0-.2,0-.2-.1a2.29,2.29,0,0,1-1-.7.78.78,0,0,1-.2-.8,1.15,1.15,0,0,1,.6-.9,16.08,16.08,0,0,0,5.4-4.3.19.19,0,0,0,0-.3h0a37,37,0,0,0-2.8-2.8.19.19,0,0,0-.3,0h0l-.1.1a1.28,1.28,0,0,1-1,.4h-.1a1.05,1.05,0,0,1-.9-.5,1.09,1.09,0,0,1-.4-.9V229a1.23,1.23,0,0,1,.4-.8,19.9,19.9,0,0,0,5-7.2,1.55,1.55,0,0,1,.8-.8,1.06,1.06,0,0,1,.8-.1l.3.1a1.78,1.78,0,0,1,.8.7,1.48,1.48,0,0,1,.1.7c0,.1-.1.2-.1.4l-.6,1.2v.1l.1.1,2.9.4h.4c.2,0,.3.1.5.1l.5.2a1,1,0,0,1,.5.6,1.27,1.27,0,0,1,.1.6v.2l-.3,1h0a.88.88,0,0,1,.7.1.66.66,0,0,1,.4.5c.2.5.5,1,.7,1.4h.1a.1.1,0,0,0,.1-.1l.8-6A.87.87,0,0,1,103.8,221.5Zm-6.2,4.9v-.2l-.1-.1-2.9-.4c-.1,0-.3,0-.3.2-.4.7-.9,1.4-1.4,2.1a.19.19,0,0,0,0,.3h0a28.48,28.48,0,0,1,2.6,2.3h.1c.1,0,.1,0,.1-.1A22.16,22.16,0,0,0,97.6,226.4Z" style="fill:#fff"/><path d="M120.4,226.3a.91.91,0,0,1,.8.4,1.1,1.1,0,0,1-.8,1.9l-5.4-.2a.67.67,0,0,1-.7-.4,1.14,1.14,0,0,1-.3-.8,1,1,0,0,1,1.1-1Zm12.4-2.4a2,2,0,0,1,1.4.6,1.87,1.87,0,0,1,.5,1.4l-.7,15.5a4.15,4.15,0,0,1-.3,1.6,1.76,1.76,0,0,1-.8.9,5.38,5.38,0,0,1-2.2.4h-.1a1,1,0,0,1-.9-.4,2.07,2.07,0,0,1-.6-1v-.3a1.42,1.42,0,0,1,.2-.6.83.83,0,0,1,.8-.3h1a.35.35,0,0,0,.4-.4l.7-14.9a.22.22,0,0,0-.2-.2l-6.8-.3c-.2,0-.2.1-.2.2l-.3,5.9c-.1,1.9-.3,3.7-.5,5.5a21.1,21.1,0,0,1-1.2,4.8,1.37,1.37,0,0,1-1,.8c-.1,0-.3.1-.4.1a1.61,1.61,0,0,1-.9-.3l-.2-.1a.6.6,0,0,0-.4-.1l-3.7-.2a.1.1,0,0,0-.1.1h0a.86.86,0,0,1-.3.6,1.42,1.42,0,0,1-.6.2h-.2a.91.91,0,0,1-.7-.3,1.14,1.14,0,0,1-.3-.8l.2-4.8a2,2,0,0,1,.6-1.4,1.87,1.87,0,0,1,1.4-.5l2.2.1a1.79,1.79,0,0,1,1.8,2l-.2,4.2v.1h.1a13.91,13.91,0,0,0,1.3-4.4,50.66,50.66,0,0,0,.5-5.6l.3-6.5a2,2,0,0,1,.6-1.4,1.87,1.87,0,0,1,1.4-.5Zm-17.3,10.5a.94.94,0,0,1-1-1,.91.91,0,0,1,.3-.7,1.08,1.08,0,0,1,.7-.3l4,.2a.94.94,0,0,1,1,1v.1a.91.91,0,0,1-.3.7,1.08,1.08,0,0,1-.7.3Zm4.2-5a.94.94,0,0,1,1,1,.91.91,0,0,1-.4.8,1.08,1.08,0,0,1-.7.3l-4-.2a.91.91,0,0,1-.7-.3,1.09,1.09,0,0,1,.1-1.5,1.08,1.08,0,0,1,.7-.3Zm.3-6.2a.91.91,0,0,1,.7.3,1.08,1.08,0,0,1,.3.7.91.91,0,0,1-.3.7,1.08,1.08,0,0,1-.7.3l-3.8-.2a1.05,1.05,0,0,1,.1-2.1Zm-2.2,17.2a.22.22,0,0,0,.2-.2v-.1l.1-2.2c0-.1,0-.2-.2-.2h-.1l-1.4-.1c-.2,0-.2.1-.2.2l-.1,2.2a.22.22,0,0,0,.2.2Zm12.9-1.8a2.1,2.1,0,0,1-.7,1.4,1.87,1.87,0,0,1-1.4.5l-1.7-.1c-.1,0-.1,0-.1.1a.68.68,0,0,1-.7.7h-.3a.92.92,0,0,1-.9-1h0l.2-3.9a2,2,0,0,1,.6-1.4,1.87,1.87,0,0,1,1.4-.5l1.7.1a1.92,1.92,0,0,1,1.9,2Zm-5.2-5.8a1.08,1.08,0,0,1-.3-.7,1,1,0,0,1,1-1h.7a.22.22,0,0,0,.2-.2v-1.2c0-.1,0-.2-.2-.2h-.6a1,1,0,0,1,0-2h.6c.1,0,.1,0,.2-.1h0v-.3a1,1,0,0,1,1.1-1,.78.78,0,0,1,.7.3,1.14,1.14,0,0,1,.3.8v.3c0,.1,0,.1.1.2h.7a.91.91,0,0,1,.7.3.62.62,0,0,1,.2.7,1,1,0,0,1-1,1h-.6a.22.22,0,0,0-.2.2l-.1,1.2a.22.22,0,0,0,.2.2h.8a.91.91,0,0,1,.7.3,1,1,0,0,1-.1,1.4.91.91,0,0,1-.7.3l-4-.2a.54.54,0,0,1-.4-.3Zm3.3,3.8a.22.22,0,0,0-.2-.2l-1.3-.1c-.1,0-.2,0-.2.2v.1l-.1,1.7a.22.22,0,0,0,.2.2h0l1.3.1a.22.22,0,0,0,.2-.2Z" style="fill:#fff"/><path d="M149.3,226.4l-.1-3.5,1.2.1q.6,0,.6.3c0,.4-.2.5-.3.5s-.3.1-.3.2l.1,2.4,6.3-.3,1.4-1.3,1.5,1a.52.52,0,0,1,.2.4c0,.3-.2.4-.5.5l-8.2.4a16.32,16.32,0,0,0,8.9,4.8.22.22,0,0,1,.2.2c0,.1-.1.2-.4.3a1.21,1.21,0,0,0-.5.5c-.1.2-.1.3-.2.3h0a16.19,16.19,0,0,1-8.4-6.1h-.2l.2,5.5a.27.27,0,0,1-.3.3c-.7.2-.8.2-.9-.3l-.2-5.3a15.45,15.45,0,0,1-1.9,2.4,19.35,19.35,0,0,1-7.7,4.5.22.22,0,0,1-.2-.2c0-.1,0-.1.1-.2a19.75,19.75,0,0,0,3.8-2,13.79,13.79,0,0,0,4.8-4.8l-8.2.4-.2-.7Zm8.8,15.8,1.4-1.3,1.5,1a.52.52,0,0,1,.2.4c0,.3-.2.4-.5.5l-20.4.9-.2-.7Zm-13.5-9.5,1,.6,8.9-.4.6-.6,1.1.6c.1,0,.1.1.1.2a.43.43,0,0,1-.4.4q-.3.15-.3.3l.3,7.6a.76.76,0,0,1-.2.4c-.8.2-.9.2-.9-.3v-.8l-8.8.4c0,.7,0,.8-.2.9-.7.2-.9.2-.9-.3Zm1.2,1.3.1,2.8,8.8-.4-.1-2.8Zm.2,3.5.1,2.9,8.8-.4-.1-2.9Z" style="fill:#fff"/><path d="M185.4,225.9l.4.3a1.75,1.75,0,0,0,.1.5,1,1,0,0,1-.2.9,1.37,1.37,0,0,1-.8.5l-1,.1a.22.22,0,0,0-.2.2h0l.2,1.6a.22.22,0,0,0,.2.2h0l.8-.1a1.26,1.26,0,0,1,.3,2.5l-.8.1a.22.22,0,0,0-.2.2l.6,4.5a4.3,4.3,0,0,1,0,1.6,1.59,1.59,0,0,1-.8,1,7.54,7.54,0,0,1-2.4.8h-.1a1.8,1.8,0,0,1-1-.2,1.76,1.76,0,0,1-.8-.9c0-.1-.1-.2-.1-.3a1.27,1.27,0,0,1,.1-.6.75.75,0,0,1,.7-.5h0l1.3-.2c.1,0,.3-.1.4-.1a.37.37,0,0,0,.1-.3l-.6-4.5a.22.22,0,0,0-.2-.2h0l-4.3.6c-.1,0-.1,0-.1.1v.1a12.87,12.87,0,0,1,2.1,1.9.86.86,0,0,1,.3.6v.3a1.19,1.19,0,0,1-.5.9l-.6.3H178a1.49,1.49,0,0,1-.9-.4,6.47,6.47,0,0,0-.8-.9,1.39,1.39,0,0,1-.5-1v-.3a1.43,1.43,0,0,1,.6-1.2l.1-.1v-.1h-.1l-1.5.2a1.08,1.08,0,0,1-.8-.2,1,1,0,0,1-.4-.7.1.1,0,0,0-.1-.1l-.8.4-.8.4c-.1.1-.2.2-.2.3l.9,6.9a1,1,0,0,1-.2.9,1.37,1.37,0,0,1-.8.5,1.25,1.25,0,0,1-1.4-1h0l-.8-6.1c0-.1,0-.1-.1-.1h-.2l-1.8.8c-.1.1-.2.1-.4.1a1.27,1.27,0,0,1-.6-.1,1.21,1.21,0,0,1-.7-.7c0-.1-.1-.2-.1-.3a1.7,1.7,0,0,1,.1-.7,1.21,1.21,0,0,1,.7-.7c.7-.3,1.5-.6,2.4-1,.1-.1.2-.2.2-.3l-.5-3.7a.22.22,0,0,0-.2-.2h-.1l-1.1.1c-.1,0-.2.1-.2.3h0a7.77,7.77,0,0,1-.2,1.6.63.63,0,0,1-.5.6c-.1,0-.2.1-.3.1a.9.9,0,0,1-.5-.1c-.3-.1-.5-.4-.7-.6s-.1-.3-.2-.5v-.4a30.12,30.12,0,0,0,.1-5.2,1.14,1.14,0,0,1,.3-.8.71.71,0,0,1,.6-.3h.2a.91.91,0,0,1,.8.4.86.86,0,0,1,.3.6v1.5c0,.1,0,.1.1.1h.1l.6-.1a.22.22,0,0,0,.2-.2h0l-.4-2.8a1,1,0,0,1,.2-.9,1.37,1.37,0,0,1,.8-.5,1.34,1.34,0,0,1,.9.2,1.37,1.37,0,0,1,.5.8l.4,2.8a.22.22,0,0,0,.2.2,1.52,1.52,0,0,1,1.3.3,1.9,1.9,0,0,1,.7,1.1v.2a.22.22,0,0,0,.2.2l4.5-.6a.22.22,0,0,0,.2-.2v-.1l-.2-1.5a.22.22,0,0,0-.2-.2h0l-2.6.4a1,1,0,0,1-.9-.2,1.37,1.37,0,0,1-.5-.8,1,1,0,0,1,.2-.9,1.37,1.37,0,0,1,.8-.5l2.6-.4a.22.22,0,0,0,.2-.2h0l-.1-.5a1.34,1.34,0,0,1,1.1-1.5h0a1,1,0,0,1,1,.3,1.05,1.05,0,0,1,.5.9l.1.5a.22.22,0,0,0,.2.2l2.7-.4a1.17,1.17,0,0,1,1.4,1,1.34,1.34,0,0,1-.2.9,1.37,1.37,0,0,1-.8.5l-2.7.4a.22.22,0,0,0-.2.2v.1l.2,1.5a.22.22,0,0,0,.2.2h0l3.7-.5C184.8,225.6,185.2,225.7,185.4,225.9Zm-4.4,4.9a.22.22,0,0,0,.2-.2v-.1l-.2-1.6a.22.22,0,0,0-.2-.2h0l-6,.8a1.9,1.9,0,0,1-2.1-1.6.22.22,0,0,0-.2-.2l-1.1.1a.22.22,0,0,0-.2.2v.1l.4,3a.1.1,0,0,0,.1.1h.1l.8-.3a.35.35,0,0,0,.2-.1,1.27,1.27,0,0,1,.6.1c.3.1.4.4.5.6s.1.1.2.1Z" style="fill:#fff"/><path d="M210.1,228.4h0v.1a1.09,1.09,0,0,1,.4,1.8l-1.1,1.1v.1a.1.1,0,0,0,.1.1,12.66,12.66,0,0,0,2.6.4.84.84,0,0,1,.7.4c0,.1.1.2.1.3v.5a3.59,3.59,0,0,1-.7,1l-.6.3h-.5a11.19,11.19,0,0,1-5.2-1.8h-.1v.2a1.67,1.67,0,0,1-.1,1.2,2,2,0,0,1-.9.9l-3.1,1.3-2.2.9-.2.1a1.13,1.13,0,0,1-.8-.1,1.21,1.21,0,0,1-.7-.7c0-.1,0-.1-.1-.2a1.13,1.13,0,0,1,.1-.8,1.06,1.06,0,0,1,.7-.6,6.89,6.89,0,0,0,.8-.3c.1,0,.2-.1.2-.3h0l-.7-3a.22.22,0,0,0-.2-.2h-.1l-.9.2a1.41,1.41,0,0,1-.9-.1,1.16,1.16,0,0,1-.5-.7,1.23,1.23,0,0,1,.8-1.4l2.1-.5a.22.22,0,0,0,.2-.2h0l-.3-1.1a.22.22,0,0,0-.2-.2h-.1l-1.5.4a1.41,1.41,0,0,1-.9-.1,1.16,1.16,0,0,1-.5-.7,1.41,1.41,0,0,1,.1-.9,1.16,1.16,0,0,1,.7-.5l1.5-.4a.22.22,0,0,0,.2-.2v-.1l-.2-1a.22.22,0,0,0-.2-.2h-.1l-2.8.7a.22.22,0,0,0-.2.2h0l.1.3q.75,3.3,1.2,6.6a20.15,20.15,0,0,1-.2,6,1,1,0,0,1-.6.8.37.37,0,0,1-.3.1.85.85,0,0,1-.7,0,1.24,1.24,0,0,1-.8-.6c-.1-.1-.1-.3-.2-.4a.64.64,0,0,1,0-.6,13.33,13.33,0,0,0,.3-2.8,15.14,15.14,0,0,0-.2-3c-.1-1-.3-1.9-.4-2.7a15.79,15.79,0,0,0-.6-2.6l-1.1-4.7a2.62,2.62,0,0,1,.2-1.5,2.15,2.15,0,0,1,1.2-.9L206,215a2,2,0,0,1,1.5.2,2.15,2.15,0,0,1,.9,1.2l.5,2.2a1.87,1.87,0,0,1-1.4,2.3h0l-.9.2a.22.22,0,0,0-.2.2v.1l.2,1a.22.22,0,0,0,.2.2h0l1.9-.5a1.13,1.13,0,0,1,1.3.9,1.17,1.17,0,0,1-.8,1.3l-1.9.5a.22.22,0,0,0-.2.2v.1l.3,1.1c0,.1.1.2.3.2l2.9-.7a1.41,1.41,0,0,1,.9.1,1.16,1.16,0,0,1,.5.7,1.41,1.41,0,0,1-.1.9,1.16,1.16,0,0,1-.7.5Zm-16-8a.22.22,0,0,0-.2.2h0l.3,1.1a.22.22,0,0,0,.2.2h0l11.3-2.8c.1,0,.2,0,.2-.1v-.1l-.3-1.1a.22.22,0,0,0-.2-.2h-.1Zm6.5,2.5c-.1,0-.2.1-.2.3l.3,1c0,.1.1.2.3.2l2.9-.7a.22.22,0,0,0,.2-.2v-.1l-.2-1a.22.22,0,0,0-.2-.2h0Zm.7,7.6a.22.22,0,0,0-.2.2v.1l.6,2.7a.1.1,0,0,0,.1.1h.2q2.4-.9,3-1.2a.1.1,0,0,0,.1-.1v-.1a17,17,0,0,1-1.9-1.9c-.1-.1-.2-.2-.4-.1Zm.2-4c-.1,0-.2.1-.2.3l.3,1.1c0,.1.1.2.3.2l2.9-.7a.22.22,0,0,0,.2-.2h0l-.3-1.1a.22.22,0,0,0-.2-.2h0Zm7.4,2.3h0l-3.1.7a.1.1,0,0,0-.1.1v.1a10.59,10.59,0,0,0,1.2,1,.25.25,0,0,0,.4-.1,20.93,20.93,0,0,0,1.6-1.8Z" style="fill:#fff"/><rect x="137.9" y="222.1" width="25.3" height="23.4" style="fill:#7ebc25"/><path d="M152.2,241.2l7.2-.3a1.61,1.61,0,0,1,.9.3,1.23,1.23,0,0,1,.4.8,1.61,1.61,0,0,1-.3.9,1.27,1.27,0,0,1-.9.4l-17.4.6a1.13,1.13,0,0,1-1.2-1.1v-.1a1.61,1.61,0,0,1,.3-.9,1.23,1.23,0,0,1,.8-.4l6.9-.2" style="fill:#fff"/><path d="M141.4,228l4.3-.2h.1v.1a17.73,17.73,0,0,1-4.9,3.1,1.06,1.06,0,0,0-.6.7v.2a1.42,1.42,0,0,0,.2.6,2.07,2.07,0,0,0,1,.6.9.9,0,0,0,.5.1,1.42,1.42,0,0,0,.6-.2,17.78,17.78,0,0,0,5.9-4.6h.1a.1.1,0,0,1,.1.1l.1,2.2a1.27,1.27,0,0,0,.4.9,1.8,1.8,0,0,0,.9.4,1.49,1.49,0,0,0,.9-.4,1.8,1.8,0,0,0,.4-.9l-.1-2.2.1-.1h.1a18.13,18.13,0,0,0,6.2,4.1,1.48,1.48,0,0,0,.7.1.75.75,0,0,0,.5-.1,2.29,2.29,0,0,0,1-.7,1.42,1.42,0,0,0,.2-.6.37.37,0,0,0-.1-.3c-.1-.3-.3-.6-.6-.6a16.41,16.41,0,0,1-5.1-2.6v-.1h.1l4.6-.2a1.8,1.8,0,0,0,.9-.4,1,1,0,0,0,.3-.9,1.8,1.8,0,0,0-.4-.9,1.4,1.4,0,0,0-.9-.3l-7.4.3c-.1,0-.2,0-.2-.1v-.6a1.27,1.27,0,0,0-.4-.9,1.8,1.8,0,0,0-.9-.4,1.49,1.49,0,0,0-.9.4,1.8,1.8,0,0,0-.4.9v.5a.22.22,0,0,1-.2.2h0l-7.2.3a1.22,1.22,0,0,0-.9.4,1,1,0,0,0-.3.9,1.8,1.8,0,0,0,.4.9A1.61,1.61,0,0,0,141.4,228Z" style="fill:#fff"/><path d="M155.9,232.4l-10.9.4a1.61,1.61,0,0,0-1.3.6,1.9,1.9,0,0,0-.5,1.3l.1,4.1a1.94,1.94,0,0,0,2.4,1.8l9.5-.3c.3,0,2.8,0,2.7-2.1l-.1-4a1.43,1.43,0,0,0-.6-1.2A1.76,1.76,0,0,0,155.9,232.4Zm-.7,5.6a.22.22,0,0,1-.2.2l-8.9.3c-.1,0-.2,0-.2-.1v-.7a.22.22,0,0,1,.2-.2h0l8.9-.3c.1,0,.2,0,.2.1v.7Zm-.1-2.7a.22.22,0,0,1-.2.2l-8.9.3a.22.22,0,0,1-.2-.2v-.5a.22.22,0,0,1,.2-.2h0l8.9-.3a.22.22,0,0,1,.2.2Z" style="fill:#fff"/></svg>