<svg id="圖層_1" data-name="圖層 1" xmlns="http://www.w3.org/2000/svg" viewBox="0 0 113.6 113.6"><title>medal</title><circle cx="56.8" cy="56.8" r="54.4" style="fill:#fff"/><path d="M56.8,113.6a56.8,56.8,0,1,1,56.8-56.8A56.89,56.89,0,0,1,56.8,113.6Zm0-108.8a52,52,0,1,0,52,52A52,52,0,0,0,56.8,4.8Z" style="fill:#1a1a1a"/><circle cx="56.8" cy="56.8" r="42.4" style="fill:#eabd81"/><rect x="7.91" y="51.07" width="98.6" height="7.2" transform="translate(-20.14 71.35) rotate(-55.86)" style="fill:#fff"/><path d="M92.1,23.7,38.5,102.8l4.1,2.8,53-78.1A25,25,0,0,1,92.1,23.7Z" style="fill:#fff"/><polygon points="50.2 36.9 48.5 67.3 23.1 61.5 30.3 34.1 36.1 26.9 45.7 28 50.2 36.9" style="fill:#eabd81"/><polygon points="75.2 27.6 83 31.7 90.9 63.2 63.9 65.3 61.5 36.9 65.6 29 75.2 27.6" style="fill:#eabd81"/><circle cx="35.3" cy="67.9" r="14.4" style="fill:#fff;stroke:#1a1a1a;stroke-linecap:round;stroke-linejoin:round;stroke-width:4.010000228881836px"/><path d="M28.6,36.4a11.48,11.48,0,0,1,22.7,3.5" style="fill:none;stroke:#1a1a1a;stroke-linecap:round;stroke-linejoin:round;stroke-width:4.010000228881836px"/><line x1="51.3" y1="40" x2="49.5" y2="70.1" style="fill:none;stroke:#1a1a1a;stroke-linecap:round;stroke-linejoin:round;stroke-width:4.010000228881836px"/><line x1="28.6" y1="36.4" x2="21" y2="65.6" style="fill:none;stroke:#1a1a1a;stroke-linecap:round;stroke-linejoin:round;stroke-width:4.010000228881836px"/><circle cx="77.8" cy="67.9" r="14.4" style="fill:#fff;stroke:#1a1a1a;stroke-linecap:round;stroke-linejoin:round;stroke-width:4.010000228881836px"/><path d="M84.5,36.4A11.5,11.5,0,0,0,61.8,40" style="fill:none;stroke:#1a1a1a;stroke-linecap:round;stroke-linejoin:round;stroke-width:4.010000228881836px"/><line x1="61.8" y1="40" x2="63.6" y2="70.1" style="fill:none;stroke:#1a1a1a;stroke-linecap:round;stroke-linejoin:round;stroke-width:4.010000228881836px"/><line x1="84.5" y1="36.4" x2="92.1" y2="65.6" style="fill:none;stroke:#1a1a1a;stroke-linecap:round;stroke-linejoin:round;stroke-width:4.010000228881836px"/><path d="M46.8,46.8s8.9-9.4,19.4,0" style="fill:none;stroke:#1a1a1a;stroke-linecap:round;stroke-linejoin:round;stroke-width:4.010000228881836px"/></svg>