<?xml version="1.0" encoding="utf-8"?>
<!-- Generator: Adobe Illustrator 21.1.0, SVG Export Plug-In . SVG Version: 6.00 Build 0)  -->
<svg version="1.1" id="圖層_1" xmlns="http://www.w3.org/2000/svg" xmlns:xlink="http://www.w3.org/1999/xlink" x="0px" y="0px"
	 viewBox="0 0 113.6 113.6" style="enable-background:new 0 0 113.6 113.6;" xml:space="preserve">
<style type="text/css">
	.st0{fill:#FFFFFF;}
	.st1{fill:#1A1A1A;}
	.st2{fill:#EABD81;}
	.st3{fill:#FFFFFF;stroke:#1A1A1A;stroke-width:4.01;stroke-linecap:round;stroke-linejoin:round;}
	.st4{fill:none;stroke:#1A1A1A;stroke-width:4.01;stroke-linecap:round;stroke-linejoin:round;}
</style>
<title>互動設計UI</title>
<g>
	<circle class="st0" cx="56.8" cy="56.8" r="54.4"/>
	<path class="st1" d="M56.8,113.6C25.5,113.6,0,88.1,0,56.8C0,25.5,25.5,0,56.8,0c31.3,0,56.8,25.5,56.8,56.8
		C113.6,88.1,88.1,113.6,56.8,113.6z M56.8,4.8c-28.7,0-52,23.3-52,52c0,28.7,23.3,52,52,52c28.7,0,52-23.3,52-52
		C108.8,28.1,85.5,4.8,56.8,4.8z"/>
</g>
<circle class="st2" cx="56.8" cy="56.8" r="42.4"/>
<rect x="7.9" y="51.1" transform="matrix(0.5612 -0.8277 0.8277 0.5612 -20.1612 71.3167)" class="st0" width="98.6" height="7.2"/>
<path class="st0" d="M92.1,23.7l-53.6,79.1l4.1,2.8l53-78.1C94.3,26.3,93.1,25.1,92.1,23.7z"/>
<polygon class="st2" points="50.2,36.9 48.5,67.3 23.1,61.5 30.3,34.1 36.1,26.9 45.7,28 "/>
<polygon class="st2" points="75.2,27.6 83,31.7 90.9,63.2 63.9,65.3 61.5,36.9 65.6,29 "/>
<circle class="st3" cx="35.3" cy="67.9" r="14.4"/>
<path class="st4" d="M28.6,36.4c1-6.3,6.9-10.6,13.1-9.6s10.6,6.9,9.6,13.1"/>
<line class="st4" x1="51.3" y1="40" x2="49.5" y2="70.1"/>
<line class="st4" x1="28.6" y1="36.4" x2="21" y2="65.6"/>
<circle class="st3" cx="77.8" cy="67.9" r="14.4"/>
<path class="st4" d="M84.5,36.4c-1.2-6.2-7.2-10.4-13.4-9.2C65.1,28.4,61,34,61.8,40"/>
<line class="st4" x1="61.8" y1="40" x2="63.6" y2="70.1"/>
<line class="st4" x1="84.5" y1="36.4" x2="92.1" y2="65.6"/>
<path class="st4" d="M46.8,46.8c0,0,8.9-9.4,19.4,0"/>
</svg>
