<?xml version="1.0" encoding="utf-8"?>
<!-- Generator: Adobe Illustrator 21.1.0, SVG Export Plug-In . SVG Version: 6.00 Build 0)  -->
<svg version="1.1" id="圖層_1" xmlns="http://www.w3.org/2000/svg" xmlns:xlink="http://www.w3.org/1999/xlink" x="0px" y="0px"
	 viewBox="0 0 191.7 127.7" style="enable-background:new 0 0 191.7 127.7;" xml:space="preserve">
<style type="text/css">
	.st0{fill:#FFFFFF;}
	.st1{fill:#AE9378;}
	.st2{fill:#1A1A1A;}
	.st3{fill:#F9D1BF;}
</style>
<title>互動設計UI</title>
<path class="st0" d="M106.5,106.5c0,0,40.9-36.4,79.5-53.4c0,0,21.8-9.2-49.8-20.2L98.3,19.1c0,0-47.5-5.6-49.4,23.4
	C40.4,60.9,22.6,73.3,2.3,74.8c-0.8,0.4-1.6,0.9-2.3,1.4v51.5h118.8L106.5,106.5z"/>
<path class="st1" d="M106.5,106.5c0,0,40.9-36.4,79.5-53.4c0,0,21.8-9.2-49.8-20.2L98.3,19.1c0,0-38.7,6.3-40.6,35.2
	c0,0-1.2,33.1-36.3,36.2c-7.6,0.7-14.9,3-21.5,6.7v30.5h118.8L106.5,106.5z"/>
<path class="st2" d="M119.6,126.2c-12.5-14.5-5-25.9-3.7-27.7c20.6-16.7,71.2-42,71.7-42.2c0.3-0.2,0.6-0.4,0.9-0.6
	c3.2-3.1,3.5-6.1,3.2-8.1c-1-5.6-7.6-8.9-9-9.5c-0.5-0.2-1.1-0.3-1.7-0.3c-10.6,0.7-44.5-9.9-56.9-14.1c-21.3-10.2-40-11.9-55.5-4.9
	C47,28.3,39.3,50.9,38.3,54.2c-1,1.9-8.6,14.9-22.7,13.4h-0.4C10.1,67.8,5,68.6,0,69.9v7.4c4.9-1.5,10-2.3,15.1-2.6
	c19.7,1.9,29.2-16.8,29.6-17.6c0.1-0.2,0.2-0.4,0.2-0.6C45,56.3,51.7,34,71.4,25.2c13.6-6.1,30.3-4.4,49.7,4.9
	c0.1,0.1,0.3,0.1,0.4,0.2c1.8,0.6,43.8,14.9,58.9,14.6c2,1,4,2.8,4.2,3.9c0.1,0.4-0.3,1-0.7,1.4c-5.8,2.9-52.7,26.6-72.8,43.1
	c-0.2,0.1-0.3,0.3-0.5,0.5c-0.1,0.2-12.3,15.2,1.1,33.9h8.6C120.2,127.1,119.9,126.6,119.6,126.2z"/>
<path class="st2" d="M93,91.7c-6.7,0.1-13.4-1.8-19-5.5c-3.5-2.3-6.4-5.4-8.5-9c-0.1-0.2-0.2-0.5-0.3-0.8
	c-4.1-15.6,12.3-24.7,21.6-27.3c1.9-0.6,3.9,0.5,4.4,2.4s-0.5,3.9-2.4,4.4l0,0c-0.2,0.1-19.5,5.8-16.7,18.3
	c1.3,2.1,9.3,13.6,28.8,9.6c1.9-0.4,3.8,0.9,4.2,2.8s-0.9,3.8-2.8,4.2l0,0C99.2,91.4,96.1,91.7,93,91.7z"/>
<path class="st3" d="M98,75.7c-10.2,4.6-18-2.9-18-2.9s-3.3-9.5,13-11.9"/>
<path class="st2" d="M91.2,79.4c-4.7-0.1-9.2-1.9-12.8-5.1c-0.2-0.2-0.4-0.5-0.6-0.9c-0.8-2.6-0.4-5.4,1-7.8
	c2.2-3.7,6.8-6.1,13.7-7.1c1.2-0.2,2.3,0.7,2.5,1.9c0.2,1.2-0.7,2.3-1.9,2.5c-5.4,0.8-9,2.5-10.6,5c-0.7,1.1-0.9,2.3-0.7,3.6
	c4.2,3.5,10.1,4.3,15.1,2.1c1.1-0.6,2.4-0.3,3,0.8c0.6,1.1,0.3,2.4-0.8,3c-0.1,0.1-0.3,0.1-0.4,0.2C96.5,78.8,93.9,79.4,91.2,79.4z"
	/>
<path class="st2" d="M134.2,105.6H134c-1.5-0.1-2.5-1.4-2.4-2.9c2.8-31,12.3-44.3,12.8-44.9c0.9-1.2,2.6-1.3,3.7-0.4
	c1.1,0.9,1.3,2.4,0.6,3.6l0,0c-0.1,0.1-9.1,12.9-11.7,42.2C136.8,104.5,135.6,105.6,134.2,105.6z"/>
<path class="st2" d="M162.2,84.9c-1,0-1.8-0.5-2.3-1.3c-4.7-8.4-6.9-17.9-6.6-27.6c0.1-1.5,1.4-2.6,2.8-2.5c1.5,0.1,2.6,1.4,2.5,2.8
	l0,0c0,0.1-0.8,13,5.9,24.5c0.7,1.3,0.3,2.9-0.9,3.6C163.2,84.8,162.7,84.9,162.2,84.9L162.2,84.9z"/>
<path class="st2" d="M149.2,38.6H149c-1.5-0.1-2.5-1.4-2.4-2.9c0.2-2.7,2.5-26.8,8.7-34.8c0.9-1.1,2.6-1.3,3.7-0.3
	c1.1,0.9,1.3,2.5,0.5,3.6c-4.4,5.7-7,25-7.6,32C151.8,37.6,150.6,38.6,149.2,38.6z"/>
<path class="st2" d="M160.1,39.8c-0.2,0-0.4,0-0.5-0.1c-1.4-0.3-2.4-1.7-2.1-3.1c0,0,0,0,0,0c0.1-0.7,3.5-16.6,11.9-22.5
	c1.2-0.8,2.9-0.5,3.7,0.7c0.8,1.2,0.5,2.9-0.7,3.7c-5.6,3.9-9,15.2-9.8,19.2C162.4,38.9,161.3,39.8,160.1,39.8z"/>
<ellipse transform="matrix(0.773 -0.6345 0.6345 0.773 -3.3491 84.8624)" class="st2" cx="116.9" cy="47.1" rx="8.2" ry="8.4"/>
<path class="st0" d="M58.6,112.3c5,5.8,10.8,11,17.1,15.4h6.7L58.6,112.3z"/>
<path class="st2" d="M61.3,110.1c-1.3-1.5-3.5-1.7-5-0.4c-1.5,1.3-1.7,3.5-0.4,5c3.5,4,7.2,7.7,11.3,11.1c0.8,0.7,1.6,1.3,2.4,2
	h13.1C73.8,123.3,64.8,114.2,61.3,110.1z"/>
<path class="st2" d="M175.5,43.5c0,0-3.8,4.6,2.8,14l7.7-4.4l2.1-8.9"/>
</svg>
