<svg id="圖層_1" data-name="圖層 1" xmlns="http://www.w3.org/2000/svg" viewBox="0 0 677.8 185.2"><title>ribbon</title><path d="M102.8,71.4S76,72.9,19,63.9c0,0,33.9,43.7,46.4,52.8,0,0-33.9,31.7-62.4,43.7,0,0,67.6,21.9,144.4,21.9" style="fill:#fff"/><path d="M127.8,81.5s-36.7,8-93.8-1c0,0,18.9,27.1,31.4,36.1,0,0-33.9,31.7-62.4,43.7,0,0,67.6,21.9,144.4,21.9" style="fill:#7ebc25"/><polyline points="100 140.2 147.3 182.3 147.3 127.1" style="fill:#75ae21;stroke:#3e7c18;stroke-linecap:round;stroke-linejoin:round;stroke-width:5.909999847412109px"/><path d="M575,71.4s26.8,1.5,83.8-7.5c0,0-33.9,43.7-46.4,52.8,0,0,33.9,31.7,62.4,43.7,0,0-67.5,21.9-144.4,21.9" style="fill:#fff"/><path d="M573.5,82.5s21.4,7.1,69.3-3.1c0,0-17.9,28.1-30.4,37.1,0,0,33.9,31.7,62.4,43.7,0,0-67.5,21.9-144.4,21.9" style="fill:#7ebc25"/><path d="M147.3,185.2c-76.4,0-144.6-21.8-145.3-22a2.88,2.88,0,0,1-2-2.7,2.83,2.83,0,0,1,1.8-2.8c23.3-9.9,50.7-33.4,59-40.9C46.7,104.3,18,67.3,16.7,65.7a3.05,3.05,0,0,1-.2-3.3,3,3,0,0,1,3-1.4c56,8.9,82.9,7.5,83.2,7.5a3,3,0,0,1,.3,5.9c-1.1.1-25.4,1.3-77-6.4,9.7,12.2,31.8,39.6,41.1,46.3a2.75,2.75,0,0,1,1.2,2.2,2.81,2.81,0,0,1-.9,2.3c-1.3,1.2-29.4,27.3-56.2,41,19.5,5.5,75.2,19.6,136.1,19.6a3,3,0,0,1,3,3A2.84,2.84,0,0,1,147.3,185.2Z" style="fill:#3e7c18"/><path d="M530.5,185.2a3,3,0,0,1-3-3,3,3,0,0,1,3-3c60.9,0,116.6-14.1,136.1-19.6-26.8-13.7-54.9-39.8-56.2-41a2.94,2.94,0,0,1-.9-2.3,3,3,0,0,1,1.2-2.2c9.3-6.7,31.5-34.1,41.1-46.3-51.6,7.7-76,6.5-77,6.4a3,3,0,0,1,.3-5.9c.3,0,27.2,1.4,83.2-7.5a3,3,0,0,1,3,1.4,3,3,0,0,1-.2,3.3c-1.3,1.7-30,38.7-44.2,51.1,8.3,7.4,35.7,31,59,40.9a2.92,2.92,0,0,1,1.8,2.8,3.18,3.18,0,0,1-2,2.7C675.1,163.4,606.9,185.2,530.5,185.2Z" style="fill:#3e7c18"/><polyline points="577.8 140.2 530.5 182.3 530.5 127.1" style="fill:#75ae21;stroke:#3e7c18;stroke-linecap:round;stroke-linejoin:round;stroke-width:5.909999847412109px"/><path d="M577.8,36.4S489.2,3.1,343.6,3h-.9C197.1,3.1,100,36.4,100,36.4V140.3c21.2-6.8,46.2-12.3,71.8-16.9a956,956,0,0,1,334,0c25.7,4.6,50.6,10.2,71.8,16.9Z" style="fill:#fff"/><path d="M554.2,61.3S488.9,26.2,343.6,17.2h-.9c-145.6.1-230.4,26.7-230.4,26.7v92.8c21.2-6,33.9-7.8,59.6-11.9a1063,1063,0,0,1,334,0c25.7,4.1,27,5.8,48.2,11.9Z" style="fill:#7ebc25"/><path d="M100,143.2a2.72,2.72,0,0,1-1.7-.6,2.85,2.85,0,0,1-1.2-2.4V36.4a2.91,2.91,0,0,1,2-2.8c1-.3,99.2-33.5,243.6-33.6h.9C488,.1,577.9,33.3,578.8,33.6a2.83,2.83,0,0,1,1.9,2.8V140.3a3.3,3.3,0,0,1-1.2,2.4,2.72,2.72,0,0,1-2.6.4c-19.3-6.1-43.3-11.8-71.5-16.8a950.28,950.28,0,0,0-333,0c-28.1,5-52.2,10.7-71.5,16.8A2.77,2.77,0,0,1,100,143.2Zm238.9-37.6a954.19,954.19,0,0,1,167.5,14.8c26.5,4.7,49.5,10,68.4,15.8V38.4C561.1,33.8,475.3,6,343.6,5.9h-.9C210.6,6,117.6,33.9,103,38.5v97.7c18.9-5.8,41.8-11.1,68.4-15.8A963,963,0,0,1,338.9,105.6Z" style="fill:#3e7c18"/><polygon points="524.4 45.6 530.1 64.2 548.6 70.1 532.7 81.3 532.9 100.7 517.3 89 498.8 95.2 505.2 76.8 493.6 61.1 513 61.5 524.4 45.6" style="fill:#fff;stroke:#3e7c18;stroke-linecap:round;stroke-linejoin:round;stroke-width:4.449999809265137px"/><polygon points="520.9 57.3 524.6 69.3 536.6 73.1 526.3 80.4 526.4 93 516.3 85.4 504.4 89.4 508.5 77.5 501 67.3 513.6 67.5 520.9 57.3" style="fill:#ffe51b"/><polygon points="153.4 45.6 147.7 64.2 129.2 70.1 145.1 81.3 144.9 100.7 160.5 89 179 95.2 172.6 76.8 184.2 61.1 164.8 61.5 153.4 45.6" style="fill:#fff;stroke:#3e7c18;stroke-linecap:round;stroke-linejoin:round;stroke-width:4.449999809265137px"/><polygon points="156.9 57.3 153.2 69.3 141.2 73.1 151.5 80.4 151.4 93 161.5 85.4 173.4 89.4 169.3 77.5 176.8 67.3 164.2 67.5 156.9 57.3" style="fill:#ffe51b"/><path d="M256.2,71.1a3.63,3.63,0,0,1,3,.9,4,4,0,0,1,.6,5.6,4.1,4.1,0,0,1-2.7,1.5l-2,.2a.47.47,0,0,0-.5.5v.1l.4,3.7a10.55,10.55,0,0,1-.3,5,6.42,6.42,0,0,1-2.5,3.1,16.8,16.8,0,0,1-6.9,2.1H245a5.2,5.2,0,0,1-3.2-.7,7,7,0,0,1-2.6-2.8c-.1-.3-.2-.7-.3-1a2.22,2.22,0,0,1,.3-1.6,2.74,2.74,0,0,1,2.1-1.5l1.5-.2,1.2-.1.8-.1a1.5,1.5,0,0,0,1.1-.4,1.23,1.23,0,0,0,.2-1l-.4-3.6a.47.47,0,0,0-.5-.5h-.1L220,83.1a.47.47,0,0,0-.5.5v.1l1,8.5a4.24,4.24,0,0,1-.9,3.1,4.31,4.31,0,0,1-6.1.7,4.06,4.06,0,0,1-1.6-2.9l-.9-8.5a.47.47,0,0,0-.5-.5h-.1l-2.1.2a3.94,3.94,0,0,1-3-.8,4,4,0,0,1-.6-5.6,4.1,4.1,0,0,1,2.7-1.5l2.1-.2a.47.47,0,0,0,.5-.5v-.1l-1.8-16a5.07,5.07,0,0,1,4.5-5.6l11.4-1.3a.47.47,0,0,0,.5-.5v-.1l-.2-1.7a.47.47,0,0,0-.5-.5h-.1l-16.6,1.8a4,4,0,0,1-.9-7.9L249.9,39a4.55,4.55,0,0,1,3,.8,4,4,0,0,1,.6,5.6,3.88,3.88,0,0,1-2.7,1.5l-17.1,1.9a.47.47,0,0,0-.5.5v.1l.2,1.7a.47.47,0,0,0,.5.5h.1l11.9-1.3a4.57,4.57,0,0,1,3.7,1.1,4.74,4.74,0,0,1,1.9,3.4l1.8,16a.47.47,0,0,0,.5.5h.1ZM225.7,60.9a.47.47,0,0,0-.5-.5h-.1l-7.3.8a.47.47,0,0,0-.5.5v.1l.2,2a.63.63,0,0,0,.5.6h.2l7.3-.8a.47.47,0,0,0,.5-.5v-.2Zm-6.8,10.8a.47.47,0,0,0-.5.5v.1l.2,2.3a.47.47,0,0,0,.5.5h.1l7.3-.8a.47.47,0,0,0,.5-.5v-.2l-.2-2.3a.47.47,0,0,0-.5-.5h-.1ZM243.4,59a.47.47,0,0,0-.5-.5h-.1l-7.7.9a.47.47,0,0,0-.5.5V60l.2,2a.47.47,0,0,0,.5.5h.1l7.8-.9a.47.47,0,0,0,.5-.5V61Zm-7.5,13.7a.47.47,0,0,0,.5.5h.1l7.7-.9a.47.47,0,0,0,.5-.5v-.1l-.2-2.3a.47.47,0,0,0-.5-.5h-.1l-7.7.9a.47.47,0,0,0-.5.5v.1Z" style="fill:#fff"/><path d="M330.6,52.2a3.65,3.65,0,0,1,.1,5.2,4,4,0,0,1-2.5,1.2l-12.4.4a1,1,0,0,0-.9.6l-1,2.3v.4c.1.1.2.2.3.2l14-.4a3.54,3.54,0,0,1,2.6,1,4.2,4.2,0,0,1,1.2,2.5,3.58,3.58,0,0,1-3.5,3.7h0l-1.9.1a.76.76,0,0,0-.8.6,27.18,27.18,0,0,1-2.9,7.8c-.2.4-.2.6.2.8,1.9.8,3.7,1.6,5.3,2.4a3.13,3.13,0,0,1,1.8,2.5c0,.2.1.4.1.6a3.58,3.58,0,0,1-.9,2.4,4.82,4.82,0,0,1-2.9,1.7c-.2,0-.5.1-.7.1a5.19,5.19,0,0,1-2.7-.7c-1.7-.9-3.6-1.9-5.7-2.9a1.18,1.18,0,0,0-1,.1c-3.6,2.3-8.9,4.2-15.8,5.5a1.7,1.7,0,0,1-.7.1,4.65,4.65,0,0,1-2.3-.6,5.65,5.65,0,0,1-2.2-2.4,2.85,2.85,0,0,1-.2-1.6,2.67,2.67,0,0,1,.7-1.4,2.85,2.85,0,0,1,1.4-.8,47.5,47.5,0,0,0,10.4-2.4.2.2,0,1,0,0-.4,15.87,15.87,0,0,0-2-.7h-.1a1,1,0,0,1-1.2.5l-3-.8a3.14,3.14,0,0,1-2.1-1.8,2.77,2.77,0,0,1-.3-1.3,4,4,0,0,1,.3-1.5c.6-1.3,1.3-2.7,2-4.3,0-.1,0-.3-.1-.3s-.2-.2-.3-.2l-3,.1a2.88,2.88,0,0,1-2-.7,2.46,2.46,0,0,1-.9-1.9c0-.2-.1-.3-.3-.2l-3.1,1c-.3.1-.6.4-.5.7l.4,12.1a14,14,0,0,1-.5,5,5.63,5.63,0,0,1-2.1,2.9,12.39,12.39,0,0,1-5,1.7c-.2,0-.3.1-.5.1a4.45,4.45,0,0,1-2.9-1,6.62,6.62,0,0,1-2.1-3.1,2.77,2.77,0,0,1-.1-.9,4.14,4.14,0,0,1,.5-1.9,3,3,0,0,1,2.4-1.3h.9a1.14,1.14,0,0,0,.8-.3,1,1,0,0,0,.2-.9l-.3-9.9c0-.1-.1-.3-.2-.3a.3.3,0,0,0-.4,0l-1.3.3a3.55,3.55,0,0,1-1,.2,3.7,3.7,0,0,1-2.1-.6,4.07,4.07,0,0,1-2-2.6c0-.3-.1-.6-.1-.9a4.65,4.65,0,0,1,.6-2.3,4,4,0,0,1,2.7-1.9l2.9-.7a.66.66,0,0,0,.6-.7l-.2-8.3a.63.63,0,0,0-.5-.6h-.2l-1.9.1a4.36,4.36,0,0,1-2.9-1.1,4,4,0,0,1-.2-5.6,3.63,3.63,0,0,1,2.8-1.2l1.9-.1a.63.63,0,0,0,.6-.5v-.2l-.2-6.1a4.06,4.06,0,0,1,3.9-4.3h.1a4.14,4.14,0,0,1,3,1.1,3.89,3.89,0,0,1,1.3,2.8l.2,6.3c0,.2.1.4.3.4h.1a3.47,3.47,0,0,1,2.5,1,3.25,3.25,0,0,1,1.1,2.5l.1,3.7a.68.68,0,0,0,.4.6h.2l6.7-.2a.76.76,0,0,0,.4-.2.6.6,0,0,0,.1-.4,31.81,31.81,0,0,0-1.3-5.1.75.75,0,0,0-.7-.5h-1.2a3.54,3.54,0,0,1-2.6-1,3.25,3.25,0,0,1-1.1-2.5,3.54,3.54,0,0,1,1-2.6,3.58,3.58,0,0,1,2.5-1.1l8.8-.3c.3,0,.5-.2.5-.6V38a4.72,4.72,0,0,1,1.2-3.2,4.1,4.1,0,0,1,3.1-1.4,4.6,4.6,0,0,1,4.6,4.3v.4c0,.4.2.6.5.6l8.7-.3a3.54,3.54,0,0,1,2.6,1,4,4,0,0,1,1.2,2.5,3.74,3.74,0,0,1-3.5,3.8h-.6a.68.68,0,0,0-.6.4c-.9,2.8-1.5,4.5-1.7,5.3a.19.19,0,0,0,0,.3.52.52,0,0,0,.4.2l4.2-.1A1.89,1.89,0,0,1,330.6,52.2Zm-39.4.3a.63.63,0,0,0-.6.5v.1l.2,6.4a.76.76,0,0,0,.2.4.6.6,0,0,0,.4.1l2.3-.7c.3-.1.6-.4.5-.7L294,53a.63.63,0,0,0-.5-.6h-.1Zm3.8,9.8a.86.86,0,0,0,.7.6l8.2-.2a.76.76,0,0,0,.8-.6l.9-2.3a.19.19,0,0,0,0-.3c-.1-.1-.2-.2-.3-.2l-10.1.3a.47.47,0,0,0-.5.5v.1Zm21.8-16.4c0-.1,0-.3-.1-.3a.52.52,0,0,0-.4-.2l-7,.2c-.1,0-.3.1-.3.2s-.1.2,0,.4a28.25,28.25,0,0,1,1.3,5,.65.65,0,0,0,.6.6h.1l3.9-.1a.66.66,0,0,0,.7-.6c.5-1.9.9-3.6,1.2-5.2Zm.5,24.1a.3.3,0,0,0,0-.4.52.52,0,0,0-.4-.2l-5.8.2a1,1,0,0,0-.9.6c-.5,1.1-.9,1.9-1.2,2.6-.1.4,0,.6.3.7a48.38,48.38,0,0,1,5.1,1.6.81.81,0,0,0,.9-.3,18.12,18.12,0,0,0,2-4.8Z" style="fill:#fff"/><path d="M400.8,70.1a3.72,3.72,0,0,1,2.8,1.3,3.87,3.87,0,0,1-.3,5.6,3.74,3.74,0,0,1-2.8,1l-2.1-.1c-.3-.1-.5.1-.6.4v.2l-.1,3.8a11.62,11.62,0,0,1-1,4.9,6.06,6.06,0,0,1-3,2.7,19.19,19.19,0,0,1-7.1,1.1h-.2a4.65,4.65,0,0,1-3.1-1.2,6.62,6.62,0,0,1-2.1-3.1,3.75,3.75,0,0,1-.1-1.1,3,3,0,0,1,.5-1.6,2.39,2.39,0,0,1,2.3-1.1l1.5.1h2a1.39,1.39,0,0,0,1.1-.2,1.28,1.28,0,0,0,.4-1l.1-3.6a.44.44,0,0,0-.4-.6h-.1l-25.1-1a.44.44,0,0,0-.6.4v.1l-.3,8.6a4.27,4.27,0,0,1-4.5,4.1,4.05,4.05,0,0,1-3-1.4,4.45,4.45,0,0,1-1.2-2.9l.3-8.6a.44.44,0,0,0-.4-.6h-.1l-2.1-.1a3.72,3.72,0,0,1-2.8-1.3,4,4,0,0,1,.2-5.6,3.83,3.83,0,0,1,2.9-1l2.1.1a.44.44,0,0,0,.6-.4v-.2l.6-16.1a5.13,5.13,0,0,1,5.3-4.9h0l11.5.5a.44.44,0,0,0,.6-.4v-.1l.1-1.7a.44.44,0,0,0-.4-.6h-.1l-16.7-.7a4,4,0,0,1-3.8-4.2,3.89,3.89,0,0,1,4.2-3.8l43.8,1.7a3.72,3.72,0,0,1,2.8,1.3,4,4,0,0,1-.2,5.6,3.56,3.56,0,0,1-2.9,1.1l-17.2-.7a.44.44,0,0,0-.6.4v.2l-.1,1.7c-.1.3.1.5.4.6h.2l12,.5a5.13,5.13,0,0,1,4.9,5.3l-.6,16c0,.3.2.6.4.6h2.1ZM364,65.2a.44.44,0,0,0-.6.4v.1l-.1,2.3c-.1.3.1.5.4.6h.2l7.3.3c.3.1.5-.1.6-.4v-.2l.1-2.3c.1-.3-.1-.5-.4-.6h-.2Zm8.3-9.6a.44.44,0,0,0-.4-.6h-.2l-7.3-.3c-.3-.1-.5.1-.6.4v.2l-.1,2c-.1.3.1.5.4.6h.2l7.3.3c.3.1.5-.1.6-.4v-.2Zm8.2,13.1a.44.44,0,0,0,.4.6h.2l7.8.3a.44.44,0,0,0,.6-.4v-.1l.1-2.3a.44.44,0,0,0-.4-.6h-.1l-7.8-.3a.44.44,0,0,0-.6.4v.1ZM390,56.3c0-.3-.1-.6-.4-.6h-.1l-7.8-.3c-.3-.1-.5.1-.6.4V56l-.1,2a.44.44,0,0,0,.4.6h.1l7.8.3c.3,0,.6-.2.6-.4v-.1Z" style="fill:#fff"/><path d="M472.7,54.8a5,5,0,0,1,3.4,1.8,4.65,4.65,0,0,1,1,3.6c-.2,2.3-.9,7.3-2,15.1q-.75,5.4-1.5,9.9a45.55,45.55,0,0,1-1.4,6.4,8.26,8.26,0,0,1-1.4,3,6.28,6.28,0,0,1-2.1,1.9,7.86,7.86,0,0,1-2.6.8,7.08,7.08,0,0,1-1.4.1h-.6a4.48,4.48,0,0,1-3-1.6,8.57,8.57,0,0,1-2-3.9c0-.1-.1-.2-.1-.3a.22.22,0,0,0-.2-.2c-.1,0-.2,0-.2.1l-.6,1.2a2.69,2.69,0,0,1-2.4,1.4h-.4a3,3,0,0,1-2.2-1.2.37.37,0,0,0-.3-.1.22.22,0,0,0-.2.2,3.37,3.37,0,0,1-2,2.2,8.24,8.24,0,0,1-3.5.4h-.2a3.1,3.1,0,0,1-1.8-.9,3.48,3.48,0,0,1-1-2,1.8,1.8,0,0,1,.4-1.6,1.57,1.57,0,0,1,1.5-.6h.2a.44.44,0,0,0,.6-.4v-.5c0-.2,0-.2-.2-.2l-1,.1a.67.67,0,0,1-.8-.3,1.23,1.23,0,0,1-.4-.8c0-.1,0-.2-.1-.1l-8,.1h-.4a2.87,2.87,0,0,1-2.4-2.6v-.4a2.49,2.49,0,0,1,2.5-2.2h.9c.2,0,.4-.1.4-.3v-.1l.2-2.3a.44.44,0,0,0-.4-.6h-.1l-3.1-.3a.44.44,0,0,0-.6.4v.1L432,91.2a3.33,3.33,0,0,1-1.1,2.1,3.41,3.41,0,0,1-2.2.7,3.33,3.33,0,0,1-2.1-1.1,2.93,2.93,0,0,1-.7-2.2l1.3-12.4v-.2A79,79,0,0,1,424,88.9a2,2,0,0,1-1.7,1.4,2.68,2.68,0,0,1-2.3-.5,3.84,3.84,0,0,1-1.5-2.4,5,5,0,0,1-.2-1.7,2.28,2.28,0,0,1,.3-1.1c2.2-5.8,3.9-14.8,5.2-27l1.6-15a5.07,5.07,0,0,1,5.6-4.5l24.1,2.6a3,3,0,0,1,2.2,1.2,2.9,2.9,0,0,1,.7,2.4,3.26,3.26,0,0,1-3.6,2.9l-21.9-2.3a.44.44,0,0,0-.6.4v.2l-1.4,13c-.5,5.1-1.2,9.9-2,14.4,0,.2,0,.3.1.4a.52.52,0,0,0,.4.2l8.9,1a.44.44,0,0,0,.6-.4v-.6a.44.44,0,0,0-.4-.6H438l-3-.3a5,5,0,0,1-3.4-1.8,4.69,4.69,0,0,1-1.1-3.8l.7-6.3a5.07,5.07,0,0,1,5.6-4.5h.1l13.4,1.4a5.07,5.07,0,0,1,4.5,5.6l-.7,6.3a4.56,4.56,0,0,1-1.9,3.4,5,5,0,0,1-3.7,1.1l-3.2-.4a.44.44,0,0,0-.6.4v.1l-.1.5a.44.44,0,0,0,.4.6h.1l4.2.4a5.07,5.07,0,0,1,4.5,5.6h0l-.2,2.2v.1c2.1-5,3.8-12.3,5.1-22,0-.1-.1-.3-.2-.3h-.1a2.6,2.6,0,0,1-1.6-.9,2.16,2.16,0,0,1-.5-1.7l.3-3a3.15,3.15,0,0,1,.9-1.7,2.38,2.38,0,0,1,1.8-.5.27.27,0,0,0,.3-.3c.3-2.3.6-5.3,1-8.8a4,4,0,0,1,1.4-2.6,4,4,0,0,1,2.8-.8,3.76,3.76,0,0,1,2.6,1.4,3.66,3.66,0,0,1,.9,2.8c-.4,3.3-.7,6.2-1,8.6,0,.2,0,.3.1.4a.52.52,0,0,0,.4.2Zm-21,.1a2.09,2.09,0,0,1-.7,1.3,1.79,1.79,0,0,1-1.4.4l-2-.2a1.71,1.71,0,0,1-1.3-.7,1.79,1.79,0,0,1-.4-1.4.22.22,0,0,0-.2-.2h0l-3.7-.4c-.2,0-.2,0-.3.2a2.09,2.09,0,0,1-.7,1.3,1.79,1.79,0,0,1-1.4.4l-2-.2a1.71,1.71,0,0,1-1.3-.7,1.79,1.79,0,0,1-.4-1.4c0-.1-.1-.2-.2-.3h0l-1.4-.1a2.6,2.6,0,0,1-1.6-.9,2.38,2.38,0,0,1-.5-1.8,2.16,2.16,0,0,1,.9-1.6,2.27,2.27,0,0,1,1.8-.5l1.4.2c.2,0,.2,0,.3-.2a1.9,1.9,0,0,1,.8-1.5,2.2,2.2,0,0,1,1.6-.5l1.6.2a1.6,1.6,0,0,1,1.4.8,2.35,2.35,0,0,1,.5,1.6c0,.2.1.2.3.3l3.7.4c.2,0,.2,0,.3-.2a1.9,1.9,0,0,1,.8-1.5,2.2,2.2,0,0,1,1.6-.5l1.6.2a1.84,1.84,0,0,1,1.4.8,1.88,1.88,0,0,1,.4,1.6c0,.2.1.2.3.3l2.3.2a2.59,2.59,0,0,1,1.7.9,2.27,2.27,0,0,1,.5,1.8,2.59,2.59,0,0,1-.9,1.7,2.38,2.38,0,0,1-1.8.5l-2.3-.2c-.6-.3-.7-.2-.7-.1ZM436.4,67.3a.44.44,0,0,0,.4.6h.1l1.9.2a.44.44,0,0,0,.6-.4v-.6a.44.44,0,0,0-.4-.6h-.1l-1.9-.2a.44.44,0,0,0-.6.4v.6Zm1.3-6.8a.44.44,0,0,0-.6.4v.5a.44.44,0,0,0,.4.6h.2l1.9.2a.44.44,0,0,0,.6-.4v-.4a.44.44,0,0,0-.4-.6h-.1Zm9.5,21.2a.75.75,0,0,1,.7.5l.1-.7a.44.44,0,0,0-.4-.6h-.1l-3.4-.4a.44.44,0,0,0-.6.4v.2l-.2,1.8a.6.6,0,0,0,.1.4.52.52,0,0,0,.4.2h.6c.1,0,.2-.1.1-.2a1.49,1.49,0,0,1,.2-.9.81.81,0,0,1,.8-.4Zm.8-12.6a.44.44,0,0,0,.6-.4V68a.44.44,0,0,0-.4-.6h-.1l-1.9-.2a.44.44,0,0,0-.6.4v.6a.44.44,0,0,0,.4.6h.1Zm.6-5.9a.44.44,0,0,0,.6-.4v-.5a.44.44,0,0,0-.4-.6h-.1l-1.9-.2a.44.44,0,0,0-.6.4v.4a.44.44,0,0,0,.4.6h.1Zm20.7-.3a.44.44,0,0,0-.4-.6h-.1l-1.5-.2a.57.57,0,0,0-.7.4v.1a145.69,145.69,0,0,1-2.8,14.8A65.61,65.61,0,0,1,460,89a.3.3,0,0,0,0,.4c.1.1.2.2.3.2l2.5.3a2.17,2.17,0,0,0,2-.8c.6-.7,1.2-3,1.8-6.8S468.2,72,469.3,62.9Z" style="fill:#fff"/></svg>