<svg id="圖層_1" data-name="圖層 1" xmlns="http://www.w3.org/2000/svg" viewBox="0 0 677.8 185.2"><title>ribbon</title><path d="M102.8,71.4S76,72.9,19,63.9c0,0,33.9,43.7,46.4,52.8,0,0-33.9,31.7-62.4,43.7,0,0,67.6,21.9,144.4,21.9" style="fill:#fff"/><path d="M127.8,81.5s-36.7,8-93.8-1c0,0,18.9,27.1,31.4,36.1,0,0-33.9,31.7-62.4,43.7,0,0,67.6,21.9,144.4,21.9" style="fill:#7ebc25"/><polyline points="100 140.2 147.3 182.3 147.3 127.1" style="fill:#75ae21;stroke:#3e7c18;stroke-linecap:round;stroke-linejoin:round;stroke-width:5.909999847412109px"/><path d="M575,71.4s26.8,1.5,83.8-7.5c0,0-33.9,43.7-46.4,52.8,0,0,33.9,31.7,62.4,43.7,0,0-67.5,21.9-144.4,21.9" style="fill:#fff"/><path d="M573.5,82.5s21.4,7.1,69.3-3.1c0,0-17.9,28.1-30.4,37.1,0,0,33.9,31.7,62.4,43.7,0,0-67.5,21.9-144.4,21.9" style="fill:#7ebc25"/><path d="M147.3,185.2c-76.4,0-144.6-21.8-145.3-22a2.88,2.88,0,0,1-2-2.7,2.83,2.83,0,0,1,1.8-2.8c23.3-9.9,50.7-33.4,59-40.9C46.7,104.3,18,67.3,16.7,65.7a3.05,3.05,0,0,1-.2-3.3,3,3,0,0,1,3-1.4c56,8.9,82.9,7.5,83.2,7.5a3,3,0,0,1,.3,5.9c-1.1.1-25.4,1.3-77-6.4,9.7,12.2,31.8,39.6,41.1,46.3a2.75,2.75,0,0,1,1.2,2.2,2.81,2.81,0,0,1-.9,2.3c-1.3,1.2-29.4,27.3-56.2,41,19.5,5.5,75.2,19.6,136.1,19.6a3,3,0,0,1,3,3A2.84,2.84,0,0,1,147.3,185.2Z" style="fill:#3e7c18"/><path d="M530.5,185.2a3,3,0,0,1-3-3,3,3,0,0,1,3-3c60.9,0,116.6-14.1,136.1-19.6-26.8-13.7-54.9-39.8-56.2-41a2.94,2.94,0,0,1-.9-2.3,3,3,0,0,1,1.2-2.2c9.3-6.7,31.5-34.1,41.1-46.3-51.6,7.7-76,6.5-77,6.4a3,3,0,0,1,.3-5.9c.3,0,27.2,1.4,83.2-7.5a3,3,0,0,1,3,1.4,3,3,0,0,1-.2,3.3c-1.3,1.7-30,38.7-44.2,51.1,8.3,7.4,35.7,31,59,40.9a2.92,2.92,0,0,1,1.8,2.8,3.18,3.18,0,0,1-2,2.7C675.1,163.4,606.9,185.2,530.5,185.2Z" style="fill:#3e7c18"/><polyline points="577.8 140.2 530.5 182.3 530.5 127.1" style="fill:#75ae21;stroke:#3e7c18;stroke-linecap:round;stroke-linejoin:round;stroke-width:5.909999847412109px"/><path d="M577.8,36.4S489.2,3.1,343.6,3h-.9C197.1,3.1,100,36.4,100,36.4V140.3c21.2-6.8,46.2-12.3,71.8-16.9a956,956,0,0,1,334,0c25.7,4.6,50.6,10.2,71.8,16.9Z" style="fill:#fff"/><path d="M554.2,61.3S488.9,26.2,343.6,17.2h-.9c-145.6.1-230.4,26.7-230.4,26.7v92.8c21.2-6,33.9-7.8,59.6-11.9a1063,1063,0,0,1,334,0c25.7,4.1,27,5.8,48.2,11.9Z" style="fill:#7ebc25"/><path d="M100,143.2a2.72,2.72,0,0,1-1.7-.6,2.85,2.85,0,0,1-1.2-2.4V36.4a2.91,2.91,0,0,1,2-2.8c1-.3,99.2-33.5,243.6-33.6h.9C488,.1,577.9,33.3,578.8,33.6a2.83,2.83,0,0,1,1.9,2.8V140.3a3.3,3.3,0,0,1-1.2,2.4,2.72,2.72,0,0,1-2.6.4c-19.3-6.1-43.3-11.8-71.5-16.8a950.28,950.28,0,0,0-333,0c-28.1,5-52.2,10.7-71.5,16.8A2.77,2.77,0,0,1,100,143.2Zm238.9-37.6a954.19,954.19,0,0,1,167.5,14.8c26.5,4.7,49.5,10,68.4,15.8V38.4C561.1,33.8,475.3,6,343.6,5.9h-.9C210.6,6,117.6,33.9,103,38.5v97.7c18.9-5.8,41.8-11.1,68.4-15.8A963,963,0,0,1,338.9,105.6Z" style="fill:#3e7c18"/><polygon points="524.4 45.6 530.1 64.2 548.6 70.1 532.7 81.3 532.9 100.7 517.3 89 498.8 95.2 505.2 76.8 493.6 61.1 513 61.5 524.4 45.6" style="fill:#fff;stroke:#3e7c18;stroke-linecap:round;stroke-linejoin:round;stroke-width:4.449999809265137px"/><polygon points="520.9 57.3 524.6 69.3 536.6 73.1 526.3 80.4 526.4 93 516.3 85.4 504.4 89.4 508.5 77.5 501 67.3 513.6 67.5 520.9 57.3" style="fill:#ffe51b"/><polygon points="153.4 45.6 147.7 64.2 129.2 70.1 145.1 81.3 144.9 100.7 160.5 89 179 95.2 172.6 76.8 184.2 61.1 164.8 61.5 153.4 45.6" style="fill:#fff;stroke:#3e7c18;stroke-linecap:round;stroke-linejoin:round;stroke-width:4.449999809265137px"/><polygon points="156.9 57.3 153.2 69.3 141.2 73.1 151.5 80.4 151.4 93 161.5 85.4 173.4 89.4 169.3 77.5 176.8 67.3 164.2 67.5 156.9 57.3" style="fill:#ffe51b"/><path d="M248,68.6a6.13,6.13,0,0,1,3.4-1.7h.3a5.67,5.67,0,0,1,3.4.7,3.22,3.22,0,0,1,1,4.5,4.35,4.35,0,0,1-.6.7c-2.4,1.9-4.6,3.5-6.5,4.8a.52.52,0,0,0-.2.4c0,.1.1.3.2.3a26.26,26.26,0,0,0,8.6,4.5,3.3,3.3,0,0,1,2.2,2.1,3.55,3.55,0,0,1,.2,1,4,4,0,0,1-.4,2.1,7.1,7.1,0,0,1-2.9,2.8,9.83,9.83,0,0,1-1.6.5,4.09,4.09,0,0,1-2.2-.3,29.52,29.52,0,0,1-12-8,48.76,48.76,0,0,1-8.4-14c0-.1-.1-.2-.3-.2s-.3,0-.3.1a50.29,50.29,0,0,1-5.8,5.5,1,1,0,0,0-.4,1l1,8.7a.76.76,0,0,0,.2.4.3.3,0,0,0,.4,0c.6-.2,3.1-.9,7.4-2.3a2,2,0,0,1,.8-.1,3.42,3.42,0,0,1,2.2.5,3.72,3.72,0,0,1,1.6,2.4.9.9,0,0,0,.1.5,5.2,5.2,0,0,1-.5,2.7,4,4,0,0,1-2.4,2q-7,2.4-18.6,6a2.92,2.92,0,0,1-.9.2,5.48,5.48,0,0,1-2.5-.4,4.06,4.06,0,0,1-2.4-2.4,2.28,2.28,0,0,1-.3-1.1v-1a3.1,3.1,0,0,1,.9-1.8,5.67,5.67,0,0,1,1.8-1.2l3.3-.9a.69.69,0,0,0,.5-.8h0l-.6-5.5c0-.1-.1-.3-.2-.3s-.2-.1-.4,0c-1.2.7-2.5,1.4-3.7,2a6,6,0,0,1-1.9.6,5.46,5.46,0,0,1-1.8-.1,6.42,6.42,0,0,1-3.3-1.9,2.14,2.14,0,0,1-.8-1.7V79a2.55,2.55,0,0,1,1.6-2.1A62.14,62.14,0,0,0,220.6,69c.1,0,.1-.1.1-.2a.1.1,0,0,0-.1-.1l-12.3,1.4a3.77,3.77,0,0,1-2.7-.8,3.54,3.54,0,0,1-1.4-2.4,3.78,3.78,0,0,1,3.3-4.1h0l18-2a.47.47,0,0,0,.5-.5v-.2l-.1-1a.47.47,0,0,0-.5-.5h-.1l-13.2,1.5a3.57,3.57,0,0,1-2.6-.7,3.1,3.1,0,0,1-1.2-2.3,3.67,3.67,0,0,1,.7-2.5,3.6,3.6,0,0,1,2.3-1.3l13.2-1.4a.47.47,0,0,0,.5-.5v-.1l-.1-.9a.47.47,0,0,0-.5-.5h-.1l-15.8,1.8a3.7,3.7,0,0,1-3.3-6,3.44,3.44,0,0,1,2.5-1.3l16-1.8a.27.27,0,0,0,.3-.3v-.1a3,3,0,0,1,2.7-3.4h0l2.6-.3a3.06,3.06,0,0,1,3.4,2.8c0,.2.1.3.4.3l16.6-1.8a3.4,3.4,0,0,1,2.6.8,3.55,3.55,0,0,1,1.4,2.5,3.63,3.63,0,0,1-.8,2.7,3.09,3.09,0,0,1-2.4,1.3l-16.4,1.8a.47.47,0,0,0-.5.5v.2l.1.9a.47.47,0,0,0,.5.5h.1l14.3-1.6a3.42,3.42,0,1,1,.8,6.8l-14.3,1.6a.47.47,0,0,0-.5.5v.1l.1,1a.47.47,0,0,0,.5.5h.1l18.2-2a3.7,3.7,0,0,1,3.3,6,3.44,3.44,0,0,1-2.5,1.3l-13.4,1.5a.76.76,0,0,0-.4.2.3.3,0,0,0,0,.4,27.77,27.77,0,0,0,3,5.3.48.48,0,0,0,.6.2c.1,0,.1-.1.2-.2A35.06,35.06,0,0,1,248,68.6Z" style="fill:#fff"/><path d="M294.1,69.5c.3-.1.6-.1.9-.2a3.28,3.28,0,0,1,3.4,2.8c0,.2.1.4.1.6a4.54,4.54,0,0,1-3,4.3c-3.1,1-7.8,2.6-14.3,4.7a5,5,0,0,1-1.2.2,4.55,4.55,0,0,1-2-.5,3.88,3.88,0,0,1-2-2.5,3.55,3.55,0,0,1-.2-1,3.7,3.7,0,0,1,.6-2.1,3.88,3.88,0,0,1,2.5-2l1.7-.5,1.8-.5a.66.66,0,0,0,.6-.7l-.3-9.4a.63.63,0,0,0-.5-.6h-1.8a4.08,4.08,0,0,1-4.1-3.9,4.3,4.3,0,0,1,1.1-2.8,4,4,0,0,1,2.7-1.2h1.7a.68.68,0,0,0,.6-.4v-.2l-.2-8a.63.63,0,0,0-.5-.6h-.1l-2.1.1a3.91,3.91,0,0,1-2.9-1.1,4.1,4.1,0,0,1-1.3-2.8,3.91,3.91,0,0,1,1.1-2.9,4.1,4.1,0,0,1,2.8-1.3l13.4-.4a3.56,3.56,0,0,1,2.9,1.1,4.07,4.07,0,0,1,.2,5.7h0a4.1,4.1,0,0,1-2.8,1.3h-1.7a.68.68,0,0,0-.6.4v.2l.2,8a.68.68,0,0,0,.4.6h1.3a4,4,0,0,1,4.1,3.9,4,4,0,0,1-3.9,4.1h-1.1a.63.63,0,0,0-.6.5v.1l.2,7.2a.76.76,0,0,0,.2.4.6.6,0,0,0,.4.1A20.15,20.15,0,0,1,294.1,69.5Zm30,12.4h1.2c.3,0,.5-.2.7-.6a9.69,9.69,0,0,0,.3-2.3,2.4,2.4,0,0,1,1.2-2,2.84,2.84,0,0,1,1.3-.4,4.25,4.25,0,0,1,1.1.2,6,6,0,0,1,2.7,2,4,4,0,0,1,.8,2.3,2.2,2.2,0,0,1-.1.8q-.6,4-2.1,5.7a6,6,0,0,1-4.6,1.7l-3.9.1c-3,.1-5-.5-6.1-1.8s-1.6-3.8-1.8-7.4l-.3-10.3a.63.63,0,0,0-.5-.6h-1.4a.56.56,0,0,0-.6.5v.1a42.47,42.47,0,0,1-.8,6.1,18.44,18.44,0,0,1-1.9,5.1,15,15,0,0,1-3.7,4.6,24,24,0,0,1-5.9,3.6,3.82,3.82,0,0,1-3.3,0,5.48,5.48,0,0,1-2.9-2.3,2.45,2.45,0,0,1-.6-1.6,3.4,3.4,0,0,1,.1-1,2.79,2.79,0,0,1,1.8-2,18.18,18.18,0,0,0,4.3-2.4,8.33,8.33,0,0,0,2.6-3,12,12,0,0,0,1.3-3.3,18.25,18.25,0,0,0,.5-4c0-.3-.1-.4-.4-.4a3.42,3.42,0,0,1-3.6-3.4h0l-.8-25.7a5,5,0,0,1,4.9-5.2l20-.6a5,5,0,0,1,5.2,4.9h0l.7,24.1a4.68,4.68,0,0,1-1.4,3.7,4.84,4.84,0,0,1-3.6,1.6h-1.3a.63.63,0,0,0-.6.5v.1l.2,10.5a5.54,5.54,0,0,0,.2,1.8,2.28,2.28,0,0,0,1.1.3ZM307.6,42.1a.63.63,0,0,0-.6.5V44a.63.63,0,0,0,.5.6h.1l12.4-.4a.68.68,0,0,0,.6-.4V42.4a.63.63,0,0,0-.5-.6h-.2Zm.3,8.9a.63.63,0,0,0-.6.5v1.3a.63.63,0,0,0,.5.6h.1l12.4-.4a.68.68,0,0,0,.6-.4V51.2a.63.63,0,0,0-.5-.6h-.1Zm.2,8.9a.68.68,0,0,0-.6.4v1.4a.63.63,0,0,0,.5.6h.2l12.4-.4a.63.63,0,0,0,.6-.5V60.1a.63.63,0,0,0-.5-.6h-.1Z" style="fill:#fff"/><path d="M358.2,36.8a4.33,4.33,0,0,1,2.2-2.4,4.55,4.55,0,0,1,2-.5,5,5,0,0,1,1.2.2,3.85,3.85,0,0,1,2.4,2.1,3.92,3.92,0,0,1,.4,1.8,2.77,2.77,0,0,1-.3,1.3c-1,2.5-2.1,4.8-3.2,7a2,2,0,0,0-.3,1.1L361,85.7a3.72,3.72,0,0,1-1.3,2.8,4.15,4.15,0,0,1-7-3.1l.9-23.5a.1.1,0,0,0-.1-.1c-.1,0-.1,0-.1.1a1.93,1.93,0,0,1-1.5.7h-.4a1.94,1.94,0,0,1-1.6-1.4c-.2-.5-.4-1-.6-1.6a10.3,10.3,0,0,1-.6-3.5,2.77,2.77,0,0,1,.1-.9,9.59,9.59,0,0,1,1.7-4.2A72.39,72.39,0,0,0,358.2,36.8ZM394.5,74a1.7,1.7,0,0,1,.7-.1,3,3,0,0,1,1.6.5l1.4.8a2.47,2.47,0,0,1,1.2,1.8v.5a2,2,0,0,1-.6,1.5,27.44,27.44,0,0,1-5,4c-.1,0-.1.1-.1.2a.22.22,0,0,0,.2.2c2,.4,4.3.7,6.9,1a2.07,2.07,0,0,1,1.8,1.3,1.73,1.73,0,0,1,.1,1,2.45,2.45,0,0,1-.4,1.2,7.2,7.2,0,0,1-2.8,2.4,6.26,6.26,0,0,1-2.7.6,2.2,2.2,0,0,1-.8-.1,62.55,62.55,0,0,1-12.2-3.2,1.7,1.7,0,0,0-1,0A87.56,87.56,0,0,1,370.4,90h-.8a4.28,4.28,0,0,1-2.2-.6,6.36,6.36,0,0,1-2.2-2.4,2.23,2.23,0,0,1-.3-1.4,2.09,2.09,0,0,1,1.9-1.8c2.9-.2,5.4-.6,7.7-.9a.22.22,0,0,0,.2-.2.37.37,0,0,0-.1-.3,10.61,10.61,0,0,1-2-1.7,1,1,0,0,0-.9-.2,3.55,3.55,0,0,0-.9.4,4.4,4.4,0,0,1-1.6.2,3.08,3.08,0,0,1-1.3-.3,5.34,5.34,0,0,1-2.5-1.7,2.39,2.39,0,0,1-.5-1.4.75.75,0,0,1,.1-.5,1.82,1.82,0,0,1,1.4-1.4,31.9,31.9,0,0,0,10.3-4.6c.3-.2.3-.5,0-.8a6.08,6.08,0,0,1-.9-1.8.22.22,0,0,0-.2-.2c-.1,0-.2,0-.2.1a26.62,26.62,0,0,1-2.3,2.4,3.38,3.38,0,0,1-2.5.9h-.1a4,4,0,0,1-2.5-1l-.1-.1a2.34,2.34,0,0,1-.8-1.8,2.81,2.81,0,0,1,1-2.1v-.1c0-.1,0-.1-.1-.1h0a3.87,3.87,0,0,1-3.7-3.9h0v-.6a4.51,4.51,0,0,1,4.5-4.3h.4c.3,0,.5-.1.5-.4v-.1l.4-9.2a4.63,4.63,0,0,1,1.6-3.5,5,5,0,0,1,3.7-1.3l4,.2a.59.59,0,0,0,.7-.5l.1-.4a.6.6,0,0,0-.1-.4.52.52,0,0,0-.4-.2l-9.3-.4a2.89,2.89,0,0,1-2.9-3.1v-.1a2.81,2.81,0,0,1,1-2.1,2.65,2.65,0,0,1,2.2-.8l30.7,1.2a2.81,2.81,0,0,1,2.1,1,2.65,2.65,0,0,1,.8,2.2,2.81,2.81,0,0,1-1,2.1,3.49,3.49,0,0,1-2.2.8L390,42.4a.79.79,0,0,0-.8.5l-.2.5a.3.3,0,0,0,0,.4c.1.1.2.2.3.2l6.7.3a5,5,0,0,1,4.9,5.2v.1l-.4,9.3c0,.3.1.5.5.5a4.05,4.05,0,0,1,3,1.4,4,4,0,0,1,1.1,3.1v1.2a3.33,3.33,0,0,1-3.4,3.2h-.1a.1.1,0,0,0-.1.1v.2c.1,0,.1.1.2.2a2.1,2.1,0,0,1,.5,1.5c0,.2-.1.4-.1.6a2.69,2.69,0,0,1-1.5,1.8,4,4,0,0,1-1.5.3,2.92,2.92,0,0,1-.9-.2,4.26,4.26,0,0,1-2-1.5c-.3-.4-.5-.8-.8-1.2-.1-.1-.2-.2-.3-.2s-.2.1-.3.2a3.76,3.76,0,0,1-2,2.1,9.47,9.47,0,0,1-3.7.5l-3.2-.2a1.28,1.28,0,0,0-1,.4c-.2.2-.3.4-.5.5a.14.14,0,0,0,0,.2c.1.1.1.2.2.2l9.8.4ZM371.8,63.5a.3.3,0,0,1,.4,0h0l3.4,2c.1,0,.2,0,.2-.1a2,2,0,0,1,.6-1.4,1.55,1.55,0,0,1,1.4-.5l3.8.2c.1,0,.1,0,.2-.1v-.1a.91.91,0,0,0-.7-.3l-8.8-.3c-.2,0-.4.1-.4.3v.1Zm6.5-6.7c-.3-.1-.5.1-.6.4v.5c-.1.3.1.5.4.6h.2l13.6.5a.44.44,0,0,0,.6-.4v-.5a.44.44,0,0,0-.4-.6H392ZM392,54a.44.44,0,0,0,.6-.4v-.4a.44.44,0,0,0-.4-.6h-.1l-13.6-.5a.44.44,0,0,0-.6.4v.4a.44.44,0,0,0,.4.6h.2Zm.8-5.4a.44.44,0,0,0-.4-.6h-.1l-13.6-.5a.44.44,0,0,0-.6.4v.3a.44.44,0,0,0,.4.6h.1l13.6.6c.3.1.5-.1.6-.4v-.4Zm-4.4,30.2v-.2a.1.1,0,0,0-.1-.1h0l-8.4-.3c-.1,0-.1,0-.1.1s0,.2.1.2a26.43,26.43,0,0,0,3.7,2,2,2,0,0,0,1.1,0,30.44,30.44,0,0,0,3.7-1.7ZM383,64.7c0-.1-.1-.1-.2-.1a.22.22,0,0,0-.2.2l-.1,1.5a1.74,1.74,0,0,0,.3,1.2,3.19,3.19,0,0,0,1.4.3h.7c.1,0,.2-.1.3-.2a.19.19,0,0,0,0-.3,27.46,27.46,0,0,0-2.2-2.6Zm3.4,3v.2a.1.1,0,0,0,.1.1l1.8.1a1.43,1.43,0,0,0,1.1-.3,1.84,1.84,0,0,1,1.4-.8.76.76,0,0,1,.4.1c.6.3,1.4.5,2.2.8l.1-.1a1.13,1.13,0,0,1-.3-1.1,1.27,1.27,0,0,1,.7-.9l3.3-1.5c.1-.1.2-.2.2-.3s-.1-.2-.2-.2l-7.5-.3c-.1,0-.1,0-.1.1v.1a1.53,1.53,0,0,1,.3,1.6,1.63,1.63,0,0,1-1.1,1.3Z" style="fill:#fff"/><path d="M474.3,81.3a3.67,3.67,0,0,1-.6,5.2,3.53,3.53,0,0,1-2.6.8l-8.7-.9c-.1,0-.1,0-.1.1v.1c2.8,1.3,5.5,2.7,8,4a2.53,2.53,0,0,1,1.5,2.3v.5a2.77,2.77,0,0,1-1.3,2,7.21,7.21,0,0,1-4,1.2l-.9-.1a6.68,6.68,0,0,1-3.1-1c-2.8-1.7-5.5-3.2-8.3-4.6a2.83,2.83,0,0,1-1.6-2.4,2.64,2.64,0,0,1,1.1-2.7c.1,0,.1-.1,0-.2a.31.31,0,0,1-.1-.2L440,84.1c-.1,0-.2,0-.2.1s0,.2.1.2l.3.3a3.17,3.17,0,0,1,1.1,2.7,3,3,0,0,1-2,2.6,78.82,78.82,0,0,1-10.6,2.8,5.91,5.91,0,0,1-3.5-.5,8.3,8.3,0,0,1-2.9-2.4,2.62,2.62,0,0,1-.5-1.7,2.35,2.35,0,0,1,.2-.8,2.78,2.78,0,0,1,1.9-1.6,62.6,62.6,0,0,0,9.5-2.3s.1-.1,0-.1,0-.1-.1-.1l-9.5-1a3.77,3.77,0,0,1-3.4-4,4,4,0,0,1,1.4-2.6,4,4,0,0,1,2.8-.8l9,1a.44.44,0,0,0,.6-.4v-.2l.2-2a.44.44,0,0,0-.4-.6h-.1l-5.3-.6a3.55,3.55,0,0,1-2.5-1.4,3.91,3.91,0,0,1-.8-2.7,3.55,3.55,0,0,1,1.4-2.5,3.77,3.77,0,0,1,2.7-.8l5.3.6a.44.44,0,0,0,.6-.4v-.1l.2-1.9a.44.44,0,0,0-.4-.6H435l-2.1-.2a5,5,0,0,1-3.4-1.8,4.69,4.69,0,0,1-1.1-3.8l1.4-12.8a5.07,5.07,0,0,1,5.6-4.5l33.1,3.5a5.18,5.18,0,0,1,4.5,5.5L471.8,61a4.56,4.56,0,0,1-1.9,3.4,5,5,0,0,1-3.7,1.1l-2.2-.2a.44.44,0,0,0-.6.4v.1l-.2,1.9a.44.44,0,0,0,.4.6h.1l5.8.6a3.82,3.82,0,0,1,2.5,1.3,3.77,3.77,0,0,1,.8,2.7,3.55,3.55,0,0,1-1.4,2.5,3.91,3.91,0,0,1-2.7.8l-5.8-.6a.44.44,0,0,0-.6.4v.1l-.2,2a.44.44,0,0,0,.4.6h.1l9.3,1A4.87,4.87,0,0,1,474.3,81.3ZM437.9,53.9a.44.44,0,0,0-.6.4v.2l-.1,1a.44.44,0,0,0,.4.6h.1l7.6.8a.44.44,0,0,0,.6-.4v-.2l.1-1.1a.44.44,0,0,0-.4-.6h-.1Zm.8-8a.44.44,0,0,0-.6.4v.2l-.1,1a.44.44,0,0,0,.4.6h.2l7.6.8a.44.44,0,0,0,.6-.4v-.1l.1-1a.44.44,0,0,0-.4-.6h-.1Zm5.4,27.9a.44.44,0,0,0-.6.4v.1l-.2,2a.44.44,0,0,0,.4.6h.1l8.7.9a.44.44,0,0,0,.6-.4v-.1l.2-2a.44.44,0,0,0-.4-.6h-.1Zm1.1-10.5a.44.44,0,0,0-.6.4v.1l-.2,1.9a.44.44,0,0,0,.4.6h.2l8.7.9a.44.44,0,0,0,.6-.4v-.1l.2-1.9a.44.44,0,0,0-.4-.6H454Zm17.3-4.5a.44.44,0,0,0,.6-.4v-.1l.1-1.1a.44.44,0,0,0-.4-.6h-.1l-7.6-.8a.44.44,0,0,0-.6.4v.1l-.1,1a.44.44,0,0,0,.4.6h.1Zm.9-8.1a.44.44,0,0,0,.6-.4v-.2l.1-1a.44.44,0,0,0-.4-.6h-.1l-7.6-.8a.44.44,0,0,0-.6.4v.1l-.1,1a.44.44,0,0,0,.4.6h.1Z" style="fill:#fff"/></svg>