<?xml version="1.0" encoding="utf-8"?>
<!-- Generator: Adobe Illustrator 21.1.0, SVG Export Plug-In . SVG Version: 6.00 Build 0)  -->
<svg version="1.1" id="圖層_1" xmlns="http://www.w3.org/2000/svg" xmlns:xlink="http://www.w3.org/1999/xlink" x="0px" y="0px"
	 viewBox="0 0 677.8 185.2" style="enable-background:new 0 0 677.8 185.2;" xml:space="preserve">
<style type="text/css">
	.st0{fill:#FFFFFF;}
	.st1{fill:#7EBC25;}
	.st2{fill:#75AE21;stroke:#3E7C18;stroke-width:5.91;stroke-linecap:round;stroke-linejoin:round;}
	.st3{fill:#3E7C18;}
	.st4{fill:#FFFFFF;stroke:#3E7C18;stroke-width:4.45;stroke-linecap:round;stroke-linejoin:round;}
	.st5{fill:#FFE51B;}
</style>
<title>互動設計UI</title>
<path class="st0" d="M102.8,71.4c0,0-26.8,1.5-83.8-7.5c0,0,33.9,43.7,46.4,52.8c0,0-33.9,31.7-62.4,43.7c0,0,67.6,21.9,144.4,21.9"
	/>
<path class="st1" d="M127.8,81.5c0,0-36.7,8-93.8-1c0,0,18.9,27.1,31.4,36.1c0,0-33.9,31.7-62.4,43.7c0,0,67.6,21.9,144.4,21.9"/>
<polyline class="st2" points="100,140.2 147.3,182.3 147.3,127.1 "/>
<path class="st0" d="M575,71.4c0,0,26.8,1.5,83.8-7.5c0,0-33.9,43.7-46.4,52.8c0,0,33.9,31.7,62.4,43.7c0,0-67.5,21.9-144.4,21.9"/>
<path class="st1" d="M573.5,82.5c0,0,21.4,7.1,69.3-3.1c0,0-17.9,28.1-30.4,37.1c0,0,33.9,31.7,62.4,43.7c0,0-67.5,21.9-144.4,21.9"
	/>
<path class="st3" d="M147.3,185.2C70.9,185.2,2.7,163.4,2,163.2c-1.2-0.4-2-1.5-2-2.7c-0.1-1.2,0.7-2.4,1.8-2.8
	c23.3-9.9,50.7-33.4,59-40.9C46.7,104.3,18,67.3,16.7,65.7c-0.7-1-0.8-2.3-0.2-3.3c0.6-1,1.8-1.6,3-1.4c56,8.9,82.9,7.5,83.2,7.5
	c1.6-0.1,3,1.2,3.1,2.8c0.1,1.6-1.2,3-2.8,3.1c-1.1,0.1-25.4,1.3-77-6.4c9.7,12.2,31.8,39.6,41.1,46.3c0.7,0.5,1.2,1.3,1.2,2.2
	c0.1,0.9-0.3,1.7-0.9,2.3c-1.3,1.2-29.4,27.3-56.2,41c19.5,5.5,75.2,19.6,136.1,19.6c1.6,0,3,1.3,3,3S148.9,185.2,147.3,185.2z"/>
<path class="st3" d="M530.5,185.2c-1.6,0-3-1.3-3-3s1.3-3,3-3c60.9,0,116.6-14.1,136.1-19.6c-26.8-13.7-54.9-39.8-56.2-41
	c-0.6-0.6-1-1.5-0.9-2.3c0.1-0.9,0.5-1.7,1.2-2.2c9.3-6.7,31.5-34.1,41.1-46.3c-51.6,7.7-76,6.5-77,6.4c-1.6-0.1-2.9-1.5-2.8-3.1
	c0.1-1.6,1.5-2.9,3.1-2.8c0.3,0,27.2,1.4,83.2-7.5c1.2-0.2,2.4,0.4,3,1.4c0.6,1,0.5,2.4-0.2,3.3c-1.3,1.7-30,38.7-44.2,51.1
	c8.3,7.4,35.7,31,59,40.9c1.1,0.5,1.9,1.6,1.8,2.8c-0.1,1.2-0.9,2.3-2,2.7C675.1,163.4,606.9,185.2,530.5,185.2z"/>
<polyline class="st2" points="577.8,140.2 530.5,182.3 530.5,127.1 "/>
<path class="st0" d="M577.8,36.4c0,0-88.6-33.3-234.2-33.4h-0.9C197.1,3.1,100,36.4,100,36.4v103.9c21.2-6.8,46.2-12.3,71.8-16.9
	c110.5-19.6,223.5-19.6,334,0c25.7,4.6,50.6,10.2,71.8,16.9L577.8,36.4z"/>
<path class="st1" d="M554.2,61.3c0,0-65.3-35.1-210.6-44.1h-0.9c-145.6,0.1-230.4,26.7-230.4,26.7v92.8c21.2-6,33.9-7.8,59.6-11.9
	c110.6-17.6,223.4-17.6,334,0c25.7,4.1,27,5.8,48.2,11.9L554.2,61.3z"/>
<path class="st3" d="M100,143.2c-0.6,0-1.2-0.2-1.7-0.6c-0.8-0.6-1.2-1.4-1.2-2.4V36.4c0-1.3,0.8-2.4,2-2.8
	c1-0.3,99.2-33.5,243.6-33.6h0.9C488,0.1,577.9,33.3,578.8,33.6c1.2,0.4,1.9,1.5,1.9,2.8l0,103.9c0,0.9-0.5,1.8-1.2,2.4
	c-0.8,0.6-1.7,0.7-2.6,0.4c-19.3-6.1-43.3-11.8-71.5-16.8c-110.5-19.6-222.5-19.6-333,0c-28.1,5-52.2,10.7-71.5,16.8
	C100.6,143.2,100.3,143.2,100,143.2z M338.9,105.6c56,0,111.9,4.9,167.5,14.8c26.5,4.7,49.5,10,68.4,15.8l0-97.8
	C561.1,33.8,475.3,6,343.6,5.9h-0.9C210.6,6,117.6,33.9,103,38.5v97.7c18.9-5.8,41.8-11.1,68.4-15.8
	C226.9,110.6,282.9,105.6,338.9,105.6z"/>
<polygon class="st4" points="524.4,45.6 530.1,64.2 548.6,70.1 532.7,81.3 532.9,100.7 517.3,89 498.8,95.2 505.2,76.8 493.6,61.1 
	513,61.5 "/>
<polygon class="st5" points="520.9,57.3 524.6,69.3 536.6,73.1 526.3,80.4 526.4,93 516.3,85.4 504.4,89.4 508.5,77.5 501,67.3 
	513.6,67.5 "/>
<polygon class="st4" points="153.4,45.6 147.7,64.2 129.2,70.1 145.1,81.3 144.9,100.7 160.5,89 179,95.2 172.6,76.8 184.2,61.1 
	164.8,61.5 "/>
<polygon class="st5" points="156.9,57.3 153.2,69.3 141.2,73.1 151.5,80.4 151.4,93 161.5,85.4 173.4,89.4 169.3,77.5 176.8,67.3 
	164.2,67.5 "/>
<path class="st0" d="M248,68.6c0.9-0.9,2.1-1.5,3.4-1.7h0.3c1.2-0.1,2.4,0.1,3.4,0.7c1.5,0.9,2,2.9,1,4.5c-0.2,0.3-0.4,0.5-0.6,0.7
	c-2.4,1.9-4.6,3.5-6.5,4.8c-0.1,0.1-0.2,0.2-0.2,0.4c0,0.1,0.1,0.3,0.2,0.3c2.6,2,5.5,3.6,8.6,4.5c1,0.3,1.9,1.1,2.2,2.1
	c0.1,0.3,0.2,0.7,0.2,1c0.1,0.7-0.1,1.4-0.4,2.1c-0.7,1.2-1.7,2.2-2.9,2.8c-0.5,0.2-1.1,0.4-1.6,0.5c-0.8,0.1-1.5,0-2.2-0.3
	c-4.6-1.6-8.7-4.4-12-8c-3.6-4.2-6.4-8.9-8.4-14c0-0.1-0.1-0.2-0.3-0.2c-0.1,0-0.3,0-0.3,0.1c-1.8,2-3.7,3.8-5.8,5.5
	c-0.3,0.2-0.5,0.6-0.4,1l1,8.7c0,0.1,0.1,0.3,0.2,0.4c0.1,0.1,0.3,0.1,0.4,0c0.6-0.2,3.1-0.9,7.4-2.3c0.2-0.1,0.5-0.1,0.8-0.1
	c0.8-0.1,1.5,0.1,2.2,0.5c0.8,0.5,1.4,1.4,1.6,2.4c0,0.2,0,0.3,0.1,0.5c0.1,0.9-0.1,1.8-0.5,2.7c-0.5,1-1.4,1.7-2.4,2
	c-4.7,1.6-10.9,3.6-18.6,6c-0.3,0.1-0.6,0.2-0.9,0.2c-0.8,0.1-1.7-0.1-2.5-0.4c-1.1-0.4-2-1.3-2.4-2.4c-0.2-0.4-0.3-0.7-0.3-1.1
	c0-0.3,0-0.7,0-1c0.1-0.7,0.4-1.3,0.9-1.8c0.5-0.5,1.1-0.9,1.8-1.2c1.5-0.4,2.6-0.7,3.3-0.9c0.3-0.1,0.6-0.4,0.5-0.8c0,0,0,0,0,0
	l-0.6-5.5c0-0.1-0.1-0.3-0.2-0.3c-0.1-0.1-0.2-0.1-0.4,0c-1.2,0.7-2.5,1.4-3.7,2c-0.6,0.3-1.2,0.5-1.9,0.6c-0.6,0.1-1.2,0-1.8-0.1
	c-1.3-0.3-2.5-1-3.3-1.9c-0.5-0.4-0.8-1-0.8-1.7c0-0.3,0-0.6,0-0.9c0.1-1,0.8-1.8,1.6-2.1c4.8-2.1,9.3-4.7,13.4-7.9
	c0.1,0,0.1-0.1,0.1-0.2c0-0.1-0.1-0.1-0.1-0.1l-12.3,1.4c-1,0.1-1.9-0.2-2.7-0.8c-0.8-0.6-1.3-1.5-1.4-2.4c-0.2-2,1.3-3.9,3.3-4.1
	c0,0,0,0,0,0l18-2c0.3,0,0.5-0.2,0.5-0.5c0-0.1,0-0.1,0-0.2l-0.1-1c0-0.3-0.2-0.5-0.5-0.5c0,0-0.1,0-0.1,0l-13.2,1.5
	c-0.9,0.1-1.8-0.1-2.6-0.7c-0.7-0.6-1.2-1.4-1.2-2.3c-0.1-0.9,0.2-1.8,0.7-2.5c0.6-0.7,1.4-1.2,2.3-1.3l13.2-1.4
	c0.3,0,0.5-0.2,0.5-0.5c0,0,0-0.1,0-0.1l-0.1-0.9c0-0.3-0.2-0.5-0.5-0.5c0,0-0.1,0-0.1,0l-15.8,1.8c-2,0.2-3.8-1.2-4.1-3.3
	c-0.1-1,0.2-1.9,0.8-2.7c0.6-0.8,1.5-1.2,2.5-1.3l16-1.8c0.2,0,0.3-0.1,0.3-0.3c0,0,0-0.1,0-0.1c-0.2-1.7,1-3.2,2.7-3.4c0,0,0,0,0,0
	l2.6-0.3c1.7-0.2,3.2,1,3.4,2.8c0,0.2,0.1,0.3,0.4,0.3l16.6-1.8c1-0.1,1.9,0.2,2.6,0.8c0.8,0.6,1.3,1.5,1.4,2.5c0.1,1-0.2,2-0.8,2.7
	c-0.6,0.8-1.5,1.3-2.4,1.3l-16.4,1.8c-0.3,0-0.5,0.2-0.5,0.5c0,0.1,0,0.1,0,0.2l0.1,0.9c0,0.3,0.2,0.5,0.5,0.5c0,0,0.1,0,0.1,0
	l14.3-1.6c1.9-0.2,3.5,1.1,3.8,3c0.2,1.9-1.1,3.5-3,3.8l-14.3,1.6c-0.3,0-0.5,0.2-0.5,0.5c0,0,0,0.1,0,0.1l0.1,1
	c0,0.3,0.2,0.5,0.5,0.5c0,0,0.1,0,0.1,0l18.2-2c2-0.2,3.8,1.2,4.1,3.3c0.1,1-0.2,1.9-0.8,2.7c-0.6,0.8-1.5,1.2-2.5,1.3l-13.4,1.5
	c-0.1,0-0.3,0.1-0.4,0.2c-0.1,0.1-0.1,0.3,0,0.4c0.8,1.9,1.8,3.6,3,5.3c0.1,0.2,0.4,0.3,0.6,0.2c0.1,0,0.1-0.1,0.2-0.2
	C245.4,71.1,246.7,69.9,248,68.6z"/>
<path class="st0" d="M294.1,69.5c0.3-0.1,0.6-0.1,0.9-0.2c1.7-0.1,3.2,1.2,3.4,2.8c0,0.2,0.1,0.4,0.1,0.6c0,1.9-1.2,3.7-3,4.3
	c-3.1,1-7.8,2.6-14.3,4.7c-0.4,0.1-0.8,0.2-1.2,0.2c-0.7,0-1.4-0.2-2-0.5c-1-0.5-1.7-1.4-2-2.5c-0.1-0.3-0.2-0.7-0.2-1
	c0-0.8,0.2-1.5,0.6-2.1c0.5-1,1.4-1.7,2.5-2l1.7-0.5l1.8-0.5c0.4,0,0.6-0.4,0.6-0.7l-0.3-9.4c0-0.3-0.2-0.5-0.5-0.6c0,0-0.1,0-0.1,0
	h-1.7c-2.2,0-4-1.7-4.1-3.9c0-1,0.4-2,1.1-2.8c0.7-0.7,1.7-1.2,2.7-1.2h1.7c0.3,0,0.5-0.2,0.6-0.4c0-0.1,0-0.1,0-0.2l-0.2-8
	c0-0.3-0.2-0.5-0.5-0.6c0,0-0.1,0-0.1,0l-2.1,0.1c-1.1,0-2.1-0.3-2.9-1.1c-0.8-0.7-1.2-1.7-1.3-2.8c0-1.1,0.3-2.1,1.1-2.9
	c0.7-0.8,1.7-1.2,2.8-1.3l13.4-0.4c1.1-0.1,2.1,0.3,2.9,1.1c1.6,1.5,1.7,4,0.2,5.7c0,0,0,0,0,0c-0.7,0.8-1.7,1.2-2.8,1.3l-1.7,0
	c-0.3,0-0.5,0.2-0.6,0.4c0,0.1,0,0.1,0,0.2l0.2,8c0,0.3,0.2,0.5,0.4,0.6c0.1,0,0.1,0,0.2,0h1.1c2.2-0.1,4.1,1.7,4.1,3.9
	s-1.7,4.1-3.9,4.1h-1.1c-0.3,0-0.5,0.2-0.6,0.5c0,0,0,0.1,0,0.1l0.2,7.2c0,0.1,0.1,0.3,0.2,0.4c0.1,0.1,0.3,0.1,0.4,0.1
	C292.6,69.9,293.3,69.7,294.1,69.5z M324.1,81.9h1.2c0.3,0,0.5-0.2,0.7-0.6c0.2-0.8,0.3-1.6,0.3-2.3c0-0.8,0.5-1.6,1.2-2
	c0.4-0.2,0.8-0.4,1.3-0.4c0.4,0,0.7,0.1,1.1,0.2c1.1,0.4,2,1.1,2.7,2c0.5,0.7,0.8,1.5,0.8,2.3c0,0.3,0,0.5-0.1,0.8
	c-0.4,2.7-1.1,4.6-2.1,5.7c-1.2,1.2-2.9,1.8-4.6,1.7l-3.9,0.1c-3,0.1-5-0.5-6.1-1.8s-1.6-3.8-1.8-7.4l-0.3-10.3
	c0-0.3-0.2-0.5-0.5-0.6c-0.1,0-0.1,0-0.2,0h-1.2c-0.3,0-0.6,0.2-0.6,0.5c0,0,0,0.1,0,0.1c-0.1,2-0.4,4.1-0.8,6.1
	c-0.4,1.8-1,3.5-1.9,5.1c-0.9,1.8-2.2,3.3-3.7,4.6c-1.8,1.5-3.8,2.7-5.9,3.6c-1.1,0.5-2.3,0.5-3.3,0c-1.2-0.4-2.2-1.2-2.9-2.3
	c-0.4-0.5-0.6-1-0.6-1.6c0-0.3,0-0.7,0.1-1c0.2-0.9,0.9-1.7,1.8-2c1.5-0.6,3-1.4,4.3-2.4c1.1-0.8,2-1.8,2.6-3c0.6-1,1-2.1,1.3-3.3
	c0.3-1.3,0.5-2.7,0.5-4c0-0.3-0.1-0.4-0.4-0.4c-1.9,0.1-3.6-1.4-3.6-3.4c0,0,0,0,0,0l-0.8-25.7c-0.1-2.8,2.1-5.2,4.9-5.2l20-0.6
	c2.8-0.1,5.2,2.1,5.2,4.9c0,0,0,0,0,0l0.7,24.1c0.1,1.4-0.4,2.7-1.4,3.7c-0.9,1-2.2,1.6-3.6,1.6h-1.3c-0.3,0-0.5,0.2-0.6,0.5
	c0,0,0,0.1,0,0.1l0.2,10.5c0,0.6,0,1.2,0.2,1.8C323.4,81.8,323.7,81.9,324.1,81.9L324.1,81.9z M307.6,42.1c-0.3,0-0.5,0.2-0.6,0.5
	c0,0.1,0,0.1,0,0.2V44c0,0.3,0.2,0.5,0.5,0.6c0,0,0.1,0,0.1,0l12.4-0.4c0.3,0,0.5-0.2,0.6-0.4c0-0.1,0-0.1,0-0.2v-1.2
	c0-0.3-0.2-0.5-0.5-0.6c-0.1,0-0.1,0-0.2,0L307.6,42.1z M307.9,51c-0.3,0-0.5,0.2-0.6,0.5c0,0,0,0.1,0,0.1v1.2
	c0,0.3,0.2,0.5,0.5,0.6c0,0,0.1,0,0.1,0l12.4-0.4c0.3,0,0.5-0.2,0.6-0.4c0-0.1,0-0.1,0-0.2v-1.2c0-0.3-0.2-0.5-0.5-0.6
	c0,0-0.1,0-0.1,0L307.9,51z M308.1,59.9c-0.3,0-0.5,0.2-0.6,0.4c0,0.1,0,0.1,0,0.2v1.2c0,0.3,0.2,0.5,0.5,0.6c0.1,0,0.1,0,0.2,0
	l12.4-0.4c0.3,0,0.5-0.2,0.6-0.5c0,0,0-0.1,0-0.1v-1.2c0-0.3-0.2-0.5-0.5-0.6c0,0-0.1,0-0.1,0L308.1,59.9z"/>
<path class="st0" d="M358.2,36.8c0.4-1.1,1.2-1.9,2.2-2.4c0.6-0.3,1.3-0.5,2-0.5c0.4,0,0.8,0.1,1.2,0.2c1.1,0.3,1.9,1.1,2.4,2.1
	c0.3,0.6,0.4,1.2,0.4,1.8c0,0.5-0.1,0.9-0.3,1.3c-1,2.5-2.1,4.8-3.2,7c-0.2,0.3-0.3,0.7-0.3,1.1L361,85.7c0,1.1-0.5,2.1-1.3,2.8
	c-1.7,1.5-4.3,1.4-5.9-0.2c-0.7-0.8-1.1-1.8-1.1-2.9l0.9-23.5c0,0,0-0.1-0.1-0.1s-0.1,0-0.1,0.1c-0.4,0.5-1,0.7-1.5,0.7h-0.4
	c-0.8-0.1-1.4-0.7-1.6-1.4c-0.2-0.5-0.4-1-0.6-1.6c-0.4-1.1-0.6-2.3-0.6-3.5c0-0.3,0-0.6,0.1-0.9c0.2-1.5,0.8-2.9,1.7-4.2
	C353.6,46.5,356.2,41.8,358.2,36.8z M394.5,74c0.2-0.1,0.5-0.1,0.7-0.1c0.6,0,1.1,0.2,1.6,0.5l1.4,0.8c0.7,0.4,1.1,1.1,1.2,1.8
	c0,0.2,0,0.4,0,0.5c0,0.6-0.2,1.1-0.6,1.5c-1.5,1.5-3.2,2.9-5,4c-0.1,0-0.1,0.1-0.1,0.2c0,0.1,0.1,0.2,0.2,0.2c2,0.4,4.3,0.7,6.9,1
	c0.8,0,1.5,0.6,1.8,1.3c0.1,0.3,0.2,0.7,0.1,1c0,0.4-0.2,0.9-0.4,1.2c-0.7,1-1.7,1.9-2.8,2.4c-0.8,0.4-1.8,0.6-2.7,0.6
	c-0.3,0-0.5,0-0.8-0.1c-4.2-0.7-8.3-1.7-12.2-3.2c-0.3-0.1-0.7-0.1-1,0c-4.1,1.1-8.2,1.9-12.4,2.4c-0.3,0-0.5,0-0.8,0
	c-0.8,0-1.5-0.2-2.2-0.6c-0.9-0.6-1.7-1.4-2.2-2.4c-0.2-0.4-0.4-0.9-0.3-1.4c0-0.5,0.3-0.9,0.6-1.2c0.4-0.4,0.8-0.6,1.3-0.6
	c2.9-0.2,5.4-0.6,7.7-0.9c0.1,0,0.2-0.1,0.2-0.2c0-0.1,0-0.2-0.1-0.3c-0.7-0.5-1.4-1-2-1.7c-0.2-0.2-0.6-0.3-0.9-0.2
	c-0.3,0.1-0.6,0.2-0.9,0.4c-0.5,0.2-1.1,0.2-1.6,0.2c-0.4,0-0.9-0.1-1.3-0.3c-1-0.3-1.8-0.9-2.5-1.7c-0.3-0.4-0.5-0.9-0.5-1.4
	c0-0.2,0-0.4,0.1-0.5c0.2-0.7,0.7-1.3,1.4-1.4c3.7-0.9,7.2-2.5,10.3-4.6c0.3-0.2,0.3-0.5,0-0.8c-0.4-0.5-0.7-1.2-0.9-1.8
	c0-0.1-0.1-0.2-0.2-0.2c-0.1,0-0.2,0-0.2,0.1c-0.8,0.9-1.5,1.7-2.3,2.4c-0.7,0.6-1.6,1-2.5,0.9h-0.1c-0.9,0-1.8-0.4-2.5-1l-0.1-0.1
	c-0.5-0.4-0.8-1.1-0.8-1.8c0-0.8,0.4-1.6,1-2.1c0,0,0-0.1,0-0.1c0-0.1,0-0.1-0.1-0.1h0c-2.1-0.1-3.7-1.8-3.7-3.9c0,0,0,0,0,0v-0.6
	c0.1-2.4,2.1-4.3,4.5-4.3c0,0,0,0,0.1,0h0.3c0.3,0,0.5-0.1,0.5-0.4c0,0,0-0.1,0-0.1l0.4-9.2c0-1.4,0.6-2.6,1.6-3.5
	c1-0.9,2.3-1.4,3.7-1.3l4,0.2c0.3,0.1,0.7-0.2,0.7-0.5l0.1-0.4c0-0.1,0-0.3-0.1-0.4c-0.1-0.1-0.2-0.2-0.4-0.2l-9.3-0.4
	c-1.7,0-3-1.4-2.9-3.1c0,0,0,0,0-0.1c0-0.8,0.4-1.6,1-2.1c0.6-0.6,1.4-0.9,2.2-0.8l30.7,1.2c0.8,0,1.6,0.4,2.1,1
	c0.6,0.6,0.9,1.4,0.8,2.2c0,0.8-0.4,1.6-1,2.1c-0.6,0.5-1.4,0.8-2.2,0.8L390,42.4c-0.4,0-0.7,0.2-0.8,0.5l-0.2,0.5
	c-0.1,0.1-0.1,0.3,0,0.4c0.1,0.1,0.2,0.2,0.3,0.2l6.7,0.3c2.8,0.1,5,2.4,4.9,5.2c0,0,0,0.1,0,0.1l-0.4,9.3c0,0.3,0.1,0.5,0.5,0.5
	c1.1,0,2.2,0.5,3,1.4c0.8,0.8,1.2,2,1.1,3.1l0,1.2c-0.1,1.8-1.6,3.3-3.4,3.2c0,0,0,0-0.1,0c0,0-0.1,0-0.1,0.1s0,0.1,0,0.2
	c0.1,0,0.1,0.1,0.2,0.2c0.4,0.4,0.5,1,0.5,1.5c0,0.2-0.1,0.4-0.1,0.6c-0.2,0.8-0.7,1.4-1.5,1.8c-0.5,0.2-1,0.3-1.5,0.3
	c-0.3,0-0.6-0.1-0.9-0.2c-0.8-0.3-1.5-0.8-2-1.5c-0.3-0.4-0.5-0.8-0.8-1.2c-0.1-0.1-0.2-0.2-0.3-0.2c-0.1,0-0.2,0.1-0.3,0.2
	c-0.4,1-1.1,1.7-2,2.1c-1.2,0.4-2.5,0.6-3.7,0.5l-3.2-0.2c-0.4,0-0.7,0.1-1,0.4c-0.2,0.2-0.3,0.4-0.5,0.5c0,0-0.1,0.1,0,0.2
	s0.1,0.2,0.2,0.2l9.8,0.4L394.5,74z M371.8,63.5c0.1-0.1,0.3-0.1,0.4,0c0,0,0,0,0,0l3.4,2c0.1,0,0.2,0,0.2-0.1c0-0.5,0.2-1,0.6-1.4
	c0.4-0.4,0.9-0.6,1.4-0.5l3.8,0.2c0.1,0,0.1,0,0.2-0.1c0,0,0-0.1,0-0.1c-0.2-0.2-0.4-0.3-0.7-0.3l-8.8-0.3c-0.2,0-0.4,0.1-0.4,0.3
	c0,0,0,0.1,0,0.1L371.8,63.5z M378.3,56.8c-0.3-0.1-0.5,0.1-0.6,0.4c0,0.1,0,0.1,0,0.2v0.3c-0.1,0.3,0.1,0.5,0.4,0.6
	c0.1,0,0.1,0,0.2,0l13.6,0.5c0.3,0.1,0.6-0.1,0.6-0.4c0-0.1,0-0.1,0-0.2v-0.3c0.1-0.3-0.1-0.6-0.4-0.6c0,0-0.1,0-0.1,0L378.3,56.8z
	 M392,54c0.3,0.1,0.6-0.1,0.6-0.4c0,0,0-0.1,0-0.1v-0.3c0.1-0.3-0.1-0.6-0.4-0.6c0,0-0.1,0-0.1,0l-13.6-0.5
	c-0.3-0.1-0.6,0.1-0.6,0.4c0,0,0,0.1,0,0.1v0.3c-0.1,0.3,0.1,0.6,0.4,0.6c0.1,0,0.1,0,0.2,0L392,54z M392.8,48.6
	c0.1-0.3-0.1-0.6-0.4-0.6c0,0-0.1,0-0.1,0l-13.6-0.5c-0.3-0.1-0.6,0.1-0.6,0.4c0,0,0,0.1,0,0.1v0.2c-0.1,0.3,0.1,0.6,0.4,0.6
	c0,0,0.1,0,0.1,0l13.6,0.6c0.3,0.1,0.5-0.1,0.6-0.4c0-0.1,0-0.1,0-0.2L392.8,48.6z M388.4,78.8c0-0.1,0-0.2,0-0.2
	c0-0.1-0.1-0.1-0.1-0.1c0,0,0,0,0,0l-8.4-0.3c-0.1,0-0.1,0-0.1,0.1c0,0.1,0,0.2,0.1,0.2c1.2,0.8,2.4,1.4,3.7,2
	c0.3,0.1,0.7,0.1,1.1,0C385.9,80,387.2,79.5,388.4,78.8L388.4,78.8z M383,64.7c0-0.1-0.1-0.1-0.2-0.1c-0.1,0-0.2,0.1-0.2,0.2
	l-0.1,1.5c0,0.6,0.1,1,0.3,1.2c0.4,0.2,0.9,0.3,1.4,0.3h0.7c0.1,0,0.2-0.1,0.3-0.2c0.1-0.1,0.1-0.2,0-0.3
	C384.5,66.4,383.8,65.5,383,64.7L383,64.7z M386.4,67.7c0,0,0,0.1,0,0.2c0,0.1,0.1,0.1,0.1,0.1l1.8,0.1c0.4,0.1,0.8-0.1,1.1-0.3
	c0.3-0.5,0.8-0.7,1.4-0.8c0.1,0,0.2,0,0.4,0.1c0.6,0.3,1.4,0.5,2.2,0.8c0,0,0.1-0.1,0.1-0.1c-0.3-0.3-0.4-0.7-0.3-1.1
	c0.1-0.4,0.3-0.7,0.7-0.9l3.3-1.5c0.1-0.1,0.2-0.2,0.2-0.3c0-0.2-0.1-0.2-0.2-0.2l-7.5-0.3c-0.1,0-0.1,0-0.1,0.1c0,0,0,0.1,0,0.1
	c0.4,0.4,0.5,1,0.3,1.6c-0.1,0.6-0.5,1.1-1.1,1.3L386.4,67.7z"/>
<path class="st0" d="M474.3,81.3c1.3,1.6,1,4-0.6,5.2c-0.7,0.6-1.7,0.9-2.6,0.8l-8.7-0.9c-0.1,0-0.1,0-0.1,0.1s0,0.1,0,0.1
	c2.8,1.3,5.5,2.7,8,4c0.9,0.4,1.5,1.3,1.5,2.3l0,0.5c-0.1,0.8-0.6,1.6-1.3,2c-1.2,0.8-2.6,1.2-4,1.2l-0.9-0.1
	c-1.1-0.1-2.2-0.4-3.1-1c-2.8-1.7-5.5-3.2-8.3-4.6c-0.9-0.4-1.5-1.3-1.6-2.4c-0.2-1,0.2-2.1,1.1-2.7c0.1,0,0.1-0.1,0-0.2
	s-0.1-0.2-0.1-0.2L440,84.1c-0.1,0-0.2,0-0.2,0.1c0,0.1,0,0.2,0.1,0.2l0.3,0.3c0.8,0.7,1.2,1.7,1.1,2.7c-0.1,1.2-0.9,2.2-2,2.6
	c-3.5,1.2-7,2.1-10.6,2.8c-1.2,0.2-2.5,0-3.5-0.5c-1.1-0.5-2.1-1.4-2.9-2.4c-0.4-0.5-0.5-1.1-0.5-1.7c0-0.3,0.1-0.5,0.2-0.8
	c0.3-0.8,1.1-1.4,1.9-1.6c3.2-0.5,6.4-1.3,9.5-2.3c0,0,0.1-0.1,0-0.1c0-0.1,0-0.1-0.1-0.1l-9.5-1c-2-0.2-3.6-2-3.4-4
	c0.1-1,0.6-1.9,1.4-2.6c0.8-0.6,1.8-0.9,2.8-0.8l9,1c0.3,0.1,0.6-0.1,0.6-0.4c0-0.1,0-0.1,0-0.2l0.2-2c0.1-0.3-0.1-0.6-0.4-0.6
	c0,0-0.1,0-0.1,0l-5.3-0.6c-1-0.1-1.9-0.6-2.5-1.4c-0.6-0.8-0.9-1.8-0.8-2.7c0.1-1,0.6-1.9,1.4-2.5c0.8-0.6,1.7-0.9,2.7-0.8l5.3,0.6
	c0.3,0.1,0.6-0.1,0.6-0.4c0,0,0-0.1,0-0.1l0.2-1.9c0.1-0.3-0.1-0.6-0.4-0.6c0,0-0.1,0-0.1,0l-2.1-0.2c-1.3-0.1-2.6-0.8-3.4-1.8
	c-0.9-1-1.3-2.4-1.1-3.8l1.4-12.8c0.3-2.8,2.8-4.8,5.6-4.5l33.1,3.5c2.7,0.3,4.7,2.8,4.5,5.5L471.8,61c-0.1,1.4-0.8,2.6-1.9,3.4
	c-1,0.9-2.4,1.2-3.7,1.1l-2.2-0.2c-0.3-0.1-0.6,0.1-0.6,0.4c0,0,0,0.1,0,0.1l-0.2,1.9c-0.1,0.3,0.1,0.6,0.4,0.6c0,0,0.1,0,0.1,0
	l5.8,0.6c1,0.1,1.9,0.6,2.5,1.3c0.6,0.8,0.9,1.7,0.8,2.7c-0.1,1-0.6,1.9-1.4,2.5c-0.8,0.6-1.8,0.9-2.7,0.8l-5.8-0.6
	c-0.3-0.1-0.6,0.1-0.6,0.4c0,0,0,0.1,0,0.1l-0.2,2c-0.1,0.3,0.1,0.6,0.4,0.6c0,0,0.1,0,0.1,0l9.3,1C472.8,80,473.7,80.5,474.3,81.3z
	 M437.9,53.9c-0.3-0.1-0.6,0.1-0.6,0.4c0,0.1,0,0.1,0,0.2l-0.1,1c-0.1,0.3,0.1,0.6,0.4,0.6c0,0,0.1,0,0.1,0l7.6,0.8
	c0.3,0.1,0.6-0.1,0.6-0.4c0-0.1,0-0.1,0-0.2l0.1-1.1c0.1-0.3-0.1-0.6-0.4-0.6c0,0-0.1,0-0.1,0L437.9,53.9z M438.7,45.9
	c-0.3-0.1-0.6,0.1-0.6,0.4c0,0.1,0,0.1,0,0.2l-0.1,1c-0.1,0.3,0.1,0.6,0.4,0.6c0.1,0,0.1,0,0.2,0l7.6,0.8c0.3,0.1,0.6-0.1,0.6-0.4
	c0,0,0-0.1,0-0.1l0.1-1c0.1-0.3-0.1-0.6-0.4-0.6c0,0-0.1,0-0.1,0L438.7,45.9z M444.1,73.8c-0.3-0.1-0.6,0.1-0.6,0.4c0,0,0,0.1,0,0.1
	l-0.2,2c-0.1,0.3,0.1,0.6,0.4,0.6c0,0,0.1,0,0.1,0l8.7,0.9c0.3,0.1,0.6-0.1,0.6-0.4c0,0,0-0.1,0-0.1l0.2-2c0.1-0.3-0.1-0.6-0.4-0.6
	c0,0-0.1,0-0.1,0L444.1,73.8z M445.2,63.3c-0.3-0.1-0.6,0.1-0.6,0.4c0,0,0,0.1,0,0.1l-0.2,1.9c-0.1,0.3,0.1,0.6,0.4,0.6
	c0.1,0,0.1,0,0.2,0l8.7,0.9c0.3,0.1,0.6-0.1,0.6-0.4c0,0,0-0.1,0-0.1l0.2-1.9c0.1-0.3-0.1-0.6-0.4-0.6c0,0-0.1,0-0.1,0L445.2,63.3z
	 M462.5,58.8c0.3,0.1,0.6-0.1,0.6-0.4c0,0,0-0.1,0-0.1l0.1-1.1c0.1-0.3-0.1-0.6-0.4-0.6c0,0-0.1,0-0.1,0l-7.6-0.8
	c-0.3-0.1-0.6,0.1-0.6,0.4c0,0,0,0.1,0,0.1l-0.1,1c-0.1,0.3,0.1,0.6,0.4,0.6c0,0,0.1,0,0.1,0L462.5,58.8z M463.4,50.7
	c0.3,0.1,0.6-0.1,0.6-0.4c0-0.1,0-0.1,0-0.2l0.1-1c0.1-0.3-0.1-0.6-0.4-0.6c0,0-0.1,0-0.1,0l-7.6-0.8c-0.3-0.1-0.6,0.1-0.6,0.4
	c0,0,0,0.1,0,0.1l-0.1,1c-0.1,0.3,0.1,0.6,0.4,0.6c0,0,0.1,0,0.1,0L463.4,50.7z"/>
</svg>
