<svg id="圖層_1" data-name="圖層 1" xmlns="http://www.w3.org/2000/svg" viewBox="0 0 677.8 185.2"><title>ribbon</title><path d="M102.8,71.4S76,72.9,19,63.9c0,0,33.9,43.7,46.4,52.8,0,0-33.9,31.7-62.4,43.7,0,0,67.6,21.9,144.4,21.9" style="fill:#fff"/><path d="M127.8,81.5s-36.7,8-93.8-1c0,0,18.9,27.1,31.4,36.1,0,0-33.9,31.7-62.4,43.7,0,0,67.6,21.9,144.4,21.9" style="fill:#7ebc25"/><polyline points="100 140.2 147.3 182.3 147.3 127.1" style="fill:#75ae21;stroke:#3e7c18;stroke-linecap:round;stroke-linejoin:round;stroke-width:5.909999847412109px"/><path d="M575,71.4s26.8,1.5,83.8-7.5c0,0-33.9,43.7-46.4,52.8,0,0,33.9,31.7,62.4,43.7,0,0-67.5,21.9-144.4,21.9" style="fill:#fff"/><path d="M573.5,82.5s21.4,7.1,69.3-3.1c0,0-17.9,28.1-30.4,37.1,0,0,33.9,31.7,62.4,43.7,0,0-67.5,21.9-144.4,21.9" style="fill:#7ebc25"/><path d="M147.3,185.2c-76.4,0-144.6-21.8-145.3-22a2.88,2.88,0,0,1-2-2.7,2.83,2.83,0,0,1,1.8-2.8c23.3-9.9,50.7-33.4,59-40.9C46.7,104.3,18,67.3,16.7,65.7a3.05,3.05,0,0,1-.2-3.3,3,3,0,0,1,3-1.4c56,8.9,82.9,7.5,83.2,7.5a3,3,0,0,1,.3,5.9c-1.1.1-25.4,1.3-77-6.4,9.7,12.2,31.8,39.6,41.1,46.3a2.75,2.75,0,0,1,1.2,2.2,2.81,2.81,0,0,1-.9,2.3c-1.3,1.2-29.4,27.3-56.2,41,19.5,5.5,75.2,19.6,136.1,19.6a3,3,0,0,1,3,3A2.84,2.84,0,0,1,147.3,185.2Z" style="fill:#3e7c18"/><path d="M530.5,185.2a3,3,0,0,1-3-3,3,3,0,0,1,3-3c60.9,0,116.6-14.1,136.1-19.6-26.8-13.7-54.9-39.8-56.2-41a2.94,2.94,0,0,1-.9-2.3,3,3,0,0,1,1.2-2.2c9.3-6.7,31.5-34.1,41.1-46.3-51.6,7.7-76,6.5-77,6.4a3,3,0,0,1,.3-5.9c.3,0,27.2,1.4,83.2-7.5a3,3,0,0,1,3,1.4,3,3,0,0,1-.2,3.3c-1.3,1.7-30,38.7-44.2,51.1,8.3,7.4,35.7,31,59,40.9a2.92,2.92,0,0,1,1.8,2.8,3.18,3.18,0,0,1-2,2.7C675.1,163.4,606.9,185.2,530.5,185.2Z" style="fill:#3e7c18"/><polyline points="577.8 140.2 530.5 182.3 530.5 127.1" style="fill:#75ae21;stroke:#3e7c18;stroke-linecap:round;stroke-linejoin:round;stroke-width:5.909999847412109px"/><path d="M577.8,36.4S489.2,3.1,343.6,3h-.9C197.1,3.1,100,36.4,100,36.4V140.3c21.2-6.8,46.2-12.3,71.8-16.9a956,956,0,0,1,334,0c25.7,4.6,50.6,10.2,71.8,16.9Z" style="fill:#fff"/><path d="M554.2,61.3S488.9,26.2,343.6,17.2h-.9c-145.6.1-230.4,26.7-230.4,26.7v92.8c21.2-6,33.9-7.8,59.6-11.9a1063,1063,0,0,1,334,0c25.7,4.1,27,5.8,48.2,11.9Z" style="fill:#7ebc25"/><path d="M100,143.2a2.72,2.72,0,0,1-1.7-.6,2.85,2.85,0,0,1-1.2-2.4V36.4a2.91,2.91,0,0,1,2-2.8c1-.3,99.2-33.5,243.6-33.6h.9C488,.1,577.9,33.3,578.8,33.6a2.83,2.83,0,0,1,1.9,2.8V140.3a3.3,3.3,0,0,1-1.2,2.4,2.72,2.72,0,0,1-2.6.4c-19.3-6.1-43.3-11.8-71.5-16.8a950.28,950.28,0,0,0-333,0c-28.1,5-52.2,10.7-71.5,16.8A2.77,2.77,0,0,1,100,143.2Zm238.9-37.6a954.19,954.19,0,0,1,167.5,14.8c26.5,4.7,49.5,10,68.4,15.8V38.4C561.1,33.8,475.3,6,343.6,5.9h-.9C210.6,6,117.6,33.9,103,38.5v97.7c18.9-5.8,41.8-11.1,68.4-15.8A963,963,0,0,1,338.9,105.6Z" style="fill:#3e7c18"/><polygon points="524.4 45.6 530.1 64.2 548.6 70.1 532.7 81.3 532.9 100.7 517.3 89 498.8 95.2 505.2 76.8 493.6 61.1 513 61.5 524.4 45.6" style="fill:#fff;stroke:#3e7c18;stroke-linecap:round;stroke-linejoin:round;stroke-width:4.449999809265137px"/><polygon points="520.9 57.3 524.6 69.3 536.6 73.1 526.3 80.4 526.4 93 516.3 85.4 504.4 89.4 508.5 77.5 501 67.3 513.6 67.5 520.9 57.3" style="fill:#ffe51b"/><polygon points="153.4 45.6 147.7 64.2 129.2 70.1 145.1 81.3 144.9 100.7 160.5 89 179 95.2 172.6 76.8 184.2 61.1 164.8 61.5 153.4 45.6" style="fill:#fff;stroke:#3e7c18;stroke-linecap:round;stroke-linejoin:round;stroke-width:4.449999809265137px"/><polygon points="156.9 57.3 153.2 69.3 141.2 73.1 151.5 80.4 151.4 93 161.5 85.4 173.4 89.4 169.3 77.5 176.8 67.3 164.2 67.5 156.9 57.3" style="fill:#ffe51b"/><path d="M212.1,59.2a3.54,3.54,0,0,1,2.1,2.5,1.7,1.7,0,0,1,.1.7,4.68,4.68,0,0,1-.5,2.6,3.85,3.85,0,0,1-2.6,1.9,1.7,1.7,0,0,1-.7.1,4.68,4.68,0,0,1-2.6-.5,14.72,14.72,0,0,0-2.2-1,3.46,3.46,0,0,1-2-2.1,2.35,2.35,0,0,1-.2-.8,3.44,3.44,0,0,1,.4-2,5.1,5.1,0,0,1,2.6-2.2,2.77,2.77,0,0,1,1.3-.3,4.42,4.42,0,0,1,2,.2C210.6,58.6,211.3,58.9,212.1,59.2Zm.6-15.8a3.33,3.33,0,0,1,2.1,2.5,1.7,1.7,0,0,1,.1.7,4,4,0,0,1-.6,2.6,3.64,3.64,0,0,1-2.6,1.9l-.6.1a4.68,4.68,0,0,1-2.6-.5,18.89,18.89,0,0,0-2.5-1.1,3.57,3.57,0,0,1-1.9-2.1,2.35,2.35,0,0,1-.2-.8,2.88,2.88,0,0,1,.5-2,5.3,5.3,0,0,1,2.5-2.2,2.77,2.77,0,0,1,1.3-.3,5,5,0,0,1,2.1.2,24.42,24.42,0,0,1,2.4,1Zm2.8,48.8a3.54,3.54,0,0,1-2.1,2.5,6.47,6.47,0,0,1-1.3.4,4.42,4.42,0,0,1-2-.2,5.07,5.07,0,0,1-2.5-2.5,7.49,7.49,0,0,1-.5-1.6,4.42,4.42,0,0,1,.2-2c1.1-3.8,2.2-7.7,3.1-11.8a3.47,3.47,0,0,1,1.8-2.3,2,2,0,0,1,1.1-.3,3.81,3.81,0,0,1,1.8.3,5.54,5.54,0,0,1,3.1,4.4,4.88,4.88,0,0,1-.1,1.7C217.3,84.6,216.4,88.4,215.5,92.2Zm40-25.6-2.2.2a6.32,6.32,0,0,1-3.6-.4,4.43,4.43,0,0,1-1.8-2.6.22.22,0,0,0-.2-.2h0a.37.37,0,0,0-.3.1,18.64,18.64,0,0,1-4.8,4.9c-.1,0-.1.1-.1.2h0c0,.1.1.1.2.1h0l8.7-1a5.07,5.07,0,0,1,5.7,4.4v.1l1.7,15.2a4.37,4.37,0,0,1-.9,3.1,4.26,4.26,0,0,1-2.9,1.6l-2.6.3a2.66,2.66,0,0,1-1.2-.3,2,2,0,0,1-.6-1.1c0-.2-.1-.2-.2-.2l-17.1,2c-.1,0-.2.1-.1.2a1.48,1.48,0,0,1-.4,1.3,2.09,2.09,0,0,1-1.3.7l-2.1.2a4.4,4.4,0,0,1-3-.8,3.73,3.73,0,0,1-1.5-2.7L223,76.4a5.07,5.07,0,0,1,4.5-5.6h0l3.7-.4c.1,0,.3-.1.3-.2s.1-.2,0-.4l-1.8-3.7a1.13,1.13,0,0,1-.1-.8.63.63,0,0,1,.6-.5c.1,0,.1-.1.1-.2l-.2-2a.1.1,0,0,0-.1-.1c-.1,0-.1,0-.2.1h0a19.33,19.33,0,0,1-6.4,8,3.63,3.63,0,0,1-1.7.7h-.9a4.87,4.87,0,0,1-2.5-1.2,2.24,2.24,0,0,1-.8-1.5v-.5a2.23,2.23,0,0,1,1-1.8,13.69,13.69,0,0,0,5.7-8.9.51.51,0,0,0-.4-.5h-.1l-1.6.2c-.1,0-.2.1-.3.2a2.1,2.1,0,0,1-.7,1.4,2,2,0,0,1-1.5.5h-.8a2,2,0,0,1-1.7-.9,2.23,2.23,0,0,1-.6-1.3v-.6c.1-1.3.2-2.7.3-4a2.52,2.52,0,0,1,.9-2,2.14,2.14,0,0,1,1.7-.8H221a1,1,0,0,1,1,.4,1.28,1.28,0,0,1,.4,1c0,.1,0,.1.1.1l1.1-.1a.47.47,0,0,0,.5-.5v-.1l-.2-1.5a.47.47,0,0,0-.5-.5h-.1l-3.1.3a2.63,2.63,0,0,1-2.1-.6,2.89,2.89,0,0,1-.5-4.1v-.1a3.09,3.09,0,0,1,2-1.1l3.4-.4a.32.32,0,0,0,.3-.3V42a2.7,2.7,0,0,1,2.3-3h.1l1.5-.2a2.75,2.75,0,0,1,3,2.4.32.32,0,0,0,.3.3h.1l1.7-.2a2.63,2.63,0,0,1,2.1.6,2.78,2.78,0,0,1,.5,4,.1.1,0,0,1-.1.1,3.11,3.11,0,0,1-1.9,1.1l-1.6.2c-.3,0-.4.2-.4.6l.2,1.6a.46.46,0,0,0,.4.5h.1a4.5,4.5,0,0,1,5,3.9V54h0v-.1c.1-1.1.1-2.4.2-3.9a2.73,2.73,0,0,1,.8-1.9,2.14,2.14,0,0,1,1.7-.8h1.6a1.37,1.37,0,0,1,1.4,1.4c0,.1,0,.1.1.1l1-.1a.47.47,0,0,0,.5-.5v-.1l-.2-1.5a.47.47,0,0,0-.5-.5h-.1l-3.4.4a2.63,2.63,0,0,1-2.1-.6,2.89,2.89,0,0,1-.5-4.1l.1-.1a3.11,3.11,0,0,1,1.9-1.1l3.7-.4a.32.32,0,0,0,.3-.3v-.1a2.75,2.75,0,0,1,2.4-3l1.5-.2a2.75,2.75,0,0,1,3,2.4.32.32,0,0,0,.3.3h.1l2.5-.3a2.93,2.93,0,1,1,.8,5.8h-.2l-2.1.2a.47.47,0,0,0-.5.5v.1l.2,1.5a.47.47,0,0,0,.5.5h.1l2.5-.3a2.86,2.86,0,0,1,2.2.6,2.91,2.91,0,0,1,.4,4.2,3.09,3.09,0,0,1-2,1.1l-3.1.3a.65.65,0,0,0-.6.6l-.1.7c0,.1,0,.2.2.2a1.75,1.75,0,0,1,1.2.4,1.38,1.38,0,0,1,.6,1.1l.4,3.4a3.6,3.6,0,0,0,.2,1.1.52.52,0,0,0,.4.2h.4a.66.66,0,0,0,.5-.4,4.33,4.33,0,0,0,.1-1.6,1.8,1.8,0,0,1,.7-1.5,2.32,2.32,0,0,1,1.6-.3,3.74,3.74,0,0,1,2,1.2,2.93,2.93,0,0,1,.7,1.6v.5a8.21,8.21,0,0,1-1.2,4.3,4.35,4.35,0,0,1-3.3,1.6ZM231.1,57c-.1.3.1.4.4.4a4,4,0,0,1,4.3,3.4l.1,1.2c0,.2.1.2.2.2l.2-.1a2.21,2.21,0,0,1,1.6,0,1.55,1.55,0,0,1,1,1.2c.1.2.2.2.3.1a13.83,13.83,0,0,0,4.6-8.2c0-.1,0-.3-.1-.3a.37.37,0,0,0-.3-.1l-1.3.1c-.1,0-.2.1-.3.2a2.09,2.09,0,0,1-.7,1.3,1.79,1.79,0,0,1-1.4.4l-2.4-.1a.91.91,0,0,1-.8-.4,1.14,1.14,0,0,1-.3-.8c0-.1,0-.1-.1-.1l-4.5.5a.65.65,0,0,0-.6.6h0c.2.1.2.3.1.5Zm17.3,20a.47.47,0,0,0,.5-.5v-.2l-.1-.8a.47.47,0,0,0-.5-.5h-.1l-16.4,1.8a.47.47,0,0,0-.5.5v.1l.1.8a.47.47,0,0,0,.5.5h.2Zm-16.2,9.1a.47.47,0,0,0,.5.5h.1l16.4-1.8a.47.47,0,0,0,.5-.5v-.2l-.1-1a.47.47,0,0,0-.5-.5H249l-16.4,1.8a.47.47,0,0,0-.5.5V85Zm.2-16.1h0c-.1.2,0,.2,0,.2l8.7-1a.22.22,0,0,0,.2-.2.37.37,0,0,0-.1-.3c-.6-.6-1.2-1.2-1.8-1.7a.67.67,0,0,0-1-.1l-3,1.5c-1.4.7-2.2,1.3-3,1.6Z" style="fill:#fff"/><path d="M304.6,43.4a.63.63,0,0,0,.5.6h.1l18.3-.6a4.82,4.82,0,0,1,5,4.7,174.34,174.34,0,0,1-1.1,25c-.6,5.3-1.5,8.7-2.8,10.4a9.36,9.36,0,0,1-2.9,2.7,12.34,12.34,0,0,1-3.7,1.2,37.48,37.48,0,0,1-4.7.5h-.1a5.31,5.31,0,0,1-3.5-1.2,8.14,8.14,0,0,1-2.4-3.4,3.55,3.55,0,0,1-.2-1,3.09,3.09,0,0,1,.5-1.8,2.61,2.61,0,0,1,2.2-1.3h.2c1.3,0,2.6,0,3.9-.1a3.86,3.86,0,0,0,2.7-1.1c1.6-1.7,2.6-10,2.9-24.9a.6.6,0,0,0-.1-.4.76.76,0,0,0-.4-.2l-13.8.4a.56.56,0,0,0-.6.5v.1c-.8,14.8-6.3,25.9-16.5,33.5a4.84,4.84,0,0,1-2.9,1h-1a6.34,6.34,0,0,1-3.6-1.9,3.63,3.63,0,0,1-1.1-2.6V83a3.75,3.75,0,0,1,1.5-2.8c8.5-6.1,13.3-14.9,14.3-26.5a.76.76,0,0,0-.2-.4.52.52,0,0,0-.4-.2l-12.3.4a4.4,4.4,0,0,1-4.6-4.3,4.48,4.48,0,0,1,4.4-4.6l12.6-.4a.63.63,0,0,0,.6-.5v-.1l-.2-6.8a4.6,4.6,0,0,1,1.3-3.3,4.5,4.5,0,0,1,6.5-.2h0a4.41,4.41,0,0,1,1.5,3.2Z" style="fill:#fff"/><path d="M357.2,52.6a.44.44,0,0,0,.6-.4v-.1l.1-1.6c0-.1,0-.1-.1-.2h-.1a2.7,2.7,0,0,1-2.1.7h-.1a3.72,3.72,0,0,1-2.2-1c-.4-.4-.8-.7-1.2-1.1a3.17,3.17,0,0,1-1.1-2.7,3.37,3.37,0,0,1,1.3-2.7,36.5,36.5,0,0,0,6.7-6.9,5.7,5.7,0,0,1,3-2.3,5.22,5.22,0,0,1,2.1-.4,4,4,0,0,1,1.5.3l.8.3a2.85,2.85,0,0,1,1.8,1.9,3.59,3.59,0,0,1,.2,1.1,2.39,2.39,0,0,1-.5,1.4v.2c0,.1.1.1.2.1l30.8,1.2a3.8,3.8,0,0,1,0,7.6h-1.2c-.2,0-.5.1-.5.4v.1l-.2,5.1c-.1.3.1.5.4.6h.2l3,.1a3.91,3.91,0,0,1-.3,7.8l-3-.1a.44.44,0,0,0-.6.4v.1l-.2,5c-.1.3.1.5.4.6h.2l2.2.1a3.85,3.85,0,1,1-.3,7.7l-44.9-1.8a3.32,3.32,0,0,1-2.6-1.3,3.89,3.89,0,0,1,.2-5.4,3.74,3.74,0,0,1,2.8-1l2.5.1a.44.44,0,0,0,.6-.4V66l.2-5a.44.44,0,0,0-.4-.6h-.1l-3.5-.1a3.91,3.91,0,0,1,.3-7.8Zm1.6,33.6a4.92,4.92,0,0,1-3,2.1,6.54,6.54,0,0,1-3.9-.3,3.14,3.14,0,0,1-1.9-2.4,3.4,3.4,0,0,1-.1-1,3.72,3.72,0,0,1,.7-2,29.55,29.55,0,0,0,2.3-3.8,5.07,5.07,0,0,1,2.5-2.5,4.65,4.65,0,0,1,2.3-.6,3.6,3.6,0,0,1,1.1.2,4.33,4.33,0,0,1,2.6,2,3.31,3.31,0,0,1,.1,3.2,41.1,41.1,0,0,1-2.7,5.1Zm6.9-25.5c-.3,0-.6.2-.6.4v.1l-.2,5a.44.44,0,0,0,.4.6h.1l1.8.1c.3.1.5-.1.6-.4v-.2l.2-5a.44.44,0,0,0-.4-.6h-1.9Zm.5-14a.44.44,0,0,0-.6.4v.1l-.2,5a.44.44,0,0,0,.4.6h.1l1.8.1a.44.44,0,0,0,.6-.4v-.2l.2-5a.44.44,0,0,0-.4-.6h-1.9Zm-.4,34.9v-.5a4.17,4.17,0,0,1,.9-2.4,3.82,3.82,0,0,1,2.8-1.4h.6a4,4,0,0,1,2.5,1,3.66,3.66,0,0,1,1.6,2.7c.1,1.1.3,2.2.4,3.3v.6a4,4,0,0,1-1,2.6,4.7,4.7,0,0,1-3.1,1.6h-.6a3.69,3.69,0,0,1-2.4-1,4,4,0,0,1-1.4-2.9c-.1-1.3-.1-2.4-.3-3.6Zm12.4-19.8c0-.3-.2-.6-.4-.6h-.1l-1.9-.1a.44.44,0,0,0-.6.4v.1l-.2,5a.44.44,0,0,0,.4.6h.1l1.9.1c.3.1.5-.1.6-.4v-.2Zm-2.7-9.1a.44.44,0,0,0,.4.6h.2l1.9.1a.44.44,0,0,0,.6-.4v-.2l.2-5c0-.3-.2-.6-.4-.6h-.1l-1.9-.1a.44.44,0,0,0-.6.4v.1Zm2.7,29.6a4.1,4.1,0,0,1-.1-1.1,3.29,3.29,0,0,1,.6-1.9,3.11,3.11,0,0,1,2.6-1.5,2.77,2.77,0,0,1,.9-.1,4.07,4.07,0,0,1,2.4.8,5.14,5.14,0,0,1,2.1,2.7c.3,1.1.6,2.1.8,3.1a4.1,4.1,0,0,1,.1,1.1,3.23,3.23,0,0,1-.8,2.1,4.16,4.16,0,0,1-3,1.8H383a3.58,3.58,0,0,1-2.4-.9,4.53,4.53,0,0,1-1.8-2.9,19.85,19.85,0,0,0-.6-3.2Zm9.5-14.6c.3,0,.6-.2.6-.4v-.1l.2-5c.1-.3-.1-.5-.4-.6h-.2l-1.9-.1a.44.44,0,0,0-.6.4V62l-.2,5a.44.44,0,0,0,.4.6h.2Zm.6-13.9c.3.1.5-.1.6-.4v-.2l.2-5c.1-.3-.1-.5-.4-.6h-.2l-1.9-.1c-.3-.1-.5.1-.6.4v.2l-.2,5a.44.44,0,0,0,.4.6h.1Zm2.8,28.4a3.29,3.29,0,0,1-.4-1.7,3.08,3.08,0,0,1,.3-1.3,3.37,3.37,0,0,1,2.2-2A11,11,0,0,1,395,77a6.47,6.47,0,0,1,2,.4,6,6,0,0,1,2.8,2.4c1,1.6,1.9,3.2,2.6,4.6a4.07,4.07,0,0,1,.5,1.8,2.82,2.82,0,0,1-.4,1.5,4.06,4.06,0,0,1-2.6,2.2,4.4,4.4,0,0,1-1.6.2,3.94,3.94,0,0,1-2.1-.6,5.26,5.26,0,0,1-2.6-2.7c-.8-1.4-1.6-2.9-2.5-4.6Z" style="fill:#fff"/><path d="M440.2,40.2a2.45,2.45,0,0,1,2,.5l1.9,1.3a4.81,4.81,0,0,1,1.7,2.3,4.88,4.88,0,0,1,.1,1.7,2.66,2.66,0,0,1-.3,1.2c-2.3,5.7-4,9.9-5.3,12.6a1.11,1.11,0,0,0,.1,1.1,18.75,18.75,0,0,1,2.4,11.8c-.4,4.2-1.8,6.8-3.9,8.1a6.22,6.22,0,0,1-2.6.9,4.1,4.1,0,0,1-1.1.1,3.59,3.59,0,0,1-2.4-1.3,7.38,7.38,0,0,1-1.8-3.9,2.92,2.92,0,0,0-.2-.9.1.1,0,0,0-.1-.1c-.1,0-.1,0-.1.1L429,89.8a3.55,3.55,0,0,1-1.5,2.7,4,4,0,0,1-6.6-3.5v-.1l4.8-45a4.76,4.76,0,0,1,1.9-3.5,5,5,0,0,1,3.7-1l8.6.9C440.1,40.3,440.2,40.3,440.2,40.2Zm-6.1,7.2a.44.44,0,0,0-.6.4v.1l-2.7,25.2a.44.44,0,0,0,.4.6h.1l.9.1a2.49,2.49,0,0,0,1.7-.3c.7-.4,1.1-1.4,1.2-2.9a14.53,14.53,0,0,0-.5-5.5,20,20,0,0,1-.8-7.3,8.74,8.74,0,0,1,.5-2.2c.8-2.3,1.5-4.8,2.4-7.5.1-.1,0-.3,0-.4a.52.52,0,0,0-.4-.2Zm36.1,25.2c-.1,0-.1,0-.1.1s0,.1.1.2l1.9,1.7a4.07,4.07,0,0,1,1.5,3.2v.4a3.66,3.66,0,0,1-1.6,2.7l-3.4,2.4a.63.63,0,0,0-.3.8v.1a18.19,18.19,0,0,0,3.6,4.2,4.47,4.47,0,0,1,1.4,3.6,3.84,3.84,0,0,1-1.1,2.3A5.91,5.91,0,0,1,469,96h-1a3.84,3.84,0,0,1-2.3-1.1,25.59,25.59,0,0,1-6.2-9.7,62.72,62.72,0,0,1-3-13.5.75.75,0,0,0-.6-.7l-1.9-.2a.44.44,0,0,0-.6.4v.1L452,84c0,.3.1.5.4.5h.1l2.8-.2h.6a3,3,0,0,1,2,1,3.63,3.63,0,0,1,1.1,2.6v.4a4.12,4.12,0,0,1-1.1,2.4,4,4,0,0,1-2.7,1.4l-11.4,1.2h-1.1a5,5,0,0,1-4.3-3.9,4.87,4.87,0,0,1-.1-1.2,4.55,4.55,0,0,1,.8-1.9,3.32,3.32,0,0,1,2.7-1.4h1a.67.67,0,0,0,.6-.7l4.1-38.1a5.07,5.07,0,0,1,5.6-4.5l18.3,2a5.07,5.07,0,0,1,4.5,5.6l-2.2,20.4a3.18,3.18,0,0,1-3.5,3Zm-15-12.7a.44.44,0,0,0-.6.4v.2l-.3,2.4a.44.44,0,0,0,.4.6h.1L465,64.6a.44.44,0,0,0,.6-.4v-.1l.3-2.4a.44.44,0,0,0-.4-.6h-.1ZM467,51.4a.44.44,0,0,0-.4-.6h-.1l-10.2-1.1a.44.44,0,0,0-.6.4v.1l-.2,2.2a.44.44,0,0,0,.4.6h.1l10.2,1.1a.44.44,0,0,0,.6-.4v-.1ZM469.2,73a.37.37,0,0,0,.1-.3.22.22,0,0,0-.2-.2l-4.4-.5a.4.4,0,0,0-.5.5,23.39,23.39,0,0,0,.9,3.8.22.22,0,0,0,.2.2h.4C466.9,75.4,468.1,74.2,469.2,73Z" style="fill:#fff"/></svg>