<?xml version="1.0" encoding="utf-8"?>
<!-- Generator: Adobe Illustrator 21.1.0, SVG Export Plug-In . SVG Version: 6.00 Build 0)  -->
<svg version="1.1" id="圖層_1" xmlns="http://www.w3.org/2000/svg" xmlns:xlink="http://www.w3.org/1999/xlink" x="0px" y="0px"
	 viewBox="0 0 677.8 185.2" style="enable-background:new 0 0 677.8 185.2;" xml:space="preserve">
<style type="text/css">
	.st0{fill:#FFFFFF;}
	.st1{fill:#7EBC25;}
	.st2{fill:#75AE21;stroke:#3E7C18;stroke-width:5.91;stroke-linecap:round;stroke-linejoin:round;}
	.st3{fill:#3E7C18;}
	.st4{fill:#FFFFFF;stroke:#3E7C18;stroke-width:4.45;stroke-linecap:round;stroke-linejoin:round;}
	.st5{fill:#FFE51B;}
</style>
<title>互動設計UI</title>
<path class="st0" d="M102.8,71.4c0,0-26.8,1.5-83.8-7.5c0,0,33.9,43.7,46.4,52.8c0,0-33.9,31.7-62.4,43.7c0,0,67.6,21.9,144.4,21.9"
	/>
<path class="st1" d="M127.8,81.5c0,0-36.7,8-93.8-1c0,0,18.9,27.1,31.4,36.1c0,0-33.9,31.7-62.4,43.7c0,0,67.6,21.9,144.4,21.9"/>
<polyline class="st2" points="100,140.2 147.3,182.3 147.3,127.1 "/>
<path class="st0" d="M575,71.4c0,0,26.8,1.5,83.8-7.5c0,0-33.9,43.7-46.4,52.8c0,0,33.9,31.7,62.4,43.7c0,0-67.5,21.9-144.4,21.9"/>
<path class="st1" d="M573.5,82.5c0,0,21.4,7.1,69.3-3.1c0,0-17.9,28.1-30.4,37.1c0,0,33.9,31.7,62.4,43.7c0,0-67.5,21.9-144.4,21.9"
	/>
<path class="st3" d="M147.3,185.2C70.9,185.2,2.7,163.4,2,163.2c-1.2-0.4-2-1.5-2-2.7c-0.1-1.2,0.7-2.4,1.8-2.8
	c23.3-9.9,50.7-33.4,59-40.9C46.7,104.3,18,67.3,16.7,65.7c-0.7-1-0.8-2.3-0.2-3.3c0.6-1,1.8-1.6,3-1.4c56,8.9,82.9,7.5,83.2,7.5
	c1.6-0.1,3,1.2,3.1,2.8c0.1,1.6-1.2,3-2.8,3.1c-1.1,0.1-25.4,1.3-77-6.4c9.7,12.2,31.8,39.6,41.1,46.3c0.7,0.5,1.2,1.3,1.2,2.2
	c0.1,0.9-0.3,1.7-0.9,2.3c-1.3,1.2-29.4,27.3-56.2,41c19.5,5.5,75.2,19.6,136.1,19.6c1.6,0,3,1.3,3,3S148.9,185.2,147.3,185.2z"/>
<path class="st3" d="M530.5,185.2c-1.6,0-3-1.3-3-3s1.3-3,3-3c60.9,0,116.6-14.1,136.1-19.6c-26.8-13.7-54.9-39.8-56.2-41
	c-0.6-0.6-1-1.5-0.9-2.3c0.1-0.9,0.5-1.7,1.2-2.2c9.3-6.7,31.5-34.1,41.1-46.3c-51.6,7.7-76,6.5-77,6.4c-1.6-0.1-2.9-1.5-2.8-3.1
	c0.1-1.6,1.5-2.9,3.1-2.8c0.3,0,27.2,1.4,83.2-7.5c1.2-0.2,2.4,0.4,3,1.4c0.6,1,0.5,2.4-0.2,3.3c-1.3,1.7-30,38.7-44.2,51.1
	c8.3,7.4,35.7,31,59,40.9c1.1,0.5,1.9,1.6,1.8,2.8c-0.1,1.2-0.9,2.3-2,2.7C675.1,163.4,606.9,185.2,530.5,185.2z"/>
<polyline class="st2" points="577.8,140.2 530.5,182.3 530.5,127.1 "/>
<path class="st0" d="M577.8,36.4c0,0-88.6-33.3-234.2-33.4h-0.9C197.1,3.1,100,36.4,100,36.4v103.9c21.2-6.8,46.2-12.3,71.8-16.9
	c110.5-19.6,223.5-19.6,334,0c25.7,4.6,50.6,10.2,71.8,16.9L577.8,36.4z"/>
<path class="st1" d="M554.2,61.3c0,0-65.3-35.1-210.6-44.1h-0.9c-145.6,0.1-230.4,26.7-230.4,26.7v92.8c21.2-6,33.9-7.8,59.6-11.9
	c110.6-17.6,223.4-17.6,334,0c25.7,4.1,27,5.8,48.2,11.9L554.2,61.3z"/>
<path class="st3" d="M100,143.2c-0.6,0-1.2-0.2-1.7-0.6c-0.8-0.6-1.2-1.4-1.2-2.4V36.4c0-1.3,0.8-2.4,2-2.8
	c1-0.3,99.2-33.5,243.6-33.6h0.9C488,0.1,577.9,33.3,578.8,33.6c1.2,0.4,1.9,1.5,1.9,2.8l0,103.9c0,0.9-0.5,1.8-1.2,2.4
	c-0.8,0.6-1.7,0.7-2.6,0.4c-19.3-6.1-43.3-11.8-71.5-16.8c-110.5-19.6-222.5-19.6-333,0c-28.1,5-52.2,10.7-71.5,16.8
	C100.6,143.2,100.3,143.2,100,143.2z M338.9,105.6c56,0,111.9,4.9,167.5,14.8c26.5,4.7,49.5,10,68.4,15.8l0-97.8
	C561.1,33.8,475.3,6,343.6,5.9h-0.9C210.6,6,117.6,33.9,103,38.5v97.7c18.9-5.8,41.8-11.1,68.4-15.8
	C226.9,110.6,282.9,105.6,338.9,105.6z"/>
<polygon class="st4" points="524.4,45.6 530.1,64.2 548.6,70.1 532.7,81.3 532.9,100.7 517.3,89 498.8,95.2 505.2,76.8 493.6,61.1 
	513,61.5 "/>
<polygon class="st5" points="520.9,57.3 524.6,69.3 536.6,73.1 526.3,80.4 526.4,93 516.3,85.4 504.4,89.4 508.5,77.5 501,67.3 
	513.6,67.5 "/>
<polygon class="st4" points="153.4,45.6 147.7,64.2 129.2,70.1 145.1,81.3 144.9,100.7 160.5,89 179,95.2 172.6,76.8 184.2,61.1 
	164.8,61.5 "/>
<polygon class="st5" points="156.9,57.3 153.2,69.3 141.2,73.1 151.5,80.4 151.4,93 161.5,85.4 173.4,89.4 169.3,77.5 176.8,67.3 
	164.2,67.5 "/>
<path class="st0" d="M256.2,71.1c1.1-0.2,2.2,0.2,3,0.9c1.7,1.4,2,3.9,0.6,5.6c-0.7,0.8-1.6,1.4-2.7,1.5l-2,0.2
	c-0.3,0-0.5,0.2-0.5,0.5c0,0,0,0.1,0,0.1l0.4,3.7c0.3,1.7,0.2,3.4-0.3,5c-0.5,1.3-1.4,2.4-2.5,3.1c-2.1,1.2-4.5,1.9-6.9,2.1H245
	c-1.1,0.1-2.2-0.1-3.2-0.7c-1.1-0.7-2-1.6-2.6-2.8c-0.1-0.3-0.2-0.7-0.3-1c-0.1-0.6,0-1.1,0.3-1.6c0.4-0.8,1.2-1.4,2.1-1.5l1.5-0.2
	l1.2-0.1l0.8-0.1c0.4,0,0.8-0.1,1.1-0.4c0.2-0.3,0.3-0.7,0.2-1l-0.4-3.6c0-0.3-0.2-0.5-0.5-0.5c0,0-0.1,0-0.1,0l-25.1,2.8
	c-0.3,0-0.5,0.2-0.5,0.5c0,0,0,0.1,0,0.1l1,8.5c0.1,1.1-0.2,2.3-0.9,3.1c-1.5,1.9-4.2,2.2-6.1,0.7c-0.9-0.7-1.5-1.7-1.6-2.9
	l-0.9-8.5c0-0.3-0.2-0.5-0.5-0.5c0,0-0.1,0-0.1,0l-2.1,0.2c-1.1,0.2-2.2-0.2-3-0.8c-1.7-1.4-2-3.9-0.6-5.6c0.7-0.8,1.6-1.4,2.7-1.5
	l2.1-0.2c0.3,0,0.5-0.2,0.5-0.5c0,0,0-0.1,0-0.1l-1.8-16c-0.3-2.8,1.7-5.3,4.5-5.6l11.4-1.3c0.3,0,0.5-0.2,0.5-0.5c0,0,0-0.1,0-0.1
	l-0.2-1.7c0-0.3-0.2-0.5-0.5-0.5c0,0-0.1,0-0.1,0l-16.6,1.8c-2.2,0-4-1.7-4.1-3.9c0-1.9,1.3-3.6,3.2-4l43.6-4.8
	c1.1-0.1,2.1,0.2,3,0.8c1.7,1.4,2,3.9,0.6,5.6c-0.6,0.8-1.6,1.4-2.7,1.5l-17.1,1.9c-0.3,0-0.5,0.2-0.5,0.5c0,0,0,0.1,0,0.1l0.2,1.7
	c0,0.3,0.2,0.5,0.5,0.5c0,0,0.1,0,0.1,0l11.9-1.3c1.3-0.2,2.7,0.2,3.7,1.1c1.1,0.8,1.8,2.1,1.9,3.4l1.8,16c0,0.3,0.2,0.5,0.5,0.5
	c0,0,0.1,0,0.1,0L256.2,71.1z M225.7,60.9c0-0.3-0.2-0.5-0.5-0.5c0,0-0.1,0-0.1,0l-7.3,0.8c-0.3,0-0.5,0.2-0.5,0.5c0,0,0,0.1,0,0.1
	l0.2,2c0,0.3,0.2,0.5,0.5,0.6c0.1,0,0.1,0,0.2,0l7.3-0.8c0.3,0,0.5-0.2,0.5-0.5c0-0.1,0-0.1,0-0.2L225.7,60.9z M218.9,71.7
	c-0.3,0-0.5,0.2-0.5,0.5c0,0,0,0.1,0,0.1l0.2,2.3c0,0.3,0.2,0.5,0.5,0.5c0,0,0.1,0,0.1,0l7.3-0.8c0.3,0,0.5-0.2,0.5-0.5
	c0-0.1,0-0.1,0-0.2l-0.2-2.3c0-0.3-0.2-0.5-0.5-0.5c0,0-0.1,0-0.1,0L218.9,71.7z M243.4,59c0-0.3-0.2-0.5-0.5-0.5c0,0-0.1,0-0.1,0
	l-7.7,0.9c-0.3,0-0.5,0.2-0.5,0.5c0,0,0,0.1,0,0.1l0.2,2c0,0.3,0.2,0.5,0.5,0.5c0,0,0.1,0,0.1,0l7.8-0.9c0.3,0,0.5-0.2,0.5-0.5
	c0,0,0-0.1,0-0.1L243.4,59z M235.9,72.7c0,0.3,0.2,0.5,0.5,0.5c0,0,0.1,0,0.1,0l7.7-0.9c0.3,0,0.5-0.2,0.5-0.5c0,0,0-0.1,0-0.1
	l-0.2-2.3c0-0.3-0.2-0.5-0.5-0.5c0,0-0.1,0-0.1,0l-7.7,0.9c-0.3,0-0.5,0.2-0.5,0.5c0,0,0,0.1,0,0.1L235.9,72.7z"/>
<path class="st0" d="M330.6,52.2c1.5,1.4,1.5,3.7,0.1,5.2c-0.6,0.7-1.6,1.1-2.5,1.2l-12.4,0.4c-0.4,0-0.7,0.2-0.9,0.6l-1,2.3
	c0,0.1,0,0.2,0,0.4c0.1,0.1,0.2,0.2,0.3,0.2l14-0.4c1,0,1.9,0.3,2.6,1c0.7,0.7,1.1,1.6,1.2,2.5c0.1,2-1.5,3.6-3.5,3.7c0,0,0,0,0,0
	l-1.9,0.1c-0.4,0-0.7,0.2-0.8,0.6c-0.6,2.7-1.5,5.4-2.9,7.8c-0.2,0.4-0.2,0.6,0.2,0.8c1.9,0.8,3.7,1.6,5.3,2.4
	c1,0.5,1.7,1.4,1.8,2.5c0,0.2,0.1,0.4,0.1,0.6c0,0.9-0.3,1.7-0.9,2.4c-0.7,0.9-1.8,1.5-2.9,1.7c-0.2,0-0.5,0.1-0.7,0.1
	c-0.9,0-1.9-0.2-2.7-0.7c-1.7-0.9-3.6-1.9-5.7-2.9c-0.3-0.1-0.7-0.1-1,0.1c-3.6,2.3-8.9,4.2-15.8,5.5c-0.2,0.1-0.5,0.1-0.7,0.1
	c-0.8,0-1.6-0.2-2.3-0.6c-1-0.6-1.7-1.4-2.2-2.4c-0.2-0.5-0.3-1-0.2-1.6c0.1-0.5,0.3-1,0.7-1.4c0.4-0.4,0.9-0.7,1.4-0.8
	c3.5-0.4,7-1.2,10.4-2.4c0.1,0,0.2-0.1,0.2-0.2c0-0.1-0.1-0.2-0.2-0.2c-0.7-0.3-1.3-0.5-2-0.7c-0.1,0-0.1,0-0.1,0
	c-0.2,0.4-0.7,0.7-1.2,0.5l-3-0.8c-0.9-0.2-1.7-0.9-2.1-1.8c-0.2-0.4-0.3-0.8-0.3-1.3c0-0.5,0.1-1,0.3-1.5c0.6-1.3,1.3-2.7,2-4.3
	c0-0.1,0-0.3-0.1-0.3c-0.1-0.1-0.2-0.2-0.3-0.2l-3,0.1c-0.7,0-1.5-0.2-2-0.7c-0.6-0.5-0.9-1.2-0.9-1.9c0-0.2-0.1-0.3-0.3-0.2l-3.1,1
	c-0.3,0.1-0.6,0.4-0.5,0.7l0.4,12.1c0.1,1.7,0,3.4-0.5,5c-0.4,1.2-1.1,2.2-2.1,2.9c-1.5,0.9-3.2,1.5-5,1.7c-0.2,0-0.3,0.1-0.5,0.1
	c-1,0-2.1-0.3-2.9-1c-1-0.8-1.7-1.9-2.1-3.1c-0.1-0.3-0.1-0.6-0.1-0.9c0-0.7,0.2-1.3,0.5-1.9c0.5-0.8,1.5-1.3,2.4-1.3h0.9
	c0.3,0,0.6-0.1,0.8-0.3c0.2-0.3,0.3-0.6,0.2-0.9l-0.3-9.9c0-0.1-0.1-0.3-0.2-0.3c-0.1-0.1-0.3-0.1-0.4,0l-1.3,0.3
	c-0.3,0.1-0.7,0.2-1,0.2c-0.8,0-1.5-0.2-2.1-0.6c-1-0.5-1.7-1.5-2-2.6c0-0.3-0.1-0.6-0.1-0.9c0-0.8,0.2-1.6,0.6-2.3
	c0.6-1,1.6-1.7,2.7-1.9l2.9-0.7c0.4,0,0.6-0.4,0.6-0.7l-0.2-8.3c0-0.3-0.2-0.5-0.5-0.6c-0.1,0-0.1,0-0.2,0l-1.9,0.1
	c-1.1,0-2.1-0.4-2.9-1.1c-1.6-1.5-1.7-4-0.2-5.6c0.7-0.8,1.7-1.2,2.8-1.2l1.9-0.1c0.3,0,0.5-0.2,0.6-0.5c0-0.1,0-0.1,0-0.2l-0.2-6.1
	c-0.1-2.3,1.6-4.2,3.9-4.3c0,0,0.1,0,0.1,0c1.1-0.1,2.2,0.4,3,1.1c0.8,0.7,1.3,1.8,1.3,2.8l0.2,6.3c0,0.2,0.1,0.4,0.3,0.4
	c0,0,0.1,0,0.1,0c0.9,0,1.8,0.3,2.5,1c0.7,0.6,1.1,1.5,1.1,2.5l0.1,3.7c0,0.3,0.2,0.5,0.4,0.6c0.1,0,0.1,0,0.2,0l6.7-0.2
	c0.1,0,0.3-0.1,0.4-0.2c0.1-0.1,0.1-0.3,0.1-0.4c-0.3-1.7-0.7-3.4-1.3-5.1c-0.1-0.3-0.4-0.5-0.7-0.5h-1.2c-1,0-1.9-0.3-2.6-1
	c-0.7-0.6-1.1-1.5-1.1-2.5c0-1,0.3-1.9,1-2.6c0.7-0.7,1.6-1.1,2.5-1.1l8.8-0.3c0.3,0,0.5-0.2,0.5-0.6v-0.4c0-1.2,0.4-2.3,1.2-3.2
	c0.8-0.9,1.9-1.4,3.1-1.4c2.4,0,4.5,1.9,4.6,4.3v0.4c0,0.4,0.2,0.6,0.5,0.6l8.7-0.3c1,0,1.9,0.3,2.6,1c0.7,0.6,1.1,1.6,1.2,2.5
	c0,2-1.5,3.7-3.5,3.8h-0.6c-0.3,0-0.5,0.2-0.6,0.4c-0.9,2.8-1.5,4.5-1.7,5.3c-0.1,0.1-0.1,0.2,0,0.3c0.1,0.1,0.2,0.2,0.4,0.2
	l4.2-0.1C328.9,51.2,329.9,51.5,330.6,52.2z M291.2,52.5c-0.3,0-0.5,0.2-0.6,0.5c0,0,0,0.1,0,0.1l0.2,6.4c0,0.1,0.1,0.3,0.2,0.4
	c0.1,0.1,0.3,0.1,0.4,0.1l2.3-0.7c0.3-0.1,0.6-0.4,0.5-0.7l-0.2-5.6c0-0.3-0.2-0.5-0.5-0.6c0,0-0.1,0-0.1,0L291.2,52.5z M295,62.3
	c0.1,0.3,0.4,0.6,0.7,0.6l8.2-0.2c0.4,0,0.7-0.2,0.8-0.6l0.9-2.3c0.1-0.1,0.1-0.2,0-0.3c-0.1-0.1-0.2-0.2-0.3-0.2l-10.1,0.3
	c-0.3,0-0.5,0.2-0.5,0.5c0,0,0,0.1,0,0.1L295,62.3z M316.8,45.9c0-0.1,0-0.3-0.1-0.3c-0.1-0.1-0.2-0.2-0.4-0.2l-7,0.2
	c-0.1,0-0.3,0.1-0.3,0.2c-0.1,0.1-0.1,0.2,0,0.4c0.6,1.6,1,3.3,1.3,5c0,0.3,0.3,0.6,0.6,0.6c0,0,0.1,0,0.1,0l3.9-0.1
	c0.3,0,0.7-0.2,0.7-0.6C316.1,49.2,316.5,47.5,316.8,45.9L316.8,45.9z M317.3,70c0.1-0.1,0.1-0.3,0-0.4c-0.1-0.1-0.2-0.2-0.4-0.2
	l-5.8,0.2c-0.4,0-0.7,0.2-0.9,0.6c-0.5,1.1-0.9,1.9-1.2,2.6c-0.1,0.4,0,0.6,0.3,0.7c1.5,0.4,3.3,0.9,5.1,1.6c0.3,0.1,0.7,0,0.9-0.3
	C316.2,73.2,316.9,71.7,317.3,70L317.3,70z"/>
<path class="st0" d="M400.8,70.1c1.1,0,2.1,0.5,2.8,1.3c1.5,1.6,1.4,4.2-0.3,5.6c-0.8,0.7-1.8,1.1-2.8,1l-2.1-0.1
	c-0.3-0.1-0.5,0.1-0.6,0.4c0,0.1,0,0.1,0,0.2l-0.1,3.8c0,1.7-0.3,3.4-1,4.9c-0.7,1.2-1.7,2.2-3,2.7c-2.3,0.8-4.7,1.2-7.1,1.1h-0.2
	c-1.1,0-2.2-0.4-3.1-1.2c-1-0.8-1.7-1.9-2.1-3.1c-0.1-0.3-0.1-0.7-0.1-1.1c0-0.6,0.2-1.1,0.5-1.6c0.5-0.8,1.4-1.2,2.3-1.1l1.5,0.1
	h1.2h0.8c0.4,0.1,0.8,0,1.1-0.2c0.3-0.3,0.4-0.6,0.4-1l0.1-3.6c0.1-0.3-0.1-0.6-0.4-0.6c0,0-0.1,0-0.1,0l-25.1-1
	c-0.3-0.1-0.6,0.1-0.6,0.4c0,0,0,0.1,0,0.1l-0.3,8.6c-0.1,2.4-2.1,4.2-4.5,4.1c-1.1,0-2.2-0.5-3-1.4c-0.7-0.8-1.2-1.8-1.2-2.9
	l0.3-8.6c0.1-0.3-0.1-0.6-0.4-0.6c0,0-0.1,0-0.1,0l-2.1-0.1c-1.1,0-2.1-0.5-2.8-1.3c-1.5-1.6-1.4-4.1,0.2-5.6c0.8-0.7,1.8-1.1,2.9-1
	l2.1,0.1c0.3,0.1,0.6-0.1,0.6-0.4c0-0.1,0-0.1,0-0.2l0.6-16.1c0.1-2.8,2.5-5,5.3-4.9c0,0,0,0,0,0l11.5,0.5c0.3,0.1,0.6-0.1,0.6-0.4
	c0,0,0-0.1,0-0.1l0.1-1.7c0.1-0.3-0.1-0.6-0.4-0.6c0,0-0.1,0-0.1,0l-16.7-0.7c-2.2-0.1-3.9-1.9-3.8-4.2s1.9-3.9,4.2-3.8l43.8,1.7
	c1.1,0,2.1,0.5,2.8,1.3c1.5,1.6,1.4,4.1-0.2,5.6c-0.8,0.8-1.8,1.2-2.9,1.1l-17.2-0.7c-0.3-0.1-0.6,0.1-0.6,0.4c0,0.1,0,0.1,0,0.2
	l-0.1,1.7c-0.1,0.3,0.1,0.5,0.4,0.6c0.1,0,0.1,0,0.2,0l12,0.5c2.8,0.1,5,2.5,4.9,5.3l-0.6,16c0,0.3,0.2,0.6,0.4,0.6c0,0,0.1,0,0.1,0
	L400.8,70.1z M364,65.2c-0.3-0.1-0.6,0.1-0.6,0.4c0,0,0,0.1,0,0.1l-0.1,2.3c-0.1,0.3,0.1,0.5,0.4,0.6c0.1,0,0.1,0,0.2,0l7.3,0.3
	c0.3,0.1,0.5-0.1,0.6-0.4c0-0.1,0-0.1,0-0.2l0.1-2.3c0.1-0.3-0.1-0.5-0.4-0.6c-0.1,0-0.1,0-0.2,0L364,65.2z M372.3,55.6
	c0.1-0.3-0.1-0.6-0.4-0.6c-0.1,0-0.1,0-0.2,0l-7.3-0.3c-0.3-0.1-0.5,0.1-0.6,0.4c0,0.1,0,0.1,0,0.2l-0.1,2c-0.1,0.3,0.1,0.5,0.4,0.6
	c0.1,0,0.1,0,0.2,0l7.3,0.3c0.3,0.1,0.5-0.1,0.6-0.4c0-0.1,0-0.1,0-0.2L372.3,55.6z M380.5,68.7c-0.1,0.3,0.1,0.6,0.4,0.6
	c0.1,0,0.1,0,0.2,0l7.8,0.3c0.3,0.1,0.6-0.1,0.6-0.4c0,0,0-0.1,0-0.1l0.1-2.3c0.1-0.3-0.1-0.6-0.4-0.6c0,0-0.1,0-0.1,0l-7.8-0.3
	c-0.3-0.1-0.6,0.1-0.6,0.4c0,0,0,0.1,0,0.1L380.5,68.7z M390,56.3c0-0.3-0.1-0.6-0.4-0.6c0,0-0.1,0-0.1,0l-7.8-0.3
	c-0.3-0.1-0.5,0.1-0.6,0.4c0,0.1,0,0.1,0,0.2l-0.1,2c-0.1,0.3,0.1,0.6,0.4,0.6c0,0,0.1,0,0.1,0l7.8,0.3c0.3,0,0.6-0.2,0.6-0.4
	c0,0,0-0.1,0-0.1L390,56.3z"/>
<path class="st0" d="M472.7,54.8c1.3,0.1,2.6,0.8,3.4,1.8c0.8,1,1.2,2.3,1,3.6c-0.2,2.3-0.9,7.3-2,15.1c-0.5,3.6-1,6.9-1.5,9.9
	c-0.3,2.2-0.8,4.3-1.4,6.4c-0.3,1.1-0.7,2.1-1.4,3c-0.6,0.8-1.3,1.5-2.1,1.9c-0.8,0.4-1.7,0.7-2.6,0.8c-0.5,0.1-1,0.1-1.4,0.1
	c-0.2,0-0.4,0-0.6,0c-1.2-0.1-2.2-0.7-3-1.6c-1-1.1-1.7-2.5-2-3.9c0-0.1-0.1-0.2-0.1-0.3c0-0.1-0.1-0.2-0.2-0.2
	c-0.1,0-0.2,0-0.2,0.1c-0.2,0.4-0.4,0.8-0.6,1.2c-0.5,0.9-1.4,1.4-2.4,1.4h-0.4c-0.9-0.1-1.7-0.5-2.2-1.2c-0.1-0.1-0.2-0.1-0.3-0.1
	c-0.1,0-0.2,0.1-0.2,0.2c-0.3,1-1,1.8-2,2.2c-1.1,0.4-2.3,0.5-3.5,0.4c-0.1,0-0.1,0-0.2,0c-0.7-0.1-1.3-0.4-1.8-0.9
	c-0.5-0.5-0.9-1.2-1-2c-0.1-0.6,0-1.2,0.4-1.6c0.4-0.5,1-0.7,1.5-0.6h0.2c0.3,0.1,0.6-0.1,0.6-0.4c0,0,0-0.1,0-0.1v-0.4
	c0-0.2,0-0.2-0.2-0.2l-1,0.1c-0.3,0.1-0.6,0-0.8-0.3c-0.2-0.2-0.4-0.5-0.4-0.8c0-0.1,0-0.2-0.1-0.1l-8,0.1h-0.4
	c-1.3-0.2-2.3-1.3-2.4-2.6c0-0.2,0-0.3,0-0.4c0.1-1.3,1.3-2.2,2.5-2.2h0.9c0.2,0,0.4-0.1,0.4-0.3c0,0,0-0.1,0-0.1l0.2-2.3
	c0.1-0.3-0.1-0.6-0.4-0.6c0,0-0.1,0-0.1,0l-3.1-0.3c-0.3-0.1-0.6,0.1-0.6,0.4c0,0,0,0.1,0,0.1l-1.2,11.1c-0.1,0.8-0.5,1.6-1.1,2.1
	c-0.6,0.5-1.4,0.7-2.2,0.7c-0.8-0.1-1.6-0.5-2.1-1.1c-0.5-0.6-0.8-1.4-0.7-2.2l1.3-12.4V78c0,0,0,0,0,0.1c-0.8,3.7-1.9,7.3-3.2,10.8
	c-0.3,0.8-0.9,1.3-1.7,1.4c-0.8,0.2-1.7,0-2.3-0.5c-0.8-0.6-1.3-1.4-1.5-2.4c-0.2-0.6-0.2-1.1-0.2-1.7c0-0.4,0.1-0.7,0.3-1.1
	c2.2-5.8,3.9-14.8,5.2-27l1.6-15c0.3-2.8,2.8-4.8,5.6-4.5l24.1,2.6c0.9,0.1,1.7,0.5,2.2,1.2c0.6,0.6,0.8,1.5,0.7,2.4
	c-0.2,1.8-1.8,3.1-3.6,2.9l-21.9-2.3c-0.3-0.1-0.6,0.1-0.6,0.4c0,0.1,0,0.1,0,0.2l-1.4,13c-0.5,5.1-1.2,9.9-2,14.4
	c0,0.2,0,0.3,0.1,0.4c0.1,0.1,0.2,0.2,0.4,0.2l8.9,1c0.3,0.1,0.6-0.1,0.6-0.4c0,0,0-0.1,0-0.1v-0.5c0.1-0.3-0.1-0.6-0.4-0.6
	c0,0-0.1,0-0.1,0l-3-0.3c-1.3-0.1-2.6-0.8-3.4-1.8c-0.9-1-1.3-2.4-1.1-3.8l0.7-6.3c0.3-2.8,2.8-4.8,5.6-4.5c0,0,0,0,0.1,0l13.4,1.4
	c2.8,0.3,4.8,2.8,4.5,5.6l-0.7,6.3c-0.1,1.4-0.8,2.6-1.9,3.4c-1,0.9-2.4,1.2-3.7,1.1l-3.2-0.4c-0.3-0.1-0.6,0.1-0.6,0.4
	c0,0,0,0.1,0,0.1l-0.1,0.5c-0.1,0.3,0.1,0.6,0.4,0.6c0,0,0.1,0,0.1,0l4.2,0.4c2.8,0.3,4.8,2.8,4.5,5.6c0,0,0,0,0,0l-0.2,2.2
	c0,0.1,0,0.1,0,0.1c2.1-5,3.8-12.3,5.1-22c0-0.1-0.1-0.3-0.2-0.3c0,0,0,0-0.1,0c-0.6-0.1-1.2-0.4-1.6-0.9c-0.4-0.5-0.6-1.1-0.5-1.7
	l0.3-3c0.1-0.6,0.4-1.2,0.9-1.7c0.5-0.4,1.2-0.6,1.8-0.5c0.2,0,0.3-0.1,0.3-0.3c0.3-2.3,0.6-5.3,1-8.8c0.1-1,0.6-1.9,1.4-2.6
	c0.8-0.6,1.8-0.9,2.8-0.8c1,0.1,2,0.6,2.6,1.4c0.7,0.8,1,1.8,0.9,2.8c-0.4,3.3-0.7,6.2-1,8.6c0,0.2,0,0.3,0.1,0.4
	c0.1,0.1,0.2,0.2,0.4,0.2L472.7,54.8z M451.7,54.9c-0.1,0.5-0.3,1-0.7,1.3c-0.4,0.3-0.9,0.5-1.4,0.4l-2-0.2c-0.5,0-1-0.3-1.3-0.7
	c-0.3-0.4-0.5-0.9-0.4-1.4c0-0.1-0.1-0.2-0.2-0.2c0,0,0,0,0,0l-3.7-0.4c-0.2,0-0.2,0-0.3,0.2c-0.1,0.5-0.3,1-0.7,1.3
	c-0.4,0.3-0.9,0.5-1.4,0.4l-2-0.2c-0.5,0-1-0.3-1.3-0.7c-0.3-0.4-0.5-0.9-0.4-1.4c0-0.1-0.1-0.2-0.2-0.3c0,0,0,0,0,0l-1.4-0.1
	c-0.6-0.1-1.2-0.4-1.6-0.9c-0.4-0.5-0.6-1.2-0.5-1.8c0.1-0.7,0.4-1.3,0.9-1.6c0.5-0.4,1.1-0.6,1.8-0.5l1.4,0.2c0.2,0,0.2,0,0.3-0.2
	c0-0.6,0.3-1.1,0.8-1.5c0.4-0.4,1-0.5,1.6-0.5l1.6,0.2c0.6,0,1.1,0.3,1.4,0.8c0.4,0.5,0.5,1,0.5,1.6c0,0.2,0.1,0.2,0.3,0.3l3.7,0.4
	c0.2,0,0.2,0,0.3-0.2c0-0.6,0.3-1.1,0.8-1.5c0.4-0.4,1-0.5,1.6-0.5l1.6,0.2c0.6,0.1,1.1,0.3,1.4,0.8c0.4,0.5,0.5,1,0.4,1.6
	c0,0.2,0.1,0.2,0.3,0.3l2.3,0.2c0.7,0.1,1.3,0.4,1.7,0.9c0.4,0.5,0.6,1.1,0.5,1.8c-0.1,0.7-0.4,1.3-0.9,1.7
	c-0.5,0.4-1.2,0.6-1.8,0.5l-2.3-0.2C451.8,54.7,451.7,54.8,451.7,54.9C451.7,54.9,451.7,54.9,451.7,54.9L451.7,54.9z M436.4,67.3
	c-0.1,0.3,0.1,0.6,0.4,0.6c0,0,0.1,0,0.1,0l1.9,0.2c0.3,0.1,0.6-0.1,0.6-0.4c0,0,0-0.1,0-0.1l0-0.5c0.1-0.3-0.1-0.6-0.4-0.6
	c0,0-0.1,0-0.1,0l-1.9-0.2c-0.3-0.1-0.6,0.1-0.6,0.4c0,0.1,0,0.1,0,0.2L436.4,67.3z M437.7,60.5c-0.3-0.1-0.6,0.1-0.6,0.4
	c0,0.1,0,0.1,0,0.2v0.3c-0.1,0.3,0.1,0.6,0.4,0.6c0.1,0,0.1,0,0.2,0l1.9,0.2c0.3,0.1,0.6-0.1,0.6-0.4c0,0,0-0.1,0-0.1v-0.3
	c0.1-0.3-0.1-0.6-0.4-0.6c0,0-0.1,0-0.1,0L437.7,60.5z M447.2,81.7c0.3,0,0.6,0.2,0.7,0.5l0.1-0.7c0.1-0.3-0.1-0.6-0.4-0.6
	c0,0-0.1,0-0.1,0l-3.4-0.4c-0.3-0.1-0.6,0.1-0.6,0.4c0,0.1,0,0.1,0,0.2l-0.2,1.8c0,0.1,0,0.3,0.1,0.4c0.1,0.1,0.2,0.2,0.4,0.2h0.6
	c0.1,0,0.2-0.1,0.1-0.2c0-0.3,0-0.6,0.2-0.9c0.2-0.3,0.4-0.4,0.8-0.4L447.2,81.7z M448,69.1c0.3,0.1,0.6-0.1,0.6-0.4
	c0-0.1,0-0.1,0-0.2l0-0.5c0.1-0.3-0.1-0.6-0.4-0.6c0,0-0.1,0-0.1,0l-1.9-0.2c-0.3-0.1-0.6,0.1-0.6,0.4c0,0,0,0.1,0,0.1l0,0.5
	c-0.1,0.3,0.1,0.6,0.4,0.6c0,0,0.1,0,0.1,0L448,69.1z M448.6,63.2c0.3,0.1,0.6-0.1,0.6-0.4c0-0.1,0-0.1,0-0.2v-0.3
	c0.1-0.3-0.1-0.6-0.4-0.6c0,0-0.1,0-0.1,0l-1.9-0.2c-0.3-0.1-0.6,0.1-0.6,0.4c0,0,0,0.1,0,0.1v0.3c-0.1,0.3,0.1,0.6,0.4,0.6
	c0,0,0.1,0,0.1,0L448.6,63.2z M469.3,62.9c0.1-0.3-0.1-0.6-0.4-0.6c0,0-0.1,0-0.1,0l-1.5-0.2c-0.3-0.1-0.6,0.1-0.7,0.4
	c0,0,0,0.1,0,0.1c-0.8,5.5-1.7,10.5-2.8,14.8c-0.9,4-2.2,7.9-3.8,11.6c-0.1,0.1-0.1,0.3,0,0.4c0.1,0.1,0.2,0.2,0.3,0.2l2.5,0.3
	c0.8,0.1,1.5-0.2,2-0.8c0.6-0.7,1.2-3,1.8-6.8S468.2,72,469.3,62.9z"/>
</svg>
