<svg id="圖層_1" data-name="圖層 1" xmlns="http://www.w3.org/2000/svg" viewBox="0 0 882.5 350.3"><title>title</title><path d="M220.3,162c8.6-.2,15.1-1.5,19.7-3.8a22.45,22.45,0,0,0,10.8-10.7,36.52,36.52,0,0,0,2.6-14.7V115.5a3.55,3.55,0,0,0,1,.2,19.15,19.15,0,0,0,12-1.8l.7-.4a18.65,18.65,0,0,0,8-10.3c2.4-7.9,4.6-16.6,6.8-26.3a18.41,18.41,0,0,0,.3-3.3,15.84,15.84,0,0,0-2.6-8.7l-.3-.4a17,17,0,0,0-9.8-6.6l-4.1-.8h0a14.6,14.6,0,0,0-3.5-5A148.2,148.2,0,0,0,275,35.6a16.75,16.75,0,0,0,3.2-9.6,13.93,13.93,0,0,0-.4-3.5A17.23,17.23,0,0,0,271.1,12l-3-2.1a17,17,0,0,0-10.4-3.3c-1.1,0-2.2.1-3.3.2l-39.6.1a17.76,17.76,0,0,0-12.2,4.7,22,22,0,0,0-13.9-4.7H147a22.36,22.36,0,0,0-16.3,6.8,23.12,23.12,0,0,0-6.6,16.1V68.9A22.28,22.28,0,0,0,130.7,85c.7.7,1.5,1.4,2.3,2.1a16.44,16.44,0,0,0-3.3,2.6,18,18,0,0,0-5.3,12.7,18.51,18.51,0,0,0,12.1,17.2,18.8,18.8,0,0,0-16.3,18.3,13.58,13.58,0,0,0,.3,2.9,17.86,17.86,0,0,0,6.9,12l.4.3a19.1,19.1,0,0,0,11.1,3.6h1.4l1.3-.1q50.1-6.45,56.8-7.3a10.62,10.62,0,0,0,1.9-.4,22.34,22.34,0,0,0,6.6,8.6,20.4,20.4,0,0,0,12.7,4.6h.7ZM177.7,36.8a9.49,9.49,0,0,1,3.2-3.1,9.49,9.49,0,0,1,3.2,3.1,10.18,10.18,0,0,1-3.1,3.1A8.22,8.22,0,0,1,177.7,36.8ZM184,61.7a8.91,8.91,0,0,1-3.1,3,8.91,8.91,0,0,1-3.1-3,8.91,8.91,0,0,1,3.1-3A8.91,8.91,0,0,1,184,61.7Zm-26.6,0a8.06,8.06,0,0,1-2.9,2.9,8.06,8.06,0,0,1-2.9-2.9,8.06,8.06,0,0,1,2.9-2.9,8.06,8.06,0,0,1,2.9,2.9Zm-5.8-24.9a9.22,9.22,0,0,1,2.9-3,9.22,9.22,0,0,1,2.9,3,9.22,9.22,0,0,1-2.9,3A8.34,8.34,0,0,1,151.6,36.8Zm54.3,78.9c.3-.2.5-.5.8-.7a17.67,17.67,0,0,0,5.1-12.7,18.21,18.21,0,0,0-2.4-9.1,21.18,21.18,0,0,0,4.4.5h1.6v31.2h-1.9a17.72,17.72,0,0,0-5-7.4c-.8-.6-1.7-1.2-2.6-1.8Z" style="fill:#cddc4c"/><path d="M220.3,162Zm-20-24.8a11.85,11.85,0,0,1,10.7,7,11,11,0,0,0,3.2,4.2,8.2,8.2,0,0,0,5.4,2h.5c8.4-.2,12.6-1.5,14.6-2.6l.2-.1a10.54,10.54,0,0,0,5.2-5,25.44,25.44,0,0,0,1.6-9.9V115.4a11.71,11.71,0,0,1,11.7-11.7,9.67,9.67,0,0,1,2.9.4l.3.1a7.81,7.81,0,0,0,4.5-.7l.2-.1a6.61,6.61,0,0,0,2.8-3.8c2.3-7.5,4.5-16,6.5-25.1a2.77,2.77,0,0,0,.1-.9,4.2,4.2,0,0,0-.7-2.4l-.1-.1a4.74,4.74,0,0,0-2.8-1.8l-3.8-.8a11.49,11.49,0,0,1-8.5-6.9,2.84,2.84,0,0,0-.8-1.1,11.75,11.75,0,0,1-.6-16.4,136.73,136.73,0,0,0,12.1-15.2l.2-.2a4.7,4.7,0,0,0,.9-3.6v-.2a6.06,6.06,0,0,0-2.1-3.5l-2.8-1.9-.2-.1a5.78,5.78,0,0,0-3.6-1.2c-.6,0-1.1.1-1.7.1a8.6,8.6,0,0,1-1.6.1l-39.6.1a6.56,6.56,0,0,0-4.4,1.7,11.78,11.78,0,0,1-15,.6,10.29,10.29,0,0,0-6.8-2.2H147a10.93,10.93,0,0,0-11.2,11.1V68.8a11,11,0,0,0,3.2,7.9,10.59,10.59,0,0,0,1.2,1,11.64,11.64,0,0,1,2,16.4,9.72,9.72,0,0,1-3,2.7,10.59,10.59,0,0,0-1.2,1,6.36,6.36,0,0,0-1.9,4.5,6.6,6.6,0,0,0,1.9,4.6,6.33,6.33,0,0,0,2.4,1.6,11.66,11.66,0,0,1-2.4,22.6,7.15,7.15,0,0,0-6,6.7,1.27,1.27,0,0,0,.1.6c0,.2.1.4.1.6a6.62,6.62,0,0,0,2.5,4.5l.1.1A7.06,7.06,0,0,0,139,145h1.5c33.6-4.3,52-6.7,56.4-7.3.3,0,.5-.1.8-.1a6.77,6.77,0,0,1,2.6-.4Zm13.3-.5a11.63,11.63,0,0,1-11-7.8,5.07,5.07,0,0,0-1.7-2.4c-.3-.2-.5-.4-.8-.6a11.62,11.62,0,0,1-4.1-16,14,14,0,0,1,2.1-2.7l.3-.3a5.88,5.88,0,0,0,1.8-4.5,6.5,6.5,0,0,0-.8-3.1,11.62,11.62,0,0,1,4.1-16,11.77,11.77,0,0,1,8.6-1.3,8.81,8.81,0,0,0,1.7.2h1.6a11.65,11.65,0,0,1,11.7,11.7h0v31.2a11.65,11.65,0,0,1-11.7,11.7h-1.2ZM180.9,76.4a12.13,12.13,0,0,1-5.9-1.6,21,21,0,0,1-7.2-7c-.1-.1-.2-.3-.3-.4a.76.76,0,0,0-.2.4,21.43,21.43,0,0,1-6.7,6.7,11.83,11.83,0,0,1-12.3,0,21.43,21.43,0,0,1-6.7-6.7,11.83,11.83,0,0,1,0-12.3,19.74,19.74,0,0,1,6-6.2,20.66,20.66,0,0,1-6.1-6.4,11.92,11.92,0,0,1,0-12.1,20.11,20.11,0,0,1,6.8-6.8,11.83,11.83,0,0,1,12.3,0,21,21,0,0,1,6.8,6.8.31.31,0,0,1,.1.2l.1-.2a21,21,0,0,1,7.3-7.2,11.65,11.65,0,0,1,11.7,0,20.15,20.15,0,0,1,7.3,7.2,11.92,11.92,0,0,1,0,12.1,19.67,19.67,0,0,1-6.1,6.4,20.07,20.07,0,0,1,6,6.3,11.83,11.83,0,0,1,0,12.3,21,21,0,0,1-7.2,7,12.41,12.41,0,0,1-5.7,1.5Zm4.5-10,1.4,2.4a2.93,2.93,0,0,0,1-.9Zm-8.9,0-2.4,1.4a2.19,2.19,0,0,0,1,.9Zm-17.2,0,1.5,2.4a2,2,0,0,0,.9-.9Zm-9.4,0-2.4,1.5a2,2,0,0,0,.9.9Zm36.9-11.8L185.4,57l2.4-1.5a4.06,4.06,0,0,0-1-.9Zm-11.7,0a2.41,2.41,0,0,0-1,1l2.4,1.5Zm-14.4,0L159.2,57l2.4-1.5a3.82,3.82,0,0,0-.9-.9Zm-12.3,0a2,2,0,0,0-.9.9l2.4,1.5Zm13-5.3a20.85,20.85,0,0,1,6,6.2l.2.4c.1-.1.2-.3.3-.4a19.74,19.74,0,0,1,6-6.2,20.66,20.66,0,0,1-6.1-6.4.35.35,0,0,0-.1-.2l-.1.2a25.18,25.18,0,0,1-6.2,6.4Zm24-7.9,1.4,2.4a2.41,2.41,0,0,0,1-1Zm-8.9,0L174,42.9a2.41,2.41,0,0,0,1,1Zm-17.2,0,1.5,2.4a2.58,2.58,0,0,0,.9-.9Zm-9.4,0-2.4,1.4a2,2,0,0,0,.9.9Zm25.2-11.6a2.41,2.41,0,0,0-1,1l2.4,1.4Zm11.7,0-1.4,2.4,2.4-1.4a3.18,3.18,0,0,0-1-1Zm-26,0-1.5,2.4,2.4-1.4a9,9,0,0,0-.9-1Zm-12.3,0a2.58,2.58,0,0,0-.9.9l2.4,1.4Z" style="fill:#fff"/><path d="M393.1,156.3a19.35,19.35,0,0,0,33.1-13.6V123a22.73,22.73,0,0,0,9,.5l1.1-.2a23.28,23.28,0,0,0,12.5-7.8,18.13,18.13,0,0,0,4.2-11.3,16.55,16.55,0,0,0-.3-3.2l-.1-.4a17.74,17.74,0,0,0-8.9-12.2,114.18,114.18,0,0,1-17.5-11.8V19.4a19.4,19.4,0,1,0-38.8,0v7.9a15.11,15.11,0,0,0-5.6-3.3l-3.2-1.2a18.9,18.9,0,0,0-10-.9h-7.3a19.42,19.42,0,0,0,.2-2.4,17.6,17.6,0,0,0-2.8-9.5,17.92,17.92,0,0,0-12.1-8.3l-.4-.1a20.68,20.68,0,0,0-3.5-.3,19.19,19.19,0,0,0-10.4,3.1,20.13,20.13,0,0,0-8.5,11.3c-6,20.3-14.4,36.7-25,49a19.4,19.4,0,0,0-4.4,11.9v1.7a17.46,17.46,0,0,0,7,12.7,19.2,19.2,0,0,0,12.7,4.5h1.3a18.27,18.27,0,0,0,8.2-2.5c3.2,2.3,6.2,4.6,8.9,6.7a93.62,93.62,0,0,1-25,24.4,17.09,17.09,0,0,0-5.3,23.5,14.29,14.29,0,0,0,3,3.5,22.87,22.87,0,0,0,12.5,6.2,20.33,20.33,0,0,0,14.6-3.3l.4-.2c21.7-15.4,38.2-38.5,49.2-68.7,1.8,2.2,3.6,4.4,5.4,6.5v51.1A19.41,19.41,0,0,0,393.1,156.3Zm-42-97.4c-.7,2.4-1.3,4.7-2,7-1.3-.9-2.6-1.7-3.9-2.6.8-1.5,1.5-2.9,2.2-4.4Z" style="fill:#cddc4c"/><path d="M382.1,73.5a11.81,11.81,0,0,1,9.2,4.4c1.6,2.1,3.3,4.1,5,6.1a11.52,11.52,0,0,1,2.9,7.7v51.1a7.1,7.1,0,0,0,2.2,5.3h0a7.6,7.6,0,0,0,10.8,0,8.29,8.29,0,0,0,2.3-5.4V123a11.65,11.65,0,0,1,11.7-11.7,11,11,0,0,1,3.1.4,11.89,11.89,0,0,0,4.2.2l.4-.1a11,11,0,0,0,5.9-3.8,6.32,6.32,0,0,0,1.5-3.9,6.15,6.15,0,0,0-.1-1.3v-.1a6.2,6.2,0,0,0-3-4.2,132.09,132.09,0,0,1-19.2-13,11.83,11.83,0,0,1-4.3-9.1v-57a7.68,7.68,0,0,0-7.7-7.6,7.75,7.75,0,0,0-7.7,7.6h0v7.9A11.65,11.65,0,0,1,387.6,39a11.88,11.88,0,0,1-7.8-3,5.37,5.37,0,0,0-1.6-1l-.2-.1-3.2-1.2a7.38,7.38,0,0,0-3.9-.4,14.92,14.92,0,0,1-2.1.2h-7.3a11.65,11.65,0,0,1-11.7-11.7,8.08,8.08,0,0,1,.1-1.6c0-.2.1-.5.1-.7a6.39,6.39,0,0,0-1-3.3l-.1-.1a7,7,0,0,0-4.4-3.1h-.1a7.57,7.57,0,0,0-1.5-.1,7.84,7.84,0,0,0-7.6,5.8l-.3.3c-6.5,21.9-15.7,39.7-27.3,53.1a6.93,6.93,0,0,0-1.6,4.3v1.1a6,6,0,0,0,2.5,4.2l.2.2a8.32,8.32,0,0,0,5.2,1.9h.8a7.54,7.54,0,0,0,2.9-.9,11.7,11.7,0,0,1,12.7.6c3.4,2.4,6.6,4.8,9.4,7.1a11.71,11.71,0,0,1,2.2,15.9,102.15,102.15,0,0,1-28.2,27.4l-.1.1a5.34,5.34,0,0,0-1.6,7.4,3.92,3.92,0,0,0,.8,1l.2.2a10.82,10.82,0,0,0,6.2,3.1l.3.1a8.53,8.53,0,0,0,6.2-1.5l.1-.1c19.6-14,34.7-35.2,44.9-63a12.33,12.33,0,0,1,11.3-7.7Zm-33,4.1a12.16,12.16,0,0,1-6.6-2c-1.2-.8-2.4-1.6-3.7-2.4a11.63,11.63,0,0,1-4-15.2l2.1-4.2a11.66,11.66,0,0,1,10.5-6.5h3.7A11.71,11.71,0,0,1,362.8,59a10.32,10.32,0,0,1-.4,3c-.7,2.5-1.4,5.1-2.2,7.5a11.61,11.61,0,0,1-7.3,7.5,12.09,12.09,0,0,1-3.8.6Z" style="fill:#fff"/><path d="M571.3,138.4a8.83,8.83,0,0,0-.2,2.8,16.79,16.79,0,0,0,.7,5,23.78,23.78,0,0,0,7.3,11.1,19.73,19.73,0,0,0,12.7,4.7h1c8-.4,14.1-1.8,18.7-4.4a20.91,20.91,0,0,0,9.6-11.3,43.41,43.41,0,0,0,2-14.3V28.2A22.77,22.77,0,0,0,600.5,5.3H544.1A23,23,0,0,0,528,11.8a16.77,16.77,0,0,0-13.9-7.4H488.7a16.24,16.24,0,0,0-11.8,4.9A16.46,16.46,0,0,0,472,21.2a18.83,18.83,0,0,0,1.1,6.2,16.44,16.44,0,0,0-3.3,2.6,17,17,0,0,0,0,24.1,27.46,27.46,0,0,0,2.6,2.2A17.11,17.11,0,0,0,471,63a16.24,16.24,0,0,0,3.6,10.4A17,17,0,0,0,471,83.8a16.4,16.4,0,0,0,4.9,11.8l.4.4a22.38,22.38,0,0,0-5.7,15.1v32.1a16.9,16.9,0,0,0,16.9,16.9h1.6a15.36,15.36,0,0,0,10.9-4.5,10.7,10.7,0,0,0,1.4-1.6h17.5a20,20,0,0,0,16.3,2.3,18.15,18.15,0,0,0,13.3-12c.6-1.6,1.1-3.3,1.6-5a15.63,15.63,0,0,0,9.4,2.9h1.8A13.39,13.39,0,0,0,571.3,138.4Zm2-31.2a11.51,11.51,0,0,1-1.7,1.4,11.51,11.51,0,0,1-1.7-1.4,11.51,11.51,0,0,1,1.7-1.4A4.57,4.57,0,0,1,573.3,107.2Z" style="fill:#cddc4c"/><path d="M582.9,142.9a10.43,10.43,0,0,0,3.7,5.5,8.32,8.32,0,0,0,5.2,1.9h.6c6-.3,10.5-1.2,13.5-2.9a9,9,0,0,0,4.3-5.1,33.38,33.38,0,0,0,1.3-10.4V28.2a10.93,10.93,0,0,0-11.2-11.1H544.2a10.63,10.63,0,0,0-7.9,3.2,11.68,11.68,0,0,1-16.5-.2,10.09,10.09,0,0,1-1.3-1.6,2.7,2.7,0,0,0-.7-.8,4.75,4.75,0,0,0-3.6-1.5H488.8a4.69,4.69,0,0,0-3.5,1.5,5.14,5.14,0,0,0-1.5,3.7,5.82,5.82,0,0,0,.3,1.9,11.55,11.55,0,0,1-4.9,14.2,3.13,3.13,0,0,0-1.1.9,5.37,5.37,0,0,0,0,7.6,5.5,5.5,0,0,0,.9.7,11.63,11.63,0,0,1,4.2,14.4,5.22,5.22,0,0,0-.4,2.1,4.8,4.8,0,0,0,1,3.1,11.58,11.58,0,0,1,0,14.5,5.17,5.17,0,0,0-1.1,3.2,4.69,4.69,0,0,0,1.5,3.5l.1.1a11.72,11.72,0,0,1,.7,16.3,11,11,0,0,0-2.8,7.4v32.1a5.14,5.14,0,0,0,1.5,3.7,4.63,4.63,0,0,0,3.7,1.5H489a3.63,3.63,0,0,0,2.6-1.1l.4-.4a11.9,11.9,0,0,1,9.3-4.6h17.5a11.47,11.47,0,0,1,6.2,1.8,8.63,8.63,0,0,0,4.7,1.4,7.61,7.61,0,0,0,2.1-.3l.6-.2a6.56,6.56,0,0,0,5-4.5c.5-1.4,1-2.9,1.4-4.4a11.67,11.67,0,0,1,14.5-7.9,11.37,11.37,0,0,1,3.5,1.7,5,5,0,0,0,2.6.8h1.8a2.57,2.57,0,0,0,2-.8,11.69,11.69,0,0,1,19.6,10.5c0,.3-.1.5-.1.8A10.39,10.39,0,0,0,582.9,142.9Zm-11.3-22.6a11.23,11.23,0,0,1-6.2-1.8,18,18,0,0,1-4-3.3,11.73,11.73,0,0,1,0-16,18,18,0,0,1,4-3.3,11.75,11.75,0,0,1,12.5,0,18,18,0,0,1,4,3.3,11.73,11.73,0,0,1,0,16,18,18,0,0,1-4,3.3,12.77,12.77,0,0,1-6.3,1.8Zm4.7-7,1.5,2.4a2.65,2.65,0,0,0,.6-.5Zm-9.4,0-2.1,1.9.5.5Zm-1.5-14.6a2.18,2.18,0,0,0-.5.4L567,101Zm12.5,0-1.5,2.4,2.1-1.9a2.65,2.65,0,0,0-.6-.5Z" style="fill:#fff"/><path d="M785.1,121.6h-1.3a24,24,0,0,0,1.8-9.5V84.9a6.6,6.6,0,0,0-.1-1.4,25,25,0,0,0,2.6-.7A24.79,24.79,0,0,0,799.2,75l.2-.3a16.37,16.37,0,0,0,3.5-10.2,14.26,14.26,0,0,0-.7-4.6A15.59,15.59,0,0,0,792.1,49l-1.9-.7a18.25,18.25,0,0,0-4.1-36H743.8a18.8,18.8,0,0,0-36.2,0H666.5a18.23,18.23,0,0,0-3,36.2c-1.4.6-2.8,1.2-4.2,1.7a15.73,15.73,0,0,0-10,11.5l-.1.6a18.16,18.16,0,0,0-.3,3.2,17,17,0,0,0,3.5,10.2l.2.2a23.15,23.15,0,0,0,11.1,7.6,16.65,16.65,0,0,0,3.2.8v28.4a25.68,25.68,0,0,0,1.5,8.7h-1.1a17.23,17.23,0,0,0-12.8,5.4,18,18,0,0,0,12.6,30.5h118a18.27,18.27,0,0,0,12.7-5.1,17.45,17.45,0,0,0,5.4-12.8,18,18,0,0,0-18.1-17.8Z" style="fill:#cddc4c"/><path d="M667.3,133.3a5.53,5.53,0,0,0-4.4,1.8,5.88,5.88,0,0,0-1.8,4.5,5.81,5.81,0,0,0,1.8,4.4,6.27,6.27,0,0,0,4.5,1.8H785.2a6.67,6.67,0,0,0,4.6-1.8,5.53,5.53,0,0,0,1.8-4.4,5.88,5.88,0,0,0-1.8-4.4,6.19,6.19,0,0,0-4.6-1.9h-1.3a11.65,11.65,0,0,1-11.7-11.7,11.3,11.3,0,0,1,.9-4.5,12.31,12.31,0,0,0,.9-5V84.2a11.62,11.62,0,0,1,9.3-12.1l1.2-.3a12.62,12.62,0,0,0,5.8-4.1l.1-.1a5.5,5.5,0,0,0,1.1-3,4.25,4.25,0,0,0-.2-1.1c0-.1-.1-.2-.1-.4a4,4,0,0,0-2.6-3l-.3-.1-2.1-.8a11.68,11.68,0,0,1,1.5-22.3,6.09,6.09,0,0,0,3.1-1.8,6.52,6.52,0,0,0,0-9.3,6.65,6.65,0,0,0-4.7-1.9H743.8a11.56,11.56,0,0,1-11.2-8.6,7.46,7.46,0,0,0-1.8-3.1,7,7,0,0,0-10,.1,6.57,6.57,0,0,0-1.7,2.9,11.67,11.67,0,0,1-11.3,8.6H666.7a6.57,6.57,0,0,0-1.2,13A11.67,11.67,0,0,1,668.4,59c-1.5.7-3,1.3-4.5,1.9h-.1a3.77,3.77,0,0,0-2.7,3.1v.2a5.13,5.13,0,0,0,1,4.2l.1.1a11.68,11.68,0,0,0,5.5,3.8l.3.1a6.11,6.11,0,0,0,1.3.3A11.71,11.71,0,0,1,679,84.4v28.2a11.56,11.56,0,0,0,.8,4.5,11.81,11.81,0,0,1-11,15.9Z" style="fill:#fff"/><path d="M178.1,111a1.34,1.34,0,0,0-1.5,1.1v12.3a1.53,1.53,0,0,0,.4,1,2.1,2.1,0,0,0,1.1.4c5-.5,11.1-1.2,18.5-2.1h.9a6.5,6.5,0,0,1,4.6,1.8,6.93,6.93,0,0,1,2.5,5.7,8.65,8.65,0,0,1-7.6,8.6q-6.75.9-56.7,7.3h-1.4a9,9,0,0,1-5.4-1.8,8.49,8.49,0,0,1-3.3-6,4.87,4.87,0,0,1-.1-1.2,8.82,8.82,0,0,1,7.9-8.5c8.3-.7,14.7-1.3,19.4-1.8a1.47,1.47,0,0,0,1.5-1.5v-14a1.34,1.34,0,0,0-1.1-1.5H142.3a7.72,7.72,0,0,1-5.7-2.5,7.85,7.85,0,0,1-2.4-5.8,8.2,8.2,0,0,1,8.1-8.2h15.1a1.34,1.34,0,0,0,1.5-1.1V83.4a1.34,1.34,0,0,0-1.1-1.5H147a12.81,12.81,0,0,1-13-13V30.1a12.68,12.68,0,0,1,3.7-9.2,12.45,12.45,0,0,1,9.3-3.8h41.8a13,13,0,0,1,13,13V69.2a13,13,0,0,1-13,13H178.1a1.34,1.34,0,0,0-1.5,1.1v9.8a1.34,1.34,0,0,0,1.1,1.5h16.1a8.15,8.15,0,0,1,8.2,8.1h0a7.85,7.85,0,0,1-2.4,5.8,7.94,7.94,0,0,1-5.8,2.5ZM150.3,31.6a1.34,1.34,0,0,0-1.5,1.1v8.8a1.34,1.34,0,0,0,1.1,1.5h8.9a1.34,1.34,0,0,0,1.5-1.1V33.1a1.34,1.34,0,0,0-1.1-1.5h-8.9Zm0,24.8a1.34,1.34,0,0,0-1.5,1.1v8.9a1.34,1.34,0,0,0,1.1,1.5h8.9a1.34,1.34,0,0,0,1.5-1.1V57.9a1.34,1.34,0,0,0-1.1-1.5h-8.9Zm34.6-13.5a1.34,1.34,0,0,0,1.5-1.1V33a1.34,1.34,0,0,0-1.1-1.5h-8.5a1.34,1.34,0,0,0-1.5,1.1v8.8a1.34,1.34,0,0,0,1.1,1.5h8.5Zm0,25a1.34,1.34,0,0,0,1.5-1.1V57.9a1.34,1.34,0,0,0-1.1-1.5h-8.5a1.34,1.34,0,0,0-1.5,1.1v8.9a1.34,1.34,0,0,0,1.1,1.5h8.5ZM259,67a17.72,17.72,0,0,1,4.6.1l3.7.7a6.59,6.59,0,0,1,4,2.7,5.89,5.89,0,0,1,1,3.4c0,.4-.1.9-.1,1.3-2.1,9.4-4.3,17.8-6.6,25.4a8.44,8.44,0,0,1-3.7,4.8,8.68,8.68,0,0,1-4.2,1c-.6,0-1.2-.1-1.8-.1a7.05,7.05,0,0,1-4.6-3.3,6.86,6.86,0,0,1-1-3.7c0-.6.1-1.2.1-1.8.8-3.5,1.6-7.4,2.5-11.8a1.39,1.39,0,0,0-.2-1.1,1,1,0,0,0-1-.4H245a1.34,1.34,0,0,0-1.5,1.1V133a27.78,27.78,0,0,1-1.7,10.7,12.1,12.1,0,0,1-6.1,5.9c-3.4,1.7-8.6,2.6-15.7,2.8h-.4A10.13,10.13,0,0,1,213,150a12.74,12.74,0,0,1-4.3-6.6,5.22,5.22,0,0,1-.4-2.1,5.49,5.49,0,0,1,1.4-3.7,5.72,5.72,0,0,1,4.9-2.5h3.7c1.3,0,2.6,0,3.9-.1a4.51,4.51,0,0,0,2.5-.5,2.49,2.49,0,0,0,.7-2V85.8a1.34,1.34,0,0,0-1.1-1.5H213.9a8.62,8.62,0,0,1-6.1-2.5,8.51,8.51,0,0,1-.1-12l.1-.1a7.86,7.86,0,0,1,6.1-2.5h21.9c.2,0,.3-.1.4-.4a.44.44,0,0,0-.1-.5,192.7,192.7,0,0,0-19.9-12.2,5.48,5.48,0,0,1-3-4.2v-1a5.52,5.52,0,0,1,1.6-3.9,11.51,11.51,0,0,1,6-3.3c.6-.1,1.3-.1,1.9-.2a10.05,10.05,0,0,1,4.8,1.2c1.6.8,3.1,1.6,4.5,2.2a1.83,1.83,0,0,0,2.4-.3c3.2-3.6,5.9-6.9,8.2-9.9a1,1,0,0,0,.1-.9.57.57,0,0,0-.7-.4H215a8.07,8.07,0,0,1-8.4-7.8,8.2,8.2,0,0,1,7.8-8.4h40.7a1.2,1.2,0,0,0,.8-.2,12.25,12.25,0,0,1,1.9-.2,7.46,7.46,0,0,1,4.6,1.5l2.8,1.9a8,8,0,0,1,3,4.8,5.7,5.7,0,0,1,.1,1.3,6.76,6.76,0,0,1-1.3,3.9,143.24,143.24,0,0,1-19.3,22.6c-.7.7-.6,1.3.1,1.8l7,4.8a4.94,4.94,0,0,1,1.9,3.5,4.49,4.49,0,0,1-1.3,3.8c.1.3.2.4.3.4h2.5a1,1,0,0,0,.8-.1Z" style="fill:#43831c"/><path d="M220.1,162.4h-.4a20.3,20.3,0,0,1-12.7-4.5,22.34,22.34,0,0,1-6.6-8.6,12.86,12.86,0,0,1-1.9.4c-4.5.6-23.6,3.1-56.8,7.3a5.28,5.28,0,0,1-1.3.1H139a19.33,19.33,0,0,1-11.1-3.6l-.4-.3a17.86,17.86,0,0,1-6.9-12,14.28,14.28,0,0,1-.3-2.9A18.88,18.88,0,0,1,136.6,120a17.59,17.59,0,0,1-6.9-4.5,18.19,18.19,0,0,1-5.2-12.7A17.59,17.59,0,0,1,129.7,90a16.44,16.44,0,0,1,3.3-2.6,15.07,15.07,0,0,1-2.3-2.1,23.12,23.12,0,0,1-6.6-16.1V30.1A22.87,22.87,0,0,1,147,7.2h41.8a22.65,22.65,0,0,1,13.9,4.7,17.31,17.31,0,0,1,12.2-4.7h39.2l.4-.1a18.29,18.29,0,0,1,3.3-.2,17.94,17.94,0,0,1,10.3,3.2l2.8,1.9.4.3A18,18,0,0,1,278,22.8a13.43,13.43,0,0,1,.4,3.5,16.13,16.13,0,0,1-3.2,9.7,158.63,158.63,0,0,1-13,16.4,14.6,14.6,0,0,1,3.5,5h0l3.8.8.3.1a16.46,16.46,0,0,1,9.9,6.6c.1.1.2.3.3.4a15.84,15.84,0,0,1,2.6,8.7,18.41,18.41,0,0,1-.3,3.3v.2c-2.1,9.5-4.4,18.2-6.8,26.1a.37.37,0,0,1-.1.3,18.65,18.65,0,0,1-8,10.1c-.2.1-.5.3-.7.4a19.15,19.15,0,0,1-12,1.8h-.3l-.8-.2v17.2c0,6-.9,10.9-2.6,14.7a22,22,0,0,1-10.8,10.7c-4.7,2.3-11.2,3.6-19.8,3.8h-.3Zm-2.3-22.8Zm-49.5-9.5a11.13,11.13,0,0,1-2.2,3.8l5-.6-.3-.3-.1-.1a7.2,7.2,0,0,1-2.4-2.8ZM206,116.2a15.72,15.72,0,0,1,2.6,1.9l.1.1a17.8,17.8,0,0,1,4.9,7.2h1.9V94.2h-1.6a22,22,0,0,1-4.4-.5,17,17,0,0,1,2.4,9.1,18.27,18.27,0,0,1-5.1,12.7,1.85,1.85,0,0,0-.8.7Zm-49.5,1.9h0Zm7.1-15.3a11.22,11.22,0,0,1,4.2,4.7,10.66,10.66,0,0,1,4.2-4.7,11.22,11.22,0,0,1-4.2-4.7,10.66,10.66,0,0,1-4.2,4.7ZM231.1,77a10.12,10.12,0,0,1,3.2,4.5,11.09,11.09,0,0,1,3.5-4.8,7.84,7.84,0,0,1-2.2.2ZM259,77a16.61,16.61,0,0,1,1.4,1.3l.2.3c.2.3.5.6.7.9l.6-2.7h-.1c-.3,0-.6-.1-.9-.1A6.8,6.8,0,0,1,259,77Zm-93.4-1.3a13.43,13.43,0,0,1,2.2,3.1,10.16,10.16,0,0,1,2.2-3.2,10.45,10.45,0,0,1-2.1-2.1,23.91,23.91,0,0,1-2.3,2.2Zm80.2-7.4a.6.6,0,0,1-.1.4c-.1.1,0,.1,0,.1a10.72,10.72,0,0,1-3.6,5.9,13.58,13.58,0,0,1,2.9-.3h4.2a10.84,10.84,0,0,1-3-4.6,8.33,8.33,0,0,1-.4-1.5Zm-87-2Zm19-4.1a8.91,8.91,0,0,0,3.1,3,8.91,8.91,0,0,0,3.1-3,8.91,8.91,0,0,0-3.1-3,8.87,8.87,0,0,0-3.1,3Zm-26.1,0a8.93,8.93,0,0,0,2.9,2.9,8.06,8.06,0,0,0,2.9-2.9,8.06,8.06,0,0,0-2.9-2.9,8.06,8.06,0,0,0-2.9,2.9Zm84.7-7.6,1.2.8-.1-.4a1.7,1.7,0,0,0-.1-.7c-.3.1-.6.2-1,.3Zm-69.6-4.9a10.59,10.59,0,0,1,1,1.2,10.59,10.59,0,0,1,1-1.2,5.8,5.8,0,0,1-1-1.2,10.59,10.59,0,0,1-1,1.2Zm-8-8.2Zm19-4.2a9.49,9.49,0,0,0,3.2,3.1,8.38,8.38,0,0,0,3.1-3.1,10.18,10.18,0,0,0-3.1-3.1,7.38,7.38,0,0,0-3.2,3.1Zm-26.1,0a9.22,9.22,0,0,0,2.9,3,9.22,9.22,0,0,0,2.9-3,9.22,9.22,0,0,0-2.9-3,8.34,8.34,0,0,0-2.9,3ZM249.8,27a10.39,10.39,0,0,1,1.7,2.4.31.31,0,0,0,.1.2,10.68,10.68,0,0,1,1,3.6q2.55-3.15,4.8-6.3h-.1a16.41,16.41,0,0,1-2.3.2h-5.2Z" style="fill:#3e7c18"/><path d="M205.1,75.7a8.62,8.62,0,0,0,2.5,6.1,7.86,7.86,0,0,0,6.1,2.5h10a1.34,1.34,0,0,1,1.5,1.1v47.3a2.2,2.2,0,0,1-.7,2,4.29,4.29,0,0,1-2.5.4,25.41,25.41,0,0,1-3.9.1h-3.7a5.6,5.6,0,0,0-4.9,2.5,6.52,6.52,0,0,0-1.4,3.7,7.79,7.79,0,0,0,.4,2.1,12.74,12.74,0,0,0,4.3,6.6,10.48,10.48,0,0,0,6.6,2.4h.5c7.1-.2,12.3-1.1,15.7-2.8a12.5,12.5,0,0,0,6.1-5.9c1.1-2.5,1.7-6.1,1.7-10.7V85.8a1.34,1.34,0,0,1,1.1-1.5h7.3a1.16,1.16,0,0,1,1,.4,1.39,1.39,0,0,1,.2,1.1c-.9,4.4-1.8,8.3-2.5,11.8a5.46,5.46,0,0,0-.1,1.8,6.86,6.86,0,0,0,1,3.7,7.05,7.05,0,0,0,4.6,3.3,10.87,10.87,0,0,0,1.8.1,8.68,8.68,0,0,0,4.2-1,8.44,8.44,0,0,0,3.7-4.8c2.3-7.5,4.5-15.9,6.5-25.2-22.1-1.3-44.3-2.4-66.5-3A9.06,9.06,0,0,0,205.1,75.7Z" style="fill:#cddc4c"/><path d="M201.8,30.1a13,13,0,0,0-13-13H147a12.81,12.81,0,0,0-13,13V69.2a11.48,11.48,0,0,0,.6,3.7c22.4-1,44.6-1.1,66.8-.5a11.24,11.24,0,0,0,.4-3.2ZM160.3,66.4a1.34,1.34,0,0,1-1.1,1.5h-8.9a1.34,1.34,0,0,1-1.5-1.1V57.9a1.34,1.34,0,0,1,1.1-1.5h8.9a1.34,1.34,0,0,1,1.5,1.1v8.9Zm0-24.9a1.34,1.34,0,0,1-1.1,1.5h-8.9a1.34,1.34,0,0,1-1.5-1.1V33.1a1.34,1.34,0,0,1,1.1-1.5h8.9a1.34,1.34,0,0,1,1.5,1.1v8.8Zm26.1,24.9a1.34,1.34,0,0,1-1.1,1.5h-8.5a1.34,1.34,0,0,1-1.5-1.1V57.9a1.34,1.34,0,0,1,1.1-1.5h8.5a1.34,1.34,0,0,1,1.5,1.1v8.9Zm0-24.9a1.34,1.34,0,0,1-1.1,1.5h-8.5a1.34,1.34,0,0,1-1.5-1.1V33.1a1.34,1.34,0,0,1,1.1-1.5h8.5a1.34,1.34,0,0,1,1.5,1.1v8.8Z" style="fill:#eaefb5"/><path d="M134.6,73a13.3,13.3,0,0,0,3.2,5.5,12.45,12.45,0,0,0,9.3,3.8h10.4a1.34,1.34,0,0,1,1.5,1.1v9.8a1.34,1.34,0,0,1-1.1,1.5H142.4a8.2,8.2,0,0,0-5.7,14,7.28,7.28,0,0,0,5.7,2.4h15.1a1.34,1.34,0,0,1,1.5,1.1v14.1a1.46,1.46,0,0,1-1.3,1.6h-.2c-4.7.5-11.1,1.1-19.4,1.8a8.82,8.82,0,0,0-7.9,8.5,4.87,4.87,0,0,0,.1,1.2,8.49,8.49,0,0,0,3.3,6,8.78,8.78,0,0,0,5.4,1.8h1.4q50-6.45,56.7-7.3a8.72,8.72,0,0,0,7.6-8.6,7.56,7.56,0,0,0-2.5-5.7,6.67,6.67,0,0,0-4.6-1.8h-.9c-7.4.9-13.5,1.6-18.5,2.1a1.5,1.5,0,0,1-1.1-.4,1,1,0,0,1-.4-1V112.6a1.34,1.34,0,0,1,1.1-1.5h16.1a7.94,7.94,0,0,0,5.8-2.5,8.25,8.25,0,0,0,2.4-5.8,8.09,8.09,0,0,0-8.2-8.1H178.2a1.34,1.34,0,0,1-1.5-1.1V83.8a1.34,1.34,0,0,1,1.1-1.5H189a13,13,0,0,0,12.6-9.8C179.2,71.9,156.9,72,134.6,73Z" style="fill:#cddc4c"/><path d="M272.4,74a6.74,6.74,0,0,0-1-3.4,6.59,6.59,0,0,0-4-2.7l-3.7-.7a14.21,14.21,0,0,0-4.6-.1,1.27,1.27,0,0,1-.6.1H256c-.1,0-.2-.2-.3-.4A4.81,4.81,0,0,0,257,63a4.94,4.94,0,0,0-1.9-3.5l-7-4.8c-.8-.5-.9-1.1-.1-1.8a138.29,138.29,0,0,0,19.2-22.6,6.12,6.12,0,0,0,1.3-3.9,5.28,5.28,0,0,0-.1-1.3,8,8,0,0,0-3-4.8l-2.8-1.9a7.67,7.67,0,0,0-4.6-1.5,12.25,12.25,0,0,0-1.9.2,1.85,1.85,0,0,1-.7.2H215.2a8.07,8.07,0,0,0-8.4,7.8,8.2,8.2,0,0,0,7.8,8.4h27.6a.84.84,0,0,1,.7.4,1,1,0,0,1-.1.9c-2.3,3-5,6.3-8.2,9.9a1.83,1.83,0,0,1-2.4.3l-4.5-2.2a10.05,10.05,0,0,0-4.8-1.2,12.25,12.25,0,0,0-1.9.2,11.51,11.51,0,0,0-6,3.3,5.13,5.13,0,0,0-1.6,3.9v1a5.48,5.48,0,0,0,3,4.2,211.81,211.81,0,0,1,19.9,12.2.75.75,0,0,1,.1.5c-.1.2-.2.4-.4.4H214.1a8.62,8.62,0,0,0-6.1,2.5,8.12,8.12,0,0,0-1.9,2.9c22.2.6,44.4,1.7,66.5,3v-.2A4.14,4.14,0,0,1,272.4,74Z" style="fill:#eaefb5"/><path d="M400.1,13.2a9.5,9.5,0,0,1,16.2,6.7V80.2a3.1,3.1,0,0,0,1,2.4,131,131,0,0,0,21.5,14.9,7.8,7.8,0,0,1,4,5.5,8.6,8.6,0,0,1,.1,1.6,7.84,7.84,0,0,1-1.9,5.1,12.75,12.75,0,0,1-7.2,4.5,19.27,19.27,0,0,1-2.4.1,10.84,10.84,0,0,1-5.5-1.5c-2.9-1.9-5.7-3.9-8.5-6a.67.67,0,0,0-1,.1.76.76,0,0,0-.2.5v35.7a9.5,9.5,0,0,1-19,0V89.7a3.55,3.55,0,0,0-1-2.5A191.08,191.08,0,0,1,379.3,65a.55.55,0,0,0-.6-.4h0a.63.63,0,0,0-.6.5q-15.15,55.5-51.1,81.1a11,11,0,0,1-6.1,1.9,7.77,7.77,0,0,1-1.6-.2,13.69,13.69,0,0,1-7.5-3.7,6.92,6.92,0,0,1-2.4-5.2,6.67,6.67,0,0,1,3.3-6.1,103.88,103.88,0,0,0,32-33.3,1.42,1.42,0,0,0-.1-2c-.1-.1-.2-.1-.2-.2a199.7,199.7,0,0,0-20.8-15.8,1.28,1.28,0,0,0-1.8.3c-.2.3-.5.6-.7.9a8.56,8.56,0,0,1-6.4,3.4h-.6a10.13,10.13,0,0,1-6.6-2.4,8.08,8.08,0,0,1-3.3-5.8V77a8.55,8.55,0,0,1,2.1-5.7c11.5-13.1,20.4-30.6,26.9-52.4a9.69,9.69,0,0,1,4.3-5.8,9.22,9.22,0,0,1,5.1-1.5,12.1,12.1,0,0,1,1.9.1,8.23,8.23,0,0,1,5.7,3.9,7.49,7.49,0,0,1,1.3,4.3,7,7,0,0,1-.5,2.5q-1.2,4.2-2.7,8.4a1.41,1.41,0,0,0,.1.9.81.81,0,0,0,.9.4h20.2a7.61,7.61,0,0,1,2.1-.3,9.74,9.74,0,0,1,3.4.6l3.3,1.2a7,7,0,0,1,3.9,3.3,6.09,6.09,0,0,1,1,3.7v1.2L382,48.4c0,.1.1.2.1.3a.19.19,0,0,0,.3,0h0a6.08,6.08,0,0,1,4.4.1,6.66,6.66,0,0,1,3.4,2.8c1.9,3.1,3.9,6,6,8.8.1.2.3.2.5.1s.4-.2.4-.4V19.8A9.68,9.68,0,0,1,400.1,13.2ZM363.3,51a1.39,1.39,0,0,0-.2-1.1,1,1,0,0,0-1-.4H342.7a2,2,0,0,0-2.1,1.4c-2.3,5-4.9,10-7.8,15.1a1.43,1.43,0,0,0,.2,2c.1.1.1.1.2.1a193.91,193.91,0,0,1,19.4,13.1.92.92,0,0,0,1,.1,1.56,1.56,0,0,0,.8-.6A169.32,169.32,0,0,0,363.3,51Z" style="fill:#43831c"/><path d="M406.8,162.4a19.23,19.23,0,0,1-19.3-19.2h0V92.1c-1.8-2.1-3.6-4.3-5.4-6.5-11,30.2-27.5,53.2-49.2,68.6l-.4.2a20.49,20.49,0,0,1-11.5,3.5,18.41,18.41,0,0,1-3.3-.3,22.87,22.87,0,0,1-12.5-6.2,17,17,0,0,1-1.3-24,14.29,14.29,0,0,1,3.5-3,90.71,90.71,0,0,0,25-24.4c-2.7-2.1-5.6-4.4-8.9-6.7a18.27,18.27,0,0,1-8.2,2.5H314a20.3,20.3,0,0,1-12.7-4.5,17.46,17.46,0,0,1-7-12.7V77a18.33,18.33,0,0,1,4.4-12l.2-.2c10.5-12,18.8-28.4,24.8-48.7a19.5,19.5,0,0,1,8.5-11.4l.1-.1a19,19,0,0,1,10.3-3,19.83,19.83,0,0,1,3.5.3l.4.1a18.25,18.25,0,0,1,12.1,8.3,19.25,19.25,0,0,1,2.9,9.6,19.42,19.42,0,0,1-.2,2.4h7.3a19.27,19.27,0,0,1,10.1.9l3.1,1.2a15.11,15.11,0,0,1,5.6,3.3V19.8a19.4,19.4,0,1,1,38.8,0V77a121.9,121.9,0,0,0,17.5,11.8,17.45,17.45,0,0,1,8.9,12.2.76.76,0,0,0,.1.4,17.28,17.28,0,0,1-3.9,14.5,22.71,22.71,0,0,1-12.5,7.8l-1.2.3a22.73,22.73,0,0,1-9-.5v19.7a19.16,19.16,0,0,1-19.3,19.2Zm-88.6-21.3Zm115.9-35ZM403.5,80.4a13.33,13.33,0,0,1,3.7,9.3v13.7a10.65,10.65,0,0,1,13-6.1c-3.2-2.3-6.3-4.7-9.3-7.3a12.67,12.67,0,0,1-4.5-9.9V64a10.34,10.34,0,0,1-5.9,5.7,9.38,9.38,0,0,1-5.2.6A120,120,0,0,0,403.5,80.4ZM352.3,91.2a10.55,10.55,0,0,1,2.7,7c1.5-2.8,2.8-5.7,4.1-8.6a11.07,11.07,0,0,1-6.8,1.6Zm-15.8,2.9Zm18-13.4Zm-40.9-4.2Zm9.1-10.3a70.08,70.08,0,0,1-4.5,6.2,11.08,11.08,0,0,1,5.4-1,10.25,10.25,0,0,1-.9-5.2ZM370.1,68Zm-24.8-4.2c1.3.8,2.6,1.7,3.9,2.6.7-2.3,1.4-4.6,2-7h-3.7c-.8,1.5-1.5,3-2.2,4.4ZM373,53.1c-.3,1.4-.6,2.7-.9,4a9.23,9.23,0,0,1,3-1.8,12.65,12.65,0,0,1-2-3.1,2.77,2.77,0,0,0-.1.9ZM405.3,56Zm-55.7-1.1ZM369.1,42a12.09,12.09,0,0,1,1.6,1.6,15,15,0,0,1,1.9,3.2v-.1c.3-1.5.5-2.9.8-4.4l-1.4-.5a5.5,5.5,0,0,1-2.2.2Zm-30.2-8.5c-1.1,2.9-2.1,5.6-3.3,8.4a11.3,11.3,0,0,1,7.1-2.2,8.81,8.81,0,0,1-2.2-2.5,8.71,8.71,0,0,1-1.6-3.7Zm61.2-20.3Z" style="fill:#3e7c18"/><path d="M396.3,87.2a3.11,3.11,0,0,1,1,2.5v53.5a9.5,9.5,0,0,0,19,0V107.5a.85.85,0,0,1,.7-.8.76.76,0,0,1,.5.2c2.8,2.1,5.6,4.1,8.5,6a10.84,10.84,0,0,0,5.5,1.5c.8,0,1.6-.1,2.4-.1a13.45,13.45,0,0,0,7.2-4.5,7.84,7.84,0,0,0,1.9-5.1c0-.5-.1-1.1-.1-1.6a7.61,7.61,0,0,0-4-5.5,123,123,0,0,1-21.5-14.9,5.55,5.55,0,0,1-.6-.8c-8.5-.1-17-.4-25.5-.7C392.9,83.1,394.6,85.3,396.3,87.2Z" style="fill:#cddc4c"/><path d="M416.3,19.8a9.5,9.5,0,0,0-19,0V60.1a.37.37,0,0,1-.4.4c-.3,0-.4.1-.5-.1-2.1-2.8-4.1-5.7-6-8.8a7.19,7.19,0,0,0-3.4-2.8,6.65,6.65,0,0,0-4.4-.1.19.19,0,0,1-.3,0h0a.37.37,0,0,1-.1-.3l1.2-6.6V40.6a6.86,6.86,0,0,0-1-3.7,7.1,7.1,0,0,0-3.9-3.3l-3.3-1.2a10.16,10.16,0,0,0-3.4-.6,7.61,7.61,0,0,0-2.1.3H349.6a.95.95,0,0,1-1-1.3q1.5-4.2,2.7-8.4a11.08,11.08,0,0,0,.5-2.5,8,8,0,0,0-1.3-4.3,8,8,0,0,0-5.7-3.9,12.1,12.1,0,0,0-1.9-.1,9.22,9.22,0,0,0-5.1,1.5,9.69,9.69,0,0,0-4.3,5.8c-6.5,21.8-15.4,39.3-26.9,52.4a9.06,9.06,0,0,0-2,5.2l45.6,2.7A187,187,0,0,0,333.5,68a1.46,1.46,0,0,1-.6-1.9c0-.1.1-.1.1-.2,2.9-5.1,5.5-10.1,7.8-15.1a2,2,0,0,1,2.1-1.3h19.4a1.16,1.16,0,0,1,1,.4,1.23,1.23,0,0,1,.2,1,189.54,189.54,0,0,1-8.3,28.5l18.5.9c1.7-4.9,3.4-10,4.8-15.3a.63.63,0,0,1,.6-.5.49.49,0,0,1,.6.3h0A187.11,187.11,0,0,0,391.6,81c8.5.3,17,.5,25.5.7a3.32,3.32,0,0,1-.5-1.6Z" style="fill:#eaefb5"/><path d="M354.5,80.7a1.56,1.56,0,0,1-.8.6,1.18,1.18,0,0,1-1-.1c-.9-.7-1.8-1.3-2.7-2-15.2-.8-30.4-1.8-45.6-2.7,0,.2-.1.3-.1.5v.9a7.9,7.9,0,0,0,3.3,5.8,9.94,9.94,0,0,0,6.6,2.4h.6a8.56,8.56,0,0,0,6.4-3.4,5.5,5.5,0,0,0,.7-.9,1.28,1.28,0,0,1,1.8-.3,210.85,210.85,0,0,1,20.8,15.8,1.46,1.46,0,0,1,.5,2c-.1.1-.1.2-.2.2a102.87,102.87,0,0,1-32,33.3,6.87,6.87,0,0,0-3.3,6.1,6.59,6.59,0,0,0,2.4,5.2,13.06,13.06,0,0,0,7.5,3.7,8.75,8.75,0,0,0,1.6.2,11,11,0,0,0,6.1-1.9q30.75-21.9,46.2-65.8l-18.5-.9A5,5,0,0,1,354.5,80.7Z" style="fill:#cddc4c"/><path d="M518,35.3a7.15,7.15,0,1,1,.5,14.3H481.9a7.15,7.15,0,0,1-.5-14.3H518Zm82.3-19.7a12.68,12.68,0,0,1,9.2,3.7,12.45,12.45,0,0,1,3.8,9.3V132.4a34.29,34.29,0,0,1-1.4,11,11,11,0,0,1-5.2,6c-3.2,1.8-8,2.8-14.3,3.1h-.6a9.43,9.43,0,0,1-6.4-2.4,13.81,13.81,0,0,1-4.2-6.4,7.61,7.61,0,0,1-.3-2.1,6.76,6.76,0,0,1,1.3-3.9,5.72,5.72,0,0,1,5.1-2.5c1.1,0,2.4,0,3.8-.1s2.3-.1,2.5-.1a2.31,2.31,0,0,0,2.8-1.6,2.44,2.44,0,0,0,0-1.2V32.5a1.34,1.34,0,0,0-1.1-1.5H549a1.34,1.34,0,0,0-1.5,1.1V72.4a368.32,368.32,0,0,1-1.8,37,142.75,142.75,0,0,1-6.7,32.3,8.38,8.38,0,0,1-6.6,5.7,9.18,9.18,0,0,1-2.8.5,10.36,10.36,0,0,1-6.1-2c-.3-.2-.7-.4-1-.6a7.06,7.06,0,0,0-2.8-.6H495.2c-.3,0-.6.2-.6.4v.2a5.62,5.62,0,0,1-5.5,5.5h-1.5a6.72,6.72,0,0,1-5-2.1,7,7,0,0,1-2-4.9V111.7a13,13,0,0,1,13-13h14.6a13,13,0,0,1,13,13h0v27.9a.52.52,0,0,0,.2.4c.2,0,.3,0,.4-.2a99.7,99.7,0,0,0,7.6-29.9,333.31,333.31,0,0,0,1.8-37.4V28.6a12.81,12.81,0,0,1,13-13ZM514.6,56.5a6.91,6.91,0,0,1,6.9,6.9h0a7,7,0,0,1-2,4.9,6.73,6.73,0,0,1-4.8,2H487.9A6.9,6.9,0,0,1,483,58.5a6.8,6.8,0,0,1,4.9-2ZM487.7,91a6.47,6.47,0,0,1-6.7-6.5v-.2a7.33,7.33,0,0,1,1.9-4.9,6.57,6.57,0,0,1,4.8-2h27a6.34,6.34,0,0,1,4.7,2,6.88,6.88,0,0,1,0,9.7,6.65,6.65,0,0,1-4.7,1.9Zm26.4-76.3a6.57,6.57,0,0,1,4.8,2,7.06,7.06,0,0,1,0,9.9,6.73,6.73,0,0,1-4.8,2H488.7a7,7,0,0,1-4.9-2,7.06,7.06,0,0,1,0-9.9,6.8,6.8,0,0,1,4.9-2Zm-9,115.8a1.34,1.34,0,0,0,1.5-1.1v-15a1.34,1.34,0,0,0-1.1-1.5H496a1.34,1.34,0,0,0-1.5,1.1v15a1.34,1.34,0,0,0,1.1,1.5h9.5Zm48.9-53a6.64,6.64,0,0,1,0-9.4,6.29,6.29,0,0,1,4.6-2h4.5c.9,0,1.3-.4,1.3-1.2V57a1,1,0,0,0-.9-1.2h-4.3a6.6,6.6,0,0,1,0-13.2h4.2a.92.92,0,0,0,1-.9V39.8a7.1,7.1,0,1,1,14.2,0h0v1.8a.92.92,0,0,0,.9,1h4.6a6.6,6.6,0,0,1,0,13.2h-4.3a1,1,0,0,0-1.2.9v8.1a1.1,1.1,0,0,0,1,1.3h5.5a6.13,6.13,0,0,1,4.6,2,6.64,6.64,0,0,1,0,9.4h0a6.29,6.29,0,0,1-4.6,2H558.6a5.93,5.93,0,0,1-4.6-2Zm36.6,37.3a13,13,0,0,1-13,13H566.4a.56.56,0,0,0-.6.5v.1a4.72,4.72,0,0,1-4.5,4.7h-1.9a6.19,6.19,0,0,1-4.6-1.9,6.36,6.36,0,0,1-1.9-4.5V100.4a13,13,0,0,1,13-13h11.7a13,13,0,0,1,13,13ZM577.4,102a1.34,1.34,0,0,0-1.1-1.5h-9.1a1.34,1.34,0,0,0-1.5,1.1v11.7a1.34,1.34,0,0,0,1.1,1.5h9.1a1.34,1.34,0,0,0,1.5-1.1V102Z" style="fill:#43831c"/><path d="M592.4,162.4h-.6a19.53,19.53,0,0,1-12.7-4.7,23.05,23.05,0,0,1-7.3-11.1v-.1a15.94,15.94,0,0,1-.7-4.8,24.57,24.57,0,0,1,.2-2.8,14.56,14.56,0,0,1-10.1,4.1h-1.8a16.56,16.56,0,0,1-9.4-2.9c-.5,1.7-1,3.3-1.6,4.9a18.15,18.15,0,0,1-13.3,12,20.17,20.17,0,0,1-5.4.8,20.89,20.89,0,0,1-10.9-3.1H501.2a10.7,10.7,0,0,1-1.4,1.6,15.3,15.3,0,0,1-10.8,4.5h-1.5a16.32,16.32,0,0,1-12.1-5.1,16.72,16.72,0,0,1-4.8-11.8V111.8a22.5,22.5,0,0,1,5.7-15.1l-.4-.4A15.85,15.85,0,0,1,471,84.5a16.24,16.24,0,0,1,3.6-10.4A16.43,16.43,0,0,1,471,63.7a17.11,17.11,0,0,1,1.4-6.7,17.84,17.84,0,0,1-2.6-2.2,17.08,17.08,0,0,1,0-24.2,16.44,16.44,0,0,1,3.3-2.6,16.57,16.57,0,0,1-1.1-6.2A16.69,16.69,0,0,1,488.7,5h25.5A16.24,16.24,0,0,1,526,9.9a16.38,16.38,0,0,1,2.1,2.5,22.6,22.6,0,0,1,16.1-6.5h56.2a22.77,22.77,0,0,1,22.9,22.6V132.6a43.48,43.48,0,0,1-2,14.3,20.91,20.91,0,0,1-9.6,11.3c-4.6,2.6-10.7,4-18.7,4.4Zm-22.5-54.8a11.51,11.51,0,0,0,1.7,1.4,11.51,11.51,0,0,0,1.7-1.4,11.51,11.51,0,0,0-1.7-1.4,11.51,11.51,0,0,0-1.7,1.4ZM514.7,87.3Zm-.1-20.9Zm56.7-17.1.3.3.3-.3-.3-.3ZM518,45.2Zm-3.9-20.6Z" style="fill:#3e7c18"/><path d="M590.6,114.8V100.3a13,13,0,0,0-13-13H566a13,13,0,0,0-13,13v26.3a5.83,5.83,0,0,0,1.9,4.5,6.42,6.42,0,0,0,4.6,1.9h1.8a4.57,4.57,0,0,0,4.6-4.5v-.1a.56.56,0,0,1,.5-.6h11.3a13,13,0,0,0,12.9-13Zm-13.1-1.5a1.34,1.34,0,0,1-1.1,1.5h-9.1a1.34,1.34,0,0,1-1.5-1.1V102a1.34,1.34,0,0,1,1.1-1.5H576a1.34,1.34,0,0,1,1.5,1.1v11.7Z" style="fill:#cddc4c"/><path d="M487.9,56.6A6.9,6.9,0,0,0,483,68.4a6.8,6.8,0,0,0,4.9,2h26.7a6.57,6.57,0,0,0,4.8-2,6.94,6.94,0,0,0,0-9.8,6.73,6.73,0,0,0-4.8-2Z" style="fill:#eaefb5"/><path d="M488.7,28.6h25.4a6.57,6.57,0,0,0,4.8-2,7.06,7.06,0,0,0-.1-9.9,7.43,7.43,0,0,0-4.7-2H488.7a7,7,0,0,0-4.9,2,7.06,7.06,0,0,0,0,9.9A7.14,7.14,0,0,0,488.7,28.6Z" style="fill:#eaefb5"/><path d="M481.9,49.7H518a7.15,7.15,0,1,0,.5-14.3H481.9a7.15,7.15,0,0,0-.5,14.3Z" style="fill:#eaefb5"/><path d="M585.2,66.1H580a1.1,1.1,0,0,1-1.3-1V57a1,1,0,0,1,.9-1.2h4.6a6.6,6.6,0,0,0,0-13.2h-4.5a.92.92,0,0,1-1-.9V39.8a7.1,7.1,0,0,0-12.1-5.1,7.36,7.36,0,0,0-2.1,5.1v1.8a.92.92,0,0,1-.9,1h-4.3a6.6,6.6,0,0,0,0,13.2h4a1,1,0,0,1,1.2.9v8.2c0,.8-.5,1.2-1.3,1.2h-4.5a6.13,6.13,0,0,0-4.6,2,5.91,5.91,0,0,0-1.9,4.7,8,8,0,0,0,.5,2.6c9.5-1.3,19.1-2.9,28.7-4.8q4.8-.6,9.6-.9a5.6,5.6,0,0,0-1-1.5A6.45,6.45,0,0,0,585.2,66.1Z" style="fill:#eaefb5"/><path d="M596.4,69.3v63a2.31,2.31,0,0,1-1.6,2.8,2.44,2.44,0,0,1-1.2,0c-.2,0-1,0-2.5.1s-2.7.1-3.8.1a6.35,6.35,0,0,0-6.4,6.4,7.61,7.61,0,0,0,.3,2.1,13.09,13.09,0,0,0,4.2,6.4,10.15,10.15,0,0,0,6.4,2.4h.6c6.4-.3,11.2-1.3,14.3-3.1a11.36,11.36,0,0,0,5.2-6,31.72,31.72,0,0,0,1.4-11V69C607.7,68.9,602.1,69,596.4,69.3Z" style="fill:#cddc4c"/><path d="M609.5,19.4a12.52,12.52,0,0,0-9.2-3.7H544.2a12.68,12.68,0,0,0-9.2,3.7,12.45,12.45,0,0,0-3.8,9.3V72.5c0,1.9,0,3.7-.1,5.6,5.5-.6,10.9-1.2,16.4-1.9,0-1.2.1-2.4.1-3.7v-40a1.34,1.34,0,0,1,1.1-1.5h46.2a1.34,1.34,0,0,1,1.5,1.1V69.3c5.6-.3,11.2-.4,16.9-.3V28.6A12.23,12.23,0,0,0,609.5,19.4Z" style="fill:#eaefb5"/><path d="M552.6,75.4a6,6,0,0,0,1.4,2.1,6.29,6.29,0,0,0,4.6,2h26.6a6.13,6.13,0,0,0,4.6-2,6.34,6.34,0,0,0,2-4.7,6.2,6.2,0,0,0-.9-3.2q-4.8.3-9.6.9C571.7,72.5,562.1,74.1,552.6,75.4Z" style="fill:#cddc4c"/><path d="M481,84.3a6.53,6.53,0,0,0,6.5,6.7h27.2a6.65,6.65,0,0,0,4.7-1.9,6.57,6.57,0,0,0,2-4.8,7,7,0,0,0-2-4.9,2.19,2.19,0,0,0-.5-.3c-12.5,1.1-24.9,1.8-37.3,2.3A7.17,7.17,0,0,0,481,84.3Z" style="fill:#cddc4c"/><path d="M487.7,77.5a6.73,6.73,0,0,0-4.8,2,8,8,0,0,0-1.3,1.9c12.4-.4,24.9-1.2,37.3-2.3a6.25,6.25,0,0,0-4.2-1.7Z" style="fill:#eaefb5"/><path d="M529.4,109.8a99.7,99.7,0,0,1-7.6,29.9c-.1.2-.2.3-.4.2s-.2-.2-.2-.4V111.6a13,13,0,0,0-13-13H493.6a13,13,0,0,0-13,13h0v32.1a7,7,0,0,0,2,4.9,6.72,6.72,0,0,0,5,2.1h1.5a5.62,5.62,0,0,0,5.5-5.5c0-.3.2-.6.4-.6h24.7a6.39,6.39,0,0,1,2.8.6c.3.2.7.4,1,.6a11.1,11.1,0,0,0,6.1,2,6.63,6.63,0,0,0,2.8-.5,8.38,8.38,0,0,0,6.6-5.7,143,143,0,0,0,6.7-32.2c1.1-10.8,1.6-21.9,1.7-33.4-5.5.7-10.9,1.4-16.4,1.9A310.46,310.46,0,0,1,529.4,109.8ZM506.7,129a1.34,1.34,0,0,1-1.1,1.5h-9.5a1.34,1.34,0,0,1-1.5-1.1v-15a1.34,1.34,0,0,1,1.1-1.5h9.5a1.34,1.34,0,0,1,1.5,1.1v15Z" style="fill:#cddc4c"/><path d="M736.1,131.9h49a8.1,8.1,0,1,1,0,16.2H667.3a7.92,7.92,0,0,1-5.8-2.3,7.54,7.54,0,0,1-2.3-5.7,8.34,8.34,0,0,1,2.3-5.8,7.49,7.49,0,0,1,5.8-2.4h46.9" style="fill:#43831c"/><path d="M785.1,157.9H667.3a17.9,17.9,0,1,1,0-35.8h46.9a9.88,9.88,0,0,1,7.7,16.1h6.7a10,10,0,0,1,1.4-13.9,9.77,9.77,0,0,1,6.2-2.2h49A18.12,18.12,0,0,1,803.3,140v.1a17.78,17.78,0,0,1-5.4,12.8A19.06,19.06,0,0,1,785.1,157.9Zm0-16.1Z" style="fill:#3e7c18"/><path d="M666.5,39.3h29.3a.71.71,0,0,1,.6.3.48.48,0,0,1-.2.6,116.73,116.73,0,0,1-33.3,19.7,6,6,0,0,0-3.9,4.5c-.1.5-.1,1.1-.2,1.6a6.55,6.55,0,0,0,1.5,4.2,13.75,13.75,0,0,0,6.6,4.5,9.6,9.6,0,0,0,3.3.6,10.18,10.18,0,0,0,4.5-1,124,124,0,0,0,41.1-29.9.62.62,0,0,1,.7-.2c.2.1.4.2.4.4V59.2a8.6,8.6,0,0,0,2.6,6.3,8.84,8.84,0,0,0,12.5.1l.1-.1a8.53,8.53,0,0,0,2.6-6.3V44.7c0-.2.1-.3.4-.4a.66.66,0,0,1,.7.2A126.56,126.56,0,0,0,777,73.8a11.43,11.43,0,0,0,8.1.3,14.62,14.62,0,0,0,6.7-4.8,7.17,7.17,0,0,0,1.5-4.2,5.66,5.66,0,0,0-.3-1.8,6.08,6.08,0,0,0-4-4.5,122,122,0,0,1-34-18.5.49.49,0,0,1-.1-.7.52.52,0,0,1,.4-.2h31a8.41,8.41,0,0,0,0-16.8h-50a1.34,1.34,0,0,1-1.5-1.1V17.8a8.6,8.6,0,0,0-2.6-6.3A8.9,8.9,0,0,0,717,17.8V21a1.34,1.34,0,0,1-1.1,1.5H666.6a8.46,8.46,0,0,0-8.1,8.7A8.18,8.18,0,0,0,666.5,39.3Z" style="fill:#43831c"/><path d="M670.2,85.2a20,20,0,0,1-6.4-1.1,23.15,23.15,0,0,1-11.1-7.6l-.2-.2A16.37,16.37,0,0,1,649,66.1a18.41,18.41,0,0,1,.3-3.3c0-.2.1-.4.1-.6a15.6,15.6,0,0,1,9.9-11.5l4.2-1.8a18.21,18.21,0,0,1,3-36.2h41.1a18.77,18.77,0,0,1,36.1,0H786a18.26,18.26,0,0,1,4.2,36l1.8.7a15.49,15.49,0,0,1,10.2,11,14.26,14.26,0,0,1,.7,4.6,17,17,0,0,1-3.5,10.2l-.2.3a24.26,24.26,0,0,1-11.1,7.8,21,21,0,0,1-15-.5c-.1,0-.2-.1-.3-.1a144.41,144.41,0,0,1-29.2-17.6,18.53,18.53,0,0,1-4.6,7.6,18.88,18.88,0,0,1-31.1-7.3,142.26,142.26,0,0,1-29.1,17.9A21.14,21.14,0,0,1,670.2,85.2Zm25.5-36Zm20.5-14.9a9.86,9.86,0,0,1,3.8.7l.5.2a10.54,10.54,0,0,1,5.2,5,10.54,10.54,0,0,1,5.2-5l.4-.2a10.55,10.55,0,0,1,11.2,2.2l.4.4c.6.6,1.2,1.3,1.8,1.9a9.88,9.88,0,0,1,1.1-4.4,10.52,10.52,0,0,1,2-2.7H736.1a11.07,11.07,0,0,1-10.4-6.6,11.07,11.07,0,0,1-10.4,6.6H703.2a10.52,10.52,0,0,1,2,2.7l.1.2a11,11,0,0,1,1,4.7c.7-.8,1.5-1.5,2.2-2.3l.3-.3a10.37,10.37,0,0,1,7.4-3.1Z" style="fill:#3e7c18"/><path d="M763.1,73.2H689.5a12.14,12.14,0,0,0-9,3.6,11.21,11.21,0,0,0-3.7,8.6v28c0,14.2,15.8,13.1,16.1,13.1h64.2c2.2,0,18.7.9,18.7-13.9V85.4a11.56,11.56,0,0,0-3.7-8.6A12.45,12.45,0,0,0,763.1,73.2Zm-5.6,37.5c0,.9-.5,1.4-1.5,1.4H695.5a1.25,1.25,0,0,1-1.4-1v-3.9a1.24,1.24,0,0,1,1.1-1.4H756a1.4,1.4,0,0,1,1.5,1.1v3.8Zm0-18.7c0,.9-.5,1.4-1.5,1.4H695.5c-1,0-1.5-.5-1.5-1.4V88.8a1.24,1.24,0,0,1,1.1-1.4h60.8a1.4,1.4,0,0,1,1.5,1.1V92Z" style="fill:#43831c"/><path d="M691.9,136.3c-4.3,0-12.4-.9-18.5-6.7-3-2.8-6.5-8-6.5-16.3v-28a21.38,21.38,0,0,1,6.7-15.7,22.14,22.14,0,0,1,15.8-6.3H763a22.56,22.56,0,0,1,15.8,6.3,21.81,21.81,0,0,1,6.8,15.7v27.1c0,8.4-3.5,13.6-6.5,16.5-5,5-12.4,7.4-21.8,7.3H693Zm72.7-36.7a10.91,10.91,0,0,1,1.3,1.7V97.8a8.32,8.32,0,0,1-1.3,1.8Zm-77.9-.5v.9a1.76,1.76,0,0,1,.4-.5Z" style="fill:#3e7c18"/><path d="M736.1,131.9h49a8.1,8.1,0,1,1,0,16.2H667.3a7.92,7.92,0,0,1-5.8-2.3,7.54,7.54,0,0,1-2.3-5.7,8.34,8.34,0,0,1,2.3-5.8,7.49,7.49,0,0,1,5.8-2.4h46.9" style="fill:#cddc4c"/><path d="M666.9,74.7a9.6,9.6,0,0,0,3.3.6,10.18,10.18,0,0,0,4.5-1l2.4-1.2q-7.8-1-15.6-1.8A13.12,13.12,0,0,0,666.9,74.7Z" style="fill:#cddc4c"/><path d="M716.4,44.3c.2.1.4.2.4.4V59.3a8.6,8.6,0,0,0,2.6,6.3,8.84,8.84,0,0,0,12.5.1l.1-.1a8.53,8.53,0,0,0,2.6-6.3V44.7c0-.2.1-.3.4-.4a.66.66,0,0,1,.7.2,126.56,126.56,0,0,0,41.2,29.3,11.43,11.43,0,0,0,8.1.3,14.62,14.62,0,0,0,6.7-4.8,7.17,7.17,0,0,0,1.5-4.2,5.66,5.66,0,0,0-.3-1.8,6.08,6.08,0,0,0-4-4.5,122,122,0,0,1-34-18.5.49.49,0,0,1-.1-.7.52.52,0,0,1,.4-.2h31a8.41,8.41,0,0,0,0-16.8h-50a1.34,1.34,0,0,1-1.5-1.1V17.8a8.6,8.6,0,0,0-2.6-6.3,8.9,8.9,0,0,0-15.2,6.3V21a1.34,1.34,0,0,1-1.1,1.5H666.5a8.41,8.41,0,0,0,0,16.8h29.3a.71.71,0,0,1,.6.3.48.48,0,0,1-.2.6,116.73,116.73,0,0,1-33.3,19.7,6,6,0,0,0-3.9,4.5c-.1.5-.1,1.1-.2,1.6a6.55,6.55,0,0,0,1.5,4.2,5.24,5.24,0,0,0,1.1,1c5.2.5,10.4,1.1,15.7,1.8a125.26,125.26,0,0,0,38.7-28.6C715.9,44.2,716.2,44.2,716.4,44.3Z" style="fill:#eaefb5"/><path d="M775.1,81.7a11.43,11.43,0,0,0-3.1-4.9,12.14,12.14,0,0,0-9-3.6H689.5a13.19,13.19,0,0,0-4.8.9C714.8,78,745,82.8,775.1,81.7Z" style="fill:#cddc4c"/><path d="M684.7,74a11.66,11.66,0,0,0-4.2,2.7,11.21,11.21,0,0,0-3.7,8.6v28c0,14.2,15.8,13.1,16.1,13.1h64.2c2.2,0,18.7.9,18.7-13.9V85.4a11.48,11.48,0,0,0-.6-3.7C745,82.8,714.8,78,684.7,74Zm72.8,36.7c0,.9-.5,1.4-1.5,1.4H695.5a1.25,1.25,0,0,1-1.4-1v-3.9a1.24,1.24,0,0,1,1.1-1.4H756a1.4,1.4,0,0,1,1.5,1.1v3.8Zm0-18.7c0,.9-.5,1.4-1.5,1.4H695.5c-1,0-1.5-.5-1.5-1.4V88.8a1.24,1.24,0,0,1,1.1-1.4h60.8a1.4,1.4,0,0,1,1.5,1.1v.4Z" style="fill:#cddc4c"/><path d="M2.5,59.5s28.6,69.6,89,28.7C91.5,88.2,87,29,2.5,59.5Z" style="fill:#7fbe26"/><path d="M55.2,103.6a46.93,46.93,0,0,1-13.5-2C13.9,93.3.7,61.8.2,60.5a2.43,2.43,0,0,1,1.4-3.2h.1c31.7-11.6,56.2-12,72.8-1.3C92.2,67.4,93.9,87.2,93.9,88a2.39,2.39,0,0,1-1.1,2.3C79.8,99.2,67.2,103.6,55.2,103.6ZM5.9,61c3.6,7.4,16,29.5,37.2,35.9,13.9,4.2,29.3.9,45.6-9.8-.7-4.4-4-18.4-17-26.9C57,50.7,34.8,50.9,5.9,61Z" style="fill:#3e7c18"/><path d="M91.5,88.2S51.8,70.4,28.2,66.9" style="fill:#cbda4b"/><path d="M91.5,90.7a3.55,3.55,0,0,1-1-.2c-.4-.2-39.7-17.7-62.6-21.1a2.46,2.46,0,1,1,.5-4.9h.2C52.2,68,90.9,85.2,92.5,86a2.53,2.53,0,0,1,1.3,3.3,2.44,2.44,0,0,1-2.3,1.4Z" style="fill:#3e7c18"/><path d="M821.5,273.5s-73.1,18.1-75.8-54.8C745.7,218.8,796.1,187.4,821.5,273.5Z" style="fill:#7fbe26"/><path d="M802.5,278.1c-11.5,0-26.2-2.2-38.2-11.2-13.2-10-20.3-26.1-21.1-48a2.51,2.51,0,0,1,1.2-2.2c.7-.4,17.6-10.8,37.3-3.2,18.4,7,32.6,27,42.2,59.4a2.53,2.53,0,0,1-1.7,3.1h-.1A92.6,92.6,0,0,1,802.5,278.1Zm-54.3-57.9c1,19.5,7.4,33.9,19.1,42.6,17.7,13.4,42.9,10.2,50.9,8.8-9-29.3-21.9-47.3-38.3-53.6-14.5-5.5-27.6.2-31.7,2.2Z" style="fill:#3e7c18"/><path d="M745.7,218.8s37.8,21.5,54.6,38.4" style="fill:#cbda4b"/><path d="M800.3,259.7a2.87,2.87,0,0,1-1.8-.7c-16.3-16.5-53.7-37.8-54-38a2.49,2.49,0,1,1,2.5-4.3c1.6.9,38.3,21.9,55.1,38.9a2.42,2.42,0,0,1,0,3.5,2.79,2.79,0,0,1-1.8.6Z" style="fill:#3e7c18"/><path d="M48.2,185.1s57.5,5.4,51.2-50.2C99.4,134.9,57.5,116.8,48.2,185.1Z" style="fill:#7fbe26"/><path d="M52.4,187.8a29.71,29.71,0,0,1-4.5-.2,2.59,2.59,0,0,1-1.7-.9,2.51,2.51,0,0,1-.5-1.9c3.5-25.9,12.1-42.8,25.5-50.3,14.3-8.1,28.6-2.1,29.2-1.8a2.58,2.58,0,0,1,1.5,2c1.9,16.9-1.7,30.1-10.7,39.3C79.1,186.2,60.8,187.8,52.4,187.8Zm-4.2-2.7Zm2.9-2.4c6.8.1,25.2-.7,36.6-12.3,7.6-7.8,10.8-19.1,9.5-33.7-3.6-1.1-13.7-3.5-23.5,2.1C62.1,145.3,54.6,160,51.1,182.7Z" style="fill:#3e7c18"/><path d="M99.4,134.9s-26.2,20.6-37,35.4" style="fill:#cbda4b"/><path d="M62.4,172.8a2.48,2.48,0,0,1-2.5-2.5,2.69,2.69,0,0,1,.5-1.5c10.8-14.9,36.4-35,37.5-35.9a2.53,2.53,0,0,1,3.5.5,2.62,2.62,0,0,1-.4,3.5c-.3.2-26.1,20.6-36.5,34.9A2.81,2.81,0,0,1,62.4,172.8Z" style="fill:#3e7c18"/><path d="M880.1,80.8s-15.6,55.6-65.2,29.8C814.8,110.6,813,65,880.1,80.8Z" style="fill:#7fbe26"/><path d="M839.4,120c-8,0-16.6-2.4-25.7-7.1a2.33,2.33,0,0,1-1.3-2.1c0-.6-.5-16.1,12.2-26.6,11.8-9.8,30.7-11.7,56.1-5.7a2.41,2.41,0,0,1,1.6,1.2,3.19,3.19,0,0,1,.3,1.9c-.3,1.1-7.6,26.5-28.3,35.4A40.43,40.43,0,0,1,839.4,120Zm-22-10.9c13.1,6.5,24.8,7.6,34.8,3.2,14.9-6.4,22.3-23.3,24.6-29.7-22.5-4.9-39-3.1-49.1,5.3-8.7,7.3-10.1,17.5-10.3,21.2Z" style="fill:#3e7c18"/><path d="M814.8,110.6s28.7-17.1,46.3-21.9" style="fill:#cbda4b"/><path d="M814.9,113.1a2.48,2.48,0,0,1-2.5-2.5,2.44,2.44,0,0,1,1.2-2.1c1.2-.7,29.2-17.3,47-22.1a2.53,2.53,0,0,1,1.6,4.8c-.1,0-.2.1-.3.1-17.1,4.6-45.4,21.4-45.7,21.6A5.85,5.85,0,0,1,814.9,113.1Z" style="fill:#3e7c18"/><path d="M356.2,238.9a9.3,9.3,0,0,1-6.5,15.9H307.1a1.05,1.05,0,0,0-.9.5,1.18,1.18,0,0,0-.1,1q14.4,41.1,46.4,58.7a7.65,7.65,0,0,1,4.1,5.6,5.46,5.46,0,0,1,.1,1.8,8.22,8.22,0,0,1-1.8,5.2,14.55,14.55,0,0,1-7.2,5,15.26,15.26,0,0,1-3,.3,10.84,10.84,0,0,1-5.5-1.5q-30.45-18.3-46.5-57.6a.55.55,0,0,0-.5-.3.51.51,0,0,0-.5.4q-12.9,37.95-47.1,57.9a10.63,10.63,0,0,1-5,1.3,13.33,13.33,0,0,1-2.8-.3,15.12,15.12,0,0,1-7.1-4.6,7.78,7.78,0,0,1-1.9-5v-1a6.73,6.73,0,0,1,3.6-5.3c23.8-13.2,39-33.5,45.5-60.7a1.16,1.16,0,0,0-.2-1,1.23,1.23,0,0,0-1-.5H234.4a9.3,9.3,0,1,1,0-18.6h44.3a1.46,1.46,0,0,0,1.6-1.3v-.2c.6-6.1,1-15.8,1.2-29a9.94,9.94,0,0,1,3-7,9.67,9.67,0,0,1,7-2.9,9.37,9.37,0,0,1,6.9,3,9.07,9.07,0,0,1,2.8,6.6,289.5,289.5,0,0,1-1.6,29.3,1.28,1.28,0,0,0,.4,1,1,1,0,0,0,1,.4h48.8A9.5,9.5,0,0,1,356.2,238.9Z" style="fill:#43831c"/><path d="M239.5,343a26.26,26.26,0,0,1-4.9-.5,2.54,2.54,0,0,1-.7-.2,24.69,24.69,0,0,1-11.6-7.4l-.2-.2a17.46,17.46,0,0,1-4.3-11.5v-1a4.87,4.87,0,0,1,.1-1.2,16.92,16.92,0,0,1,8.4-12.7l.1-.1c18.3-10.1,30.6-24.4,37.5-43.6H234.1a19.16,19.16,0,0,1,0-38.3h36.7q.45-8.1.6-20.7v-.2a20,20,0,0,1,5.9-13.6,19.66,19.66,0,0,1,33.6,13.7c0,6.4-.3,13.4-.8,20.9h39.5a18.82,18.82,0,0,1,13.5,5.6h0a19.15,19.15,0,0,1-13.5,32.7H320c8.8,19,21,32.7,37.1,41.6a17.33,17.33,0,0,1,9.1,12.4v.3a18.7,18.7,0,0,1,.3,3.4,18,18,0,0,1-3.8,11.1l-.2.2a25.15,25.15,0,0,1-12,8.3c-.3.1-.7.2-1,.3a26.26,26.26,0,0,1-4.9.5,20.86,20.86,0,0,1-10.3-2.7l-.3-.2c-16.8-10.1-30.7-24.8-41.5-43.6a113,113,0,0,1-43.2,44.1l-.4.2A20.78,20.78,0,0,1,239.5,343Zm104.7-20.2a1.42,1.42,0,0,0,.6.2h.5l.6-.3a101.31,101.31,0,0,1-29.6-26.1A95.57,95.57,0,0,0,344.2,322.8Zm-72.9-29a96,96,0,0,1-21.6,22.9,94,94,0,0,0,21.6-22.9Zm29.8-16.9-.1.2Zm-20.9-31a11.35,11.35,0,0,1,3.9,3,10.68,10.68,0,0,1,2.2,9.7c-.8,3.2-1.6,6.3-2.6,9.3a10.41,10.41,0,0,1,14.5-2.5,7,7,0,0,1,1,.8c-.9-2.2-1.7-4.4-2.5-6.7l-.3-.9a11.44,11.44,0,0,1,1.5-9,10.66,10.66,0,0,1,4.2-3.7h-1.3a11.31,11.31,0,0,1-11.1-9.3,10.93,10.93,0,0,1-9.5,9.3Zm-13,8v0Zm82-8h0l6.9-7Zm-58-39.9c-.1,3.9-.1,7.5-.2,10.7.2-3.8.3-7.5.3-11h0a.49.49,0,0,1-.1.3Z" style="fill:#3e7c18"/><path d="M405.2,219.4A12.91,12.91,0,0,1,418,206.5h89.6a12.93,12.93,0,0,1,12.9,12.9v26.3a12.93,12.93,0,0,1-12.9,12.9H418a12.93,12.93,0,0,1-12.9-12.9Zm19,120.8a8.62,8.62,0,0,1-6.1-2.5,8.08,8.08,0,0,1-2.5-6.2V278.1a12.93,12.93,0,0,1,12.9-12.9h68.7a12.93,12.93,0,0,1,12.9,12.9V331a8.69,8.69,0,0,1-2.7,6.4,9.33,9.33,0,0,1-6.5,2.7h-5.5a3.47,3.47,0,0,1-2.5-1,3.78,3.78,0,0,1-1-2.7c0-.3-.1-.5-.4-.5H433.4c-.3,0-.4.1-.4.5a3.86,3.86,0,0,1-1.1,2.7,3.63,3.63,0,0,1-2.6,1.1Zm76.7-113.5a1.34,1.34,0,0,0,1.5-1.1v-5a1.34,1.34,0,0,0-1.1-1.5H424.2a1.34,1.34,0,0,0-1.5,1.1v5a1.34,1.34,0,0,0,1.1,1.5h77.1Zm0,19.1a1.34,1.34,0,0,0,1.5-1.1v-4.8a1.34,1.34,0,0,0-1.1-1.5H424.2a1.34,1.34,0,0,0-1.5,1.1v4.8a1.34,1.34,0,0,0,1.1,1.5h77.1Zm-9,33.8a1.34,1.34,0,0,0-1.1-1.5H434.4a1.34,1.34,0,0,0-1.5,1.1v4.3A1.34,1.34,0,0,0,434,285h56.4a1.34,1.34,0,0,0,1.5-1.1v-4.3Zm-59,22.8a1.34,1.34,0,0,0,1.1,1.5h56.4a1.34,1.34,0,0,0,1.5-1.1v-4.4a1.34,1.34,0,0,0-1.1-1.5H434.4a1.34,1.34,0,0,0-1.5,1.1v4.4Zm0,19a1.34,1.34,0,0,0,1.1,1.5h56.4a1.34,1.34,0,0,0,1.5-1.1v-4.5a1.34,1.34,0,0,0-1.1-1.5H434.4a1.34,1.34,0,0,0-1.5,1.1v4.5Z" style="fill:#43831c"/><path d="M429.2,350h-5a18.5,18.5,0,0,1-18.5-18.4V278.1a23.42,23.42,0,0,1,3.1-11.6,22.92,22.92,0,0,1-13.5-20.8V219.4A22.75,22.75,0,0,1,418,196.7h89.6a22.68,22.68,0,0,1,22.7,22.7v26.3a22.38,22.38,0,0,1-6.7,16.1,23.75,23.75,0,0,1-6.9,4.8,22.32,22.32,0,0,1,3.1,11.5V331a19,19,0,0,1-19.1,18.8h-5.5a13.39,13.39,0,0,1-9.5-3.9l-.2-.2H438.9l-.3.3A12.33,12.33,0,0,1,429.2,350Zm70.5-19.9h.4v-2.8a20.27,20.27,0,0,1-1.3,1.8,8.12,8.12,0,0,1,.9,1Zm-74.2-1.5v1c.1-.2.3-.3.4-.5a1,1,0,0,1-.4-.5Zm73.6-18.8a14.31,14.31,0,0,1,1.1,1.5v-3.1C499.8,308.8,499.5,309.3,499.1,309.8Zm-73.6-.2v.5c.1-.1.1-.2.2-.2Zm73.6-18.7a14.31,14.31,0,0,1,1.1,1.5v-3.1C499.8,289.9,499.5,290.4,499.1,290.9Zm-73.6-.3v.5c.1-.1.1-.2.2-.2Zm84.2-58.1a7.1,7.1,0,0,1,1,1.4v-2.8a17,17,0,0,1-1,1.4Zm-94.6-.3v.6l.2-.3C415.3,232.4,415.2,232.3,415.1,232.2Z" style="fill:#3e7c18"/><path d="M640.1,245.9a6.42,6.42,0,0,1-6.4-6.3v-.1c0-.1-.1-.2-.2-.3a.3.3,0,0,0-.4,0h0c-2.2,1.7-4.3,3.2-6.5,4.7a11.34,11.34,0,0,1-5.9,1.8,19.71,19.71,0,0,1-3.4-.4,14.08,14.08,0,0,1-7.7-6.1c-.3-.6-.6-1.1-.9-1.6a.67.67,0,0,0-.7-.4.63.63,0,0,0-.6.5c-1.9,6.1-3.4,10.6-4.4,13.6a2.29,2.29,0,0,0,.3,2.5,48,48,0,0,1,9.9,29.4c0,9.7-2.2,16.1-6.7,19.4a23.35,23.35,0,0,1-8.6,3.1c-.5,0-1,.1-1.5.1h-.7a7.12,7.12,0,0,1-5-2.1,10.56,10.56,0,0,1-3.4-5.6c-.1-.5-.1-1-.2-1.5a5.09,5.09,0,0,1,1-3.2,7.42,7.42,0,0,1,4.3-2.8,5.82,5.82,0,0,0,2.5-1.2c1.5-1.1,2.2-3.9,2.2-8.4a40.34,40.34,0,0,0-3.1-15.7c-2.8-6.3-4.1-12-4.1-17a25.64,25.64,0,0,1,.7-6.2c1.6-6,3.1-12.4,4.6-19.2a1.23,1.23,0,0,0-.2-1,1,1,0,0,0-1-.4h-8.4a1.34,1.34,0,0,0-1.5,1.1V332.5a7.75,7.75,0,0,1-15.5.5V218.4a12.85,12.85,0,0,1,12.8-12.9h19.1c.2,0,.4-.1.6-.1a5.39,5.39,0,0,1,4.3.6l3.8,2.2a8.62,8.62,0,0,1,4.3,7.4,10.68,10.68,0,0,1-.3,2.5c-2.3,7.5-3.8,12.5-4.6,15.1a.48.48,0,0,0,.2.6.49.49,0,0,0,.7.1,90.1,90.1,0,0,0,17.8-12.1,98.85,98.85,0,0,0,14.6-15.7c3.5-4.6,7.8-6.9,13-7s9.7,2.2,13.5,6.7a99.29,99.29,0,0,0,28.5,23.9A7.86,7.86,0,0,1,701,235a6.72,6.72,0,0,1,.4,2.4,8.21,8.21,0,0,1-1.2,4.3,10.26,10.26,0,0,1-5.8,4.6,7.27,7.27,0,0,1-2.5.4,8.39,8.39,0,0,1-4.4-1.3c-3.1-2-6-4.1-8.9-6.4a.45.45,0,0,0-.5,0,.37.37,0,0,0-.1.3,6.49,6.49,0,0,1-6.5,6.5Zm8.5,68.6a7.6,7.6,0,0,1,2.1,5.2,7.94,7.94,0,0,1-2.5,5.8,6.2,6.2,0,0,1-4.4,1.8h-.4a7.53,7.53,0,0,1-4.9-2.5c-.9-.9-1.9-1.9-3-3.1-.7-.7-1.3-.6-1.8.1a72.51,72.51,0,0,1-10.6,13.5,7.49,7.49,0,0,1-5.3,2.2h-.6a9.5,9.5,0,0,1-5.9-2.7,6.89,6.89,0,0,1-2.1-4.9,7.57,7.57,0,0,1,2.4-5.6,55.89,55.89,0,0,0,14.6-22.2,9.44,9.44,0,0,1,4.1-4.9,7.8,7.8,0,0,1,4.4-1.3c.5,0,1.1.1,1.6.1a7.44,7.44,0,0,1,4.9,3.4,5.89,5.89,0,0,1,1,3.4,6.87,6.87,0,0,1-.5,2.4,5.64,5.64,0,0,0-.4,1.2,1.53,1.53,0,0,0,.4,1.8,57.81,57.81,0,0,1,6.9,6.3ZM630.1,292a12.93,12.93,0,0,1-12.9-12.9V267a12.93,12.93,0,0,1,12.9-12.9h10A12.93,12.93,0,0,1,653,267v12.1A12.93,12.93,0,0,1,640.1,292h-10Zm1.6-26a1.34,1.34,0,0,0-1.5,1.1v11.8a1.34,1.34,0,0,0,1.1,1.5H638a1.34,1.34,0,0,0,1.5-1.1V267.5a1.34,1.34,0,0,0-1.1-1.5h-6.7Zm10.2-34.4a.85.85,0,0,0,0,.7c.1.2.2.4.5.4h27.3a.55.55,0,0,0,.6-.4.66.66,0,0,0-.2-.7,92.88,92.88,0,0,1-13.6-15.1,1.14,1.14,0,0,0-.8-.3,1.23,1.23,0,0,0-.8.4,88.65,88.65,0,0,1-13,15Zm25,70.6a9.5,9.5,0,0,1,3.8-5.2,8.07,8.07,0,0,1,4.7-1.6h1.3a7.78,7.78,0,0,1,5.2,3.2,6.58,6.58,0,0,1,1.2,3.8,5.82,5.82,0,0,1-.3,1.9,17.1,17.1,0,0,1-.9,3,2.14,2.14,0,0,0,.6,2.1c6.6,5.2,11.7,9.6,15.4,13.1a7.56,7.56,0,0,1,2.4,5.5,8.62,8.62,0,0,1-2.5,6.1,7.4,7.4,0,0,1-5.3,2.1h-.3a8.17,8.17,0,0,1-5.5-2.4c-2.9-3-6.4-6.3-10.3-9.9q-1.05-1.05-1.8.3a56.57,56.57,0,0,1-8.6,10.9,7.09,7.09,0,0,1-5.2,2.2,1.48,1.48,0,0,1-.7-.1,9,9,0,0,1-5.9-2.7,7.12,7.12,0,0,1-2.1-5,7.41,7.41,0,0,1,2.4-5.6,49.8,49.8,0,0,0,12.4-21.7Zm5.2-10.2a12.93,12.93,0,0,1-12.9-12.9V267a12.93,12.93,0,0,1,12.9-12.9h11.2A12.85,12.85,0,0,1,696.1,267v12.1A12.85,12.85,0,0,1,683.3,292Zm1.6-26a1.34,1.34,0,0,0-1.5,1.1v11.8a1.34,1.34,0,0,0,1.1,1.5h7.5a1.34,1.34,0,0,0,1.5-1.1V267.5a1.34,1.34,0,0,0-1.1-1.5h-7.5Z" style="fill:#43831c"/><path d="M576.5,350.2a17.65,17.65,0,0,1-17.6-17.7V218.4a22.68,22.68,0,0,1,22.7-22.7h17.9a15.56,15.56,0,0,1,11,1.7l3.8,2.2a18.19,18.19,0,0,1,8,9.3,19.06,19.06,0,0,1,1,3.4,81.94,81.94,0,0,0,10.8-12c5.4-7.2,12.6-11,21-11s15.5,3.5,21.1,10.2a91.75,91.75,0,0,0,25.6,21.6,17.86,17.86,0,0,1,8.8,11.1,16,16,0,0,1,.9,5.3,18.68,18.68,0,0,1-2.5,9.2.35.35,0,0,1-.1.2,19.57,19.57,0,0,1-7,7A22.6,22.6,0,0,1,706,267v12.1a22.79,22.79,0,0,1-6.7,16.1,21.77,21.77,0,0,1-6.6,4.6,24.52,24.52,0,0,1,.2,2.7,21,21,0,0,1-.2,2.5c4.9,4,8.8,7.5,11.9,10.4A17.16,17.16,0,0,1,710,328a18.06,18.06,0,0,1-5.4,13l-.3.2a17.1,17.1,0,0,1-12,4.7h-.8a18.05,18.05,0,0,1-12-5.2l-.1-.1-2.8-2.8a51.37,51.37,0,0,1-3.8,4.2,16.93,16.93,0,0,1-12.2,5.1,10.08,10.08,0,0,1-2.5-.3,19.55,19.55,0,0,1-10.9-5.2l-.2-.2a16,16,0,0,1-3.2-4.5h-1.6a16.52,16.52,0,0,1-6.1-1.8,59.46,59.46,0,0,1-6.3,7l-.2.1a17.53,17.53,0,0,1-12.1,4.9H616a20,20,0,0,1-11.8-5.3l-.2-.2a16.56,16.56,0,0,1-5-11.9,18,18,0,0,1,5.2-12.6l.3-.3a43.67,43.67,0,0,0,4.2-4.4,36.51,36.51,0,0,1-9.2,2.9,8.75,8.75,0,0,1-1.6.2,4.88,4.88,0,0,1-1.7.1h-.7a9.7,9.7,0,0,1-1.7-.1v16.8a17.26,17.26,0,0,1-17.3,17.9Zm96.8-36.8c-.1.2-.1.3-.2.5.1,0,.3-.1.4-.1Zm-21.2-9.3c.9.8,1.7,1.6,2.6,2.5a47.06,47.06,0,0,0,2.7-7.1c0-.1,0-.2.1-.2a16.68,16.68,0,0,1,.8-2c-.7-.6-1.4-1.2-2.1-1.9a20.71,20.71,0,0,1-4.4,3.4,18.25,18.25,0,0,1,.5,4c-.1.4-.1.9-.2,1.3Zm28.6-28.2Zm-42.7,0Zm-6-2.7a10,10,0,0,0,2.9,2,8.37,8.37,0,0,0,2.9-2,8.37,8.37,0,0,0-2.9-2,7.22,7.22,0,0,0-2.9,2Zm42.7,0a9.2,9.2,0,0,0,2.5,1.9,9.2,9.2,0,0,0,2.5-1.9,9.2,9.2,0,0,0-2.5-1.9,7.9,7.9,0,0,0-2.5,1.9Zm13.4-33.8Zm-25-17.3Zm-60.3-6.2c.2.3.4.5.6.8,0-.1.1-.3.1-.4Z" style="fill:#3e7c18"/><path d="M231.3,316.8a7.14,7.14,0,0,0-3.6,5.3v1a7.78,7.78,0,0,0,1.9,5,15.92,15.92,0,0,0,7.1,4.6,13.33,13.33,0,0,0,2.8.3,10.63,10.63,0,0,0,5-1.3q34.35-19.95,47.1-57.9a.51.51,0,0,1,.5-.4.55.55,0,0,1,.5.3q16.05,39.3,46.5,57.6a10.58,10.58,0,0,0,5.5,1.5,15.26,15.26,0,0,0,3-.3,14.12,14.12,0,0,0,7.2-5,8.22,8.22,0,0,0,1.8-5.2,11,11,0,0,0-.2-1.8,7.65,7.65,0,0,0-4.1-5.6c-19.4-10.7-33.9-27.8-43.6-51.5-11.2-.4-22.4-.9-33.7-1.6C268,286.1,253.4,304.6,231.3,316.8Z" style="fill:#cddc4c"/><path d="M306.2,255.2a.81.81,0,0,1,.9-.4h42.6a9.3,9.3,0,0,0,0-18.6H300.9a1,1,0,0,1-1-.5,1.78,1.78,0,0,1-.4-1,286.07,286.07,0,0,0,1.6-29.3,9.78,9.78,0,0,0-9.8-9.6,9.67,9.67,0,0,0-7,2.9,9.94,9.94,0,0,0-3,7c-.2,13.2-.6,22.9-1.2,29a1.45,1.45,0,0,1-1.4,1.5H234.2a9.3,9.3,0,1,0,0,18.6h41.4a1.28,1.28,0,0,1,1,.4,1.16,1.16,0,0,1,.2,1c-.5,1.9-1.1,3.7-1.6,5.5,11.2.7,22.5,1.2,33.7,1.6-1-2.3-1.9-4.7-2.8-7.1A.92.92,0,0,1,306.2,255.2Z" style="fill:#eaefb5"/><path d="M418.1,258.6h89.6a12.93,12.93,0,0,0,12.9-12.9V219.4a12.91,12.91,0,0,0-12.8-12.9H418.2a12.85,12.85,0,0,0-12.9,12.8h0v26.3A12.74,12.74,0,0,0,418.1,258.6Zm4.6-38a1.34,1.34,0,0,1,1.1-1.5h77.1a1.34,1.34,0,0,1,1.5,1.1v5a1.34,1.34,0,0,1-1.1,1.5H424.2a1.34,1.34,0,0,1-1.5-1.1v-5Zm0,19.2a1.34,1.34,0,0,1,1.1-1.5h77.1a1.34,1.34,0,0,1,1.5,1.1v4.8a1.34,1.34,0,0,1-1.1,1.5H424.2a1.34,1.34,0,0,1-1.5-1.1v-4.8Z" style="fill:#eaefb5"/><path d="M497.2,265.3H428.5a12.93,12.93,0,0,0-12.9,12.9v53.4a8.45,8.45,0,0,0,2.5,6.2,8.62,8.62,0,0,0,6.1,2.5h5a3.63,3.63,0,0,0,2.6-1.1,3.86,3.86,0,0,0,1.1-2.7c0-.2.1-.4.3-.4h58.2c.2,0,.4.1.4.3v.1a3.78,3.78,0,0,0,1,2.7,3.47,3.47,0,0,0,2.5,1h5.5a8.54,8.54,0,0,0,6.5-2.7,8.41,8.41,0,0,0,2.8-6.3V278.3a12.89,12.89,0,0,0-12.9-13Zm-5.4,56.1a1.34,1.34,0,0,1-1.1,1.5H434.3a1.34,1.34,0,0,1-1.5-1.1v-4.5a1.34,1.34,0,0,1,1.1-1.5h56.4a1.34,1.34,0,0,1,1.5,1.1v4.5Zm0-19a1.34,1.34,0,0,1-1.1,1.5H434.3a1.34,1.34,0,0,1-1.5-1.1v-4.4a1.34,1.34,0,0,1,1.1-1.5h56.4a1.34,1.34,0,0,1,1.5,1.1v4.4Zm0-19a1.34,1.34,0,0,1-1.1,1.5H434.3a1.34,1.34,0,0,1-1.5-1.1v-4.3a1.34,1.34,0,0,1,1.1-1.5h56.4a1.34,1.34,0,0,1,1.5,1.1v4.3Z" style="fill:#cddc4c"/><path d="M603.3,253.9a2.29,2.29,0,0,1-.3-2.5c1.1-3,2.6-7.5,4.4-13.6a.72.72,0,0,1,.9-.5c.2.1.4.2.4.4.3.5.6,1,.9,1.6a14.53,14.53,0,0,0,7.7,6.1,13.17,13.17,0,0,0,3.4.4,10.27,10.27,0,0,0,5.9-1.8c2.2-1.5,4.3-3.1,6.5-4.7a.3.3,0,0,1,.4,0h0c.2.1.2.2.2.3A6.42,6.42,0,0,0,640,246h31.7a6.49,6.49,0,0,0,6.5-6.5.52.52,0,0,1,.2-.4.6.6,0,0,1,.4.1c2.9,2.3,5.8,4.4,8.9,6.4a8.67,8.67,0,0,0,4.4,1.3,6.9,6.9,0,0,0,2.5-.4,10.59,10.59,0,0,0,5.8-4.6,8.21,8.21,0,0,0,1.2-4.3,6.72,6.72,0,0,0-.4-2.4,7.86,7.86,0,0,0-4.1-5.3A99.29,99.29,0,0,1,668.6,206c-3.7-4.4-8.1-6.7-13.5-6.7s-9.6,2.3-13,7A94.43,94.43,0,0,1,627.5,222a86,86,0,0,1-17.8,12.1.82.82,0,0,1-.7-.1.48.48,0,0,1-.2-.6c.8-2.6,2.3-7.6,4.6-15.1a10.68,10.68,0,0,0,.3-2.5,8.62,8.62,0,0,0-4.3-7.4l-3.8-2.2a5.39,5.39,0,0,0-4.3-.6.66.66,0,0,1-.6.1H581.6a12.85,12.85,0,0,0-12.8,12.9v45.9l15.5.6V223a1.34,1.34,0,0,1,1.1-1.5h8.8a1.16,1.16,0,0,1,1,.4,1.23,1.23,0,0,1,.2,1c-1.5,6.8-3,13.2-4.6,19.2a21.48,21.48,0,0,0-.7,6.2c0,5,1.4,10.7,4.1,17h0l15.9.9A54.9,54.9,0,0,0,603.3,253.9Zm38.6-22.3a87.41,87.41,0,0,0,13-14.9,1,1,0,0,1,.8-.5,1.14,1.14,0,0,1,.8.3,97.23,97.23,0,0,0,13.6,15.1.61.61,0,0,1,0,.8.52.52,0,0,1-.4.2H642.4c-.2,0-.3-.1-.5-.4A.64.64,0,0,1,641.9,231.6Z" style="fill:#eaefb5"/><path d="M692.3,257.9a12.55,12.55,0,0,0-9.1-3.8H672a12.75,12.75,0,0,0-12.7,11.1c10.8-1.8,22-4.2,33.5-6.8C692.6,258.3,692.5,258.1,692.3,257.9Z" style="fill:#eaefb5"/><path d="M568.7,332.5A7.47,7.47,0,0,0,571,338a7.73,7.73,0,0,0,10.9.1l.1-.1a7.81,7.81,0,0,0,2.3-5.5V264.9l-15.5-.6v68.2Z" style="fill:#cddc4c"/><path d="M610.1,266.4q-7.95-.6-15.9-.9a40.21,40.21,0,0,1,3.1,15.6c0,4.5-.7,7.3-2.2,8.4a5.82,5.82,0,0,1-2.5,1.2,7.42,7.42,0,0,0-4.3,2.8,5.5,5.5,0,0,0-1,3.2,7.72,7.72,0,0,0,.2,1.5,10.56,10.56,0,0,0,3.4,5.6,7.12,7.12,0,0,0,5,2.1h.7a7.57,7.57,0,0,1,1.5-.1,24.72,24.72,0,0,0,8.6-3.1c4.4-3.2,6.6-9.7,6.7-19.4A54,54,0,0,0,610.1,266.4Z" style="fill:#cddc4c"/><path d="M659.1,279.1A12.93,12.93,0,0,0,672,292h11.2A12.85,12.85,0,0,0,696,279.1V267a12.11,12.11,0,0,0-3.3-8.5c-11.5,2.6-22.7,5-33.5,6.8-.1.6-.1,1.2-.2,1.7Zm13-11.6a1.34,1.34,0,0,1,1.1-1.5h7.5a1.34,1.34,0,0,1,1.5,1.1v11.8a1.34,1.34,0,0,1-1.1,1.5h-7.5a1.34,1.34,0,0,1-1.5-1.1V267.5Z" style="fill:#cddc4c"/><path d="M682.5,309.5a2,2,0,0,1-.6-2.1,17.1,17.1,0,0,0,.9-3,6.28,6.28,0,0,0,.3-1.9,6.36,6.36,0,0,0-1.2-3.8,7.78,7.78,0,0,0-5.2-3.2h-1.3a7.33,7.33,0,0,0-4.7,1.7,9.5,9.5,0,0,0-3.8,5.2c-2.6,8.9-6.7,16.1-12.4,21.7a8,8,0,0,0-2.4,5.6,6.72,6.72,0,0,0,2.1,5,9,9,0,0,0,6,2.7.88.88,0,0,0,.7.1,7.26,7.26,0,0,0,5.2-2.2,64.46,64.46,0,0,0,8.6-10.9q.75-1.35,1.8-.3c3.9,3.6,7.4,6.9,10.3,9.9a8,8,0,0,0,5.5,2.4h.3a7.4,7.4,0,0,0,5.3-2.1,8.62,8.62,0,0,0,2.5-6.1,7.2,7.2,0,0,0-2.4-5.5C694.2,319.1,689.1,314.7,682.5,309.5Z" style="fill:#cddc4c"/><path d="M641.9,308.1a1.3,1.3,0,0,1-.4-1.8c.1-.4.3-.8.4-1.2a10.27,10.27,0,0,0,.5-2.4,5.89,5.89,0,0,0-1-3.4,7.21,7.21,0,0,0-4.9-3.4,8.6,8.6,0,0,0-1.6-.1,8.39,8.39,0,0,0-4.4,1.3,9,9,0,0,0-4.1,4.9,58.87,58.87,0,0,1-14.6,22.2,8,8,0,0,0-2.4,5.6,6.66,6.66,0,0,0,2.1,4.9,10.07,10.07,0,0,0,5.9,2.7h.6a7.49,7.49,0,0,0,5.3-2.2,65.77,65.77,0,0,0,10.6-13.5c.5-.8,1.1-.8,1.8-.1,1.1,1.2,2.1,2.2,3,3.1a6.74,6.74,0,0,0,4.9,2.5h.5a5.88,5.88,0,0,0,4.4-1.8,7.94,7.94,0,0,0,2.5-5.8,7.34,7.34,0,0,0-2.1-5.2C646.4,312.2,644.1,310.1,641.9,308.1Z" style="fill:#cddc4c"/><path d="M630.2,267.5a1.34,1.34,0,0,1,1.1-1.5H638a1.34,1.34,0,0,1,1.5,1.1v.5c4.4-.3,8.8-.7,13.4-1.3a12.83,12.83,0,0,0-12.8-12.1h-10a12.8,12.8,0,0,0-12.8,12.7c4.3.3,8.7.6,13,1Z" style="fill:#eaefb5"/><path d="M617.2,279.1A12.93,12.93,0,0,0,630.1,292h10A12.93,12.93,0,0,0,653,279.1V267c0-.3-.1-.5-.1-.8-4.5.6-9,1-13.4,1.3v11.3a1.34,1.34,0,0,1-1.1,1.5h-6.7a1.34,1.34,0,0,1-1.5-1.1V267.8c-4.3-.4-8.7-.6-13-1v12.3Z" style="fill:#cddc4c"/><rect x="150.1" y="33.3" width="8.8" height="8.8" style="fill:#3e7c18"/><rect x="150.1" y="58" width="8.8" height="8.8" style="fill:#3e7c18"/><rect x="567.5" y="104.5" width="8.8" height="8.8" style="fill:#3e7c18"/><rect x="630.4" y="268.7" width="8.8" height="8.8" style="fill:#3e7c18"/><rect x="672.8" y="268.7" width="8.8" height="8.8" style="fill:#3e7c18"/><rect x="176.5" y="33.1" width="8.8" height="8.8" style="fill:#3e7c18"/><rect x="176.5" y="58" width="8.8" height="8.8" style="fill:#3e7c18"/></svg>