<?xml version="1.0" encoding="utf-8"?>
<!-- Generator: Adobe Illustrator 21.1.0, SVG Export Plug-In . SVG Version: 6.00 Build 0)  -->
<svg version="1.1" id="圖層_1" xmlns="http://www.w3.org/2000/svg" xmlns:xlink="http://www.w3.org/1999/xlink" x="0px" y="0px"
	 viewBox="0 0 106.3 194.9" style="enable-background:new 0 0 106.3 194.9;" xml:space="preserve">
<style type="text/css">
	.st0{fill:#A19895;}
	.st1{fill:#C5BCB8;}
	.st2{fill:#1A1A1A;}
</style>
<title>互動設計UI</title>
<path class="st0" d="M52.5,15.8l-4.6,4.6c0,0-4.6,17.4,4.2,15.9C52.1,36.3,69.3,24.2,52.5,15.8z"/>
<polyline class="st0" points="19.9,172.9 18,182.3 18.7,192.9 30.3,184.7 "/>
<ellipse class="st0" cx="52.1" cy="104.6" rx="39.5" ry="68.4"/>
<path class="st1" d="M41.4,113.2c0,0-3.5-10.3-7.5,1.7c0,0-16.7,36.8-25.9,39.1c0,0-5.7,2.9,9.8,15.5c0,0,8,20.1,27,20.7
	c0,0,19.5,4,30.5-31.6L41.4,113.2z"/>
<path class="st2" d="M50.6,194c-12.6,0-24-7.3-30.1-15c-3.9-4-6.5-9.2-7.4-14.8c-0.2-1.5,0.8-2.8,2.3-3.1c1.5-0.2,2.8,0.8,3.1,2.3
	c0.8,4.5,2.9,8.6,6,11.8c0.1,0.1,0.2,0.2,0.3,0.3c5.5,6.9,16.6,13.9,28.2,13c10.8-0.9,20-8.1,27.3-21.6c0.6-1.3,2.3-1.9,3.6-1.3
	c1.3,0.6,1.9,2.3,1.3,3.6c0,0.1-0.1,0.2-0.1,0.2c-10.4,18.7-22.9,23.6-31.7,24.3C52.4,193.9,51.5,194,50.6,194z"/>
<path class="st2" d="M24.8,148.9c-1.5,0-2.7-1.3-2.7-2.7c0-0.9,0.5-1.8,1.3-2.3c3.9-2.2,7.9-4.2,12.1-5.9c1.4-0.6,3,0,3.5,1.4
	c0.6,1.4,0,3-1.4,3.5c-3.9,1.7-7.8,3.5-11.5,5.6C25.7,148.8,25.2,148.9,24.8,148.9z"/>
<path class="st2" d="M18.7,194.9c-0.7,0-1.3-0.4-1.7-1c-0.2-0.3-3.8-7.1,0.2-19.7c0.4-1,1.5-1.6,2.5-1.2c1,0.3,1.5,1.4,1.2,2.4
	c-2.5,7.6-1.8,12.7-1.1,15.1c6.6-2.9,7-8,7-8c0-1.1,0.9-1.9,2-1.9c1.1,0,1.9,0.9,1.9,2c0,0.1,0,0.1,0,0.2c0,0.4-0.6,8.7-11.4,12.2
	C19.1,194.9,18.9,194.9,18.7,194.9z"/>
<circle class="st2" cx="36.8" cy="163.2" r="4.2"/>
<path class="st2" d="M22.5,168.6c-0.5,0-1-0.1-1.4-0.4c-3.5-2.1-10.3-5-14-4.2c-0.7,0.1-1.4,0-1.9-0.3c-1.8-1.1-2.8-3.1-2.7-5.2
	c0.3-3.2,3-8.3,22.7-15.6c1.4-0.5,2.9,0.2,3.5,1.6c0.5,1.4-0.2,2.9-1.6,3.5l0,0c-15.1,5.6-18.4,9.2-19.1,10.5
	c6.7-0.2,14.8,4.5,15.8,5.1c1.3,0.8,1.7,2.4,0.9,3.7C24.3,168.1,23.4,168.6,22.5,168.6L22.5,168.6z"/>
<path class="st2" d="M32,155.4c-0.2,0-0.4,0-0.7-0.1l-12.6-4.5c-1-0.4-1.5-1.6-1-2.6c0.4-0.9,1.4-1.4,2.3-1.1l12.6,4.5
	c1,0.4,1.5,1.5,1.2,2.5C33.5,154.8,32.8,155.4,32,155.4L32,155.4z"/>
<path class="st2" d="M86.6,175c-0.9,0-1.7-0.4-2.2-1.1c-0.2-0.3-23.6-32.7-37.6-48c-1.5-1.6-2.8-3.4-3.8-5.3
	C37,109.8,18.5,70.8,29.1,19.4c0.3-1.5,1.7-2.4,3.2-2.1c1.5,0.3,2.4,1.7,2.1,3.2C24.2,70,41.9,107.6,47.6,118
	c0.9,1.5,1.9,2.9,3.1,4.2c14.2,15.5,37.1,47.1,38,48.5c0.9,1.2,0.6,2.9-0.6,3.8C87.7,174.8,87.1,174.9,86.6,175L86.6,175z"/>
<path class="st2" d="M86.6,174.8c-1.5,0-2.7-1.2-2.7-2.6c0-0.5,0.1-0.9,0.3-1.4c6.4-12.9,11.1-26.5,13.8-40.6
	c4.2-21,5.8-51.8-9.8-80.9c-1.3,0.7-2.7,1.1-4.2,1c-5.8-0.3-11.7-6.9-18-20.1c-3.5,3.8-10,9.3-17.7,8.7c-7.3-0.5-13.7-6.4-19-17.3
	c-0.6-1.4,0.1-3,1.4-3.5c1.3-0.5,2.8,0,3.4,1.2c4.4,9.1,9.3,14,14.6,14.4c8.3,0.6,15.6-9.8,15.7-9.9c0.8-1.2,2.5-1.5,3.7-0.7
	c0.4,0.3,0.7,0.7,1,1.1c8.3,19,13.6,20.8,15.1,20.9c0.9,0,1.8-0.5,2.3-1.3c0.8-1.3,2.4-1.7,3.7-0.9c0.4,0.2,0.7,0.6,0.9,0.9
	c18.2,31.5,16.6,65.1,12.1,87.8c-4.9,24.5-14,41.3-14.3,42C88.5,174.3,87.6,174.8,86.6,174.8z"/>
<path class="st2" d="M83.5,149.6c-0.4,0-0.9-0.2-1.2-0.4c-0.8-0.6-20.1-16.1-30.7-28.5c-0.7-0.8-0.6-2.1,0.2-2.8s2.1-0.6,2.8,0.2
	c7.4,8.6,19.4,19.1,25.8,24.4c-3.3-15.4-12.7-60.7-17-97.9c-0.1-1.1,0.7-2,1.8-2.1c1-0.1,1.9,0.6,2.1,1.6
	c5.2,45.2,17.9,102.4,18,103c0.2,0.8-0.2,1.6-0.9,2.1C84.1,149.6,83.8,149.6,83.5,149.6z"/>
<path class="st2" d="M89.6,132.9c-0.1,0-0.3,0-0.4,0c-1-0.2-1.7-1.2-1.5-2.3c0-0.2,3.9-20.4,1.9-32.1c-0.1-1.1,0.6-2,1.7-2.2
	c1-0.1,1.9,0.5,2.2,1.5c2.1,12.4-1.8,32.7-1.9,33.5C91.3,132.3,90.5,132.9,89.6,132.9z"/>
<path class="st2" d="M12,153c-1,0-1.9-0.5-2.4-1.4c-0.3-0.6-7.4-14.1-9.2-34.4c-1.7-18.8,1.2-47.2,24-75.7c1-1.1,2.7-1.3,3.8-0.3
	c1.1,0.9,1.3,2.6,0.4,3.7c-41.5,51.8-14.5,103.6-14.2,104.2c0.7,1.3,0.3,2.9-1,3.7C13,152.9,12.5,153.1,12,153L12,153z"/>
<path class="st2" d="M15.1,151.7c-0.5,0-1-0.1-1.4-0.4c-1.3-0.8-1.6-2.5-0.8-3.7c0,0,0,0,0,0c0.2-0.2,15.3-24.2,21.8-43.5
	c0.5-1.4,2-2.2,3.4-1.7s2.2,2,1.7,3.4l0,0c-6.6,19.9-21.7,43.7-22.3,44.7C16.9,151.2,16,151.7,15.1,151.7z"/>
<path class="st0" d="M54.9,161.3c0,0,0,7.3-10.2,9.2l1.2,6.6l5.9,5.7l5.6,2.4l3.6-4.1l1.4-7.3C62.4,173.8,59.1,160.8,54.9,161.3z"/>
<path class="st2" d="M57.4,187.2c-0.1,0-0.2,0-0.3,0c-13.2-2.1-15.9-15.3-15.9-15.5c-0.1-1.1,0.6-2,1.7-2.2c1-0.1,1.9,0.5,2.1,1.4
	l0,0c0.1,0.4,2.2,10.4,12.2,12.3c1.4-0.6,2.5-1.7,3-3.1c1.1-2.8,1.1-8.2-5.2-18.6c-0.5-1-0.1-2.1,0.9-2.6c0.8-0.4,1.9-0.2,2.4,0.6
	c5.8,9.5,7.6,17,5.5,22.2c-1,2.6-3.2,4.6-5.9,5.4C57.7,187.2,57.5,187.2,57.4,187.2z"/>
<path class="st2" d="M45.1,37c-0.4,0-0.8-0.1-1.2-0.3c-1.3-0.7-1.8-2.2-1.2-3.6c0.1-0.1,1.8-4,3-15c-2.9-2.3-5.8-7.5-2.7-16
	c0.7-1.3,2.3-1.8,3.6-1.1c1,0.5,1.6,1.7,1.4,2.8c-3,8.3,1.5,10.3,1.6,10.4c1.1,0.5,1.7,1.6,1.6,2.7c-1.3,13.4-3.5,18.1-3.7,18.6
	C47,36.5,46.1,37,45.1,37z"/>
<path class="st2" d="M60.5,34.5c-0.9,0-1.7-0.5-2.2-1.2c-0.4-0.6-1.3-1.9-1.7-14.5c-1.8-8.5,2.7-17.1,2.9-17.5
	c0.8-1.3,2.4-1.7,3.7-0.9c1.2,0.7,1.6,2.2,1.1,3.4l0,0c0,0.1-3.8,7.4-2.3,14.1c0,0.2,0,0.3,0.1,0.5c0.2,4.9,0.6,10.9,1,12.2
	c0.7,1.3,0.1,3-1.2,3.6C61.4,34.4,61,34.5,60.5,34.5L60.5,34.5z M62.8,30.3L62.8,30.3z"/>
</svg>
