<svg id="圖層_1" data-name="圖層 1" xmlns="http://www.w3.org/2000/svg" viewBox="0 0 253.2 332.7"><title>cat</title><path d="M44.8,147.6s3,54.2,53.1,65.5c2.3.5,6.1,6.8,6.1,6.8l7.6,89.1,24.4-8.8,18.2,15.7,49.7-9.5,5.3-16.9L222,262.6l10.3-34.7,16.4-22.8-34.6-49.4,4.5-35.2L208.4,94.4" style="fill:#fffdf7"/><path d="M97.9,213.1s21.6-7.6,33-6c0,0,3.6,67.8,27.3,107.3l-37.9,13.4Z" style="fill:#c6a679"/><path d="M216.6,158.2s-21,8.9-28.4,17.8c0,0,27.1,27.7,39.6,63.8l20.3-30.1Z" style="fill:#c6a679"/><ellipse cx="131.7" cy="244.46" rx="7.1" ry="20.8" transform="translate(-116.56 368.84) rotate(-88.3)" style="fill:#927b59"/><ellipse cx="143.89" cy="271.5" rx="6.7" ry="11.7" transform="translate(-131.76 407.27) rotate(-88.3)" style="fill:#927b59"/><ellipse cx="212.89" cy="204.92" rx="20.8" ry="7.1" transform="translate(-82.47 213.65) rotate(-45.6)" style="fill:#927b59"/><path d="M5.2,86.6s13.9,43.5,39.6,61l6,21.2s19.7,14.2,42.3,8.4c0,0,17-29,31.7-34.3l18.3-9s23.3-9.7,43.2-1.9c0,0,21.9-10.4,28.2-28.6L194.6,73.7l-6.1-41.3L170.3,5.2,132.5,53.3l-23,5.8L72.4,75.7l-6,10.2" style="fill:#c6a679"/><path d="M65,86.6s1.2,12.5,12,32c0,0-17.9,11.6-3.2,31,0,0,10.9,14.4,28.7,4,0,0,19.8-13,6-31.2,0,0-30.4-38-26.9-54.9" style="fill:#fffdf7"/><path d="M79,74.6s6.8,21,19,37c0,0,7.1,5.3,6-4.5,0,0-10.2-25.7-11.9-39.5" style="fill:#927b59"/><path d="M59.9,192.4s6.9-12.8,21.5-26.7c0,0,7.9-4.1,5.2,5.4,0,0-11,17-14.9,30.3" style="fill:#927b59"/><path d="M79,205.2s-2.6-.8,12-14.7c0,0,7.9-4.1,5.2,5.4,0,0-2.9,4.8-6.8,18.2" style="fill:#927b59"/><path d="M63.8,85.1s2.1,14.9,11.4,32.7c0,0,7.1,5.3,6-4.5,0,0-7.4-22-9.1-35.8" style="fill:#927b59"/><path d="M139.4,50.3s8.2,9.6,14.6,30.9c0,0,20.8-4.7,24.4,19.4,0,0,2.7,17.9-17.2,23.3,0,0-23.1,5.1-26.5-17.5,0,0-6-43-20.5-52.3" style="fill:#fffdf7"/><path d="M121,52s10.2,19.5,13.2,39.4c0,0-1.2,8.8-7.4,1.1,0,0-11.3-25.3-20-36.1" style="fill:#927b59"/><path d="M218.7,120.5s-14-4-34.1-3.3c0,0-8.4,2.8.3,7.5,0,0,19.9,4,32.1,10.5" style="fill:#927b59"/><path d="M214.5,143.1s1.2-2.4-18.9-1.7c0,0-8.4,2.8.3,7.5,0,0,5.5,1.3,17.7,7.8" style="fill:#927b59"/><path d="M139.1,48.4s9.2,11.9,15.4,31c0,0-1.2,8.8-7.4,1.1,0,0-10.6-20.7-19.3-31.5" style="fill:#927b59"/><path d="M248.1,215.6a5.13,5.13,0,0,1-4.5-2.6c-14.1-24.9-25.7-43.6-33.6-54.1a5.06,5.06,0,0,1-.5-5.4c.8-1.6,19.5-40.7-18.5-75.9a5,5,0,0,1-.8-6.7c.6-1.2,8.8-18.3-20.8-58.2-7.3,6.8-23.1,22.7-32.3,42.7a5,5,0,0,1-4.4,3c-.2,0-18.6,1-34.8,9A5.11,5.11,0,0,1,91,65.1a5.23,5.23,0,0,1,2.3-6.9c14.2-7,29.4-9.2,35.8-9.8C142.7,21,166,2,167,1.2a5.08,5.08,0,0,1,7.2.7l.1.1c30.9,39.8,29.3,61.9,26.4,70.5,20.5,20.4,24.6,42,24.4,56.7a75.82,75.82,0,0,1-5,25.8c8.1,11.2,19,29,32.5,52.8a5.12,5.12,0,0,1-2,7A5.66,5.66,0,0,1,248.1,215.6Z" style="fill:#1a1a1a"/><path d="M120.3,333a5.13,5.13,0,0,1-4.9-3.6c-8.9-27.2-19.4-94.7-22.1-112.1a75.48,75.48,0,0,1-23-11.6c-11.9-8.8-26.5-25.2-30.2-53.8C31.5,148.9,13,136.8.2,88a5.19,5.19,0,0,1,3.6-6.3h.1c1.3-.3,30.5-7.2,60.5-1.3C68.8,75.7,79.8,65,94,58a5.14,5.14,0,1,1,4.6,9.2h0c-16.2,8-28.2,22-28.4,22.2a5.14,5.14,0,0,1-5.1,1.7c-21.5-4.8-43.7-2-53.6-.3,13.7,47.7,32.2,51.6,33.5,51.8a4.85,4.85,0,0,1,4.8,4.7c4.8,51.6,47.2,60.6,49,60.9a5.1,5.1,0,0,1,4.1,4.3c5.8,38.8,15,91.9,22.2,113.8a5.16,5.16,0,0,1-3.3,6.5h0A6.8,6.8,0,0,1,120.3,333Z" style="fill:#1a1a1a"/><path d="M141.1,212.2a63.52,63.52,0,0,1-19.8-3.1,4.14,4.14,0,1,1,2.5-7.9c.1,0,.2.1.3.1,1.8.7,44.4,15.4,64.9-32.3a4.12,4.12,0,1,1,7.6,3.2c-12.3,28.7-32.2,37.2-46.7,39.3A51.39,51.39,0,0,1,141.1,212.2Z" style="fill:#1a1a1a"/><circle cx="91" cy="136.9" r="13.6" style="fill:#1a1a1a"/><path d="M125.7,179.7a32.94,32.94,0,0,1-11.6-2.4,3.87,3.87,0,0,1,3.1-7.1h0c2.5,1.1,10.1,3.3,14.6.1s5.1-11.3,4.6-17.5a3.9,3.9,0,0,1,3.6-4.1,3.7,3.7,0,0,1,3.2,1.4c2.2,2.6,9.2,9.1,15.5,8.1,4.3-.7,8.1-4.9,11.2-12.6a3.82,3.82,0,0,1,5-2.1,4,4,0,0,1,2.2,5h0c-4.2,10.4-10,16.2-17.1,17.4-6,1-11.7-1.7-15.9-4.7-.8,7.2-3.4,12.5-7.8,15.6A19.44,19.44,0,0,1,125.7,179.7Z" style="fill:#1a1a1a"/><path d="M142.8,151.4l4.2-14.6a4,4,0,0,0-2.7-5,3.91,3.91,0,0,0-3,.3l-18.3,9a3.91,3.91,0,0,0-1.9,5.3,3.64,3.64,0,0,0,2.2,2l14.1,5.6a4,4,0,0,0,5.2-2.3C142.7,151.6,142.8,151.5,142.8,151.4Z" style="fill:#1a1a1a"/><path d="M59.7,99s-19.2-2.2-35.2-.9c0,0,3.9,22.1,25,34.2" style="fill:#fae5ee"/><path d="M49.5,135.6a4.71,4.71,0,0,1-1.7-.4C25.6,122.5,21.4,99.7,21.2,98.7a3.39,3.39,0,0,1,2.7-3.9h.3c16.2-1.3,35.1.8,35.9.9a3.36,3.36,0,0,1,2.8,3.8,3.32,3.32,0,0,1-3.6,2.8,221.64,221.64,0,0,0-30.5-1.2c2.1,6.4,8,19.9,22.3,28.1a3.3,3.3,0,0,1,1.2,4.6,3.08,3.08,0,0,1-2.8,1.8Z" style="fill:#1a1a1a"/><circle cx="158.6" cy="103.6" r="13.6" style="fill:#1a1a1a"/><path d="M147.9,55.5s9.5-16.4,20.3-28.3c0,0,15.1,16.5,11.9,40.6" style="fill:#fae5ee"/><path d="M180.1,71.1h-.4a3.4,3.4,0,0,1-2.9-3.8h0c2.2-16.5-4.9-29.3-8.7-34.9a210.51,210.51,0,0,0-17.3,24.7,3.36,3.36,0,1,1-5.8-3.4c.4-.7,9.8-16.9,20.7-28.9a3.25,3.25,0,0,1,2.5-1.1h0a3.58,3.58,0,0,1,2.5,1.1c.7.7,16.1,18,12.8,43.3A3.44,3.44,0,0,1,180.1,71.1Z" style="fill:#1a1a1a"/></svg>