<svg id="圖層_1" data-name="圖層 1" xmlns="http://www.w3.org/2000/svg" viewBox="0 0 1080 364.8"><title>grass</title><ellipse cx="1002.83" cy="168.01" rx="8.7" ry="15.3" transform="translate(11.09 392.39) rotate(-22.26)" style="fill:#7ebc25"/><polygon points="896.6 171 803.9 215 708.7 257.7 724.2 321.4 829.5 283.3 904 252.8 896.6 171" style="fill:#fff"/><polyline points="371.2 236 339.9 268.2 371.2 316 522.1 246.3 737.2 304.4 747 266.3 717.7 238" style="fill:#fff"/><path d="M397.5,320.1c-2.6-3.9-5.6-3.5-8-7.1-2.6-3.9-2.8-9.2-5.3-12.8-2.6-3.9-4.9-7.8-7.4-11.4-2.7-3.9-2.8-9.4-5.3-12.9-2.8-3.9-10.3-4-12.9-7.4-2.9-3.8-1.5-10.7-4.3-14-3-3.6-7.9-5.5-11-8.6-3.3-3.1-6.8-6.1-10.4-8.9s-8.5-3.4-12.4-5.8-5.8-7.9-10.1-9.9c-3.9-1.8-9.6,0-14-1.6-4-1.5-8.4-2-13-3.4-4.1-1.2-8.1-3.6-12.7-4.7-4.2-1-8.3-3.1-13-4-4.2-.9-8.3-3.8-12.9-4.7-4.3-.8-9.7.9-14.4.1-4.8-4.9,1.9-6.4-.6-14.5-1.1-3.7-3.8-7.8-5.5-12.7-1.4-4-2.8-8.4-4.7-12.9-1.7-4-2.3-8.9-4.4-13.1-2-4-4.4-8-6.8-12.1-2.2-3.9-9.5-4.7-12.1-8.6s-4.8-7.5-7.7-11.1-2.3-10-5.5-13.3-8.4-4.5-11.9-7.5-5.1-8.3-8.9-10.9-10.7.1-14.7-2.1-5.6-9-9.9-10.8c-4.1-1.7-8.2-4.7-12.7-6-4.3-1.2-9.4-.1-14.1-.9-4.4-.7-8.9-3.7-13.6-4-4.4-.2-9.1,5.9-13.8,6.2-4.4.2-8.7.7-13.4,1.3-4.4.6-9.4-2.4-14-1.4-4.3.9-8.2,4.3-12.7,5.6-4.3,1.2-8.9,1.5-13.3,3-4.2,1.4-8.8,2.1-13.2,3.8-4.1,1.7-10.1,3.8-14.3,5.7-1,5.2-.4,7.2,2.2,11.8,3.4,5.9,6,4.4,10.8,9.2s5.4,4.3,10.2,9.1,2.8,6.9,7.6,11.7,5.6,4.1,10.4,8.9,5.9,3.8,10.7,8.6,6.2,3.5,11,8.3,3.4,6.2,8.3,11,6.9,2.8,11.8,7.6,3.8,5.8,8.7,10.7,4.9,4.8,9.7,9.6,2.5,7.2,7.3,12,8.4,1.2,13.3,6.1,3.1,6.5,8,11.4,3.7,6,8.5,10.8,5.1,4.5,9.9,9.4,4.3,5.3,9.1,10.2,3.2,6.5,8,11.3,6.9,2.8,11.7,7.7,6.3,3.4,11.1,8.2,6,3.7,10.8,8.5.2,9.5,5,14.3,6.7,3,11.5,7.9,7.7,2,12.5,6.8,1.5,8.2,6.3,13,3.7,6,8.5,10.8,6,2.9,12.5,4.8c6.9,2,6,.5,13.1-.8s7.2-.5,14.3-1.8,7-1.8,14-3.1,7-1.8,14-3.1,6.6-3.6,13.7-4.9,7.5.8,14.5-.5,6.8-2.6,13.9-4,7-1.6,14.1-2.9,7.7,2.2,14.8.6C391.8,324.5,391.3,323.6,397.5,320.1Z" style="fill:#fff"/><path d="M352.3,253s2.2-4.2,9.1-9.9c3-2.5,7.5-4.6,11.8-7.7,3.4-2.5,8.7-3.2,12.8-6,3.6-2.4,4.9-9.2,9.1-11.8,3.8-2.3,8.7-3.4,12.9-5.7,3.9-2.2,8.1-4.4,12.4-6.5,4.1-2,8.4-3.9,12.8-5.8,4.2-1.8,10.1.5,14.6-1.2,4.3-1.6,8.7-2.7,13.2-4.2s8.1-4.8,12.7-6,9.1-1.5,13.7-2.5,9.3.1,13.9-.6,8.6-4.1,13.3-4.6,9.2-1,13.8-1.2,9.2-3.4,13.9-3.4,9.1,4.1,13.8,4.4,9.7-4.4,14.4-3.9,9.2,2.2,13.8,3,8.4,5.3,13,6.4,9.9-1.6,14.5-.3,7.6,6.9,12,8.3,8.3,3.9,12.7,5.6,8.2,3.8,12.6,5.7c4.2,1.9,9.8.5,14.1,2.6s7,6.4,11.1,8.7,9.5,2,13.5,4.4,5.9,7.9,9.8,10.5,7.9,4.6,11.8,7.3,8,4.5,11.8,7.3,10.3,1.8,14,4.8" style="fill:#fff"/><path d="M731.7,259.4a4.62,4.62,0,0,1-3-1.1,26.86,26.86,0,0,1-5.5-6.6,18.33,18.33,0,0,0-3.5-4.4c-1-.8-3.1-1.2-5.1-1.6a21.19,21.19,0,0,1-8.5-3,28,28,0,0,1-5.8-6.1,24.65,24.65,0,0,0-3.8-4.1,57,57,0,0,0-6.4-3.5c-1.9-1-3.8-1.9-5.7-3.1a31.59,31.59,0,0,1-6.2-5.3,22.68,22.68,0,0,0-4.4-3.8c-1.9-1-3.8-2.2-5.5-3.3a61.49,61.49,0,0,0-6.4-3.7,18,18,0,0,0-5.7-1.1A25.53,25.53,0,0,1,648,207c-3.6-1.6-7.2-3-10.8-4.3l-1.9-.7a28.53,28.53,0,0,0-6.3-1.4,42.68,42.68,0,0,1-7.1-1.5,31.61,31.61,0,0,1-7.1-3.6,25.67,25.67,0,0,0-5.2-2.7,61.94,61.94,0,0,1-6.5-2.2,49.69,49.69,0,0,0-6.5-2.2,57.28,57.28,0,0,1-7-2.3,33.48,33.48,0,0,0-6.1-2c-1.4-.2-3.4.3-5.5.8a25.13,25.13,0,0,1-8.6,1.1,59.33,59.33,0,0,0-7.3-.2c-2,0-4.1.1-6.3,0-3.7-.2-6.7-2.4-9.4-4.3-1.3-.9-3.4-2.4-4.1-2.4s-2.9,1.6-4.2,2.6c-2.6,2-5.6,4.3-9.3,4.5a37.84,37.84,0,0,1-7.5-.5,25.55,25.55,0,0,0-6.2-.4,30.5,30.5,0,0,1-8-.4,19.53,19.53,0,0,0-5.9-.3,23.92,23.92,0,0,0-5.8,2.2,37,37,0,0,1-7.2,2.8,27.57,27.57,0,0,1-8.6.1,20.27,20.27,0,0,0-5.5-.1c-3.2.9-6.4,2-9.6,3l-3.6,1.2a22.28,22.28,0,0,0-5.4,3.1,37.16,37.16,0,0,1-6.7,3.8,27.76,27.76,0,0,0-5.1,3.3,32.57,32.57,0,0,1-6.6,4.3c-2.1.9-4.1,1.6-6.1,2.4a60.14,60.14,0,0,0-6.6,2.6c-3.7,1.8-7.4,3.8-12.1,6.3a31,31,0,0,1-7.9,2.8,25.49,25.49,0,0,0-5.3,1.8,28.88,28.88,0,0,1-8,3.1,19.32,19.32,0,0,0-5.2,2c-1.4.9-2.6,2.8-3.8,4.7a21.59,21.59,0,0,1-5.3,6.4,22.9,22.9,0,0,0-4.6,5.2,32.38,32.38,0,0,1-4.5,5.3,49.74,49.74,0,0,1-13.8,8.3,4.87,4.87,0,0,1-3.2-9.2,39,39,0,0,0,10.8-6.7,20,20,0,0,0,2.9-3.5,32.84,32.84,0,0,1,6.6-7.3,18.19,18.19,0,0,0,2.9-3.8,23.35,23.35,0,0,1,6.6-7.6,24.79,24.79,0,0,1,7.9-3.2,24.93,24.93,0,0,0,5.6-2.1,25.63,25.63,0,0,1,8-2.9,23.15,23.15,0,0,0,5.6-1.9c4.7-2.6,8.7-4.7,12.5-6.5a71.23,71.23,0,0,1,7.6-3.1c1.9-.7,3.7-1.3,5.5-2.1a22.05,22.05,0,0,0,4.5-3,26.07,26.07,0,0,1,7.6-4.7,28.67,28.67,0,0,0,4.8-2.8,29.43,29.43,0,0,1,7.8-4.2c1.2-.4,2.3-.8,3.5-1.2,3.3-1.1,6.7-2.2,10.1-3.2a23.24,23.24,0,0,1,9.1-.2,20.27,20.27,0,0,0,5.5.1,28.46,28.46,0,0,0,5.1-2,30,30,0,0,1,8.4-3,28.87,28.87,0,0,1,8.8.2,27.26,27.26,0,0,0,5.7.3,34.65,34.65,0,0,1,8.5.4,27.35,27.35,0,0,0,5.7.4c.8,0,2.8-1.6,4-2.5,2.8-2.1,6-4.6,10-4.6s7,2.2,9.8,4.2c1.4,1,3.4,2.4,4.3,2.5a50.44,50.44,0,0,0,5.5,0,82.3,82.3,0,0,1,8.6.2,17.53,17.53,0,0,0,5.1-.8c2.8-.7,6.1-1.5,9.5-1a38,38,0,0,1,8.1,2.5,36.92,36.92,0,0,0,5.6,1.9,52.19,52.19,0,0,1,7.9,2.6c1.9.7,3.7,1.4,5.6,1.9a30.69,30.69,0,0,1,7.7,3.8,19.86,19.86,0,0,0,5,2.6,33.48,33.48,0,0,0,5.5,1.1,39.92,39.92,0,0,1,8.3,1.9l1.9.7c3.6,1.4,7.4,2.8,11.2,4.5a15.81,15.81,0,0,0,5.2.9,25.57,25.57,0,0,1,9,2,64.42,64.42,0,0,1,7.2,4.2c1.7,1.1,3.4,2.1,5,3a29.34,29.34,0,0,1,6.7,5.5,30.79,30.79,0,0,0,4.3,3.8q2.4,1.35,5.1,2.7a74.28,74.28,0,0,1,7.3,4,26.07,26.07,0,0,1,6.2,6.2,24.65,24.65,0,0,0,3.8,4.1,15.1,15.1,0,0,0,4.8,1.5c2.9.6,6.2,1.2,9.1,3.4a26,26,0,0,1,5.7,6.7,18.33,18.33,0,0,0,3.5,4.4,5.32,5.32,0,0,1-3.1,9.1Z" style="fill:#1a1a1a"/><path d="M0,87.8V92A4,4,0,0,0,0,87.8Z" style="fill:#1a1a1a"/><polygon points="82.8 163.5 38.9 91.1 0 92.3 0 187.5 38.9 192 82.8 163.5" style="fill:#fff"/><path d="M770,315.4c1,.6,1.9,1.2,2.8,1.8C771.9,316.6,771,316,770,315.4Z" style="fill:#cddc4c"/><path d="M791,328.8c1,.6,2,1.3,3.1,1.9C793,330.1,792,329.4,791,328.8Z" style="fill:#cddc4c"/><path d="M772.9,317.2l.6.4Z" style="fill:#cddc4c"/><path d="M766.2,313l1.2.8Z" style="fill:#cddc4c"/><path d="M767.3,313.7c.8.5,1.6,1.1,2.5,1.6C768.9,314.8,768.1,314.2,767.3,313.7Z" style="fill:#cddc4c"/><path d="M787.6,326.6l.6.4A2.09,2.09,0,0,0,787.6,326.6Z" style="fill:#cddc4c"/><path d="M764.2,311.7c.7.4,1.3.8,1.9,1.2Z" style="fill:#cddc4c"/><path d="M788.2,327l2.8,1.8Z" style="fill:#cddc4c"/><path d="M783.3,323.9c1.5.9,2.9,1.9,4.3,2.8C786.1,325.7,784.7,324.8,783.3,323.9Z" style="fill:#cddc4c"/><path d="M779.8,321.6c1.1.7,2.3,1.4,3.5,2.2Z" style="fill:#cddc4c"/><path d="M773.5,317.6c2.2,1.4,4.3,2.8,6.3,4.1C777.6,320.2,775.5,318.9,773.5,317.6Z" style="fill:#cddc4c"/><path d="M769.8,315.3l.2.1Z" style="fill:#cddc4c"/><path d="M758.5,308.1l5.1,3.2Z" style="fill:#cddc4c"/><path d="M755.2,306l.7.5Z" style="fill:#cddc4c"/><path d="M755.9,306.5l.5.3Z" style="fill:#cddc4c"/><path d="M754.9,305.8l.3.2Z" style="fill:#cddc4c"/><path d="M757.6,307.6l.9.5A4.05,4.05,0,0,0,757.6,307.6Z" style="fill:#cddc4c"/><path d="M756.4,306.8l.3.2Z" style="fill:#cddc4c"/><path d="M757.4,307.4l.3.2Z" style="fill:#cddc4c"/><path d="M756.7,307l.6.4Z" style="fill:#cddc4c"/><path d="M763.6,311.3l.6.4Z" style="fill:#cddc4c"/><path d="M825.7,350.8l.5.3A.91.91,0,0,1,825.7,350.8Z" style="fill:#cddc4c"/><path d="M823.8,349.6l2,1.3Z" style="fill:#cddc4c"/><path d="M794,330.6l3,1.9A24.9,24.9,0,0,1,794,330.6Z" style="fill:#cddc4c"/><path d="M822,348.4l.9.6Z" style="fill:#cddc4c"/><path d="M822.9,349l.9.6Z" style="fill:#cddc4c"/><path d="M819.9,347.2l2.1,1.3Z" style="fill:#cddc4c"/><path d="M750.9,305.7c-4-2.5-6.2-1.6-10.1-4s-5.6-8.8-9.6-11.2-8-4.9-12-7.2-9-3.2-13-5.4-6.7-7.5-10.7-9.7c-4.2-2.2-8.1-5-12.2-7.1-4.3-2.1-9.7-1.8-13.8-3.8-4.3-2-9.7-1.4-13.9-3.2-4.4-1.9-6.5-9-10.7-10.7-4.4-1.8-9.7-1.2-14-2.8-4.5-1.7-9.1-2.6-13.4-4.1-4.5-1.5-10.3,1.5-14.7.2-4.6-1.4-8.5-4-13-5.1-4.7-1.2-8.8-3.8-13.2-4.6-4.7-1-9-3.4-13.5-4.1-4.8-.7-9.1-4.5-13.7-4.9-4.8-.4-9.7-.2-14.2-.3-4.8-.1-9.7.8-14.2,1-4.8.2-9.4,2.8-13.9,3.4-4.8.6-9.4,1.2-13.9,2.1-4.7,1-9.5,1.4-13.8,2.6-4.6,1.4-8.3,5-12.5,6.6-4.4,1.7-8.2,4.5-12.3,6.5s-9.6,2-13.6,4.2-8.4,4.4-12.3,6.8-8,5-11.8,7.5-5.8,8.1-9.6,10.8-7.2,6.2-10.9,8.9c-3.9,2.7-9.7,2.6-13.5,5.1-4,2.6-6.8,7.3-10.8,9.5-4.2,2.3-7.4,5.5-11.7,7.2-5.6,3.5-10.3-3.4-15.6.5s-.8,10.1-6.2,14-9-1.2-14.4,2.7-4.3,5.3-9.6,9.2-4.1,5.6-9.5,9.4-15.5,1.8-13,7.9c2.7,6.5,8.8,1.4,15.8,1.5s7.1-5.7,14.1-5.6,6.9,5.2,14,5.4,7.1-3.3,14.1-3.2,6.9,5.6,14,5.7,7,.6,14,.7l14,.2c7,.1,7.1-6.7,14.1-6.6s7,3,14,3.1,7.1-2.6,14.1-2.5,6.9,6.3,13.9,6.4,7,.2,14,.3,7.1-4.6,14.1-4.5,6.9,5.6,14,5.7,7-2.4,14.1-2.3,7,2.1,14,2.2,7.1-6.6,14.1-6.5,7,1.4,14,1.5,6.9,6,13.9,6.1,7-.4,14-.3,7.1-3.7,14.1-3.6,7,4.2,14,4.4,7.1-4.8,14.1-4.7,7-2,14-1.9,7,1.7,14,1.8,7.1-3,14.1-2.9,7,3.8,14,3.9,7,3.3,14,3.4,7.1-4.2,14.1-4.1,7,3.3,14,3.4,7,1.6,14,1.7,8.5,1.2,14-3.1c5.9-4.6,3.4-6.8,5.4-14s3.2-7.1,4.7-14.4C754.2,313.5,750.9,313.2,750.9,305.7Z" style="fill:#cddc4c"/><path d="M827.2,351.8l.5.3Z" style="fill:#cddc4c"/><path d="M826.2,351.2l1,.6Z" style="fill:#cddc4c"/><path d="M801.5,335.4l.6.4A2.09,2.09,0,0,1,801.5,335.4Z" style="fill:#cddc4c"/><path d="M804.1,337l2.2,1.4A16.44,16.44,0,0,1,804.1,337Z" style="fill:#cddc4c"/><path d="M802.1,335.8,804,337Z" style="fill:#cddc4c"/><path d="M797,332.6c1,.6,2,1.2,3,1.9C799,333.8,798,333.2,797,332.6Z" style="fill:#cddc4c"/><path d="M800,334.5l1.5,1Z" style="fill:#cddc4c"/><path d="M807.2,339c.5.3.9.6,1.4.9Z" style="fill:#cddc4c"/><path d="M814.3,343.6c.9.6,1.7,1.1,2.5,1.6Z" style="fill:#cddc4c"/><path d="M816.9,345.2c.5.3,1,.6,1.4.9Z" style="fill:#cddc4c"/><path d="M818.3,346.1l1.6,1Z" style="fill:#cddc4c"/><path d="M808.6,340c2.1,1.3,4.1,2.5,5.8,3.6C812.6,342.4,810.6,341.3,808.6,340Z" style="fill:#cddc4c"/><path d="M806.3,338.5l.9.6Z" style="fill:#cddc4c"/><path d="M463.9,256.1c-4.8-1.4-13.3-1.6-18-2-5-.4-9.7.7-14.5,1.2s-9.8.4-14.4,1.6-10.1,1.3-14.5,3.2c-4.6,2-6.8,8.5-10.9,10.8-4.5,2.5-11.6.4-15.3,3.1-4.4,3.1-9.2,5.5-12.5,8.2-6.8,5.8-1.2,10.3-8.5,11.1-6.8.8-5.4,1-12.5-3.9-3.2-2.2-3.9-9.6-8.3-12.3-3.6-2.2-10.3.4-14.7-1.9-3.8-2-8.4-2.7-12.7-4.8-4-1.9-5.1-10.6-9.5-12.4-4.1-1.7-11,3.8-15.4,2.3-4.2-1.4-7.4-6.1-11.9-7.4-4.3-1.2-8-5.4-12.6-6.4s-8.8-3.2-13.4-3.9-9.5,2.1-14.1,1.8-6.8-2.4-11.4-2.4c-5.1-4.6-3-2.6-5.4-10.7-1.1-3.7-6.8-6.6-8.6-11.5-1.4-4,.1-9.3-1.8-13.8-1.7-4-.7-9.5-2.8-13.8-2-4-4.2-8.1-6.6-12.1-2.2-3.9-3.9-8.4-6.6-12.2s-7.9-5.6-10.8-9.1-7.9-4.9-11.2-8.2c-3.2-3.1-6.5-6-10-8.8s-4.6-8.8-8.5-11.3-9.1-2.2-13.2-4.2-7-6.6-11.3-8.1-8.2-5.1-12.7-6.1c-4.3-1-10.1,6.2-14.7,5.7-4.4-.5-8.4-8.3-13.1-8.3-4.4,0-9.1,1.3-13.8,1.7-4.4.4-8.3,5.5-12.9,6.3-4.3.8-9.1-.4-13.7.8-4.3,1.1-9,1-13.5,2.4-4.2,1.3-9.6.1-14,1.8-4.2,1.6-8.6,7.4-13,9.3,1.7,6.1,4.3,5.5,8.1,10.5s6.5,2.8,10.7,7.5c4.7,5.3,4.3,5.5,9.4,10.4s2.9,7.1,8,12.1,5.8,4.2,10.8,9.2,2.6,7.5,7.6,12.5,8.7,1.3,13.8,6.2,2.5,7.6,7.5,12.6,7.8,2.2,12.8,7.1,6,4,11.1,8.9,4.1,5.9,9.2,10.9,3,7.1,8,12.1,9.3.6,14.4,5.6,3.8,6.2,8.9,11.2,5.1,4.9,10.2,9.9,5,5,10,10,1.4,8.7,6.4,13.7,4.6,5.4,9.7,10.3,6.9,3.1,11.9,8.1,4.4,5.7,9.4,10.6,3.4,6.7,8.4,11.6,6.2,5.2,12.8,7.7,7.4-.4,14.3-.7,6.8-3.9,13.8-4.2,7.2,4.5,14.2,4.2,6.7-6.4,13.7-6.7,7,1,14,.7,7.2,4.2,14.1,3.9,6.8-4.9,13.8-5.2,7.2,5.1,14.2,4.8,7,.9,14,.6,7,.3,14,0,6.8-4.6,13.8-4.9,7.1,2.8,14.1,2.5,6.8-3.8,13.8-4.1,7.1,4.1,14.1,3.8,7-.9,13.9-1.2,9.9,2.2,15.2-2.3-3.7-9.3-2.3-16.2,4.4-6.3,5.8-13.3,4.5-6.3,6-13.3-1.8-7.6-.4-14.5.3-7.5,3.4-13.9C460.7,263,464.9,263.1,463.9,256.1Z" style="fill:#cddc4c"/><polygon points="402 344.7 33.2 143.7 0 139.5 0 364.8 337.4 364.8 402 344.7" style="fill:#cddc4c"/><path d="M735,249c7.3-1,7-2,13.7-5s6.1-4.3,12.8-7.4,7.2-2,13.8-5.1,6.9-2.5,13.6-5.6,6.3-3.9,13-7,7-2.4,13.7-5.4,6.6-3.3,13.2-6.4,6.8-2.8,12.9-7c-4.7.2-9,.5-13.3,1-4.7.5-9.3.6-13.6,1.3-4.7.8-8.8,3.3-13,4.4-4.7,1.1-9.2,1.5-13.3,2.9-4.6,1.6-8.8,3.2-12.7,4.9-4.4,2-7.9,5.1-11.5,7.3-4.3,2.6-8.4,4.6-11.5,7.1a72.56,72.56,0,0,0-9.6,9.6C737.4,245.1,728.2,249.8,735,249Z" style="fill:#fff"/><path d="M844.4,200.4c.5-.2.1-.4.2-1.2a5.67,5.67,0,0,0-2.7,1.3Z" style="fill:#fff"/><path d="M845.3,201.4c6.5-2,4.7-6.8,10.9-9.6s6.9-1.3,13.1-4.1,6.1-3,12.3-5.9,6.1-3.1,12.2-6,7.5,0,13.7-2.9,5.5-4.2,11.7-7.1,6.2-2.7,12.4-5.6,6.5-2.2,12.7-5.1,5-5.4,11.2-8.2,5.9-3.5,12.1-6.4,7-1.2,13.2-4,7.1-.8,13.3-3.6,5.5-4.2,11.7-7.1,6.7-1.6,12.9-4.5,6-3.3,12.2-6.1,5.5-4.4,11.7-7.3,6.3-2.6,12.5-5.4,6.4-2.4,12.6-5.3,5.2-4.9,11.3-7.9a9.15,9.15,0,0,1,0,3.3c-4.3-2.1-7.1-6.7-11.3-8.5-4.4-1.9-8.5-4.3-12.8-5.9-4.5-1.7-9.6-1.2-14-2.5-4.6-1.4-9.4-1.1-13.8-2.2-4.7-1.1-8.6-5.3-13-6-4.8-.8-9.5-1.2-14-1.6-4.8-.4-9.6-1.3-14.1-1.3-4.8,0-9.6,1.1-14.1,1.6-4.8.5-9,3.4-13.5,4.3-4.7,1-9.4,1.2-13.7,2.7-4.5,1.5-8,5-12.1,6.9s-9.3,2.4-13.2,4.8-8.8,3.9-12.5,6.8-5.6,7.9-9,11.1-7.8,5.5-10.8,9-5,8-7.7,11.7-6.8,6.8-9.2,10.7c-2.5,4.1-2.6,9.4-4.7,13.4-2.3,4.3-6.9,7.2-8.7,11.3-2,4.5-2.2,9.6-3.8,13.6-1.9,4.9-3.3,9.4-4.5,13.2A129,129,0,0,0,845.3,201.4Z" style="fill:#fff"/><path d="M1070.3,79c-4.4-1.9-8.9-3.8-13.3-5.4a24.59,24.59,0,0,0-9.3-1.2,19,19,0,0,1-5.3-.4,31.55,31.55,0,0,1-5.2-2.6,30.25,30.25,0,0,0-8-3.6c-1.5-.3-2.9-.7-4.3-1.1-3.2-.8-6.5-1.7-9.8-2.2-3.5-.6-6.8.2-9.7.9a21.71,21.71,0,0,1-5.1.8,83.42,83.42,0,0,0-10-.1c-1.4,0-2.9.1-4.3.1h0a15.18,15.18,0,0,1-5.1-1.6c-2.8-1.2-6.1-2.6-9.7-2.2a123.85,123.85,0,0,0-14.7,2.1,61.22,61.22,0,0,0-9.4,3.2c-1.6.7-3.1,1.3-4.6,1.8a74.61,74.61,0,0,0-10.4,4.6l-3,1.5c-1.4.7-3,1.3-4.6,2a55.15,55.15,0,0,0-8.8,4.3c-3.3,2-4.9,5.3-6.4,8.2a17,17,0,0,1-2.7,4.2,21.55,21.55,0,0,1-4.8,2.4,23.57,23.57,0,0,0-8.1,4.7,38.29,38.29,0,0,0-5.4,7.3,35.21,35.21,0,0,1-3,4.5,30,30,0,0,1-4.2,3.8,33.65,33.65,0,0,0-6.3,6.2,60.63,60.63,0,0,0-4.5,7.8c-.9,1.7-1.7,3.3-2.6,4.7a59.13,59.13,0,0,0-3.9,8,46.84,46.84,0,0,1-2.2,5c-.6,1.1-2.4,2.3-4.1,3.5-2.6,1.8-5.5,3.8-7,7.1a70.76,70.76,0,0,0-3.1,8.8,49.19,49.19,0,0,1-1.6,5c-1.5,4-.6,8.1.1,11.4a26.29,26.29,0,0,1,.6,3.9c-1.2,3.8-1.5,4-2.7,4.7a27.14,27.14,0,0,0-3.5,2.4,16.09,16.09,0,0,0-7.2,4.1,10.15,10.15,0,0,1-2.7,1.9,58.05,58.05,0,0,1-5.9,0,45,45,0,0,0-8.2.2,53.21,53.21,0,0,1-5.6.6,79,79,0,0,0-8.5,1.1,28.56,28.56,0,0,1-5.8.6,30.1,30.1,0,0,0-8.5,1.2,109.65,109.65,0,0,0-11.2,4.6l-2.2,1a26.17,26.17,0,0,0-7.9,6.1,17.29,17.29,0,0,1-3.5,3.1,102.89,102.89,0,0,0-11.8,8.1,31.82,31.82,0,0,1-5.3,3.1c-2.6,1.3-5.3,2.6-7.3,4.8-4.2,4.8-4.7,7.5-4.8,10.6a7.79,7.79,0,0,1-.9,3.7,4.87,4.87,0,0,0,2.4,6.4,4.48,4.48,0,0,0,2,.4,4.79,4.79,0,0,0,4.4-2.9,17,17,0,0,0,1.7-7.3c0-1.3.1-1.9,2.4-4.6a17,17,0,0,1,4.3-2.6,32.69,32.69,0,0,0,7.2-4.3,87.72,87.72,0,0,1,10.7-7.3,26.82,26.82,0,0,0,5.4-4.7,19.94,19.94,0,0,1,5-4.1l2.2-1a91,91,0,0,1,10.2-4.2,24.58,24.58,0,0,1,6-.7,32.25,32.25,0,0,0,7.6-.9,41.78,41.78,0,0,1,7.1-.9c2-.2,4.1-.4,6.2-.7a34.22,34.22,0,0,1,6.4-.1,56.08,56.08,0,0,0,7.1-.1c3.7-.3,6.2-2.5,8.1-4.2,1.4-1.2,2.4-2,3.1-2a4.77,4.77,0,0,0,3.1-1.2,14.43,14.43,0,0,1,3.2-2.3c3.4-2,5-3.9,7-10.2.9-3,.3-5.9-.3-8.8-.5-2.3-1-4.6-.5-6a52.22,52.22,0,0,0,1.8-5.6,54.13,54.13,0,0,1,2.7-7.7c.4-.8,2.3-2.1,3.7-3.1,2.6-1.8,5.5-3.8,7.2-7a62.08,62.08,0,0,0,2.6-5.9,39.73,39.73,0,0,1,3.1-6.6c1.1-1.8,2-3.6,2.9-5.4a43.39,43.39,0,0,1,3.8-6.6,23.85,23.85,0,0,1,4.6-4.4,50.77,50.77,0,0,0,5.4-5,39.73,39.73,0,0,0,4-5.8,26.58,26.58,0,0,1,3.9-5.4,15.61,15.61,0,0,1,5.1-2.7,28.63,28.63,0,0,0,7.1-3.8c2.5-2,4-4.8,5.3-7.3,1-1.8,2-3.8,3-4.4a45.24,45.24,0,0,1,7.4-3.5c1.6-.7,3.3-1.4,5-2.2,1-.5,2.1-1,3.2-1.6a83.35,83.35,0,0,1,9.2-4.1c1.8-.6,3.5-1.3,5.2-2a51.3,51.3,0,0,1,7.8-2.7,125.37,125.37,0,0,1,13.7-1.9c1.1-.1,3,.7,4.9,1.5a21.06,21.06,0,0,0,8.7,2.3c1.5,0,3.1,0,4.6-.1a66.1,66.1,0,0,1,8.9.1,24.69,24.69,0,0,0,8.1-1c2.2-.5,4.3-1,5.9-.7a88.56,88.56,0,0,1,9,2.1l4.5,1.2a20.1,20.1,0,0,1,5.3,2.6,37.74,37.74,0,0,0,7.3,3.5,27.62,27.62,0,0,0,8.1.9,20.41,20.41,0,0,1,6,.6c4.2,1.5,8.4,3.3,12.9,5.3,3.3,1.4,6.6,3,10.2,4.7l2.5,1.2c.3.1.5.2.8.3V83.4C1076.8,81.9,1073.5,80.3,1070.3,79Z" style="fill:#1a1a1a"/><polygon points="1036.8 91.1 992.8 163.5 1036.8 192 1080 187 1080 94.1 1074 91.3 1036.8 91.1" style="fill:#fff"/><path d="M861.4,247.5c-4.6-.4-11.5-1.4-15.9-1.5-4.7,0-9.3-4.4-13.7-4.1-4.6.4-9.4.5-13.8,1.2s-9.3,1.5-13.6,2.7-7.1,7.7-11.3,9.3-10.7-1.5-14.7.5-5.1,9.5-8.9,11.9-9.5,2.1-13.1,4.8-4,9.2-7.4,12.2-9,3.6-12.1,6.8-4.9,7.8-7.7,11.2c-3,3.6-6.4,6.6-9,10.1-2.8,3.8-8.8,5.3-11.1,9-2.6,4.1-.4,10.7-2.4,14.4-2.5,4.5-5,8.2-6.6,11.7-3.6,7.7-7.8,9.8-7.8,9.8,6-3.4,8.6,1.2,14.7-2.2s3.5-7.9,9.5-11.3,8.8,1.5,14.8-1.9,3.4-8,9.5-11.4,5.4-4.5,11.4-7.9,7.2-1.3,13.2-4.7,6.7-2.1,12.8-5.5,4.7-5.8,10.7-9.2,8.8,1.5,14.8-1.9,4.5-6.1,10.6-9.5,4.5-6.2,10.5-9.6,7.3-1.1,13.3-4.5,7.2-1.4,13.2-4.8,4-7,10-10.4,8,.1,14-3.2,5.5-4.3,11.6-7.7,5.2-5,11.2-8.3,6.6-2.4,12.6-5.8,4.4-6.4,10.4-9.8,6.6-2.4,12.6-5.8,5.4-4.6,11.4-8,9.5,2.8,15.6-.6,5.2-4.8,11.3-8.2,4.8-5.6,10.8-9,4.7-5.9,10.7-9.2,6.5-2.5,12.6-5.9,7.6-.6,13.7-3.9,3.9-7.2,10-10.6,7.1-1.5,13.1-4.9,7.1-1.5,13.1-4.9,5-5.3,11-8.7,6.1-2.3,10.9-7.2c2-2,2-.5.6-2.9-4.3-2-6.4-6.5-10.6-8.2-4.4-1.8-8.6-4-12.9-5.5-4.5-1.5-9.7-.7-14-1.9-4.6-1.3-8.8-3.8-13.2-4.7-4.7-1-9.2-3.3-13.6-3.8-4.7-.6-9.7-.3-14.1-.4-4.8-.2-9.2,6-13.7,6.3-4.8.3-9.2-.3-13.6.5-4.7.8-10.4-3.1-14.7-1.8-4.5,1.4-8.2,5.2-12.4,7s-7.2,6.1-11.2,8.4a124.47,124.47,0,0,0-11.4,7.5c-3.7,2.8-10.6,2-13.9,5.1s-2.2,10.8-5.3,14.2-7.4,5.8-10.1,9.4-4.3,8.2-6.7,12c-2.5,4-6.5,7-8.6,10.9-2.3,4.2-5.7,7.8-7.5,11.8-2,4.5.1,10.4-1.4,14.4-1.9,4.9-8.9,7.4-10.1,11.1C857.2,238.6,866.7,243.1,861.4,247.5Z" style="fill:#cddc4c"/><polygon points="1080 137.9 1036.2 142.1 678.6 364.8 1080 364.8 1080 137.9" style="fill:#cddc4c"/><ellipse cx="1033.95" cy="297.82" rx="13.2" ry="7.5" transform="translate(173.15 943.39) rotate(-52.94)" style="fill:#7ebc25"/><ellipse cx="959.95" cy="192.79" rx="11.7" ry="21.2" transform="translate(-12.82 81.52) rotate(-4.83)" style="fill:#7ebc25"/><ellipse cx="643.38" cy="319.91" rx="15.6" ry="8.9" transform="translate(-48.61 126.45) rotate(-10.82)" style="fill:#7ebc25"/><ellipse cx="546.87" cy="290.31" rx="7" ry="12.3" transform="matrix(0.99, -0.17, 0.17, 0.99, -41.63, 97.91)" style="fill:#7ebc25"/><ellipse cx="256.5" cy="311.12" rx="8.9" ry="15.6" transform="translate(-98.74 120.34) rotate(-22.26)" style="fill:#7ebc25"/><ellipse cx="820.04" cy="311.08" rx="15.6" ry="8.9" transform="translate(-44.42 162.96) rotate(-11.05)" style="fill:#7ebc25"/><ellipse cx="1044.97" cy="202.45" rx="8.9" ry="15.6" transform="translate(294.51 957.27) rotate(-56.13)" style="fill:#7ebc25"/><ellipse cx="468.79" cy="311.13" rx="15.6" ry="8.9" transform="translate(-82.69 422.61) rotate(-45)" style="fill:#7ebc25"/><ellipse cx="45.29" cy="188.7" rx="9.3" ry="16.9" transform="translate(-56.18 23.28) rotate(-18.03)" style="fill:#7ebc25"/><ellipse cx="136.39" cy="195.8" rx="21.2" ry="11.7" transform="translate(-60.83 61.47) rotate(-20.88)" style="fill:#7ebc25"/><path d="M355.6,254a26.16,26.16,0,0,1-2.4-3.4c-1.4-2.2-2.3-3.5-7.1-7.5a26.93,26.93,0,0,1-2.7-3.2,31.24,31.24,0,0,0-7-7.5c-2.6-1.8-5.8-2.3-8.6-2.6a19.33,19.33,0,0,1-5.5-1.3,17.77,17.77,0,0,1-3.5-3.2,27,27,0,0,0-7.3-6.1c-3-1.5-6.2-1.5-9-1.5a16.73,16.73,0,0,1-5.3-.5,32.34,32.34,0,0,1-4.4-2.7,35.47,35.47,0,0,0-7.6-4.3,24.49,24.49,0,0,0-8.5-1,20.42,20.42,0,0,1-5.5-.4c-.7-.2-2.1-2.1-3-3.1-2.1-2.5-4.6-5.7-8.5-6.7a41.76,41.76,0,0,0-7.9-1.1,38.09,38.09,0,0,1-5.9-.8,51.58,51.58,0,0,0-7.9-.8c-1,0-2-.1-2.9-.1-.7-2.4-1.7-6-3.1-10.6a16.44,16.44,0,0,1-.2-4.4,27.3,27.3,0,0,0-1.2-10.3c-1.2-3.1-3.6-5.3-5.8-7.3-1.6-1.4-3.2-2.9-3.8-4.3a13.4,13.4,0,0,1-.4-4.9c0-3.2,0-6.8-1.8-10.1-1.8-3.5-5.4-5.1-8.6-6.6-1.6-.7-3.9-1.8-4.4-2.6s-.5-3-.6-4.7c-.1-3.4-.2-7.2-2.5-10.5a27.68,27.68,0,0,0-6.7-6.1,38.33,38.33,0,0,1-4.4-3.6,139.51,139.51,0,0,0-10.1-10.4c-3.3-3.1-6.9-6.1-10.5-8.9l-.6-.4a38.44,38.44,0,0,0-7.9-4.5,36.24,36.24,0,0,1-4.8-2.5,17.64,17.64,0,0,1-3.5-3.7c-1.9-2.4-4.1-5.1-7.4-6.7l-1.6-.8a106,106,0,0,0-12-5.2c-1.4-.5-2.8-1-4.3-1.6a66,66,0,0,0-9.8-3.2,26.42,26.42,0,0,0-9.3.1,27.26,27.26,0,0,1-5.7.3A19.56,19.56,0,0,1,99.3,61c-2.8-1.3-6-2.7-9.6-2.7h0c-4,0-7.1,2.5-9.9,4.7-1.3,1.1-3.4,2.7-4.3,2.8s-2.9-.9-4.4-1.6c-3-1.4-6.7-3.2-10.7-2.5l-3.4.4c-3.5.6-7.2,1.1-10.9,2-3.2.8-6.5,1.9-9.8,2.9-1.4.4-2.8.9-4.2,1.3-4.8,1.5-9.4,3-13.7,4.6-3.5,1.3-5.7,4.1-7.7,6.7-1.2,1.6-2.6,3.3-3.6,3.8-1.7.7-3.4,1.3-5.3,2L0,86V96.3c1.6-.7,3.2-1.2,5-1.8,2-.7,4-1.4,6-2.2,3.4-1.4,5.5-4.2,7.5-6.7,1.1-1.4,2.5-3.2,3.4-3.5,4.2-1.6,8.6-3,13.2-4.5,1.4-.4,2.9-.9,4.3-1.4,3.2-1,6.2-2,9-2.7,3.3-.8,6.8-1.3,10.1-1.9l3.6-.6c1-.2,3.2.9,4.9,1.7,2.8,1.3,5.9,2.8,9.4,2.5,3.8-.3,6.8-2.7,9.5-4.8,1.2-.9,3.2-2.5,3.9-2.6,1.6,0,3.6.9,5.7,1.9a27.33,27.33,0,0,0,7.8,2.5,30,30,0,0,0,7.9-.4,20.86,20.86,0,0,1,6.1-.3,50.67,50.67,0,0,1,8.3,2.8c1.6.6,3.1,1.2,4.8,1.8a105.94,105.94,0,0,1,10.9,4.8l1.6.8c1.3.6,2.6,2.3,4.1,4a23.24,23.24,0,0,0,5.9,5.8,54.35,54.35,0,0,0,5.9,3,35.06,35.06,0,0,1,6,3.3l.6.4c3.5,2.8,6.8,5.3,9.8,8.2a120.15,120.15,0,0,1,9.4,9.8,32.42,32.42,0,0,0,6,5.1,22.06,22.06,0,0,1,4.6,4c.6.8.7,3.2.7,5.1.1,3.1.2,6.5,2,9.5,2,3.3,5.5,4.9,8.6,6.3,1.4.6,3.7,1.7,4.1,2.3.6,1.2.6,3.5.7,5.6,0,2.8,0,5.9,1.3,8.8,1.4,3.2,3.9,5.5,6.1,7.5A14.7,14.7,0,0,1,222,174a17.84,17.84,0,0,1,.6,6.7,21.06,21.06,0,0,0,.7,7.5c2.5,8.1,3.8,13.2,3.8,13.3a4.82,4.82,0,0,0,3.9,3.6,44,44,0,0,0,7.3.6,43.18,43.18,0,0,1,6.2.5,43.1,43.1,0,0,0,7.1.9,34.17,34.17,0,0,1,6.3.9c.8.2,2.4,2.2,3.4,3.5,2,2.4,4.2,5.2,7.6,6.3a29.66,29.66,0,0,0,8.4.9,17.32,17.32,0,0,1,5.1.4,23.26,23.26,0,0,1,5.5,3.2,36.68,36.68,0,0,0,6,3.6c3.1,1.3,6.3,1.3,9.2,1.3a15.42,15.42,0,0,1,4.7.4,17.25,17.25,0,0,1,4.5,4,26.74,26.74,0,0,0,5.6,5c3,1.8,6.2,2.2,9.1,2.6,1.6.2,3.7.5,4.4,1a25.74,25.74,0,0,1,4.7,5.2,27.92,27.92,0,0,0,4.2,4.9c3.9,3.3,4.3,4,5.2,5.4s1.9,2.8,3,4.2a4.79,4.79,0,0,0,6.8.7,5.25,5.25,0,0,0,.3-6.6Z" style="fill:#1a1a1a"/><path d="M632.7,183.4s-5.7-21.9,18.6-25.1c0,0,18-2.3,17.5,15.4,0,0,17.4-7.8,20.1,12.6,0,0,4.4,21.6-16.9,21.4,0,0,16.2,1.8,16.5,18,0,0,1.3,21.8-20.2,15.5,0,0-4.2,19.6-25,9.3,0,0-12.3-6.3-7.8-21.6,0,0-12.9,17.4-30,5.9,0,0-17.4-12.4-.1-26,0,0-13.9-9.2-3.1-24C602.1,184.9,612.8,168.7,632.7,183.4Z" style="fill:#7ebc25"/><path d="M654.2,257a29.27,29.27,0,0,1-12.6-3.4A20.75,20.75,0,0,1,631,237.8c-6.8,4.6-16.8,7.2-27.7,0l-.1-.1c-.4-.3-9-6.6-9.3-15.8-.1-4.6,1.9-9,5.8-13.1a19.26,19.26,0,0,1-5.1-9.9c-1-5.3.5-10.8,4.5-16.2a22.6,22.6,0,0,1,13.9-8.8,24.22,24.22,0,0,1,15.5,2.7,23.14,23.14,0,0,1,3.7-11.9c3.7-5.5,10-8.9,18.5-10,.4,0,9.8-1.2,16.2,4.5a15.92,15.92,0,0,1,5.1,9.7,17.51,17.51,0,0,1,11.7,1.5c4.7,2.6,7.6,7.7,8.6,15.1.3,1.4,1.9,11.8-4,19a15.56,15.56,0,0,1-4.8,4c4.5,3.3,8.2,8.7,8.4,16.9.1,1.1.3,11.5-6.6,17-3.8,3-8.7,3.9-14.8,2.8a19.14,19.14,0,0,1-9,10A13.22,13.22,0,0,1,654.2,257Zm-18.8-31.6a3.48,3.48,0,0,1,3.5,3.5,3.4,3.4,0,0,1-.1,1c-3.6,12.3,5.6,17.2,6,17.4,5.6,2.8,10.2,3.4,13.7,1.7,4.8-2.3,6.2-8.5,6.3-8.6a3.54,3.54,0,0,1,4.2-2.7.37.37,0,0,1,.3.1c5.2,1.5,9.2,1.3,11.7-.7,3.6-2.8,4.1-9,3.9-11.2v-.1c-.2-12.6-12-14.4-13.3-14.6a3.59,3.59,0,0,1-3.2-3.9,3.66,3.66,0,0,1,3.6-3.2c5,.1,8.7-1.3,10.9-3.9,4-4.9,2.5-13.1,2.5-13.2v-.2q-1.05-7.65-5.1-9.9c-4.2-2.4-10,.1-10.1.1a3.55,3.55,0,0,1-4.7-1.8,4.15,4.15,0,0,1-.3-1.6q.15-6-3-9c-3.9-3.5-10.5-2.8-10.5-2.8-6.4.8-11,3.2-13.5,7-4,5.9-2.1,13.6-2.1,13.7a3.49,3.49,0,0,1-2.5,4.3,3.25,3.25,0,0,1-3-.6c-5.9-4.4-11.4-6.1-16.2-5.2a15.08,15.08,0,0,0-9.3,5.9l-.1.1q-4.2,5.7-3.3,10.8c.9,5,5.4,8.1,5.4,8.2a3.55,3.55,0,0,1,1,4.9,3,3,0,0,1-.8.8c-4.2,3.3-6.3,6.7-6.3,10.1.1,5.5,5.8,9.8,6.3,10.2,14.2,9.4,24.7-4.6,25.2-5.1a3.51,3.51,0,0,1,2.9-1.5Z" style="fill:#1a1a1a"/><path d="M639.1,209.4h0l-21.5-.8a2.63,2.63,0,0,1-2.6-2.8h0a2.69,2.69,0,0,1,2.8-2.6l21.4.7a2.78,2.78,0,0,1,2.7,2.8,2.84,2.84,0,0,1-2.8,2.7Z" style="fill:#3e7c18"/><path d="M651.8,203.9a2.3,2.3,0,0,1-1.4-.4,2.66,2.66,0,0,1-.9-3.7l9.7-15.6a2.69,2.69,0,0,1,4.6,2.8l-9.7,15.6A2.77,2.77,0,0,1,651.8,203.9Z" style="fill:#3e7c18"/><path d="M661,230.9a2.51,2.51,0,0,1-2.2-1.2l-8-11.8a2.73,2.73,0,0,1,4.5-3.1l8,11.8a2.84,2.84,0,0,1-.7,3.8A3,3,0,0,1,661,230.9Z" style="fill:#3e7c18"/><path d="M1050.8,81.6c.9-11.3-18-10.6-28.4-13.3,0-.2,9.7-10.2,9.7-10.3a25,25,0,0,0-25.8-24c-8,.3-8.7,14.9-13,20.9-1.8-.6-10-11.5-11.9-11.7a25,25,0,0,0-27.1,22.6h0c-.5,5.1,13.2,10.1,15.5,14.3-2.9,4.2-17.1,9.3-16.9,14.8a24.92,24.92,0,0,0,25.8,24c4.3-.2,6.6-9,10.1-11.1,4.6,7.3,14.6,24.2,23.8,23.1,24.3-3,12-18.5,13.4-30.5C1034.9,96.5,1048.6,108.9,1050.8,81.6Z" style="fill:#fff"/><path d="M1033.9,84.8c-.3-9.6-6.5-17.4-14.8-19.6v-.4c-.3-11.7-9.5-20.8-20.5-20.3-6.4.3-3,4.8-6.5,10-1.4-.5-11.8-1.8-13.4-1.9C967.8,51.6,958,60.3,957,72c-.4,4.4,13.6,3.9,15.5,7.4-2.3,3.6-16.8,12.7-16.7,17.4.3,11.7,9.5,20.8,20.5,20.4,3.4-.2,14.3-12.4,17.1-14.1,3.6,6.2,2.3,21.4,9.7,21,9.9-.4,17.9-8.6,19.1-18.9A22.34,22.34,0,0,0,1033.9,84.8Z" style="fill:#ffec77"/><path d="M1008.5,135.8a26.67,26.67,0,0,1-6.9-.9c-9-2.7-10.7-14.2-11.4-23.9-2.7,3.9-5.7,8.2-9.3,10.9-6.2,4.7-15.5,3-23.3-4.2-10.2-9.4-10.5-20.3-6.6-26.5a27.52,27.52,0,0,1,14.1-11c-8.9-3.8-13.6-8.3-14.5-13.8a24.49,24.49,0,0,1,6.7-21.2,26.6,26.6,0,0,1,22.8-7.9c4.6.6,8.3,6,12.3,13.2v-.4c1-7.4,2.2-15.7,12.5-19.7,4.6-1.8,10.2-1.2,15.8,1.5,7.7,3.8,14.2,11.3,16.4,19.1a10.58,10.58,0,0,1-3.2,11c-1.3,1.2-3,2.6-4.8,4,8.9-.9,18.7-1.6,23.7,6.8h0c2.5,4.1,2.9,15.5-.5,23.4-2.2,5.2-5.8,8.5-10.3,9.6-4,.9-8.5-.3-12.8-1.9,3.8,6.1,6.1,11.6,4.5,15.8a24.29,24.29,0,0,1-16,14.6A29.06,29.06,0,0,1,1008.5,135.8ZM993.2,97.6a2.93,2.93,0,0,1,1.6.4,3.8,3.8,0,0,1,2.1,2.8c.2,1.8.4,3.8.5,6.3.5,7.1,1.3,19.1,6.3,20.6,4.5,1.3,18.3,1.3,22.9-10.6.8-2.4-5.4-11.7-7.5-14.7-1.1-1.6-2-2.9-2.7-4.1a3.63,3.63,0,0,1,1.3-5.1,4,4,0,0,1,2.6-.5,43.74,43.74,0,0,1,7.2,2.5c4.1,1.7,9.7,4.1,12.7,3.4,2.1-.5,3.8-2.1,5-4.9,2.8-6.3,2-15.2,1.1-16.9-2.6-4.3-8.5-4.1-17.8-3.1a68.86,68.86,0,0,1-11.1.6,3.81,3.81,0,0,1-3.6-3.7c0-1.9,0-2,5-6,3.1-2.5,7.3-5.9,10-8.3a3.12,3.12,0,0,0,.9-3.3c-1.7-5.8-6.7-11.6-12.5-14.5-3.7-1.8-7.1-2.3-9.8-1.2-6,2.3-6.8,6.3-7.8,13.7a56.49,56.49,0,0,1-2.2,10.7,3.72,3.72,0,0,1-4.7,2.3c-2-.7-3-2.5-5.6-7.3-1.7-3.1-6.2-11.4-8.3-12.2a19.2,19.2,0,0,0-16.3,5.7,16.82,16.82,0,0,0-4.7,14.7c.4,2.1,3.1,6.3,17.5,10.9a3.75,3.75,0,0,1,2.5,4.7,4.67,4.67,0,0,1-.5,1c-1.8,2.6-4.7,3.7-7.8,4.8-4.1,1.5-8.7,3.2-12.3,8.8-3.2,4.9.3,12.2,5.4,16.9,4.1,3.8,10.1,6.5,13.7,3.8,2.8-2.1,5.6-6.2,8-9.8,2.6-3.8,4.6-6.7,6.9-8.1A12,12,0,0,1,993.2,97.6Z" style="fill:#1a1a1a"/><circle cx="1000.7" cy="82.3" r="15.7" style="fill:#cddc4c"/><path d="M443.3,195.4c-4.3-12-23.5-2.6-35.5-.5-.1-.2,5.3-15,5.2-15.1a28.15,28.15,0,0,0-37.8-12.7h0c-8.1,4-2,19.3-3.7,27.6-2.1.2-15.6-7.2-17.7-6.5A28.13,28.13,0,0,0,336.4,224c1.9,5.5,18.3,4.3,22.6,7.6-1,5.7-13.3,17.5-10.5,23.1a28.15,28.15,0,0,0,37.8,12.7h0c4.4-2.2,2.6-12.4,5.2-16.1,8.1,5.4,26.3,18.2,35.2,12.8,23.6-14.4,3.8-24.6-.3-37.6C433.8,218.1,453.6,224.5,443.3,195.4Z" style="fill:#fff"/><path d="M427.4,206.5c-4.8-9.8-14.8-14.9-24.4-13.3-.1-.1-.1-.3-.2-.4-5.8-11.9-19.5-17.1-30.5-11.5-6.5,3.3-.9,6.3-2.1,13.3-1.7.1-13,3.6-14.7,4.2-11.7,4.1-17.7,17.5-13.4,30.1,1.6,4.7,15.9-2.3,19.4.5-.7,4.8-11.5,20.9-9.1,25.7,5.8,11.9,19.5,17.1,30.5,11.5,3.5-1.8,9-19.4,11-22.5,6.6,4.7,12.3,20.9,19.8,17.1,10-5.1,14.4-17.2,10.9-28.3A24.82,24.82,0,0,0,427.4,206.5Z" style="fill:#ffec77"/><path d="M374,277.2a30.29,30.29,0,0,1-9.9-1.7c-14.6-4.9-20-15.7-18.8-23.6,1.4-9.4,6.2-14.7,10.1-18.5-11.5.4-18.6-1.9-22.1-7.2a27,27,0,0,1-2.9-24.5,29.6,29.6,0,0,1,19.5-18.4c5.1-1.5,11.6,2.7,19.6,8.7a12.09,12.09,0,0,1-.5-1.8c-2.3-7.9-5-16.9,3.6-25.7,3.8-3.9,9.7-5.9,16.6-5.6,9.6.3,19.6,5,25.4,11.9a11.87,11.87,0,0,1,1.8,12.4c-1,2.2-2.4,5-3.8,7.8l.2-.1c8.9-5.2,19.1-11.1,28.3-4.8h0c4.4,3,9.9,14.6,10.2,23.9.2,6.2-1.9,11.2-6,14.3-3.9,3-9.6,3.7-15.3,3.9,7.3,4.8,12.7,9.4,13,14.7a26.88,26.88,0,0,1-9.5,22.1,32.59,32.59,0,0,1-16.1,7.9c-10.6,1.4-17.8-10.5-23-20.3l-.1.6c-1,5.4-2.1,11.6-4.6,16.2C386.8,274.4,381,277.2,374,277.2Zm-10.5-52a3.78,3.78,0,0,1,3.8,3.7,2,2,0,0,1-.1.7c-.6,3.4-3.1,5.8-5.7,8.3-3.6,3.5-7.6,7.4-8.8,15-1,6.8,6.2,12.9,13.7,15.4,6.3,2.1,13.9,2.1,16.5-2.7,1.9-3.5,2.9-9,3.8-13.9s1.6-8.9,3.3-11.3a3.71,3.71,0,0,1,5.2-.9,3.57,3.57,0,0,1,1,1.1c1.1,1.7,2.2,3.8,3.5,6.2,3.9,7.2,10.3,19.4,16.6,18.5,5.4-.7,19.9-7.3,19.1-22.1-.2-3.1-11.2-9.9-14.8-12.1-1.8-1.1-3.4-2.1-4.6-2.9a3.71,3.71,0,0,1-.9-5.2,3.41,3.41,0,0,1,2.2-1.5,48,48,0,0,1,8.5-.7c5.1-.1,12.1-.3,14.9-2.5,2.1-1.6,3.1-4.3,3.1-8-.2-8-5.3-16.9-6.9-18-5-3.4-11-.4-20.3,5.1a83.32,83.32,0,0,1-11.1,5.8,3.84,3.84,0,0,1-4.8-1.9c-.8-1.7-.8-1.7,2.4-8,2-4,4.8-9.5,6.5-13.2a4,4,0,0,0-.6-4.3c-4.5-5.3-12.5-9-20-9.2-4.8-.2-8.7,1-11,3.4-5.3,5.4-4.2,9.9-1.8,18.3a55.08,55.08,0,0,1,2.6,11.9,3.79,3.79,0,0,1-3.4,4.1c-2.2.2-4-1.1-8.8-4.8-3-2.3-12-9.2-14.6-8.8a22.16,22.16,0,0,0-14.5,13.8,19.73,19.73,0,0,0,2,17.8c1.4,2.1,6.4,5.3,23.5,3.3Z" style="fill:#1a1a1a"/><circle cx="392" cy="219.4" r="17.7" style="fill:#cddc4c"/><path d="M.7,131.6s-.7-.2-.7,2.2v8.8H13.7Z" style="fill:#cddc4c"/><polygon points="328.7 364.8 715.8 364.8 709.2 343.6 379.9 329.7 328.7 364.8" style="fill:#cddc4c"/><path d="M68.2,37.7S52.4,21.4,72,6.8c0,0,14.6-10.9,22.8,4.8,0,0,11.3-15.4,23.7,1,0,0,14.5,16.7-4.2,26.9,0,0,15-6.4,23.2,7.6,0,0,11.9,18.3-9.9,23.4,0,0,6,19.2-17.2,20.4,0,0-13.8.6-17.4-14.9,0,0-2.7,21.5-23.2,20,0,0-21.3-2.3-12.9-22.6,0,0-16.6-1.2-14.5-19.4C42.3,54,43.7,34.7,68.2,37.7Z" style="fill:#7ebc25"/><path d="M71.8,99.6a17.7,17.7,0,0,1-2.3-.1h-.1c-.4,0-11.1-1.3-15.8-9.2-2.4-4-2.8-8.8-1.3-14.2a20.54,20.54,0,0,1-9.3-6c-3.5-4.2-4.8-9.6-4.1-16.3a22.51,22.51,0,0,1,7.8-14.5A24.55,24.55,0,0,1,61.5,34a22.29,22.29,0,0,1-2.6-12.2C59.3,15.2,63,9.2,69.9,4c.3-.2,8-5.9,16.3-4a16.41,16.41,0,0,1,9.2,6,17.06,17.06,0,0,1,10.9-4.4c5.4,0,10.4,3,14.9,8.9.9,1.1,7.5,9.3,5.9,18.5a17.3,17.3,0,0,1-2.2,5.7c5.5.7,11.4,3.5,15.6,10.6.6,1,6,9.9,2.7,18.1-1.8,4.5-5.7,7.7-11.5,9.7.4,3.4.3,8.6-2.9,13.1-3.5,5.1-9.6,7.9-18.2,8.3a20.63,20.63,0,0,1-17-8.6C90.1,92.8,83.3,99.6,71.8,99.6Zm-1.7-7.1c16.8,1.2,19.3-16.2,19.4-16.9a3.51,3.51,0,0,1,6.9-.4c2.9,12.5,13.4,12.2,13.8,12.2,6.2-.3,10.5-2.1,12.7-5.2,3.1-4.4,1.3-10.5,1.3-10.6a3.48,3.48,0,0,1,2.3-4.4c.1,0,.1,0,.2-.1,5.3-1.2,8.6-3.4,9.8-6.4,1.7-4.2-.9-9.9-2.1-11.7l-.1-.1c-6.4-10.9-17.5-6.7-18.8-6.2a3.51,3.51,0,0,1-4.7-1.7,3.59,3.59,0,0,1,1.6-4.7c4.4-2.4,6.9-5.3,7.6-8.7,1.1-6.3-4.3-12.7-4.3-12.8s-.1-.1-.2-.2c-3.1-4.1-6.2-6.2-9.3-6.2-4.8,0-8.6,5-8.7,5.1a3.64,3.64,0,0,1-5,.8,2.94,2.94,0,0,1-1-1.2c-1.9-3.6-4.3-5.7-7-6.3C79.4,5.6,74,9.5,74,9.6c-5.2,3.9-8,8.2-8.3,12.7-.6,7,4.9,12.9,5,13a3.5,3.5,0,0,1,0,5,3.69,3.69,0,0,1-3,1c-7.3-.9-12.9.3-16.7,3.4a15.3,15.3,0,0,0-5.2,9.7v.2c-.5,4.7.3,8.4,2.5,11C51.6,69.5,57,70,57.1,70a3.58,3.58,0,0,1,3.3,3.8,2.28,2.28,0,0,1-.3,1.1c-2,5-2.2,9-.5,11.9,2.8,4.5,9.8,5.6,10.5,5.7Z" style="fill:#1a1a1a"/><path d="M66.3,67.4a2.84,2.84,0,0,1-2.8-2.7A3,3,0,0,1,65,62.2l19-9.9a2.77,2.77,0,0,1,3.7,1.1,2.72,2.72,0,0,1-1.2,3.7L67.5,67A1.92,1.92,0,0,1,66.3,67.4Z" style="fill:#3e7c18"/><path d="M93.6,46.6h-.1a2.69,2.69,0,0,1-2.6-2.8l.8-18.4a2.72,2.72,0,0,1,3.1-2.3,2.68,2.68,0,0,1,2.3,2.6L96.2,44A2.72,2.72,0,0,1,93.6,46.6Z" style="fill:#3e7c18"/><path d="M114.9,65.5a2.66,2.66,0,0,1-1.2-.3l-12.8-6.3a2.68,2.68,0,0,1,2.4-4.8l12.8,6.3a2.69,2.69,0,0,1,1.2,3.6A2.56,2.56,0,0,1,114.9,65.5Z" style="fill:#3e7c18"/></svg>