<svg id="圖層_1" data-name="圖層 1" xmlns="http://www.w3.org/2000/svg" viewBox="0 0 219.6 115.7"><title>lizard</title><path d="M190.2,115s-45-60-98.1-64.2a63.86,63.86,0,0,1-24.6-6.6c-9.8-5.1-20.8-11-39.3-4.1C21.8,42.5,5.8,45.6,3.6,55c0,0-1.9,19.3,55.3,29.3,0,0,24.2,18.5,54.1,31.4h77.6A2.77,2.77,0,0,1,190.2,115Z" style="fill:#fff"/><path d="M10.8,46.7C7.3,48.8,4.4,51.4,3.6,55c0,0-1.9,19.3,55.3,29.3,0,0,24.3,18.6,54.3,31.4h29.6C99.7,90.4,48.4,81.6,10.8,46.7Z" style="fill:#f2f0db"/><path d="M190.2,115s-54.8-50.8-108-55.1c-8.6-.7-7.2-11.8-14.8-15.8C57.6,39,46.6,33.1,28.1,40c-3.9,1.5-11.5,3.2-17.2,6.6,37.6,34.9,88.9,43.7,131.9,69h47.9A1.41,1.41,0,0,1,190.2,115Z" style="fill:#939280"/><path d="M193.3,113.3c-.1-.2-.2-.3-.3-.5-1.9-2.5-46.6-61.3-100.7-65.7A61.13,61.13,0,0,1,69,40.9l-.4-.2c-9.8-5.1-22-11.4-41.8-4-1,.4-2.3.8-3.8,1.3C14.8,40.5,2.4,44.4.1,54.2c0,.2-.1.3-.1.5-.2,2.3-.4,22.7,57.4,33a283.14,283.14,0,0,0,46.7,28h18.5a240.66,240.66,0,0,1-27.3-12.5A290.19,290.19,0,0,1,61.1,81.5a3.14,3.14,0,0,0-1.6-.6C10.9,72.3,7.4,57.5,7.2,55.4,8.9,49.9,19,46.7,25.1,44.8c1.6-.5,3-.9,4.2-1.4,16.8-6.2,26.6-1.2,36,3.7l.4.2a69.37,69.37,0,0,0,26,7c46.3,3.7,87.1,52.2,94.4,61.3H195A10.56,10.56,0,0,1,193.3,113.3Z" style="fill:#1a1a1a"/><circle cx="43.9" cy="49.8" r="7.4" style="fill:#1a1a1a"/><path d="M41.7,68C21.5,68,3.6,56.4,2.9,55.9a2.72,2.72,0,0,1-.8-3.7,2.72,2.72,0,0,1,3.7-.8c.2.2,17.6,11.5,36.4,11.3a2.65,2.65,0,0,1,0,5.3Z" style="fill:#1a1a1a"/><path d="M68.8,113.7c-.1-.1,16-12.2,16-12.2l-2.7-22-14.6-1,4.8,17.1L54.8,115.8H71.1A6.59,6.59,0,0,0,68.8,113.7Z" style="fill:#929080"/><path d="M74.3,97.3a2.83,2.83,0,0,0,.6-2.5L70.1,77.7a2.7,2.7,0,0,0-5.2,1.4l4.4,15.7L51.2,115.6h7.1Z" style="fill:#1a1a1a"/><path d="M73,113.7c3.3-2.6,9.3-7.1,13.4-10.2a2.88,2.88,0,0,0,1-2.5L84.7,79.1a2.67,2.67,0,1,0-5.3.7l2.5,20.4c-1.5,1.1-4.1,3.1-6.8,5.1-9.1,6.9-9.1,6.9-9.1,8.5a2.58,2.58,0,0,0,1,1.9h7.1A5.64,5.64,0,0,0,73,113.7Z" style="fill:#1a1a1a"/><polygon points="168.9 115.5 168.6 115.7 168.9 115.7 168.9 115.5" style="fill:#929080"/><path d="M151.2,101.4c-13.2-19-36.9-21-56.2-30.8-4.1-2.1-6.6,4.6-2.5,6.7,18,9.2,40.9,10.8,53.2,28.6C148.2,109.7,153.8,105.2,151.2,101.4Z" style="fill:#f2f0db"/><path d="M154,18c35.5-9.5,55,5.3,65.5,21V12C182.8-10.7,154,18,154,18Z" style="fill:#6bc7f1"/><path d="M177.4,1.7a60.16,60.16,0,0,0-25.6,14,3.2,3.2,0,0,0,0,4.6,3.11,3.11,0,0,0,3.2.8c18.7-5,34.5-3.5,47,4.6a54.23,54.23,0,0,1,17.7,19.5V33.4a58.64,58.64,0,0,0-14.1-13.1c-10.5-6.8-23-9.5-37.2-8.2A51.39,51.39,0,0,1,179.1,8c13.8-3.6,27.4-.9,40.6,7.8V8.3C207.9,1.5,193.6-2.5,177.4,1.7Z" style="fill:#1a1a1a"/></svg>