<?xml version="1.0" encoding="utf-8"?>
<!-- Generator: Adobe Illustrator 21.1.0, SVG Export Plug-In . SVG Version: 6.00 Build 0)  -->
<svg version="1.1" id="圖層_1" xmlns="http://www.w3.org/2000/svg" xmlns:xlink="http://www.w3.org/1999/xlink" x="0px" y="0px"
	 viewBox="0 0 219.6 115.7" style="enable-background:new 0 0 219.6 115.7;" xml:space="preserve">
<style type="text/css">
	.st0{fill:#FFFFFF;}
	.st1{fill:#F2F0DB;}
	.st2{fill:#939280;}
	.st3{fill:#1A1A1A;}
	.st4{fill:#929080;}
	.st5{fill:#6BC7F1;}
</style>
<title>互動設計UI</title>
<path class="st0" d="M190.2,115c0,0-45-60-98.1-64.2c-8.6-0.5-16.9-2.8-24.6-6.6c-9.8-5.1-20.8-11-39.3-4.1
	C21.8,42.5,5.8,45.6,3.6,55c0,0-1.9,19.3,55.3,29.3c0,0,24.2,18.5,54.1,31.4h77.6C190.3,115.3,190.2,115,190.2,115z"/>
<path class="st1" d="M10.8,46.7c-3.5,2.1-6.4,4.7-7.2,8.3c0,0-1.9,19.3,55.3,29.3c0,0,24.3,18.6,54.3,31.4h29.6
	C99.7,90.4,48.4,81.6,10.8,46.7z"/>
<path class="st2" d="M190.2,115c0,0-54.8-50.8-108-55.1c-8.6-0.7-7.2-11.8-14.8-15.8c-9.8-5.1-20.8-11-39.3-4.1
	c-3.9,1.5-11.5,3.2-17.2,6.6c37.6,34.9,88.9,43.7,131.9,69h47.9C190.3,115.3,190.2,115,190.2,115z"/>
<path class="st3" d="M193.3,113.3c-0.1-0.2-0.2-0.3-0.3-0.5c-1.9-2.5-46.6-61.3-100.7-65.7c-8.1-0.5-16-2.6-23.3-6.2l-0.4-0.2
	c-9.8-5.1-22-11.4-41.8-4c-1,0.4-2.3,0.8-3.8,1.3c-8.2,2.5-20.6,6.4-22.9,16.2c0,0.2-0.1,0.3-0.1,0.5C-0.2,57-0.4,77.4,57.4,87.7
	c14.6,10.8,30.3,20.2,46.7,28h18.5c-9.4-3.6-18.5-7.8-27.3-12.5c-11.9-6.4-23.3-13.7-34.2-21.7c-0.5-0.3-1-0.6-1.6-0.6
	C10.9,72.3,7.4,57.5,7.2,55.4c1.7-5.5,11.8-8.7,17.9-10.6c1.6-0.5,3-0.9,4.2-1.4c16.8-6.2,26.6-1.2,36,3.7l0.4,0.2
	c8.1,4,17,6.4,26,7c46.3,3.7,87.1,52.2,94.4,61.3h8.9C194.4,115,193.8,114.2,193.3,113.3z"/>
<circle class="st3" cx="43.9" cy="49.8" r="7.4"/>
<path class="st3" d="M41.7,68C21.5,68,3.6,56.4,2.9,55.9c-1.2-0.8-1.6-2.5-0.8-3.7c0.8-1.2,2.5-1.6,3.7-0.8
	C6,51.6,23.4,62.9,42.2,62.7c1.5,0.1,2.6,1.4,2.5,2.8c-0.1,1.4-1.2,2.4-2.5,2.5H41.7z"/>
<path class="st4" d="M68.8,113.7c-0.1-0.1,16-12.2,16-12.2l-2.7-22l-14.6-1l4.8,17.1l-17.5,20.2h16.3
	C70.5,114.9,69.7,114.2,68.8,113.7z"/>
<path class="st3" d="M74.3,97.3c0.6-0.7,0.8-1.6,0.6-2.5l-4.8-17.1c-0.5-1.4-2-2.2-3.4-1.7c-1.3,0.4-2.1,1.8-1.8,3.1l4.4,15.7
	l-18.1,20.8h7.1L74.3,97.3z"/>
<path class="st3" d="M73,113.7c3.3-2.6,9.3-7.1,13.4-10.2c0.7-0.6,1.1-1.5,1-2.5l-2.7-21.9c-0.2-1.5-1.6-2.5-3-2.3
	c-1.4,0.2-2.5,1.5-2.3,3l2.5,20.4c-1.5,1.1-4.1,3.1-6.8,5.1c-9.1,6.9-9.1,6.9-9.1,8.5c0,0.7,0.4,1.4,1,1.9h7.1
	C73.9,115,73.5,114.3,73,113.7z"/>
<polygon class="st4" points="168.9,115.5 168.6,115.7 168.9,115.7 "/>
<path class="st1" d="M151.2,101.4c-13.2-19-36.9-21-56.2-30.8c-4.1-2.1-6.6,4.6-2.5,6.7c18,9.2,40.9,10.8,53.2,28.6
	C148.2,109.7,153.8,105.2,151.2,101.4z"/>
<path class="st5" d="M154,18c35.5-9.5,55,5.3,65.5,21V12C182.8-10.7,154,18,154,18z"/>
<path class="st3" d="M177.4,1.7c-9.6,2.5-18.3,7.3-25.6,14c-1.3,1.3-1.3,3.3,0,4.6c0.8,0.8,2,1.2,3.2,0.8c18.7-5,34.5-3.5,47,4.6
	c8.1,5.2,13.8,12.5,17.7,19.5V33.4c-3.9-5.1-8.7-9.5-14.1-13.1c-10.5-6.8-23-9.5-37.2-8.2c3.4-1.8,7-3.1,10.7-4.1
	c13.8-3.6,27.4-0.9,40.6,7.8V8.3C207.9,1.5,193.6-2.5,177.4,1.7z"/>
</svg>
