<svg id="圖層_1" data-name="圖層 1" xmlns="http://www.w3.org/2000/svg" viewBox="0 0 191.7 127.7"><title>mouse</title><path d="M106.5,106.5S147.4,70.1,186,53.1c0,0,21.8-9.2-49.8-20.2L98.3,19.1S50.8,13.5,48.9,42.5A55.86,55.86,0,0,1,2.3,74.8,17.61,17.61,0,0,0,0,76.2v51.5H118.8Z" style="fill:#fff"/><path d="M106.5,106.5S147.4,70.1,186,53.1c0,0,21.8-9.2-49.8-20.2L98.3,19.1S59.6,25.4,57.7,54.3c0,0-1.2,33.1-36.3,36.2A54.06,54.06,0,0,0-.1,97.2v30.5H118.7Z" style="fill:#ae9378"/><path d="M119.6,126.2c-12.5-14.5-5-25.9-3.7-27.7,20.6-16.7,71.2-42,71.7-42.2l.9-.6c3.2-3.1,3.5-6.1,3.2-8.1-1-5.6-7.6-8.9-9-9.5a4.67,4.67,0,0,0-1.7-.3c-10.6.7-44.5-9.9-56.9-14.1-21.3-10.2-40-11.9-55.5-4.9C47,28.3,39.3,50.9,38.3,54.2c-1,1.9-8.6,14.9-22.7,13.4h-.4A71.65,71.65,0,0,0,0,69.9v7.4a64.56,64.56,0,0,1,15.1-2.6c19.7,1.9,29.2-16.8,29.6-17.6a1.42,1.42,0,0,0,.2-.6c.1-.2,6.8-22.5,26.5-31.3,13.6-6.1,30.3-4.4,49.7,4.9.1.1.3.1.4.2,1.8.6,43.8,14.9,58.9,14.6,2,1,4,2.8,4.2,3.9.1.4-.3,1-.7,1.4-5.8,2.9-52.7,26.6-72.8,43.1-.2.1-.3.3-.5.5s-12.3,15.2,1.1,33.9h8.6A3.48,3.48,0,0,0,119.6,126.2Z" style="fill:#1a1a1a"/><path d="M93,91.7a33.71,33.71,0,0,1-19-5.5,27.1,27.1,0,0,1-8.5-9,6.89,6.89,0,0,1-.3-.8C61.1,60.8,77.5,51.7,86.8,49.1a3.46,3.46,0,0,1,4.4,2.4,3.54,3.54,0,0,1-2.4,4.4h0c-.2.1-19.5,5.8-16.7,18.3,1.3,2.1,9.3,13.6,28.8,9.6a3.57,3.57,0,0,1,1.4,7h0A48.84,48.84,0,0,1,93,91.7Z" style="fill:#1a1a1a"/><path d="M98,75.7c-10.2,4.6-18-2.9-18-2.9s-3.3-9.5,13-11.9" style="fill:#f9d1bf"/><path d="M91.2,79.4a19.87,19.87,0,0,1-12.8-5.1,3.49,3.49,0,0,1-.6-.9,9.75,9.75,0,0,1,1-7.8c2.2-3.7,6.8-6.1,13.7-7.1a2.22,2.22,0,0,1,.6,4.4c-5.4.8-9,2.5-10.6,5a5,5,0,0,0-.7,3.6,14.54,14.54,0,0,0,15.1,2.1,2.2,2.2,0,1,1,2.2,3.8c-.1.1-.3.1-.4.2A15.68,15.68,0,0,1,91.2,79.4Z" style="fill:#1a1a1a"/><path d="M134.2,105.6H134a2.62,2.62,0,0,1-2.4-2.9c2.8-31,12.3-44.3,12.8-44.9a2.58,2.58,0,0,1,3.7-.4,2.78,2.78,0,0,1,.6,3.6h0c-.1.1-9.1,12.9-11.7,42.2A2.9,2.9,0,0,1,134.2,105.6Z" style="fill:#1a1a1a"/><path d="M162.2,84.9a2.65,2.65,0,0,1-2.3-1.3A52.94,52.94,0,0,1,153.3,56a2.65,2.65,0,0,1,5.3.3h0c0,.1-.8,13,5.9,24.5a2.68,2.68,0,0,1-.9,3.6,1.87,1.87,0,0,1-1.4.5Z" style="fill:#1a1a1a"/><path d="M149.2,38.6H149a2.62,2.62,0,0,1-2.4-2.9c.2-2.7,2.5-26.8,8.7-34.8A2.57,2.57,0,0,1,159,.6a2.66,2.66,0,0,1,.5,3.6c-4.4,5.7-7,25-7.6,32A2.64,2.64,0,0,1,149.2,38.6Z" style="fill:#1a1a1a"/><path d="M160.1,39.8a.75.75,0,0,1-.5-.1,2.69,2.69,0,0,1-2.1-3.1h0c.1-.7,3.5-16.6,11.9-22.5a2.66,2.66,0,0,1,3,4.4c-5.6,3.9-9,15.2-9.8,19.2A2.57,2.57,0,0,1,160.1,39.8Z" style="fill:#1a1a1a"/><ellipse cx="116.9" cy="47.1" rx="8.2" ry="8.4" transform="translate(-3.34 84.86) rotate(-39.38)" style="fill:#1a1a1a"/><path d="M58.6,112.3a92.77,92.77,0,0,0,17.1,15.4h6.7Z" style="fill:#fff"/><path d="M61.3,110.1a3.55,3.55,0,0,0-5.4,4.6,98.73,98.73,0,0,0,11.3,11.1c.8.7,1.6,1.3,2.4,2H82.7C73.8,123.3,64.8,114.2,61.3,110.1Z" style="fill:#1a1a1a"/><path d="M175.5,43.5s-3.8,4.6,2.8,14l7.7-4.4,2.1-8.9" style="fill:#1a1a1a"/></svg>