<?xml version="1.0" encoding="utf-8"?>
<!-- Generator: Adobe Illustrator 21.1.0, SVG Export Plug-In . SVG Version: 6.00 Build 0)  -->
<svg version="1.1" id="圖層_1" xmlns="http://www.w3.org/2000/svg" xmlns:xlink="http://www.w3.org/1999/xlink" x="0px" y="0px"
	 viewBox="0 0 882.5 350.3" style="enable-background:new 0 0 882.5 350.3;" xml:space="preserve">
<style type="text/css">
	.st0{fill:#CDDC4C;}
	.st1{fill:#FFFFFF;}
	.st2{fill:#43831C;}
	.st3{fill:#3E7C18;}
	.st4{fill:#EAEFB5;}
	.st5{fill:#7FBE26;}
	.st6{fill:#CBDA4B;}
</style>
<title>互動設計UI</title>
<path class="st0" d="M220.3,162c8.6-0.2,15.1-1.5,19.7-3.8c4.7-2.2,8.6-6,10.8-10.7c1.7-3.9,2.6-8.7,2.6-14.7v-17.3
	c0.3,0.1,0.7,0.2,1,0.2c4.1,0.7,8.3,0.1,12-1.8l0.7-0.4c3.8-2.4,6.7-6,8-10.3c2.4-7.9,4.6-16.6,6.8-26.3c0.2-1.1,0.3-2.2,0.3-3.3
	c0-3.1-0.9-6.1-2.6-8.7l-0.3-0.4c-2.4-3.3-5.9-5.7-9.8-6.6l-4.1-0.8l0,0c-0.8-1.9-2-3.6-3.5-5c4.8-5.2,9.1-10.7,13.1-16.5
	c2-2.8,3.2-6.2,3.2-9.6c0-1.2-0.1-2.3-0.4-3.5c-0.9-4.2-3.2-8-6.7-10.5l-3-2.1c-3-2.2-6.7-3.4-10.4-3.3c-1.1,0-2.2,0.1-3.3,0.2
	l-39.6,0.1c-4.5,0-8.9,1.6-12.2,4.7c-4-3.1-8.9-4.8-13.9-4.7H147c-6.1-0.1-12,2.4-16.3,6.8c-4.2,4.3-6.6,10.1-6.6,16.1v39.1
	c-0.1,6,2.3,11.8,6.6,16.1c0.7,0.7,1.5,1.4,2.3,2.1c-1.2,0.7-2.3,1.6-3.3,2.6c-3.4,3.4-5.3,8-5.3,12.7c0,4.8,1.8,9.3,5.2,12.7
	c1.9,2,4.3,3.6,6.9,4.5c-9.2,1.2-16.1,9-16.3,18.3c0,1,0.1,2,0.3,2.9c0.6,4.8,3.1,9.1,6.9,12l0.4,0.3c3.2,2.3,7.1,3.6,11.1,3.6h1.4
	l1.3-0.1c33.4-4.3,52.3-6.7,56.8-7.3c0.7-0.1,1.3-0.2,1.9-0.4c1.5,3.4,3.7,6.3,6.6,8.6c3.6,2.9,8.1,4.6,12.7,4.6H220.3z M177.7,36.8
	c0.8-1.3,1.9-2.3,3.2-3.1c1.3,0.8,2.4,1.8,3.2,3.1c-0.8,1.3-1.9,2.3-3.1,3.1C179.6,39.2,178.5,38.1,177.7,36.8z M184,61.7
	c-0.8,1.2-1.8,2.3-3.1,3c-1.3-0.7-2.3-1.8-3.1-3c0.8-1.2,1.8-2.3,3.1-3C182.2,59.4,183.2,60.5,184,61.7z M157.4,61.7
	c-0.7,1.2-1.7,2.2-2.9,2.9c-1.2-0.7-2.2-1.7-2.9-2.9c0.7-1.2,1.7-2.2,2.9-2.9C155.7,59.5,156.7,60.5,157.4,61.7L157.4,61.7z
	 M151.6,36.8c0.7-1.2,1.7-2.2,2.9-3c1.2,0.8,2.2,1.8,2.9,3c-0.7,1.2-1.7,2.2-2.9,3C153.3,39.1,152.3,38,151.6,36.8z M205.9,115.7
	c0.3-0.2,0.5-0.5,0.8-0.7c3.3-3.4,5.2-7.9,5.1-12.7c0-3.2-0.8-6.3-2.4-9.1c1.4,0.3,2.9,0.5,4.4,0.5h1.6v31.2h-0.9h-1
	c-1-2.8-2.7-5.4-5-7.4C207.7,116.9,206.8,116.3,205.9,115.7L205.9,115.7z"/>
<path class="st1" d="M220.3,162L220.3,162z M200.3,137.2c4.6,0,8.8,2.8,10.7,7c0.7,1.6,1.8,3.1,3.2,4.2c1.5,1.3,3.4,2,5.4,2h0.5
	c8.4-0.2,12.6-1.5,14.6-2.6l0.2-0.1c2.3-1,4.1-2.8,5.2-5c1-2.3,1.6-5.6,1.6-9.9v-17.4c0-6.4,5.2-11.7,11.7-11.7c1,0,1.9,0.1,2.9,0.4
	l0.3,0.1c1.5,0.2,3.1,0,4.5-0.7l0.2-0.1c1.4-0.9,2.4-2.3,2.8-3.8c2.3-7.5,4.5-16,6.5-25.1c0.1-0.3,0.1-0.6,0.1-0.9
	c0-0.8-0.2-1.7-0.7-2.4l-0.1-0.1c-0.7-0.9-1.7-1.6-2.8-1.8l-3.8-0.8c-3.8-0.7-7-3.3-8.5-6.9c-0.2-0.4-0.4-0.8-0.8-1.1
	c-4.6-4.4-4.9-11.7-0.6-16.4c4.4-4.8,8.4-9.8,12.1-15.2l0.2-0.2c0.8-1,1.1-2.4,0.9-3.6c0-0.1,0-0.1,0-0.2c-0.3-1.4-1-2.6-2.1-3.5
	l-2.8-1.9l-0.2-0.1c-1-0.8-2.3-1.2-3.6-1.2c-0.6,0-1.1,0.1-1.7,0.1c-0.5,0.1-1.1,0.1-1.6,0.1L215,18.5c-1.6,0-3.2,0.6-4.4,1.7
	c-4.2,3.8-10.5,4-15,0.6c-1.9-1.5-4.3-2.3-6.8-2.2H147c-3-0.1-5.9,1.1-8,3.2c-2.1,2.1-3.3,5-3.2,7.9v39.1c0,3,1.1,5.8,3.2,7.9
	c0.4,0.4,0.8,0.7,1.2,1c5.1,4,6,11.3,2,16.4c-0.8,1.1-1.8,2-3,2.7c-0.4,0.3-0.8,0.6-1.2,1c-1.2,1.2-1.9,2.8-1.9,4.5
	c0,1.7,0.7,3.4,1.9,4.6c0.7,0.7,1.5,1.3,2.4,1.6c6.1,2.1,9.3,8.8,7.2,14.9c-1.5,4.2-5.2,7.2-9.6,7.7c-3.3,0.5-5.8,3.3-6,6.7
	c0,0.2,0,0.4,0.1,0.6c0,0.2,0.1,0.4,0.1,0.6c0.2,1.8,1.1,3.4,2.5,4.5l0.1,0.1c1.2,0.9,2.7,1.4,4.2,1.4h1.5c33.6-4.3,52-6.7,56.4-7.3
	c0.3,0,0.5-0.1,0.8-0.1C198.4,137.3,199.3,137.2,200.3,137.2L200.3,137.2z M213.6,136.7c-4.9,0-9.4-3.1-11-7.8
	c-0.3-0.9-0.9-1.8-1.7-2.4c-0.3-0.2-0.5-0.4-0.8-0.6c-5.6-3.3-7.4-10.4-4.1-16c0.6-1,1.3-1.9,2.1-2.7l0.3-0.3
	c1.2-1.2,1.9-2.8,1.8-4.5c0-1.1-0.3-2.2-0.8-3.1c-3.3-5.6-1.5-12.7,4.1-16c2.6-1.5,5.7-2,8.6-1.3c0.5,0.1,1.1,0.2,1.7,0.2h1.6
	c6.5,0,11.7,5.2,11.7,11.7c0,0,0,0,0,0v31.2c0,6.5-5.2,11.7-11.7,11.7h-1.2L213.6,136.7z M180.9,76.4c-2.1,0-4.1-0.6-5.9-1.6
	c-2.9-1.7-5.4-4.1-7.2-7c-0.1-0.1-0.2-0.3-0.3-0.4c-0.1,0.1-0.2,0.3-0.2,0.4c-1.7,2.7-4,5-6.7,6.7c-3.8,2.3-8.5,2.3-12.3,0
	c-2.7-1.7-5-4-6.7-6.7c-2.3-3.8-2.3-8.5,0-12.3c1.5-2.5,3.6-4.6,6-6.2c-2.5-1.7-4.6-3.9-6.1-6.4c-2.2-3.7-2.2-8.4,0-12.1
	c1.7-2.8,4-5.1,6.8-6.8c3.8-2.3,8.5-2.3,12.3,0c2.8,1.7,5.1,4.1,6.8,6.8c0.1,0.1,0.1,0.2,0.1,0.2l0.1-0.2c1.8-3,4.3-5.4,7.3-7.2
	c3.6-2.1,8-2.1,11.7,0c3,1.7,5.5,4.2,7.3,7.2c2.2,3.7,2.2,8.4,0,12.1c-1.6,2.6-3.6,4.8-6.1,6.4c2.4,1.6,4.5,3.8,6,6.3
	c2.3,3.8,2.3,8.5,0,12.3c-1.8,2.9-4.3,5.3-7.2,7C184.9,75.8,182.9,76.4,180.9,76.4L180.9,76.4z M185.4,66.4l1.4,2.4
	c0.4-0.2,0.8-0.6,1-0.9L185.4,66.4z M176.5,66.4l-2.4,1.4c0.2,0.4,0.6,0.7,1,0.9L176.5,66.4z M159.3,66.4l1.5,2.4
	c0.4-0.2,0.7-0.5,0.9-0.9L159.3,66.4z M149.9,66.4l-2.4,1.5c0.2,0.4,0.5,0.7,0.9,0.9L149.9,66.4z M186.8,54.6l-1.4,2.4l2.4-1.5
	C187.5,55.1,187.1,54.8,186.8,54.6L186.8,54.6z M175.1,54.6c-0.4,0.2-0.8,0.6-1,1l2.4,1.5L175.1,54.6z M160.7,54.6l-1.5,2.4l2.4-1.5
	C161.4,55.2,161.1,54.9,160.7,54.6L160.7,54.6z M148.4,54.6c-0.4,0.2-0.7,0.5-0.9,0.9l2.4,1.5L148.4,54.6z M161.4,49.3
	c2.4,1.6,4.5,3.8,6,6.2l0.2,0.4c0.1-0.1,0.2-0.3,0.3-0.4c1.5-2.5,3.6-4.6,6-6.2c-2.5-1.7-4.6-3.9-6.1-6.4c0-0.1-0.1-0.2-0.1-0.2
	l-0.1,0.2C165.9,45.4,163.8,47.6,161.4,49.3L161.4,49.3z M185.4,41.4l1.4,2.4c0.4-0.2,0.8-0.6,1-1L185.4,41.4z M176.5,41.4l-2.5,1.5
	c0.2,0.4,0.6,0.8,1,1L176.5,41.4z M159.3,41.4l1.5,2.4c0.4-0.2,0.7-0.6,0.9-0.9L159.3,41.4z M149.9,41.4l-2.4,1.4
	c0.2,0.4,0.5,0.7,0.9,0.9L149.9,41.4z M175.1,29.8c-0.4,0.2-0.8,0.6-1,1l2.4,1.4L175.1,29.8z M186.8,29.8l-1.4,2.4l2.4-1.4
	C187.5,30.4,187.2,30,186.8,29.8L186.8,29.8z M160.8,29.8l-1.5,2.4l2.4-1.4C161.4,30.4,161.1,30.1,160.8,29.8L160.8,29.8z
	 M148.5,29.8c-0.4,0.2-0.7,0.6-0.9,0.9l2.4,1.4L148.5,29.8z"/>
<path class="st0" d="M393.1,156.3c7.5,7.6,19.8,7.6,27.4,0.1c3.6-3.6,5.7-8.5,5.7-13.7V123c2.9,0.8,6,0.9,9,0.5l1.1-0.2
	c4.9-1.2,9.3-3.9,12.5-7.8c2.7-3.2,4.1-7.2,4.2-11.3c0-1.1-0.1-2.2-0.3-3.2l-0.1-0.4c-1-5.2-4.3-9.7-8.9-12.2
	c-6.2-3.4-12-7.3-17.5-11.8V19.4c0-10.7-8.7-19.4-19.4-19.4s-19.4,8.7-19.4,19.4v7.9c-1.6-1.5-3.5-2.6-5.6-3.3l-3.2-1.2
	c-3.2-1.2-6.6-1.5-10-0.9h-7.3c0.1-0.8,0.2-1.6,0.2-2.4c0-3.4-1-6.7-2.8-9.5c-2.7-4.4-7.1-7.4-12.1-8.3l-0.4-0.1
	c-1.2-0.2-2.3-0.3-3.5-0.3c-3.7,0-7.3,1.1-10.4,3.1c-4.1,2.6-7.1,6.6-8.5,11.3c-6,20.3-14.4,36.7-25,49c-2.8,3.4-4.3,7.6-4.4,11.9
	v1.7c0.4,5,2.9,9.7,7,12.7c3.6,3,8.1,4.6,12.7,4.5h1.3c2.9-0.2,5.7-1,8.2-2.5c3.2,2.3,6.2,4.6,8.9,6.7c-6.7,9.6-15.2,17.9-25,24.4
	c-7.9,5-10.3,15.5-5.3,23.5c0.8,1.3,1.8,2.5,3,3.5c3.4,3.3,7.8,5.5,12.5,6.2c5.1,0.8,10.4-0.4,14.6-3.3l0.4-0.2
	c21.7-15.4,38.2-38.5,49.2-68.7c1.8,2.2,3.6,4.4,5.4,6.5v51.1C387.4,147.8,389.4,152.7,393.1,156.3z M351.1,58.9
	c-0.7,2.4-1.3,4.7-2,7c-1.3-0.9-2.6-1.7-3.9-2.6c0.8-1.5,1.5-2.9,2.2-4.4L351.1,58.9z"/>
<path class="st1" d="M382.1,73.5c3.6,0,6.9,1.6,9.2,4.4c1.6,2.1,3.3,4.1,5,6.1c1.9,2.1,2.9,4.9,2.9,7.7v51.1c0,2,0.7,3.9,2.2,5.3h0
	c3,3,7.8,3,10.8,0c1.4-1.4,2.2-3.4,2.3-5.4V123c0-6.5,5.2-11.7,11.7-11.7c1,0,2.1,0.1,3.1,0.4c1.4,0.3,2.8,0.4,4.2,0.2l0.4-0.1
	c2.3-0.6,4.4-1.9,5.9-3.8c0.9-1.1,1.5-2.5,1.5-3.9c0-0.4,0-0.8-0.1-1.3v-0.1c-0.3-1.8-1.5-3.3-3-4.2c-6.8-3.8-13.2-8.1-19.2-13
	c-2.7-2.2-4.3-5.6-4.3-9.1V19.4c0-2-0.8-3.9-2.2-5.3c-1.4-1.5-3.4-2.3-5.5-2.3c-4.2,0-7.6,3.4-7.7,7.6c0,0,0,0,0,0v7.9
	c0,6.5-5.2,11.7-11.7,11.7c-2.9,0-5.6-1.1-7.8-3c-0.5-0.4-1-0.8-1.6-1l-0.2-0.1l-3.2-1.2c-1.2-0.5-2.6-0.6-3.9-0.4
	c-0.7,0.1-1.4,0.2-2.1,0.2h-7.3c-6.5,0-11.7-5.2-11.7-11.7c0-0.6,0-1.1,0.1-1.6c0-0.2,0.1-0.5,0.1-0.7c0-1.2-0.4-2.3-1-3.3l-0.1-0.1
	c-1-1.6-2.6-2.7-4.4-3.1h-0.1c-0.5-0.1-1-0.1-1.5-0.1c-1.5,0-2.9,0.4-4.2,1.2c-1.7,1.1-2.9,2.7-3.4,4.6L335,19
	c-6.5,21.9-15.7,39.7-27.3,53.1c-1,1.2-1.6,2.8-1.6,4.3v1.1c0.2,1.7,1.1,3.2,2.5,4.2l0.2,0.2c1.5,1.2,3.3,1.9,5.2,1.9h0.8
	c1-0.1,2-0.4,2.9-0.9c4-2.3,9-2.1,12.7,0.6c3.4,2.4,6.6,4.8,9.4,7.1c4.8,3.9,5.8,10.8,2.2,15.9c-7.6,10.9-17.1,20.2-28.2,27.4
	l-0.1,0.1c-2.5,1.6-3.2,4.9-1.6,7.4c0.2,0.4,0.5,0.7,0.8,1l0.2,0.2c1.7,1.7,3.9,2.8,6.2,3.1l0.3,0.1c2.2,0.3,4.4-0.2,6.2-1.5
	l0.1-0.1c19.6-14,34.7-35.2,44.9-63C372.8,76.5,377.2,73.5,382.1,73.5L382.1,73.5z M349.1,77.6c-2.3,0-4.6-0.7-6.6-2
	c-1.2-0.8-2.4-1.6-3.7-2.4c-5.1-3.3-6.8-9.9-4-15.2c0.7-1.4,1.4-2.8,2.1-4.2c2-4,6-6.5,10.5-6.5h3.7c6.4,0,11.7,5.2,11.7,11.7
	c0,1-0.1,2-0.4,3c-0.7,2.5-1.4,5.1-2.2,7.5c-1.1,3.5-3.8,6.3-7.3,7.5C351.7,77.4,350.4,77.6,349.1,77.6L349.1,77.6z"/>
<path class="st0" d="M571.3,138.4c-0.2,0.9-0.3,1.9-0.2,2.8c0,1.7,0.2,3.4,0.7,5c1.3,4.3,3.9,8.2,7.3,11.1c3.5,3,8.1,4.7,12.7,4.7h1
	c8-0.4,14.1-1.8,18.7-4.4c4.5-2.5,7.9-6.5,9.6-11.3c1.5-4.6,2.1-9.5,2-14.3V28.2c0.1-12.6-10.1-22.8-22.6-22.9c-0.1,0-0.2,0-0.3,0
	h-56.1c-6,0-11.8,2.3-16.1,6.5c-3.1-4.6-8.3-7.4-13.9-7.4h-25.4c-4.5,0-8.7,1.7-11.8,4.9c-3.2,3.1-4.9,7.4-4.9,11.9
	c0,2.1,0.4,4.2,1.1,6.2c-1.2,0.7-2.3,1.6-3.3,2.6c-6.7,6.7-6.7,17.5,0,24.1c0.8,0.8,1.7,1.5,2.6,2.2c-0.9,2.1-1.4,4.4-1.4,6.7
	c0,3.8,1.2,7.5,3.6,10.4c-2.3,3-3.6,6.6-3.6,10.4c0,4.4,1.7,8.7,4.9,11.8c0.1,0.1,0.3,0.3,0.4,0.4c-3.7,4.2-5.8,9.6-5.7,15.1v32.1
	c0,4.4,1.7,8.7,4.8,11.8c3.2,3.3,7.5,5.1,12.1,5.1h1.6c4.1,0,8-1.6,10.9-4.5c0.5-0.5,1-1,1.4-1.6h17.5c3.3,2.1,7,3.1,10.9,3.1
	c1.8,0,3.6-0.3,5.4-0.8c6.2-1.4,11.3-5.9,13.3-12c0.6-1.6,1.1-3.3,1.6-5c2.7,1.9,6,3,9.4,2.9h1.8C565,142.4,568.6,141,571.3,138.4z
	 M573.3,107.2c-0.5,0.5-1.1,1-1.7,1.4c-0.6-0.4-1.2-0.9-1.7-1.4c0.5-0.5,1.1-1,1.7-1.4C572.3,106.1,572.8,106.6,573.3,107.2z"/>
<path class="st1" d="M582.9,142.9c0.6,2.2,1.9,4.1,3.7,5.5c1.5,1.2,3.3,1.9,5.2,1.9h0.6c6-0.3,10.5-1.2,13.5-2.9
	c2-1.1,3.6-2.9,4.3-5.1c1-3.4,1.4-6.9,1.3-10.4V28.2c0.1-3-1.1-5.9-3.3-8c-2.1-2.1-4.9-3.2-7.9-3.1h-56.1c-3-0.1-5.8,1.1-7.9,3.2
	c-4.6,4.5-12,4.4-16.5-0.2c-0.5-0.5-0.9-1-1.3-1.6c-0.2-0.3-0.4-0.6-0.7-0.8c-0.9-1-2.2-1.5-3.6-1.5h-25.4c-1.3,0-2.6,0.5-3.5,1.5
	c-1,1-1.5,2.3-1.5,3.7c0,0.7,0.1,1.3,0.3,1.9c2.1,5.3,0,11.3-4.9,14.2c-0.4,0.2-0.8,0.5-1.1,0.9c-2.1,2.1-2.1,5.5,0,7.6
	c0.3,0.3,0.6,0.5,0.9,0.7c4.7,3.1,6.5,9.2,4.2,14.4c-0.3,0.7-0.4,1.4-0.4,2.1c0,1.1,0.3,2.3,1,3.1c3.4,4.3,3.4,10.3,0,14.5
	c-0.7,0.9-1.1,2-1.1,3.2c0,1.3,0.5,2.6,1.5,3.5l0.1,0.1c4.6,4.3,4.9,11.5,0.7,16.3c-1.8,2-2.8,4.6-2.8,7.4v32.1
	c0,1.4,0.5,2.7,1.5,3.7c0.9,1,2.3,1.6,3.7,1.5h1.6c1,0,1.9-0.4,2.6-1.1c0.1-0.1,0.3-0.3,0.4-0.4c2.2-2.9,5.6-4.5,9.3-4.6h17.5
	c2.2,0,4.3,0.6,6.2,1.8c1.4,0.9,3,1.4,4.7,1.4c0.7,0,1.4-0.1,2.1-0.3l0.6-0.2c2.4-0.5,4.3-2.2,5-4.5c0.5-1.4,1-2.9,1.4-4.4
	c1.8-6.2,8.3-9.7,14.5-7.9c1.3,0.4,2.4,0.9,3.5,1.7c0.8,0.5,1.7,0.8,2.6,0.8h1.8c0.7,0,1.5-0.2,2-0.8c4.6-4.5,12-4.4,16.5,0.3
	c2.6,2.7,3.8,6.5,3.1,10.2c0,0.3-0.1,0.5-0.1,0.8C582.7,141.8,582.8,142.3,582.9,142.9z M571.6,120.3c-2.2,0-4.4-0.6-6.2-1.8
	c-1.5-0.9-2.8-2-4-3.3c-4.2-4.5-4.2-11.5,0-16c1.2-1.3,2.5-2.4,4-3.3c3.8-2.4,8.7-2.4,12.5,0c1.5,0.9,2.8,2,4,3.3
	c4.2,4.5,4.2,11.5,0,16c-1.2,1.3-2.5,2.4-4,3.3C576,119.6,573.8,120.3,571.6,120.3L571.6,120.3z M576.3,113.3l1.5,2.4
	c0.2-0.1,0.4-0.3,0.6-0.5L576.3,113.3z M566.9,113.3l-2.1,1.9c0.2,0.2,0.3,0.3,0.5,0.5L566.9,113.3z M565.4,98.7
	c-0.2,0.1-0.4,0.3-0.5,0.4l2.1,1.9L565.4,98.7z M577.9,98.7l-1.5,2.4l2.1-1.9C578.3,99,578.1,98.8,577.9,98.7L577.9,98.7z"/>
<path class="st0" d="M785.1,121.6h-1.3c1.2-3,1.9-6.3,1.8-9.5V84.9c0-0.5,0-0.9-0.1-1.4c0.9-0.2,1.7-0.4,2.6-0.7
	c4.3-1.5,8.2-4.2,11.1-7.8l0.2-0.3c2.3-2.9,3.5-6.5,3.5-10.2c0-1.6-0.2-3.1-0.7-4.6c-1.3-5.1-5.1-9.2-10.1-10.9l-1.9-0.7
	c9.8-2.3,15.9-12.2,13.5-22c-2-8.2-9.2-14-17.6-14h-42.3c-2.8-10-13.2-15.8-23.2-13c-6.3,1.8-11.2,6.7-13,13h-41.1
	c-10.1,0-18.2,8.2-18.2,18.3c0,8.9,6.4,16.4,15.2,17.9c-1.4,0.6-2.8,1.2-4.2,1.7c-5.1,1.9-8.9,6.2-10,11.5l-0.1,0.6
	c-0.2,1.1-0.3,2.2-0.3,3.2c0,3.7,1.3,7.3,3.5,10.2l0.2,0.2c2.9,3.6,6.7,6.2,11.1,7.6c1,0.4,2.1,0.6,3.2,0.8c0,0.1,0,0.3,0,0.4v28
	c0,3,0.5,5.9,1.5,8.7h-1.1c-4.8-0.1-9.5,1.9-12.8,5.4c-3.3,3.4-5.1,7.9-5.1,12.6c0,9.8,7.9,17.8,17.7,17.9c0.1,0,0.1,0,0.2,0h117.8
	c4.7,0,9.3-1.8,12.7-5.1c3.5-3.3,5.4-7.9,5.4-12.8C803.2,129.7,795.1,121.6,785.1,121.6C785.1,121.6,785.1,121.6,785.1,121.6
	L785.1,121.6z"/>
<path class="st1" d="M667.3,133.3c-1.7-0.1-3.3,0.6-4.4,1.8c-1.2,1.2-1.9,2.8-1.8,4.5c-0.1,1.6,0.6,3.2,1.8,4.4
	c1.2,1.2,2.8,1.8,4.5,1.8h117.8c1.7,0,3.3-0.6,4.6-1.8c1.2-1.1,1.9-2.7,1.8-4.4c0-1.7-0.6-3.3-1.8-4.4c-1.2-1.3-2.9-1.9-4.6-1.9
	h-1.3c-6.5,0-11.7-5.2-11.7-11.7c0-1.6,0.3-3.1,0.9-4.5c0.6-1.6,1-3.3,0.9-5V84.9c0,0,0-0.1,0-0.3v-0.4c-0.3-5.8,3.6-11,9.3-12.1
	c0.4-0.1,0.8-0.2,1.2-0.3c2.3-0.8,4.3-2.2,5.8-4.1l0.1-0.1c0.7-0.9,1-1.9,1.1-3c0-0.4-0.1-0.7-0.2-1.1c0-0.1-0.1-0.2-0.1-0.4
	c-0.3-1.4-1.2-2.5-2.6-3l-0.3-0.1l-2.1-0.8c-6-2.3-9.1-9-6.8-15c1.4-3.7,4.5-6.4,8.3-7.3c1.2-0.3,2.3-0.9,3.1-1.8
	c2.6-2.6,2.6-6.7,0-9.3c-1.2-1.2-2.9-1.9-4.7-1.9h-42.3c-5.2,0-9.9-3.5-11.2-8.6c-0.3-1.2-1-2.2-1.8-3.1c-2.8-2.8-7.3-2.7-10,0.1
	c-0.8,0.8-1.4,1.8-1.7,2.9c-1.4,5.1-6,8.6-11.3,8.6h-41.1c-3.6,0.1-6.5,3.2-6.4,6.8c0.1,3,2.3,5.6,5.2,6.2c6.4,1,10.7,7,9.7,13.4
	c-0.6,3.9-3.2,7.2-6.8,8.8c-1.5,0.7-3,1.3-4.5,1.9h-0.1c-1.4,0.4-2.5,1.6-2.7,3.1v0.2c-0.1,0.4-0.1,0.8-0.1,1.2c0,1.1,0.4,2.1,1.1,3
	l0.1,0.1c1.4,1.8,3.4,3.1,5.5,3.8l0.3,0.1c0.4,0.1,0.9,0.3,1.3,0.3c5.7,1,9.8,6,9.7,11.7c0,0.2,0,0.4,0,0.5v27.7
	c0,1.5,0.2,3.1,0.8,4.5c2.3,6-0.7,12.8-6.8,15.1c-1.3,0.5-2.7,0.8-4.2,0.8L667.3,133.3z"/>
<path class="st2" d="M178.1,111c-0.7-0.1-1.4,0.4-1.5,1.1c0,0.1,0,0.2,0,0.4v11.9c0,0.4,0.2,0.8,0.4,1c0.3,0.2,0.7,0.4,1.1,0.4
	c5-0.5,11.1-1.2,18.5-2.1h0.9c1.7,0,3.4,0.6,4.6,1.8c1.7,1.4,2.6,3.5,2.5,5.7c0,4.4-3.3,8.1-7.6,8.6c-4.5,0.6-23.4,3-56.7,7.3h-1.4
	c-1.9,0-3.8-0.6-5.4-1.8c-1.9-1.5-3.1-3.6-3.3-6c-0.1-0.4-0.1-0.8-0.1-1.2c0-1.9,0.7-3.7,1.9-5.2c1.4-1.9,3.6-3.1,6-3.3
	c8.3-0.7,14.7-1.3,19.4-1.8c0.8,0,1.5-0.6,1.5-1.5c0-0.1,0-0.1,0-0.2v-13.8c0.1-0.7-0.4-1.4-1.1-1.5c-0.1,0-0.2,0-0.4,0h-15.1
	c-2.2,0-4.2-0.9-5.7-2.5c-1.6-1.5-2.4-3.6-2.4-5.8c0-2.2,0.8-4.2,2.4-5.8c1.5-1.5,3.5-2.4,5.7-2.4h15.1c0.7,0.1,1.4-0.4,1.5-1.1
	c0-0.1,0-0.2,0-0.4v-9.4c0.1-0.7-0.4-1.4-1.1-1.5c-0.1,0-0.2,0-0.4,0H147c-3.5,0.1-6.8-1.3-9.3-3.8c-2.4-2.4-3.8-5.7-3.7-9.2V30.1
	c-0.1-3.4,1.3-6.8,3.7-9.2c2.4-2.5,5.8-3.9,9.3-3.8h41.8c7.2,0,13,5.8,13,13v39.1c0,7.2-5.8,13-13,13l0,0h-10.7
	c-0.7-0.1-1.4,0.4-1.5,1.1c0,0.1,0,0.2,0,0.4v9.4c-0.1,0.7,0.4,1.4,1.1,1.5c0.1,0,0.2,0,0.4,0h15.7c4.5,0,8.2,3.6,8.2,8.1
	c0,0,0,0,0,0c0,2.2-0.8,4.3-2.4,5.8c-1.5,1.6-3.6,2.5-5.8,2.5L178.1,111z M150.3,31.6c-0.7-0.1-1.4,0.4-1.5,1.1c0,0.1,0,0.3,0,0.4
	v8.4c-0.1,0.7,0.4,1.4,1.1,1.5c0.1,0,0.3,0,0.4,0h8.5c0.7,0.1,1.4-0.4,1.5-1.1c0-0.1,0-0.2,0-0.4v-8.4c0.1-0.7-0.4-1.4-1.1-1.5
	c-0.1,0-0.3,0-0.4,0H150.3z M150.3,56.4c-0.7-0.1-1.4,0.4-1.5,1.1c0,0.1,0,0.3,0,0.4v8.5c-0.1,0.7,0.4,1.4,1.1,1.5
	c0.1,0,0.3,0,0.4,0h8.5c0.7,0.1,1.4-0.4,1.5-1.1c0-0.1,0-0.2,0-0.4v-8.5c0.1-0.7-0.4-1.4-1.1-1.5c-0.1,0-0.2,0-0.4,0H150.3z
	 M184.9,42.9c0.7,0.1,1.4-0.4,1.5-1.1c0-0.1,0-0.2,0-0.4v-8.4c0.1-0.7-0.4-1.4-1.1-1.5c-0.1,0-0.2,0-0.4,0h-8.1
	c-0.7-0.1-1.4,0.4-1.5,1.1c0,0.1,0,0.2,0,0.4v8.4c-0.1,0.7,0.4,1.4,1.1,1.5c0.1,0,0.2,0,0.4,0H184.9z M184.9,67.9
	c0.7,0.1,1.4-0.4,1.5-1.1c0-0.1,0-0.3,0-0.4v-8.5c0.1-0.7-0.4-1.4-1.1-1.5c-0.1,0-0.2,0-0.4,0h-8.1c-0.7-0.1-1.4,0.4-1.5,1.1
	c0,0.1,0,0.2,0,0.4v8.5c-0.1,0.7,0.4,1.4,1.1,1.5c0.1,0,0.3,0,0.4,0H184.9z M259,67c1.5-0.2,3.1-0.1,4.6,0.1l3.7,0.7
	c1.6,0.4,3.1,1.3,4,2.7c0.7,1,1,2.2,1,3.4c0,0.4-0.1,0.9-0.1,1.3c-2.1,9.4-4.3,17.8-6.6,25.4c-0.6,2-1.9,3.7-3.7,4.8
	c-1.3,0.7-2.7,1-4.2,1c-0.6,0-1.2-0.1-1.8-0.1c-1.9-0.4-3.6-1.6-4.6-3.3c-0.7-1.1-1-2.4-1-3.7c0-0.6,0.1-1.2,0.1-1.8
	c0.8-3.5,1.6-7.4,2.5-11.8c0.1-0.4,0-0.8-0.2-1.1c-0.2-0.3-0.6-0.5-1-0.4H245c-0.7-0.1-1.4,0.4-1.5,1.1c0,0.1,0,0.3,0,0.4v47.3
	c0,4.6-0.6,8.1-1.7,10.7c-1.2,2.6-3.4,4.7-6.1,5.9c-3.4,1.7-8.6,2.6-15.7,2.8h-0.4c-2.4,0-4.7-0.8-6.6-2.4c-2.1-1.7-3.6-4-4.3-6.6
	c-0.3-0.7-0.4-1.4-0.4-2.1c0-1.4,0.5-2.7,1.4-3.7c1.1-1.6,3-2.6,4.9-2.5h3.7c1.3,0,2.6,0,3.9-0.1c0.8,0.1,1.7-0.1,2.5-0.5
	c0.5-0.5,0.8-1.3,0.7-2V85.8c0.1-0.7-0.4-1.4-1.1-1.5c-0.1,0-0.3,0-0.4,0h-10c-2.3,0-4.5-0.9-6.1-2.5c-3.3-3.3-3.4-8.6-0.1-12
	c0,0,0.1-0.1,0.1-0.1c1.6-1.7,3.8-2.6,6.1-2.5h21.9c0.2,0,0.3-0.1,0.4-0.4c0.1-0.2,0-0.4-0.1-0.5c-6.4-4.5-13-8.5-19.9-12.2
	c-1.6-0.8-2.8-2.4-3-4.2v-1c0-1.5,0.6-2.9,1.6-3.9c1.6-1.7,3.7-2.8,6-3.3c0.6-0.1,1.3-0.1,1.9-0.2c1.7,0,3.3,0.4,4.8,1.2
	c1.6,0.8,3.1,1.6,4.5,2.2c0.8,0.5,1.8,0.4,2.4-0.3c3.2-3.6,5.9-6.9,8.2-9.9c0.2-0.3,0.2-0.6,0.1-0.9c-0.1-0.3-0.4-0.5-0.7-0.4h-27
	c-4.5,0.2-8.3-3.4-8.4-7.8s3.4-8.3,7.8-8.4c0.2,0,0.4,0,0.6,0h40.1c0.3,0,0.5,0,0.8-0.2c0.6-0.1,1.3-0.2,1.9-0.2
	c1.7,0,3.3,0.5,4.6,1.5l2.8,1.9c1.6,1.2,2.6,2.9,3,4.8c0.1,0.4,0.1,0.9,0.1,1.3c0,1.4-0.5,2.8-1.3,3.9c-5.6,8.2-12.1,15.7-19.3,22.6
	c-0.7,0.7-0.6,1.3,0.1,1.8l7,4.8c1.1,0.9,1.8,2.1,1.9,3.5c0.2,1.4-0.3,2.8-1.3,3.8c0.1,0.3,0.2,0.4,0.3,0.4h2.5
	C258.6,67.2,258.8,67.1,259,67L259,67z"/>
<path class="st3" d="M220.1,162.4h-0.4c-4.6,0-9.1-1.6-12.7-4.5c-2.9-2.3-5.1-5.2-6.6-8.6c-0.6,0.2-1.3,0.3-1.9,0.4
	c-4.5,0.6-23.6,3.1-56.8,7.3c-0.4,0.1-0.8,0.1-1.3,0.1H139c-4,0-7.8-1.3-11.1-3.6l-0.4-0.3c-3.8-2.9-6.3-7.2-6.9-12
	c-0.2-1-0.3-1.9-0.3-2.9c0.2-9.3,7.1-17,16.3-18.3c-2.6-0.9-5-2.5-6.9-4.5c-3.3-3.4-5.2-7.9-5.2-12.7c-0.1-4.8,1.8-9.4,5.2-12.8
	c1-1,2.1-1.9,3.3-2.6c-0.8-0.6-1.6-1.3-2.3-2.1c-4.2-4.3-6.6-10.1-6.6-16.1V30.1c0-6,2.3-11.8,6.6-16.1c4.3-4.4,10.2-6.8,16.3-6.8
	h41.8c5,0,9.9,1.6,13.9,4.7c3.3-3.1,7.7-4.8,12.2-4.7h39.2l0.4-0.1c1.1-0.2,2.2-0.2,3.3-0.2c3.7,0,7.3,1.1,10.3,3.2l2.8,1.9l0.4,0.3
	c3.4,2.6,5.8,6.3,6.7,10.5c0.3,1.1,0.4,2.3,0.4,3.5c0,3.5-1.1,6.9-3.2,9.7c-4,5.8-8.3,11.2-13,16.4c1.5,1.4,2.7,3.1,3.5,5l0,0
	l3.8,0.8l0.3,0.1c4,0.9,7.5,3.2,9.9,6.6c0.1,0.1,0.2,0.3,0.3,0.4c1.7,2.6,2.6,5.6,2.6,8.7c0,1.1-0.1,2.2-0.3,3.3c0,0.1,0,0.1,0,0.2
	c-2.1,9.5-4.4,18.2-6.8,26.1c0,0.1,0,0.2-0.1,0.3c-1.4,4.2-4.2,7.8-8,10.1c-0.2,0.1-0.5,0.3-0.7,0.4c-3.7,1.9-7.9,2.5-12,1.8h-0.3
	l-0.8-0.2v17.2c0,6-0.9,10.9-2.6,14.7c-2.2,4.7-6,8.5-10.8,10.7c-4.7,2.3-11.2,3.6-19.8,3.8H220.1z M217.8,139.6L217.8,139.6z
	 M168.3,130.1c-0.5,1.4-1.2,2.7-2.2,3.8l5-0.6l-0.3-0.3l-0.1-0.1C169.7,132.2,168.8,131.2,168.3,130.1L168.3,130.1z M206,116.2
	c0.9,0.5,1.8,1.2,2.6,1.9l0.1,0.1c2.2,2,3.9,4.4,4.9,7.2h1h0.9V94.2h-1.6c-1.5,0-2.9-0.2-4.4-0.5c1.6,2.7,2.5,5.9,2.4,9.1
	c0,4.7-1.8,9.3-5.1,12.7C206.4,115.7,206.2,115.9,206,116.2L206,116.2z M156.5,118.1h-0.1H156.5z M163.6,102.8
	c1.8,1.1,3.3,2.8,4.2,4.7c0.9-2,2.4-3.6,4.2-4.7c-1.8-1.1-3.3-2.8-4.2-4.7C166.9,100.1,165.4,101.7,163.6,102.8L163.6,102.8z
	 M231.1,77c1.5,1.2,2.6,2.8,3.2,4.5c0.7-1.9,1.9-3.5,3.5-4.8c-0.7,0.2-1.4,0.2-2.2,0.2L231.1,77z M259,77c0.5,0.4,0.9,0.8,1.4,1.3
	l0.2,0.3c0.2,0.3,0.5,0.6,0.7,0.9l0.6-2.7h-0.1c-0.3,0-0.6-0.1-0.9-0.1C260.2,76.9,259.6,77,259,77z M165.6,75.7
	c0.9,0.9,1.6,2,2.2,3.1c0.5-1.2,1.3-2.3,2.2-3.2c-0.8-0.6-1.5-1.3-2.1-2.1C167.2,74.3,166.4,75,165.6,75.7L165.6,75.7z M245.8,68.3
	c0,0.1,0,0.3-0.1,0.4s0,0.1,0,0.1c-0.5,2.3-1.8,4.4-3.6,5.9c0.9-0.2,1.9-0.3,2.9-0.3h4.2c-1.4-1.3-2.4-2.8-3-4.6
	C246,69.3,245.9,68.8,245.8,68.3L245.8,68.3z M158.8,66.3L158.8,66.3z M177.8,62.2c0.8,1.2,1.8,2.3,3.1,3c1.3-0.7,2.3-1.8,3.1-3
	c-0.8-1.2-1.8-2.3-3.1-3C179.7,59.9,178.6,60.9,177.8,62.2L177.8,62.2z M151.7,62.2c0.7,1.2,1.7,2.1,2.9,2.9
	c1.2-0.7,2.2-1.7,2.9-2.9c-0.7-1.2-1.7-2.2-2.9-2.9C153.4,60,152.4,61,151.7,62.2L151.7,62.2z M236.4,54.6l1.2,0.8l-0.1-0.4
	c0-0.2,0-0.5-0.1-0.7C237.1,54.4,236.8,54.5,236.4,54.6L236.4,54.6z M166.8,49.7c0.4,0.4,0.7,0.8,1,1.2c0.3-0.4,0.6-0.8,1-1.2
	c-0.4-0.4-0.7-0.7-1-1.2C167.5,48.9,167.2,49.3,166.8,49.7L166.8,49.7z M158.8,41.5L158.8,41.5z M177.8,37.3
	c0.8,1.3,1.9,2.3,3.2,3.1c1.3-0.8,2.4-1.8,3.1-3.1c-0.8-1.3-1.9-2.3-3.1-3.1C179.6,34.9,178.5,36,177.8,37.3L177.8,37.3z
	 M151.7,37.3c0.7,1.2,1.7,2.2,2.9,3c1.2-0.8,2.2-1.8,2.9-3c-0.7-1.2-1.7-2.2-2.9-3C153.4,35,152.4,36.1,151.7,37.3L151.7,37.3z
	 M249.8,27c0.7,0.7,1.2,1.5,1.7,2.4c0,0,0,0.1,0.1,0.2c0.5,1.1,0.9,2.3,1,3.6c1.7-2.1,3.3-4.2,4.8-6.3h-0.1
	c-0.7,0.1-1.5,0.2-2.3,0.2H249.8z"/>
<path class="st0" d="M205.1,75.7c0,2.3,0.9,4.5,2.5,6.1c1.6,1.7,3.8,2.6,6.1,2.5h10c0.7-0.1,1.4,0.4,1.5,1.1c0,0.1,0,0.3,0,0.4v46.9
	c0.1,0.7-0.1,1.5-0.7,2c-0.8,0.4-1.6,0.5-2.5,0.4c-1.3,0.1-2.6,0.2-3.9,0.1h-3.7c-2-0.1-3.8,0.9-4.9,2.5c-0.9,1.1-1.3,2.4-1.4,3.7
	c0,0.7,0.2,1.4,0.4,2.1c0.7,2.6,2.2,4.9,4.3,6.6c1.8,1.5,4.2,2.4,6.6,2.4h0.5c7.1-0.2,12.3-1.1,15.7-2.8c2.7-1.2,4.8-3.3,6.1-5.9
	c1.1-2.5,1.7-6.1,1.7-10.7V85.8c-0.1-0.7,0.4-1.4,1.1-1.5c0.1,0,0.3,0,0.4,0h6.9c0.4,0,0.8,0.1,1,0.4c0.2,0.3,0.3,0.7,0.2,1.1
	c-0.9,4.4-1.8,8.3-2.5,11.8c-0.1,0.6-0.2,1.2-0.1,1.8c0,1.3,0.3,2.6,1,3.7c1,1.7,2.7,2.9,4.6,3.3c0.6,0.1,1.2,0.1,1.8,0.1
	c1.5,0,2.9-0.3,4.2-1c1.8-1.1,3.1-2.8,3.7-4.8c2.3-7.5,4.5-15.9,6.5-25.2c-22.1-1.3-44.3-2.4-66.5-3
	C205.3,73.6,205.1,74.6,205.1,75.7z"/>
<path class="st4" d="M201.8,30.1c0-7.2-5.8-13-13-13H147c-3.5-0.1-6.8,1.3-9.3,3.8c-2.4,2.4-3.8,5.7-3.7,9.2v39.1
	c0,1.3,0.2,2.5,0.6,3.7c22.4-1,44.6-1.1,66.8-0.5c0.3-1,0.4-2.1,0.4-3.2V30.1z M160.3,66.4c0.1,0.7-0.4,1.4-1.1,1.5
	c-0.1,0-0.2,0-0.4,0h-8.5c-0.7,0.1-1.4-0.4-1.5-1.1c0-0.1,0-0.3,0-0.4v-8.5c-0.1-0.7,0.4-1.4,1.1-1.5c0.1,0,0.3,0,0.4,0h8.5
	c0.7-0.1,1.4,0.4,1.5,1.1c0,0.1,0,0.2,0,0.4V66.4z M160.3,41.5c0.1,0.7-0.4,1.4-1.1,1.5c-0.1,0-0.2,0-0.4,0h-8.5
	c-0.7,0.1-1.4-0.4-1.5-1.1c0-0.1,0-0.3,0-0.4v-8.4c-0.1-0.7,0.4-1.4,1.1-1.5c0.1,0,0.3,0,0.4,0h8.5c0.7-0.1,1.4,0.4,1.5,1.1
	c0,0.1,0,0.3,0,0.4V41.5z M186.4,66.4c0.1,0.7-0.4,1.4-1.1,1.5c-0.1,0-0.3,0-0.4,0h-8.1c-0.7,0.1-1.4-0.4-1.5-1.1c0-0.1,0-0.3,0-0.4
	v-8.5c-0.1-0.7,0.4-1.4,1.1-1.5c0.1,0,0.2,0,0.4,0h8.1c0.7-0.1,1.4,0.4,1.5,1.1c0,0.1,0,0.2,0,0.4L186.4,66.4z M186.4,41.5
	c0.1,0.7-0.4,1.4-1.1,1.5c-0.1,0-0.2,0-0.4,0h-8.1c-0.7,0.1-1.4-0.4-1.5-1.1c0-0.1,0-0.2,0-0.4v-8.4c-0.1-0.7,0.4-1.4,1.1-1.5
	c0.1,0,0.2,0,0.4,0h8.1c0.7-0.1,1.4,0.4,1.5,1.1c0,0.1,0,0.2,0,0.4L186.4,41.5z"/>
<path class="st0" d="M134.6,73c0.6,2.1,1.7,3.9,3.2,5.5c2.4,2.5,5.8,3.9,9.3,3.8h10.4c0.7-0.1,1.4,0.4,1.5,1.1c0,0.1,0,0.2,0,0.4
	v9.4c0.1,0.7-0.4,1.4-1.1,1.5c-0.1,0-0.2,0-0.4,0h-15.1c-2.1,0-4.2,0.8-5.7,2.4c-1.6,1.5-2.4,3.6-2.4,5.8c0,2.2,0.8,4.3,2.4,5.8
	c1.5,1.6,3.5,2.5,5.7,2.4h15.1c0.7-0.1,1.4,0.4,1.5,1.1c0,0.1,0,0.2,0,0.4v13.7c0.1,0.8-0.5,1.5-1.3,1.6c-0.1,0-0.1,0-0.2,0
	c-4.7,0.5-11.1,1.1-19.4,1.8c-2.4,0.2-4.6,1.4-6,3.3c-1.2,1.5-1.9,3.3-1.9,5.2c0,0.4,0,0.8,0.1,1.2c0.2,2.4,1.4,4.5,3.3,6
	c1.6,1.2,3.4,1.8,5.4,1.8h1.4c33.3-4.3,52.2-6.7,56.7-7.3c4.4-0.6,7.6-4.3,7.6-8.6c0-2.2-0.9-4.3-2.5-5.7c-1.3-1.2-2.9-1.8-4.6-1.8
	h-0.9c-7.4,0.9-13.5,1.6-18.5,2.1c-0.4,0-0.8-0.1-1.1-0.4c-0.3-0.2-0.5-0.6-0.4-1v-11.9c-0.1-0.7,0.4-1.4,1.1-1.5c0.1,0,0.3,0,0.4,0
	h15.7c2.2,0,4.3-0.9,5.8-2.5c1.5-1.5,2.4-3.6,2.4-5.8c0-4.5-3.7-8.2-8.2-8.1c0,0,0,0,0,0h-15.7c-0.7,0.1-1.4-0.4-1.5-1.1
	c0-0.1,0-0.2,0-0.4v-9.4c-0.1-0.7,0.4-1.4,1.1-1.5c0.1,0,0.2,0,0.4,0h10.8c5.9,0,11.1-4,12.6-9.8C179.2,71.9,156.9,72,134.6,73z"/>
<path class="st4" d="M272.4,74c0-1.2-0.4-2.4-1-3.4c-0.9-1.4-2.4-2.3-4-2.7l-3.7-0.7c-1.5-0.3-3.1-0.3-4.6-0.1
	c-0.2,0.1-0.4,0.1-0.6,0.1h-2.5c-0.1,0-0.2-0.2-0.3-0.4c1-1,1.4-2.4,1.3-3.8c-0.1-1.4-0.8-2.6-1.9-3.5l-7-4.8
	c-0.8-0.5-0.9-1.1-0.1-1.8c7.2-6.8,13.6-14.4,19.2-22.6c0.9-1.1,1.3-2.5,1.3-3.9c0-0.5,0-0.9-0.1-1.3c-0.4-1.9-1.4-3.6-3-4.8
	l-2.8-1.9c-1.3-1-3-1.5-4.6-1.5c-0.6,0-1.3,0.1-1.9,0.2c-0.2,0.1-0.5,0.2-0.7,0.2h-40.2c-4.5-0.2-8.3,3.4-8.4,7.8s3.4,8.3,7.8,8.4
	c0.2,0,0.4,0,0.6,0h27c0.3,0,0.6,0.2,0.7,0.4c0.1,0.3,0.1,0.6-0.1,0.9c-2.3,3-5,6.3-8.2,9.9c-0.6,0.7-1.6,0.8-2.4,0.3l-4.5-2.2
	c-1.5-0.8-3.1-1.2-4.8-1.2c-0.6,0-1.3,0.1-1.9,0.2c-2.3,0.5-4.4,1.6-6,3.3c-1.1,1-1.6,2.4-1.6,3.9v1c0.2,1.8,1.4,3.4,3,4.2
	c6.9,3.7,13.5,7.8,19.9,12.2c0.1,0.1,0.1,0.3,0.1,0.5c-0.1,0.2-0.2,0.4-0.4,0.4h-21.9c-2.3,0-4.5,0.9-6.1,2.5
	c-0.8,0.8-1.5,1.8-1.9,2.9c22.2,0.6,44.4,1.7,66.5,3c0-0.1,0-0.1,0-0.2C272.4,74.9,272.4,74.5,272.4,74z"/>
<path class="st2" d="M400.1,13.2c3.7-3.7,9.7-3.7,13.4,0c1.8,1.8,2.8,4.2,2.8,6.7v60.3c0,0.9,0.3,1.8,1,2.4
	c6.7,5.7,13.9,10.7,21.5,14.9c2.1,1.1,3.6,3.2,4,5.5c0.1,0.5,0.1,1.1,0.1,1.6c0,1.9-0.7,3.7-1.9,5.1c-1.8,2.3-4.3,3.8-7.2,4.5
	c-0.8,0.1-1.6,0.1-2.4,0.1c-1.9,0-3.8-0.5-5.5-1.5c-2.9-1.9-5.7-3.9-8.5-6c-0.3-0.3-0.8-0.2-1,0.1c-0.1,0.1-0.2,0.3-0.2,0.5v35.7
	c0,5.2-4.3,9.5-9.5,9.5s-9.5-4.3-9.5-9.5V89.7c0-1-0.4-1.9-1-2.5c-6.2-7-11.8-14.4-16.9-22.2c-0.1-0.3-0.3-0.4-0.6-0.4c0,0,0,0,0,0
	c-0.3,0-0.5,0.2-0.6,0.5c-10.1,37-27.1,64.1-51.1,81.1c-1.8,1.2-3.9,1.9-6.1,1.9c-0.6,0-1.1-0.1-1.6-0.2c-2.8-0.4-5.4-1.7-7.5-3.7
	c-1.5-1.3-2.4-3.2-2.4-5.2c-0.1-2.5,1.1-4.8,3.3-6.1c13-8.6,24-19.9,32-33.3c0.5-0.6,0.5-1.5-0.1-2c-0.1-0.1-0.2-0.1-0.2-0.2
	c-6.6-5.7-13.5-11-20.8-15.8c-0.6-0.4-1.4-0.3-1.8,0.3c-0.2,0.3-0.5,0.6-0.7,0.9c-1.5,2-3.9,3.3-6.4,3.4h-0.6
	c-2.4,0-4.7-0.8-6.6-2.4c-1.9-1.4-3.1-3.5-3.3-5.8V77c0-2.1,0.7-4.1,2.1-5.7c11.5-13.1,20.4-30.6,26.9-52.4c0.6-2.4,2.2-4.5,4.3-5.8
	c1.5-1,3.3-1.5,5.1-1.5c0.6,0,1.3,0,1.9,0.1c2.4,0.4,4.4,1.8,5.7,3.9c0.9,1.3,1.3,2.8,1.3,4.3c0,0.9-0.2,1.7-0.5,2.5
	c-0.8,2.8-1.7,5.6-2.7,8.4c-0.1,0.3,0,0.6,0.1,0.9c0.2,0.3,0.5,0.5,0.9,0.4h20.2c0.7-0.2,1.4-0.3,2.1-0.3c1.2,0,2.3,0.2,3.4,0.6
	l3.3,1.2c1.7,0.6,3,1.7,3.9,3.3c0.7,1.1,1.1,2.4,1,3.7v1.2l-1.2,6.6c0,0.1,0.1,0.2,0.1,0.3c0.1,0.1,0.2,0.1,0.3,0c0,0,0,0,0,0
	c1.4-0.5,3-0.5,4.4,0.1c1.4,0.5,2.6,1.5,3.4,2.8c1.9,3.1,3.9,6,6,8.8c0.1,0.2,0.3,0.2,0.5,0.1s0.4-0.2,0.4-0.4V19.8
	C397.2,17.3,398.3,14.9,400.1,13.2z M363.3,51c0.1-0.4,0-0.8-0.2-1.1c-0.2-0.3-0.6-0.5-1-0.4h-19.4c-0.9-0.1-1.8,0.5-2.1,1.4
	c-2.3,5-4.9,10-7.8,15.1c-0.5,0.6-0.4,1.5,0.2,2c0.1,0.1,0.1,0.1,0.2,0.1c6.7,4,13.2,8.3,19.4,13.1c0.3,0.2,0.7,0.3,1,0.1
	c0.3-0.1,0.6-0.3,0.8-0.6C358.3,71.1,361.2,61.2,363.3,51z"/>
<path class="st3" d="M406.8,162.4c-10.7,0-19.3-8.6-19.3-19.2c0,0,0,0,0,0V92.1c-1.8-2.1-3.6-4.3-5.4-6.5
	c-11,30.2-27.5,53.2-49.2,68.6l-0.4,0.2c-3.4,2.3-7.4,3.5-11.5,3.5c-1.1,0-2.2-0.1-3.3-0.3c-4.7-0.7-9.1-2.9-12.5-6.2
	c-7-6.3-7.5-17-1.3-24c1-1.2,2.2-2.2,3.5-3c9.8-6.4,18.3-14.7,25-24.4c-2.7-2.1-5.6-4.4-8.9-6.7c-2.5,1.5-5.3,2.3-8.2,2.5
	c-0.2,0-0.5,0-0.7,0h-0.6c-4.6,0-9.1-1.6-12.7-4.5c-4.1-3-6.6-7.7-7-12.7c0-0.3,0-0.6,0-0.8V77c0-4.4,1.5-8.6,4.4-12l0.2-0.2
	c10.5-12,18.8-28.4,24.8-48.7c1.3-4.7,4.3-8.8,8.5-11.4l0.1-0.1c3.1-2,6.7-3,10.3-3c1.2,0,2.4,0.1,3.5,0.3l0.4,0.1
	c5,0.9,9.4,4,12.1,8.3c1.8,2.9,2.8,6.2,2.9,9.6c0,0.8-0.1,1.6-0.2,2.4h7.3c3.4-0.6,6.9-0.3,10.1,0.9l3.1,1.2c2.1,0.7,4,1.8,5.6,3.3
	v-7.9c0-10.7,8.7-19.4,19.4-19.4s19.4,8.7,19.4,19.4V77c5.5,4.4,11.3,8.4,17.5,11.8c4.7,2.5,7.9,7,8.9,12.2c0,0.1,0,0.2,0.1,0.4
	c0.2,1.1,0.3,2.1,0.3,3.2c0,4.1-1.5,8.2-4.2,11.3c-3.2,3.9-7.6,6.7-12.5,7.8c-0.4,0.1-0.8,0.2-1.2,0.3c-3,0.4-6.1,0.3-9-0.5v19.7
	C426.1,153.9,417.4,162.5,406.8,162.4C406.7,162.5,406.7,162.5,406.8,162.4L406.8,162.4z M318.2,141.1L318.2,141.1z M434.1,106.1
	L434.1,106.1z M403.5,80.4c2.4,2.5,3.7,5.8,3.7,9.3v13.7c2.1-5.1,7.7-7.7,13-6.1c-3.2-2.3-6.3-4.7-9.3-7.3c-2.9-2.5-4.6-6.1-4.5-9.9
	V64c-1.1,2.6-3.2,4.7-5.9,5.7c-1.7,0.7-3.5,0.9-5.2,0.6C397.9,73.9,400.7,77.3,403.5,80.4z M352.3,91.2c1.7,1.9,2.7,4.4,2.7,7
	c1.5-2.8,2.8-5.7,4.1-8.6c-0.8,0.5-1.7,0.9-2.7,1.2C355.2,91.2,353.7,91.3,352.3,91.2z M336.5,94.1L336.5,94.1z M354.5,80.7
	L354.5,80.7z M313.6,76.5L313.6,76.5z M322.7,66.2c-1.4,2.2-2.9,4.2-4.5,6.2c1.7-0.8,3.5-1.1,5.4-1C322.9,69.8,322.5,68,322.7,66.2
	L322.7,66.2z M370.1,68L370.1,68z M345.3,63.8c1.3,0.8,2.6,1.7,3.9,2.6c0.7-2.3,1.4-4.6,2-7h-3.7C346.7,60.9,346,62.4,345.3,63.8
	L345.3,63.8z M373,53.1c-0.3,1.4-0.6,2.7-0.9,4c0.9-0.8,1.9-1.4,3-1.8c-0.8-0.9-1.5-2-2-3.1C373,52.5,373,52.8,373,53.1L373,53.1z
	 M405.3,56L405.3,56z M349.6,54.9L349.6,54.9z M369.1,42c0.6,0.5,1.1,1,1.6,1.6c0.8,1,1.4,2.1,1.9,3.2v-0.1c0.3-1.5,0.5-2.9,0.8-4.4
	l-1.4-0.5c-0.7,0.2-1.5,0.3-2.2,0.2L369.1,42z M338.9,33.5c-1.1,2.9-2.1,5.6-3.3,8.4c2.1-1.5,4.5-2.3,7.1-2.2
	c-0.9-0.7-1.6-1.5-2.2-2.5C339.7,36.1,339.1,34.8,338.9,33.5L338.9,33.5z M400.1,13.2L400.1,13.2z"/>
<path class="st0" d="M396.3,87.2c0.7,0.7,1.1,1.6,1,2.5v53.5c0,5.2,4.3,9.5,9.5,9.5s9.5-4.3,9.5-9.5v-35.7c0-0.4,0.3-0.7,0.7-0.8
	c0.2,0,0.4,0.1,0.5,0.2c2.8,2.1,5.6,4.1,8.5,6c1.7,1,3.6,1.5,5.5,1.5c0.8,0,1.6-0.1,2.4-0.1c2.8-0.7,5.3-2.2,7.2-4.5
	c1.2-1.4,1.9-3.2,1.9-5.1c0-0.5-0.1-1.1-0.1-1.6c-0.4-2.4-1.9-4.4-4-5.5c-7.7-4.2-14.9-9.2-21.5-14.9c-0.2-0.2-0.4-0.5-0.6-0.8
	c-8.5-0.1-17-0.4-25.5-0.7C392.9,83.1,394.6,85.3,396.3,87.2z"/>
<path class="st4" d="M416.3,19.8c0-5.2-4.3-9.5-9.5-9.5s-9.5,4.3-9.5,9.5v40.3c0,0.2-0.1,0.4-0.4,0.4s-0.4,0.1-0.5-0.1
	c-2.1-2.8-4.1-5.7-6-8.8c-0.8-1.3-2-2.2-3.4-2.8c-1.4-0.5-3-0.6-4.4-0.1c-0.1,0.1-0.2,0.1-0.3,0c0,0,0,0,0,0
	c-0.1-0.1-0.1-0.2-0.1-0.3c0.4-2.2,0.8-4.4,1.2-6.6v-1.2c0-1.3-0.3-2.6-1-3.7c-0.8-1.5-2.2-2.7-3.9-3.3l-3.3-1.2
	c-1.1-0.4-2.3-0.6-3.4-0.6c-0.7,0-1.4,0.1-2.1,0.3h-20.1c-0.4,0-0.7-0.1-0.9-0.4c-0.2-0.3-0.2-0.6-0.1-0.9c1-2.8,1.9-5.6,2.7-8.4
	c0.3-0.8,0.4-1.7,0.5-2.5c0-1.5-0.5-3.1-1.3-4.3c-1.2-2.1-3.3-3.5-5.7-3.9c-0.6-0.1-1.3-0.1-1.9-0.1c-1.8,0-3.6,0.5-5.1,1.5
	c-2.1,1.3-3.7,3.4-4.3,5.8c-6.5,21.8-15.4,39.3-26.9,52.4c-1.2,1.5-1.9,3.3-2,5.2c15.2,0.9,30.4,1.8,45.6,2.7
	c-5.4-4-10.9-7.8-16.7-11.2c-0.7-0.4-0.9-1.2-0.6-1.9c0-0.1,0.1-0.1,0.1-0.2c2.9-5.1,5.5-10.1,7.8-15.1c0.3-0.9,1.2-1.4,2.1-1.3
	h19.4c0.4,0,0.8,0.1,1,0.4c0.2,0.3,0.3,0.7,0.2,1c-2,9.7-4.8,19.2-8.3,28.5c6.1,0.3,12.3,0.6,18.5,0.9c1.7-4.9,3.4-10,4.8-15.3
	c0.1-0.3,0.3-0.5,0.6-0.5c0.3-0.1,0.5,0.1,0.6,0.3c0,0,0,0,0,0c3.7,5.6,7.6,11,11.9,16.2c8.5,0.3,17,0.5,25.5,0.7
	c-0.3-0.5-0.5-1.1-0.5-1.6L416.3,19.8z"/>
<path class="st0" d="M354.5,80.7c-0.2,0.3-0.5,0.5-0.8,0.6c-0.3,0.1-0.7,0.1-1-0.1c-0.9-0.7-1.8-1.3-2.7-2
	c-15.2-0.8-30.4-1.8-45.6-2.7c0,0.2-0.1,0.3-0.1,0.5v0.9c0.2,2.3,1.4,4.5,3.3,5.8c1.8,1.6,4.2,2.4,6.6,2.4h0.6
	c2.5-0.1,4.9-1.4,6.4-3.4c0.3-0.3,0.5-0.6,0.7-0.9c0.4-0.6,1.2-0.7,1.8-0.3c7.2,4.8,14.2,10.1,20.8,15.8c0.7,0.4,0.9,1.3,0.5,2
	c-0.1,0.1-0.1,0.2-0.2,0.2c-8,13.4-19,24.8-32,33.3c-2.1,1.3-3.4,3.6-3.3,6.1c0,2,0.8,3.9,2.4,5.2c2,2,4.6,3.3,7.5,3.7
	c0.5,0.1,1.1,0.2,1.6,0.2c2.2,0,4.3-0.7,6.1-1.9c20.5-14.6,35.9-36.5,46.2-65.8c-6.1-0.3-12.3-0.6-18.5-0.9
	C354.8,79.9,354.6,80.3,354.5,80.7z"/>
<path class="st2" d="M518,35.3c4-0.1,7.3,2.9,7.4,6.9c0.1,4-2.9,7.3-6.9,7.4c-0.2,0-0.4,0-0.5,0h-36.1c-4,0.1-7.3-2.9-7.4-6.9
	c-0.1-4,2.9-7.3,6.9-7.4c0.2,0,0.4,0,0.5,0H518z M600.3,15.6c3.4-0.1,6.8,1.3,9.2,3.7c2.5,2.4,3.9,5.8,3.8,9.3v103.8
	c0.1,3.7-0.3,7.4-1.4,11c-0.9,2.6-2.8,4.7-5.2,6c-3.2,1.8-8,2.8-14.3,3.1h-0.6c-2.4,0-4.6-0.8-6.4-2.4c-2-1.7-3.4-3.9-4.2-6.4
	c-0.2-0.7-0.3-1.4-0.3-2.1c0-1.4,0.5-2.8,1.3-3.9c1.1-1.7,3.1-2.6,5.1-2.5c1.1,0,2.4,0,3.8-0.1s2.3-0.1,2.5-0.1
	c1.2,0.3,2.5-0.4,2.8-1.6c0.1-0.4,0.1-0.8,0-1.2V32.5c0.1-0.7-0.4-1.4-1.1-1.5c-0.1,0-0.3,0-0.4,0h-45.9c-0.7-0.1-1.4,0.4-1.5,1.1
	c0,0.1,0,0.3,0,0.4v39.9c0,12.8-0.6,25.1-1.8,37c-1,11-3.2,21.8-6.7,32.3c-1,3-3.5,5.2-6.6,5.7c-0.9,0.3-1.9,0.5-2.8,0.5
	c-2.2,0-4.3-0.7-6.1-2c-0.3-0.2-0.7-0.4-1-0.6c-0.9-0.4-1.9-0.6-2.8-0.6h-24.5c-0.3,0-0.6,0.2-0.6,0.4c0,0.1,0,0.1,0,0.2
	c-0.1,3-2.5,5.5-5.5,5.5h-1.5c-1.9,0-3.7-0.7-5-2.1c-1.3-1.3-2-3.1-2-4.9v-32.1c0-7.2,5.8-13,13-13l0,0h14.6c7.2,0,13,5.8,13,13l0,0
	v27.9c0,0.2,0.1,0.3,0.2,0.4c0.2,0,0.3,0,0.4-0.2c4.1-9.5,6.6-19.6,7.6-29.9c1.3-12.4,1.9-24.9,1.8-37.4V28.6
	c-0.1-3.5,1.3-6.8,3.8-9.3c2.4-2.4,5.7-3.8,9.2-3.7L600.3,15.6z M514.6,56.5c3.8,0,6.9,3.1,6.9,6.9c0,0,0,0,0,0c0,1.8-0.7,3.6-2,4.9
	c-1.3,1.3-3,2-4.8,2h-26.8c-1.8,0-3.6-0.7-4.9-2c-2.7-2.7-2.7-7.1,0-9.8c1.3-1.3,3-2,4.9-2L514.6,56.5z M487.7,91
	c-3.7,0.1-6.7-2.8-6.7-6.5c0-0.1,0-0.1,0-0.2c0-1.8,0.7-3.6,1.9-4.9c1.2-1.3,3-2,4.8-2h27c1.8,0,3.5,0.7,4.7,2c1.3,1.3,2,3,2,4.9
	c0,1.8-0.7,3.5-2,4.8c-1.2,1.2-2.9,1.9-4.7,1.9L487.7,91z M514.1,14.7c1.8,0,3.6,0.7,4.8,2c2.7,2.7,2.7,7.1,0,9.9
	c-1.3,1.3-3,2-4.8,2h-25.4c-1.8,0-3.6-0.7-4.9-2c-2.7-2.7-2.7-7.1,0-9.9c1.3-1.3,3-2,4.9-2H514.1z M505.1,130.5
	c0.7,0.1,1.4-0.4,1.5-1.1c0-0.1,0-0.2,0-0.4v-14.6c0.1-0.7-0.4-1.4-1.1-1.5c-0.1,0-0.2,0-0.4,0h-9.1c-0.7-0.1-1.4,0.4-1.5,1.1
	c0,0.1,0,0.3,0,0.4V129c-0.1,0.7,0.4,1.4,1.1,1.5c0.1,0,0.3,0,0.4,0L505.1,130.5z M554,77.5c-2.6-2.6-2.6-6.8,0-9.4
	c1.2-1.3,2.9-2,4.6-2h4.5c0.9,0,1.3-0.4,1.3-1.2V57c0.1-0.6-0.3-1.1-0.9-1.2c-0.1,0-0.2,0-0.3,0h-4c-3.6,0-6.6-2.9-6.6-6.6
	c0-3.6,2.9-6.6,6.6-6.6h4.2c0.5,0,1-0.3,1-0.9c0,0,0-0.1,0-0.1v-1.8c0-3.9,3.2-7.1,7.1-7.1c3.9,0,7.1,3.2,7.1,7.1c0,0,0,0,0,0v1.8
	c0,0.5,0.3,1,0.9,1c0,0,0.1,0,0.1,0h4.5c3.6,0,6.6,2.9,6.6,6.6c0,3.6-2.9,6.6-6.6,6.6h-4.3c-0.6-0.1-1.1,0.3-1.2,0.9
	c0,0.1,0,0.2,0,0.3v7.8c-0.1,0.7,0.4,1.3,1,1.3c0.1,0,0.2,0,0.3,0h5.2c1.8,0,3.4,0.7,4.6,2c2.6,2.6,2.6,6.8,0,9.4c0,0,0,0,0,0
	c-1.2,1.3-2.9,2-4.6,2h-26.5C556.9,79.6,555.2,78.8,554,77.5L554,77.5z M590.6,114.8c0,7.2-5.8,13-13,13l0,0h-11.2
	c-0.3,0-0.6,0.2-0.6,0.5c0,0,0,0.1,0,0.1c0,2.5-2,4.6-4.5,4.7c0,0-0.1,0-0.1,0h-1.8c-1.7,0-3.4-0.6-4.6-1.9
	c-1.2-1.2-1.9-2.8-1.9-4.5v-26.3c0-7.2,5.8-13,13-13h11.7c7.2,0,13,5.8,13,13L590.6,114.8z M577.4,102c0.1-0.7-0.4-1.4-1.1-1.5
	c-0.1,0-0.3,0-0.4,0h-8.7c-0.7-0.1-1.4,0.4-1.5,1.1c0,0.1,0,0.2,0,0.4v11.3c-0.1,0.7,0.4,1.4,1.1,1.5c0.1,0,0.2,0,0.4,0h8.7
	c0.7,0.1,1.4-0.4,1.5-1.1c0-0.1,0-0.3,0-0.4V102z"/>
<path class="st3" d="M592.4,162.4h-0.6c-4.7,0-9.2-1.7-12.7-4.7c-3.5-2.9-6-6.8-7.3-11.1c0-0.1,0-0.1,0-0.1
	c-0.5-1.6-0.7-3.2-0.7-4.8c0-1,0.1-1.9,0.2-2.8c-2.7,2.6-6.3,4.1-10.1,4.1h-1.8c-3.4,0-6.6-1-9.4-2.9c-0.5,1.7-1,3.3-1.6,4.9
	c-2,6.1-7.1,10.6-13.3,12c-1.8,0.5-3.6,0.8-5.4,0.8c-3.9,0-7.6-1.1-10.9-3.1h-17.6c-0.4,0.6-0.9,1.1-1.4,1.6
	c-2.9,2.9-6.8,4.5-10.8,4.5h-1.5c-4.6,0.1-8.9-1.8-12.1-5.1c-3.1-3.1-4.8-7.4-4.8-11.8v-32.1c0-5.6,2-11,5.7-15.1
	c-0.1-0.1-0.3-0.3-0.4-0.4c-3.2-3.1-5-7.3-4.9-11.8c0-3.8,1.2-7.5,3.6-10.4c-2.4-3-3.6-6.6-3.6-10.4c0-2.3,0.5-4.6,1.4-6.7
	c-0.9-0.6-1.8-1.4-2.6-2.2c-6.7-6.7-6.7-17.5,0-24.2c1-1,2.1-1.9,3.3-2.6c-0.8-2-1.1-4.1-1.1-6.2c0-9.3,7.4-16.8,16.7-16.8
	c0,0,0,0,0.1,0h25.4c4.5,0,8.7,1.7,11.8,4.9c0.8,0.8,1.5,1.6,2.1,2.5c4.3-4.2,10.1-6.6,16.1-6.5h56.2c12.6-0.1,22.8,10.1,22.9,22.6
	c0,0.1,0,0.2,0,0.3v103.8c0,5.9-0.7,10.6-2,14.3c-1.7,4.8-5.1,8.8-9.6,11.3c-4.6,2.6-10.7,4-18.7,4.4L592.4,162.4z M569.9,107.6
	c0.5,0.5,1.1,1,1.7,1.4c0.6-0.4,1.2-0.9,1.7-1.4c-0.5-0.5-1.1-1-1.7-1.4C571,106.6,570.4,107.1,569.9,107.6L569.9,107.6z
	 M514.7,87.3L514.7,87.3z M514.6,66.4L514.6,66.4z M571.3,49.3c0.1,0.1,0.2,0.2,0.3,0.3c0.1-0.1,0.2-0.2,0.3-0.3l-0.3-0.3
	L571.3,49.3z M518,45.2L518,45.2z M514.1,24.6L514.1,24.6z"/>
<path class="st0" d="M590.6,114.8v-14.5c0-7.2-5.8-13-13-13H566c-7.2,0-13,5.8-13,13v26.3c0,1.7,0.6,3.4,1.9,4.5
	c1.2,1.2,2.8,1.9,4.6,1.9h1.8c2.5,0,4.6-2,4.6-4.5c0,0,0-0.1,0-0.1c0-0.3,0.2-0.6,0.5-0.6c0,0,0.1,0,0.1,0h11.2
	C584.8,127.8,590.6,122,590.6,114.8L590.6,114.8z M577.5,113.3c0.1,0.7-0.4,1.4-1.1,1.5c-0.1,0-0.2,0-0.4,0h-8.7
	c-0.7,0.1-1.4-0.4-1.5-1.1c0-0.1,0-0.2,0-0.4V102c-0.1-0.7,0.4-1.4,1.1-1.5c0.1,0,0.2,0,0.4,0h8.7c0.7-0.1,1.4,0.4,1.5,1.1
	c0,0.1,0,0.2,0,0.4V113.3z"/>
<path class="st4" d="M487.9,56.6c-1.8,0-3.6,0.7-4.9,2c-2.7,2.7-2.7,7.1,0,9.8c1.3,1.3,3,2,4.9,2h26.7c1.8,0,3.6-0.7,4.8-2
	c2.7-2.7,2.7-7.1,0-9.8c-1.3-1.3-3-2-4.8-2H487.9z"/>
<path class="st4" d="M488.7,28.6h25.4c1.8,0,3.6-0.7,4.8-2c2.7-2.8,2.6-7.2-0.1-9.9c-1.3-1.2-2.9-1.9-4.7-2h-25.4
	c-1.8,0-3.6,0.7-4.9,2c-2.7,2.7-2.7,7.1,0,9.9C485.2,27.9,486.9,28.6,488.7,28.6z"/>
<path class="st4" d="M481.9,49.7H518c4,0.1,7.3-2.9,7.4-6.9c0.1-4-2.9-7.3-6.9-7.4c-0.2,0-0.4,0-0.5,0h-36.1c-4-0.1-7.3,2.9-7.4,6.9
	c-0.1,4,2.9,7.3,6.9,7.4C481.5,49.7,481.7,49.7,481.9,49.7z"/>
<path class="st4" d="M585.2,66.1H580c-0.7,0.1-1.3-0.4-1.3-1c0-0.1,0-0.2,0-0.3V57c-0.1-0.6,0.3-1.1,0.9-1.2c0.1,0,0.2,0,0.3,0h4.3
	c3.6,0,6.6-2.9,6.6-6.6c0-3.6-2.9-6.6-6.6-6.6h-4.5c-0.5,0-1-0.3-1-0.9c0,0,0-0.1,0-0.1v-1.8c0-1.9-0.7-3.7-2.1-5.1
	c-2.8-2.8-7.3-2.7-10,0c-1.3,1.3-2.1,3.2-2.1,5.1v1.8c0,0.5-0.3,1-0.9,1c0,0-0.1,0-0.1,0h-4.2c-3.6,0-6.6,2.9-6.6,6.6
	c0,3.6,2.9,6.6,6.6,6.6h4c0.6-0.1,1.1,0.3,1.2,0.9c0,0.1,0,0.2,0,0.3v7.9c0,0.8-0.5,1.2-1.3,1.2h-4.5c-1.8,0-3.4,0.7-4.6,2
	c-1.3,1.2-2,2.9-1.9,4.7c0,0.9,0.2,1.7,0.5,2.6c9.5-1.3,19.1-2.9,28.7-4.8c3.2-0.4,6.4-0.7,9.6-0.9c-0.3-0.6-0.6-1.1-1-1.5
	C588.7,66.8,587,66.1,585.2,66.1z"/>
<path class="st0" d="M596.4,69.3v63c0.3,1.2-0.4,2.5-1.6,2.8c-0.4,0.1-0.8,0.1-1.2,0c-0.2,0-1,0-2.5,0.1s-2.7,0.1-3.8,0.1
	c-2-0.1-3.9,0.9-5.1,2.5c-0.9,1.1-1.3,2.5-1.3,3.9c0,0.7,0.1,1.4,0.3,2.1c0.7,2.5,2.2,4.7,4.2,6.4c1.8,1.5,4.1,2.4,6.4,2.4h0.6
	c6.4-0.3,11.2-1.3,14.3-3.1c2.4-1.3,4.2-3.4,5.2-6c1.1-3.6,1.6-7.3,1.4-11V69C607.7,68.9,602.1,69,596.4,69.3z"/>
<path class="st4" d="M609.5,19.4c-2.4-2.4-5.7-3.8-9.2-3.7h-56.1c-3.4-0.1-6.8,1.3-9.2,3.7c-2.5,2.4-3.9,5.8-3.8,9.3v43.8
	c0,1.9,0,3.7-0.1,5.6c5.5-0.6,10.9-1.2,16.4-1.9c0-1.2,0.1-2.4,0.1-3.7V32.5c-0.1-0.7,0.4-1.4,1.1-1.5c0.1,0,0.2,0,0.4,0h45.8
	c0.7-0.1,1.4,0.4,1.5,1.1c0,0.1,0,0.3,0,0.4v36.8c5.6-0.3,11.2-0.4,16.9-0.3V28.6C613.4,25.1,612,21.8,609.5,19.4z"/>
<path class="st0" d="M552.6,75.4c0.3,0.8,0.8,1.5,1.4,2.1c1.2,1.3,2.9,2,4.6,2h26.6c1.8,0,3.4-0.7,4.6-2c1.3-1.2,2-2.9,2-4.7
	c0-1.1-0.3-2.2-0.9-3.2c-3.2,0.2-6.4,0.5-9.6,0.9C571.7,72.5,562.1,74.1,552.6,75.4z"/>
<path class="st0" d="M481,84.3c-0.1,3.7,2.9,6.7,6.5,6.7c0.1,0,0.1,0,0.2,0h27c1.8,0,3.5-0.7,4.7-1.9c1.3-1.2,2-3,2-4.8
	c0-1.8-0.7-3.6-2-4.9c-0.1-0.1-0.3-0.2-0.5-0.3c-12.5,1.1-24.9,1.8-37.3,2.3C481.2,82.3,481,83.3,481,84.3z"/>
<path class="st4" d="M487.7,77.5c-1.8,0-3.5,0.7-4.8,2c-0.5,0.6-1,1.2-1.3,1.9c12.4-0.4,24.9-1.2,37.3-2.3c-1.2-1.1-2.7-1.7-4.2-1.7
	L487.7,77.5z"/>
<path class="st0" d="M529.4,109.8c-1,10.3-3.5,20.4-7.6,29.9c-0.1,0.2-0.2,0.3-0.4,0.2c-0.2-0.1-0.2-0.2-0.2-0.4v-27.9
	c0-7.2-5.8-13-13-13l0,0h-14.6c-7.2,0-13,5.8-13,13l0,0v32.1c0,1.8,0.7,3.6,2,4.9c1.3,1.4,3.1,2.1,5,2.1h1.5c3-0.1,5.5-2.5,5.5-5.5
	c0-0.3,0.2-0.6,0.4-0.6c0,0,0.1,0,0.2,0h24.5c1,0,2,0.2,2.8,0.6c0.3,0.2,0.7,0.4,1,0.6c1.8,1.3,3.9,1.9,6.1,2c1,0,1.9-0.1,2.8-0.5
	c3.1-0.5,5.6-2.7,6.6-5.7c3.5-10.5,5.7-21.3,6.7-32.2c1.1-10.8,1.6-21.9,1.7-33.4c-5.5,0.7-10.9,1.4-16.4,1.9
	C531,89.5,530.4,100.1,529.4,109.8z M506.7,129c0.1,0.7-0.4,1.4-1.1,1.5c-0.1,0-0.2,0-0.4,0h-9.1c-0.7,0.1-1.4-0.4-1.5-1.1
	c0-0.1,0-0.3,0-0.4v-14.6c-0.1-0.7,0.4-1.4,1.1-1.5c0.1,0,0.3,0,0.4,0h9.1c0.7-0.1,1.4,0.4,1.5,1.1c0,0.1,0,0.2,0,0.4L506.7,129z"/>
<path class="st2" d="M736.1,131.9h49c2.2,0,4.3,0.8,5.8,2.4c1.6,1.5,2.4,3.6,2.4,5.8c0,2.1-0.8,4.2-2.4,5.7
	c-1.5,1.5-3.7,2.4-5.8,2.3H667.3c-2.2,0.1-4.2-0.8-5.8-2.3c-1.5-1.5-2.4-3.5-2.3-5.7c0-2.2,0.8-4.2,2.3-5.8c1.5-1.6,3.6-2.5,5.8-2.4
	h46.9"/>
<path class="st3" d="M785.1,157.9H667.3c-9.9,0-17.9-8-17.9-17.9s8-17.9,17.9-17.9h46.9c5.5,0,9.9,4.4,9.9,9.9
	c0,2.3-0.8,4.5-2.2,6.2h6.7c-3.4-4.2-2.8-10.5,1.4-13.9c1.7-1.4,3.9-2.2,6.2-2.2h49c9.9,0,18,8,18.1,17.9c0,0,0,0.1,0,0.1
	c0,4.8-1.9,9.4-5.4,12.8C794.4,156.1,789.8,157.9,785.1,157.9z M785.1,141.8L785.1,141.8z"/>
<path class="st2" d="M666.5,39.3h29.3c0.2,0,0.5,0.1,0.6,0.3c0.1,0.2,0,0.5-0.2,0.6c-9.9,8.4-21.2,15-33.3,19.7
	c-2,0.7-3.5,2.4-3.9,4.5c-0.1,0.5-0.1,1.1-0.2,1.6c0,1.5,0.5,3,1.5,4.2c1.7,2.1,4,3.7,6.6,4.5c1.1,0.4,2.2,0.6,3.3,0.6
	c1.5,0,3.1-0.3,4.5-1c15.6-7,29.6-17.2,41.1-29.9c0.2-0.2,0.4-0.3,0.7-0.2c0.2,0.1,0.4,0.2,0.4,0.4v14.6c0,2.4,0.9,4.7,2.6,6.3
	c3.4,3.5,9,3.5,12.5,0.1c0,0,0.1-0.1,0.1-0.1c1.7-1.7,2.7-4,2.6-6.3V44.7c0-0.2,0.1-0.3,0.4-0.4c0.2-0.1,0.5,0,0.7,0.2
	c11.6,12.4,25.6,22.4,41.2,29.3c1.4,0.6,2.9,0.9,4.5,0.9c1.2,0,2.4-0.2,3.6-0.6c2.6-0.9,5-2.6,6.7-4.8c0.9-1.2,1.5-2.7,1.5-4.2
	c0-0.6-0.1-1.2-0.3-1.8c-0.4-2.1-2-3.8-4-4.5c-12.3-4.3-23.7-10.6-34-18.5c-0.2-0.2-0.3-0.5-0.1-0.7c0.1-0.1,0.2-0.2,0.4-0.2h31
	c4.6-0.2,8.2-4,8.1-8.7c-0.2-4.4-3.7-7.9-8.1-8.1h-50c-0.7,0.1-1.4-0.4-1.5-1.1c0-0.1,0-0.3,0-0.4v-3.3c0-2.4-0.9-4.7-2.6-6.3
	c-3.5-3.5-9.1-3.5-12.6,0c-1.7,1.7-2.6,4-2.6,6.3v3.2c0.1,0.7-0.4,1.4-1.1,1.5c-0.1,0-0.2,0-0.4,0h-48.9c-4.6,0.2-8.2,4-8.1,8.7
	C658.5,35.6,662.1,39.2,666.5,39.3z"/>
<path class="st3" d="M670.2,85.2c-2.2,0-4.3-0.4-6.4-1.1c-4.4-1.4-8.2-4-11.1-7.6l-0.2-0.2c-2.3-2.9-3.5-6.5-3.5-10.2
	c0-1.1,0.1-2.2,0.3-3.3c0-0.2,0.1-0.4,0.1-0.6c1.1-5.3,4.8-9.6,9.9-11.5c1.4-0.6,2.8-1.2,4.2-1.8c-9.9-1.6-16.7-11-15.1-20.9
	c1.4-8.8,9.1-15.3,18.1-15.3h41.1c2.8-10,13.2-15.8,23.2-12.9c6.3,1.8,11.1,6.7,12.9,12.9h42.3c10.1,0.1,18.2,8.4,18.1,18.5
	c-0.1,8.3-5.8,15.6-13.9,17.5l1.8,0.7c5.1,1.7,8.9,5.8,10.2,11c0.5,1.5,0.7,3,0.7,4.6c0,3.7-1.3,7.3-3.5,10.2l-0.2,0.3
	c-2.9,3.6-6.7,6.3-11.1,7.8c-4.9,1.7-10.2,1.5-15-0.5c-0.1,0-0.2-0.1-0.3-0.1c-10.4-4.7-20.2-10.6-29.2-17.6
	c-0.9,2.9-2.5,5.5-4.6,7.6c-7.4,7.3-19.3,7.3-26.6-0.1c-2-2-3.6-4.5-4.5-7.2c-8.9,7.1-18.7,13.1-29.1,17.9
	C676.1,84.5,673.2,85.2,670.2,85.2z M695.7,49.2L695.7,49.2z M716.2,34.3c1.3,0,2.6,0.2,3.8,0.7l0.5,0.2c2.3,1,4.1,2.8,5.2,5
	c1.1-2.2,2.9-4,5.2-5l0.4-0.2c3.8-1.5,8.2-0.7,11.2,2.2c0.1,0.1,0.3,0.3,0.4,0.4c0.6,0.6,1.2,1.3,1.8,1.9c0-1.5,0.4-3,1.1-4.4
	c0.5-1,1.2-1.9,2-2.7h-11.7c-4.5,0.1-8.6-2.5-10.4-6.6c-1.8,4.1-5.9,6.7-10.4,6.6h-12.1c0.8,0.8,1.5,1.7,2,2.7l0.1,0.2
	c0.7,1.5,1,3.1,1,4.7c0.7-0.8,1.5-1.5,2.2-2.3l0.3-0.3C710.8,35.4,713.4,34.3,716.2,34.3L716.2,34.3z"/>
<path class="st2" d="M763.1,73.2h-73.6c-3.4-0.1-6.6,1.2-9,3.6c-2.4,2.2-3.8,5.3-3.7,8.6v28c0,14.2,15.8,13.1,16.1,13.1h64.2
	c2.2,0,18.7,0.9,18.7-13.9V85.4c0-3.3-1.3-6.4-3.7-8.6C769.6,74.4,766.4,73.1,763.1,73.2z M757.5,110.7c0,0.9-0.5,1.4-1.5,1.4h-60.5
	c-0.7,0.1-1.3-0.4-1.4-1c0-0.1,0-0.2,0-0.4v-3.5c-0.1-0.7,0.4-1.3,1.1-1.4c0.1,0,0.2,0,0.3,0h60.5c0.7-0.1,1.3,0.4,1.5,1.1
	c0,0.1,0,0.2,0,0.4V110.7z M757.5,92c0,0.9-0.5,1.4-1.5,1.4h-60.5c-1,0-1.5-0.5-1.5-1.4v-3.2c-0.1-0.7,0.4-1.3,1.1-1.4
	c0.1,0,0.2,0,0.3,0h60.5c0.7-0.1,1.3,0.4,1.5,1.1c0,0.1,0,0.2,0,0.4V92z"/>
<path class="st3" d="M691.9,136.3c-4.3,0-12.4-0.9-18.5-6.7c-3-2.8-6.5-8-6.5-16.3v-28c0-6,2.4-11.7,6.7-15.7
	c4.2-4.1,9.9-6.4,15.8-6.3h73.6c5.9,0,11.6,2.2,15.8,6.3c4.3,4.1,6.8,9.8,6.8,15.7v27.1c0,8.4-3.5,13.6-6.5,16.5
	c-5,5-12.4,7.4-21.8,7.3h-64.3L691.9,136.3z M764.6,99.6c0.5,0.5,0.9,1.1,1.3,1.7v-3.5C765.5,98.5,765.1,99.1,764.6,99.6L764.6,99.6
	z M686.7,99.1v0.9c0.1-0.2,0.2-0.3,0.4-0.5L686.7,99.1z"/>
<path class="st0" d="M736.1,131.9h49c2.2,0,4.3,0.8,5.8,2.4c1.6,1.5,2.4,3.6,2.4,5.8c0,2.1-0.8,4.2-2.4,5.7
	c-1.5,1.5-3.7,2.4-5.8,2.3H667.3c-2.2,0.1-4.2-0.8-5.8-2.3c-1.5-1.5-2.4-3.5-2.3-5.7c0-2.2,0.8-4.2,2.3-5.8c1.5-1.6,3.6-2.5,5.8-2.4
	h46.9"/>
<path class="st0" d="M666.9,74.7c1.1,0.4,2.2,0.6,3.3,0.6c1.5,0,3.1-0.3,4.5-1c0.8-0.4,1.6-0.8,2.4-1.2c-5.2-0.7-10.4-1.3-15.6-1.8
	C662.9,72.8,664.8,74,666.9,74.7z"/>
<path class="st4" d="M716.4,44.3c0.2,0.1,0.4,0.2,0.4,0.4v14.6c0,2.4,0.9,4.7,2.6,6.3c3.4,3.5,9,3.5,12.5,0.1c0,0,0.1-0.1,0.1-0.1
	c1.7-1.7,2.7-4,2.6-6.3V44.7c0-0.2,0.1-0.3,0.4-0.4c0.2-0.1,0.5,0,0.7,0.2c11.6,12.4,25.6,22.4,41.2,29.3c1.4,0.6,2.9,0.9,4.5,0.9
	c1.2,0,2.4-0.2,3.6-0.6c2.6-0.9,5-2.6,6.7-4.8c0.9-1.2,1.5-2.7,1.5-4.2c0-0.6-0.1-1.2-0.3-1.8c-0.4-2.1-2-3.8-4-4.5
	c-12.3-4.3-23.7-10.6-34-18.5c-0.2-0.2-0.3-0.5-0.1-0.7c0.1-0.1,0.2-0.2,0.4-0.2h31c4.6-0.2,8.2-4,8.1-8.7c-0.2-4.4-3.7-7.9-8.1-8.1
	h-50c-0.7,0.1-1.4-0.4-1.5-1.1c0-0.1,0-0.3,0-0.4v-3.3c0-2.4-0.9-4.7-2.6-6.3c-3.5-3.5-9.1-3.5-12.6,0c-1.7,1.7-2.6,4-2.6,6.3v3.2
	c0.1,0.7-0.4,1.4-1.1,1.5c-0.1,0-0.2,0-0.4,0h-48.9c-4.6,0.2-8.2,4-8.1,8.7c0.2,4.4,3.7,7.9,8.1,8.1h29.3c0.2,0,0.5,0.1,0.6,0.3
	c0.1,0.2,0,0.5-0.2,0.6c-9.9,8.4-21.2,15-33.3,19.7c-2,0.7-3.5,2.4-3.9,4.5c-0.1,0.5-0.1,1.1-0.2,1.6c0,1.5,0.5,3,1.5,4.2
	c0.3,0.4,0.7,0.7,1.1,1c5.2,0.5,10.4,1.1,15.7,1.8c14.6-6.9,27.8-16.7,38.7-28.6C715.9,44.2,716.2,44.2,716.4,44.3z"/>
<path class="st0" d="M775.1,81.7c-0.6-1.9-1.7-3.6-3.1-4.9c-2.4-2.4-5.6-3.7-9-3.6h-73.5c-1.6,0-3.3,0.3-4.8,0.9
	C714.8,78,745,82.8,775.1,81.7z"/>
<path class="st0" d="M684.7,74c-1.6,0.6-3,1.5-4.2,2.7c-2.4,2.2-3.8,5.3-3.7,8.6v28c0,14.2,15.8,13.1,16.1,13.1h64.2
	c2.2,0,18.7,0.9,18.7-13.9V85.4c0-1.3-0.2-2.5-0.6-3.7C745,82.8,714.8,78,684.7,74z M757.5,110.7c0,0.9-0.5,1.4-1.5,1.4h-60.5
	c-0.7,0.1-1.3-0.4-1.4-1c0-0.1,0-0.2,0-0.4v-3.5c-0.1-0.7,0.4-1.3,1.1-1.4c0.1,0,0.2,0,0.3,0h60.5c0.7-0.1,1.3,0.4,1.5,1.1
	c0,0.1,0,0.2,0,0.4L757.5,110.7z M757.5,92c0,0.9-0.5,1.4-1.5,1.4h-60.5c-1,0-1.5-0.5-1.5-1.4v-3.2c-0.1-0.7,0.4-1.3,1.1-1.4
	c0.1,0,0.2,0,0.3,0h60.5c0.7-0.1,1.3,0.4,1.5,1.1c0,0.1,0,0.2,0,0.4L757.5,92z"/>
<path class="st5" d="M2.5,59.5c0,0,28.6,69.6,89,28.7C91.5,88.2,87,29,2.5,59.5z"/>
<path class="st3" d="M55.2,103.6c-4.6,0-9.2-0.7-13.5-2C13.9,93.3,0.7,61.8,0.2,60.5c-0.5-1.3,0.1-2.7,1.4-3.2c0,0,0.1,0,0.1,0
	C33.4,45.7,57.9,45.3,74.5,56c17.7,11.4,19.4,31.2,19.4,32c0.1,0.9-0.3,1.8-1.1,2.3C79.8,99.2,67.2,103.6,55.2,103.6z M5.9,61
	c3.6,7.4,16,29.5,37.2,35.9c13.9,4.2,29.3,0.9,45.6-9.8c-0.7-4.4-4-18.4-17-26.9C57,50.7,34.8,50.9,5.9,61z"/>
<path class="st6" d="M91.5,88.2c0,0-39.7-17.8-63.3-21.3"/>
<path class="st3" d="M91.5,90.7c-0.3,0-0.7-0.1-1-0.2c-0.4-0.2-39.7-17.7-62.6-21.1c-1.4-0.1-2.4-1.4-2.2-2.7
	c0.1-1.4,1.4-2.4,2.7-2.2c0.1,0,0.2,0,0.2,0C52.2,68,90.9,85.2,92.5,86c1.3,0.6,1.8,2,1.3,3.3C93.4,90.2,92.5,90.7,91.5,90.7
	L91.5,90.7z"/>
<path class="st5" d="M821.5,273.5c0,0-73.1,18.1-75.8-54.8C745.7,218.8,796.1,187.4,821.5,273.5z"/>
<path class="st3" d="M802.5,278.1c-11.5,0-26.2-2.2-38.2-11.2c-13.2-10-20.3-26.1-21.1-48c0-0.9,0.4-1.7,1.2-2.2
	c0.7-0.4,17.6-10.8,37.3-3.2c18.4,7,32.6,27,42.2,59.4c0.4,1.3-0.4,2.7-1.7,3.1c0,0-0.1,0-0.1,0
	C815.6,277.4,809.1,278.1,802.5,278.1z M748.2,220.2c1,19.5,7.4,33.9,19.1,42.6c17.7,13.4,42.9,10.2,50.9,8.8
	c-9-29.3-21.9-47.3-38.3-53.6C765.4,212.5,752.3,218.2,748.2,220.2L748.2,220.2z"/>
<path class="st6" d="M745.7,218.8c0,0,37.8,21.5,54.6,38.4"/>
<path class="st3" d="M800.3,259.7c-0.7,0-1.3-0.3-1.8-0.7c-16.3-16.5-53.7-37.8-54-38c-1.2-0.7-1.6-2.2-0.9-3.4
	c0.7-1.2,2.2-1.6,3.4-0.9c1.6,0.9,38.3,21.9,55.1,38.9c1,1,1,2.5,0,3.5C801.6,259.5,801,259.7,800.3,259.7L800.3,259.7z"/>
<path class="st5" d="M48.2,185.1c0,0,57.5,5.4,51.2-50.2C99.4,134.9,57.5,116.8,48.2,185.1z"/>
<path class="st3" d="M52.4,187.8c-2.5,0-4.2-0.1-4.5-0.2c-0.7-0.1-1.3-0.4-1.7-0.9c-0.4-0.5-0.6-1.2-0.5-1.9
	c3.5-25.9,12.1-42.8,25.5-50.3c14.3-8.1,28.6-2.1,29.2-1.8c0.8,0.4,1.4,1.1,1.5,2c1.9,16.9-1.7,30.1-10.7,39.3
	C79.1,186.2,60.8,187.8,52.4,187.8z M48.2,185.1L48.2,185.1z M51.1,182.7c6.8,0.1,25.2-0.7,36.6-12.3c7.6-7.8,10.8-19.1,9.5-33.7
	c-3.6-1.1-13.7-3.5-23.5,2.1C62.1,145.3,54.6,160,51.1,182.7z"/>
<path class="st6" d="M99.4,134.9c0,0-26.2,20.6-37,35.4"/>
<path class="st3" d="M62.4,172.8c-1.4,0-2.5-1.1-2.5-2.5c0-0.5,0.2-1.1,0.5-1.5c10.8-14.9,36.4-35,37.5-35.9
	c1.1-0.8,2.7-0.6,3.5,0.5c0.8,1.1,0.6,2.6-0.4,3.5c-0.3,0.2-26.1,20.6-36.5,34.9C64,172.4,63.2,172.8,62.4,172.8z"/>
<path class="st5" d="M880.1,80.8c0,0-15.6,55.6-65.2,29.8C814.8,110.6,813,65,880.1,80.8z"/>
<path class="st3" d="M839.4,120c-8,0-16.6-2.4-25.7-7.1c-0.8-0.4-1.3-1.2-1.3-2.1c0-0.6-0.5-16.1,12.2-26.6
	c11.8-9.8,30.7-11.7,56.1-5.7c0.7,0.1,1.2,0.6,1.6,1.2c0.3,0.6,0.4,1.3,0.3,1.9c-0.3,1.1-7.6,26.5-28.3,35.4
	C849.5,118.9,844.5,120,839.4,120z M817.4,109.1c13.1,6.5,24.8,7.6,34.8,3.2c14.9-6.4,22.3-23.3,24.6-29.7
	c-22.5-4.9-39-3.1-49.1,5.3C819,95.2,817.6,105.4,817.4,109.1L817.4,109.1z"/>
<path class="st6" d="M814.8,110.6c0,0,28.7-17.1,46.3-21.9"/>
<path class="st3" d="M814.9,113.1c-1.4,0-2.5-1.1-2.5-2.5c0-0.9,0.5-1.7,1.2-2.1c1.2-0.7,29.2-17.3,47-22.1c1.3-0.4,2.7,0.3,3.2,1.6
	c0.4,1.3-0.3,2.7-1.6,3.2c-0.1,0-0.2,0.1-0.3,0.1c-17.1,4.6-45.4,21.4-45.7,21.6C815.8,113,815.3,113.1,814.9,113.1z"/>
<path class="st2" d="M356.2,238.9c3.6,3.6,3.6,9.5,0,13.2c-1.7,1.7-4.1,2.7-6.5,2.7h-42.6c-0.4,0-0.7,0.2-0.9,0.5
	c-0.2,0.3-0.2,0.7-0.1,1c9.6,27.4,25.1,47,46.4,58.7c2.2,1.1,3.7,3.2,4.1,5.6c0.1,0.6,0.2,1.2,0.1,1.8c0,1.9-0.6,3.7-1.8,5.2
	c-1.8,2.4-4.4,4.1-7.2,5c-1,0.2-2,0.3-3,0.3c-1.9,0-3.8-0.5-5.5-1.5c-20.3-12.2-35.8-31.4-46.5-57.6c-0.1-0.2-0.3-0.3-0.5-0.3
	c-0.2,0-0.4,0.1-0.5,0.4c-8.6,25.3-24.3,44.6-47.1,57.9c-1.5,0.8-3.2,1.3-5,1.3c-0.9,0-1.9-0.1-2.8-0.3c-2.7-0.8-5.2-2.4-7.1-4.6
	c-1.2-1.4-1.9-3.2-1.9-5v-1c0.2-2.3,1.6-4.2,3.6-5.3c23.8-13.2,39-33.5,45.5-60.7c0.1-0.4,0-0.7-0.2-1c-0.2-0.3-0.6-0.5-1-0.5h-41.3
	c-5.1,0-9.3-4.2-9.3-9.3c0-5.1,4.2-9.3,9.3-9.3h44.3c0.8,0.1,1.5-0.5,1.6-1.3c0-0.1,0-0.1,0-0.2c0.6-6.1,1-15.8,1.2-29
	c0-2.6,1.1-5.1,3-7c1.8-1.9,4.4-2.9,7-2.9c2.6,0,5.2,1.1,6.9,3c1.8,1.7,2.8,4.1,2.8,6.6c0,8.8-0.5,18.5-1.6,29.3
	c0,0.4,0.1,0.7,0.4,1c0.2,0.3,0.6,0.5,1,0.4h48.8C352.1,236.1,354.5,237.1,356.2,238.9z"/>
<path class="st3" d="M239.5,343c-1.7,0-3.3-0.2-4.9-0.5c-0.2,0-0.4-0.1-0.7-0.2c-4.5-1.3-8.5-3.9-11.6-7.4l-0.2-0.2
	c-2.8-3.2-4.3-7.3-4.3-11.5v-1c0-0.4,0-0.8,0.1-1.2c0.6-5.3,3.8-10.1,8.4-12.7l0.1-0.1c18.3-10.1,30.6-24.4,37.5-43.6h-29.8
	c-10.6-0.2-19-9-18.7-19.6c0.2-10.3,8.5-18.5,18.7-18.7h36.7c0.3-5.4,0.5-12.3,0.6-20.7v-0.2c0.1-5.1,2.3-10,5.9-13.6
	c3.7-3.7,8.7-5.8,14-5.8c10.8,0,19.5,8.7,19.6,19.5c0,6.4-0.3,13.4-0.8,20.9h39.5c5.1,0,10,2,13.5,5.6l0,0c7.5,7.5,7.5,19.7,0,27.1
	c-3.6,3.6-8.5,5.6-13.5,5.6h-29.6c8.8,19,21,32.7,37.1,41.6c4.8,2.5,8.2,7.1,9.1,12.4c0,0.1,0,0.2,0,0.3c0.2,1.1,0.3,2.2,0.3,3.4
	c0,4-1.3,7.9-3.8,11.1l-0.2,0.2c-3.1,3.9-7.3,6.8-12,8.3c-0.3,0.1-0.7,0.2-1,0.3c-1.6,0.3-3.2,0.5-4.9,0.5c-3.6,0-7.1-0.9-10.3-2.7
	l-0.3-0.2c-16.8-10.1-30.7-24.8-41.5-43.6c-10,18.4-25,33.7-43.2,44.1l-0.4,0.2C246.2,342.1,242.9,342.9,239.5,343z M344.2,322.8
	c0.2,0.1,0.4,0.2,0.6,0.2h0.5c0.2-0.1,0.4-0.2,0.6-0.3c-11.5-6.7-21.5-15.5-29.6-26.1C323.7,307.1,333.2,316,344.2,322.8z
	 M271.3,293.8c-5.9,8.8-13.2,16.5-21.6,22.9C258.1,310.3,265.5,302.6,271.3,293.8L271.3,293.8z M301.1,276.9l-0.1,0.2L301.1,276.9z
	 M280.2,245.9c1.5,0.7,2.8,1.7,3.9,3c2.3,2.7,3.1,6.3,2.2,9.7c-0.8,3.2-1.6,6.3-2.6,9.3c3.3-4.7,9.8-5.8,14.5-2.5
	c0.3,0.2,0.7,0.5,1,0.8c-0.9-2.2-1.7-4.4-2.5-6.7c-0.1-0.3-0.2-0.6-0.3-0.9c-0.8-3.1-0.2-6.3,1.5-9c1.1-1.6,2.5-2.9,4.2-3.7h-1.3
	c-3.3,0-6.5-1.5-8.6-4c-1.3-1.5-2.1-3.3-2.5-5.3C289,241.6,285.1,245.2,280.2,245.9L280.2,245.9z M267.2,253.9v0.1V253.9z
	 M349.2,245.9L349.2,245.9l6.9-7L349.2,245.9z M291.2,206c-0.1,3.9-0.1,7.5-0.2,10.7c0.2-3.8,0.3-7.5,0.3-11l0,0
	C291.3,205.7,291.3,205.9,291.2,206L291.2,206z"/>
<path class="st2" d="M405.2,219.4c0-7.1,5.7-12.8,12.8-12.9h89.6c7.1,0,12.9,5.8,12.9,12.9v26.3c0,7.1-5.8,12.9-12.9,12.9h-89.6
	c-7.1,0-12.9-5.8-12.9-12.9L405.2,219.4z M424.2,340.2c-2.3,0-4.5-0.9-6.1-2.5c-1.7-1.6-2.6-3.9-2.5-6.2v-53.4
	c0-7.1,5.8-12.9,12.9-12.9h68.7c7.1,0,12.9,5.8,12.9,12.9V331c0,2.4-0.9,4.7-2.7,6.4c-1.7,1.7-4.1,2.7-6.5,2.7h-5.5
	c-0.9,0-1.8-0.3-2.5-1c-0.7-0.7-1-1.7-1-2.7c0-0.3-0.1-0.5-0.4-0.5h-58.1c-0.3,0-0.4,0.1-0.4,0.5c0,1-0.4,2-1.1,2.7
	c-0.7,0.7-1.6,1.1-2.6,1.1L424.2,340.2z M500.9,226.7c0.7,0.1,1.4-0.4,1.5-1.1c0-0.1,0-0.2,0-0.4v-4.6c0.1-0.7-0.4-1.4-1.1-1.5
	c-0.1,0-0.2,0-0.4,0h-76.7c-0.7-0.1-1.4,0.4-1.5,1.1c0,0.1,0,0.3,0,0.4v4.6c-0.1,0.7,0.4,1.4,1.1,1.5c0.1,0,0.3,0,0.4,0H500.9z
	 M500.9,245.8c0.7,0.1,1.4-0.4,1.5-1.1c0-0.1,0-0.2,0-0.4v-4.4c0.1-0.7-0.4-1.4-1.1-1.5c-0.1,0-0.2,0-0.4,0h-76.7
	c-0.7-0.1-1.4,0.4-1.5,1.1c0,0.1,0,0.2,0,0.4v4.4c-0.1,0.7,0.4,1.4,1.1,1.5c0.1,0,0.2,0,0.4,0H500.9z M491.9,279.6
	c0.1-0.7-0.4-1.4-1.1-1.5c-0.1,0-0.2,0-0.4,0h-56c-0.7-0.1-1.4,0.4-1.5,1.1c0,0.1,0,0.2,0,0.4v3.9c-0.1,0.7,0.4,1.4,1.1,1.5
	c0.1,0,0.2,0,0.4,0h56c0.7,0.1,1.4-0.4,1.5-1.1c0-0.1,0-0.2,0-0.4V279.6z M432.9,302.4c-0.1,0.7,0.4,1.4,1.1,1.5c0.1,0,0.3,0,0.4,0
	h56c0.7,0.1,1.4-0.4,1.5-1.1c0-0.1,0-0.3,0-0.4v-4c0.1-0.7-0.4-1.4-1.1-1.5c-0.1,0-0.2,0-0.4,0h-56c-0.7-0.1-1.4,0.4-1.5,1.1
	c0,0.1,0,0.2,0,0.4V302.4z M432.9,321.4c-0.1,0.7,0.4,1.4,1.1,1.5c0.1,0,0.2,0,0.4,0h56c0.7,0.1,1.4-0.4,1.5-1.1c0-0.1,0-0.2,0-0.4
	v-4.1c0.1-0.7-0.4-1.4-1.1-1.5c-0.1,0-0.2,0-0.4,0h-56c-0.7-0.1-1.4,0.4-1.5,1.1c0,0.1,0,0.2,0,0.4V321.4z"/>
<path class="st3" d="M429.2,350h-5c-10.2,0-18.4-8.2-18.5-18.4c0-0.1,0-0.1,0-0.2v-53.3c0-4.1,1.1-8.1,3.1-11.6
	c-2.5-1.1-4.8-2.7-6.8-4.7c-4.3-4.2-6.7-10-6.7-16.1v-26.3c0-12.5,10.2-22.7,22.7-22.7h89.6c12.6,0,22.7,10.2,22.7,22.7v26.3
	c0.1,6-2.4,11.8-6.7,16.1c-2,2-4.3,3.6-6.9,4.8c2.1,3.5,3.1,7.5,3.1,11.5V331c0,5-2,9.8-5.6,13.3c-3.6,3.6-8.4,5.6-13.5,5.5h-5.5
	c-3.6,0-7-1.4-9.5-3.9l-0.2-0.2h-46.6l-0.3,0.3C436.2,348.6,432.8,350.1,429.2,350z M499.7,330.1h0.4v-2.8c-0.4,0.6-0.8,1.2-1.3,1.8
	C499.2,329.4,499.4,329.8,499.7,330.1L499.7,330.1z M425.5,328.6v1c0.1-0.2,0.3-0.3,0.4-0.5C425.7,329,425.6,328.8,425.5,328.6
	L425.5,328.6z M499.1,309.8c0.4,0.5,0.8,1,1.1,1.5v-3.1C499.8,308.8,499.5,309.3,499.1,309.8z M425.5,309.6v0.5
	c0.1-0.1,0.1-0.2,0.2-0.2L425.5,309.6z M499.1,290.9c0.4,0.5,0.8,1,1.1,1.5v-3.1C499.8,289.9,499.5,290.4,499.1,290.9z M425.5,290.6
	v0.5c0.1-0.1,0.1-0.2,0.2-0.2L425.5,290.6z M509.7,232.5c0.4,0.4,0.7,0.9,1,1.4v-2.8C510.4,231.6,510,232.1,509.7,232.5L509.7,232.5
	z M415.1,232.2v0.6l0.2-0.3C415.3,232.4,415.2,232.3,415.1,232.2z"/>
<path class="st2" d="M640.1,245.9c-3.5,0-6.3-2.8-6.4-6.3c0,0,0-0.1,0-0.1c0-0.1-0.1-0.2-0.2-0.3c-0.1-0.1-0.3-0.1-0.4,0
	c0,0,0,0,0,0c-2.2,1.7-4.3,3.2-6.5,4.7c-1.8,1.1-3.8,1.8-5.9,1.8c-1.1,0-2.3-0.2-3.4-0.4c-3.2-1-5.9-3.2-7.7-6.1
	c-0.3-0.6-0.6-1.1-0.9-1.6c-0.1-0.3-0.4-0.4-0.7-0.4c-0.3,0-0.5,0.2-0.6,0.5c-1.9,6.1-3.4,10.6-4.4,13.6c-0.4,0.8-0.3,1.8,0.3,2.5
	c6.5,8.4,9.9,18.8,9.9,29.4c0,9.7-2.2,16.1-6.7,19.4c-2.6,1.6-5.5,2.6-8.6,3.1c-0.5,0-1,0.1-1.5,0.1h-0.7c-1.9,0-3.7-0.8-5-2.1
	c-1.7-1.5-2.9-3.4-3.4-5.6c-0.1-0.5-0.1-1-0.2-1.5c0-1.2,0.3-2.3,1-3.2c1-1.4,2.6-2.4,4.3-2.8c0.9-0.2,1.8-0.6,2.5-1.2
	c1.5-1.1,2.2-3.9,2.2-8.4c0-5.4-1-10.7-3.1-15.7c-2.8-6.3-4.1-12-4.1-17c0-2.1,0.2-4.2,0.7-6.2c1.6-6,3.1-12.4,4.6-19.2
	c0.1-0.3,0-0.7-0.2-1c-0.2-0.3-0.6-0.5-1-0.4h-8.4c-0.7-0.1-1.4,0.4-1.5,1.1c0,0.1,0,0.2,0,0.4v109.5c0.2,4.3-3.2,7.9-7.5,8
	s-7.9-3.2-8-7.5c0-0.2,0-0.4,0-0.6V218.4c0-7.1,5.7-12.9,12.8-12.9c0,0,0,0,0,0h19.1c0.2,0,0.4-0.1,0.6-0.1c1.5-0.4,3-0.2,4.3,0.6
	l3.8,2.2c1.7,0.9,3,2.5,3.7,4.3c0.4,1,0.6,2,0.6,3.1c0,0.8-0.1,1.7-0.3,2.5c-2.3,7.5-3.8,12.5-4.6,15.1c-0.1,0.2,0,0.5,0.2,0.6
	c0.2,0.2,0.5,0.3,0.7,0.1c6.4-3.3,12.4-7.4,17.8-12.1c5.4-4.7,10.3-9.9,14.6-15.7c3.5-4.6,7.8-6.9,13-7c5.2,0,9.7,2.2,13.5,6.7
	c7.9,9.7,17.6,17.8,28.5,23.9c2.1,1.1,3.6,3,4.1,5.3c0.3,0.8,0.4,1.6,0.4,2.4c0,1.5-0.4,3-1.2,4.3c-1.3,2.2-3.3,3.8-5.8,4.6
	c-0.8,0.3-1.7,0.4-2.5,0.4c-1.6,0-3.1-0.5-4.4-1.3c-3.1-2-6-4.1-8.9-6.4c-0.1-0.1-0.4-0.1-0.5,0c-0.1,0.1-0.1,0.2-0.1,0.3
	c0,3.6-2.9,6.5-6.5,6.5L640.1,245.9z M648.6,314.5c1.3,1.4,2.1,3.2,2.1,5.2c0,2.2-0.9,4.3-2.5,5.8c-1.2,1.2-2.8,1.8-4.4,1.8h-0.4
	c-1.9-0.2-3.7-1.1-4.9-2.5c-0.9-0.9-1.9-1.9-3-3.1c-0.7-0.7-1.3-0.6-1.8,0.1c-3,4.9-6.5,9.4-10.6,13.5c-1.4,1.4-3.3,2.2-5.3,2.2
	h-0.6c-2.2-0.2-4.3-1.1-5.9-2.7c-1.3-1.3-2.1-3-2.1-4.9c0-2.1,0.8-4.1,2.4-5.6c6.6-6.1,11.6-13.8,14.6-22.2c0.8-2.1,2.2-3.8,4.1-4.9
	c1.3-0.9,2.9-1.3,4.4-1.3c0.5,0,1.1,0.1,1.6,0.1c2,0.4,3.8,1.6,4.9,3.4c0.7,1,1,2.2,1,3.4c0,0.8-0.2,1.6-0.5,2.4
	c-0.2,0.4-0.3,0.8-0.4,1.2c-0.3,0.6-0.1,1.4,0.4,1.8C644.1,310,646.4,312.2,648.6,314.5L648.6,314.5z M630.1,292
	c-7.1,0-12.9-5.8-12.9-12.9V267c0-7.1,5.8-12.9,12.9-12.9h10c7.1,0,12.9,5.8,12.9,12.9v12.1c0,7.1-5.8,12.9-12.9,12.9c0,0,0,0,0,0
	H630.1z M631.7,266c-0.7-0.1-1.4,0.4-1.5,1.1c0,0.1,0,0.3,0,0.4v11.4c-0.1,0.7,0.4,1.4,1.1,1.5c0.1,0,0.2,0,0.4,0h6.3
	c0.7,0.1,1.4-0.4,1.5-1.1c0-0.1,0-0.2,0-0.4v-11.4c0.1-0.7-0.4-1.4-1.1-1.5c-0.1,0-0.2,0-0.4,0L631.7,266z M641.9,231.6
	c-0.1,0.2-0.1,0.5,0,0.7c0.1,0.2,0.2,0.4,0.5,0.4h27.3c0.3,0,0.5-0.1,0.6-0.4c0.1-0.2,0-0.5-0.2-0.7c-5.1-4.5-9.6-9.6-13.6-15.1
	c-0.2-0.2-0.5-0.3-0.8-0.3c-0.3,0-0.6,0.2-0.8,0.4C651.1,222.1,646.8,227.1,641.9,231.6L641.9,231.6z M666.9,302.2
	c0.6-2.1,2-4,3.8-5.2c1.4-1,3-1.6,4.7-1.6h1.3c2.1,0.3,4,1.5,5.2,3.2c0.8,1.1,1.2,2.5,1.2,3.8c0,0.7-0.1,1.3-0.3,1.9
	c-0.2,1-0.5,2-0.9,3c-0.2,0.7,0,1.5,0.6,2.1c6.6,5.2,11.7,9.6,15.4,13.1c1.5,1.4,2.4,3.4,2.4,5.5c0,2.3-0.9,4.5-2.5,6.1
	c-1.4,1.4-3.3,2.1-5.3,2.1h-0.3c-2.1-0.1-4-0.9-5.5-2.4c-2.9-3-6.4-6.3-10.3-9.9c-0.7-0.7-1.3-0.6-1.8,0.3c-2.4,4-5.3,7.6-8.6,10.9
	c-1.3,1.4-3.2,2.2-5.2,2.2c-0.3,0-0.5,0-0.7-0.1c-2.2-0.1-4.3-1.1-5.9-2.7c-1.3-1.3-2.1-3.1-2.1-5c0-2.1,0.8-4.2,2.4-5.6
	C660.1,318.3,664.3,311.1,666.9,302.2L666.9,302.2z M672.1,292c-7.1,0-12.9-5.8-12.9-12.9V267c0-7.1,5.8-12.9,12.9-12.9h11.2
	c7.1,0,12.8,5.8,12.8,12.9v12.1c0,7.1-5.7,12.9-12.8,12.9L672.1,292z M673.7,266c-0.7-0.1-1.4,0.4-1.5,1.1c0,0.1,0,0.3,0,0.4v11.4
	c-0.1,0.7,0.4,1.4,1.1,1.5c0.1,0,0.2,0,0.4,0h7.1c0.7,0.1,1.4-0.4,1.5-1.1c0-0.1,0-0.2,0-0.4v-11.4c0.1-0.7-0.4-1.4-1.1-1.5
	c-0.1,0-0.3,0-0.4,0L673.7,266z"/>
<path class="st3" d="M576.5,350.2c-9.8,0-17.6-8-17.6-17.7V218.4c0-12.6,10.2-22.7,22.7-22.7h17.9c3.8-0.8,7.7-0.2,11,1.7l3.8,2.2
	c3.7,2.1,6.5,5.4,8,9.3c0.4,1.1,0.8,2.2,1,3.4c4-3.6,7.6-7.7,10.8-12c5.4-7.2,12.6-11,21-11s15.5,3.5,21.1,10.2
	c7.1,8.7,15.8,16,25.6,21.6c4.3,2.3,7.5,6.3,8.8,11.1c0.6,1.7,0.9,3.5,0.9,5.3c0,3.2-0.9,6.4-2.5,9.2c0,0.1-0.1,0.2-0.1,0.2
	c-1.7,2.9-4.1,5.3-7,7c2.7,3.8,4.1,8.4,4.1,13.1v12.1c0,6-2.4,11.8-6.7,16.1c-1.9,1.9-4.1,3.5-6.6,4.6c0.1,0.9,0.2,1.8,0.2,2.7
	c0,0.8-0.1,1.7-0.2,2.5c4.9,4,8.8,7.5,11.9,10.4c3.5,3.3,5.4,7.8,5.4,12.6c0,4.9-1.9,9.6-5.4,13l-0.3,0.2c-3.2,3.1-7.5,4.7-12,4.7
	h-0.8c-4.5-0.2-8.8-2-12-5.2l-0.1-0.1c-0.9-0.9-1.8-1.8-2.8-2.8c-1.2,1.5-2.5,2.9-3.8,4.2c-3.2,3.3-7.6,5.1-12.2,5.1
	c-0.9,0-1.7-0.1-2.5-0.3c-4.1-0.5-7.9-2.4-10.9-5.2l-0.2-0.2c-1.3-1.3-2.4-2.8-3.2-4.5h-0.6c-0.3,0-0.7,0-1,0
	c-2.1-0.2-4.2-0.8-6.1-1.8c-1.9,2.5-4,4.8-6.3,7l-0.2,0.1c-3.2,3.1-7.6,4.9-12.1,4.9h-0.6c-0.3,0-0.6,0-0.9,0
	c-4.4-0.4-8.6-2.3-11.8-5.3l-0.2-0.2c-3.2-3.1-5-7.4-5-11.9c0-4.7,1.9-9.3,5.2-12.6l0.3-0.3c1.5-1.4,2.9-2.8,4.2-4.4
	c-2.9,1.4-6,2.3-9.2,2.9c-0.5,0.1-1.1,0.2-1.6,0.2c-0.6,0.1-1.1,0.2-1.7,0.1h-0.7c-0.6,0-1.1,0-1.7-0.1v16.8
	C594.1,342.3,586.2,350.2,576.5,350.2L576.5,350.2z M673.3,313.4c-0.1,0.2-0.1,0.3-0.2,0.5c0.1,0,0.3-0.1,0.4-0.1L673.3,313.4z
	 M652.1,304.1c0.9,0.8,1.7,1.6,2.6,2.5c1.1-2.3,2-4.7,2.7-7.1c0-0.1,0-0.2,0.1-0.2c0.2-0.7,0.5-1.3,0.8-2c-0.7-0.6-1.4-1.2-2.1-1.9
	c-1.3,1.3-2.8,2.5-4.4,3.4c0.3,1.3,0.5,2.7,0.5,4C652.2,303.2,652.2,303.7,652.1,304.1L652.1,304.1z M680.7,275.9L680.7,275.9z
	 M638,275.9L638,275.9z M632,273.2c0.8,0.8,1.8,1.5,2.9,2c1.1-0.5,2.1-1.1,2.9-2c-0.8-0.9-1.8-1.5-2.9-2
	C633.8,271.6,632.8,272.3,632,273.2L632,273.2z M674.7,273.2c0.7,0.8,1.6,1.4,2.5,1.9c0.9-0.5,1.8-1.1,2.5-1.9
	c-0.7-0.8-1.6-1.4-2.5-1.9C676.2,271.8,675.4,272.4,674.7,273.2L674.7,273.2z M688.1,239.4L688.1,239.4z M663.1,222.1L663.1,222.1
	L663.1,222.1z M602.8,215.9c0.2,0.3,0.4,0.5,0.6,0.8c0-0.1,0.1-0.3,0.1-0.4L602.8,215.9z"/>
<path class="st0" d="M231.3,316.8c-2,1.1-3.3,3.1-3.6,5.3v1c0,1.8,0.7,3.6,1.9,5c1.9,2.2,4.4,3.7,7.1,4.6c0.9,0.2,1.9,0.3,2.8,0.3
	c1.8,0,3.5-0.5,5-1.3c22.9-13.3,38.6-32.6,47.1-57.9c0.1-0.3,0.3-0.4,0.5-0.4c0.2,0,0.4,0.1,0.5,0.3c10.7,26.2,26.2,45.4,46.5,57.6
	c1.7,1,3.5,1.5,5.5,1.5c1,0,2-0.1,3-0.3c2.9-0.9,5.4-2.6,7.2-5c1.2-1.5,1.8-3.3,1.8-5.2c0-0.6-0.1-1.2-0.2-1.8
	c-0.4-2.4-1.9-4.5-4.1-5.6c-19.4-10.7-33.9-27.8-43.6-51.5c-11.2-0.4-22.4-0.9-33.7-1.6C268,286.1,253.4,304.6,231.3,316.8z"/>
<path class="st4" d="M306.2,255.2c0.2-0.3,0.5-0.5,0.9-0.4h42.6c5.1,0,9.3-4.2,9.3-9.3c0-5.1-4.2-9.3-9.3-9.3h-48.8
	c-0.4,0-0.8-0.1-1-0.5c-0.2-0.3-0.4-0.6-0.4-1c1-9.7,1.6-19.5,1.6-29.3c-0.1-5.3-4.4-9.6-9.8-9.6c-2.6,0-5.2,1-7,2.9
	c-1.9,1.9-3,4.4-3,7c-0.2,13.2-0.6,22.9-1.2,29c0,0.8-0.6,1.5-1.4,1.5c-0.1,0-0.1,0-0.2,0h-44.3c-5.1,0-9.3,4.2-9.3,9.3
	c0,5.1,4.2,9.3,9.3,9.3h41.4c0.4,0,0.7,0.1,1,0.4c0.2,0.3,0.3,0.6,0.2,1c-0.5,1.9-1.1,3.7-1.6,5.5c11.2,0.7,22.5,1.2,33.7,1.6
	c-1-2.3-1.9-4.7-2.8-7.1C305.9,255.9,306,255.5,306.2,255.2z"/>
<path class="st4" d="M418.1,258.6h89.6c7.1,0,12.9-5.8,12.9-12.9v-26.3c0-7.1-5.8-12.9-12.8-12.9c0,0,0,0,0,0h-89.6
	c-7.1,0-12.9,5.7-12.9,12.8c0,0,0,0,0,0v26.3C405.2,252.9,411,258.6,418.1,258.6z M422.7,220.6c-0.1-0.7,0.4-1.4,1.1-1.5
	c0.1,0,0.3,0,0.4,0h76.7c0.7-0.1,1.4,0.4,1.5,1.1c0,0.1,0,0.3,0,0.4v4.6c0.1,0.7-0.4,1.4-1.1,1.5c-0.1,0-0.3,0-0.4,0h-76.7
	c-0.7,0.1-1.4-0.4-1.5-1.1c0-0.1,0-0.3,0-0.4V220.6z M422.7,239.8c-0.1-0.7,0.4-1.4,1.1-1.5c0.1,0,0.2,0,0.4,0h76.7
	c0.7-0.1,1.4,0.4,1.5,1.1c0,0.1,0,0.2,0,0.4v4.4c0.1,0.7-0.4,1.4-1.1,1.5c-0.1,0-0.2,0-0.4,0h-76.7c-0.7,0.1-1.4-0.4-1.5-1.1
	c0-0.1,0-0.2,0-0.4V239.8z"/>
<path class="st0" d="M497.2,265.3h-68.7c-7.1,0-12.9,5.8-12.9,12.9v53.4c-0.1,2.3,0.9,4.6,2.5,6.2c1.6,1.6,3.8,2.5,6.1,2.5h5
	c1,0,1.9-0.4,2.6-1.1c0.7-0.7,1.1-1.7,1.1-2.7c0-0.2,0.1-0.4,0.3-0.4c0,0,0.1,0,0.1,0h58.1c0.2,0,0.4,0.1,0.4,0.3c0,0,0,0.1,0,0.1
	c0,1,0.3,2,1,2.7c0.7,0.7,1.6,1,2.5,1h5.5c2.4,0.1,4.8-0.9,6.5-2.7c1.8-1.6,2.8-3.9,2.8-6.3v-52.9
	C510.1,271,504.3,265.3,497.2,265.3L497.2,265.3z M491.8,321.4c0.1,0.7-0.4,1.4-1.1,1.5c-0.1,0-0.3,0-0.4,0h-56
	c-0.7,0.1-1.4-0.4-1.5-1.1c0-0.1,0-0.2,0-0.4v-4.1c-0.1-0.7,0.4-1.4,1.1-1.5c0.1,0,0.2,0,0.4,0h56c0.7-0.1,1.4,0.4,1.5,1.1
	c0,0.1,0,0.2,0,0.4V321.4z M491.8,302.4c0.1,0.7-0.4,1.4-1.1,1.5c-0.1,0-0.2,0-0.4,0h-56c-0.7,0.1-1.4-0.4-1.5-1.1
	c0-0.1,0-0.3,0-0.4v-4c-0.1-0.7,0.4-1.4,1.1-1.5c0.1,0,0.3,0,0.4,0h56c0.7-0.1,1.4,0.4,1.5,1.1c0,0.1,0,0.2,0,0.4V302.4z
	 M491.8,283.4c0.1,0.7-0.4,1.4-1.1,1.5c-0.1,0-0.2,0-0.4,0h-56c-0.7,0.1-1.4-0.4-1.5-1.1c0-0.1,0-0.3,0-0.4v-3.9
	c-0.1-0.7,0.4-1.4,1.1-1.5c0.1,0,0.3,0,0.4,0h56c0.7-0.1,1.4,0.4,1.5,1.1c0,0.1,0,0.2,0,0.4V283.4z"/>
<path class="st4" d="M603.3,253.9c-0.6-0.7-0.7-1.7-0.3-2.5c1.1-3,2.6-7.5,4.4-13.6c0.1-0.4,0.5-0.6,0.9-0.5
	c0.2,0.1,0.4,0.2,0.4,0.4c0.3,0.5,0.6,1,0.9,1.6c1.8,2.9,4.5,5,7.7,6.1c1.1,0.3,2.3,0.4,3.4,0.4c2.1,0,4.2-0.6,5.9-1.8
	c2.2-1.5,4.3-3.1,6.5-4.7c0.1-0.1,0.3-0.1,0.4,0c0,0,0,0,0,0c0.2,0.1,0.2,0.2,0.2,0.3c0,3.5,2.8,6.3,6.3,6.4c0,0,0.1,0,0.1,0h31.6
	c3.6,0,6.5-2.9,6.5-6.5c0-0.2,0.1-0.3,0.2-0.4c0.1,0,0.3,0,0.4,0.1c2.9,2.3,5.8,4.4,8.9,6.4c1.3,0.8,2.9,1.3,4.4,1.3
	c0.9,0,1.7-0.1,2.5-0.4c2.4-0.8,4.5-2.4,5.8-4.6c0.8-1.3,1.2-2.8,1.2-4.3c0-0.8-0.1-1.6-0.4-2.4c-0.5-2.3-2-4.2-4.1-5.3
	c-10.9-6.1-20.6-14.2-28.5-23.9c-3.7-4.4-8.1-6.7-13.5-6.7s-9.6,2.3-13,7c-4.3,5.8-9.1,11-14.6,15.7c-5.4,4.8-11.4,8.8-17.8,12.1
	c-0.3,0.1-0.5,0-0.7-0.1c-0.2-0.1-0.3-0.4-0.2-0.6c0.8-2.6,2.3-7.6,4.6-15.1c0.2-0.8,0.3-1.7,0.3-2.5c0-1.1-0.2-2.1-0.6-3.1
	c-0.7-1.8-2-3.4-3.7-4.3l-3.8-2.2c-1.3-0.8-2.8-1-4.3-0.6c-0.2,0.1-0.4,0.2-0.6,0.1h-19.1c-7.1,0-12.8,5.8-12.8,12.9v45.9
	c5.2,0.2,10.3,0.4,15.5,0.6V223c-0.1-0.7,0.4-1.4,1.1-1.5c0.1,0,0.2,0,0.4,0h8.4c0.4,0,0.8,0.1,1,0.4c0.2,0.3,0.3,0.7,0.2,1
	c-1.5,6.8-3,13.2-4.6,19.2c-0.5,2-0.8,4.1-0.7,6.2c0,5,1.4,10.7,4.1,17l0,0c5.3,0.3,10.6,0.6,15.9,0.9
	C608.4,261.9,606.1,257.7,603.3,253.9z M641.9,231.6c4.9-4.5,9.3-9.5,13-14.9c0.2-0.3,0.5-0.5,0.8-0.5c0.3,0,0.6,0.1,0.8,0.3
	c4,5.5,8.5,10.5,13.6,15.1c0.2,0.2,0.2,0.6,0,0.8c-0.1,0.1-0.2,0.2-0.4,0.2h-27.3c-0.2,0-0.3-0.1-0.5-0.4
	C641.8,232,641.8,231.8,641.9,231.6z"/>
<path class="st4" d="M692.3,257.9c-2.4-2.5-5.7-3.8-9.1-3.8H672c-6.4,0-11.9,4.7-12.7,11.1c10.8-1.8,22-4.2,33.5-6.8
	C692.6,258.3,692.5,258.1,692.3,257.9z"/>
<path class="st0" d="M568.7,332.5c0,2.1,0.8,4.1,2.3,5.5c3,3,7.8,3.1,10.9,0.1c0,0,0.1-0.1,0.1-0.1c1.5-1.5,2.3-3.5,2.3-5.5v-67.6
	c-5.2-0.2-10.3-0.4-15.5-0.6V332.5z"/>
<path class="st0" d="M610.1,266.4c-5.3-0.4-10.6-0.7-15.9-0.9c2.1,5,3.1,10.3,3.1,15.6c0,4.5-0.7,7.3-2.2,8.4
	c-0.7,0.6-1.6,1-2.5,1.2c-1.7,0.4-3.3,1.4-4.3,2.8c-0.7,1-1,2.1-1,3.2c0,0.5,0.1,1,0.2,1.5c0.5,2.2,1.7,4.1,3.4,5.6
	c1.3,1.3,3.1,2.1,5,2.1h0.7c0.5-0.1,1-0.1,1.5-0.1c3-0.5,5.9-1.5,8.6-3.1c4.4-3.2,6.6-9.7,6.7-19.4
	C613.2,277.5,612.1,271.8,610.1,266.4z"/>
<path class="st0" d="M659.1,279.1c0,7.1,5.8,12.9,12.9,12.9h11.2c7.1,0,12.8-5.8,12.8-12.9V267c0-3.2-1.1-6.2-3.3-8.5
	c-11.5,2.6-22.7,5-33.5,6.8c-0.1,0.6-0.1,1.2-0.2,1.7L659.1,279.1z M672.1,267.5c-0.1-0.7,0.4-1.4,1.1-1.5c0.1,0,0.2,0,0.4,0h7.1
	c0.7-0.1,1.4,0.4,1.5,1.1c0,0.1,0,0.2,0,0.4v11.4c0.1,0.7-0.4,1.4-1.1,1.5c-0.1,0-0.2,0-0.4,0h-7.1c-0.7,0.1-1.4-0.4-1.5-1.1
	c0-0.1,0-0.3,0-0.4V267.5z"/>
<path class="st0" d="M682.5,309.5c-0.6-0.5-0.8-1.3-0.6-2.1c0.4-1,0.7-2,0.9-3c0.2-0.6,0.3-1.3,0.3-1.9c0-1.4-0.4-2.7-1.2-3.8
	c-1.2-1.7-3.1-2.9-5.2-3.2h-1.3c-1.7,0-3.4,0.6-4.7,1.7c-1.8,1.2-3.2,3.1-3.8,5.2c-2.6,8.9-6.7,16.1-12.4,21.7
	c-1.5,1.5-2.4,3.5-2.4,5.6c0,1.9,0.7,3.7,2.1,5c1.6,1.6,3.7,2.6,6,2.7c0.2,0.1,0.5,0.2,0.7,0.1c2,0,3.8-0.8,5.2-2.2
	c3.3-3.3,6.1-7,8.6-10.9c0.5-0.9,1.1-1,1.8-0.3c3.9,3.6,7.4,6.9,10.3,9.9c1.4,1.5,3.4,2.3,5.5,2.4h0.3c2,0,3.9-0.7,5.3-2.1
	c1.6-1.6,2.5-3.8,2.5-6.1c0-2.1-0.8-4.1-2.4-5.5C694.2,319.1,689.1,314.7,682.5,309.5z"/>
<path class="st0" d="M641.9,308.1c-0.6-0.4-0.8-1.2-0.4-1.8c0.1-0.4,0.3-0.8,0.4-1.2c0.3-0.8,0.4-1.6,0.5-2.4c0-1.2-0.3-2.4-1-3.4
	c-1.1-1.8-2.8-3-4.9-3.4c-0.5-0.1-1.1-0.1-1.6-0.1c-1.6,0-3.1,0.5-4.4,1.3c-1.9,1.1-3.4,2.8-4.1,4.9c-3.1,8.4-8.1,16-14.6,22.2
	c-1.5,1.5-2.4,3.5-2.4,5.6c0,1.8,0.7,3.6,2.1,4.9c1.6,1.5,3.7,2.5,5.9,2.7h0.6c2,0,3.9-0.8,5.3-2.2c4.1-4,7.7-8.6,10.6-13.5
	c0.5-0.8,1.1-0.8,1.8-0.1c1.1,1.2,2.1,2.2,3,3.1c1.2,1.5,3,2.4,4.9,2.5h0.5c1.7,0,3.3-0.6,4.4-1.8c1.6-1.5,2.5-3.6,2.5-5.8
	c0-1.9-0.7-3.8-2.1-5.2C646.4,312.2,644.1,310.1,641.9,308.1z"/>
<path class="st4" d="M630.2,267.5c-0.1-0.7,0.4-1.4,1.1-1.5c0.1,0,0.2,0,0.4,0h6.3c0.7-0.1,1.4,0.4,1.5,1.1c0,0.1,0,0.2,0,0.4v0.1
	c4.4-0.3,8.8-0.7,13.4-1.3c-0.4-6.8-6-12.1-12.8-12.1h-10c-7,0-12.8,5.7-12.8,12.7c4.3,0.3,8.7,0.6,13,1L630.2,267.5z"/>
<path class="st0" d="M617.2,279.1c0,7.1,5.8,12.9,12.9,12.9c0,0,0,0,0,0h10c7.1,0,12.9-5.8,12.9-12.9V267c0-0.3-0.1-0.5-0.1-0.8
	c-4.5,0.6-9,1-13.4,1.3v11.3c0.1,0.7-0.4,1.4-1.1,1.5c-0.1,0-0.2,0-0.4,0h-6.3c-0.7,0.1-1.4-0.4-1.5-1.1c0-0.1,0-0.3,0-0.4v-11
	c-4.3-0.4-8.7-0.6-13-1c0,0,0,0.1,0,0.1L617.2,279.1z"/>
<rect x="150.1" y="33.3" class="st3" width="8.8" height="8.8"/>
<rect x="150.1" y="58" class="st3" width="8.8" height="8.8"/>
<rect x="567.5" y="104.5" class="st3" width="8.8" height="8.8"/>
<rect x="630.4" y="268.7" class="st3" width="8.8" height="8.8"/>
<rect x="672.8" y="268.7" class="st3" width="8.8" height="8.8"/>
<rect x="176.5" y="33.1" class="st3" width="8.8" height="8.8"/>
<rect x="176.5" y="58" class="st3" width="8.8" height="8.8"/>
</svg>
